<svg width="143" height="128" viewBox="0 0 143 128" fill="none" xmlns="http://www.w3.org/2000/svg">
<path d="M18.5643 78.2158L18.5571 78.2136L18.5498 78.2116C17.7398 77.9907 17.0995 77.3704 16.8527 76.5681C16.6709 75.8868 16.8566 75.1596 17.3434 74.6487L17.3435 74.6488L17.3513 74.6402L19.4007 72.3866C20.6909 73.6783 22.631 74.7275 24.9914 75.4739C27.6076 76.301 30.7822 76.7697 34.2647 76.7697H34.2762L34.2878 76.7692C34.4053 76.7637 34.5215 76.7464 34.6349 76.7176C34.7483 76.7464 34.8645 76.7637 34.9819 76.7692L34.9935 76.7697H35.0051C37.3108 76.7697 39.3948 76.1899 40.9183 75.2101C42.4397 74.2316 43.4494 72.816 43.4494 71.1606C43.4494 69.5053 42.4397 68.0896 40.9183 67.1112C39.3962 66.1323 37.3147 65.5526 35.0115 65.5515C32.8166 65.4964 30.6558 66.1023 28.8095 67.2906L28.7996 67.297L28.7899 67.3039C27.9915 67.8729 27.8049 68.981 28.3727 69.7802C28.9372 70.5748 30.0354 70.7655 30.8342 70.2109C32.0818 69.4448 33.5263 69.0606 34.9897 69.1058L34.9974 69.106H35.0051C36.4793 69.106 37.7475 69.429 38.6305 69.8769C39.0728 70.1012 39.4016 70.3483 39.6135 70.5856C39.8274 70.8252 39.8948 71.0221 39.8948 71.1606C39.8948 71.2992 39.8274 71.496 39.6135 71.7357C39.4016 71.973 39.0728 72.22 38.6305 72.4443C37.7475 72.8922 36.4793 73.2152 35.0051 73.2152H34.9935L34.9819 73.2158C34.8644 73.2212 34.7482 73.2386 34.6348 73.2673C34.5215 73.2386 34.4052 73.2212 34.2878 73.2158L34.2762 73.2152H34.2647C30.4434 73.2152 27.1238 72.5494 24.7768 71.6015C23.6013 71.1267 22.6914 70.5899 22.0844 70.0487C21.4688 69.4997 21.2259 69.0038 21.2259 68.6062C21.2259 68.2085 21.4688 67.7126 22.0845 67.1636C22.6914 66.6224 23.6014 66.0856 24.7768 65.6108C27.1239 64.6629 30.4434 63.9971 34.2647 63.9971C41.6239 63.9971 48.5116 68.92 51.7709 73.5072L51.7815 73.5222L51.7932 73.5363C52.4077 74.2792 52.6613 75.2555 52.4871 76.2024C52.2861 76.7795 51.8271 77.2307 51.2452 77.4212L51.2285 77.4267L51.2123 77.4333L48.6293 78.4848C48.629 78.4849 48.6288 78.485 48.6285 78.4851C45.8297 79.6137 42.7419 79.8117 39.8219 79.0497L38.878 78.8028C35.7271 77.9776 32.409 78.0435 29.2934 78.9932C26.6249 79.799 23.7779 79.799 21.1094 78.9933C21.1091 78.9932 21.1089 78.9931 21.1086 78.9931L18.5643 78.2158Z" fill="#252422" stroke="#FFFCF2"/>
<path d="M8.13686 85.0813L8.14597 85.0876C9.00468 85.6818 10.0259 85.9963 11.0701 85.9879L11.0741 85.9879V85.9879H13.4343H13.4346V86.4879C15.589 86.4865 17.7256 86.8781 19.7394 87.6435L8.13686 85.0813ZM8.13686 85.0813L8.12748 85.0754C5.77128 83.5949 4.99659 80.5235 6.36615 78.1028C6.99174 77.1247 8.026 76.4817 9.18037 76.3536L9.18778 76.3527L9.19516 76.3517L13.2367 75.7807M8.13686 85.0813L13.2367 75.7807M13.2367 75.7807C13.2076 76.3638 13.2713 76.9493 13.4266 77.5151L13.4266 77.5151L13.4284 77.5216C14.0007 79.5014 15.5501 81.0481 17.5307 81.6167L20.0724 82.3932L20.0741 82.3937C23.4183 83.4025 26.9858 83.4025 30.3299 82.3937L30.3315 82.3932C32.817 81.6342 35.4644 81.5814 37.9781 82.2408L37.9784 82.2408L38.9227 82.4878L38.9231 82.488C42.5853 83.4424 46.4574 83.1935 49.9672 81.7781L49.9688 81.7775L52.545 80.7285C54.1521 80.1346 55.3927 78.8283 55.9026 77.1923L55.9027 77.1924L55.9065 77.1792C56.0355 76.7213 56.1054 76.2496 56.1152 75.7757L58.013 76.0821L58.013 76.0822L58.0179 76.0829C60.3061 76.4291 62.4534 77.4029 64.2214 78.8962L64.2291 78.9027L64.2371 78.9089C65.0846 79.568 65.6303 80.5413 65.7508 81.6084C65.8704 82.6688 65.5599 83.7326 64.8892 84.5619C64.8565 84.5959 64.7835 84.6723 64.7446 84.7172C62.7405 86.9319 59.6584 87.8272 56.7793 87.0307L56.7793 87.0306L56.7715 87.0286L52.9802 86.0451L52.9797 86.045C49.4334 85.1291 45.6941 85.2969 42.244 86.5265L42.2428 86.527L34.9558 89.1446C34.9553 89.1448 34.9548 89.145 34.9543 89.1451C31.6562 90.3054 28.0553 90.269 24.7812 89.0427C24.7807 89.0425 24.7801 89.0422 24.7795 89.042L13.2367 75.7807Z" fill="#252422" stroke="#FFFCF2"/>
<mask id="path-3-inside-1" fill="white">
<path d="M2.494 94.6737C4.26628 96.5766 6.96492 97.309 9.45611 96.5634C9.48978 96.5541 9.52345 96.546 9.55781 96.5391C12.2457 95.7816 15.1307 96.2434 17.448 97.802L18.6529 98.6071C20.3741 99.7454 22.5075 100.072 24.4905 99.5021C24.5255 99.4922 24.561 99.4834 24.5966 99.4765C27.4014 98.6787 30.4175 99.2227 32.7667 100.95C34.6097 102.277 35.7158 104.398 35.7492 106.669V109.479C35.7668 110.158 36.0834 110.794 36.6143 111.217C37.2707 111.754 38.0951 112.043 38.9431 112.034C40.524 112.188 41.9403 111.055 42.137 109.479V103.093C42.3524 100.918 44.1816 99.2611 46.3668 99.2611C48.552 99.2611 50.3812 100.918 50.5966 103.093V105.647C50.6051 105.97 50.7581 106.273 51.0133 106.472C51.3636 106.771 51.8112 106.932 52.2719 106.925C53.08 107.008 53.8134 106.448 53.9471 105.647V99.618C54.0054 98.2108 55.1895 97.115 56.5971 97.1657C56.8556 97.1635 57.1132 97.1973 57.3624 97.2661C61.0126 98.34 64.957 97.289 67.5888 94.5414C68.5557 93.4622 69.0445 92.0376 68.9441 90.5922C68.798 89.1241 68.081 87.7721 66.9476 86.8274C64.176 89.8377 59.9595 91.0555 56.0097 89.9861L52.2134 89.0013C49.2617 88.2387 46.1491 88.3779 43.2774 89.4011L35.9867 92.02C34.0721 92.7013 32.0542 93.0474 30.022 93.0428C27.8605 93.0468 25.7163 92.6583 23.6935 91.8965L18.8301 90.0305C17.107 89.3761 15.2791 89.0414 13.4358 89.0427H11.0746C9.39632 89.0506 7.75676 88.5396 6.38013 87.5795C5.6573 87.0653 5.01131 86.4509 4.4613 85.7549C4.31587 86.0706 4.04736 86.313 3.71836 86.425L3.13957 86.9215C2.00127 87.8121 1.27649 89.1293 1.13343 90.5675C0.990378 92.0058 1.44162 93.4398 2.38238 94.5372L2.494 94.6737Z"/>
</mask>
<path d="M2.494 94.6737C4.26628 96.5766 6.96492 97.309 9.45611 96.5634C9.48978 96.5541 9.52345 96.546 9.55781 96.5391C12.2457 95.7816 15.1307 96.2434 17.448 97.802L18.6529 98.6071C20.3741 99.7454 22.5075 100.072 24.4905 99.5021C24.5255 99.4922 24.561 99.4834 24.5966 99.4765C27.4014 98.6787 30.4175 99.2227 32.7667 100.95C34.6097 102.277 35.7158 104.398 35.7492 106.669V109.479C35.7668 110.158 36.0834 110.794 36.6143 111.217C37.2707 111.754 38.0951 112.043 38.9431 112.034C40.524 112.188 41.9403 111.055 42.137 109.479V103.093C42.3524 100.918 44.1816 99.2611 46.3668 99.2611C48.552 99.2611 50.3812 100.918 50.5966 103.093V105.647C50.6051 105.97 50.7581 106.273 51.0133 106.472C51.3636 106.771 51.8112 106.932 52.2719 106.925C53.08 107.008 53.8134 106.448 53.9471 105.647V99.618C54.0054 98.2108 55.1895 97.115 56.5971 97.1657C56.8556 97.1635 57.1132 97.1973 57.3624 97.2661C61.0126 98.34 64.957 97.289 67.5888 94.5414C68.5557 93.4622 69.0445 92.0376 68.9441 90.5922C68.798 89.1241 68.081 87.7721 66.9476 86.8274C64.176 89.8377 59.9595 91.0555 56.0097 89.9861L52.2134 89.0013C49.2617 88.2387 46.1491 88.3779 43.2774 89.4011L35.9867 92.02C34.0721 92.7013 32.0542 93.0474 30.022 93.0428C27.8605 93.0468 25.7163 92.6583 23.6935 91.8965L18.8301 90.0305C17.107 89.3761 15.2791 89.0414 13.4358 89.0427H11.0746C9.39632 89.0506 7.75676 88.5396 6.38013 87.5795C5.6573 87.0653 5.01131 86.4509 4.4613 85.7549C4.31587 86.0706 4.04736 86.313 3.71836 86.425L3.13957 86.9215C2.00127 87.8121 1.27649 89.1293 1.13343 90.5675C0.990378 92.0058 1.44162 93.4398 2.38238 94.5372L2.494 94.6737Z" fill="#252422"/>
<path d="M2.494 94.6737L1.71991 95.3067L1.74029 95.3317L1.76223 95.3552L2.494 94.6737ZM9.45611 96.5634L9.18826 95.6L9.1788 95.6026L9.16938 95.6054L9.45611 96.5634ZM9.55781 96.5391L9.75316 97.5199L9.79147 97.5122L9.82906 97.5016L9.55781 96.5391ZM17.448 97.802L16.8898 98.6318L16.8924 98.6335L17.448 97.802ZM18.6529 98.6071L18.0973 99.4386L18.1013 99.4412L18.6529 98.6071ZM24.4905 99.5021L24.2174 98.5401L24.2141 98.541L24.4905 99.5021ZM24.5966 99.4765L24.7853 100.459L24.8282 100.45L24.8702 100.438L24.5966 99.4765ZM32.7667 100.95L32.1742 101.756L32.1824 101.762L32.7667 100.95ZM35.7492 106.669H36.7492V106.661L36.7491 106.654L35.7492 106.669ZM35.7492 109.479H34.7492V109.492L34.7496 109.505L35.7492 109.479ZM36.6143 111.217L37.2474 110.443L37.2377 110.435L36.6143 111.217ZM38.9431 112.034L39.0403 111.038L38.9862 111.033L38.9319 111.034L38.9431 112.034ZM42.137 109.479L43.1293 109.603L43.137 109.541V109.479H42.137ZM42.137 103.093L41.1419 102.994L41.137 103.043V103.093H42.137ZM50.5966 103.093H51.5966V103.043L51.5917 102.994L50.5966 103.093ZM50.5966 105.647H49.5966V105.66L49.5969 105.674L50.5966 105.647ZM51.0133 106.472L51.6631 105.712L51.6457 105.697L51.6275 105.683L51.0133 106.472ZM52.2719 106.925L52.3744 105.93L52.315 105.924L52.2552 105.925L52.2719 106.925ZM53.9471 105.647L54.9335 105.812L54.9471 105.73V105.647H53.9471ZM53.9471 99.618L52.948 99.5767L52.9471 99.5973V99.618H53.9471ZM56.5971 97.1657L56.5611 98.165L56.5834 98.1658L56.6058 98.1657L56.5971 97.1657ZM57.3624 97.2661L57.6447 96.3068L57.6367 96.3045L57.6288 96.3023L57.3624 97.2661ZM67.5888 94.5414L68.311 95.2331L68.3225 95.2211L68.3336 95.2087L67.5888 94.5414ZM68.9441 90.5922L69.9417 90.5229L69.9407 90.508L69.9392 90.4932L68.9441 90.5922ZM66.9476 86.8274L67.5878 86.0592L66.8567 85.4498L66.2119 86.1501L66.9476 86.8274ZM56.0097 89.9861L56.271 89.0208L56.2608 89.0181L56.0097 89.9861ZM52.2134 89.0013L52.4645 88.0333L52.4635 88.0331L52.2134 89.0013ZM43.2774 89.4011L42.9418 88.4591L42.9394 88.46L43.2774 89.4011ZM35.9867 92.02L36.322 92.9621L36.3248 92.9611L35.9867 92.02ZM30.022 93.0428L30.0242 92.0428L30.0201 92.0428L30.022 93.0428ZM23.6935 91.8965L23.3353 92.8302L23.3411 92.8323L23.6935 91.8965ZM18.8301 90.0305L19.1883 89.0969L19.1851 89.0956L18.8301 90.0305ZM13.4358 89.0427V90.0427L13.4365 90.0427L13.4358 89.0427ZM11.0746 89.0427V88.0426L11.0698 88.0427L11.0746 89.0427ZM6.38013 87.5795L5.8004 88.3944L5.80811 88.3998L6.38013 87.5795ZM4.4613 85.7549L5.24589 85.1349L4.23509 83.8558L3.55303 85.3365L4.4613 85.7549ZM3.71836 86.425L3.39599 85.4784L3.21355 85.5406L3.06727 85.666L3.71836 86.425ZM3.13957 86.9215L3.75578 87.7091L3.77354 87.6952L3.79066 87.6805L3.13957 86.9215ZM2.38238 94.5372L3.15648 93.9041L3.14913 93.8951L3.14158 93.8863L2.38238 94.5372ZM1.76223 95.3552C3.79379 97.5365 6.88722 98.3761 9.74284 97.5214L9.16938 95.6054C7.04263 96.2419 4.73876 95.6166 3.22578 93.9921L1.76223 95.3552ZM9.72396 97.5269C9.73517 97.5238 9.74463 97.5216 9.75316 97.5199L9.36246 95.5584C9.30226 95.5704 9.24439 95.5844 9.18826 95.6L9.72396 97.5269ZM9.82906 97.5016C12.2344 96.8238 14.8162 97.237 16.8898 98.6318L18.0061 96.9723C15.4453 95.2498 12.257 94.7395 9.28657 95.5766L9.82906 97.5016ZM16.8924 98.6335L18.0973 99.4386L19.2085 97.7757L18.0035 96.9706L16.8924 98.6335ZM18.1013 99.4412C20.0666 100.741 22.5026 101.114 24.767 100.463L24.2141 98.541C22.5123 99.0305 20.6815 98.7499 19.2045 97.7731L18.1013 99.4412ZM24.7637 100.464C24.7776 100.46 24.7843 100.459 24.7853 100.459L24.4079 98.4945C24.3377 98.508 24.2734 98.5242 24.2174 98.5401L24.7637 100.464ZM24.8702 100.438C27.3777 99.7251 30.0741 100.211 32.1743 101.756L33.3591 100.145C30.7609 98.2339 27.4251 97.6323 24.323 98.5147L24.8702 100.438ZM32.1824 101.762C33.7686 102.904 34.7206 104.729 34.7493 106.683L36.7491 106.654C36.7111 104.067 35.4508 101.65 33.351 100.139L32.1824 101.762ZM34.7492 106.669V109.479H36.7492V106.669H34.7492ZM34.7496 109.505C34.7748 110.479 35.2291 111.392 35.9908 111.999L37.2377 110.435C36.9377 110.196 36.7588 109.837 36.7489 109.453L34.7496 109.505ZM35.9812 111.991C36.8192 112.677 37.8717 113.046 38.9543 113.034L38.9319 111.034C38.3186 111.041 37.7222 110.831 37.2473 110.443L35.9812 111.991ZM38.8459 113.029C40.966 113.236 42.8655 111.717 43.1293 109.603L41.1447 109.355C41.0151 110.394 40.082 111.14 39.0403 111.038L38.8459 113.029ZM43.137 109.479V103.093H41.137V109.479H43.137ZM43.1321 103.191C43.2969 101.528 44.6957 100.261 46.3668 100.261V98.2611C43.6675 98.2611 41.408 100.308 41.1419 102.994L43.1321 103.191ZM46.3668 100.261C48.0379 100.261 49.4367 101.528 49.6015 103.191L51.5917 102.994C51.3256 100.308 49.0662 98.2611 46.3668 98.2611V100.261ZM49.5966 103.093V105.647H51.5966V103.093H49.5966ZM49.5969 105.674C49.6134 106.296 49.9079 106.879 50.3991 107.261L51.6275 105.683C51.6083 105.668 51.5969 105.645 51.5963 105.621L49.5969 105.674ZM50.3636 107.232C50.8992 107.69 51.5838 107.936 52.2886 107.924L52.2552 105.925C52.0385 105.928 51.8279 105.852 51.6631 105.712L50.3636 107.232ZM52.1694 107.919C53.5028 108.057 54.7129 107.134 54.9335 105.812L52.9607 105.483C52.9139 105.763 52.6571 105.959 52.3744 105.93L52.1694 107.919ZM54.9471 105.647V99.618H52.9471V105.647H54.9471ZM54.9462 99.6594C54.9817 98.8019 55.7033 98.1341 56.5611 98.165L56.6331 96.1663C54.6757 96.0958 53.029 97.6197 52.948 99.5767L54.9462 99.6594ZM56.6058 98.1657C56.7713 98.1642 56.9364 98.1859 57.0961 98.23L57.6288 96.3023C57.29 96.2086 56.9399 96.1627 56.5885 96.1657L56.6058 98.1657ZM57.0802 98.2255C61.0889 99.4048 65.4206 98.2506 68.311 95.2331L66.8667 93.8496C64.4933 96.3275 60.9363 97.2752 57.6447 96.3068L57.0802 98.2255ZM68.3336 95.2087C69.4809 93.9281 70.0609 92.2379 69.9417 90.5229L67.9465 90.6616C68.0282 91.8373 67.6306 92.9962 66.844 93.8741L68.3336 95.2087ZM69.9392 90.4932C69.7671 88.7641 68.9227 87.1718 67.5878 86.0592L66.3074 87.5955C67.2393 88.3723 67.8289 89.4841 67.949 90.6913L69.9392 90.4932ZM66.2119 86.1501C63.693 88.886 59.8608 89.9928 56.271 89.0208L55.7483 90.9513C60.0582 92.1182 64.6591 90.7894 67.6833 87.5047L66.2119 86.1501ZM56.2608 89.0181L52.4645 88.0333L51.9623 89.9693L55.7586 90.954L56.2608 89.0181ZM52.4635 88.0331C49.3184 87.2205 46.0018 87.3689 42.9418 88.4591L43.613 90.3431C46.2965 89.387 49.2051 89.2569 51.9632 89.9695L52.4635 88.0331ZM42.9394 88.46L35.6487 91.0789L36.3248 92.9611L43.6155 90.3423L42.9394 88.46ZM35.6515 91.0779C33.8452 91.7207 31.9415 92.0471 30.0242 92.0428L30.0197 94.0428C32.167 94.0476 34.299 93.682 36.322 92.9621L35.6515 91.0779ZM30.0201 92.0428C27.9797 92.0466 25.9556 91.6798 24.046 90.9607L23.3411 92.8323C25.477 93.6368 27.7413 94.047 30.0238 94.0428L30.0201 92.0428ZM24.0518 90.9629L19.1883 89.0969L18.4718 90.9641L23.3353 92.8301L24.0518 90.9629ZM19.1851 89.0956C17.3483 88.3981 15.3999 88.0413 13.4352 88.0427L13.4365 90.0427C15.1582 90.0415 16.8656 90.3541 18.475 90.9654L19.1851 89.0956ZM13.4358 88.0427H11.0746V90.0427H13.4358V88.0427ZM11.0698 88.0427C9.59779 88.0496 8.15968 87.6014 6.95215 86.7593L5.80811 88.3998C7.35384 89.4777 9.19484 90.0516 11.0793 90.0426L11.0698 88.0427ZM6.95983 86.7647C6.31427 86.3054 5.73724 85.7566 5.24589 85.1349L3.67672 86.3749C4.28539 87.1451 5.00034 87.8252 5.80042 88.3944L6.95983 86.7647ZM3.55303 85.3365C3.52205 85.4038 3.46508 85.4549 3.39599 85.4784L4.04073 87.3717C4.62964 87.1711 5.1097 86.7375 5.36958 86.1733L3.55303 85.3365ZM3.06727 85.666L2.48848 86.1625L3.79066 87.6805L4.36945 87.184L3.06727 85.666ZM2.52337 86.134C1.1701 87.1927 0.308421 88.7586 0.138345 90.4685L2.12852 90.6665C2.24456 89.4999 2.83244 88.4316 3.75578 87.7091L2.52337 86.134ZM0.138345 90.4685C-0.0317388 92.1785 0.50477 93.8834 1.62318 95.188L3.14158 93.8863C2.37847 92.9962 2.0125 91.833 2.12852 90.6665L0.138345 90.4685ZM1.60829 95.1702L1.71991 95.3067L3.2681 94.0406L3.15648 93.9041L1.60829 95.1702Z" fill="#FFFCF2" mask="url(#path-3-inside-1)"/>
<path d="M0.671165 103.77L1.53079 97.9044C3.98867 99.7552 7.18552 100.372 10.1804 99.5322C10.2241 99.5233 10.2682 99.5124 10.3127 99.4993C12.1541 98.9691 14.1353 99.273 15.7332 100.331C15.7335 100.331 15.7338 100.331 15.7341 100.331L16.936 101.134C16.9363 101.134 16.9365 101.135 16.9367 101.135C19.3706 102.771 22.3993 103.259 25.2232 102.469C25.2622 102.46 25.3046 102.45 25.3486 102.438L25.3486 102.438L25.3524 102.436C27.2604 101.867 29.3249 102.221 30.934 103.394L30.9339 103.394L30.9428 103.4C32.0168 104.148 32.6677 105.365 32.6936 106.673L32.6936 109.479L32.6936 109.483C32.7067 111.056 33.4166 112.542 34.6319 113.541C35.8359 114.551 37.3599 115.099 38.931 115.088C42.1914 115.257 44.9824 112.771 45.1895 109.511L45.1905 109.495V109.479V103.166C45.3565 102.66 45.8292 102.315 46.3656 102.315C46.9021 102.315 47.3748 102.66 47.5408 103.166L47.5408 105.647L47.5408 105.651C47.5491 106.861 48.0887 108.006 49.0163 108.784C49.9167 109.564 51.0709 109.989 52.2622 109.979C54.7538 110.086 56.8681 108.166 56.9998 105.674L57.0005 105.66V105.647V100.333C61.478 101.451 66.2181 100.162 69.5133 96.9332L70.688 102.943C70.6881 102.944 70.6882 102.945 70.6884 102.945C71.7013 108.317 70.2179 113.857 66.6565 118.003C61.6064 123.763 54.2743 127.003 46.6156 126.861L46.6156 126.861H46.6064H24.8924V126.861L24.8814 126.861C17.3838 127.027 10.1836 123.929 5.14885 118.371C1.57755 114.402 -0.06077 109.059 0.671165 103.77Z" fill="#252422" stroke="#FFFCF2"/>
<path d="M90.0643 78.1621L90.0571 78.1599L90.0498 78.1579C89.2398 77.937 88.5995 77.3167 88.3527 76.5144C88.1709 75.833 88.3566 75.1059 88.8434 74.595L88.8435 74.5951L88.8513 74.5865L90.9007 72.3328C92.1909 73.6246 94.131 74.6738 96.4914 75.4201C99.1076 76.2473 102.282 76.716 105.765 76.716H105.776L105.788 76.7155C105.905 76.71 106.022 76.6927 106.135 76.6639C106.248 76.6927 106.365 76.71 106.482 76.7155L106.493 76.716H106.505C108.811 76.716 110.895 76.1362 112.418 75.1564C113.94 74.1779 114.949 72.7623 114.949 71.1069C114.949 69.4516 113.94 68.0359 112.418 67.0574C110.896 66.0786 108.815 65.4989 106.512 65.4978C104.317 65.4427 102.156 66.0486 100.31 67.2369L100.3 67.2433L100.29 67.2502C99.4915 67.8192 99.3049 68.9273 99.8727 69.7265C100.437 70.5211 101.535 70.7118 102.334 70.1572C103.582 69.3911 105.026 69.0069 106.49 69.0521L106.497 69.0523H106.505C107.979 69.0523 109.248 69.3753 110.131 69.8232C110.573 70.0475 110.902 70.2946 111.113 70.5319C111.327 70.7715 111.395 70.9684 111.395 71.1069C111.395 71.2455 111.327 71.4423 111.113 71.6819C110.902 71.9192 110.573 72.1663 110.131 72.3906C109.248 72.8385 107.979 73.1615 106.505 73.1615H106.494L106.482 73.1621C106.364 73.1675 106.248 73.1849 106.135 73.2136C106.021 73.1849 105.905 73.1675 105.788 73.1621L105.776 73.1615H105.765C101.943 73.1615 98.6239 72.4957 96.2768 71.5478C95.1013 71.073 94.1914 70.5362 93.5844 69.995C92.9688 69.446 92.7259 68.9501 92.7259 68.5524C92.7259 68.1548 92.9688 67.6589 93.5845 67.1099C94.1914 66.5687 95.1014 66.0319 96.2768 65.5571C98.6239 64.6092 101.943 63.9434 105.765 63.9434C113.124 63.9434 120.012 68.8663 123.271 73.4535L123.282 73.4684L123.293 73.4826C123.908 74.2255 124.161 75.2018 123.987 76.1487C123.786 76.7258 123.327 77.177 122.745 77.3675L122.729 77.373L122.712 77.3796L120.129 78.4311C120.129 78.4312 120.129 78.4313 120.129 78.4314C117.33 79.56 114.242 79.758 111.322 78.9959L110.378 78.7491C107.227 77.9239 103.909 77.9898 100.793 78.9395C98.1249 79.7453 95.2779 79.7453 92.6094 78.9396C92.6091 78.9395 92.6089 78.9394 92.6086 78.9393L90.0643 78.1621Z" fill="#252422" stroke="#FFFCF2"/>
<path d="M79.6369 85.0276L79.646 85.0339C80.5047 85.6281 81.5259 85.9426 82.5701 85.9342L82.5741 85.9341V85.9342H84.9343H84.9346V86.4342C87.089 86.4328 89.2256 86.8244 91.2394 87.5898L79.6369 85.0276ZM79.6369 85.0276L79.6275 85.0217C77.2713 83.5411 76.4966 80.4698 77.8662 78.0491C78.4917 77.071 79.526 76.428 80.6804 76.2998L80.6878 76.299L80.6952 76.298L84.7367 75.727M79.6369 85.0276L84.7367 75.727M84.7367 75.727C84.7076 76.3101 84.7713 76.8956 84.9266 77.4614L84.9266 77.4614L84.9284 77.4678C85.5007 79.4477 87.05 80.9943 89.0307 81.563L91.5724 82.3395L91.5741 82.34C94.9183 83.3488 98.4858 83.3488 101.83 82.34L101.831 82.3395C104.317 81.5804 106.964 81.5277 109.478 82.187L109.478 82.1871L110.423 82.4341L110.423 82.4342C114.085 83.3886 117.957 83.1398 121.467 81.7244L121.469 81.7238L124.045 80.6748C125.652 80.0809 126.893 78.7746 127.403 77.1386L127.403 77.1387L127.406 77.1254C127.535 76.6676 127.605 76.1959 127.615 75.722L129.513 76.0284L129.513 76.0284L129.518 76.0292C131.806 76.3754 133.953 77.3492 135.721 78.8425L135.729 78.849L135.737 78.8552C136.585 79.5143 137.13 80.4876 137.251 81.5547C137.37 82.6151 137.06 83.6788 136.389 84.5082C136.356 84.5422 136.283 84.6186 136.245 84.6635C134.24 86.8782 131.158 87.7734 128.279 86.977L128.279 86.9769L128.271 86.9749L124.48 85.9914L124.48 85.9913C120.933 85.0754 117.194 85.2431 113.744 86.4728L113.743 86.4732L106.456 89.0909C106.455 89.0911 106.455 89.0912 106.454 89.0914C103.156 90.2516 99.5553 90.2153 96.2812 88.9889C96.2807 88.9887 96.2801 88.9885 96.2795 88.9883L84.7367 75.727Z" fill="#252422" stroke="#FFFCF2"/>
<mask id="path-8-inside-2" fill="white">
<path d="M73.994 94.62C75.7663 96.5228 78.4649 97.2553 80.9561 96.5097C80.9898 96.5004 81.0234 96.4923 81.0578 96.4854C83.7457 95.7279 86.6307 96.1897 88.948 97.7483L90.1529 98.5534C91.8741 99.6917 94.0075 100.019 95.9905 99.4484C96.0255 99.4385 96.061 99.4296 96.0966 99.4228C98.9014 98.625 101.917 99.169 104.267 100.897C106.11 102.223 107.216 104.344 107.249 106.615V109.425C107.267 110.104 107.583 110.74 108.114 111.163C108.771 111.7 109.595 111.989 110.443 111.98C112.024 112.134 113.44 111.002 113.637 109.425V103.039C113.852 100.864 115.682 99.2074 117.867 99.2074C120.052 99.2074 121.881 100.864 122.097 103.039V105.593C122.105 105.917 122.258 106.219 122.513 106.418C122.864 106.717 123.311 106.878 123.772 106.871C124.58 106.954 125.313 106.395 125.447 105.593V99.5643C125.505 98.1571 126.689 97.0613 128.097 97.112C128.356 97.1097 128.613 97.1435 128.862 97.2124C132.513 98.2863 136.457 97.2353 139.089 94.4877C140.056 93.4084 140.545 91.9839 140.444 90.5385C140.298 89.0704 139.581 87.7183 138.448 86.7737C135.676 89.784 131.46 91.0018 127.51 89.9324L123.713 88.9476C120.762 88.185 117.649 88.3242 114.777 89.3474L107.487 91.9663C105.572 92.6476 103.554 92.9937 101.522 92.9891C99.3605 92.9931 97.2163 92.6046 95.1935 91.8428L90.3301 89.9768C88.607 89.3224 86.7791 88.9877 84.9358 88.9889H82.5746C80.8963 88.9969 79.2568 88.4859 77.8801 87.5258C77.1573 87.0116 76.5113 86.3972 75.9613 85.7012C75.8159 86.0169 75.5474 86.2593 75.2184 86.3713L74.6396 86.8678C73.5013 87.7584 72.7765 89.0756 72.6334 90.5138C72.4904 91.952 72.9416 93.3861 73.8824 94.4835L73.994 94.62Z"/>
</mask>
<path d="M73.994 94.62C75.7663 96.5228 78.4649 97.2553 80.9561 96.5097C80.9898 96.5004 81.0234 96.4923 81.0578 96.4854C83.7457 95.7279 86.6307 96.1897 88.948 97.7483L90.1529 98.5534C91.8741 99.6917 94.0075 100.019 95.9905 99.4484C96.0255 99.4385 96.061 99.4296 96.0966 99.4228C98.9014 98.625 101.917 99.169 104.267 100.897C106.11 102.223 107.216 104.344 107.249 106.615V109.425C107.267 110.104 107.583 110.74 108.114 111.163C108.771 111.7 109.595 111.989 110.443 111.98C112.024 112.134 113.44 111.002 113.637 109.425V103.039C113.852 100.864 115.682 99.2074 117.867 99.2074C120.052 99.2074 121.881 100.864 122.097 103.039V105.593C122.105 105.917 122.258 106.219 122.513 106.418C122.864 106.717 123.311 106.878 123.772 106.871C124.58 106.954 125.313 106.395 125.447 105.593V99.5643C125.505 98.1571 126.689 97.0613 128.097 97.112C128.356 97.1097 128.613 97.1435 128.862 97.2124C132.513 98.2863 136.457 97.2353 139.089 94.4877C140.056 93.4084 140.545 91.9839 140.444 90.5385C140.298 89.0704 139.581 87.7183 138.448 86.7737C135.676 89.784 131.46 91.0018 127.51 89.9324L123.713 88.9476C120.762 88.185 117.649 88.3242 114.777 89.3474L107.487 91.9663C105.572 92.6476 103.554 92.9937 101.522 92.9891C99.3605 92.9931 97.2163 92.6046 95.1935 91.8428L90.3301 89.9768C88.607 89.3224 86.7791 88.9877 84.9358 88.9889H82.5746C80.8963 88.9969 79.2568 88.4859 77.8801 87.5258C77.1573 87.0116 76.5113 86.3972 75.9613 85.7012C75.8159 86.0169 75.5474 86.2593 75.2184 86.3713L74.6396 86.8678C73.5013 87.7584 72.7765 89.0756 72.6334 90.5138C72.4904 91.952 72.9416 93.3861 73.8824 94.4835L73.994 94.62Z" fill="#252422"/>
<path d="M73.994 94.62L73.2199 95.253L73.2403 95.2779L73.2622 95.3015L73.994 94.62ZM80.9561 96.5097L80.6883 95.5463L80.6788 95.5489L80.6694 95.5517L80.9561 96.5097ZM81.0578 96.4854L81.2532 97.4661L81.2915 97.4585L81.3291 97.4479L81.0578 96.4854ZM88.948 97.7483L88.3898 98.5781L88.3924 98.5798L88.948 97.7483ZM90.1529 98.5534L89.5973 99.3849L89.6013 99.3875L90.1529 98.5534ZM95.9905 99.4484L95.7174 98.4864L95.7141 98.4873L95.9905 99.4484ZM96.0966 99.4228L96.2853 100.405L96.3282 100.397L96.3702 100.385L96.0966 99.4228ZM104.267 100.897L103.674 101.702L103.682 101.708L104.267 100.897ZM107.249 106.615H108.249V106.608L108.249 106.6L107.249 106.615ZM107.249 109.425H106.249V109.438L106.25 109.451L107.249 109.425ZM108.114 111.163L108.747 110.389L108.738 110.382L108.114 111.163ZM110.443 111.98L110.54 110.985L110.486 110.979L110.432 110.98L110.443 111.98ZM113.637 109.425L114.629 109.549L114.637 109.487V109.425H113.637ZM113.637 103.039L112.642 102.94L112.637 102.989V103.039H113.637ZM122.097 103.039H123.097V102.989L123.092 102.94L122.097 103.039ZM122.097 105.593H121.097V105.607L121.097 105.62L122.097 105.593ZM122.513 106.418L123.163 105.658L123.146 105.643L123.128 105.629L122.513 106.418ZM123.772 106.871L123.874 105.876L123.815 105.87L123.755 105.871L123.772 106.871ZM125.447 105.593L126.433 105.758L126.447 105.676V105.593H125.447ZM125.447 99.5643L124.448 99.523L124.447 99.5436V99.5643H125.447ZM128.097 97.112L128.061 98.1113L128.083 98.1121L128.106 98.1119L128.097 97.112ZM128.862 97.2124L129.145 96.2531L129.137 96.2507L129.129 96.2485L128.862 97.2124ZM139.089 94.4877L139.811 95.1794L139.823 95.1673L139.834 95.1549L139.089 94.4877ZM140.444 90.5385L141.442 90.4692L141.441 90.4543L141.439 90.4395L140.444 90.5385ZM138.448 86.7737L139.088 86.0055L138.357 85.3961L137.712 86.0963L138.448 86.7737ZM127.51 89.9324L127.771 88.9671L127.761 88.9644L127.51 89.9324ZM123.713 88.9476L123.964 87.9796L123.964 87.9794L123.713 88.9476ZM114.777 89.3474L114.442 88.4054L114.439 88.4063L114.777 89.3474ZM107.487 91.9663L107.822 92.9084L107.825 92.9074L107.487 91.9663ZM101.522 92.9891L101.524 91.9891L101.52 91.9891L101.522 92.9891ZM95.1935 91.8428L94.8353 92.7765L94.8411 92.7786L95.1935 91.8428ZM90.3301 89.9768L90.6883 89.0431L90.6851 89.0419L90.3301 89.9768ZM84.9358 88.9889V89.9889L84.9365 89.9889L84.9358 88.9889ZM82.5746 88.9889V87.9889L82.5698 87.989L82.5746 88.9889ZM77.8801 87.5258L77.3004 88.3407L77.3081 88.3461L77.8801 87.5258ZM75.9613 85.7012L76.7459 85.0812L75.7351 83.8021L75.053 85.2828L75.9613 85.7012ZM75.2184 86.3713L74.896 85.4247L74.7136 85.4868L74.5673 85.6123L75.2184 86.3713ZM74.6396 86.8678L75.2558 87.6554L75.2735 87.6415L75.2907 87.6268L74.6396 86.8678ZM73.8824 94.4835L74.6565 93.8504L74.6491 93.8414L74.6416 93.8326L73.8824 94.4835ZM73.2622 95.3015C75.2938 97.4828 78.3872 98.3224 81.2428 97.4677L80.6694 95.5517C78.5426 96.1882 76.2388 95.5629 74.7258 93.9384L73.2622 95.3015ZM81.224 97.4732C81.2352 97.4701 81.2446 97.4678 81.2532 97.4661L80.8625 95.5047C80.8023 95.5167 80.7444 95.5307 80.6883 95.5463L81.224 97.4732ZM81.3291 97.4479C83.7344 96.7701 86.3162 97.1833 88.3898 98.5781L89.5061 96.9186C86.9453 95.1961 83.757 94.6858 80.7866 95.5229L81.3291 97.4479ZM88.3924 98.5798L89.5973 99.3849L90.7085 97.722L89.5035 96.9169L88.3924 98.5798ZM89.6013 99.3875C91.5666 100.687 94.0026 101.061 96.267 100.409L95.7141 98.4873C94.0123 98.9768 92.1815 98.6962 90.7045 97.7193L89.6013 99.3875ZM96.2637 100.41C96.2776 100.406 96.2843 100.405 96.2853 100.405L95.9079 98.4408C95.8377 98.4543 95.7734 98.4705 95.7174 98.4864L96.2637 100.41ZM96.3702 100.385C98.8777 99.6714 101.574 100.158 103.674 101.702L104.859 100.091C102.261 98.1802 98.9251 97.5786 95.823 98.461L96.3702 100.385ZM103.682 101.708C105.269 102.85 106.221 104.675 106.249 106.63L108.249 106.6C108.211 104.013 106.951 101.597 104.851 100.085L103.682 101.708ZM106.249 106.615V109.425H108.249V106.615H106.249ZM106.25 109.451C106.275 110.425 106.729 111.338 107.491 111.945L108.738 110.382C108.438 110.142 108.259 109.783 108.249 109.399L106.25 109.451ZM107.481 111.938C108.319 112.623 109.372 112.992 110.454 112.98L110.432 110.98C109.819 110.987 109.222 110.778 108.747 110.389L107.481 111.938ZM110.346 112.975C112.466 113.182 114.366 111.663 114.629 109.549L112.645 109.301C112.515 110.34 111.582 111.086 110.54 110.985L110.346 112.975ZM114.637 109.425V103.039H112.637V109.425H114.637ZM114.632 103.137C114.797 101.474 116.196 100.207 117.867 100.207V98.2074C115.167 98.2074 112.908 100.254 112.642 102.94L114.632 103.137ZM117.867 100.207C119.538 100.207 120.937 101.475 121.101 103.137L123.092 102.94C122.826 100.254 120.566 98.2074 117.867 98.2074V100.207ZM121.097 103.039V105.593H123.097V103.039H121.097ZM121.097 105.62C121.113 106.242 121.408 106.825 121.899 107.207L123.128 105.629C123.108 105.614 123.097 105.591 123.096 105.567L121.097 105.62ZM121.864 107.178C122.399 107.636 123.084 107.882 123.789 107.871L123.755 105.871C123.539 105.875 123.328 105.799 123.163 105.658L121.864 107.178ZM123.669 107.866C125.003 108.003 126.213 107.08 126.433 105.758L124.461 105.429C124.414 105.709 124.157 105.905 123.874 105.876L123.669 107.866ZM126.447 105.593V99.5643H124.447V105.593H126.447ZM126.446 99.6057C126.482 98.7482 127.203 98.0804 128.061 98.1113L128.133 96.1126C126.176 96.0421 124.529 97.566 124.448 99.523L126.446 99.6057ZM128.106 98.1119C128.271 98.1105 128.436 98.1322 128.596 98.1763L129.129 96.2485C128.79 96.1549 128.44 96.109 128.088 96.112L128.106 98.1119ZM128.58 98.1718C132.589 99.3511 136.921 98.1969 139.811 95.1794L138.367 93.7959C135.993 96.2737 132.436 97.2215 129.145 96.2531L128.58 98.1718ZM139.834 95.1549C140.981 93.8744 141.561 92.1842 141.442 90.4692L139.447 90.6079C139.528 91.7836 139.131 92.9425 138.344 93.8204L139.834 95.1549ZM141.439 90.4395C141.267 88.7104 140.423 87.1181 139.088 86.0055L137.807 87.5418C138.739 88.3186 139.329 89.4304 139.449 90.6376L141.439 90.4395ZM137.712 86.0963C135.193 88.8323 131.361 89.9391 127.771 88.9671L127.248 90.8976C131.558 92.0645 136.159 90.7357 139.183 87.451L137.712 86.0963ZM127.761 88.9644L123.964 87.9796L123.462 89.9156L127.259 90.9003L127.761 88.9644ZM123.964 87.9794C120.818 87.1668 117.502 87.3152 114.442 88.4054L115.113 90.2894C117.797 89.3333 120.705 89.2032 123.463 89.9158L123.964 87.9794ZM114.439 88.4063L107.149 91.0252L107.825 92.9074L115.115 90.2885L114.439 88.4063ZM107.151 91.0242C105.345 91.667 103.441 91.9934 101.524 91.9891L101.52 93.9891C103.667 93.9939 105.799 93.6283 107.822 92.9084L107.151 91.0242ZM101.52 91.9891C99.4797 91.9929 97.4556 91.6261 95.546 90.907L94.8411 92.7786C96.977 93.5831 99.2413 93.9933 101.524 93.9891L101.52 91.9891ZM95.5518 90.9092L90.6883 89.0431L89.9718 90.9104L94.8353 92.7764L95.5518 90.9092ZM90.6851 89.0419C88.8483 88.3444 86.8999 87.9876 84.9352 87.9889L84.9365 89.9889C86.6582 89.9878 88.3656 90.3004 89.975 90.9116L90.6851 89.0419ZM84.9358 87.9889H82.5746V89.9889H84.9358V87.9889ZM82.5698 87.989C81.0978 87.9959 79.6597 87.5477 78.4521 86.7056L77.3081 88.3461C78.8538 89.424 80.6948 89.9979 82.5793 89.9889L82.5698 87.989ZM78.4598 86.711C77.8143 86.2517 77.2372 85.7029 76.7459 85.0812L75.1767 86.3212C75.7854 87.0914 76.5003 87.7714 77.3004 88.3407L78.4598 86.711ZM75.053 85.2828C75.022 85.3501 74.9651 85.4012 74.896 85.4247L75.5407 87.3179C76.1296 87.1174 76.6097 86.6837 76.8696 86.1195L75.053 85.2828ZM74.5673 85.6123L73.9885 86.1088L75.2907 87.6268L75.8695 87.1303L74.5673 85.6123ZM74.0234 86.0802C72.6701 87.139 71.8084 88.7049 71.6383 90.4148L73.6285 90.6128C73.7446 89.4462 74.3324 88.3778 75.2558 87.6554L74.0234 86.0802ZM71.6383 90.4148C71.4683 92.1248 72.0048 93.8297 73.1232 95.1343L74.6416 93.8326C73.8785 92.9425 73.5125 91.7793 73.6285 90.6128L71.6383 90.4148ZM73.1083 95.1165L73.2199 95.253L74.7681 93.9869L74.6565 93.8504L73.1083 95.1165Z" fill="#FFFCF2" mask="url(#path-8-inside-2)"/>
<path d="M72.1712 103.716L73.0308 97.8507C75.4887 99.7015 78.6855 100.318 81.6804 99.4785C81.7241 99.4696 81.7682 99.4587 81.8127 99.4456C83.6541 98.9154 85.6353 99.2193 87.2332 100.277C87.2335 100.277 87.2338 100.277 87.2341 100.277L88.436 101.081C88.4363 101.081 88.4365 101.081 88.4367 101.081C90.8706 102.718 93.8993 103.205 96.7232 102.415C96.7622 102.407 96.8046 102.397 96.8486 102.384L96.8486 102.384L96.8524 102.383C98.7604 101.813 100.825 102.168 102.434 103.34L102.434 103.341L102.443 103.347C103.517 104.094 104.168 105.311 104.194 106.62L104.194 109.425L104.194 109.429C104.207 111.002 104.917 112.489 106.132 113.488C107.336 114.497 108.86 115.046 110.431 115.034C113.691 115.203 116.482 112.717 116.689 109.457L116.69 109.441V109.425V103.112C116.856 102.607 117.329 102.262 117.866 102.262C118.402 102.262 118.875 102.607 119.041 103.112L119.041 105.593L119.041 105.597C119.049 106.807 119.589 107.953 120.516 108.73C121.417 109.51 122.571 109.936 123.762 109.925C126.254 110.032 128.368 108.112 128.5 105.62L128.501 105.607V105.593V100.279C132.978 101.397 137.718 100.109 141.013 96.8795L142.188 102.89C142.188 102.89 142.188 102.891 142.188 102.892C143.201 108.263 141.718 113.803 138.156 117.95C133.106 123.709 125.774 126.95 118.116 126.807L118.116 126.807H118.106H96.3924V126.807L96.3814 126.807C88.8838 126.974 81.6836 123.876 76.6488 118.318C73.0775 114.348 71.4392 109.005 72.1712 103.716Z" fill="#252422" stroke="#FFFCF2"/>
<path d="M53.8104 14.7187L53.8032 14.7165L53.7959 14.7145C52.9859 14.4936 52.3456 13.8734 52.0988 13.071C51.917 12.3897 52.1027 11.6626 52.5895 11.1516L52.5896 11.1517L52.5974 11.1431L54.6468 8.88948C55.937 10.1812 57.877 11.2305 60.2375 11.9768C62.8537 12.804 66.0283 13.2726 69.5107 13.2726H69.5223L69.5339 13.2721C69.6514 13.2667 69.7676 13.2493 69.881 13.2206C69.9944 13.2493 70.1106 13.2667 70.228 13.2721L70.2396 13.2726H70.2512C72.5569 13.2726 74.6408 12.6928 76.1644 11.713C77.6858 10.7346 78.6955 9.31889 78.6955 7.66356C78.6955 6.00822 77.6858 4.59254 76.1644 3.61409C74.6423 2.63522 72.5608 2.05555 70.2576 2.05447C68.0627 1.99932 65.9019 2.60519 64.0556 3.79357L64.0457 3.79997L64.036 3.80683C63.2376 4.37585 63.051 5.48394 63.6188 6.2831C64.1833 7.07776 65.2815 7.26844 66.0803 6.71387C67.3279 5.94775 68.7724 5.56354 70.2357 5.60871L70.2435 5.60894H70.2512C71.7254 5.60894 72.9936 5.93197 73.8766 6.37984C74.3188 6.60416 74.6477 6.85122 74.8596 7.08853C75.0735 7.32814 75.1409 7.52501 75.1409 7.66356C75.1409 7.8021 75.0735 7.99897 74.8596 8.23858C74.6477 8.47589 74.3188 8.72295 73.8766 8.94727C72.9936 9.39515 71.7254 9.71817 70.2512 9.71817H70.2396L70.228 9.71871C70.1105 9.72415 69.9943 9.7415 69.8809 9.77025C69.7675 9.7415 69.6513 9.72415 69.5339 9.71871L69.5223 9.71817H69.5107C65.6894 9.71817 62.3699 9.05233 60.0229 8.1044C58.8474 7.62966 57.9375 7.09287 57.3305 6.55164C56.7149 6.00263 56.472 5.5067 56.472 5.10908C56.472 4.71147 56.7149 4.21555 57.3305 3.66653C57.9375 3.1253 58.8475 2.58851 60.0229 2.11377C62.37 1.16584 65.6895 0.5 69.5107 0.5C76.87 0.5 83.7576 5.42292 87.017 10.0102L87.0276 10.0251L87.0393 10.0392C87.6537 10.7822 87.9074 11.7584 87.7332 12.7053C87.5322 13.2824 87.0732 13.7336 86.4912 13.9242L86.4746 13.9296L86.4583 13.9362L83.8753 14.9877C83.8751 14.9878 83.8748 14.9879 83.8746 14.988C81.0758 16.1167 77.988 16.3146 75.0679 15.5526L74.1241 15.3057C70.9732 14.4805 67.6551 14.5465 64.5395 15.4962C61.871 16.3019 59.024 16.3019 56.3555 15.4962C56.3552 15.4961 56.355 15.4961 56.3547 15.496L53.8104 14.7187Z" fill="#252422" stroke="#FFFCF2"/>
<path d="M43.383 21.5842L43.3921 21.5906C44.2508 22.1848 45.272 22.4992 46.3161 22.4908L46.3202 22.4908V22.4908H48.6804H48.6807V22.9908C50.8351 22.9894 52.9717 23.381 54.9855 24.1464L43.383 21.5842ZM43.383 21.5842L43.3736 21.5784C41.0174 20.0978 40.2427 17.0264 41.6122 14.6057C42.2378 13.6276 43.2721 12.9846 44.4265 12.8565L44.4339 12.8557L44.4413 12.8546L48.4828 12.2836M43.383 21.5842L48.4828 12.2836M48.4828 12.2836C48.4537 12.8667 48.5174 13.4522 48.6727 14.018L48.6727 14.018L48.6745 14.0245C49.2468 16.0044 50.7961 17.551 52.7768 18.1196L55.3185 18.8961L55.3202 18.8966C58.6644 19.9054 62.2319 19.9054 65.576 18.8966L65.5776 18.8961C68.0631 18.1371 70.7105 18.0843 73.2242 18.7437L73.2245 18.7438L74.1688 18.9908L74.1692 18.9909C77.8314 19.9453 81.7035 19.6964 85.2133 18.281L85.2149 18.2804L87.7911 17.2315C89.3982 16.6376 90.6388 15.3312 91.1487 13.6952L91.1488 13.6953L91.1526 13.6821C91.2816 13.2242 91.3515 12.7525 91.3613 12.2786L93.2591 12.5851L93.2591 12.5851L93.264 12.5858C95.5522 12.932 97.6995 13.9058 99.4675 15.3991L99.4752 15.4056L99.4832 15.4118C100.331 16.0709 100.876 17.0442 100.997 18.1113C101.117 19.1717 100.806 20.2355 100.135 21.0649C100.103 21.0988 100.03 21.1753 99.9908 21.2201C97.9866 23.4349 94.9045 24.3301 92.0253 23.5336L92.0254 23.5336L92.0176 23.5315L88.2263 22.548L88.2258 22.5479C84.6795 21.632 80.9402 21.7998 77.4901 23.0295L77.4889 23.0299L70.2019 25.6475C70.2014 25.6477 70.2009 25.6479 70.2003 25.6481C66.9023 26.8083 63.3014 26.772 60.0273 25.5456C60.0268 25.5454 60.0262 25.5452 60.0256 25.5449L48.4828 12.2836Z" fill="#252422" stroke="#FFFCF2"/>
<mask id="path-13-inside-3" fill="white">
<path d="M37.7401 31.1766C39.5124 33.0795 42.211 33.812 44.7022 33.0664C44.7359 33.057 44.7695 33.0489 44.8039 33.0421C47.4918 32.2846 50.3768 32.7463 52.6941 34.305L53.899 35.1101C55.6201 36.2484 57.7536 36.5754 59.7366 36.005C59.7716 35.9951 59.8071 35.9863 59.8427 35.9794C62.6475 35.1816 65.6635 35.7256 68.0128 37.4532C69.8558 38.7801 70.9619 40.9009 70.9953 43.1716V45.9819C71.0129 46.6606 71.3295 47.2968 71.8604 47.7201C72.5168 48.257 73.3412 48.546 74.1892 48.5365C75.7701 48.6909 77.1864 47.5582 77.3831 45.9819V39.5955C77.5985 37.4209 79.4277 35.764 81.6129 35.764C83.7981 35.764 85.6273 37.421 85.8427 39.5955V42.1501C85.8512 42.4734 86.0042 42.776 86.2594 42.9747C86.6097 43.274 87.0573 43.4351 87.518 43.4274C88.3261 43.5107 89.0595 42.9513 89.1932 42.1501V36.121C89.2515 34.7137 90.4356 33.6179 91.8432 33.6686C92.1017 33.6664 92.3593 33.7002 92.6085 33.7691C96.2587 34.843 100.203 33.792 102.835 31.0443C103.802 29.9651 104.291 28.5405 104.19 27.0952C104.044 25.627 103.327 24.275 102.194 23.3303C99.4221 26.3406 95.2056 27.5584 91.2558 26.489L87.4595 25.5042C84.5078 24.7416 81.3952 24.8809 78.5235 25.9041L71.2328 28.5229C69.3182 29.2043 67.3003 29.5503 65.268 29.5457C63.1066 29.5498 60.9624 29.1612 58.9396 28.3994L54.0761 26.5334C52.3531 25.8791 50.5252 25.5443 48.6819 25.5456H46.3207C44.6424 25.5535 43.0029 25.0425 41.6262 24.0825C40.9034 23.5682 40.2574 22.9538 39.7074 22.2578C39.562 22.5735 39.2935 22.8159 38.9645 22.928L38.3857 23.4245C37.2474 24.3151 36.5226 25.6322 36.3795 27.0704C36.2365 28.5087 36.6877 29.9427 37.6285 31.0401L37.7401 31.1766Z"/>
</mask>
<path d="M37.7401 31.1766C39.5124 33.0795 42.211 33.812 44.7022 33.0664C44.7359 33.057 44.7695 33.0489 44.8039 33.0421C47.4918 32.2846 50.3768 32.7463 52.6941 34.305L53.899 35.1101C55.6201 36.2484 57.7536 36.5754 59.7366 36.005C59.7716 35.9951 59.8071 35.9863 59.8427 35.9794C62.6475 35.1816 65.6635 35.7256 68.0128 37.4532C69.8558 38.7801 70.9619 40.9009 70.9953 43.1716V45.9819C71.0129 46.6606 71.3295 47.2968 71.8604 47.7201C72.5168 48.257 73.3412 48.546 74.1892 48.5365C75.7701 48.6909 77.1864 47.5582 77.3831 45.9819V39.5955C77.5985 37.4209 79.4277 35.764 81.6129 35.764C83.7981 35.764 85.6273 37.421 85.8427 39.5955V42.1501C85.8512 42.4734 86.0042 42.776 86.2594 42.9747C86.6097 43.274 87.0573 43.4351 87.518 43.4274C88.3261 43.5107 89.0595 42.9513 89.1932 42.1501V36.121C89.2515 34.7137 90.4356 33.6179 91.8432 33.6686C92.1017 33.6664 92.3593 33.7002 92.6085 33.7691C96.2587 34.843 100.203 33.792 102.835 31.0443C103.802 29.9651 104.291 28.5405 104.19 27.0952C104.044 25.627 103.327 24.275 102.194 23.3303C99.4221 26.3406 95.2056 27.5584 91.2558 26.489L87.4595 25.5042C84.5078 24.7416 81.3952 24.8809 78.5235 25.9041L71.2328 28.5229C69.3182 29.2043 67.3003 29.5503 65.268 29.5457C63.1066 29.5498 60.9624 29.1612 58.9396 28.3994L54.0761 26.5334C52.3531 25.8791 50.5252 25.5443 48.6819 25.5456H46.3207C44.6424 25.5535 43.0029 25.0425 41.6262 24.0825C40.9034 23.5682 40.2574 22.9538 39.7074 22.2578C39.562 22.5735 39.2935 22.8159 38.9645 22.928L38.3857 23.4245C37.2474 24.3151 36.5226 25.6322 36.3795 27.0704C36.2365 28.5087 36.6877 29.9427 37.6285 31.0401L37.7401 31.1766Z" fill="#252422"/>
<path d="M37.7401 31.1766L36.966 31.8097L36.9864 31.8346L37.0083 31.8581L37.7401 31.1766ZM44.7022 33.0664L44.4344 32.1029L44.4249 32.1055L44.4155 32.1083L44.7022 33.0664ZM44.8039 33.0421L44.9993 34.0228L45.0376 34.0152L45.0752 34.0046L44.8039 33.0421ZM52.6941 34.305L52.1359 35.1347L52.1385 35.1364L52.6941 34.305ZM53.899 35.1101L53.3434 35.9416L53.3474 35.9442L53.899 35.1101ZM59.7366 36.005L59.4634 35.0431L59.4602 35.044L59.7366 36.005ZM59.8427 35.9794L60.0314 36.9615L60.0743 36.9532L60.1163 36.9413L59.8427 35.9794ZM68.0128 37.4532L67.4203 38.2588L67.4285 38.2647L68.0128 37.4532ZM70.9953 43.1716H71.9953V43.1643L71.9952 43.1569L70.9953 43.1716ZM70.9953 45.9819H69.9953V45.9949L69.9957 46.0078L70.9953 45.9819ZM71.8604 47.7201L72.4935 46.9459L72.4838 46.9382L71.8604 47.7201ZM74.1892 48.5365L74.2864 47.5413L74.2323 47.536L74.178 47.5366L74.1892 48.5365ZM77.3831 45.9819L78.3754 46.1057L78.3831 46.0441V45.9819H77.3831ZM77.3831 39.5955L76.388 39.4969L76.3831 39.5461V39.5955H77.3831ZM85.8427 39.5955H86.8427V39.5461L86.8378 39.4969L85.8427 39.5955ZM85.8427 42.1501H84.8427V42.1633L84.843 42.1765L85.8427 42.1501ZM86.2594 42.9747L86.9092 42.2145L86.8918 42.1996L86.8736 42.1855L86.2594 42.9747ZM87.518 43.4274L87.6205 42.4327L87.5611 42.4266L87.5013 42.4276L87.518 43.4274ZM89.1932 42.1501L90.1796 42.3147L90.1932 42.233V42.1501H89.1932ZM89.1932 36.121L88.194 36.0796L88.1932 36.1003V36.121H89.1932ZM91.8432 33.6686L91.8072 34.668L91.8295 34.6688L91.8519 34.6686L91.8432 33.6686ZM92.6085 33.7691L92.8908 32.8097L92.8828 32.8074L92.8749 32.8052L92.6085 33.7691ZM102.835 31.0443L103.557 31.736L103.569 31.724L103.58 31.7116L102.835 31.0443ZM104.19 27.0952L105.188 27.0258L105.187 27.011L105.185 26.9961L104.19 27.0952ZM102.194 23.3303L102.834 22.5621L102.103 21.9527L101.458 22.653L102.194 23.3303ZM91.2558 26.489L91.5171 25.5237L91.5069 25.521L91.2558 26.489ZM87.4595 25.5042L87.7106 24.5363L87.7096 24.536L87.4595 25.5042ZM78.5235 25.9041L78.1879 24.9621L78.1854 24.9629L78.5235 25.9041ZM71.2328 28.5229L71.5681 29.4651L71.5709 29.4641L71.2328 28.5229ZM65.268 29.5457L65.2703 28.5457L65.2662 28.5457L65.268 29.5457ZM58.9396 28.3994L58.5814 29.3331L58.5872 29.3353L58.9396 28.3994ZM54.0761 26.5334L54.4344 25.5998L54.4312 25.5986L54.0761 26.5334ZM48.6819 25.5456V26.5456L48.6826 26.5456L48.6819 25.5456ZM46.3207 25.5456V24.5456L46.3159 24.5456L46.3207 25.5456ZM41.6262 24.0825L41.0465 24.8973L41.0542 24.9027L41.6262 24.0825ZM39.7074 22.2578L40.492 21.6378L39.4812 20.3587L38.7991 21.8394L39.7074 22.2578ZM38.9645 22.928L38.6421 21.9814L38.4596 22.0435L38.3134 22.169L38.9645 22.928ZM38.3857 23.4245L39.0019 24.2121L39.0196 24.1982L39.0368 24.1835L38.3857 23.4245ZM37.6285 31.0401L38.4026 30.407L38.3952 30.3981L38.3877 30.3893L37.6285 31.0401ZM37.0083 31.8581C39.0399 34.0394 42.1333 34.879 44.9889 34.0244L44.4155 32.1083C42.2887 32.7449 39.9849 32.1195 38.4719 30.4951L37.0083 31.8581ZM44.9701 34.0298C44.9813 34.0267 44.9907 34.0245 44.9993 34.0228L44.6086 32.0613C44.5484 32.0733 44.4905 32.0873 44.4344 32.1029L44.9701 34.0298ZM45.0752 34.0046C47.4805 33.3267 50.0623 33.7399 52.1359 35.1347L53.2522 33.4752C50.6913 31.7527 47.5031 31.2425 44.5327 32.0795L45.0752 34.0046ZM52.1385 35.1364L53.3434 35.9415L54.4546 34.2786L53.2496 33.4735L52.1385 35.1364ZM53.3474 35.9442C55.3127 37.2439 57.7487 37.6174 60.0131 36.9661L59.4602 35.044C57.7584 35.5335 55.9276 35.2528 54.4506 34.276L53.3474 35.9442ZM60.0098 36.967C60.0237 36.963 60.0303 36.9617 60.0314 36.9615L59.654 34.9974C59.5838 35.0109 59.5195 35.0271 59.4634 35.0431L60.0098 36.967ZM60.1163 36.9413C62.6238 36.228 65.3201 36.7144 67.4204 38.2588L68.6052 36.6476C66.0069 34.7369 62.6712 34.1352 59.5691 35.0176L60.1163 36.9413ZM67.4285 38.2647C69.0147 39.4067 69.9667 41.232 69.9954 43.1863L71.9952 43.1569C71.9572 40.5698 70.6969 38.1534 68.5971 36.6416L67.4285 38.2647ZM69.9953 43.1716V45.9819H71.9953V43.1716H69.9953ZM69.9957 46.0078C70.0209 46.9816 70.4752 47.8946 71.2369 48.502L72.4838 46.9382C72.1838 46.699 72.0049 46.3395 71.995 45.956L69.9957 46.0078ZM71.2273 48.4942C72.0653 49.1796 73.1178 49.5486 74.2004 49.5365L74.178 47.5366C73.5647 47.5435 72.9683 47.3344 72.4934 46.946L71.2273 48.4942ZM74.092 49.5318C76.2121 49.7388 78.1116 48.2197 78.3754 46.1057L76.3908 45.8581C76.2612 46.8966 75.328 47.643 74.2864 47.5413L74.092 49.5318ZM78.3831 45.9819V39.5955H76.3831V45.9819H78.3831ZM78.3782 39.6941C78.543 38.0311 79.9418 36.764 81.6129 36.764V34.764C78.9136 34.764 76.6541 36.8107 76.388 39.4969L78.3782 39.6941ZM81.6129 36.764C83.284 36.764 84.6828 38.0312 84.8476 39.6941L86.8378 39.4969C86.5717 36.8109 84.3123 34.764 81.6129 34.764V36.764ZM84.8427 39.5955V42.1501H86.8427V39.5955H84.8427ZM84.843 42.1765C84.8595 42.7991 85.154 43.3815 85.6452 43.7638L86.8736 42.1855C86.8544 42.1705 86.843 42.1478 86.8423 42.1238L84.843 42.1765ZM85.6097 43.7348C86.1453 44.1927 86.8299 44.4391 87.5347 44.4273L87.5013 42.4276C87.2846 42.4312 87.074 42.3554 86.9092 42.2145L85.6097 43.7348ZM87.4155 44.4222C88.7489 44.5596 89.959 43.6365 90.1796 42.3147L88.2068 41.9855C88.16 42.2661 87.9032 42.4618 87.6205 42.4327L87.4155 44.4222ZM90.1932 42.1501V36.121H88.1932V42.1501H90.1932ZM90.1923 36.1623C90.2278 35.3049 90.9494 34.6371 91.8072 34.668L91.8792 32.6693C89.9218 32.5988 88.2751 34.1226 88.194 36.0796L90.1923 36.1623ZM91.8519 34.6686C92.0174 34.6672 92.1825 34.6888 92.3422 34.7329L92.8749 32.8052C92.5361 32.7116 92.186 32.6656 91.8346 32.6687L91.8519 34.6686ZM92.3263 34.7284C96.3349 35.9078 100.667 34.7536 103.557 31.736L102.113 30.3526C99.7394 32.8304 96.1824 33.7781 92.8908 32.8097L92.3263 34.7284ZM103.58 31.7116C104.727 30.4311 105.307 28.7408 105.188 27.0258L103.193 27.1645C103.274 28.3403 102.877 29.4991 102.09 30.377L103.58 31.7116ZM105.185 26.9961C105.013 25.2671 104.169 23.6747 102.834 22.5621L101.553 24.0985C102.485 24.8753 103.075 25.987 103.195 27.1942L105.185 26.9961ZM101.458 22.653C98.9391 25.3889 95.1069 26.4957 91.5171 25.5238L90.9944 27.4542C95.3043 28.6212 99.9052 27.2923 102.929 24.0076L101.458 22.653ZM91.5069 25.521L87.7106 24.5363L87.2084 26.4722L91.0047 27.457L91.5069 25.521ZM87.7096 24.536C84.5645 23.7234 81.2479 23.8718 78.1879 24.9621L78.8591 26.8461C81.5426 25.8899 84.4512 25.7598 87.2093 26.4724L87.7096 24.536ZM78.1854 24.9629L70.8948 27.5818L71.5709 29.4641L78.8616 26.8452L78.1854 24.9629ZM70.8976 27.5808C69.0912 28.2236 67.1876 28.5501 65.2703 28.5457L65.2658 30.5457C67.4131 30.5506 69.5451 30.1849 71.5681 29.4651L70.8976 27.5808ZM65.2662 28.5457C63.2258 28.5495 61.2017 28.1828 59.2921 27.4636L58.5872 29.3353C60.7231 30.1397 62.9874 30.55 65.2699 30.5457L65.2662 28.5457ZM59.2978 27.4658L54.4344 25.5998L53.7179 27.4671L58.5814 29.3331L59.2978 27.4658ZM54.4312 25.5986C52.5944 24.901 50.646 24.5442 48.6812 24.5456L48.6826 26.5456C50.4043 26.5444 52.1117 26.8571 53.7211 27.4683L54.4312 25.5986ZM48.6819 24.5456H46.3207V26.5456H48.6819V24.5456ZM46.3159 24.5456C44.8439 24.5526 43.4058 24.1043 42.1982 23.2622L41.0542 24.9027C42.5999 25.9807 44.4409 26.5545 46.3254 26.5456L46.3159 24.5456ZM42.2059 23.2676C41.5604 22.8084 40.9833 22.2596 40.492 21.6378L38.9228 22.8778C39.5315 23.6481 40.2464 24.3281 41.0465 24.8973L42.2059 23.2676ZM38.7991 21.8394C38.7681 21.9067 38.7112 21.9578 38.6421 21.9814L39.2868 23.8746C39.8757 23.674 40.3558 23.2404 40.6157 22.6762L38.7991 21.8394ZM38.3134 22.169L37.7346 22.6655L39.0368 24.1835L39.6155 23.687L38.3134 22.169ZM37.7695 22.6369C36.4162 23.6957 35.5545 25.2616 35.3844 26.9715L37.3746 27.1694C37.4907 26.0028 38.0785 24.9345 39.0019 24.2121L37.7695 22.6369ZM35.3844 26.9715C35.2144 28.6814 35.7509 30.3864 36.8693 31.691L38.3877 30.3893C37.6246 29.4991 37.2586 28.3359 37.3746 27.1694L35.3844 26.9715ZM36.8544 31.6732L36.966 31.8097L38.5142 30.5435L38.4026 30.407L36.8544 31.6732Z" fill="#FFFCF2" mask="url(#path-13-inside-3)"/>
<path d="M35.9173 40.273L36.7769 34.4073C39.2348 36.2581 42.4316 36.8745 45.4265 36.0352C45.4702 36.0262 45.5143 36.0153 45.5588 36.0022C47.4002 35.4721 49.3814 35.7759 50.9793 36.8336C50.9796 36.8337 50.9799 36.8339 50.9802 36.8341L52.1821 37.6372C52.1824 37.6374 52.1826 37.6375 52.1828 37.6377C54.6167 39.2742 57.6454 39.7615 60.4692 38.9715C60.5083 38.9633 60.5507 38.9532 60.5947 38.9405L60.5947 38.9405L60.5985 38.9394C62.5065 38.37 64.571 38.7242 66.1801 39.8971L66.18 39.8972L66.1889 39.9034C67.2629 40.6511 67.9137 41.868 67.9397 43.1762L67.9397 45.9817L67.9397 45.9859C67.9528 47.559 68.6627 49.0454 69.878 50.0443C71.082 51.0541 72.606 51.6023 74.177 51.591C77.4375 51.7594 80.2285 49.2736 80.4356 46.0135L80.4366 45.9977V45.9818V39.6686C80.6026 39.1634 81.0753 38.8182 81.6117 38.8182C82.1482 38.8182 82.6209 39.1634 82.7869 39.6686L82.7869 42.1501L82.7869 42.1535C82.7952 43.364 83.3348 44.5094 84.2624 45.2867C85.1628 46.0671 86.3169 46.4922 87.5083 46.4821C89.9999 46.5885 92.1142 44.6686 92.2459 42.1765L92.2466 42.1633V42.1501V36.8355C96.7241 37.9536 101.464 36.6653 104.759 33.4362L105.934 39.4462C105.934 39.4469 105.934 39.4476 105.934 39.4482C106.947 44.8194 105.464 50.3597 101.903 54.5062C96.8525 60.2656 89.5204 63.5063 81.8617 63.3641L81.8617 63.364H81.8524H60.1385V63.3639L60.1275 63.3641C52.6299 63.5302 45.4297 60.4324 40.3949 54.8742C36.8236 50.9047 35.1853 45.5621 35.9173 40.273Z" fill="#252422" stroke="#FFFCF2"/>
</svg>
