<svg width="180" height="198" viewBox="0 0 180 198" fill="none" xmlns="http://www.w3.org/2000/svg">
<g filter="url(#filter0_d)">
<path d="M58.7268 149.331C58.7268 150.195 58.5348 151.011 58.1508 151.779C57.3348 153.507 55.7748 154.947 53.4708 156.099C51.1668 157.251 48.7668 157.827 46.2708 157.827C42.4788 157.827 39.8988 156.531 38.5308 153.939C36.0588 156.003 34.2948 157.035 33.2388 157.035C33.0468 157.035 32.8788 156.999 32.7348 156.927C32.0148 156.543 31.6548 155.715 31.6548 154.443C31.6548 153.171 32.1828 151.611 33.2388 149.763C34.2948 147.915 35.2188 146.823 36.0108 146.487C36.3708 146.367 36.6468 146.307 36.8388 146.307C37.5348 146.307 38.0628 146.883 38.4228 148.035L39.5028 151.491C40.1988 150.747 41.1468 149.559 42.3468 147.927L45.5508 143.607C49.4868 138.495 52.0668 135.699 53.2908 135.219C53.7228 135.051 54.1668 134.967 54.6228 134.967C55.0788 134.967 55.4508 135.063 55.7388 135.255C56.0508 135.447 56.2068 135.687 56.2068 135.975C56.2068 136.407 55.8588 136.659 55.1628 136.731C54.4428 137.139 53.0628 138.339 51.0228 140.331C49.0068 142.299 47.8068 143.547 47.4228 144.075C44.7348 147.819 42.2508 150.699 39.9708 152.715C41.4348 155.619 43.6308 157.071 46.5588 157.071C48.3348 157.071 50.0988 156.519 51.8508 155.415C53.6028 154.287 54.9108 152.907 55.7748 151.275C56.1588 150.579 56.3508 149.799 56.3508 148.935C56.3508 148.071 56.0028 147.255 55.3068 146.487C54.6348 145.695 53.7828 145.119 52.7508 144.759C52.2708 144.687 51.5028 144.591 50.4468 144.471C49.3908 144.327 48.8628 144.099 48.8628 143.787C48.8628 143.667 48.9108 143.559 49.0068 143.463C49.2948 143.127 49.6668 142.959 50.1228 142.959C50.3868 142.959 50.6388 143.007 50.8788 143.103C51.1428 143.199 51.3468 143.271 51.4908 143.319C51.6348 143.367 51.8028 143.427 51.9948 143.499C52.5228 143.547 52.9788 143.571 53.3628 143.571C54.9468 143.571 56.3868 143.319 57.6828 142.815C59.3388 142.167 60.3948 141.195 60.8508 139.899C61.1388 139.059 61.2828 138.303 61.2828 137.631C61.2828 135.975 60.4788 134.739 58.8708 133.923C57.4788 133.203 55.5708 132.843 53.1468 132.843C49.3308 132.843 45.9108 133.563 42.8868 135.003C41.3508 135.723 39.8868 136.791 38.4948 138.207C37.1268 139.623 36.4428 140.835 36.4428 141.843C36.4428 142.539 36.6228 143.115 36.9828 143.571C37.1268 143.763 37.3788 144.003 37.7388 144.291C37.8588 144.363 37.7868 144.399 37.5228 144.399C36.0348 144.063 35.2908 143.067 35.2908 141.411C35.2908 139.755 36.1308 138.195 37.8108 136.731C39.0588 135.651 40.4628 134.775 42.0228 134.103C45.2628 132.711 48.9468 132.015 53.0748 132.015C56.0268 132.015 58.3788 132.447 60.1308 133.311C62.1708 134.271 63.1908 135.723 63.1908 137.667C63.1908 138.435 63.0348 139.215 62.7228 140.007C62.2188 141.447 60.9108 142.539 58.7988 143.283C57.2148 143.835 55.5108 144.123 53.6868 144.147C55.1028 144.219 56.2908 144.747 57.2508 145.731C58.2348 146.691 58.7268 147.891 58.7268 149.331ZM35.7228 147.999C35.6988 147.999 35.6388 148.023 35.5428 148.071C33.7668 150.639 32.8788 152.703 32.8788 154.263C32.8788 154.911 33.0348 155.499 33.3468 156.027C33.4188 156.147 33.5388 156.207 33.7068 156.207C34.4748 156.207 35.9508 155.115 38.1348 152.931L38.0268 152.787C37.0668 149.595 36.2988 147.999 35.7228 147.999ZM70.5829 156.351C70.4629 156.375 70.1989 156.387 69.7909 156.387C69.4069 156.387 69.0109 156.231 68.6029 155.919C68.2189 155.607 68.0269 155.211 68.0269 154.731C68.0269 154.227 68.1109 153.675 68.2789 153.075C68.4709 152.475 68.6029 152.019 68.6749 151.707C65.9149 154.923 63.7549 156.531 62.1949 156.531C61.2109 156.531 60.6709 155.919 60.5749 154.695C60.5749 154.599 60.5749 154.515 60.5749 154.443C60.5749 153.411 61.1989 152.019 62.4469 150.267C61.7509 150.891 61.0429 151.611 60.3229 152.427C60.2269 152.523 60.1069 152.571 59.9629 152.571C59.8669 152.571 59.8189 152.511 59.8189 152.391C59.8189 152.271 59.9269 152.067 60.1429 151.779L65.1109 145.947C65.7349 145.227 66.3709 144.867 67.0189 144.867C67.6669 144.867 67.9909 145.083 67.9909 145.515C67.9909 145.683 67.9189 145.839 67.7749 145.983C66.8149 146.871 65.6029 148.347 64.1389 150.411C62.6989 152.475 61.9789 153.999 61.9789 154.983C61.9789 155.415 62.1229 155.631 62.4109 155.631C63.4189 155.631 64.8829 154.635 66.8029 152.643C67.4749 151.971 68.7229 150.495 70.5469 148.215C72.3709 145.911 73.5709 144.759 74.1469 144.759C75.0109 144.759 75.4429 145.095 75.4429 145.767C75.4429 146.007 74.9389 146.703 73.9309 147.855C72.5629 149.511 71.5189 150.867 70.7989 151.923C70.0789 152.955 69.7189 153.795 69.7189 154.443C69.7189 155.091 69.8989 155.415 70.2589 155.415C70.4269 155.415 70.6189 155.367 70.8349 155.271C72.4909 154.551 74.4709 152.871 76.7749 150.231C76.9189 150.063 77.0629 149.979 77.2069 149.979C77.3509 149.979 77.4229 150.063 77.4229 150.231C77.4229 150.375 77.3389 150.543 77.1709 150.735C76.1389 151.935 74.9269 153.147 73.5349 154.371C72.1429 155.571 71.1589 156.231 70.5829 156.351ZM81.5919 144.759C82.2399 144.759 82.5639 145.011 82.5639 145.515C82.5639 145.659 82.5279 145.803 82.4559 145.947C80.2959 148.947 78.9999 151.215 78.5679 152.751C84.1599 147.159 87.5559 144.363 88.7559 144.363C88.8759 144.339 88.9839 144.327 89.0799 144.327C89.7519 144.327 90.0879 144.627 90.0879 145.227C90.0879 145.347 90.0639 145.467 90.0159 145.587C89.9679 145.707 89.4879 146.355 88.5759 147.531C87.5199 148.779 86.6199 149.979 85.8759 151.131C85.1559 152.283 84.7959 153.243 84.7959 154.011C84.7959 154.779 84.9639 155.163 85.2999 155.163C86.3559 155.163 88.1919 153.711 90.8079 150.807C90.8559 150.759 90.9399 150.651 91.0599 150.483C91.4199 150.051 91.6359 149.835 91.7079 149.835C91.7799 149.835 91.8159 149.955 91.8159 150.195C91.8159 150.435 91.6479 150.747 91.3119 151.131C88.3359 154.515 86.2239 156.207 84.9759 156.207C83.7999 156.207 83.2119 155.559 83.2119 154.263C83.2119 152.967 83.6919 151.479 84.6519 149.799L86.9559 146.055C85.3239 147.255 83.8719 148.575 82.5999 150.015C81.3279 151.431 80.1639 152.811 79.1079 154.155C78.0759 155.499 77.4759 156.171 77.3079 156.171C76.9479 156.171 76.6599 156.027 76.4439 155.739C76.2519 155.427 76.1559 155.055 76.1559 154.623C76.1559 154.167 76.3119 153.567 76.6239 152.823C76.9359 152.079 77.3319 151.179 77.8119 150.123L75.6519 152.391C75.1239 152.919 74.7999 153.183 74.6799 153.183C74.5359 153.183 74.4639 153.111 74.4639 152.967C74.4639 152.799 74.5599 152.619 74.7519 152.427C75.6399 151.539 76.4079 150.687 77.0559 149.871C77.6799 149.055 78.9639 147.495 80.9079 145.191C81.1239 144.903 81.3519 144.759 81.5919 144.759ZM125.172 149.331C125.172 150.195 124.98 151.011 124.596 151.779C123.78 153.507 122.22 154.947 119.916 156.099C117.612 157.251 115.212 157.827 112.716 157.827C108.924 157.827 106.344 156.531 104.976 153.939C102.504 156.003 100.74 157.035 99.6842 157.035C99.4922 157.035 99.3242 156.999 99.1802 156.927C98.4602 156.543 98.1002 155.715 98.1002 154.443C98.1002 153.171 98.6282 151.611 99.6842 149.763C100.74 147.915 101.664 146.823 102.456 146.487C102.816 146.367 103.092 146.307 103.284 146.307C103.98 146.307 104.508 146.883 104.868 148.035L105.948 151.491C106.644 150.747 107.592 149.559 108.792 147.927L111.996 143.607C115.932 138.495 118.512 135.699 119.736 135.219C120.168 135.051 120.612 134.967 121.068 134.967C121.524 134.967 121.896 135.063 122.184 135.255C122.496 135.447 122.652 135.687 122.652 135.975C122.652 136.407 122.304 136.659 121.608 136.731C120.888 137.139 119.508 138.339 117.468 140.331C115.452 142.299 114.252 143.547 113.868 144.075C111.18 147.819 108.696 150.699 106.416 152.715C107.88 155.619 110.076 157.071 113.004 157.071C114.78 157.071 116.544 156.519 118.296 155.415C120.048 154.287 121.356 152.907 122.22 151.275C122.604 150.579 122.796 149.799 122.796 148.935C122.796 148.071 122.448 147.255 121.752 146.487C121.08 145.695 120.228 145.119 119.196 144.759C118.716 144.687 117.948 144.591 116.892 144.471C115.836 144.327 115.308 144.099 115.308 143.787C115.308 143.667 115.356 143.559 115.452 143.463C115.74 143.127 116.112 142.959 116.568 142.959C116.832 142.959 117.084 143.007 117.324 143.103C117.588 143.199 117.792 143.271 117.936 143.319C118.08 143.367 118.248 143.427 118.44 143.499C118.968 143.547 119.424 143.571 119.808 143.571C121.392 143.571 122.832 143.319 124.128 142.815C125.784 142.167 126.84 141.195 127.296 139.899C127.584 139.059 127.728 138.303 127.728 137.631C127.728 135.975 126.924 134.739 125.316 133.923C123.924 133.203 122.016 132.843 119.592 132.843C115.776 132.843 112.356 133.563 109.332 135.003C107.796 135.723 106.332 136.791 104.94 138.207C103.572 139.623 102.888 140.835 102.888 141.843C102.888 142.539 103.068 143.115 103.428 143.571C103.572 143.763 103.824 144.003 104.184 144.291C104.304 144.363 104.232 144.399 103.968 144.399C102.48 144.063 101.736 143.067 101.736 141.411C101.736 139.755 102.576 138.195 104.256 136.731C105.504 135.651 106.908 134.775 108.468 134.103C111.708 132.711 115.392 132.015 119.52 132.015C122.472 132.015 124.824 132.447 126.576 133.311C128.616 134.271 129.636 135.723 129.636 137.667C129.636 138.435 129.48 139.215 129.168 140.007C128.664 141.447 127.356 142.539 125.244 143.283C123.66 143.835 121.956 144.123 120.132 144.147C121.548 144.219 122.736 144.747 123.696 145.731C124.68 146.691 125.172 147.891 125.172 149.331ZM102.168 147.999C102.144 147.999 102.084 148.023 101.988 148.071C100.212 150.639 99.3242 152.703 99.3242 154.263C99.3242 154.911 99.4802 155.499 99.7922 156.027C99.8642 156.147 99.9842 156.207 100.152 156.207C100.92 156.207 102.396 155.115 104.58 152.931L104.472 152.787C103.512 149.595 102.744 147.999 102.168 147.999ZM137.028 156.351C136.908 156.375 136.644 156.387 136.236 156.387C135.852 156.387 135.456 156.231 135.048 155.919C134.664 155.607 134.472 155.211 134.472 154.731C134.472 154.227 134.556 153.675 134.724 153.075C134.916 152.475 135.048 152.019 135.12 151.707C132.36 154.923 130.2 156.531 128.64 156.531C127.656 156.531 127.116 155.919 127.02 154.695C127.02 154.599 127.02 154.515 127.02 154.443C127.02 153.411 127.644 152.019 128.892 150.267C128.196 150.891 127.488 151.611 126.768 152.427C126.672 152.523 126.552 152.571 126.408 152.571C126.312 152.571 126.264 152.511 126.264 152.391C126.264 152.271 126.372 152.067 126.588 151.779L131.556 145.947C132.18 145.227 132.816 144.867 133.464 144.867C134.112 144.867 134.436 145.083 134.436 145.515C134.436 145.683 134.364 145.839 134.22 145.983C133.26 146.871 132.048 148.347 130.584 150.411C129.144 152.475 128.424 153.999 128.424 154.983C128.424 155.415 128.568 155.631 128.856 155.631C129.864 155.631 131.328 154.635 133.248 152.643C133.92 151.971 135.168 150.495 136.992 148.215C138.816 145.911 140.016 144.759 140.592 144.759C141.456 144.759 141.888 145.095 141.888 145.767C141.888 146.007 141.384 146.703 140.376 147.855C139.008 149.511 137.964 150.867 137.244 151.923C136.524 152.955 136.164 153.795 136.164 154.443C136.164 155.091 136.344 155.415 136.704 155.415C136.872 155.415 137.064 155.367 137.28 155.271C138.936 154.551 140.916 152.871 143.22 150.231C143.364 150.063 143.508 149.979 143.652 149.979C143.796 149.979 143.868 150.063 143.868 150.231C143.868 150.375 143.784 150.543 143.616 150.735C142.584 151.935 141.372 153.147 139.98 154.371C138.588 155.571 137.604 156.231 137.028 156.351ZM148.037 144.759C148.685 144.759 149.009 145.011 149.009 145.515C149.009 145.659 148.973 145.803 148.901 145.947C146.741 148.947 145.445 151.215 145.013 152.751C150.605 147.159 154.001 144.363 155.201 144.363C155.321 144.339 155.429 144.327 155.525 144.327C156.197 144.327 156.533 144.627 156.533 145.227C156.533 145.347 156.509 145.467 156.461 145.587C156.413 145.707 155.933 146.355 155.021 147.531C153.965 148.779 153.065 149.979 152.321 151.131C151.601 152.283 151.241 153.243 151.241 154.011C151.241 154.779 151.409 155.163 151.745 155.163C152.801 155.163 154.637 153.711 157.253 150.807C157.301 150.759 157.385 150.651 157.505 150.483C157.865 150.051 158.081 149.835 158.153 149.835C158.225 149.835 158.261 149.955 158.261 150.195C158.261 150.435 158.093 150.747 157.757 151.131C154.781 154.515 152.669 156.207 151.421 156.207C150.245 156.207 149.657 155.559 149.657 154.263C149.657 152.967 150.137 151.479 151.097 149.799L153.401 146.055C151.769 147.255 150.317 148.575 149.045 150.015C147.773 151.431 146.609 152.811 145.553 154.155C144.521 155.499 143.921 156.171 143.753 156.171C143.393 156.171 143.105 156.027 142.889 155.739C142.697 155.427 142.601 155.055 142.601 154.623C142.601 154.167 142.757 153.567 143.069 152.823C143.381 152.079 143.777 151.179 144.257 150.123L142.097 152.391C141.569 152.919 141.245 153.183 141.125 153.183C140.981 153.183 140.909 153.111 140.909 152.967C140.909 152.799 141.005 152.619 141.197 152.427C142.085 151.539 142.853 150.687 143.501 149.871C144.125 149.055 145.409 147.495 147.353 145.191C147.569 144.903 147.797 144.759 148.037 144.759ZM77.553 175.331C77.553 176.195 77.361 177.011 76.977 177.779C76.161 179.507 74.601 180.947 72.297 182.099C69.993 183.251 67.593 183.827 65.097 183.827C61.305 183.827 58.725 182.531 57.357 179.939C54.885 182.003 53.121 183.035 52.065 183.035C51.873 183.035 51.705 182.999 51.561 182.927C50.841 182.543 50.481 181.715 50.481 180.443C50.481 179.171 51.009 177.611 52.065 175.763C53.121 173.915 54.045 172.823 54.837 172.487C55.197 172.367 55.473 172.307 55.665 172.307C56.361 172.307 56.889 172.883 57.249 174.035L58.329 177.491C59.025 176.747 59.973 175.559 61.173 173.927L64.377 169.607C68.313 164.495 70.893 161.699 72.117 161.219C72.549 161.051 72.993 160.967 73.449 160.967C73.905 160.967 74.277 161.063 74.565 161.255C74.877 161.447 75.033 161.687 75.033 161.975C75.033 162.407 74.685 162.659 73.989 162.731C73.269 163.139 71.889 164.339 69.849 166.331C67.833 168.299 66.633 169.547 66.249 170.075C63.561 173.819 61.077 176.699 58.797 178.715C60.261 181.619 62.457 183.071 65.385 183.071C67.161 183.071 68.925 182.519 70.677 181.415C72.429 180.287 73.737 178.907 74.601 177.275C74.985 176.579 75.177 175.799 75.177 174.935C75.177 174.071 74.829 173.255 74.133 172.487C73.461 171.695 72.609 171.119 71.577 170.759C71.097 170.687 70.329 170.591 69.273 170.471C68.217 170.327 67.689 170.099 67.689 169.787C67.689 169.667 67.737 169.559 67.833 169.463C68.121 169.127 68.493 168.959 68.949 168.959C69.213 168.959 69.465 169.007 69.705 169.103C69.969 169.199 70.173 169.271 70.317 169.319C70.461 169.367 70.629 169.427 70.821 169.499C71.349 169.547 71.805 169.571 72.189 169.571C73.773 169.571 75.213 169.319 76.509 168.815C78.165 168.167 79.221 167.195 79.677 165.899C79.965 165.059 80.109 164.303 80.109 163.631C80.109 161.975 79.305 160.739 77.697 159.923C76.305 159.203 74.397 158.843 71.973 158.843C68.157 158.843 64.737 159.563 61.713 161.003C60.177 161.723 58.713 162.791 57.321 164.207C55.953 165.623 55.269 166.835 55.269 167.843C55.269 168.539 55.449 169.115 55.809 169.571C55.953 169.763 56.205 170.003 56.565 170.291C56.685 170.363 56.613 170.399 56.349 170.399C54.861 170.063 54.117 169.067 54.117 167.411C54.117 165.755 54.957 164.195 56.637 162.731C57.885 161.651 59.289 160.775 60.849 160.103C64.089 158.711 67.773 158.015 71.901 158.015C74.853 158.015 77.205 158.447 78.957 159.311C80.997 160.271 82.017 161.723 82.017 163.667C82.017 164.435 81.861 165.215 81.549 166.007C81.045 167.447 79.737 168.539 77.625 169.283C76.041 169.835 74.337 170.123 72.513 170.147C73.929 170.219 75.117 170.747 76.077 171.731C77.061 172.691 77.553 173.891 77.553 175.331ZM54.549 173.999C54.525 173.999 54.465 174.023 54.369 174.071C52.593 176.639 51.705 178.703 51.705 180.263C51.705 180.911 51.861 181.499 52.173 182.027C52.245 182.147 52.365 182.207 52.533 182.207C53.301 182.207 54.777 181.115 56.961 178.931L56.853 178.787C55.893 175.595 55.125 173.999 54.549 173.999ZM91.3171 171.371L91.8211 171.263C92.0851 171.263 92.3371 171.371 92.5771 171.587C92.8171 171.803 92.9371 171.971 92.9371 172.091C92.9371 172.211 92.1931 173.375 90.7051 175.583C89.2171 177.767 88.4731 179.291 88.4731 180.155C88.4731 180.227 88.4851 180.299 88.5091 180.371C88.6291 180.923 88.8931 181.199 89.3011 181.199C90.5491 181.199 92.8291 179.135 96.1411 175.007C96.2131 174.911 96.2971 174.863 96.3931 174.863C96.4891 174.863 96.5371 174.959 96.5371 175.151C96.5371 175.319 96.4291 175.547 96.2131 175.835C93.1411 179.939 90.8011 181.991 89.1931 181.991C88.9771 181.991 88.7731 181.955 88.5811 181.883C87.5251 181.475 86.9971 180.683 86.9971 179.507C86.9971 179.099 87.0451 178.691 87.1411 178.283L84.9091 180.443C83.4931 181.691 82.4611 182.315 81.8131 182.315C81.1891 182.315 80.5891 182.111 80.0131 181.703C79.3651 181.223 79.0411 180.587 79.0411 179.795C79.0411 178.043 80.2651 175.955 82.7131 173.531C85.1611 171.083 87.4051 169.859 89.4451 169.859C90.2371 169.859 90.7651 170.135 91.0291 170.687C91.1011 170.879 91.1611 171.047 91.2091 171.191C91.2571 171.311 91.2931 171.371 91.3171 171.371ZM80.5531 180.227C80.5531 181.091 80.8531 181.523 81.4531 181.523C82.8451 181.523 84.7411 179.999 87.1411 176.951L90.9571 171.695C90.7651 171.359 90.4531 171.191 90.0211 171.191C88.5571 171.191 86.6131 172.331 84.1891 174.611C81.7651 176.867 80.5531 178.739 80.5531 180.227ZM101.545 182.567C99.649 182.567 98.041 181.067 96.721 178.067C96.385 178.571 95.629 179.987 94.453 182.315C93.589 181.979 93.157 181.523 93.157 180.947C93.157 179.915 94.705 177.083 97.801 172.451C100.897 167.819 103.021 165.095 104.173 164.279C104.269 164.207 104.461 164.171 104.749 164.171C105.493 164.171 105.865 164.363 105.865 164.747C105.865 164.939 105.025 166.019 103.345 167.987C101.689 169.955 100.765 171.143 100.573 171.551C102.757 170.423 104.497 169.859 105.793 169.859C106.537 169.859 107.173 170.159 107.701 170.759C108.205 171.263 108.457 171.779 108.457 172.307C108.457 172.379 108.457 172.451 108.457 172.523C108.265 173.891 107.305 175.019 105.577 175.907C104.185 176.651 102.889 177.023 101.689 177.023C100.489 177.023 99.649 176.867 99.169 176.555C99.025 176.531 98.905 176.567 98.809 176.663C98.737 176.759 98.725 176.879 98.773 177.023C99.445 179.999 100.561 181.487 102.121 181.487C102.937 181.487 103.981 181.031 105.253 180.119C106.549 179.207 107.893 177.923 109.285 176.267C109.453 176.099 109.597 176.015 109.717 176.015C109.861 176.015 109.933 176.087 109.933 176.231C109.933 176.351 109.849 176.531 109.681 176.771C108.385 178.355 107.161 179.603 106.009 180.515C104.257 181.883 102.769 182.567 101.545 182.567ZM106.729 171.551C106.729 171.359 106.621 171.167 106.405 170.975C106.189 170.783 105.961 170.687 105.721 170.687C104.425 170.687 102.865 171.227 101.041 172.307C99.241 173.387 98.137 174.611 97.729 175.979C97.945 175.979 98.521 176.015 99.457 176.087C100.537 176.087 101.953 175.643 103.705 174.755C105.721 173.747 106.729 172.679 106.729 171.551ZM110.169 182.603C109.905 182.603 109.665 182.567 109.449 182.495C107.913 182.063 107.145 181.199 107.145 179.903C107.145 178.223 108.201 176.279 110.313 174.071C112.425 171.863 114.321 170.759 116.001 170.759C116.553 170.759 116.997 170.915 117.333 171.227C117.693 171.515 117.873 171.875 117.873 172.307C117.873 173.651 116.853 174.935 114.813 176.159C112.797 177.383 111.153 177.995 109.881 177.995C109.689 177.995 109.521 177.971 109.377 177.923C109.017 178.571 108.837 179.255 108.837 179.975C108.837 181.223 109.425 181.847 110.601 181.847C111.801 181.847 113.349 181.043 115.245 179.435C116.709 178.259 117.957 177.011 118.989 175.691C119.205 175.403 119.385 175.259 119.529 175.259C119.697 175.259 119.781 175.331 119.781 175.475C119.781 175.619 119.685 175.823 119.493 176.087C118.197 177.791 116.637 179.303 114.813 180.623C112.989 181.943 111.441 182.603 110.169 182.603ZM116.973 172.235C116.973 171.947 116.661 171.803 116.037 171.803C115.437 171.803 114.573 172.271 113.445 173.207C111.933 174.455 110.757 175.763 109.917 177.131C110.061 177.179 110.217 177.203 110.385 177.203C111.297 177.203 112.509 176.723 114.021 175.763C115.557 174.779 116.517 173.711 116.901 172.559C116.949 172.439 116.973 172.331 116.973 172.235ZM124.923 182.315C123.123 182.315 122.223 181.319 122.223 179.327C122.223 178.319 122.487 177.215 123.015 176.015C123.543 174.815 124.119 173.807 124.743 172.991C124.623 173.015 124.467 173.027 124.275 173.027C123.699 173.027 123.219 172.619 122.835 171.803L120.171 175.259C118.683 177.107 117.819 178.031 117.579 178.031C117.459 178.031 117.399 177.983 117.399 177.887C117.399 177.647 117.603 177.299 118.011 176.843C120.099 174.419 121.575 172.367 122.439 170.687C122.991 168.599 123.687 167.555 124.527 167.555C125.079 167.555 125.355 167.795 125.355 168.275C125.355 168.755 125.055 169.367 124.455 170.111L123.591 171.263C123.591 171.767 123.963 172.019 124.707 172.019C125.139 172.019 125.619 171.863 126.147 171.551L127.083 170.975C127.131 170.951 127.251 170.939 127.443 170.939C127.635 170.939 127.839 171.059 128.055 171.299C128.271 171.539 128.343 171.755 128.271 171.947L125.787 175.079C124.251 177.047 123.483 178.607 123.483 179.759C123.483 180.887 124.011 181.451 125.067 181.451C126.171 181.451 127.527 180.863 129.135 179.687C130.095 178.991 130.971 178.211 131.763 177.347C132.507 176.483 132.915 176.051 132.987 176.051C133.155 176.051 133.239 176.147 133.239 176.339C133.239 176.507 133.131 176.711 132.915 176.951L131.763 178.247C131.115 178.919 130.395 179.567 129.603 180.191C127.707 181.607 126.147 182.315 124.923 182.315ZM129.731 186.311C130.883 187.751 131.879 188.471 132.719 188.471C134.087 188.471 135.563 187.379 137.147 185.195C138.299 183.587 139.427 181.559 140.531 179.111L141.899 175.799L136.607 179.939C134.975 181.211 133.667 181.847 132.683 181.847C132.155 181.847 131.735 181.667 131.423 181.307C131.111 180.947 130.955 180.539 130.955 180.083C130.955 179.051 131.843 177.359 133.619 175.007C135.395 172.631 136.691 171.443 137.507 171.443C138.323 171.443 138.731 171.719 138.731 172.271C138.731 172.487 137.663 173.735 135.527 176.015C133.415 178.271 132.359 179.795 132.359 180.587C132.359 180.899 132.563 181.055 132.971 181.055C133.739 181.055 135.275 180.155 137.579 178.355C139.907 176.555 141.659 175.067 142.835 173.891C143.099 173.579 143.471 173.111 143.951 172.487C144.407 171.959 144.911 171.695 145.463 171.695C146.015 171.695 146.291 171.959 146.291 172.487C146.291 172.583 145.751 173.435 144.671 175.043C143.591 176.651 143.027 177.503 142.979 177.599C142.235 179.039 141.095 181.139 139.559 183.899C137.231 187.643 134.903 189.515 132.575 189.515C131.807 189.515 131.135 189.179 130.559 188.507C129.983 187.859 129.707 187.127 129.731 186.311Z" fill="#252422"/>
<g clip-path="url(#clip0)">
<path d="M116.987 33.9741C96.2846 33.9741 79.564 50.7297 79.564 71.3972C79.564 86.0804 91.5096 98.026 106.193 98.026H127.782C142.466 98.026 154.411 86.0804 154.411 71.3972C154.411 50.6951 137.655 33.9741 116.987 33.9741V33.9741ZM127.782 87.9479C118.656 87.9479 111.231 80.5233 111.231 71.3972C111.231 68.2203 113.801 65.6416 116.987 65.6416C120.161 65.6416 122.743 68.2236 122.743 71.3972C122.743 74.1801 124.999 76.4363 127.782 76.4363C130.565 76.4363 132.821 74.1801 132.821 71.3972C132.821 62.6665 125.718 55.5635 116.987 55.5635C108.227 55.5635 101.153 62.6531 101.153 71.3972C101.153 77.6463 103.317 83.3999 106.935 87.9479H106.192C97.0663 87.9479 89.6418 80.5233 89.6418 71.3972C89.6418 56.2696 101.885 44.0522 116.987 44.0522C132.114 44.0522 144.332 56.2952 144.332 71.3972C144.332 80.5233 136.908 87.9479 127.782 87.9479V87.9479Z" fill="#252422"/>
<path d="M116.987 12.3843H63.0131C30.4732 12.3843 4 38.8575 4 71.3971C4.00034 97.9849 25.631 119.616 52.2181 119.616H127.782C154.369 119.616 176 97.9849 176 71.3974C176 38.8575 149.527 12.3843 116.987 12.3843V12.3843ZM63.0074 22.4624H84.0321C68.3233 33.0757 57.9741 51.0483 57.9741 71.3917V82.1921C57.9741 85.3691 55.4042 87.9477 52.2181 87.9477C49.0445 87.9477 46.4625 85.3657 46.4625 82.1921C46.4625 73.4322 39.3719 66.358 30.6284 66.358H14.3321C16.8194 41.8665 37.4963 22.4624 63.0074 22.4624V22.4624ZM52.2131 109.537C32.8923 109.537 16.8815 95.0968 14.4097 76.4365H30.6288C33.8121 76.4365 36.3847 79.0128 36.3847 82.1924C36.3847 90.9231 43.4878 98.0262 52.2185 98.0262C56.5413 98.0262 60.4654 96.2847 63.3256 93.4668C66.5744 99.7526 71.167 105.237 76.7187 109.538H52.2131V109.537ZM127.782 109.537H106.192C85.1615 109.537 68.0522 92.4278 68.0522 71.3974C68.0522 44.4149 90.0044 22.4627 116.987 22.4627C143.97 22.4624 165.922 44.4146 165.922 71.3971C165.922 92.4278 148.812 109.537 127.782 109.537V109.537Z" fill="#252422"/>
</g>
</g>
<defs>
<filter id="filter0_d" x="0" y="-20" width="180" height="217.515" filterUnits="userSpaceOnUse" color-interpolation-filters="sRGB">
<feFlood flood-opacity="0" result="BackgroundImageFix"/>
<feColorMatrix in="SourceAlpha" type="matrix" values="0 0 0 0 0 0 0 0 0 0 0 0 0 0 0 0 0 0 127 0"/>
<feOffset dy="4"/>
<feGaussianBlur stdDeviation="2"/>
<feColorMatrix type="matrix" values="0 0 0 0 0 0 0 0 0 0 0 0 0 0 0 0 0 0 0.25 0"/>
<feBlend mode="normal" in2="BackgroundImageFix" result="effect1_dropShadow"/>
<feBlend mode="normal" in="SourceGraphic" in2="effect1_dropShadow" result="shape"/>
</filter>
<clipPath id="clip0">
<rect width="172" height="172" fill="white" transform="translate(4 -20)"/>
</clipPath>
</defs>
</svg>
