<svg width="453" height="503" viewBox="0 0 453 503" fill="none" xmlns="http://www.w3.org/2000/svg">
<rect x="0.5" y="0.5" width="451.688" height="501.86" rx="49.5" fill="#FFFCF2" stroke="#403D39"/>
<mask id="path-2-inside-1" fill="white">
<path fill-rule="evenodd" clip-rule="evenodd" d="M225.774 464.091C342.908 464.091 437.864 369.134 437.864 252C437.864 134.866 342.908 39.9095 225.774 39.9095C108.64 39.9095 13.6833 134.866 13.6833 252C13.6833 369.134 108.64 464.091 225.774 464.091ZM340.838 132.195C353.248 140.767 363.305 152.321 370.085 165.795L391.596 208.55C401.642 228.516 403.899 251.505 397.928 273.043L390.138 301.148C387.381 311.09 382.936 320.484 376.997 328.92L348.095 369.967C336.342 386.659 319.263 398.859 299.662 404.565L271.299 412.822L215.526 421.4C194.927 424.568 173.866 420.489 155.939 409.859L140.858 400.916C134.268 397.008 128.204 392.275 122.813 386.831L42.8924 306.125C39.0063 302.2 32.6747 302.169 28.7504 306.056C24.8261 309.942 24.7952 316.273 28.6813 320.198L108.602 400.904C115.191 407.557 122.602 413.342 130.657 418.118L145.738 427.061C167.648 440.054 193.389 445.04 218.567 441.168L274.986 432.49C275.417 432.423 275.843 432.329 276.261 432.207L305.252 423.768C329.209 416.794 350.083 401.883 364.448 381.481L393.35 340.435C400.609 330.124 406.042 318.642 409.411 306.491L417.202 278.386C424.499 252.062 421.74 223.963 409.462 199.561L387.951 156.806C379.665 140.338 367.373 126.216 352.204 115.739L321.531 94.552C301.405 80.6498 277.218 73.8529 252.796 75.2358L209.652 77.6789C185.963 79.0203 163.344 87.9848 145.168 103.235L107.88 134.52C96.4683 144.095 87.1199 155.888 80.4023 169.185L75.4821 178.923C60.4828 208.612 59.7228 243.493 73.4147 273.806L80.8118 290.183C91.2043 313.192 109.195 331.926 131.765 343.24L185.396 370.124C197.802 376.343 211.274 380.159 225.099 381.369L227.315 381.563C256.377 384.107 285.26 375.002 307.61 356.25L310.604 353.737C321.647 344.473 330.76 333.128 337.427 320.348L344.362 307.056C356.469 283.848 359.904 257.084 354.049 231.572L352.753 225.927C346.363 198.083 329.304 174.233 306.272 158.021C301.054 154.348 296.286 150.889 292.549 148.01C290.678 146.569 289.131 145.323 287.944 144.302C287.352 143.794 286.889 143.374 286.542 143.041C286.37 142.877 286.242 142.748 286.15 142.652C286.072 142.571 286.035 142.528 286.03 142.522L286.031 142.523C284.262 140.415 282.108 139.219 280.532 138.525C278.872 137.794 277.137 137.311 275.536 136.97C272.341 136.289 268.626 135.959 264.841 135.816C257.208 135.527 247.851 135.958 238.685 136.679C215.487 138.501 194.28 149.148 178.013 165.048C171.407 171.504 164.82 178.043 159.533 183.49C154.584 188.588 149.927 193.571 147.987 196.49C146.038 199.422 145.457 202.929 145.189 205.055C144.867 207.622 144.764 210.549 144.783 213.563C144.821 219.622 145.362 227.001 146.124 234.516C148.888 261.759 164.266 285.474 185.829 301.121C201.634 312.59 222.683 321.249 244.345 314.939C246.765 314.234 249.248 313.429 251.774 312.512C264.921 307.74 276.167 297.925 282.324 286.047C288.579 273.98 289.834 259.03 281.178 245.709C272.606 232.518 257.499 222.615 234.002 220.559C228.5 220.077 223.65 224.147 223.168 229.649C222.687 235.15 226.756 240.001 232.258 240.483C250.473 242.077 259.627 249.25 264.408 256.607C268.344 262.665 268.245 269.75 264.568 276.843C260.792 284.126 253.526 290.6 244.95 293.712C242.845 294.477 240.773 295.149 238.752 295.737C225.634 299.558 211.089 294.74 197.575 284.933C180.006 272.185 168.138 253.356 166.022 232.498C165.285 225.231 164.815 218.572 164.783 213.437C164.767 210.854 164.864 208.895 165.033 207.55C165.037 207.516 165.042 207.484 165.046 207.452C165.091 207.11 165.236 206.789 165.457 206.524C165.969 205.907 166.641 205.135 167.476 204.21C169.147 202.36 171.324 200.057 173.883 197.421C178.994 192.156 185.439 185.756 191.992 179.351C205.292 166.351 222.231 158.033 240.251 156.617C249.134 155.919 257.597 155.556 264.086 155.802C267.362 155.925 269.785 156.193 271.37 156.531C271.694 156.6 271.986 156.772 272.221 157.006C274.378 159.15 277.376 161.567 280.344 163.854C284.407 166.984 289.437 170.628 294.76 174.375C314.092 187.983 328.062 207.75 333.26 230.401L334.556 236.045C339.346 256.919 336.536 278.817 326.63 297.805L319.695 311.098C314.24 321.554 306.784 330.836 297.749 338.416L294.754 340.928C276.469 356.271 252.837 363.721 229.059 361.639L226.843 361.445C215.531 360.455 204.509 357.333 194.359 352.245L140.728 325.361C122.262 316.104 107.542 300.776 99.0388 281.951L91.6417 265.574C80.4392 240.772 81.0611 212.233 93.3332 187.942L98.2534 178.203C103.75 167.324 111.398 157.675 120.735 149.841L158.023 118.556C172.894 106.079 191.401 98.7444 210.782 97.6469L253.927 95.2038C273.909 94.0723 293.697 99.6335 310.165 111.008L340.838 132.195Z"/>
</mask>
<g filter="url(#filter0_i)">
<path fill-rule="evenodd" clip-rule="evenodd" d="M225.774 464.091C342.908 464.091 437.864 369.134 437.864 252C437.864 134.866 342.908 39.9095 225.774 39.9095C108.64 39.9095 13.6833 134.866 13.6833 252C13.6833 369.134 108.64 464.091 225.774 464.091ZM340.838 132.195C353.248 140.767 363.305 152.321 370.085 165.795L391.596 208.55C401.642 228.516 403.899 251.505 397.928 273.043L390.138 301.148C387.381 311.09 382.936 320.484 376.997 328.92L348.095 369.967C336.342 386.659 319.263 398.859 299.662 404.565L271.299 412.822L215.526 421.4C194.927 424.568 173.866 420.489 155.939 409.859L140.858 400.916C134.268 397.008 128.204 392.275 122.813 386.831L42.8924 306.125C39.0063 302.2 32.6747 302.169 28.7504 306.056C24.8261 309.942 24.7952 316.273 28.6813 320.198L108.602 400.904C115.191 407.557 122.602 413.342 130.657 418.118L145.738 427.061C167.648 440.054 193.389 445.04 218.567 441.168L274.986 432.49C275.417 432.423 275.843 432.329 276.261 432.207L305.252 423.768C329.209 416.794 350.083 401.883 364.448 381.481L393.35 340.435C400.609 330.124 406.042 318.642 409.411 306.491L417.202 278.386C424.499 252.062 421.74 223.963 409.462 199.561L387.951 156.806C379.665 140.338 367.373 126.216 352.204 115.739L321.531 94.552C301.405 80.6498 277.218 73.8529 252.796 75.2358L209.652 77.6789C185.963 79.0203 163.344 87.9848 145.168 103.235L107.88 134.52C96.4683 144.095 87.1199 155.888 80.4023 169.185L75.4821 178.923C60.4828 208.612 59.7228 243.493 73.4147 273.806L80.8118 290.183C91.2043 313.192 109.195 331.926 131.765 343.24L185.396 370.124C197.802 376.343 211.274 380.159 225.099 381.369L227.315 381.563C256.377 384.107 285.26 375.002 307.61 356.25L310.604 353.737C321.647 344.473 330.76 333.128 337.427 320.348L344.362 307.056C356.469 283.848 359.904 257.084 354.049 231.572L352.753 225.927C346.363 198.083 329.304 174.233 306.272 158.021C301.054 154.348 296.286 150.889 292.549 148.01C290.678 146.569 289.131 145.323 287.944 144.302C287.352 143.794 286.889 143.374 286.542 143.041C286.37 142.877 286.242 142.748 286.15 142.652C286.072 142.571 286.035 142.528 286.03 142.522L286.031 142.523C284.262 140.415 282.108 139.219 280.532 138.525C278.872 137.794 277.137 137.311 275.536 136.97C272.341 136.289 268.626 135.959 264.841 135.816C257.208 135.527 247.851 135.958 238.685 136.679C215.487 138.501 194.28 149.148 178.013 165.048C171.407 171.504 164.82 178.043 159.533 183.49C154.584 188.588 149.927 193.571 147.987 196.49C146.038 199.422 145.457 202.929 145.189 205.055C144.867 207.622 144.764 210.549 144.783 213.563C144.821 219.622 145.362 227.001 146.124 234.516C148.888 261.759 164.266 285.474 185.829 301.121C201.634 312.59 222.683 321.249 244.345 314.939C246.765 314.234 249.248 313.429 251.774 312.512C264.921 307.74 276.167 297.925 282.324 286.047C288.579 273.98 289.834 259.03 281.178 245.709C272.606 232.518 257.499 222.615 234.002 220.559C228.5 220.077 223.65 224.147 223.168 229.649C222.687 235.15 226.756 240.001 232.258 240.483C250.473 242.077 259.627 249.25 264.408 256.607C268.344 262.665 268.245 269.75 264.568 276.843C260.792 284.126 253.526 290.6 244.95 293.712C242.845 294.477 240.773 295.149 238.752 295.737C225.634 299.558 211.089 294.74 197.575 284.933C180.006 272.185 168.138 253.356 166.022 232.498C165.285 225.231 164.815 218.572 164.783 213.437C164.767 210.854 164.864 208.895 165.033 207.55C165.037 207.516 165.042 207.484 165.046 207.452C165.091 207.11 165.236 206.789 165.457 206.524C165.969 205.907 166.641 205.135 167.476 204.21C169.147 202.36 171.324 200.057 173.883 197.421C178.994 192.156 185.439 185.756 191.992 179.351C205.292 166.351 222.231 158.033 240.251 156.617C249.134 155.919 257.597 155.556 264.086 155.802C267.362 155.925 269.785 156.193 271.37 156.531C271.694 156.6 271.986 156.772 272.221 157.006C274.378 159.15 277.376 161.567 280.344 163.854C284.407 166.984 289.437 170.628 294.76 174.375C314.092 187.983 328.062 207.75 333.26 230.401L334.556 236.045C339.346 256.919 336.536 278.817 326.63 297.805L319.695 311.098C314.24 321.554 306.784 330.836 297.749 338.416L294.754 340.928C276.469 356.271 252.837 363.721 229.059 361.639L226.843 361.445C215.531 360.455 204.509 357.333 194.359 352.245L140.728 325.361C122.262 316.104 107.542 300.776 99.0388 281.951L91.6417 265.574C80.4392 240.772 81.0611 212.233 93.3332 187.942L98.2534 178.203C103.75 167.324 111.398 157.675 120.735 149.841L158.023 118.556C172.894 106.079 191.401 98.7444 210.782 97.6469L253.927 95.2038C273.909 94.0723 293.697 99.6335 310.165 111.008L340.838 132.195Z" fill="#403D39"/>
</g>
<path d="M370.085 165.795L369.192 166.245L370.085 165.795ZM340.838 132.195L340.269 133.017L340.838 132.195ZM391.596 208.55L390.703 208.999L391.596 208.55ZM397.928 273.043L396.965 272.776L397.928 273.043ZM390.138 301.148L391.101 301.415L390.138 301.148ZM376.997 328.92L377.814 329.496L376.997 328.92ZM348.095 369.967L347.278 369.391L348.095 369.967ZM299.662 404.565L299.941 405.525L299.662 404.565ZM271.299 412.822L271.451 413.81L271.516 413.8L271.579 413.782L271.299 412.822ZM215.526 421.4L215.678 422.388L215.526 421.4ZM155.939 409.859L155.429 410.719L155.939 409.859ZM140.858 400.916L141.368 400.056L140.858 400.916ZM122.813 386.831L123.524 386.127L122.813 386.831ZM42.8924 306.125L43.6029 305.421H43.6029L42.8924 306.125ZM28.7504 306.056L29.4541 306.766L29.4541 306.766L28.7504 306.056ZM28.6813 320.198L27.9707 320.901L28.6813 320.198ZM108.602 400.904L107.892 401.607L108.602 400.904ZM130.657 418.118L131.167 417.258L130.657 418.118ZM145.738 427.061L145.228 427.922L145.738 427.061ZM218.567 441.168L218.415 440.179L218.567 441.168ZM274.986 432.49L274.834 431.501L274.986 432.49ZM276.261 432.207L275.982 431.247H275.981L276.261 432.207ZM305.252 423.768L304.972 422.808L305.252 423.768ZM364.448 381.481L365.266 382.057L364.448 381.481ZM393.35 340.435L394.167 341.01L393.35 340.435ZM409.411 306.491L408.447 306.223L409.411 306.491ZM417.202 278.386L418.165 278.653L417.202 278.386ZM409.462 199.561L408.569 200.01L409.462 199.561ZM387.951 156.806L388.844 156.357L387.951 156.806ZM352.204 115.739L352.773 114.916L352.204 115.739ZM321.531 94.552L320.963 95.3748L321.531 94.552ZM252.796 75.2358L252.853 76.2342L252.796 75.2358ZM209.652 77.6789L209.595 76.6805L209.652 77.6789ZM145.168 103.235L144.525 102.469L145.168 103.235ZM107.88 134.52L108.523 135.286L107.88 134.52ZM80.4023 169.185L79.5098 168.734L80.4023 169.185ZM75.4821 178.923L76.3746 179.374L75.4821 178.923ZM73.4147 273.806L74.326 273.395L73.4147 273.806ZM80.8118 290.183L79.9004 290.595L80.8118 290.183ZM131.765 343.24L132.214 342.346L131.765 343.24ZM185.396 370.124L184.948 371.018V371.018L185.396 370.124ZM225.099 381.369L225.186 380.373L225.099 381.369ZM227.315 381.563L227.227 382.559L227.315 381.563ZM307.61 356.25L308.252 357.016L307.61 356.25ZM310.604 353.737L309.961 352.971L310.604 353.737ZM337.427 320.348L338.314 320.811L337.427 320.348ZM344.362 307.056L345.249 307.518L344.362 307.056ZM354.049 231.572L353.074 231.795L354.049 231.572ZM352.753 225.927L353.728 225.703L352.753 225.927ZM306.272 158.021L305.697 158.839L306.272 158.021ZM292.549 148.01L293.159 147.218V147.218L292.549 148.01ZM287.944 144.302L287.292 145.06L287.944 144.302ZM286.542 143.041L287.234 142.32L286.542 143.041ZM286.15 142.652L286.873 141.961L286.873 141.961L286.15 142.652ZM286.03 142.522L286.784 141.866L285.249 143.147L286.03 142.522ZM286.031 142.523L285.265 143.166L286.812 141.898L286.031 142.523ZM280.532 138.525L280.129 139.44V139.44L280.532 138.525ZM275.536 136.97L275.744 135.992L275.536 136.97ZM264.841 135.816L264.804 136.815L264.841 135.816ZM238.685 136.679L238.763 137.675L238.685 136.679ZM178.013 165.048L178.712 165.763L178.013 165.048ZM159.533 183.49L158.815 182.793L159.533 183.49ZM147.987 196.49L147.154 195.936V195.936L147.987 196.49ZM145.189 205.055L144.197 204.93V204.93L145.189 205.055ZM144.783 213.563L143.783 213.569L144.783 213.563ZM146.124 234.516L147.119 234.415L146.124 234.516ZM185.829 301.121L186.416 300.311L185.829 301.121ZM244.345 314.939L244.625 315.899L244.345 314.939ZM251.774 312.512L251.433 311.572H251.433L251.774 312.512ZM282.324 286.047L281.436 285.587L282.324 286.047ZM281.178 245.709L280.339 246.254L281.178 245.709ZM234.002 220.559L234.089 219.563L234.002 220.559ZM223.168 229.649L222.172 229.561L223.168 229.649ZM232.258 240.483L232.171 241.479L232.258 240.483ZM264.408 256.607L265.246 256.062L264.408 256.607ZM264.568 276.843L263.68 276.383H263.68L264.568 276.843ZM244.95 293.712L244.609 292.772V292.772L244.95 293.712ZM238.752 295.737L238.473 294.777L238.752 295.737ZM197.575 284.933L196.988 285.743L197.575 284.933ZM166.022 232.498L165.027 232.599L166.022 232.498ZM164.783 213.437L163.783 213.444L164.783 213.437ZM165.033 207.55L164.041 207.425L165.033 207.55ZM167.476 204.21L168.219 204.88V204.88L167.476 204.21ZM173.883 197.421L174.601 198.117L173.883 197.421ZM191.992 179.351L192.691 180.066L191.992 179.351ZM240.251 156.617L240.33 157.614L240.251 156.617ZM264.086 155.802L264.048 156.801L264.086 155.802ZM280.344 163.854L280.954 163.062L280.344 163.854ZM294.76 174.375L295.336 173.558L294.76 174.375ZM333.26 230.401L332.285 230.624V230.624L333.26 230.401ZM334.556 236.045L335.53 235.822V235.822L334.556 236.045ZM326.63 297.805L325.743 297.343L326.63 297.805ZM319.695 311.098L320.582 311.56L319.695 311.098ZM297.749 338.416L297.106 337.65L297.749 338.416ZM294.754 340.928L294.112 340.162L294.754 340.928ZM229.059 361.639L228.971 362.635L229.059 361.639ZM226.843 361.445L226.93 360.449L226.843 361.445ZM194.359 352.245L194.807 351.351L194.359 352.245ZM140.728 325.361L141.176 324.467L140.728 325.361ZM99.0388 281.951L98.1274 282.362L99.0388 281.951ZM91.6417 265.574L90.7303 265.985L91.6417 265.574ZM93.3332 187.942L92.4406 187.491L93.3332 187.942ZM98.2534 178.203L97.3609 177.752L98.2534 178.203ZM120.735 149.841L120.093 149.075L120.735 149.841ZM158.023 118.556L158.665 119.322L158.023 118.556ZM210.782 97.6469L210.839 98.6453L210.782 97.6469ZM253.927 95.2038L253.87 94.2054L253.927 95.2038ZM310.165 111.008L309.596 111.831L310.165 111.008ZM272.221 157.006L271.516 157.715L272.221 157.006ZM165.046 207.452L166.037 207.582L165.046 207.452ZM436.864 252C436.864 368.582 342.356 463.091 225.774 463.091V465.091C343.46 465.091 438.864 369.687 438.864 252H436.864ZM225.774 40.9095C342.356 40.9095 436.864 135.418 436.864 252H438.864C438.864 134.313 343.46 38.9095 225.774 38.9095V40.9095ZM14.6833 252C14.6833 135.418 109.192 40.9095 225.774 40.9095V38.9095C108.087 38.9095 12.6833 134.313 12.6833 252H14.6833ZM225.774 463.091C109.192 463.091 14.6833 368.582 14.6833 252H12.6833C12.6833 369.687 108.087 465.091 225.774 465.091V463.091ZM370.978 165.346C364.123 151.722 353.955 140.04 341.406 131.372L340.269 133.017C352.542 141.495 362.488 152.92 369.192 166.245L370.978 165.346ZM392.49 208.1L370.978 165.346L369.192 166.245L390.703 208.999L392.49 208.1ZM398.892 273.311C404.929 251.533 402.647 228.288 392.49 208.1L390.703 208.999C400.637 228.743 402.869 251.477 396.965 272.776L398.892 273.311ZM391.101 301.415L398.892 273.311L396.965 272.776L389.174 300.881L391.101 301.415ZM377.814 329.496C383.82 320.966 388.315 311.468 391.101 301.415L389.174 300.881C386.448 310.712 382.053 320.002 376.179 328.344L377.814 329.496ZM348.913 370.542L377.814 329.496L376.179 328.344L347.278 369.391L348.913 370.542ZM299.941 405.525C319.76 399.756 337.029 387.42 348.913 370.542L347.278 369.391C335.655 385.898 318.766 397.962 299.382 403.605L299.941 405.525ZM271.579 413.782L299.941 405.525L299.382 403.605L271.02 411.861L271.579 413.782ZM215.678 422.388L271.451 413.81L271.147 411.833L215.374 420.412L215.678 422.388ZM155.429 410.719C173.555 421.467 194.85 425.592 215.678 422.388L215.374 420.412C195.003 423.545 174.177 419.511 156.449 408.999L155.429 410.719ZM140.348 401.776L155.429 410.719L156.449 408.999L141.368 400.056L140.348 401.776ZM122.103 387.534C127.553 393.039 133.685 397.825 140.348 401.776L141.368 400.056C134.851 396.191 128.855 391.511 123.524 386.127L122.103 387.534ZM42.1818 306.828L122.103 387.534L123.524 386.127L43.6029 305.421L42.1818 306.828ZM29.4541 306.766C32.9859 303.269 38.6843 303.297 42.1818 306.828L43.6029 305.421C39.3282 301.104 32.3635 301.07 28.0468 305.345L29.4541 306.766ZM29.3918 319.494C25.8943 315.962 25.9222 310.264 29.4541 306.766L28.0468 305.345C23.73 309.62 23.696 316.584 27.9707 320.901L29.3918 319.494ZM109.313 400.2L29.3918 319.494L27.9707 320.901L107.892 401.607L109.313 400.2ZM131.167 417.258C123.186 412.526 115.842 406.793 109.313 400.2L107.892 401.607C114.54 408.321 122.019 414.159 130.147 418.979L131.167 417.258ZM146.248 426.201L131.167 417.258L130.147 418.979L145.228 427.922L146.248 426.201ZM218.415 440.179C193.466 444.016 167.959 439.076 146.248 426.201L145.228 427.922C167.338 441.033 193.312 446.064 218.719 442.156L218.415 440.179ZM274.834 431.501L218.415 440.179L218.719 442.156L275.138 433.478L274.834 431.501ZM275.981 431.247C275.605 431.357 275.222 431.442 274.834 431.501L275.138 433.478C275.612 433.405 276.08 433.301 276.541 433.168L275.981 431.247ZM304.972 422.808L275.982 431.247L276.541 433.168L305.531 424.728L304.972 422.808ZM363.631 380.905C349.396 401.121 328.712 415.897 304.972 422.808L305.531 424.728C329.706 417.691 350.77 402.644 365.266 382.057L363.631 380.905ZM392.532 339.859L363.631 380.905L365.266 382.057L394.167 341.01L392.532 339.859ZM408.447 306.223C405.109 318.265 399.726 329.642 392.532 339.859L394.167 341.01C401.493 330.606 406.975 319.02 410.374 306.758L408.447 306.223ZM416.238 278.119L408.447 306.223L410.374 306.758L418.165 278.653L416.238 278.119ZM408.569 200.01C420.736 224.191 423.469 252.034 416.238 278.119L418.165 278.653C425.529 252.089 422.745 223.736 410.356 199.111L408.569 200.01ZM387.058 157.256L408.569 200.01L410.356 199.111L388.844 156.357L387.058 157.256ZM351.636 116.561C366.667 126.944 378.847 140.937 387.058 157.256L388.844 156.357C380.483 139.739 368.079 125.489 352.773 114.916L351.636 116.561ZM320.963 95.3748L351.636 116.561L352.773 114.916L322.1 93.7292L320.963 95.3748ZM252.853 76.2342C277.053 74.8639 301.019 81.599 320.963 95.3748L322.1 93.7292C301.79 79.7006 277.384 72.8419 252.74 74.2374L252.853 76.2342ZM209.708 78.6773L252.853 76.2342L252.74 74.2374L209.595 76.6805L209.708 78.6773ZM145.81 104.001C163.821 88.8895 186.235 80.0065 209.708 78.6773L209.595 76.6805C185.691 78.0341 162.866 87.0801 144.525 102.469L145.81 104.001ZM108.523 135.286L145.81 104.001L144.525 102.469L107.238 133.754L108.523 135.286ZM81.2949 169.635C87.9514 156.46 97.2148 144.774 108.523 135.286L107.238 133.754C95.7218 143.416 86.2884 155.316 79.5098 168.734L81.2949 169.635ZM76.3746 179.374L81.2949 169.635L79.5098 168.734L74.5895 178.472L76.3746 179.374ZM74.326 273.395C60.7586 243.357 61.5117 208.793 76.3746 179.374L74.5895 178.472C59.4539 208.431 58.687 243.629 72.5033 274.218L74.326 273.395ZM81.7231 289.772L74.326 273.395L72.5033 274.218L79.9004 290.595L81.7231 289.772ZM132.214 342.346C109.849 331.135 92.0212 312.571 81.7231 289.772L79.9004 290.595C90.3874 313.813 108.542 332.717 131.317 344.134L132.214 342.346ZM185.844 369.23L132.214 342.346L131.317 344.134L184.948 371.018L185.844 369.23ZM225.186 380.373C211.487 379.174 198.138 375.393 185.844 369.23L184.948 371.018C197.467 377.294 211.061 381.144 225.012 382.365L225.186 380.373ZM227.402 380.567L225.186 380.373L225.012 382.365L227.227 382.559L227.402 380.567ZM306.967 355.484C284.821 374.065 256.2 383.088 227.402 380.567L227.227 382.559C256.554 385.126 285.7 375.938 308.252 357.016L306.967 355.484ZM309.961 352.971L306.967 355.484L308.252 357.016L311.247 354.503L309.961 352.971ZM336.541 319.886C329.934 332.549 320.903 343.791 309.961 352.971L311.247 354.503C322.39 345.154 331.586 333.707 338.314 320.811L336.541 319.886ZM343.475 306.593L336.541 319.886L338.314 320.811L345.249 307.518L343.475 306.593ZM353.074 231.795C358.876 257.076 355.473 283.597 343.475 306.593L345.249 307.518C357.466 284.1 360.932 257.092 355.024 231.348L353.074 231.795ZM351.779 226.151L353.074 231.795L355.024 231.348L353.728 225.703L351.779 226.151ZM305.697 158.839C328.544 174.921 345.448 198.566 351.779 226.151L353.728 225.703C347.278 197.599 330.065 173.546 306.848 157.203L305.697 158.839ZM291.939 148.802C295.692 151.694 300.473 155.162 305.697 158.839L306.848 157.203C301.635 153.534 296.88 150.084 293.159 147.218L291.939 148.802ZM287.292 145.06C288.497 146.097 290.06 147.355 291.939 148.802L293.159 147.218C291.296 145.783 289.764 144.549 288.595 143.544L287.292 145.06ZM285.85 143.763C286.213 144.112 286.691 144.544 287.292 145.06L288.595 143.544C288.013 143.043 287.564 142.637 287.234 142.32L285.85 143.763ZM285.427 143.343C285.531 143.451 285.67 143.591 285.85 143.763L287.234 142.32C287.07 142.163 286.953 142.044 286.873 141.961L285.427 143.343ZM285.276 143.179C285.291 143.196 285.338 143.25 285.428 143.343L286.873 141.961C286.839 141.926 286.816 141.9 286.802 141.885C286.795 141.877 286.79 141.872 286.787 141.869C286.786 141.867 286.785 141.867 286.785 141.866C286.785 141.866 286.785 141.866 286.784 141.866C286.784 141.866 286.784 141.866 286.784 141.866C286.784 141.866 286.784 141.866 286.784 141.866C286.784 141.866 286.784 141.866 286.784 141.866C286.784 141.866 286.784 141.866 286.784 141.866C286.784 141.866 286.784 141.866 286.784 141.866L285.276 143.179ZM286.812 141.898L286.811 141.898L285.249 143.147L285.25 143.148L286.812 141.898ZM280.129 139.44C281.63 140.101 283.632 141.22 285.265 143.166L286.797 141.88C284.892 139.611 282.586 138.337 280.935 137.61L280.129 139.44ZM275.328 137.948C276.888 138.28 278.552 138.746 280.129 139.44L280.935 137.61C279.192 136.842 277.386 136.341 275.744 135.992L275.328 137.948ZM264.804 136.815C268.563 136.957 272.213 137.284 275.328 137.948L275.744 135.992C272.469 135.294 268.69 134.96 264.879 134.817L264.804 136.815ZM238.763 137.675C247.916 136.956 257.227 136.529 264.804 136.815L264.879 134.817C257.188 134.526 247.787 134.96 238.606 135.682L238.763 137.675ZM178.712 165.763C194.83 150.008 215.825 139.478 238.763 137.675L238.606 135.682C215.15 137.525 193.729 148.288 177.314 164.333L178.712 165.763ZM160.25 184.186C165.529 178.749 172.109 172.217 178.712 165.763L177.314 164.333C170.706 170.791 164.112 177.337 158.815 182.793L160.25 184.186ZM148.82 197.043C150.697 194.219 155.278 189.309 160.25 184.186L158.815 182.793C153.89 187.867 149.157 192.924 147.154 195.936L148.82 197.043ZM146.182 205.18C146.446 203.074 147.008 199.769 148.82 197.043L147.154 195.936C145.068 199.075 144.467 202.783 144.197 204.93L146.182 205.18ZM145.783 213.556C145.764 210.564 145.867 207.685 146.182 205.18L144.197 204.93C143.867 207.558 143.764 210.534 143.783 213.569L145.783 213.556ZM147.119 234.415C146.358 226.913 145.821 219.57 145.783 213.556L143.783 213.569C143.821 219.675 144.366 227.09 145.129 234.617L147.119 234.415ZM186.416 300.311C165.052 284.809 149.851 261.339 147.119 234.415L145.129 234.617C147.926 262.18 163.479 286.138 185.241 301.93L186.416 300.311ZM244.066 313.979C222.832 320.164 202.108 311.698 186.416 300.311L185.241 301.93C201.16 313.481 222.535 322.333 244.625 315.899L244.066 313.979ZM251.433 311.572C248.928 312.481 246.466 313.28 244.066 313.979L244.625 315.899C247.065 315.189 249.568 314.377 252.115 313.452L251.433 311.572ZM281.436 285.587C275.398 297.235 264.352 306.883 251.433 311.572L252.115 313.452C265.491 308.597 276.935 298.615 283.212 286.508L281.436 285.587ZM280.339 246.254C288.758 259.21 287.564 273.766 281.436 285.587L283.212 286.508C289.595 274.193 290.909 258.85 282.016 245.164L280.339 246.254ZM233.915 221.555C257.148 223.589 271.957 233.355 280.339 246.254L282.016 245.164C273.254 231.68 257.85 221.642 234.089 219.563L233.915 221.555ZM224.165 229.736C224.598 224.784 228.963 221.121 233.915 221.555L234.089 219.563C228.037 219.033 222.702 223.509 222.172 229.561L224.165 229.736ZM232.345 239.486C227.394 239.053 223.731 234.687 224.165 229.736L222.172 229.561C221.642 235.613 226.119 240.949 232.171 241.479L232.345 239.486ZM265.246 256.062C260.277 248.414 250.825 241.104 232.345 239.486L232.171 241.479C250.121 243.05 258.978 250.086 263.569 257.152L265.246 256.062ZM265.455 277.303C269.264 269.957 269.416 262.48 265.246 256.062L263.569 257.152C267.272 262.85 267.226 269.542 263.68 276.383L265.455 277.303ZM245.291 294.652C254.096 291.457 261.561 284.816 265.455 277.303L263.68 276.383C260.023 283.437 252.956 289.743 244.609 292.772L245.291 294.652ZM239.032 296.697C241.072 296.103 243.165 295.424 245.291 294.652L244.609 292.772C242.524 293.529 240.473 294.194 238.473 294.777L239.032 296.697ZM196.988 285.743C210.618 295.634 225.488 300.642 239.032 296.697L238.473 294.777C225.78 298.474 211.561 293.847 198.162 284.124L196.988 285.743ZM165.027 232.599C167.176 253.776 179.219 272.849 196.988 285.743L198.162 284.124C180.794 271.521 169.101 252.936 167.017 232.397L165.027 232.599ZM163.783 213.444C163.815 218.624 164.289 225.319 165.027 232.599L167.017 232.397C166.281 225.142 165.815 218.519 165.783 213.431L163.783 213.444ZM164.041 207.425C163.864 208.832 163.766 210.839 163.783 213.444L165.783 213.431C165.767 210.869 165.864 208.959 166.025 207.674L164.041 207.425ZM164.054 207.322C164.05 207.355 164.046 207.39 164.041 207.425L166.025 207.674C166.029 207.643 166.033 207.612 166.037 207.582L164.054 207.322ZM166.734 203.54C165.893 204.471 165.211 205.254 164.687 205.885L166.227 207.162C166.727 206.56 167.389 205.799 168.219 204.88L166.734 203.54ZM173.166 196.724C170.603 199.364 168.416 201.677 166.734 203.54L168.219 204.88C169.878 203.042 172.046 200.749 174.601 198.117L173.166 196.724ZM191.293 178.636C184.737 185.044 178.285 191.451 173.166 196.724L174.601 198.117C179.702 192.862 186.14 186.469 192.691 180.066L191.293 178.636ZM240.173 155.62C221.894 157.057 204.742 165.491 191.293 178.636L192.691 180.066C205.843 167.212 222.568 159.01 240.33 157.614L240.173 155.62ZM264.124 154.802C257.578 154.555 249.07 154.921 240.173 155.62L240.33 157.614C249.198 156.917 257.617 156.558 264.048 156.801L264.124 154.802ZM271.578 155.553C269.913 155.198 267.425 154.927 264.124 154.802L264.048 156.801C267.3 156.924 269.657 157.189 271.161 157.509L271.578 155.553ZM280.954 163.062C277.988 160.777 275.035 158.393 272.926 156.297L271.516 157.715C273.722 159.908 276.763 162.358 279.734 164.646L280.954 163.062ZM295.336 173.558C290.017 169.814 285.001 166.179 280.954 163.062L279.734 164.646C283.813 167.788 288.856 171.442 294.184 175.193L295.336 173.558ZM334.235 230.177C328.977 207.267 314.853 187.296 295.336 173.558L294.184 175.193C313.332 188.671 327.147 208.234 332.285 230.624L334.235 230.177ZM335.53 235.822L334.235 230.177L332.285 230.624L333.581 236.269L335.53 235.822ZM327.517 298.268C337.533 279.069 340.374 256.927 335.53 235.822L333.581 236.269C338.318 256.911 335.539 278.566 325.743 297.343L327.517 298.268ZM320.582 311.56L327.517 298.268L325.743 297.343L318.809 310.635L320.582 311.56ZM298.392 339.182C307.527 331.517 315.066 322.132 320.582 311.56L318.809 310.635C313.414 320.975 306.041 330.154 297.106 337.65L298.392 339.182ZM295.397 341.695L298.392 339.182L297.106 337.65L294.112 340.162L295.397 341.695ZM228.971 362.635C253.014 364.74 276.908 357.207 295.397 341.695L294.112 340.162C276.029 355.334 252.66 362.701 229.146 360.643L228.971 362.635ZM226.756 362.441L228.971 362.635L229.146 360.643L226.93 360.449L226.756 362.441ZM193.91 353.139C204.174 358.284 215.318 361.44 226.756 362.441L226.93 360.449C215.744 359.47 204.845 356.383 194.807 351.351L193.91 353.139ZM140.28 326.255L193.91 353.139L194.807 351.351L141.176 324.467L140.28 326.255ZM98.1274 282.362C106.725 301.397 121.608 316.895 140.28 326.255L141.176 324.467C122.915 315.313 108.359 300.155 99.9501 281.539L98.1274 282.362ZM90.7303 265.985L98.1274 282.362L99.9501 281.539L92.553 265.162L90.7303 265.985ZM92.4406 187.491C80.0321 212.052 79.4034 240.908 90.7303 265.985L92.553 265.162C81.4751 240.636 82.09 212.414 94.2257 188.393L92.4406 187.491ZM97.3609 177.752L92.4406 187.491L94.2257 188.393L99.146 178.654L97.3609 177.752ZM120.093 149.075C110.652 156.996 102.918 166.753 97.3609 177.752L99.146 178.654C104.581 167.896 112.145 158.354 121.378 150.607L120.093 149.075ZM157.38 117.79L120.093 149.075L121.378 150.607L158.665 119.322L157.38 117.79ZM210.726 96.6485C191.129 97.7582 172.416 105.174 157.38 117.79L158.665 119.322C173.371 106.984 191.673 99.7306 210.839 98.6453L210.726 96.6485ZM253.87 94.2054L210.726 96.6485L210.839 98.6453L253.983 96.2022L253.87 94.2054ZM310.733 110.185C294.083 98.6843 274.074 93.0614 253.87 94.2054L253.983 96.2022C273.743 95.0833 293.312 100.583 309.596 111.831L310.733 110.185ZM341.406 131.372L310.733 110.185L309.596 111.831L340.269 133.017L341.406 131.372ZM271.161 157.509C271.273 157.533 271.398 157.597 271.516 157.715L272.926 156.297C272.574 155.947 272.116 155.667 271.578 155.553L271.161 157.509ZM166.037 207.582C166.056 207.437 166.119 207.291 166.226 207.162L164.687 205.885C164.353 206.288 164.125 206.782 164.054 207.322L166.037 207.582Z" fill="#403D39" mask="url(#path-2-inside-1)"/>
<defs>
<filter id="filter0_i" x="13.6833" y="39.9095" width="424.181" height="428.181" filterUnits="userSpaceOnUse" color-interpolation-filters="sRGB">
<feFlood flood-opacity="0" result="BackgroundImageFix"/>
<feBlend mode="normal" in="SourceGraphic" in2="BackgroundImageFix" result="shape"/>
<feColorMatrix in="SourceAlpha" type="matrix" values="0 0 0 0 0 0 0 0 0 0 0 0 0 0 0 0 0 0 127 0" result="hardAlpha"/>
<feOffset dy="4"/>
<feGaussianBlur stdDeviation="2"/>
<feComposite in2="hardAlpha" operator="arithmetic" k2="-1" k3="1"/>
<feColorMatrix type="matrix" values="0 0 0 0 0 0 0 0 0 0 0 0 0 0 0 0 0 0 0.25 0"/>
<feBlend mode="normal" in2="shape" result="effect1_innerShadow"/>
</filter>
</defs>
</svg>
