<svg width="122" height="122" viewBox="0 0 122 122" fill="none" xmlns="http://www.w3.org/2000/svg">
<path d="M80.0626 47.0634V40.0312C80.0626 38.3461 81.8049 35.3247 85.6708 32.3853C107.505 32.1623 114.573 29.6079 118.188 13.3438C94.5596 13.3438 83.0878 16.8341 82.0698 30.3742C80.9776 31.3178 80.0664 32.2728 79.2982 33.2126C78.9893 31.0071 78.5986 28.7119 78.1201 26.312L74.3819 27.0611C74.9843 30.0749 75.4399 32.9095 75.764 35.5897C73.7148 33.7197 70.8039 32.4062 66.7188 32.4062H64.8126V34.3125C64.8126 38.6302 67.2564 46.5449 76.2119 47.5476C75.8593 53.0262 74.605 57.5707 72.4376 61.326V61C72.4357 60.9123 72.3423 58.3179 69.6792 56.9873C68.5717 56.4326 67.6109 55.876 66.797 55.3575C66.938 57.6431 67.3288 59.8639 68.4249 62.0542L69.8031 64.8125H66.7188C61.0229 64.8125 55.2508 66.2593 51.7395 67.3364C56.5509 69.7878 62.466 68.6765 62.5365 68.6593L66.3433 67.914L64.6124 71.3814C64.01 72.5881 63.909 73.8157 63.9967 74.8394L72.1993 68.2781L73.2897 68.8232C75.1864 69.7707 76.658 71.4386 77.7331 73.0647C78.1449 70.7123 78.1563 68.6574 78.1563 68.6231L78.1601 65.5559L80.9108 66.9189C80.9471 66.9361 84.3898 68.625 87.6876 68.625C90.9263 68.625 94.3213 66.3432 96.2314 64.8125C94.3213 63.2818 90.9263 61 87.6876 61C80.6993 61 77.1269 62.6927 77.0926 62.7099L76.698 62.9005L75.9317 62.9024C78.2955 58.6763 79.6565 53.6495 80.0244 47.6562L80.0626 47.0634Z" fill="#252422"/>
<path d="M35.645 67.8893C35.6889 67.9198 35.7251 67.9484 35.7708 67.9789C37.0976 68.8119 38.8342 68.8253 40.2086 67.9636C41.299 67.2564 41.9376 66.1012 41.9376 64.8126V63.8233L39.9303 62.2163C39.5357 64.7059 37.9554 66.8275 35.645 67.8893Z" fill="#252422"/>
<path d="M31.3826 77.6128C30.4962 77.9693 29.5545 78.1561 28.5938 78.1561C27.9475 78.1561 27.3128 78.0436 26.6875 77.8778V80.0623C26.6875 80.638 26.8152 81.1889 27.0668 81.7036C27.4424 82.4928 28.0695 83.1199 28.8416 83.4878C29.9091 84.0044 31.11 83.9987 32.1451 83.4955C32.9324 83.1218 33.5595 82.4947 33.9274 81.7208C34.0799 81.4081 34.1733 81.086 34.2343 80.76C33.0182 79.9975 32.0326 78.909 31.3826 77.6128Z" fill="#252422"/>
<path d="M35.3953 90.3448C35.5744 90.5259 35.7841 90.7108 36.0205 90.869C37.2843 91.681 38.9409 91.7001 40.2581 90.8499C41.0244 90.339 41.5524 89.5861 41.7907 88.7187C40.6679 87.3615 40.0312 85.6687 40.0312 83.875C40.0312 83.0457 40.2447 82.2794 40.5345 81.5894C39.8158 81.8143 39.0781 81.9687 38.3118 81.9687C38.1612 81.9687 38.0221 81.9363 37.8734 81.9287C37.7476 82.4224 37.5874 82.9085 37.3606 83.3755C36.7106 84.7404 35.6297 85.867 34.3125 86.6295V87.6874C34.3125 87.9448 34.3373 88.1888 34.3888 88.4252L34.3926 88.4309L34.5393 88.9208C34.6918 89.4374 34.9797 89.9159 35.3953 90.3448Z" fill="#252422"/>
<path d="M36.0472 95.0134C35.7917 96.199 35.2313 97.2856 34.4612 98.2159C34.9034 99.8324 36.3693 101.031 38.125 101.031C40.2276 101.031 41.9375 99.3215 41.9375 97.2189V94.2661C40.7442 94.9428 39.4441 95.3126 38.125 95.3126C37.4216 95.3126 36.7239 95.2059 36.0472 95.0134Z" fill="#252422"/>
<path d="M37.9784 72.4373C37.3207 72.4373 36.6688 72.3401 36.0302 72.1762C35.7805 73.3028 35.2582 74.3436 34.5376 75.2452C34.9169 76.4671 35.7976 77.466 36.9852 77.9064C37.9574 78.2971 39.0459 78.2342 40.0085 77.7481C40.8358 77.3364 41.4992 76.6387 41.8919 75.7771C41.9129 75.7351 41.9205 75.7066 41.9377 75.6684V74.3436C41.9338 73.848 41.8309 72.6718 41.4821 71.5967C40.3707 72.1438 39.1831 72.4373 37.9784 72.4373Z" fill="#252422"/>
<path d="M40.0312 49.5625V47.6562C40.0312 45.2296 41.5029 43.5368 42.9268 41.8994C43.9505 40.7232 44.9322 39.5947 45.424 38.1765C43.8342 38.2432 41.8498 38.3823 39.9836 38.634C43.9981 32.2156 51.463 25.2502 63.5582 20.8525L62.2543 17.2687C57.462 19.011 53.3674 21.1651 49.8408 23.5327C50.7882 21.6722 51.4687 19.4228 51.4687 17.1562C51.4687 9.53125 43.8437 3.8125 38.125 3.8125C38.125 3.8125 34.3125 9.53125 34.3125 15.25C34.3125 22.0763 38.9027 25.8373 45.3344 26.5522C45.3859 26.6417 45.4297 26.7123 45.4774 26.7904C40.4639 31.0204 37.0499 35.6678 34.9778 39.9417C31.9487 41.5543 30.317 44.6634 30.2998 44.6958L29.4477 46.4019L27.7607 45.5594C27.6025 45.4888 24.1979 44.0496 17.6194 45.6947C14.1634 46.5583 11.2125 47.0482 9.12329 47.3227C11.1973 50.0162 14.4169 53.375 17.1562 53.375C20.6199 53.375 26.0298 51.585 26.0851 51.566L28.5899 50.731L28.5937 53.3731C28.5937 53.4074 28.6052 55.4623 29.0169 57.8185C30.0901 56.1924 31.5637 54.5245 33.4604 53.5771L34.5508 53.0319L42.7534 59.5932C42.841 58.5695 42.7419 57.34 42.1395 56.1352L40.3972 52.6487L44.2193 53.4131C44.2898 53.4284 50.4012 54.574 55.2545 51.9625C52.296 50.9121 47.4256 49.5625 41.9375 49.5625H40.0312Z" fill="#252422"/>
<path d="M46.3086 68.0662L45.3688 67.1265C45.1572 67.7784 44.8598 68.396 44.4805 68.9679C44.7073 69.4006 44.9037 69.841 45.0562 70.2851C45.7748 69.7533 46.5831 69.3377 47.4676 69.0575C47.0749 68.7411 46.6784 68.4361 46.3086 68.0662Z" fill="#252422"/>
<path d="M50.6986 57.2808C49.1374 57.4847 47.6772 57.5229 46.4934 57.4733C46.8651 60.123 46.1255 62.3685 45.75 63.2969V64.8124C45.75 65.0259 45.7271 65.2336 45.71 65.4433L46.9471 64.9477C47.1492 64.8676 49.675 63.8707 53.3731 62.8985C53.3712 61.0723 52.4619 59.2251 50.6986 57.2808Z" fill="#252422"/>
<path d="M50.0486 72.4375C47.6791 72.4375 45.75 74.1474 45.75 76.25C45.75 76.8962 45.9216 77.5043 46.2609 78.0628C46.9852 79.2295 48.3425 79.9634 49.8256 80.0358C49.6693 79.4315 49.5625 78.8082 49.5625 78.1562C49.5625 76.1985 50.1363 74.3075 51.2991 72.4375H50.0486Z" fill="#252422"/>
<path d="M25.3969 59.0936C25.1663 57.9346 25.0061 56.8137 24.9184 55.8892C23.4239 56.2952 21.4224 56.7622 19.4971 57.0081C20.128 58.2415 21.3976 59.0936 22.8749 59.0936H25.3969Z" fill="#252422"/>
<path d="M51.505 86.8048C51.5641 85.8269 51.8462 84.8585 52.2999 83.9606C52.1798 83.8596 52.0502 83.77 51.9358 83.6614C51.322 83.7986 50.6872 83.8749 50.0486 83.8749C48.0623 83.8749 46.1732 83.1657 44.7073 81.9629C44.2955 82.4928 43.8438 83.2439 43.8438 83.8749C43.8438 85.1768 44.5033 86.3816 45.607 87.1002C46.2266 87.4815 46.93 87.6874 47.6563 87.6874C49.4005 87.6874 50.3936 87.6835 51.505 86.8048Z" fill="#252422"/>
<path d="M30.805 90.2762L30.7936 89.7424C30.5953 89.0791 30.5 88.4042 30.5 87.6875C30.5 91.1092 28.2182 93.9781 25.1091 94.9408C25.702 96.279 27.0383 97.2188 28.5938 97.2188C29.5316 97.2188 30.4371 96.8661 31.1443 96.2256C31.9526 95.5108 32.4063 94.4871 32.4063 93.4062V92.68C31.8268 92.0147 31.3578 91.2998 31.0585 90.5164L30.805 90.2762Z" fill="#252422"/>
<path d="M12.6537 74.1265C13.7708 73.7166 14.6514 72.6663 15.0384 71.4425C14.3598 70.5904 13.8775 69.6296 13.6106 68.6022C13.521 68.6041 13.4353 68.625 13.3438 68.625C11.7844 68.625 10.2976 68.1332 9.03753 67.2563C8.16828 67.9998 7.625 69.1226 7.625 70.3445C7.625 72.55 9.33491 74.3438 11.4375 74.3438C11.8855 74.3438 12.2934 74.2714 12.6537 74.1265Z" fill="#252422"/>
<path d="M17.2439 67.5287C17.404 68.2798 17.7891 68.9603 18.3667 69.4903C18.9176 69.9916 19.7659 70.5311 20.9687 70.5311C21.3671 70.5311 21.7636 70.4663 22.1506 70.3347L22.3946 70.2394C23.8452 69.679 24.7812 68.2951 24.7812 66.7186V62.9061H22.875C22.1487 62.9061 21.4605 62.7707 20.7952 62.582C20.3568 64.6598 19.0606 66.446 17.2439 67.5287Z" fill="#252422"/>
<path d="M15.5207 57.1875H13.3437C11.2412 57.1875 9.53125 58.8974 9.53125 61C9.53125 62.0713 9.96206 63.0549 10.7417 63.7698C11.8035 64.7705 13.441 65.0412 14.5809 64.599C16.0849 64.0481 17.0533 62.7404 17.141 61.2326L17.1639 61.0362C17.162 60.9771 17.1601 60.6454 17.1601 60.2718C16.3899 59.3949 15.8238 58.3503 15.5207 57.1875Z" fill="#252422"/>
<path d="M15.3262 77.0241C15.6731 78.7778 17.1905 80.0627 19.0624 80.0627C21.165 80.0627 22.8749 78.2917 22.8749 76.1186C22.8749 75.8746 22.812 75.6668 22.7701 75.4438C22.4517 75.0702 22.1181 74.6356 21.8456 74.2677C21.5539 74.3001 21.268 74.3439 20.9687 74.3439C20.0117 74.3439 19.0758 74.159 18.1989 73.814C17.5412 75.1426 16.5462 76.2597 15.3262 77.0241Z" fill="#252422"/>
<path d="M25.5361 72.8129C25.66 72.9634 25.7725 73.095 25.864 73.1884C26.2719 73.6116 26.7352 73.9128 27.2365 74.0881C28.7043 74.6333 30.1016 74.2978 31.1443 73.3504C31.9754 72.586 32.4063 71.6024 32.4063 70.5311V70.1212C32.4043 70.1193 32.4024 70.1174 32.4005 70.1155L31.8687 69.5131C31.6133 69.1986 31.3998 68.8593 31.2034 68.5124C30.2122 68.4037 29.2876 68.2112 28.5137 67.8433C28.2201 69.8563 27.1393 71.6272 25.5361 72.8129Z" fill="#252422"/>
<path d="M33.5862 64.618L33.8321 64.5208C35.2828 63.9604 36.2188 62.5784 36.2188 61V59.2481L34.1886 57.624C32.1718 59.2501 30.8031 62.3115 30.4028 63.5105L30.113 64.3798C30.6906 64.6714 31.4379 64.8125 32.4063 64.8125C32.8047 64.8125 33.2012 64.7477 33.5862 64.618Z" fill="#252422"/>
<path d="M26.6875 87.6877V86.6297C25.376 85.873 24.2894 84.7425 23.6299 83.3586C23.5002 83.0936 23.4354 82.8096 23.3382 82.5332C22.5929 83.0498 21.7446 83.4158 20.8429 83.6369C20.5989 85.221 19.9908 86.5096 19.0625 87.4837V87.6877C19.0625 89.7903 20.7724 91.5002 22.875 91.5002C24.9776 91.5002 26.6875 89.7903 26.6875 87.6877Z" fill="#252422"/>
<path d="M11.7978 78.4897C10.4653 79.0845 9.53125 80.417 9.53125 81.9686C9.53125 84.0712 11.2412 85.7811 13.3437 85.7811C15.4711 85.7811 16.5825 85.1273 16.979 83.5623C14.4722 82.8703 12.5412 80.9736 11.7978 78.4897Z" fill="#252422"/>
<path d="M74.8813 84.7936L74.3495 85.3655C74.3476 85.3674 74.3457 85.3693 74.3438 85.3712V85.781C74.3438 86.8523 74.7746 87.836 75.5542 88.5508C76.1051 89.0541 76.9534 89.5935 78.1562 89.5935C78.6004 89.5935 79.0427 89.5116 79.4697 89.3514C80.0167 89.1608 80.4781 88.8596 80.8841 88.4383C80.9756 88.343 81.09 88.2115 81.2139 88.0609C79.6107 86.8752 78.5299 85.1062 78.2382 83.0913C77.4643 83.4573 76.5397 83.6517 75.5485 83.7604C75.3522 84.1073 75.1387 84.4467 74.8832 84.7612V84.7936H74.8813Z" fill="#252422"/>
<path d="M81.353 74.3435H83.875C85.2913 74.3435 86.5152 73.5581 87.1728 72.4087C85.1903 72.3343 83.2669 71.8635 81.8086 71.3755C81.7209 72.2485 81.5646 73.2798 81.353 74.3435Z" fill="#252422"/>
<path d="M83.875 78.1561H81.9688V81.9686C81.9688 83.5451 82.9047 84.929 84.3554 85.4913L84.5994 85.5866C84.9863 85.7163 85.3828 85.7811 85.7813 85.7811C86.9841 85.7811 87.8324 85.2416 88.3318 84.7879C88.9494 84.2218 89.344 83.5317 89.5061 82.7749C87.6856 81.6884 86.3913 79.906 85.9547 77.832C85.2894 78.0227 84.6013 78.1561 83.875 78.1561Z" fill="#252422"/>
<path d="M83.4099 97.7832C83.3108 98.0653 83.244 98.3532 83.1106 98.6258C82.4606 99.9906 81.3797 101.117 80.0625 101.88V102.938C80.0625 105.04 81.7724 106.75 83.875 106.75C85.9776 106.75 87.6875 105.04 87.6875 102.938V102.736C86.7592 101.762 86.1492 100.473 85.9071 98.8888C85.0035 98.6677 84.1552 98.2998 83.4099 97.7832Z" fill="#252422"/>
<path d="M69.3799 98.6084C69.1568 98.1509 68.9986 97.6686 68.8747 97.1787C68.787 97.1844 68.7051 97.1997 68.6174 97.2016C68.6136 97.4723 68.6078 97.6229 68.6021 97.7125C68.442 100.252 67.0352 102.476 64.9116 103.74C65.1137 104.705 65.6665 105.547 66.5205 106.115C67.7863 106.931 69.4428 106.948 70.7581 106.098C70.9678 105.959 71.1775 105.772 71.3738 105.574C71.7703 105.164 72.0582 104.686 72.2107 104.169C72.2831 103.866 72.4375 103.237 72.4375 102.937V101.88C71.126 101.125 70.0394 99.9942 69.3799 98.6084Z" fill="#252422"/>
<path d="M77.8932 98.7456C78.6804 98.372 79.3076 97.7448 79.6755 96.9709C79.9347 96.439 80.0625 95.8881 80.0625 95.3124V93.1298C79.4467 93.2937 78.8101 93.4062 78.1562 93.4062C77.1897 93.4062 76.2462 93.2174 75.3636 92.8667C74.7154 94.1534 73.7337 95.2343 72.5156 96.0025C72.5766 96.3304 72.6681 96.6487 72.8168 96.9537C73.1923 97.7429 73.8195 98.3701 74.5915 98.738C75.6571 99.2546 76.8581 99.2469 77.8932 98.7456Z" fill="#252422"/>
<path d="M76.25 102.938C76.25 103.698 76.0403 104.556 75.9259 105.013L75.8668 105.25C75.5771 106.233 75.0433 107.12 74.3438 107.92V108.656C74.3438 109.737 74.7974 110.761 75.5885 111.46C76.1051 111.929 76.9534 112.469 78.1563 112.469C79.7118 112.469 81.048 111.529 81.6409 110.191C78.5318 109.228 76.25 106.359 76.25 102.938Z" fill="#252422"/>
<path d="M93.4063 83.875C93.3148 83.875 93.231 83.8541 93.1414 83.8522C92.8726 84.893 92.3865 85.8575 91.7117 86.6963C92.0967 87.9163 92.9679 88.9628 94.043 89.3574C94.4567 89.5214 94.8646 89.5938 95.3126 89.5938C97.4152 89.5938 99.1251 87.8 99.1251 85.5945C99.1251 84.3726 98.5818 83.2498 97.7125 82.5063C96.4601 83.3794 94.9714 83.875 93.4063 83.875Z" fill="#252422"/>
<path d="M94.9522 93.7397C94.2088 96.2217 92.2797 98.1184 89.7729 98.8104C90.1694 100.377 91.2789 101.031 93.4063 101.031C95.5089 101.031 97.2188 99.3212 97.2188 97.2186C97.2188 95.667 96.2847 94.3345 94.9522 93.7397Z" fill="#252422"/>
<path d="M91.4218 92.2817C90.2057 91.5249 89.2068 90.4002 88.5472 89.062C87.6665 89.4128 86.7344 89.5939 85.7813 89.5939C85.4877 89.5939 85.1979 89.5481 84.9082 89.5138C84.6356 89.8817 84.3001 90.3182 83.9798 90.6938C83.9379 90.9168 83.875 91.1246 83.875 91.3686C83.875 93.5417 85.5849 95.3126 87.6875 95.3126C89.5556 95.3126 91.0711 94.0316 91.4218 92.2817Z" fill="#252422"/>
<path d="M92.0796 79.8166C93.5035 80.358 94.9561 80.011 95.9874 79.0388C96.788 78.3049 97.2188 77.3213 97.2188 76.25C97.2188 74.1474 95.5089 72.4375 93.4063 72.4375H91.2294C90.9282 73.5984 90.362 74.6411 89.5957 75.5199C89.5976 75.9298 89.6014 76.3224 89.6071 76.4578C89.6967 77.9885 90.6651 79.2981 92.0796 79.8166Z" fill="#252422"/>
<path d="M56.0495 72.5347C54.2862 74.4771 53.375 76.3281 53.375 78.1562C53.375 80.2588 55.0849 81.9687 57.1875 81.9687C59.1833 81.9687 60.8056 80.4227 60.9676 78.4707C60.5825 77.4928 59.8944 75.293 60.2566 72.7253C59.0728 72.7768 57.6126 72.7386 56.0495 72.5347Z" fill="#252422"/>
<path d="M58.3522 106.923C58.2588 107 58.1521 107.089 58.0682 107.148C57.6069 107.486 57.1055 107.775 56.5661 108.016C55.7368 108.378 54.8333 108.559 53.924 108.61C53.6266 109.104 53.375 109.741 53.375 110.543C53.375 112.646 55.0849 114.356 57.1875 114.356C59.2901 114.356 61 112.646 61 110.543C61 108.837 59.9077 107.415 58.3522 106.923Z" fill="#252422"/>
<path d="M68.625 110.563C67.2982 110.563 65.9925 110.191 64.8125 109.518V112.469C64.8125 114.572 66.5224 116.281 68.625 116.281C70.3787 116.281 71.8466 115.084 72.2869 113.468C71.5187 112.539 70.9563 111.453 70.7009 110.262C70.0223 110.458 69.3265 110.563 68.625 110.563Z" fill="#252422"/>
<path d="M55.733 85.6345C55.489 86.1149 55.3289 86.641 55.2946 87.1862L55.2812 87.5008C55.2812 88.6483 55.7426 89.7273 56.5489 90.4631C56.9302 90.8272 57.3305 91.0788 57.7765 91.2446C59.1891 91.7936 60.634 91.441 61.6538 90.4459L61.8616 90.2324C62.5345 89.4928 62.9062 88.5225 62.9062 87.5008C62.9062 87.0261 62.8243 86.5552 62.6584 86.1054C62.4202 85.4325 62.0103 84.872 61.5013 84.4336C60.2737 85.28 58.7887 85.7813 57.1875 85.7813C56.69 85.7813 56.2058 85.726 55.733 85.6345Z" fill="#252422"/>
<path d="M55.0296 104.527C55.3098 104.403 55.5843 104.243 55.8569 104.045C55.9751 103.961 56.0628 103.885 56.1524 103.81C56.1619 103.795 56.2668 103.692 56.3697 103.576L56.5394 103.385C54.8009 102.148 53.6647 100.215 53.436 98.0249C52.4447 98.6139 51.3258 98.9723 50.1458 99.0638C49.8294 99.5556 49.5625 100.204 49.5625 101.031C49.5625 103.042 51.1161 104.674 53.1787 104.83L53.4817 104.844C54.0193 104.844 54.555 104.733 55.0296 104.527Z" fill="#252422"/>
<path d="M52.3666 94.0696C52.704 93.7017 52.9976 93.0574 53.1844 92.3845C52.7974 91.8984 52.4562 91.3761 52.195 90.8042C50.6414 91.4866 49.1317 91.5 47.6562 91.5C47.0138 91.5 46.3752 91.4047 45.75 91.2426V91.5C45.75 93.5244 47.2674 95.1562 49.2785 95.2991L49.5625 95.3125C50.6452 95.3125 51.667 94.8588 52.3666 94.0696Z" fill="#252422"/>
<path d="M66.7284 92.9886C67.7158 93.4918 68.8596 93.5204 69.7098 93.1754C70.9431 92.7179 71.8314 91.7133 72.2127 90.4895C71.4883 89.5745 70.9698 88.5375 70.7201 87.4242C70.0815 87.5901 69.4295 87.6873 68.7719 87.6873C68.0742 87.6873 67.3822 87.5844 66.7093 87.4014C66.7093 87.4357 66.7188 87.4681 66.7188 87.5005C66.7188 89.0751 66.2366 90.5772 65.3826 91.8582C65.7543 92.3386 66.2061 92.7293 66.7284 92.9886Z" fill="#252422"/>
<path d="M66.8198 77.4663L64.8125 79.0733V80.0626C64.8125 81.3513 65.4511 82.5064 66.5643 83.2289C67.8892 84.0639 69.6277 84.0772 71.0021 83.2137C71.0383 83.1908 71.0669 83.1641 71.1012 83.1412L71.0955 83.1393C68.7889 82.0756 67.2125 79.954 66.8198 77.4663Z" fill="#252422"/>
<path d="M72.5595 72.874L70.5312 74.4962V76.25C70.5312 77.8265 71.4672 79.2104 72.9179 79.7727L73.1619 79.8681C73.5488 79.9977 73.9453 80.0625 74.3438 80.0625C75.3121 80.0625 76.0632 79.9214 76.6408 79.6279L76.3491 78.7624C75.9431 77.5615 74.5649 74.4962 72.5595 72.874Z" fill="#252422"/>
<path d="M64.8144 96.2713C63.9528 95.8081 63.196 95.1733 62.5631 94.4165C61.4975 94.9827 60.3214 95.3124 59.0938 95.3124C58.4475 95.3124 57.8128 95.1962 57.1875 95.0284V97.2187C57.1875 98.7952 58.1235 100.179 59.5741 100.741C60.5044 101.123 61.4899 101.104 62.2352 100.818C63.7259 100.293 64.7096 98.9801 64.7973 97.4532L64.8201 97.253C64.8163 97.1844 64.8144 96.725 64.8144 96.2713Z" fill="#252422"/>
</svg>
