<svg width="202" height="202" viewBox="0 0 202 202" fill="none" xmlns="http://www.w3.org/2000/svg">
<g clip-path="url(#clip0)">
<path d="M52.0355 53.7112L59.2279 55.9084C67.0344 58.2659 75.3634 58.2659 83.1699 55.9084C91.7224 53.3011 100.831 53.1199 109.48 55.385L112.148 56.0829C120.692 58.3124 129.726 57.733 137.915 54.4303L145.217 51.4579C147.315 50.7708 148.963 49.1281 149.656 47.0319C150.261 43.9135 149.439 40.6877 147.414 38.2395C138.016 25.0124 118.169 10.7772 96.8044 10.7772C74.9135 10.7772 58.5549 18.3978 58.5549 25.2113C58.5549 32.0248 74.9131 39.6454 96.8044 39.6454C97.1616 39.6619 97.5144 39.7334 97.8503 39.8565C98.1862 39.7334 98.5386 39.6619 98.8962 39.6454C107.611 39.6454 114.123 35.8358 114.123 32.4281C114.123 29.0204 107.611 25.2109 98.8962 25.2109C94.4718 25.0743 90.1046 26.2402 86.3365 28.5641C84.7124 29.7151 82.4631 29.333 81.3102 27.71C80.1573 26.0875 80.5362 23.8378 82.1572 22.6825C87.1401 19.4753 92.9724 17.8417 98.8962 17.9941C111.482 17.9941 121.34 24.3339 121.34 32.4281C121.34 40.5224 111.482 46.8622 98.8962 46.8622C98.539 46.8456 98.1862 46.7742 97.8503 46.651C97.5144 46.7742 97.162 46.8456 96.8044 46.8622C77.3677 46.8622 61.5151 41.6275 54.8003 33.804L47.9762 41.3082C46.2553 43.1143 45.6025 45.6876 46.2545 48.0952C47.0885 50.8367 49.2715 52.9573 52.0355 53.7112Z" fill="#252422"/>
<path d="M22.2087 72.9364C24.874 74.7808 28.0438 75.7569 31.2849 75.7308H37.9539C44.0404 75.7269 50.0767 76.8332 55.7661 78.9956L69.5095 84.2694C79.0723 87.8528 89.5907 87.959 99.2238 84.569L119.82 77.1706C129.301 73.7913 139.577 73.3303 149.323 75.8472L160.034 78.6258C168.688 81.02 177.953 78.3255 183.974 71.6624C184.035 71.5866 184.312 71.2977 184.381 71.227C186.541 68.583 187.543 65.1797 187.16 61.7869C186.777 58.3942 185.042 55.2995 182.347 53.2037C177.153 48.8164 170.844 45.9553 164.121 44.9382L157.062 43.7983C157.227 45.563 157.065 47.343 156.585 49.0488C155.272 53.2594 152.076 56.6201 147.937 58.1424L140.637 61.1148C131.002 65.0001 120.373 65.6833 110.32 63.0634L107.652 62.3655C100.297 60.4363 92.5505 60.5906 85.278 62.8115C76.0964 65.5815 66.3015 65.5815 57.1195 62.8115L49.9271 60.6143C44.7931 59.1445 40.7763 55.1377 39.2935 50.0071C38.7409 47.9942 38.6399 45.8843 38.9979 43.8279L25.7791 45.6956C22.0808 46.1061 18.7686 48.1719 16.7735 51.3128C12.5069 58.8134 14.9019 68.345 22.2087 72.9364Z" fill="#252422"/>
<path d="M7.04283 98.8566C12.0498 104.233 19.674 106.302 26.712 104.195C26.8071 104.169 26.9023 104.146 26.9993 104.127C34.5931 101.987 42.7438 103.291 49.2904 107.695L52.6946 109.969C57.5571 113.185 63.5844 114.109 69.187 112.498C69.2856 112.47 69.3859 112.445 69.4865 112.425C77.4106 110.171 85.9315 111.708 92.5686 116.589C97.7753 120.338 100.9 126.329 100.995 132.745V140.684C101.044 142.602 101.939 144.399 103.439 145.595C105.293 147.112 107.622 147.928 110.018 147.901C114.484 148.338 118.486 145.137 119.041 140.684V122.642C119.65 116.498 124.818 111.817 130.991 111.817C137.165 111.817 142.333 116.498 142.941 122.642V129.859C142.965 130.772 143.397 131.627 144.119 132.188C145.108 133.034 146.373 133.489 147.674 133.467C149.957 133.703 152.029 132.122 152.407 129.859V112.825C152.572 108.85 155.917 105.754 159.894 105.897C160.624 105.891 161.352 105.986 162.056 106.181C172.368 109.215 183.512 106.245 190.947 98.4828C193.679 95.4338 195.06 91.4092 194.776 87.3258C194.363 83.1781 192.338 79.3583 189.136 76.6894C181.305 85.1941 169.393 88.6346 158.234 85.6133L147.509 82.8311C139.17 80.6765 130.376 81.07 122.263 83.9607L101.666 91.3595C96.2565 93.2844 90.5557 94.262 84.8142 94.249C78.7076 94.2604 72.6499 93.1628 66.9353 91.0106L53.1951 85.7388C48.327 83.8901 43.1629 82.9444 37.9554 82.948H31.2845C26.5431 82.9705 21.911 81.5267 18.0218 78.8144C15.9797 77.3616 14.1547 75.6257 12.6008 73.6594C12.1899 74.5514 11.4313 75.2362 10.5019 75.5527L8.86667 76.9554C5.65077 79.4716 3.60314 83.1927 3.19898 87.256C2.79482 91.3192 4.06966 95.3707 6.72747 98.471L7.04283 98.8566Z" fill="#252422"/>
<path d="M201.093 121.958L197.224 102.163C196.953 102.512 196.696 102.869 196.403 103.207C187.11 113.064 173.083 116.892 160.072 113.122C159.921 113.12 159.77 113.135 159.623 113.168V129.859C159.291 136.138 153.955 140.973 147.673 140.685C144.635 140.72 141.689 139.638 139.395 137.645C137.087 135.715 135.743 132.868 135.723 129.859V122.642C135.138 120.51 133.2 119.033 130.99 119.033C128.78 119.033 126.842 120.51 126.258 122.642V140.684C125.721 149.136 118.474 155.578 110.017 155.119C105.897 155.158 101.898 153.724 98.7424 151.075C95.6291 148.518 93.8104 144.712 93.7768 140.684V132.745C93.6991 128.591 91.6345 124.726 88.2252 122.352C83.3228 118.779 77.0331 117.7 71.2201 119.435C71.1234 119.463 71.0243 119.485 70.9257 119.505C63.3319 121.645 55.1813 120.34 48.6346 115.937L45.2304 113.663C40.3691 110.444 34.3406 109.52 28.7381 111.134C28.637 111.164 28.5348 111.189 28.4314 111.209C19.5924 113.705 10.0907 111.471 3.2899 105.297L0.496709 124.357C-1.63025 139.714 3.1265 155.228 13.4969 166.754C27.9961 182.761 48.7321 191.683 70.3246 191.205H131.67C153.726 191.614 174.841 182.28 189.382 165.693C199.728 153.651 204.037 137.559 201.093 121.958Z" fill="#252422"/>
</g>
<defs>
<clipPath id="clip0">
<rect width="202" height="202" fill="white"/>
</clipPath>
</defs>
</svg>
