<svg width="127" height="127" viewBox="0 0 127 127" fill="none" xmlns="http://www.w3.org/2000/svg">
<g clip-path="url(#clip0)">
<path d="M37.8201 103.547C32.6293 103.547 28.4065 99.3256 28.4065 94.1337C28.4065 88.9429 32.6293 84.7212 37.8201 84.7212C43.0098 84.7212 47.2326 88.9429 47.2326 94.1337C47.2326 99.3256 43.0098 103.547 37.8201 103.547ZM37.8201 89.428C35.2241 89.428 33.1133 91.54 33.1133 94.1337C33.1133 96.7285 35.2241 98.8405 37.8201 98.8405C40.4149 98.8405 42.5258 96.7285 42.5258 94.1337C42.5258 91.54 40.4149 89.428 37.8201 89.428Z" fill="#252422"/>
<path d="M11.9348 103.547C6.74405 103.547 2.52124 99.3256 2.52124 94.1337C2.52124 88.9429 6.74405 84.7212 11.9348 84.7212C17.1245 84.7212 21.3473 88.9429 21.3473 94.1337C21.3473 99.3256 17.1245 103.547 11.9348 103.547ZM11.9348 89.428C9.33888 89.428 7.22804 91.54 7.22804 94.1337C7.22804 96.7285 9.33888 98.8405 11.9348 98.8405C14.5297 98.8405 16.6405 96.7285 16.6405 94.1337C16.6405 91.54 14.5297 89.428 11.9348 89.428Z" fill="#252422"/>
<path d="M11.9351 98.8408H37.8202V103.547H11.9351V98.8408Z" fill="#252422"/>
<path d="M43.0979 94.9416L55.623 80.4624L59.1825 83.5412L46.6573 98.0215L43.0979 94.9416Z" fill="#252422"/>
<path d="M76.129 63.956L72.5662 60.8771L117.763 8.61944C117.473 6.90008 116.25 5.46841 114.543 4.92575C112.065 4.14504 109.42 5.52143 108.634 7.99442L104.149 6.57178C105.718 1.62467 111.033 -1.12698 115.963 0.44007C119.897 1.68672 122.537 5.29579 122.535 9.42158C122.535 9.98567 122.331 10.5306 121.963 10.9582L76.129 63.956Z" fill="#252422"/>
<path d="M63.6016 51.8672L109.015 0.796387L112.532 3.92373L67.1193 54.9946L63.6016 51.8672Z" fill="#252422"/>
<path d="M33.7078 85.5133L46.5341 71.0747L50.0518 74.1998L37.2255 88.6383L33.7078 85.5133Z" fill="#252422"/>
<path d="M7.82397 85.5145L33.0085 57.1631L36.5274 60.2893L11.3428 88.6395L7.82397 85.5145Z" fill="#252422"/>
<path d="M60.641 48.6139L57.2147 45.3873L89.6366 10.9358C91.0559 9.45895 91.0107 7.13037 89.5509 5.72803C88.9213 5.12107 88.0921 4.75892 87.2189 4.70928L85.9429 4.71041L53.0528 41.7105L49.5352 38.5831L83.1258 0.795591C83.5715 0.293548 84.2123 0.00585938 84.8835 0.00585938H87.3543C89.482 0.124319 91.3729 0.950153 92.8147 2.33444C96.144 5.53511 96.2478 10.85 93.046 14.1793L60.641 48.6139Z" fill="#252422"/>
<path d="M17.2759 87.809L39.7031 63.9907L43.1294 67.2173L20.7022 91.0345L17.2759 87.809Z" fill="#252422"/>
<path d="M89.5906 11.7715H100.311V16.4783H89.5906V11.7715Z" fill="#252422"/>
<path d="M115.476 127.079H101.356C96.1655 127.079 91.9438 122.858 91.9438 117.667V112.96C91.9438 109.068 95.1107 105.901 99.0029 105.901C102.896 105.901 106.063 109.068 106.063 112.96C106.063 116.853 102.896 120.02 99.0029 120.02H97.2813C98.0947 121.426 99.6167 122.372 101.356 122.372H115.476C117.215 122.372 118.736 121.426 119.551 120.02H117.829C113.936 120.02 110.769 116.853 110.769 112.96C110.769 109.068 113.936 105.901 117.829 105.901C121.721 105.901 124.888 109.068 124.888 112.96V117.667C124.888 122.858 120.666 127.079 115.476 127.079ZM117.829 110.607C116.53 110.607 115.476 111.661 115.476 112.96C115.476 114.259 116.53 115.313 117.829 115.313H120.182V112.96C120.182 111.661 119.128 110.607 117.829 110.607ZM96.6495 115.313H99.0029C100.301 115.313 101.356 114.259 101.356 112.96C101.356 111.661 100.301 110.607 99.0029 110.607C97.7044 110.607 96.6495 111.661 96.6495 112.96V115.313Z" fill="#252422"/>
<path d="M94.4045 124.006L12.0355 38.7332C10.4538 37.1503 9.58057 35.0463 9.58057 32.8102V30.5978C9.58057 26.7044 12.7474 23.5376 16.6408 23.5376H18.9942C19.6293 23.5376 20.2386 23.796 20.6819 24.2517L100.69 106.613L97.3164 109.894L17.9991 28.2444H16.6408C15.3434 28.2444 14.2874 29.3004 14.2874 30.5978V32.8102C14.2874 33.7894 14.6687 34.7112 15.3625 35.405L15.9514 35.9939L97.7914 120.739L94.4045 124.006Z" fill="#252422"/>
<path d="M112.819 117.933L29.0766 32.2416C28.6468 31.8027 28.4065 31.2127 28.4065 30.5978C28.4065 26.7044 31.5733 23.5376 35.4667 23.5376H37.8201C38.4474 23.5376 39.0476 23.7881 39.4898 24.2326L121.852 107.233L118.512 110.547L36.8397 28.2444H35.4667C34.4547 28.2444 33.5894 28.8863 33.2566 29.7866L116.183 114.642L112.819 117.933Z" fill="#252422"/>
</g>
<defs>
<clipPath id="clip0">
<rect width="127" height="127" fill="white"/>
</clipPath>
</defs>
</svg>
