<svg width="127" height="127" viewBox="0 0 127 127" fill="none" xmlns="http://www.w3.org/2000/svg">
<path d="M118.096 48.6814C112.462 40.773 105.166 36.2374 98.0765 36.2374C94.0366 36.2374 90.0921 37.7438 86.552 40.6088C83.0116 37.7438 79.0662 36.2374 75.0248 36.2374C74.3382 36.2374 73.6533 36.2838 72.9722 36.3696L75.6258 16.3012C75.7582 15.2991 75.2721 14.3165 74.3952 13.814L64.7378 8.28081C64.0931 7.91147 63.3169 7.84897 62.6217 8.11115C61.9264 8.37309 61.3844 8.93219 61.1438 9.63515L52.0415 36.2384C52.0196 36.2384 51.9973 36.2374 51.9755 36.2374C47.9351 36.2374 43.9896 37.7433 40.4478 40.6075C36.9049 37.7436 32.9605 36.2374 28.9235 36.2374C21.8343 36.2374 14.5373 40.773 8.90389 48.6814C3.16235 56.7417 0 67.0277 0 77.6444C0 88.2601 3.16235 98.5453 8.90414 106.605C14.5378 114.514 21.8346 119.049 28.9235 119.049C32.9654 119.049 36.9104 117.542 40.4488 114.678C43.9889 117.542 47.9343 119.049 51.9752 119.049C56.0144 119.049 59.9601 117.547 63.4998 114.683C67.0396 117.547 70.9853 119.049 75.0243 119.049C79.0647 119.049 83.0099 117.543 86.5515 114.679C90.0926 117.543 94.0373 119.049 98.0765 119.049C105.166 119.049 112.462 114.514 118.096 106.605C123.838 98.5453 127 88.2601 127 77.6444C127 67.0277 123.838 56.742 118.096 48.6814ZM28.9235 114.069C23.5459 114.069 17.5783 110.198 12.9604 103.716C7.81447 96.492 4.98029 87.2331 4.98029 77.6444C4.98029 68.0547 7.81447 58.7951 12.9604 51.5709C17.5786 45.0882 23.5461 41.2177 28.9235 41.2177C31.6359 41.2177 34.3473 42.2188 36.8707 44.1295C30.2977 51.8636 26.4334 64.1427 26.4334 77.6444C26.4334 91.1463 30.2982 103.424 36.8717 111.156C34.3518 113.067 31.6399 114.069 28.9235 114.069ZM61.0104 110.264C58.1906 112.755 55.0855 114.069 51.976 114.069C48.5862 114.069 45.2018 112.513 42.1883 109.57C35.5424 103.08 31.4139 90.8472 31.4139 77.6441C31.4139 64.4604 35.5305 52.2429 42.158 45.7443C42.161 45.7416 42.164 45.7394 42.167 45.7366C42.1762 45.728 42.1838 45.7183 42.1928 45.7096C45.206 42.7712 48.5889 41.218 51.9755 41.218C52.4708 41.218 52.9669 41.251 53.4578 41.3167C53.4583 41.3167 53.4588 41.3169 53.4593 41.3169C53.4623 41.3174 53.4653 41.3179 53.4682 41.3182C56.0928 41.664 58.6254 42.9114 61.0101 45.0242V110.264H61.0104ZM57.0339 37.0309L64.8796 14.1017L70.4694 17.3043L67.7446 37.9108C66.2794 38.6026 64.8605 39.502 63.5012 40.6028C61.4529 38.9387 59.2897 37.7461 57.0339 37.0309ZM84.8169 109.568C84.808 109.576 84.7985 109.583 84.7899 109.592C84.7871 109.595 84.7849 109.598 84.7822 109.601C81.7754 112.523 78.4024 114.068 75.0248 114.068C71.9152 114.068 68.8102 112.754 65.9904 110.263V45.0233C67.5583 43.6357 69.2056 42.612 70.9005 41.9785C70.9027 41.9777 70.9047 41.977 70.9069 41.9762C70.9087 41.9755 70.9104 41.975 70.9119 41.9745C72.2556 41.4725 73.6394 41.2177 75.0248 41.2177C78.4141 41.2177 81.7984 42.7735 84.8119 45.7163C91.4579 52.2059 95.5863 64.4401 95.5863 77.6444C95.5861 90.8435 91.4591 103.075 84.8169 109.568ZM114.04 103.716C109.421 110.198 103.454 114.069 98.0765 114.069C95.3624 114.069 92.651 113.068 90.1291 111.157C96.7023 103.423 100.567 91.1451 100.567 77.6444C100.567 70.4151 99.4194 63.3078 97.2493 57.0907C95.468 51.9887 93.0287 47.565 90.1258 44.1328C92.6482 42.2198 95.3609 41.2177 98.0765 41.2177C103.454 41.2177 109.422 45.0882 114.04 51.5709C119.186 58.7951 122.02 68.0547 122.02 77.6444C122.02 87.2331 119.186 96.492 114.04 103.716Z" fill="#252422"/>
<path d="M115.631 70.3691C115.384 69.0165 114.088 68.1195 112.733 68.3673C111.38 68.6149 110.484 69.9119 110.732 71.265C111.505 75.4982 111.505 79.7899 110.732 84.0216C110.484 85.3744 111.38 86.6719 112.733 86.9192C112.885 86.9468 113.035 86.9604 113.184 86.9604C114.364 86.9604 115.411 86.1193 115.631 84.9178C116.514 80.0913 116.514 75.1965 115.631 70.3691Z" fill="#252422"/>
<path d="M111.229 60.7607C108.024 60.7607 108.019 65.741 111.229 65.741C114.433 65.7413 114.438 60.7607 111.229 60.7607Z" fill="#252422"/>
</svg>
