<svg width="157" height="134" viewBox="0 0 157 134" fill="none" xmlns="http://www.w3.org/2000/svg">
<path d="M31.3643 74.4673L31.3715 74.4695L32.7014 74.8758C32.7017 74.8759 32.702 74.876 32.7022 74.876C34.0526 75.2837 35.4934 75.2837 36.8437 74.876C38.5153 74.3665 40.2954 74.3312 41.9858 74.7738C41.9859 74.7739 41.9859 74.7739 41.986 74.7739L42.4794 74.9029L31.3643 74.4673ZM31.3643 74.4673L31.357 74.4653M31.3643 74.4673L31.357 74.4653M31.357 74.4653C31.0137 74.3717 30.742 74.1096 30.636 73.7701C30.5643 73.4953 30.6397 73.2026 30.836 72.9966L30.8361 72.9967L30.8439 72.9881L31.752 71.9895C32.4562 72.6215 33.4393 73.1269 34.5912 73.4911C35.9863 73.9322 37.6713 74.1799 39.5128 74.1799H39.5244L39.536 74.1793C39.5934 74.1767 39.6504 74.1697 39.7065 74.1586C39.7625 74.1697 39.8195 74.1767 39.8769 74.1793L39.8885 74.1799H39.9001C41.1433 74.1799 42.2798 73.8676 43.1216 73.3263C43.9613 72.7863 44.5548 71.9799 44.5548 71.0079C44.5548 70.0359 43.9613 69.2295 43.1216 68.6895C42.2813 68.1491 41.1472 67.837 39.9065 67.8359C38.7118 67.8065 37.5358 68.1366 36.5308 68.7834L36.5209 68.7898L36.5112 68.7967C35.9865 69.1706 35.8639 69.8989 36.237 70.4241C36.6066 70.9444 37.3244 71.0707 37.8489 70.7112C38.4605 70.3371 39.1679 70.1495 39.8846 70.1716L39.8924 70.1719H39.9001C40.6385 70.1719 41.264 70.3341 41.6882 70.5493C41.901 70.6572 42.0465 70.7699 42.1323 70.866C42.2115 70.9547 42.2182 71.0031 42.2188 71.0079C42.2182 71.0127 42.2115 71.0611 42.1323 71.1498C42.0465 71.2459 41.901 71.3586 41.6882 71.4666C41.264 71.6817 40.6385 71.8439 39.9001 71.8439H39.8885L39.8769 71.8445C39.8195 71.8471 39.7625 71.8541 39.7064 71.8652C39.6504 71.8541 39.5934 71.8471 39.536 71.8445L39.5244 71.8439H39.5128C37.5397 71.8439 35.8347 71.4998 34.6402 71.0173C34.041 70.7753 33.5918 70.5072 33.3015 70.2484C33.0026 69.9818 32.9323 69.782 32.9323 69.672C32.9323 69.562 33.0026 69.3622 33.3016 69.0955C33.5918 68.8367 34.041 68.5686 34.6402 68.3266C35.8348 67.8442 37.5397 67.5 39.5128 67.5C43.2648 67.5 46.8014 70.0194 48.4739 72.3733L48.4845 72.3882L48.4962 72.4023C48.7685 72.7317 48.8833 73.1629 48.8116 73.583C48.728 73.8066 48.547 73.9808 48.3191 74.0554L48.3024 74.0609M31.357 74.4653L48.3024 74.0609M48.3024 74.0609L48.2862 74.0675M48.3024 74.0609L48.2862 74.0675M48.2862 74.0675L46.9361 74.6171C46.9358 74.6172 46.9356 74.6173 46.9353 74.6174M48.2862 74.0675L46.9353 74.6174M46.9353 74.6174C45.5193 75.1884 43.957 75.2885 42.4797 74.903L46.9353 74.6174Z" fill="#FFFCF2" stroke="#252422"/>
<path d="M25.9799 78.0892L25.989 78.0955C26.3977 78.3783 26.8837 78.528 27.3806 78.524L27.3847 78.5239V78.524H28.6189H28.6192V79.024C29.7459 79.0232 30.8633 79.228 31.9165 79.6283L25.9799 78.0892ZM25.9799 78.0892L25.9705 78.0833C24.8481 77.378 24.4778 75.9161 25.1269 74.7618C25.4156 74.314 25.8906 74.0198 26.4206 73.961L26.428 73.9601L26.4354 73.9591L28.2763 73.699M25.9799 78.0892L28.2763 73.699M28.2763 73.699C28.2862 73.9335 28.3225 74.1668 28.385 74.3945L28.385 74.3945L28.3868 74.401C28.7087 75.5146 29.5798 76.3846 30.6936 76.7051L32.0209 77.1106L32.0226 77.1111C33.8165 77.6523 35.7302 77.6523 37.524 77.1111L37.5256 77.1106C38.7831 76.7266 40.1227 76.6999 41.3945 77.0335L41.3948 77.0336L41.8886 77.1628L41.8891 77.1629C43.8538 77.6749 45.9313 77.5414 47.8143 76.782L47.8158 76.7814L49.1596 76.2343C50.0677 75.8974 50.7686 75.1585 51.0569 74.2335L51.057 74.2336L51.0608 74.2204C51.109 74.0493 51.1426 73.8749 51.1614 73.699L51.8949 73.8174L51.8948 73.8174L51.8998 73.8182C53.0528 73.9926 54.1349 74.4833 55.0259 75.2358L55.0336 75.2424L55.0416 75.2486C55.4341 75.5538 55.6868 76.0046 55.7426 76.4988C55.7976 76.9866 55.6561 77.476 55.3498 77.859C55.331 77.8785 55.2993 77.912 55.2766 77.9378C54.289 79.0293 52.7701 79.4705 51.3512 79.078L51.3513 79.0779L51.3435 79.0759L49.3607 78.5615L49.3602 78.5614C47.4594 78.0705 45.4551 78.1604 43.6059 78.8195L43.6047 78.8199L39.7952 80.1884C39.7947 80.1886 39.7942 80.1887 39.7937 80.1889C38.1222 80.7768 36.2972 80.7584 34.6378 80.1371L28.2763 73.699Z" fill="#FFFCF2" stroke="#252422"/>
<path d="M37.2936 82.9521C36.103 82.9542 34.9219 82.7401 33.8078 82.3205L33.8049 82.3194L33.8049 82.3194L31.263 81.3441C31.2627 81.344 31.2624 81.3439 31.2621 81.3438C30.4181 81.0234 29.5227 80.8595 28.6198 80.8601L28.6194 80.8601L27.3857 80.8601C26.4053 80.8645 25.4476 80.5658 24.6434 80.005L24.6395 80.0023L24.6396 80.0023C24.3754 79.8144 24.1291 79.6033 23.9034 79.3717C23.87 79.3909 23.8356 79.4085 23.8002 79.4243L23.5602 79.6303L23.5516 79.6376L23.5428 79.6446C23.0549 80.0262 22.7443 80.5907 22.683 81.207C22.6217 81.8233 22.8151 82.4379 23.2183 82.9082L23.2258 82.917L23.2257 82.9171L23.2735 82.9755C24.0709 83.8231 25.279 84.1482 26.3947 83.8143L26.4041 83.8115L26.4042 83.8116C26.4263 83.8054 26.449 83.7997 26.4724 83.7946C28.0144 83.3654 29.6674 83.6323 30.9962 84.5258C30.9964 84.5259 30.9966 84.5261 30.9968 84.5262L31.6237 84.9451C31.624 84.9453 31.6243 84.9455 31.6246 84.9457C32.4025 85.4598 33.3665 85.6074 34.2626 85.3496L34.2642 85.3492C34.2864 85.3429 34.3111 85.3365 34.3376 85.3308C35.9472 84.8789 37.6755 85.1931 39.0233 86.1832C40.1143 86.9697 40.7691 88.2259 40.7889 89.5708L40.789 89.5782H40.7889V91.0405C40.7959 91.2458 40.8923 91.4379 41.053 91.566L41.0579 91.5699L41.0579 91.5699C41.3104 91.7764 41.6275 91.8876 41.9537 91.884L41.9808 91.8836L42.0079 91.8863C42.5557 91.9398 43.0474 91.5548 43.1296 91.0138V87.7079V87.6832L43.1321 87.6586C43.2701 86.2656 44.4418 85.2041 45.8417 85.2041C47.2416 85.2041 48.4134 86.2656 48.5514 87.6586L48.5538 87.6832V87.7079V89.0341C48.5552 89.0523 48.5643 89.0692 48.5789 89.0806L48.5879 89.0876L48.5967 89.0951C48.6871 89.1724 48.8027 89.214 48.9217 89.212L48.9515 89.2115L48.9812 89.2146C49.1305 89.23 49.2671 89.1345 49.3061 88.9926V85.8908V85.8805L49.3065 85.8701C49.3482 84.863 50.1927 84.078 51.1988 84.1082C51.3767 84.1077 51.5539 84.1315 51.7254 84.1789L51.7334 84.1811L51.7334 84.1811C53.4603 84.6892 55.3263 84.1936 56.5735 82.8961C56.9837 82.4349 57.1918 81.8284 57.1509 81.2126C57.1014 80.7301 56.9099 80.2767 56.6053 79.9076C55.0394 81.3476 52.8334 81.8981 50.7567 81.3368C50.7558 81.3365 50.755 81.3363 50.7541 81.3361L48.7743 80.8225C48.7742 80.8225 48.7741 80.8225 48.774 80.8225C47.3273 80.4487 45.8018 80.517 44.3943 81.0184C44.3941 81.0184 44.394 81.0185 44.3938 81.0185L40.5822 82.3877L40.5808 82.3882C39.5256 82.7637 38.4136 82.9545 37.2936 82.9521ZM37.2936 82.9521C37.2932 82.9521 37.2929 82.9521 37.2925 82.9521L37.2937 82.4521L37.2946 82.9521C37.2943 82.9521 37.2939 82.9521 37.2936 82.9521ZM34.4008 85.8302C34.4191 85.825 34.4377 85.8204 34.4563 85.8168C35.9232 85.3995 37.5005 85.684 38.7291 86.5875C39.6929 87.2815 40.2715 88.3906 40.2889 89.5782V91.0479C40.2981 91.4028 40.4637 91.7356 40.7413 91.9569C41.0846 92.2377 41.5158 92.3889 41.9593 92.3839C42.786 92.4647 43.5267 91.8723 43.6296 91.0479V87.7079C43.7423 86.5707 44.6989 85.7041 45.8417 85.7041C46.9846 85.7041 47.9412 86.5707 48.0538 87.7079V89.044C48.0583 89.213 48.1383 89.3713 48.2718 89.4752C48.4549 89.6317 48.689 89.716 48.93 89.712C49.3526 89.7555 49.7362 89.463 49.8061 89.044V85.8908C49.8365 85.1549 50.4558 84.5818 51.192 84.6083C51.3272 84.6071 51.4619 84.6248 51.5922 84.6608C53.5012 85.2224 55.564 84.6728 56.9405 83.2358C57.4461 82.6714 57.7018 81.9264 57.6492 81.1705C57.5895 80.57 57.3471 80.0067 56.9608 79.5533L34.4008 85.8302ZM34.4008 85.8302C33.3637 86.1285 32.248 85.9574 31.3479 85.3621L34.4008 85.8302ZM56.8186 79.3981C56.751 79.3294 56.6798 79.2638 56.6051 79.2015M56.8186 79.3981L40.4131 81.9172L44.226 80.5475C45.7279 80.0124 47.3557 79.9396 48.8994 80.3384L50.8848 80.8535C52.9505 81.4128 55.1556 80.7759 56.6051 79.2015M56.8186 79.3981L56.6051 79.2015M56.8186 79.3981L56.6051 79.2015" fill="#FFFCF2" stroke="#252422"/>
<path d="M34.841 87.6129C34.8638 87.6079 34.8892 87.6018 34.916 87.594L34.916 87.594L34.9198 87.5929C35.8463 87.3164 36.8488 87.4884 37.6302 88.058L37.6301 88.0581L37.639 88.0643C38.1374 88.4112 38.4397 88.9756 38.4524 89.5826L38.4524 91.0474L38.4524 91.0515C38.4599 91.9445 38.8626 92.7882 39.5521 93.3554C40.2233 93.918 41.0722 94.2241 41.9477 94.2195C43.7802 94.3104 45.3477 92.9121 45.4641 91.0791L45.4651 91.0633V91.0475V87.7885C45.5283 87.6392 45.6755 87.5395 45.8412 87.5395C46.0068 87.5395 46.154 87.6392 46.2173 87.7885L46.2173 89.0435L46.2173 89.0469C46.2221 89.7493 46.5349 90.414 47.0727 90.8654C47.5857 91.3094 48.2425 91.5519 48.9209 91.5476C50.3519 91.6055 51.5651 90.5019 51.6408 89.0699L51.6415 89.0567V89.0435V86.5629C53.833 87.0128 56.1094 86.4141 57.7948 84.951L58.3269 87.6737C58.327 87.6741 58.3271 87.6746 58.3272 87.6751C58.8433 90.4123 58.0875 93.2357 56.2729 95.349C53.6781 98.3078 49.9111 99.9727 45.9763 99.8996V99.8995H45.9671H34.6111V99.8994L34.6 99.8996C30.7482 99.9849 27.0492 98.3935 24.4626 95.5382C22.6423 93.5147 21.8071 90.7915 22.1799 88.0955L22.5734 85.4104C23.8658 86.2437 25.4661 86.4974 26.9736 86.0773C26.9996 86.0718 27.026 86.0652 27.0528 86.0573C27.9483 85.7997 28.9117 85.9475 29.6889 86.4616C29.6892 86.4618 29.6895 86.462 29.6897 86.4622L30.3169 86.8813C30.3171 86.8814 30.3173 86.8816 30.3175 86.8817C31.6462 87.775 33.2991 88.042 34.841 87.6129Z" fill="#FFFCF2" stroke="#252422"/>
<path d="M9.8462 107.706L9.83898 107.703L9.83169 107.702C9.4848 107.607 9.21026 107.342 9.10311 106.999C9.03053 106.721 9.10687 106.425 9.30537 106.217L9.30547 106.217L9.3133 106.208L10.2302 105.2C10.9389 105.837 11.9295 106.346 13.0906 106.714C14.4952 107.158 16.1917 107.407 18.0459 107.407H18.0575L18.069 107.407C18.127 107.404 18.1844 107.397 18.2409 107.386C18.2974 107.397 18.3548 107.404 18.4127 107.407L18.4242 107.407H18.4358C19.6873 107.407 20.8311 107.093 21.6781 106.548C22.5231 106.005 23.1199 105.194 23.1199 104.216C23.1199 103.239 22.5231 102.428 21.6781 101.885C20.8326 101.341 19.6912 101.027 18.4422 101.026C17.2398 100.996 16.0562 101.328 15.0448 101.979L15.0348 101.986L15.0252 101.992C14.4983 102.368 14.3752 103.099 14.7499 103.626C15.121 104.149 15.8417 104.276 16.3683 103.915C16.9848 103.537 17.698 103.348 18.4204 103.371L18.4281 103.371H18.4358C19.18 103.371 19.8105 103.534 20.2382 103.751C20.4528 103.86 20.5996 103.974 20.6864 104.071C20.7683 104.163 20.774 104.212 20.7744 104.216C20.774 104.22 20.7683 104.27 20.6864 104.362C20.5996 104.459 20.4528 104.572 20.2382 104.681C19.8105 104.898 19.18 105.062 18.4358 105.062H18.4243L18.4127 105.062C18.3548 105.065 18.2973 105.072 18.2409 105.083C18.1843 105.072 18.1269 105.065 18.0691 105.062L18.0575 105.062H18.0459C16.0584 105.062 14.341 104.715 13.1376 104.229C12.5339 103.985 12.0812 103.715 11.7885 103.454C11.4871 103.185 11.4155 102.983 11.4155 102.871C11.4155 102.759 11.4871 102.557 11.7885 102.288C12.0812 102.027 12.534 101.757 13.1376 101.513C14.3411 101.027 16.0585 100.68 18.0459 100.68C21.8257 100.68 25.3882 103.218 27.0729 105.589L27.0835 105.604L27.0952 105.618C27.3702 105.951 27.486 106.386 27.4136 106.81C27.329 107.037 27.146 107.213 26.9153 107.289L26.8986 107.294L26.8824 107.301L25.5227 107.854C25.5224 107.854 25.5222 107.854 25.5219 107.855C24.0951 108.43 22.521 108.531 21.0324 108.142L20.5356 108.012C18.8338 107.567 17.0418 107.602 15.3591 108.115C13.9985 108.526 12.5468 108.526 11.1862 108.115C11.186 108.115 11.1857 108.115 11.1855 108.115L9.8462 107.706Z" fill="#252422" stroke="#FFFCF2"/>
<path d="M4.41555 111.35L4.42466 111.357C4.83681 111.642 5.32694 111.793 5.8281 111.789L5.83212 111.789V111.789H7.07502H7.07535V112.289C8.20998 112.288 9.33527 112.494 10.3959 112.897L4.41555 111.35ZM4.41555 111.35L4.40616 111.344C3.27419 110.633 2.90074 109.159 3.55542 107.995C3.84672 107.543 4.32608 107.246 4.86088 107.187L4.86828 107.186L4.87567 107.185L6.73345 106.922C6.74312 107.159 6.77969 107.395 6.8429 107.626L6.84286 107.626L6.84473 107.632C7.16852 108.752 8.04489 109.628 9.16535 109.95L10.5021 110.359L10.5038 110.359C12.3096 110.904 14.2361 110.904 16.0419 110.359L16.0435 110.359C17.3105 109.972 18.6601 109.945 19.9415 110.281L19.9419 110.281L20.4392 110.411L20.4396 110.411C22.4175 110.927 24.5088 110.792 26.4044 110.028L26.4059 110.027L27.7592 109.476C28.6727 109.137 29.3777 108.394 29.6677 107.464L29.6679 107.464L29.6716 107.45C29.7205 107.277 29.7544 107.1 29.7733 106.922L30.5156 107.042L30.5156 107.042L30.5205 107.043C31.6823 107.219 32.7726 107.713 33.6704 108.471L33.6781 108.478L33.686 108.484C34.082 108.792 34.3371 109.247 34.3933 109.745C34.4489 110.238 34.3061 110.731 33.9969 111.118C33.9781 111.138 33.9461 111.171 33.9233 111.197C32.9278 112.297 31.3968 112.742 29.9666 112.347L29.9666 112.346L29.9589 112.344L27.9621 111.826L27.9616 111.826C26.0481 111.332 24.0304 111.423 22.1688 112.086L22.1677 112.087L18.3312 113.465M4.41555 111.35L18.3312 113.465M18.3312 113.465C18.3308 113.465 18.3303 113.465 18.3298 113.465C16.6457 114.057 14.807 114.039 13.1351 113.413L18.3312 113.465Z" fill="#252422" stroke="#FFFCF2"/>
<path d="M15.8112 116.241C14.6127 116.243 13.4237 116.028 12.3021 115.605L12.2993 115.604L12.2993 115.604L9.73942 114.622C9.73915 114.622 9.73889 114.622 9.73863 114.622C8.88818 114.299 7.98604 114.134 7.07631 114.134H7.07597H5.83351C4.84695 114.139 3.88319 113.838 3.07396 113.274L3.0701 113.271L3.07011 113.271C2.80353 113.082 2.55499 112.868 2.32732 112.635C2.29293 112.655 2.25743 112.673 2.22094 112.689L1.97882 112.897L1.97026 112.904L1.96138 112.911C1.46935 113.296 1.15609 113.865 1.09425 114.487C1.03242 115.109 1.22744 115.728 1.63409 116.203L1.64164 116.212L1.64153 116.212L1.68975 116.271C2.49364 117.125 3.71176 117.453 4.83662 117.116L4.84604 117.114L4.84606 117.114C4.86836 117.107 4.89119 117.102 4.91467 117.097C6.46658 116.665 8.13024 116.933 9.46755 117.832C9.46773 117.833 9.46791 117.833 9.46809 117.833L10.0994 118.255C10.0998 118.255 10.1001 118.255 10.1004 118.255C10.8846 118.774 11.8565 118.922 12.7599 118.663L12.7615 118.662C12.7838 118.656 12.8086 118.649 12.8353 118.644C14.4552 118.189 16.1947 118.505 17.5511 119.501C18.6489 120.293 19.3077 121.557 19.3276 122.91L19.3277 122.917H19.3277V124.39C19.3347 124.598 19.4323 124.792 19.595 124.922L19.5998 124.926L19.5998 124.926C19.8548 125.134 20.1749 125.247 20.5042 125.243L20.5314 125.243L20.5584 125.245C21.112 125.299 21.609 124.91 21.6919 124.363V121.034V121.009L21.6944 120.985C21.8332 119.584 23.0117 118.516 24.4196 118.516C25.8276 118.516 27.0061 119.584 27.1449 120.985L27.1473 121.009V121.034V122.37C27.1488 122.389 27.1584 122.407 27.1739 122.419L27.1829 122.426L27.1917 122.434C27.2834 122.512 27.4007 122.554 27.5213 122.552L27.5512 122.552L27.5809 122.555C27.7331 122.57 27.8723 122.473 27.9119 122.328V119.204V119.194L27.9123 119.183C27.9542 118.171 28.8031 117.382 29.8144 117.412C29.9932 117.412 30.1714 117.436 30.3438 117.483L30.3518 117.486L30.3518 117.486C32.0922 117.998 33.9727 117.498 35.2295 116.191C35.6434 115.726 35.8532 115.114 35.812 114.493C35.762 114.005 35.5679 113.546 35.2594 113.174C33.6832 114.625 31.4615 115.18 29.3701 114.615C29.3693 114.614 29.3684 114.614 29.3675 114.614L27.3737 114.097C27.3736 114.097 27.3735 114.097 27.3734 114.097C25.9159 113.72 24.3789 113.789 22.9608 114.294C22.9606 114.294 22.9605 114.294 22.9603 114.294L19.1218 115.673L19.1204 115.674C18.0582 116.052 16.9387 116.244 15.8112 116.241ZM15.8112 116.241C15.8109 116.241 15.8105 116.241 15.8102 116.241L15.8113 115.741L15.8123 116.241C15.8119 116.241 15.8116 116.241 15.8112 116.241Z" fill="#252422" stroke="#FFFCF2"/>
<path d="M13.3407 120.935C13.3636 120.93 13.3892 120.924 13.4161 120.916L13.4161 120.916L13.4199 120.915C14.354 120.636 15.3647 120.81 16.1525 121.384L16.1524 121.384L16.1613 121.39C16.6641 121.74 16.9691 122.31 16.982 122.922L16.9819 124.397L16.982 124.402C16.9895 125.3 17.3946 126.148 18.0882 126.719C18.7634 127.285 19.6176 127.593 20.4984 127.588C22.342 127.68 23.9189 126.273 24.036 124.429L24.037 124.413V124.397V121.115C24.101 120.963 24.2508 120.861 24.4192 120.861C24.5877 120.861 24.7374 120.963 24.8015 121.115L24.8015 122.379L24.8015 122.383C24.8063 123.089 25.1209 123.758 25.6617 124.212C26.1777 124.658 26.8384 124.902 27.5207 124.898C28.9599 124.956 30.1801 123.846 30.2563 122.406L30.257 122.393V122.379V119.877C32.4661 120.332 34.7614 119.728 36.4594 118.251L36.9964 120.999C36.9965 121 36.9966 121 36.9967 121.001C37.5166 123.758 36.7552 126.603 34.9271 128.732C32.3134 131.712 28.5188 133.389 24.5553 133.316L24.5553 133.315H24.546H13.11V133.315L13.0989 133.316C9.21899 133.402 5.49292 131.798 2.8874 128.922C1.05356 126.884 0.212198 124.14 0.587784 121.424L0.984853 118.715C2.28631 119.556 3.89893 119.812 5.41791 119.389C5.44404 119.383 5.4706 119.377 5.49751 119.369C6.40035 119.109 7.3716 119.258 8.15508 119.776C8.15538 119.777 8.15567 119.777 8.15596 119.777L8.78757 120.199C8.78777 120.199 8.78797 120.199 8.78817 120.199C10.1254 121.098 11.7889 121.367 13.3407 120.935Z" fill="#252422" stroke="#FFFCF2"/>
<path d="M50.6022 107.347L50.595 107.345L50.5877 107.343C50.23 107.245 49.9469 106.972 49.8365 106.618C49.7614 106.331 49.8403 106.025 50.0455 105.809L50.0456 105.809L50.0534 105.801L50.9965 104.764C51.7192 105.416 52.7319 105.938 53.9209 106.314C55.3537 106.767 57.0847 107.021 58.9769 107.021H58.9885L59.0001 107.021C59.0594 107.018 59.1182 107.011 59.176 106.999C59.2339 107.011 59.2927 107.018 59.3519 107.021L59.3635 107.021H59.3751C60.6511 107.021 61.8169 106.701 62.6797 106.146C63.5405 105.592 64.1469 104.767 64.1469 103.774C64.1469 102.781 63.5405 101.956 62.6797 101.402C61.8184 100.848 60.655 100.528 59.3815 100.527C58.1559 100.497 56.9495 100.835 55.9185 101.499L55.9086 101.505L55.899 101.512C55.3658 101.892 55.2412 102.632 55.6203 103.166C55.996 103.694 56.7255 103.823 57.2585 103.457C57.8897 103.071 58.6199 102.877 59.3597 102.9L59.3674 102.9H59.3751C60.1363 102.9 60.7816 103.068 61.22 103.29C61.4399 103.402 61.591 103.518 61.6807 103.619C61.7247 103.668 61.7489 103.708 61.7614 103.735C61.7734 103.762 61.7732 103.774 61.7732 103.774C61.7732 103.774 61.7734 103.786 61.7614 103.813C61.7489 103.84 61.7247 103.88 61.6807 103.929C61.591 104.03 61.4399 104.147 61.22 104.258C60.7816 104.481 60.1363 104.648 59.3751 104.648H59.3635L59.3519 104.648C59.2926 104.651 59.2338 104.658 59.176 104.67C59.1182 104.658 59.0594 104.651 59.0001 104.648L58.9885 104.648H58.9769C56.9467 104.648 55.1919 104.294 53.9617 103.797C53.3448 103.548 52.8813 103.271 52.5813 103.004C52.2726 102.728 52.197 102.519 52.197 102.401C52.197 102.282 52.2726 102.073 52.5813 101.797C52.8814 101.53 53.3448 101.253 53.9618 101.004C55.1919 100.507 56.9467 100.153 58.9769 100.153C62.8403 100.153 66.4804 102.747 68.2019 105.17L68.2125 105.185L68.2242 105.199C68.5071 105.541 68.6262 105.989 68.5513 106.425C68.464 106.66 68.2745 106.843 68.0357 106.921L68.019 106.926L68.0028 106.933L66.6145 107.498C66.6143 107.498 66.6141 107.498 66.6138 107.498C65.155 108.087 63.5455 108.19 62.0235 107.793L61.5162 107.66C61.5161 107.66 61.5161 107.66 61.516 107.66C59.7805 107.205 57.953 107.242 56.2369 107.765C54.8457 108.185 53.3614 108.185 51.9701 107.765C51.97 107.765 51.9698 107.765 51.9696 107.764L50.6022 107.347Z" fill="#252422"/>
<path d="M50.6022 107.347L50.595 107.345L50.5877 107.343C50.23 107.245 49.9469 106.972 49.8365 106.618C49.7614 106.331 49.8403 106.025 50.0455 105.809L50.0456 105.809L50.0534 105.801L50.9965 104.764C51.7192 105.416 52.7319 105.938 53.9209 106.314C55.3537 106.767 57.0847 107.021 58.9769 107.021H58.9885L59.0001 107.021C59.0594 107.018 59.1182 107.011 59.176 106.999C59.2339 107.011 59.2927 107.018 59.3519 107.021L59.3635 107.021H59.3751C60.6511 107.021 61.8169 106.701 62.6797 106.146C63.5405 105.592 64.1469 104.767 64.1469 103.774C64.1469 102.781 63.5405 101.956 62.6797 101.402C61.8184 100.848 60.655 100.528 59.3815 100.527C58.1559 100.497 56.9495 100.835 55.9185 101.499L55.9086 101.505L55.899 101.512C55.3658 101.892 55.2412 102.632 55.6203 103.166C55.996 103.694 56.7255 103.823 57.2585 103.457C57.8897 103.071 58.6199 102.877 59.3597 102.9L59.3674 102.9H59.3751C60.1363 102.9 60.7816 103.068 61.22 103.29C61.4399 103.402 61.591 103.518 61.6807 103.619C61.7247 103.668 61.7489 103.708 61.7614 103.735C61.7734 103.762 61.7732 103.774 61.7732 103.774C61.7732 103.774 61.7734 103.786 61.7614 103.813C61.7489 103.84 61.7247 103.88 61.6807 103.929C61.591 104.03 61.4399 104.147 61.22 104.258C60.7816 104.481 60.1363 104.648 59.3751 104.648H59.3635L59.3519 104.648C59.2926 104.651 59.2338 104.658 59.176 104.67C59.1182 104.658 59.0594 104.651 59.0001 104.648L58.9885 104.648H58.9769C56.9467 104.648 55.1919 104.294 53.9617 103.797C53.3448 103.548 52.8813 103.271 52.5813 103.004C52.2726 102.728 52.197 102.519 52.197 102.401C52.197 102.282 52.2726 102.073 52.5813 101.797C52.8814 101.53 53.3448 101.253 53.9618 101.004C55.1919 100.507 56.9467 100.153 58.9769 100.153C62.8403 100.153 66.4804 102.747 68.2019 105.17L68.2125 105.185L68.2242 105.199C68.5071 105.541 68.6262 105.989 68.5513 106.425C68.464 106.66 68.2745 106.843 68.0357 106.921L68.019 106.926L68.0028 106.933L66.6145 107.498C66.6143 107.498 66.6141 107.498 66.6138 107.498C65.155 108.087 63.5455 108.19 62.0235 107.793L61.5162 107.66C61.5161 107.66 61.5161 107.66 61.516 107.66C59.7805 107.205 57.953 107.242 56.2369 107.765C54.8457 108.185 53.3614 108.185 51.9701 107.765C51.97 107.765 51.9698 107.765 51.9696 107.764L50.6022 107.347Z" fill="#FFFCF2"/>
<path d="M50.6022 107.347L50.595 107.345L50.5877 107.343C50.23 107.245 49.9469 106.972 49.8365 106.618C49.7614 106.331 49.8403 106.025 50.0455 105.809L50.0456 105.809L50.0534 105.801L50.9965 104.764C51.7192 105.416 52.7319 105.938 53.9209 106.314C55.3537 106.767 57.0847 107.021 58.9769 107.021H58.9885L59.0001 107.021C59.0594 107.018 59.1182 107.011 59.176 106.999C59.2339 107.011 59.2927 107.018 59.3519 107.021L59.3635 107.021H59.3751C60.6511 107.021 61.8169 106.701 62.6797 106.146C63.5405 105.592 64.1469 104.767 64.1469 103.774C64.1469 102.781 63.5405 101.956 62.6797 101.402C61.8184 100.848 60.655 100.528 59.3815 100.527C58.1559 100.497 56.9495 100.835 55.9185 101.499L55.9086 101.505L55.899 101.512C55.3658 101.892 55.2412 102.632 55.6203 103.166C55.996 103.694 56.7255 103.823 57.2585 103.457C57.8897 103.071 58.6199 102.877 59.3597 102.9L59.3674 102.9H59.3751C60.1363 102.9 60.7816 103.068 61.22 103.29C61.4399 103.402 61.591 103.518 61.6807 103.619C61.7247 103.668 61.7489 103.708 61.7614 103.735C61.7734 103.762 61.7732 103.774 61.7732 103.774C61.7732 103.774 61.7734 103.786 61.7614 103.813C61.7489 103.84 61.7247 103.88 61.6807 103.929C61.591 104.03 61.4399 104.147 61.22 104.258C60.7816 104.481 60.1363 104.648 59.3751 104.648H59.3635L59.3519 104.648C59.2926 104.651 59.2338 104.658 59.176 104.67C59.1182 104.658 59.0594 104.651 59.0001 104.648L58.9885 104.648H58.9769C56.9467 104.648 55.1919 104.294 53.9617 103.797C53.3448 103.548 52.8813 103.271 52.5813 103.004C52.2726 102.728 52.197 102.519 52.197 102.401C52.197 102.282 52.2726 102.073 52.5813 101.797C52.8814 101.53 53.3448 101.253 53.9618 101.004C55.1919 100.507 56.9467 100.153 58.9769 100.153C62.8403 100.153 66.4804 102.747 68.2019 105.17L68.2125 105.185L68.2242 105.199C68.5071 105.541 68.6262 105.989 68.5513 106.425C68.464 106.66 68.2745 106.843 68.0357 106.921L68.019 106.926L68.0028 106.933L66.6145 107.498C66.6143 107.498 66.6141 107.498 66.6138 107.498C65.155 108.087 63.5455 108.19 62.0235 107.793L61.5162 107.66C61.5161 107.66 61.5161 107.66 61.516 107.66C59.7805 107.205 57.953 107.242 56.2369 107.765C54.8457 108.185 53.3614 108.185 51.9701 107.765C51.97 107.765 51.9698 107.765 51.9696 107.764L50.6022 107.347Z" stroke="#252422"/>
<path d="M45.0554 111.066L45.0645 111.073C45.4871 111.365 45.9896 111.52 46.5034 111.516L46.5075 111.516V111.516H47.7764H47.7768V112.016C48.9352 112.015 50.0841 112.225 51.167 112.637L45.0554 111.066ZM45.0554 111.066L45.046 111.06C43.8855 110.331 43.5027 108.82 44.174 107.626C44.4731 107.162 44.9654 106.857 45.5147 106.796L45.5221 106.795L45.5295 106.794L47.4377 106.525C47.4468 106.77 47.4842 107.014 47.5496 107.252L47.5495 107.252L47.5514 107.259C47.881 108.399 48.7731 109.29 49.9136 109.618L51.2785 110.035L51.2801 110.035C53.1219 110.591 55.0866 110.591 56.9283 110.035L56.93 110.035C58.2254 109.639 59.6053 109.612 60.9155 109.956L60.9158 109.956L61.4236 110.088L61.424 110.089C63.4412 110.614 65.574 110.477 67.5073 109.698L67.5089 109.697L68.8907 109.134C69.8203 108.789 70.5379 108.033 70.833 107.086L70.8332 107.086L70.8369 107.073C70.8876 106.893 70.9226 106.71 70.9416 106.524L71.7103 106.649L71.7103 106.649L71.7152 106.649C72.9033 106.829 74.0184 107.335 74.9364 108.11L74.9441 108.117L74.9521 108.123C75.3586 108.439 75.6204 108.906 75.6782 109.418C75.7352 109.923 75.5885 110.43 75.2709 110.827C75.2517 110.847 75.2188 110.882 75.1955 110.908C74.1765 112.035 72.6094 112.49 71.1454 112.085L71.1454 112.085L71.1376 112.083L69.099 111.554L69.0985 111.554C67.1469 111.05 65.089 111.142 63.1904 111.819L63.1892 111.819L59.2723 113.226C59.2718 113.226 59.2713 113.227 59.2708 113.227C57.549 113.832 55.6692 113.813 53.96 113.173L45.0554 111.066Z" fill="#252422"/>
<path d="M45.0554 111.066L45.0645 111.073C45.4871 111.365 45.9896 111.52 46.5034 111.516L46.5075 111.516V111.516H47.7764H47.7768V112.016C48.9352 112.015 50.0841 112.225 51.167 112.637L45.0554 111.066ZM45.0554 111.066L45.046 111.06C43.8855 110.331 43.5027 108.82 44.174 107.626C44.4731 107.162 44.9654 106.857 45.5147 106.796L45.5221 106.795L45.5295 106.794L47.4377 106.525C47.4468 106.77 47.4842 107.014 47.5496 107.252L47.5495 107.252L47.5514 107.259C47.881 108.399 48.7731 109.29 49.9136 109.618L51.2785 110.035L51.2801 110.035C53.1219 110.591 55.0866 110.591 56.9283 110.035L56.93 110.035C58.2254 109.639 59.6053 109.612 60.9155 109.956L60.9158 109.956L61.4236 110.088L61.424 110.089C63.4412 110.614 65.574 110.477 67.5073 109.698L67.5089 109.697L68.8907 109.134C69.8203 108.789 70.5379 108.033 70.833 107.086L70.8332 107.086L70.8369 107.073C70.8876 106.893 70.9226 106.71 70.9416 106.524L71.7103 106.649L71.7103 106.649L71.7152 106.649C72.9033 106.829 74.0184 107.335 74.9364 108.11L74.9441 108.117L74.9521 108.123C75.3586 108.439 75.6204 108.906 75.6782 109.418C75.7352 109.923 75.5885 110.43 75.2709 110.827C75.2517 110.847 75.2188 110.882 75.1955 110.908C74.1765 112.035 72.6094 112.49 71.1454 112.085L71.1454 112.085L71.1376 112.083L69.099 111.554L69.0985 111.554C67.1469 111.05 65.089 111.142 63.1904 111.819L63.1892 111.819L59.2723 113.226C59.2718 113.226 59.2713 113.227 59.2708 113.227C57.549 113.832 55.6692 113.813 53.96 113.173L45.0554 111.066Z" fill="#FFFCF2"/>
<path d="M45.0554 111.066L45.0645 111.073C45.4871 111.365 45.9896 111.52 46.5034 111.516L46.5075 111.516V111.516H47.7764H47.7768V112.016C48.9352 112.015 50.0841 112.225 51.167 112.637L45.0554 111.066ZM45.0554 111.066L45.046 111.06C43.8855 110.331 43.5027 108.82 44.174 107.626C44.4731 107.162 44.9654 106.857 45.5147 106.796L45.5221 106.795L45.5295 106.794L47.4377 106.525C47.4468 106.77 47.4842 107.014 47.5496 107.252L47.5495 107.252L47.5514 107.259C47.881 108.399 48.7731 109.29 49.9136 109.618L51.2785 110.035L51.2801 110.035C53.1219 110.591 55.0866 110.591 56.9283 110.035L56.93 110.035C58.2254 109.639 59.6053 109.612 60.9155 109.956L60.9158 109.956L61.4236 110.088L61.424 110.089C63.4412 110.614 65.574 110.477 67.5073 109.698L67.5089 109.697L68.8907 109.134C69.8203 108.789 70.5379 108.033 70.833 107.086L70.8332 107.086L70.8369 107.073C70.8876 106.893 70.9226 106.71 70.9416 106.524L71.7103 106.649L71.7103 106.649L71.7152 106.649C72.9033 106.829 74.0184 107.335 74.9364 108.11L74.9441 108.117L74.9521 108.123C75.3586 108.439 75.6204 108.906 75.6782 109.418C75.7352 109.923 75.5885 110.43 75.2709 110.827C75.2517 110.847 75.2188 110.882 75.1955 110.908C74.1765 112.035 72.6094 112.49 71.1454 112.085L71.1454 112.085L71.1376 112.083L69.099 111.554L69.0985 111.554C67.1469 111.05 65.089 111.142 63.1904 111.819L63.1892 111.819L59.2723 113.226C59.2718 113.226 59.2713 113.227 59.2708 113.227C57.549 113.832 55.6692 113.813 53.96 113.173L45.0554 111.066Z" stroke="#252422"/>
<path d="M56.6961 116.04C55.4736 116.043 54.261 115.823 53.1171 115.392L53.1142 115.391L53.1142 115.391L50.5006 114.388C50.5004 114.388 50.5001 114.388 50.4998 114.388C49.6303 114.058 48.708 113.889 47.7779 113.889L47.7776 113.889H46.509C45.5039 113.894 44.5221 113.588 43.6976 113.013L43.6938 113.01L43.6938 113.01C43.4199 112.815 43.1647 112.596 42.9311 112.356C42.8937 112.378 42.855 112.398 42.8151 112.415L42.5667 112.628L42.5581 112.636L42.5493 112.643C42.0447 113.038 41.7234 113.621 41.66 114.259C41.5966 114.896 41.7966 115.532 42.2136 116.019L42.2212 116.027L42.221 116.027L42.2705 116.088C43.094 116.963 44.3419 117.299 45.4943 116.954L45.5037 116.952L45.5037 116.952C45.5264 116.945 45.5496 116.94 45.5735 116.934C47.1551 116.494 48.8506 116.768 50.2135 117.684C50.2137 117.684 50.2139 117.685 50.214 117.685L50.8587 118.115C50.859 118.116 50.8593 118.116 50.8596 118.116C51.6629 118.647 52.6583 118.799 53.5837 118.533L53.5853 118.533C53.608 118.526 53.6331 118.52 53.6603 118.514C55.3111 118.05 57.0839 118.372 58.4662 119.388C59.5844 120.194 60.2555 121.481 60.2758 122.86L60.2759 122.867H60.2758V124.371C60.283 124.586 60.3841 124.788 60.5527 124.922L60.5575 124.926L60.5575 124.926C60.8197 125.14 61.149 125.256 61.4876 125.252L61.5148 125.252L61.5418 125.254C62.1129 125.31 62.6254 124.908 62.7106 124.344V120.944V120.92L62.7131 120.895C62.8542 119.47 64.053 118.384 65.485 118.384C66.9171 118.384 68.1158 119.47 68.257 120.895L68.2595 120.92V120.944V122.308C68.2611 122.331 68.2724 122.353 68.2906 122.367L68.2997 122.374L68.3084 122.381C68.4041 122.463 68.5262 122.507 68.652 122.505L68.6818 122.504L68.7116 122.507C68.8726 122.524 69.0198 122.421 69.0611 122.267V119.076V119.066L69.0615 119.055C69.104 118.027 69.9659 117.226 70.9928 117.257C71.1745 117.257 71.3555 117.281 71.5307 117.329L71.5387 117.332L71.5387 117.332C73.3194 117.856 75.2435 117.344 76.5294 116.007C76.9539 115.529 77.1692 114.902 77.1269 114.265C77.0752 113.761 76.8736 113.288 76.5532 112.904C74.9461 114.389 72.6774 114.957 70.542 114.38C70.5412 114.38 70.5403 114.38 70.5395 114.379L68.5037 113.851C68.5036 113.851 68.5035 113.851 68.5034 113.851C67.0133 113.466 65.4419 113.537 63.9921 114.053C63.9919 114.053 63.9918 114.053 63.9916 114.053L60.0726 115.461L60.0712 115.461C58.9878 115.847 57.846 116.043 56.6961 116.04ZM56.6961 116.04C56.6957 116.04 56.6954 116.04 56.6951 116.04L56.6962 115.54L56.6971 116.04C56.6968 116.04 56.6964 116.04 56.6961 116.04Z" fill="#252422"/>
<path d="M56.6961 116.04C55.4736 116.043 54.261 115.823 53.1171 115.392L53.1142 115.391L53.1142 115.391L50.5006 114.388C50.5004 114.388 50.5001 114.388 50.4998 114.388C49.6303 114.058 48.708 113.889 47.7779 113.889L47.7776 113.889H46.509C45.5039 113.894 44.5221 113.588 43.6976 113.013L43.6938 113.01L43.6938 113.01C43.4199 112.815 43.1647 112.596 42.9311 112.356C42.8937 112.378 42.855 112.398 42.8151 112.415L42.5667 112.628L42.5581 112.636L42.5493 112.643C42.0447 113.038 41.7234 113.621 41.66 114.259C41.5966 114.896 41.7966 115.532 42.2136 116.019L42.2212 116.027L42.221 116.027L42.2705 116.088C43.094 116.963 44.3419 117.299 45.4943 116.954L45.5037 116.952L45.5037 116.952C45.5264 116.945 45.5496 116.94 45.5735 116.934C47.1551 116.494 48.8506 116.768 50.2135 117.684C50.2137 117.684 50.2139 117.685 50.214 117.685L50.8587 118.115C50.859 118.116 50.8593 118.116 50.8596 118.116C51.6629 118.647 52.6583 118.799 53.5837 118.533L53.5853 118.533C53.608 118.526 53.6331 118.52 53.6603 118.514C55.3111 118.05 57.0839 118.372 58.4662 119.388C59.5844 120.194 60.2555 121.481 60.2758 122.86L60.2759 122.867H60.2758V124.371C60.283 124.586 60.3841 124.788 60.5527 124.922L60.5575 124.926L60.5575 124.926C60.8197 125.14 61.149 125.256 61.4876 125.252L61.5148 125.252L61.5418 125.254C62.1129 125.31 62.6254 124.908 62.7106 124.344V120.944V120.92L62.7131 120.895C62.8542 119.47 64.053 118.384 65.485 118.384C66.9171 118.384 68.1158 119.47 68.257 120.895L68.2595 120.92V120.944V122.308C68.2611 122.331 68.2724 122.353 68.2906 122.367L68.2997 122.374L68.3084 122.381C68.4041 122.463 68.5262 122.507 68.652 122.505L68.6818 122.504L68.7116 122.507C68.8726 122.524 69.0198 122.421 69.0611 122.267V119.076V119.066L69.0615 119.055C69.104 118.027 69.9659 117.226 70.9928 117.257C71.1745 117.257 71.3555 117.281 71.5307 117.329L71.5387 117.332L71.5387 117.332C73.3194 117.856 75.2435 117.344 76.5294 116.007C76.9539 115.529 77.1692 114.902 77.1269 114.265C77.0752 113.761 76.8736 113.288 76.5532 112.904C74.9461 114.389 72.6774 114.957 70.542 114.38C70.5412 114.38 70.5403 114.38 70.5395 114.379L68.5037 113.851C68.5036 113.851 68.5035 113.851 68.5034 113.851C67.0133 113.466 65.4419 113.537 63.9921 114.053C63.9919 114.053 63.9918 114.053 63.9916 114.053L60.0726 115.461L60.0712 115.461C58.9878 115.847 57.846 116.043 56.6961 116.04ZM56.6961 116.04C56.6957 116.04 56.6954 116.04 56.6951 116.04L56.6962 115.54L56.6971 116.04C56.6968 116.04 56.6964 116.04 56.6961 116.04Z" fill="#FFFCF2"/>
<path d="M56.6961 116.04C55.4736 116.043 54.261 115.823 53.1171 115.392L53.1142 115.391L53.1142 115.391L50.5006 114.388C50.5004 114.388 50.5001 114.388 50.4998 114.388C49.6303 114.058 48.708 113.889 47.7779 113.889L47.7776 113.889H46.509C45.5039 113.894 44.5221 113.588 43.6976 113.013L43.6938 113.01L43.6938 113.01C43.4199 112.815 43.1647 112.596 42.9311 112.356C42.8937 112.378 42.855 112.398 42.8151 112.415L42.5667 112.628L42.5581 112.636L42.5493 112.643C42.0447 113.038 41.7234 113.621 41.66 114.259C41.5966 114.896 41.7966 115.532 42.2136 116.019L42.2212 116.027L42.221 116.027L42.2705 116.088C43.094 116.963 44.3419 117.299 45.4943 116.954L45.5037 116.952L45.5037 116.952C45.5264 116.945 45.5496 116.94 45.5735 116.934C47.1551 116.494 48.8506 116.768 50.2135 117.684C50.2137 117.684 50.2139 117.685 50.214 117.685L50.8587 118.115C50.859 118.116 50.8593 118.116 50.8596 118.116C51.6629 118.647 52.6583 118.799 53.5837 118.533L53.5853 118.533C53.608 118.526 53.6331 118.52 53.6603 118.514C55.3111 118.05 57.0839 118.372 58.4662 119.388C59.5844 120.194 60.2555 121.481 60.2758 122.86L60.2759 122.867H60.2758V124.371C60.283 124.586 60.3841 124.788 60.5527 124.922L60.5575 124.926L60.5575 124.926C60.8197 125.14 61.149 125.256 61.4876 125.252L61.5148 125.252L61.5418 125.254C62.1129 125.31 62.6254 124.908 62.7106 124.344V120.944V120.92L62.7131 120.895C62.8542 119.47 64.053 118.384 65.485 118.384C66.9171 118.384 68.1158 119.47 68.257 120.895L68.2595 120.92V120.944V122.308C68.2611 122.331 68.2724 122.353 68.2906 122.367L68.2997 122.374L68.3084 122.381C68.4041 122.463 68.5262 122.507 68.652 122.505L68.6818 122.504L68.7116 122.507C68.8726 122.524 69.0198 122.421 69.0611 122.267V119.076V119.066L69.0615 119.055C69.104 118.027 69.9659 117.226 70.9928 117.257C71.1745 117.257 71.3555 117.281 71.5307 117.329L71.5387 117.332L71.5387 117.332C73.3194 117.856 75.2435 117.344 76.5294 116.007C76.9539 115.529 77.1692 114.902 77.1269 114.265C77.0752 113.761 76.8736 113.288 76.5532 112.904C74.9461 114.389 72.6774 114.957 70.542 114.38C70.5412 114.38 70.5403 114.38 70.5395 114.379L68.5037 113.851C68.5036 113.851 68.5035 113.851 68.5034 113.851C67.0133 113.466 65.4419 113.537 63.9921 114.053C63.9919 114.053 63.9918 114.053 63.9916 114.053L60.0726 115.461L60.0712 115.461C58.9878 115.847 57.846 116.043 56.6961 116.04ZM56.6961 116.04C56.6957 116.04 56.6954 116.04 56.6951 116.04L56.6962 115.54L56.6971 116.04C56.6968 116.04 56.6964 116.04 56.6961 116.04Z" stroke="#252422"/>
<path d="M54.1708 120.833C54.1941 120.828 54.22 120.822 54.2474 120.814L54.2474 120.814L54.2512 120.813C55.208 120.527 56.2433 120.705 57.0502 121.293L57.0502 121.293L57.0591 121.299C57.5752 121.659 57.8882 122.243 57.9014 122.872L57.9014 124.378L57.9014 124.382C57.909 125.296 58.3212 126.16 59.027 126.74C59.7146 127.317 60.5844 127.63 61.4813 127.626C63.358 127.719 64.9632 126.287 65.0824 124.41L65.0834 124.394V124.378V121.025C65.15 120.864 65.3072 120.757 65.4842 120.757C65.6612 120.757 65.8184 120.864 65.885 121.025L65.8849 122.318L65.885 122.321C65.8899 123.039 66.2097 123.719 66.7596 124.18C67.2845 124.635 67.9567 124.883 68.6509 124.878C70.1147 124.938 71.3557 123.809 71.4332 122.344L71.4339 122.331V122.318V119.75C73.696 120.22 76.048 119.6 77.7837 118.083L78.3355 120.907C78.3356 120.907 78.3357 120.908 78.3358 120.908C78.8672 123.727 78.089 126.634 76.2204 128.81C73.5498 131.855 69.6727 133.569 65.6229 133.494L65.6229 133.494H65.6136H53.9377V133.494L53.9267 133.494C49.9623 133.582 46.1551 131.944 43.4929 129.005C41.6185 126.921 40.7586 124.117 41.1425 121.341L41.5502 118.559C42.879 119.423 44.5284 119.687 46.0818 119.254C46.1083 119.249 46.1353 119.242 46.1627 119.234C47.0874 118.968 48.0823 119.121 48.8847 119.652C48.885 119.652 48.8853 119.652 48.8856 119.652L49.5305 120.083C49.5307 120.083 49.5308 120.083 49.531 120.083C50.8938 121 52.5892 121.273 54.1708 120.833Z" fill="#252422"/>
<path d="M54.1708 120.833C54.1941 120.828 54.22 120.822 54.2474 120.814L54.2474 120.814L54.2512 120.813C55.208 120.527 56.2433 120.705 57.0502 121.293L57.0502 121.293L57.0591 121.299C57.5752 121.659 57.8882 122.243 57.9014 122.872L57.9014 124.378L57.9014 124.382C57.909 125.296 58.3212 126.16 59.027 126.74C59.7146 127.317 60.5844 127.63 61.4813 127.626C63.358 127.719 64.9632 126.287 65.0824 124.41L65.0834 124.394V124.378V121.025C65.15 120.864 65.3072 120.757 65.4842 120.757C65.6612 120.757 65.8184 120.864 65.885 121.025L65.8849 122.318L65.885 122.321C65.8899 123.039 66.2097 123.719 66.7596 124.18C67.2845 124.635 67.9567 124.883 68.6509 124.878C70.1147 124.938 71.3557 123.809 71.4332 122.344L71.4339 122.331V122.318V119.75C73.696 120.22 76.048 119.6 77.7837 118.083L78.3355 120.907C78.3356 120.907 78.3357 120.908 78.3358 120.908C78.8672 123.727 78.089 126.634 76.2204 128.81C73.5498 131.855 69.6727 133.569 65.6229 133.494L65.6229 133.494H65.6136H53.9377V133.494L53.9267 133.494C49.9623 133.582 46.1551 131.944 43.4929 129.005C41.6185 126.921 40.7586 124.117 41.1425 121.341L41.5502 118.559C42.879 119.423 44.5284 119.687 46.0818 119.254C46.1083 119.249 46.1353 119.242 46.1627 119.234C47.0874 118.968 48.0823 119.121 48.8847 119.652C48.885 119.652 48.8853 119.652 48.8856 119.652L49.5305 120.083C49.5307 120.083 49.5308 120.083 49.531 120.083C50.8938 121 52.5892 121.273 54.1708 120.833Z" fill="#FFFCF2"/>
<path d="M54.1708 120.833C54.1941 120.828 54.22 120.822 54.2474 120.814L54.2474 120.814L54.2512 120.813C55.208 120.527 56.2433 120.705 57.0502 121.293L57.0502 121.293L57.0591 121.299C57.5752 121.659 57.8882 122.243 57.9014 122.872L57.9014 124.378L57.9014 124.382C57.909 125.296 58.3212 126.16 59.027 126.74C59.7146 127.317 60.5844 127.63 61.4813 127.626C63.358 127.719 64.9632 126.287 65.0824 124.41L65.0834 124.394V124.378V121.025C65.15 120.864 65.3072 120.757 65.4842 120.757C65.6612 120.757 65.8184 120.864 65.885 121.025L65.8849 122.318L65.885 122.321C65.8899 123.039 66.2097 123.719 66.7596 124.18C67.2845 124.635 67.9567 124.883 68.6509 124.878C70.1147 124.938 71.3557 123.809 71.4332 122.344L71.4339 122.331V122.318V119.75C73.696 120.22 76.048 119.6 77.7837 118.083L78.3355 120.907C78.3356 120.907 78.3357 120.908 78.3358 120.908C78.8672 123.727 78.089 126.634 76.2204 128.81C73.5498 131.855 69.6727 133.569 65.6229 133.494L65.6229 133.494H65.6136H53.9377V133.494L53.9267 133.494C49.9623 133.582 46.1551 131.944 43.4929 129.005C41.6185 126.921 40.7586 124.117 41.1425 121.341L41.5502 118.559C42.879 119.423 44.5284 119.687 46.0818 119.254C46.1083 119.249 46.1353 119.242 46.1627 119.234C47.0874 118.968 48.0823 119.121 48.8847 119.652C48.885 119.652 48.8853 119.652 48.8856 119.652L49.5305 120.083C49.5307 120.083 49.5308 120.083 49.531 120.083C50.8938 121 52.5892 121.273 54.1708 120.833Z" stroke="#252422"/>
<path d="M109.364 7.46732L109.372 7.46953L110.701 7.8758C110.702 7.87588 110.702 7.87596 110.702 7.87605C112.053 8.28367 113.493 8.28365 114.844 7.87598C116.515 7.36653 118.295 7.33118 119.986 7.77384C119.986 7.77386 119.986 7.77387 119.986 7.77388L120.479 7.90294L109.364 7.46732ZM109.364 7.46732L109.357 7.46533M109.364 7.46732L109.357 7.46533M109.357 7.46533C109.014 7.3717 108.742 7.10956 108.636 6.77011C108.564 6.4953 108.64 6.20262 108.836 5.99664L108.836 5.99673L108.844 5.98812L109.752 4.98953C110.456 5.62146 111.439 6.12686 112.591 6.49106C113.986 6.93216 115.671 7.17986 117.513 7.17986H117.524L117.536 7.17933C117.593 7.17666 117.65 7.16969 117.706 7.15856C117.763 7.16969 117.819 7.17666 117.877 7.17932L117.888 7.17986H117.9C119.143 7.17986 120.28 6.86764 121.122 6.32631C121.961 5.78631 122.555 4.9799 122.555 4.0079C122.555 3.0359 121.961 2.2295 121.122 1.6895C120.281 1.14909 119.147 0.837015 117.906 0.835946C116.712 0.806514 115.536 1.13656 114.531 1.78341L114.521 1.78981L114.511 1.79668C113.987 2.17064 113.864 2.89887 114.237 3.42408C114.607 3.9444 115.324 4.07071 115.849 3.71123C116.46 3.33709 117.168 3.14953 117.885 3.17165L117.892 3.17189H117.9C118.639 3.17189 119.264 3.3341 119.688 3.54925C119.901 3.65721 120.046 3.76993 120.132 3.86602C120.211 3.95475 120.218 4.00314 120.219 4.0079C120.218 4.01267 120.211 4.06106 120.132 4.14979C120.046 4.24588 119.901 4.3586 119.688 4.46655C119.264 4.6817 118.639 4.84392 117.9 4.84392H117.888L117.877 4.84446C117.819 4.84712 117.762 4.85409 117.706 4.86523C117.65 4.85409 117.593 4.84712 117.536 4.84446L117.524 4.84392H117.513C115.54 4.84392 113.835 4.49975 112.64 4.0173C112.041 3.77531 111.592 3.50721 111.302 3.24838C111.003 2.98177 110.932 2.78197 110.932 2.67196C110.932 2.56195 111.003 2.36215 111.302 2.09554C111.592 1.83671 112.041 1.56861 112.64 1.32662C113.835 0.844168 115.54 0.5 117.513 0.5C121.265 0.5 124.801 3.01938 126.474 5.37328L126.484 5.38821L126.496 5.40233C126.769 5.73168 126.883 6.1629 126.812 6.58296C126.728 6.80655 126.547 6.98079 126.319 7.05543L126.302 7.06089M109.357 7.46533L126.302 7.06089M126.302 7.06089L126.286 7.0675M126.302 7.06089L126.286 7.0675M126.286 7.0675L124.936 7.61713C124.936 7.61722 124.936 7.61732 124.935 7.61742M126.286 7.0675L124.935 7.61742M124.935 7.61742C123.519 8.18835 121.957 8.28849 120.48 7.90302L124.935 7.61742Z" fill="#FFFCF2" stroke="#252422"/>
<path d="M103.98 11.0892L103.989 11.0955C104.398 11.3783 104.884 11.528 105.381 11.524L105.385 11.5239V11.524H106.619H106.619V12.024C107.746 12.0232 108.863 12.228 109.916 12.6283L103.98 11.0892ZM103.98 11.0892L103.971 11.0833C102.848 10.378 102.478 8.91607 103.127 7.76183C103.416 7.31404 103.891 7.01977 104.421 6.96095L104.428 6.96013L104.435 6.95909L106.276 6.69898M103.98 11.0892L106.276 6.69898M106.276 6.69898C106.286 6.93347 106.322 7.1668 106.385 7.39449L106.385 7.39451L106.387 7.40096C106.709 8.51455 107.58 9.38461 108.694 9.7051L110.021 10.1106L110.023 10.1111C111.817 10.6523 113.73 10.6523 115.524 10.1111L115.526 10.1106C116.783 9.72659 118.123 9.6999 119.394 10.0335L119.395 10.0336L119.889 10.1628L119.889 10.1629C121.854 10.6749 123.931 10.5414 125.814 9.78204L125.816 9.78141L127.16 9.23427C128.068 8.89738 128.769 8.15852 129.057 7.23352L129.057 7.23358L129.061 7.22036C129.109 7.04934 129.143 6.87492 129.161 6.69897L129.895 6.8174L129.895 6.81743L129.9 6.81817C131.053 6.99262 132.135 7.48335 133.026 8.23585L133.034 8.24236L133.042 8.24856C133.434 8.5538 133.687 9.00457 133.743 9.49882C133.798 9.98664 133.656 10.476 133.35 10.859C133.331 10.8785 133.299 10.912 133.277 10.9378C132.289 12.0293 130.77 12.4705 129.351 12.078L129.351 12.0779L129.343 12.0759L127.361 11.5615L127.36 11.5614C125.459 11.0705 123.455 11.1604 121.606 11.8195L121.605 11.8199L117.795 13.1884C117.795 13.1886 117.794 13.1887 117.794 13.1889C116.122 13.7768 114.297 13.7584 112.638 13.1371L106.276 6.69898Z" fill="#FFFCF2" stroke="#252422"/>
<path d="M115.294 15.9521C114.103 15.9542 112.922 15.7401 111.808 15.3205L111.805 15.3194L111.805 15.3194L109.263 14.3441C109.263 14.344 109.262 14.3439 109.262 14.3438C108.418 14.0234 107.523 13.8595 106.62 13.8601L106.619 13.8601L105.386 13.8601C104.405 13.8645 103.448 13.5658 102.643 13.005L102.64 13.0023L102.64 13.0023C102.375 12.8144 102.129 12.6033 101.903 12.3717C101.87 12.3909 101.836 12.4085 101.8 12.4243L101.56 12.6303L101.552 12.6376L101.543 12.6446C101.055 13.0262 100.744 13.5907 100.683 14.207C100.622 14.8233 100.815 15.4379 101.218 15.9082L101.226 15.917L101.226 15.9171L101.274 15.9755C102.071 16.8231 103.279 17.1482 104.395 16.8143L104.404 16.8115L104.404 16.8116C104.426 16.8054 104.449 16.7997 104.472 16.7946C106.014 16.3654 107.667 16.6323 108.996 17.5258C108.996 17.5259 108.997 17.5261 108.997 17.5262L109.624 17.9451C109.624 17.9453 109.624 17.9455 109.625 17.9457C110.402 18.4598 111.366 18.6074 112.263 18.3496L112.264 18.3492C112.286 18.3429 112.311 18.3365 112.338 18.3308C113.947 17.8789 115.676 18.1931 117.023 19.1832C118.114 19.9697 118.769 21.2259 118.789 22.5708L118.789 22.5782H118.789V24.0405C118.796 24.2458 118.892 24.4379 119.053 24.566L119.058 24.5699L119.058 24.5699C119.31 24.7764 119.628 24.8876 119.954 24.884L119.981 24.8836L120.008 24.8863C120.556 24.9398 121.047 24.5548 121.13 24.0138V20.7079V20.6832L121.132 20.6586C121.27 19.2656 122.442 18.2041 123.842 18.2041C125.242 18.2041 126.413 19.2656 126.551 20.6586L126.554 20.6832V20.7079V22.0341C126.555 22.0523 126.564 22.0692 126.579 22.0806L126.588 22.0876L126.597 22.0951C126.687 22.1724 126.803 22.214 126.922 22.212L126.952 22.2115L126.981 22.2146C127.131 22.23 127.267 22.1345 127.306 21.9926V18.8908V18.8805L127.307 18.8701C127.348 17.863 128.193 17.078 129.199 17.1082C129.377 17.1077 129.554 17.1315 129.725 17.1789L129.733 17.1811L129.733 17.1811C131.46 17.6892 133.326 17.1936 134.573 15.8961C134.984 15.4349 135.192 14.8284 135.151 14.2126C135.101 13.7301 134.91 13.2767 134.605 12.9076C133.039 14.3476 130.833 14.8981 128.757 14.3368C128.756 14.3365 128.755 14.3363 128.754 14.3361L126.774 13.8225C126.774 13.8225 126.774 13.8225 126.774 13.8225C125.327 13.4487 123.802 13.517 122.394 14.0184C122.394 14.0184 122.394 14.0185 122.394 14.0185L118.582 15.3877L118.581 15.3882C117.526 15.7637 116.414 15.9545 115.294 15.9521ZM115.294 15.9521C115.293 15.9521 115.293 15.9521 115.293 15.9521L115.294 15.4521L115.295 15.9521C115.294 15.9521 115.294 15.9521 115.294 15.9521ZM112.401 18.8302C112.419 18.825 112.438 18.8204 112.456 18.8168C113.923 18.3995 115.5 18.684 116.729 19.5875C117.693 20.2815 118.271 21.3906 118.289 22.5782V24.0479C118.298 24.4028 118.464 24.7356 118.741 24.9569C119.085 25.2377 119.516 25.3889 119.959 25.3839C120.786 25.4647 121.527 24.8723 121.63 24.0479V20.7079C121.742 19.5707 122.699 18.7041 123.842 18.7041C124.985 18.7041 125.941 19.5707 126.054 20.7079V22.044C126.058 22.213 126.138 22.3713 126.272 22.4752C126.455 22.6317 126.689 22.716 126.93 22.712C127.353 22.7555 127.736 22.463 127.806 22.044V18.8908C127.837 18.1549 128.456 17.5818 129.192 17.6083C129.327 17.6071 129.462 17.6248 129.592 17.6608C131.501 18.2224 133.564 17.6728 134.94 16.2358C135.446 15.6714 135.702 14.9264 135.649 14.1705C135.589 13.57 135.347 13.0067 134.961 12.5533L112.401 18.8302ZM112.401 18.8302C111.364 19.1285 110.248 18.9574 109.348 18.3621L112.401 18.8302ZM134.819 12.3981C134.751 12.3294 134.68 12.2638 134.605 12.2015M134.819 12.3981L118.413 14.9172L122.226 13.5475C123.728 13.0124 125.356 12.9396 126.899 13.3384L128.885 13.8535C130.95 14.4128 133.156 13.7759 134.605 12.2015M134.819 12.3981L134.605 12.2015M134.819 12.3981L134.605 12.2015" fill="#FFFCF2" stroke="#252422"/>
<path d="M112.841 20.6129C112.864 20.6079 112.889 20.6018 112.916 20.594L112.916 20.594L112.92 20.5929C113.846 20.3164 114.849 20.4884 115.63 21.058L115.63 21.0581L115.639 21.0643C116.137 21.4112 116.44 21.9756 116.452 22.5826L116.452 24.0474L116.452 24.0515C116.46 24.9445 116.863 25.7882 117.552 26.3554C118.223 26.918 119.072 27.2241 119.948 27.2195C121.78 27.3104 123.348 25.9121 123.464 24.0791L123.465 24.0633V24.0475V20.7885C123.528 20.6392 123.676 20.5395 123.841 20.5395C124.007 20.5395 124.154 20.6392 124.217 20.7885L124.217 22.0435L124.217 22.0469C124.222 22.7493 124.535 23.414 125.073 23.8654C125.586 24.3094 126.243 24.5519 126.921 24.5476C128.352 24.6055 129.565 23.5019 129.641 22.0699L129.642 22.0567V22.0435V19.5629C131.833 20.0128 134.109 19.4141 135.795 17.951L136.327 20.6737C136.327 20.6741 136.327 20.6746 136.327 20.6751C136.843 23.4123 136.088 26.2357 134.273 28.349C131.678 31.3078 127.911 32.9727 123.976 32.8996V32.8995H123.967H112.611V32.8994L112.6 32.8996C108.748 32.9849 105.049 31.3935 102.463 28.5382C100.642 26.5147 99.8071 23.7915 100.18 21.0955L100.573 18.4104C101.866 19.2437 103.466 19.4974 104.974 19.0773C105 19.0718 105.026 19.0652 105.053 19.0573C105.948 18.7997 106.912 18.9475 107.689 19.4616C107.689 19.4618 107.689 19.462 107.69 19.4622L108.317 19.8813C108.317 19.8814 108.317 19.8816 108.318 19.8817C109.646 20.775 111.299 21.042 112.841 20.6129Z" fill="#FFFCF2" stroke="#252422"/>
<path d="M87.8462 40.7057L87.839 40.7035L87.8317 40.7015C87.4848 40.6069 87.2103 40.342 87.1031 39.999C87.0305 39.721 87.1069 39.425 87.3054 39.2166L87.3055 39.2167L87.3133 39.2081L88.2302 38.1999C88.9389 38.8369 89.9295 39.3465 91.0906 39.7136C92.4952 40.1577 94.1917 40.4071 96.0459 40.4071H96.0575L96.069 40.4066C96.127 40.4039 96.1844 40.3968 96.2409 40.3856C96.2974 40.3968 96.3548 40.4039 96.4127 40.4066L96.4242 40.4071H96.4358C97.6873 40.4071 98.8311 40.0928 99.6781 39.5481C100.523 39.0047 101.12 38.1936 101.12 37.2163C101.12 36.239 100.523 35.4279 99.6781 34.8845C98.8326 34.3407 97.6912 34.0266 96.4422 34.0255C95.2398 33.9959 94.0562 34.3281 93.0448 34.9791L93.0348 34.9855L93.0252 34.9924C92.4983 35.3679 92.3752 36.0991 92.7499 36.6264C93.121 37.1488 93.8417 37.2756 94.3683 36.9146C94.9848 36.5374 95.698 36.3484 96.4204 36.3706L96.4281 36.3709H96.4358C97.18 36.3709 97.8105 36.5343 98.2382 36.7513C98.4528 36.8601 98.5996 36.9739 98.6864 37.0711C98.7683 37.1629 98.774 37.2125 98.7744 37.2163C98.774 37.2202 98.7683 37.2698 98.6864 37.3615C98.5996 37.4587 98.4528 37.5725 98.2382 37.6813C97.8105 37.8983 97.18 38.0617 96.4358 38.0617H96.4243L96.4127 38.0623C96.3548 38.065 96.2973 38.072 96.2409 38.0833C96.1843 38.072 96.1269 38.065 96.0691 38.0623L96.0575 38.0617H96.0459C94.0584 38.0617 92.341 37.7151 91.1376 37.229C90.5339 36.9853 90.0812 36.7151 89.7885 36.4541C89.4871 36.1853 89.4155 35.9832 89.4155 35.871C89.4155 35.7587 89.4871 35.5566 89.7885 35.2879C90.0812 35.0268 90.534 34.7567 91.1376 34.5129C92.3411 34.0268 94.0585 33.6802 96.0459 33.6802C99.8257 33.6802 103.388 36.2181 105.073 38.5893L105.084 38.6042L105.095 38.6183C105.37 38.9509 105.486 39.3863 105.414 39.8104C105.329 40.0367 105.146 40.2131 104.915 40.2887L104.899 40.2941L104.882 40.3007L103.523 40.8542C103.522 40.8543 103.522 40.8545 103.522 40.8546C102.095 41.4298 100.521 41.5307 99.0324 41.1422L98.5356 41.0122C96.8338 40.5666 95.0418 40.6022 93.3591 41.115C91.9985 41.5258 90.5468 41.5258 89.1862 41.1151C89.186 41.115 89.1857 41.1149 89.1855 41.1148L87.8462 40.7057Z" fill="#252422" stroke="#FFFCF2"/>
<path d="M82.4155 44.3504L82.4247 44.3567C82.8368 44.6419 83.3269 44.7928 83.8281 44.7888L83.8321 44.7887V44.7888H85.075H85.0753V45.2888C86.21 45.288 87.3353 45.4943 88.3959 45.8974L82.4155 44.3504ZM82.4155 44.3504L82.4062 44.3445C81.2742 43.6332 80.9007 42.1588 81.5554 40.9948C81.8467 40.5429 82.3261 40.2459 82.8609 40.1866L82.8683 40.1857L82.8757 40.1847L84.7335 39.9222C84.7431 40.1594 84.7797 40.3954 84.8429 40.6257L84.8429 40.6257L84.8447 40.6322C85.1685 41.7525 86.0449 42.6278 87.1654 42.9502L88.5021 43.3586L88.5038 43.3591C90.3096 43.9038 92.2361 43.9038 94.0419 43.3591L94.0435 43.3586C95.3105 42.9716 96.6601 42.9447 97.9415 43.2809L97.9419 43.2809L98.4392 43.411L98.4396 43.4111C100.417 43.9266 102.509 43.7922 104.404 43.0278L104.406 43.0271L105.759 42.4761C106.673 42.1373 107.378 41.394 107.668 40.4635L107.668 40.4636L107.672 40.4504C107.72 40.2771 107.754 40.1004 107.773 39.9222L108.516 40.042L108.516 40.0421L108.52 40.0428C109.682 40.2186 110.773 40.713 111.67 41.4713L111.678 41.4778L111.686 41.484C112.082 41.7919 112.337 42.2468 112.393 42.7454C112.449 43.2377 112.306 43.7315 111.997 44.1179C111.978 44.1376 111.946 44.1713 111.923 44.1972C110.928 45.2974 109.397 45.7422 107.967 45.3465L107.967 45.3465L107.959 45.3445L105.962 44.8265L105.962 44.8263C104.048 44.3322 102.03 44.4227 100.169 45.0862L100.168 45.0866L96.3312 46.4647M82.4155 44.3504L96.3312 46.4647M96.3312 46.4647C96.3308 46.4649 96.3303 46.4651 96.3298 46.4652C94.6457 47.0575 92.807 47.039 91.1351 46.413L96.3312 46.4647Z" fill="#252422" stroke="#FFFCF2"/>
<path d="M93.8112 49.2411C92.6127 49.2432 91.4237 49.0277 90.3021 48.6053L90.2993 48.6042L90.2993 48.6042L87.7394 47.6221C87.7392 47.622 87.7389 47.6219 87.7386 47.6218C86.8882 47.2989 85.986 47.1338 85.0763 47.1344H85.076H83.8335C82.8469 47.1388 81.8832 46.8383 81.074 46.2739L81.0701 46.2713L81.0701 46.2712C80.8035 46.0816 80.555 45.8684 80.3273 45.6346C80.2929 45.6545 80.2574 45.6727 80.2209 45.6891L79.9788 45.8968L79.9703 45.9041L79.9614 45.9111C79.4694 46.296 79.1561 46.8653 79.0943 47.487C79.0324 48.1086 79.2274 48.7284 79.6341 49.2027L79.6416 49.2116L79.6415 49.2116L79.6898 49.2706C80.4936 50.1252 81.7118 50.453 82.8366 50.1163L82.846 50.1135L82.8461 50.1136C82.8684 50.1074 82.8912 50.1017 82.9147 50.0966C84.4666 49.6645 86.1302 49.9331 87.4676 50.8324C87.4677 50.8325 87.4679 50.8327 87.4681 50.8328L88.0994 51.2546C88.0998 51.2548 88.1001 51.255 88.1004 51.2553C88.8846 51.7735 89.8565 51.9224 90.7599 51.6625L90.7615 51.662C90.7838 51.6557 90.8086 51.6493 90.8353 51.6435C92.4552 51.1887 94.1947 51.5049 95.5511 52.5014C96.6489 53.2928 97.3077 54.5568 97.3276 55.9101L97.3277 55.9174H97.3277V57.3902C97.3347 57.5979 97.4323 57.7923 97.595 57.922L97.5998 57.9259L97.5998 57.9259C97.8548 58.1344 98.1749 58.2467 98.5042 58.243L98.5314 58.2427L98.5584 58.2453C99.112 58.2994 99.609 57.9102 99.6919 57.3635V54.034V54.0093L99.6944 53.9847C99.8332 52.5836 101.012 51.5161 102.42 51.5161C103.828 51.5161 105.006 52.5837 105.145 53.9847L105.147 54.0093V54.034V55.3697C105.149 55.389 105.158 55.4071 105.174 55.4191L105.183 55.4262L105.192 55.4336C105.283 55.5121 105.401 55.5542 105.521 55.5522L105.551 55.5517L105.581 55.5548C105.733 55.5705 105.872 55.473 105.912 55.3282V52.2041V52.1937L105.912 52.1834C105.954 51.1711 106.803 50.3821 107.814 50.4125C107.993 50.4119 108.171 50.4358 108.344 50.4835L108.352 50.4857L108.352 50.4858C110.092 50.9978 111.973 50.4983 113.23 49.1907C113.643 48.7256 113.853 48.1138 113.812 47.4926C113.762 47.0047 113.568 46.5464 113.259 46.1736C111.683 47.6248 109.462 48.1799 107.37 47.6146C107.369 47.6144 107.368 47.6141 107.368 47.6139L105.374 47.0967C105.374 47.0967 105.374 47.0967 105.373 47.0966C103.916 46.7201 102.379 46.7889 100.961 47.294C100.961 47.2941 100.96 47.2941 100.96 47.2942L97.1218 48.673L97.1204 48.6735C96.0582 49.0515 94.9387 49.2436 93.8112 49.2411ZM93.8112 49.2411C93.8109 49.2411 93.8105 49.2411 93.8102 49.2411L93.8113 48.7411L93.8123 49.2411C93.8119 49.2411 93.8116 49.2411 93.8112 49.2411Z" fill="#252422" stroke="#FFFCF2"/>
<path d="M91.3407 53.9353C91.3636 53.9303 91.3892 53.9242 91.4161 53.9164L91.4161 53.9164L91.4199 53.9152C92.354 53.6365 93.3647 53.8099 94.1525 54.3841L94.1524 54.3842L94.1613 54.3904C94.6641 54.7405 94.9691 55.3099 94.982 55.9223L94.9819 57.3974L94.982 57.4016C94.9895 58.2998 95.3946 59.1484 96.0882 59.719C96.7634 60.2851 97.6176 60.5931 98.4984 60.5884C100.342 60.6799 101.919 59.2732 102.036 57.4292L102.037 57.4134V57.3975V54.1148C102.101 53.9628 102.251 53.8613 102.419 53.8613C102.588 53.8613 102.737 53.9628 102.802 54.1148L102.801 55.3794L102.802 55.3828C102.806 56.0892 103.121 56.7576 103.662 57.2115C104.178 57.6581 104.838 57.902 105.521 57.8977C106.96 57.9559 108.18 56.846 108.256 55.4058L108.257 55.3926V55.3794V52.877C110.466 53.3319 112.761 52.728 114.459 51.2515L114.996 53.9993C114.997 53.9998 114.997 54.0003 114.997 54.0007C115.517 56.7583 114.755 59.6026 112.927 61.7317C110.313 64.7121 106.519 66.3891 102.555 66.3155L102.555 66.3154H102.546H91.11V66.3153L91.0989 66.3156C87.219 66.4015 83.4929 64.7985 80.8874 61.9222C79.0536 59.8837 78.2122 57.1403 78.5878 54.4242L78.9849 51.7148C80.2863 52.5558 81.8989 52.8123 83.4179 52.3889C83.444 52.3834 83.4706 52.3767 83.4975 52.3688C84.4003 52.1091 85.3716 52.2581 86.1551 52.7764C86.1554 52.7766 86.1557 52.7768 86.156 52.777L86.7876 53.199C86.7878 53.1992 86.788 53.1993 86.7882 53.1995C88.1254 54.0985 89.7889 54.3672 91.3407 53.9353Z" fill="#252422" stroke="#FFFCF2"/>
<path d="M128.602 40.3467L128.595 40.3445L128.588 40.3425C128.23 40.245 127.947 39.9718 127.837 39.618C127.761 39.3307 127.84 39.0246 128.045 38.8092L128.046 38.8093L128.053 38.8006L128.997 37.7636C129.719 38.4158 130.732 38.9379 131.921 39.3138C133.354 39.7668 135.085 40.0213 136.977 40.0213H136.989L137 40.0208C137.059 40.0181 137.118 40.0108 137.176 39.9992C137.234 40.0108 137.293 40.0181 137.352 40.0208L137.363 40.0213H137.375C138.651 40.0213 139.817 39.7009 140.68 39.146C141.54 38.5924 142.147 37.7672 142.147 36.7741C142.147 35.781 141.54 34.9558 140.68 34.4023C139.818 33.8483 138.655 33.528 137.381 33.5269C136.156 33.4967 134.95 33.8352 133.919 34.4988L133.909 34.5052L133.899 34.5121C133.366 34.8921 133.241 35.632 133.62 36.1657C133.996 36.6945 134.725 36.8228 135.258 36.4573C135.89 36.071 136.62 35.8774 137.36 35.9002L137.367 35.9005H137.375C138.136 35.9005 138.782 36.0677 139.22 36.29C139.44 36.4015 139.591 36.5184 139.681 36.6189C139.725 36.6682 139.749 36.7079 139.761 36.7353C139.773 36.7619 139.773 36.774 139.773 36.7741C139.773 36.7742 139.773 36.7864 139.761 36.8129C139.749 36.8404 139.725 36.8801 139.681 36.9294C139.591 37.0298 139.44 37.1467 139.22 37.2583C138.782 37.4806 138.136 37.6478 137.375 37.6478H137.364L137.352 37.6483C137.293 37.6511 137.234 37.6583 137.176 37.67C137.118 37.6583 137.059 37.6511 137 37.6483L136.989 37.6478H136.977C134.947 37.6478 133.192 37.2937 131.962 36.7968C131.345 36.5477 130.881 36.2713 130.581 36.0037C130.273 35.7284 130.197 35.5194 130.197 35.4005C130.197 35.2817 130.273 35.0727 130.581 34.7974C130.881 34.5298 131.345 34.2534 131.962 34.0042C133.192 33.5074 134.947 33.1533 136.977 33.1533C140.84 33.1533 144.48 35.7469 146.202 38.1698L146.213 38.1847L146.224 38.1988C146.507 38.541 146.626 38.9891 146.551 39.4254C146.464 39.6599 146.275 39.8427 146.036 39.9209L146.019 39.9263L146.003 39.933L144.615 40.4981C144.614 40.4982 144.614 40.4983 144.614 40.4984C143.155 41.0866 141.546 41.1897 140.024 40.7925L139.516 40.6598C139.516 40.6598 139.516 40.6598 139.516 40.6598C137.781 40.2053 135.953 40.2416 134.237 40.7646C132.846 41.1846 131.361 41.1846 129.97 40.7646C129.97 40.7646 129.97 40.7645 129.97 40.7645L128.602 40.3467Z" fill="#252422"/>
<path d="M128.602 40.3467L128.595 40.3445L128.588 40.3425C128.23 40.245 127.947 39.9718 127.837 39.618C127.761 39.3307 127.84 39.0246 128.045 38.8092L128.046 38.8093L128.053 38.8006L128.997 37.7636C129.719 38.4158 130.732 38.9379 131.921 39.3138C133.354 39.7668 135.085 40.0213 136.977 40.0213H136.989L137 40.0208C137.059 40.0181 137.118 40.0108 137.176 39.9992C137.234 40.0108 137.293 40.0181 137.352 40.0208L137.363 40.0213H137.375C138.651 40.0213 139.817 39.7009 140.68 39.146C141.54 38.5924 142.147 37.7672 142.147 36.7741C142.147 35.781 141.54 34.9558 140.68 34.4023C139.818 33.8483 138.655 33.528 137.381 33.5269C136.156 33.4967 134.95 33.8352 133.919 34.4988L133.909 34.5052L133.899 34.5121C133.366 34.8921 133.241 35.632 133.62 36.1657C133.996 36.6945 134.725 36.8228 135.258 36.4573C135.89 36.071 136.62 35.8774 137.36 35.9002L137.367 35.9005H137.375C138.136 35.9005 138.782 36.0677 139.22 36.29C139.44 36.4015 139.591 36.5184 139.681 36.6189C139.725 36.6682 139.749 36.7079 139.761 36.7353C139.773 36.7619 139.773 36.774 139.773 36.7741C139.773 36.7742 139.773 36.7864 139.761 36.8129C139.749 36.8404 139.725 36.8801 139.681 36.9294C139.591 37.0298 139.44 37.1467 139.22 37.2583C138.782 37.4806 138.136 37.6478 137.375 37.6478H137.364L137.352 37.6483C137.293 37.6511 137.234 37.6583 137.176 37.67C137.118 37.6583 137.059 37.6511 137 37.6483L136.989 37.6478H136.977C134.947 37.6478 133.192 37.2937 131.962 36.7968C131.345 36.5477 130.881 36.2713 130.581 36.0037C130.273 35.7284 130.197 35.5194 130.197 35.4005C130.197 35.2817 130.273 35.0727 130.581 34.7974C130.881 34.5298 131.345 34.2534 131.962 34.0042C133.192 33.5074 134.947 33.1533 136.977 33.1533C140.84 33.1533 144.48 35.7469 146.202 38.1698L146.213 38.1847L146.224 38.1988C146.507 38.541 146.626 38.9891 146.551 39.4254C146.464 39.6599 146.275 39.8427 146.036 39.9209L146.019 39.9263L146.003 39.933L144.615 40.4981C144.614 40.4982 144.614 40.4983 144.614 40.4984C143.155 41.0866 141.546 41.1897 140.024 40.7925L139.516 40.6598C139.516 40.6598 139.516 40.6598 139.516 40.6598C137.781 40.2053 135.953 40.2416 134.237 40.7646C132.846 41.1846 131.361 41.1846 129.97 40.7646C129.97 40.7646 129.97 40.7645 129.97 40.7645L128.602 40.3467Z" fill="#FFFCF2"/>
<path d="M128.602 40.3467L128.595 40.3445L128.588 40.3425C128.23 40.245 127.947 39.9718 127.837 39.618C127.761 39.3307 127.84 39.0246 128.045 38.8092L128.046 38.8093L128.053 38.8006L128.997 37.7636C129.719 38.4158 130.732 38.9379 131.921 39.3138C133.354 39.7668 135.085 40.0213 136.977 40.0213H136.989L137 40.0208C137.059 40.0181 137.118 40.0108 137.176 39.9992C137.234 40.0108 137.293 40.0181 137.352 40.0208L137.363 40.0213H137.375C138.651 40.0213 139.817 39.7009 140.68 39.146C141.54 38.5924 142.147 37.7672 142.147 36.7741C142.147 35.781 141.54 34.9558 140.68 34.4023C139.818 33.8483 138.655 33.528 137.381 33.5269C136.156 33.4967 134.95 33.8352 133.919 34.4988L133.909 34.5052L133.899 34.5121C133.366 34.8921 133.241 35.632 133.62 36.1657C133.996 36.6945 134.725 36.8228 135.258 36.4573C135.89 36.071 136.62 35.8774 137.36 35.9002L137.367 35.9005H137.375C138.136 35.9005 138.782 36.0677 139.22 36.29C139.44 36.4015 139.591 36.5184 139.681 36.6189C139.725 36.6682 139.749 36.7079 139.761 36.7353C139.773 36.7619 139.773 36.774 139.773 36.7741C139.773 36.7742 139.773 36.7864 139.761 36.8129C139.749 36.8404 139.725 36.8801 139.681 36.9294C139.591 37.0298 139.44 37.1467 139.22 37.2583C138.782 37.4806 138.136 37.6478 137.375 37.6478H137.364L137.352 37.6483C137.293 37.6511 137.234 37.6583 137.176 37.67C137.118 37.6583 137.059 37.6511 137 37.6483L136.989 37.6478H136.977C134.947 37.6478 133.192 37.2937 131.962 36.7968C131.345 36.5477 130.881 36.2713 130.581 36.0037C130.273 35.7284 130.197 35.5194 130.197 35.4005C130.197 35.2817 130.273 35.0727 130.581 34.7974C130.881 34.5298 131.345 34.2534 131.962 34.0042C133.192 33.5074 134.947 33.1533 136.977 33.1533C140.84 33.1533 144.48 35.7469 146.202 38.1698L146.213 38.1847L146.224 38.1988C146.507 38.541 146.626 38.9891 146.551 39.4254C146.464 39.6599 146.275 39.8427 146.036 39.9209L146.019 39.9263L146.003 39.933L144.615 40.4981C144.614 40.4982 144.614 40.4983 144.614 40.4984C143.155 41.0866 141.546 41.1897 140.024 40.7925L139.516 40.6598C139.516 40.6598 139.516 40.6598 139.516 40.6598C137.781 40.2053 135.953 40.2416 134.237 40.7646C132.846 41.1846 131.361 41.1846 129.97 40.7646C129.97 40.7646 129.97 40.7645 129.97 40.7645L128.602 40.3467Z" stroke="#252422"/>
<path d="M123.055 44.0664L123.065 44.0727C123.487 44.3651 123.99 44.5198 124.503 44.5157L124.507 44.5157V44.5157H125.776H125.777V45.0157C126.935 45.0149 128.084 45.2255 129.167 45.6371L123.055 44.0664ZM123.055 44.0664L123.046 44.0605C121.885 43.3312 121.503 41.8196 122.174 40.6262C122.473 40.162 122.965 39.857 123.515 39.796L123.522 39.7952L123.529 39.7942L125.438 39.5246C125.447 39.7698 125.484 40.014 125.55 40.2521L125.55 40.2521L125.551 40.2585C125.881 41.3989 126.773 42.2898 127.914 42.618L129.278 43.0349L129.28 43.0355C131.122 43.5911 133.087 43.5911 134.928 43.0355L134.93 43.035C136.225 42.6393 137.605 42.6119 138.915 42.9555L138.916 42.9556L139.424 43.0884L139.424 43.0885C141.441 43.6142 143.574 43.4771 145.507 42.6975L145.509 42.6969L146.891 42.1343C147.82 41.7894 148.538 41.0331 148.833 40.0861L148.833 40.0862L148.837 40.0729C148.888 39.8931 148.923 39.7095 148.942 39.5244L149.71 39.6485L149.71 39.6486L149.715 39.6493C150.903 39.8291 152.018 40.3347 152.936 41.1101L152.944 41.1166L152.952 41.1228C153.359 41.439 153.62 41.9059 153.678 42.4178C153.735 42.9233 153.588 43.4304 153.271 43.8272C153.252 43.8472 153.219 43.8819 153.196 43.9084C152.176 45.0345 150.609 45.4898 149.145 45.0848L149.145 45.0847L149.138 45.0827L147.099 44.5539L147.099 44.5537C145.147 44.0497 143.089 44.142 141.19 44.8187L141.189 44.8191L137.272 46.2262C137.272 46.2264 137.271 46.2265 137.271 46.2267C135.549 46.8322 133.669 46.8133 131.96 46.1733L123.055 44.0664Z" fill="#252422"/>
<path d="M123.055 44.0664L123.065 44.0727C123.487 44.3651 123.99 44.5198 124.503 44.5157L124.507 44.5157V44.5157H125.776H125.777V45.0157C126.935 45.0149 128.084 45.2255 129.167 45.6371L123.055 44.0664ZM123.055 44.0664L123.046 44.0605C121.885 43.3312 121.503 41.8196 122.174 40.6262C122.473 40.162 122.965 39.857 123.515 39.796L123.522 39.7952L123.529 39.7942L125.438 39.5246C125.447 39.7698 125.484 40.014 125.55 40.2521L125.55 40.2521L125.551 40.2585C125.881 41.3989 126.773 42.2898 127.914 42.618L129.278 43.0349L129.28 43.0355C131.122 43.5911 133.087 43.5911 134.928 43.0355L134.93 43.035C136.225 42.6393 137.605 42.6119 138.915 42.9555L138.916 42.9556L139.424 43.0884L139.424 43.0885C141.441 43.6142 143.574 43.4771 145.507 42.6975L145.509 42.6969L146.891 42.1343C147.82 41.7894 148.538 41.0331 148.833 40.0861L148.833 40.0862L148.837 40.0729C148.888 39.8931 148.923 39.7095 148.942 39.5244L149.71 39.6485L149.71 39.6486L149.715 39.6493C150.903 39.8291 152.018 40.3347 152.936 41.1101L152.944 41.1166L152.952 41.1228C153.359 41.439 153.62 41.9059 153.678 42.4178C153.735 42.9233 153.588 43.4304 153.271 43.8272C153.252 43.8472 153.219 43.8819 153.196 43.9084C152.176 45.0345 150.609 45.4898 149.145 45.0848L149.145 45.0847L149.138 45.0827L147.099 44.5539L147.099 44.5537C145.147 44.0497 143.089 44.142 141.19 44.8187L141.189 44.8191L137.272 46.2262C137.272 46.2264 137.271 46.2265 137.271 46.2267C135.549 46.8322 133.669 46.8133 131.96 46.1733L123.055 44.0664Z" fill="#FFFCF2"/>
<path d="M123.055 44.0664L123.065 44.0727C123.487 44.3651 123.99 44.5198 124.503 44.5157L124.507 44.5157V44.5157H125.776H125.777V45.0157C126.935 45.0149 128.084 45.2255 129.167 45.6371L123.055 44.0664ZM123.055 44.0664L123.046 44.0605C121.885 43.3312 121.503 41.8196 122.174 40.6262C122.473 40.162 122.965 39.857 123.515 39.796L123.522 39.7952L123.529 39.7942L125.438 39.5246C125.447 39.7698 125.484 40.014 125.55 40.2521L125.55 40.2521L125.551 40.2585C125.881 41.3989 126.773 42.2898 127.914 42.618L129.278 43.0349L129.28 43.0355C131.122 43.5911 133.087 43.5911 134.928 43.0355L134.93 43.035C136.225 42.6393 137.605 42.6119 138.915 42.9555L138.916 42.9556L139.424 43.0884L139.424 43.0885C141.441 43.6142 143.574 43.4771 145.507 42.6975L145.509 42.6969L146.891 42.1343C147.82 41.7894 148.538 41.0331 148.833 40.0861L148.833 40.0862L148.837 40.0729C148.888 39.8931 148.923 39.7095 148.942 39.5244L149.71 39.6485L149.71 39.6486L149.715 39.6493C150.903 39.8291 152.018 40.3347 152.936 41.1101L152.944 41.1166L152.952 41.1228C153.359 41.439 153.62 41.9059 153.678 42.4178C153.735 42.9233 153.588 43.4304 153.271 43.8272C153.252 43.8472 153.219 43.8819 153.196 43.9084C152.176 45.0345 150.609 45.4898 149.145 45.0848L149.145 45.0847L149.138 45.0827L147.099 44.5539L147.099 44.5537C145.147 44.0497 143.089 44.142 141.19 44.8187L141.189 44.8191L137.272 46.2262C137.272 46.2264 137.271 46.2265 137.271 46.2267C135.549 46.8322 133.669 46.8133 131.96 46.1733L123.055 44.0664Z" stroke="#252422"/>
<path d="M134.696 49.0404C133.474 49.0425 132.261 48.8228 131.117 48.3919L131.114 48.3908L131.114 48.3908L128.501 47.3881C128.5 47.388 128.5 47.3879 128.5 47.3877C127.63 47.0577 126.708 46.8888 125.778 46.8895L125.778 46.8895H124.509C123.504 46.894 122.522 46.5878 121.698 46.0128L121.694 46.0102L121.694 46.0101C121.42 45.8153 121.165 45.5961 120.931 45.3555C120.894 45.3775 120.855 45.3975 120.815 45.4154L120.567 45.6284L120.558 45.6358L120.549 45.6427C120.045 46.0375 119.723 46.6214 119.66 47.2589C119.597 47.8964 119.797 48.5321 120.214 49.0185L120.221 49.0273L120.221 49.0274L120.271 49.0879C121.094 49.9635 122.342 50.2994 123.494 49.9545L123.504 49.9517L123.504 49.9518C123.526 49.9454 123.55 49.9397 123.573 49.9345C125.155 49.494 126.851 49.7678 128.214 50.6843C128.214 50.6844 128.214 50.6845 128.214 50.6846L128.859 51.1154C128.859 51.1156 128.859 51.1158 128.86 51.116C129.663 51.6468 130.658 51.7993 131.584 51.5331L131.585 51.5327C131.608 51.5262 131.633 51.5197 131.66 51.5138C133.311 51.0503 135.084 51.3724 136.466 52.388C137.584 53.194 138.255 54.4815 138.276 55.8599L138.276 55.8672H138.276V57.371C138.283 57.5863 138.384 57.7877 138.553 57.9221L138.558 57.9259L138.558 57.926C138.82 58.1404 139.149 58.2558 139.488 58.252L139.515 58.2517L139.542 58.2544C140.113 58.3101 140.625 57.9085 140.711 57.3444V53.9443V53.9196L140.713 53.895C140.854 52.4699 142.053 51.3841 143.485 51.3841C144.917 51.3841 146.116 52.47 146.257 53.895L146.259 53.9196V53.9443V55.3084C146.261 55.3312 146.272 55.3525 146.291 55.3667L146.3 55.3738L146.308 55.3813C146.404 55.463 146.526 55.5069 146.652 55.5049L146.682 55.5044L146.712 55.5074C146.873 55.524 147.02 55.4205 147.061 55.2671V52.076V52.0656L147.061 52.0553C147.104 51.0275 147.966 50.2263 148.993 50.2573C149.175 50.2567 149.356 50.281 149.531 50.3294L149.539 50.3316L149.539 50.3317C151.319 50.8556 153.243 50.3444 154.529 49.0065C154.954 48.5295 155.169 47.902 155.127 47.2648C155.075 46.7608 154.874 46.2876 154.553 45.9038C152.946 47.3886 150.677 47.9573 148.542 47.3801C148.541 47.3798 148.54 47.3796 148.539 47.3794L146.504 46.8513C146.504 46.8513 146.504 46.8513 146.503 46.8512C145.013 46.4663 143.442 46.5366 141.992 47.0531C141.992 47.0531 141.992 47.0532 141.992 47.0532L138.073 48.461L138.071 48.4615C136.988 48.847 135.846 49.0429 134.696 49.0404ZM134.696 49.0404C134.696 49.0404 134.695 49.0404 134.695 49.0404L134.696 48.5404L134.697 49.0404C134.697 49.0404 134.696 49.0404 134.696 49.0404Z" fill="#252422"/>
<path d="M134.696 49.0404C133.474 49.0425 132.261 48.8228 131.117 48.3919L131.114 48.3908L131.114 48.3908L128.501 47.3881C128.5 47.388 128.5 47.3879 128.5 47.3877C127.63 47.0577 126.708 46.8888 125.778 46.8895L125.778 46.8895H124.509C123.504 46.894 122.522 46.5878 121.698 46.0128L121.694 46.0102L121.694 46.0101C121.42 45.8153 121.165 45.5961 120.931 45.3555C120.894 45.3775 120.855 45.3975 120.815 45.4154L120.567 45.6284L120.558 45.6358L120.549 45.6427C120.045 46.0375 119.723 46.6214 119.66 47.2589C119.597 47.8964 119.797 48.5321 120.214 49.0185L120.221 49.0273L120.221 49.0274L120.271 49.0879C121.094 49.9635 122.342 50.2994 123.494 49.9545L123.504 49.9517L123.504 49.9518C123.526 49.9454 123.55 49.9397 123.573 49.9345C125.155 49.494 126.851 49.7678 128.214 50.6843C128.214 50.6844 128.214 50.6845 128.214 50.6846L128.859 51.1154C128.859 51.1156 128.859 51.1158 128.86 51.116C129.663 51.6468 130.658 51.7993 131.584 51.5331L131.585 51.5327C131.608 51.5262 131.633 51.5197 131.66 51.5138C133.311 51.0503 135.084 51.3724 136.466 52.388C137.584 53.194 138.255 54.4815 138.276 55.8599L138.276 55.8672H138.276V57.371C138.283 57.5863 138.384 57.7877 138.553 57.9221L138.558 57.9259L138.558 57.926C138.82 58.1404 139.149 58.2558 139.488 58.252L139.515 58.2517L139.542 58.2544C140.113 58.3101 140.625 57.9085 140.711 57.3444V53.9443V53.9196L140.713 53.895C140.854 52.4699 142.053 51.3841 143.485 51.3841C144.917 51.3841 146.116 52.47 146.257 53.895L146.259 53.9196V53.9443V55.3084C146.261 55.3312 146.272 55.3525 146.291 55.3667L146.3 55.3738L146.308 55.3813C146.404 55.463 146.526 55.5069 146.652 55.5049L146.682 55.5044L146.712 55.5074C146.873 55.524 147.02 55.4205 147.061 55.2671V52.076V52.0656L147.061 52.0553C147.104 51.0275 147.966 50.2263 148.993 50.2573C149.175 50.2567 149.356 50.281 149.531 50.3294L149.539 50.3316L149.539 50.3317C151.319 50.8556 153.243 50.3444 154.529 49.0065C154.954 48.5295 155.169 47.902 155.127 47.2648C155.075 46.7608 154.874 46.2876 154.553 45.9038C152.946 47.3886 150.677 47.9573 148.542 47.3801C148.541 47.3798 148.54 47.3796 148.539 47.3794L146.504 46.8513C146.504 46.8513 146.504 46.8513 146.503 46.8512C145.013 46.4663 143.442 46.5366 141.992 47.0531C141.992 47.0531 141.992 47.0532 141.992 47.0532L138.073 48.461L138.071 48.4615C136.988 48.847 135.846 49.0429 134.696 49.0404ZM134.696 49.0404C134.696 49.0404 134.695 49.0404 134.695 49.0404L134.696 48.5404L134.697 49.0404C134.697 49.0404 134.696 49.0404 134.696 49.0404Z" fill="#FFFCF2"/>
<path d="M134.696 49.0404C133.474 49.0425 132.261 48.8228 131.117 48.3919L131.114 48.3908L131.114 48.3908L128.501 47.3881C128.5 47.388 128.5 47.3879 128.5 47.3877C127.63 47.0577 126.708 46.8888 125.778 46.8895L125.778 46.8895H124.509C123.504 46.894 122.522 46.5878 121.698 46.0128L121.694 46.0102L121.694 46.0101C121.42 45.8153 121.165 45.5961 120.931 45.3555C120.894 45.3775 120.855 45.3975 120.815 45.4154L120.567 45.6284L120.558 45.6358L120.549 45.6427C120.045 46.0375 119.723 46.6214 119.66 47.2589C119.597 47.8964 119.797 48.5321 120.214 49.0185L120.221 49.0273L120.221 49.0274L120.271 49.0879C121.094 49.9635 122.342 50.2994 123.494 49.9545L123.504 49.9517L123.504 49.9518C123.526 49.9454 123.55 49.9397 123.573 49.9345C125.155 49.494 126.851 49.7678 128.214 50.6843C128.214 50.6844 128.214 50.6845 128.214 50.6846L128.859 51.1154C128.859 51.1156 128.859 51.1158 128.86 51.116C129.663 51.6468 130.658 51.7993 131.584 51.5331L131.585 51.5327C131.608 51.5262 131.633 51.5197 131.66 51.5138C133.311 51.0503 135.084 51.3724 136.466 52.388C137.584 53.194 138.255 54.4815 138.276 55.8599L138.276 55.8672H138.276V57.371C138.283 57.5863 138.384 57.7877 138.553 57.9221L138.558 57.9259L138.558 57.926C138.82 58.1404 139.149 58.2558 139.488 58.252L139.515 58.2517L139.542 58.2544C140.113 58.3101 140.625 57.9085 140.711 57.3444V53.9443V53.9196L140.713 53.895C140.854 52.4699 142.053 51.3841 143.485 51.3841C144.917 51.3841 146.116 52.47 146.257 53.895L146.259 53.9196V53.9443V55.3084C146.261 55.3312 146.272 55.3525 146.291 55.3667L146.3 55.3738L146.308 55.3813C146.404 55.463 146.526 55.5069 146.652 55.5049L146.682 55.5044L146.712 55.5074C146.873 55.524 147.02 55.4205 147.061 55.2671V52.076V52.0656L147.061 52.0553C147.104 51.0275 147.966 50.2263 148.993 50.2573C149.175 50.2567 149.356 50.281 149.531 50.3294L149.539 50.3316L149.539 50.3317C151.319 50.8556 153.243 50.3444 154.529 49.0065C154.954 48.5295 155.169 47.902 155.127 47.2648C155.075 46.7608 154.874 46.2876 154.553 45.9038C152.946 47.3886 150.677 47.9573 148.542 47.3801C148.541 47.3798 148.54 47.3796 148.539 47.3794L146.504 46.8513C146.504 46.8513 146.504 46.8513 146.503 46.8512C145.013 46.4663 143.442 46.5366 141.992 47.0531C141.992 47.0531 141.992 47.0532 141.992 47.0532L138.073 48.461L138.071 48.4615C136.988 48.847 135.846 49.0429 134.696 49.0404ZM134.696 49.0404C134.696 49.0404 134.695 49.0404 134.695 49.0404L134.696 48.5404L134.697 49.0404C134.697 49.0404 134.696 49.0404 134.696 49.0404Z" stroke="#252422"/>
<path d="M132.171 53.8332C132.194 53.8282 132.22 53.8219 132.247 53.814L132.247 53.814L132.251 53.8128C133.208 53.5273 134.243 53.7049 135.05 54.2931L135.05 54.2932L135.059 54.2994C135.575 54.6588 135.888 55.2433 135.901 55.8719L135.901 57.3781L135.901 57.3823C135.909 58.2962 136.321 59.1598 137.027 59.7404C137.715 60.3168 138.584 60.6304 139.481 60.6255C141.358 60.7188 142.963 59.287 143.082 57.4099L143.083 57.3941V57.3782V54.0246C143.15 53.8644 143.307 53.7573 143.484 53.7573C143.661 53.7573 143.818 53.8644 143.885 54.0246L143.885 55.3178L143.885 55.3212C143.89 56.0393 144.21 56.7189 144.76 57.1804C145.285 57.6347 145.957 57.8828 146.651 57.8784C148.115 57.9377 149.356 56.8089 149.433 55.3442L149.434 55.331V55.3178V52.75C151.696 53.22 154.048 52.6002 155.784 51.0834L156.336 53.9068C156.336 53.9073 156.336 53.9077 156.336 53.9082C156.867 56.7268 156.089 59.634 154.22 61.8102C151.55 64.8555 147.673 66.569 143.623 66.4938L143.623 66.4937H143.614H131.938V66.4936L131.927 66.4938C127.962 66.5816 124.155 64.9437 121.493 62.0048C119.619 59.9213 118.759 57.1172 119.142 54.3411L119.55 51.5586C120.879 52.4228 122.528 52.6874 124.082 52.2544C124.108 52.2487 124.135 52.242 124.163 52.2339C125.087 51.9679 126.082 52.1205 126.885 52.6515C126.885 52.6517 126.885 52.6519 126.886 52.6521L127.53 53.083C127.531 53.0831 127.531 53.0832 127.531 53.0833C128.894 53.9996 130.589 54.2735 132.171 53.8332Z" fill="#252422"/>
<path d="M132.171 53.8332C132.194 53.8282 132.22 53.8219 132.247 53.814L132.247 53.814L132.251 53.8128C133.208 53.5273 134.243 53.7049 135.05 54.2931L135.05 54.2932L135.059 54.2994C135.575 54.6588 135.888 55.2433 135.901 55.8719L135.901 57.3781L135.901 57.3823C135.909 58.2962 136.321 59.1598 137.027 59.7404C137.715 60.3168 138.584 60.6304 139.481 60.6255C141.358 60.7188 142.963 59.287 143.082 57.4099L143.083 57.3941V57.3782V54.0246C143.15 53.8644 143.307 53.7573 143.484 53.7573C143.661 53.7573 143.818 53.8644 143.885 54.0246L143.885 55.3178L143.885 55.3212C143.89 56.0393 144.21 56.7189 144.76 57.1804C145.285 57.6347 145.957 57.8828 146.651 57.8784C148.115 57.9377 149.356 56.8089 149.433 55.3442L149.434 55.331V55.3178V52.75C151.696 53.22 154.048 52.6002 155.784 51.0834L156.336 53.9068C156.336 53.9073 156.336 53.9077 156.336 53.9082C156.867 56.7268 156.089 59.634 154.22 61.8102C151.55 64.8555 147.673 66.569 143.623 66.4938L143.623 66.4937H143.614H131.938V66.4936L131.927 66.4938C127.962 66.5816 124.155 64.9437 121.493 62.0048C119.619 59.9213 118.759 57.1172 119.142 54.3411L119.55 51.5586C120.879 52.4228 122.528 52.6874 124.082 52.2544C124.108 52.2487 124.135 52.242 124.163 52.2339C125.087 51.9679 126.082 52.1205 126.885 52.6515C126.885 52.6517 126.885 52.6519 126.886 52.6521L127.53 53.083C127.531 53.0831 127.531 53.0832 127.531 53.0833C128.894 53.9996 130.589 54.2735 132.171 53.8332Z" fill="#FFFCF2"/>
<path d="M132.171 53.8332C132.194 53.8282 132.22 53.8219 132.247 53.814L132.247 53.814L132.251 53.8128C133.208 53.5273 134.243 53.7049 135.05 54.2931L135.05 54.2932L135.059 54.2994C135.575 54.6588 135.888 55.2433 135.901 55.8719L135.901 57.3781L135.901 57.3823C135.909 58.2962 136.321 59.1598 137.027 59.7404C137.715 60.3168 138.584 60.6304 139.481 60.6255C141.358 60.7188 142.963 59.287 143.082 57.4099L143.083 57.3941V57.3782V54.0246C143.15 53.8644 143.307 53.7573 143.484 53.7573C143.661 53.7573 143.818 53.8644 143.885 54.0246L143.885 55.3178L143.885 55.3212C143.89 56.0393 144.21 56.7189 144.76 57.1804C145.285 57.6347 145.957 57.8828 146.651 57.8784C148.115 57.9377 149.356 56.8089 149.433 55.3442L149.434 55.331V55.3178V52.75C151.696 53.22 154.048 52.6002 155.784 51.0834L156.336 53.9068C156.336 53.9073 156.336 53.9077 156.336 53.9082C156.867 56.7268 156.089 59.634 154.22 61.8102C151.55 64.8555 147.673 66.569 143.623 66.4938L143.623 66.4937H143.614H131.938V66.4936L131.927 66.4938C127.962 66.5816 124.155 64.9437 121.493 62.0048C119.619 59.9213 118.759 57.1172 119.142 54.3411L119.55 51.5586C120.879 52.4228 122.528 52.6874 124.082 52.2544C124.108 52.2487 124.135 52.242 124.163 52.2339C125.087 51.9679 126.082 52.1205 126.885 52.6515C126.885 52.6517 126.885 52.6519 126.886 52.6521L127.53 53.083C127.531 53.0831 127.531 53.0832 127.531 53.0833C128.894 53.9996 130.589 54.2735 132.171 53.8332Z" stroke="#252422"/>
</svg>
