<svg width="151" height="152" viewBox="0 0 151 152" fill="none" xmlns="http://www.w3.org/2000/svg">
<g clip-path="url(#clip0)">
<path d="M10.0041 121.954L9.99692 121.952L9.98963 121.95C9.63435 121.853 9.35319 121.582 9.24351 121.23C9.16896 120.945 9.24727 120.641 9.451 120.427L9.4511 120.428L9.45892 120.419L10.3962 119.388C11.1157 120.037 12.1235 120.556 13.3062 120.93C14.7327 121.381 16.456 121.635 18.3397 121.635H18.3513L18.3628 121.634C18.4218 121.631 18.4803 121.624 18.5379 121.613C18.5954 121.624 18.6539 121.631 18.7128 121.634L18.7244 121.635H18.736C20.0065 121.635 21.1674 121.316 22.0267 120.763C22.8839 120.212 23.4881 119.39 23.4881 118.4C23.4881 117.411 22.8839 116.589 22.0267 116.037C21.1688 115.486 20.0104 115.167 18.7424 115.166C17.522 115.136 16.3207 115.473 15.2941 116.133L15.2842 116.14L15.2745 116.147C14.7428 116.526 14.6185 117.264 14.9967 117.796C15.3713 118.323 16.0988 118.451 16.6304 118.087C17.2583 117.703 17.9847 117.51 18.7206 117.533L18.7283 117.533H18.736C19.4934 117.533 20.1354 117.699 20.5713 117.92C20.7901 118.031 20.9402 118.147 21.0292 118.247C21.0729 118.296 21.0969 118.335 21.1092 118.363C21.1152 118.376 21.1181 118.385 21.1194 118.391C21.1208 118.397 21.1208 118.4 21.1208 118.4C21.1208 118.4 21.1208 118.403 21.1194 118.409C21.1181 118.415 21.1152 118.425 21.1092 118.438C21.0969 118.465 21.0729 118.504 21.0292 118.553C20.9402 118.653 20.7901 118.769 20.5713 118.88C20.1354 119.101 19.4934 119.268 18.736 119.268H18.7244L18.7128 119.268C18.6538 119.271 18.5954 119.278 18.5378 119.29C18.4803 119.278 18.4218 119.271 18.3629 119.268L18.3513 119.268H18.3397C16.319 119.268 14.5726 118.915 13.3484 118.421C12.7344 118.173 12.2734 117.898 11.975 117.632C11.6679 117.358 11.5932 117.15 11.5932 117.033C11.5932 116.916 11.6679 116.708 11.975 116.434C12.2734 116.168 12.7345 115.893 13.3484 115.645C14.5726 115.151 16.3191 114.798 18.3397 114.798C22.1844 114.798 25.807 117.379 27.5203 119.791L27.5309 119.806L27.5426 119.82C27.8238 120.16 27.9421 120.605 27.8677 121.039C27.7811 121.271 27.593 121.453 27.356 121.53L27.3393 121.536L27.3231 121.542L25.9413 122.105C25.9411 122.105 25.9408 122.105 25.9406 122.105C24.4889 122.69 22.8874 122.793 21.3728 122.398L20.8678 122.266C19.1398 121.813 17.3203 121.849 15.6116 122.37C14.2273 122.788 12.7504 122.788 11.366 122.37C11.3658 122.37 11.3655 122.37 11.3652 122.37L10.0041 121.954Z" fill="#FFFCF2" stroke="#252422"/>
<path d="M4.48337 125.657L4.49248 125.663C4.91272 125.954 5.41247 126.108 5.92346 126.104L5.92748 126.104V126.104H7.19062H7.19095V126.604C8.34405 126.603 9.48765 126.813 10.5655 127.222L4.48337 125.657ZM4.48337 125.657L4.47399 125.651C3.31983 124.926 2.93912 123.423 3.60675 122.236C3.9041 121.774 4.39351 121.471 4.93953 121.411L4.94694 121.41L4.95432 121.409L6.85126 121.141M4.48337 125.657L6.85126 121.141M6.85126 121.141C6.86051 121.384 6.89769 121.626 6.96257 121.863L6.96253 121.863L6.96439 121.869C7.29268 123.005 8.18125 123.893 9.31729 124.219L10.6758 124.635L10.6775 124.635C12.5113 125.188 14.4674 125.188 16.3011 124.635L16.3027 124.635C17.5918 124.241 18.9649 124.213 20.2686 124.555L20.269 124.556L20.7744 124.688L20.7748 124.688C22.7832 125.211 24.9067 125.075 26.8316 124.299L26.8331 124.298L28.2085 123.738C29.1346 123.394 29.8493 122.641 30.1433 121.698L30.1435 121.698L30.1472 121.685C30.1975 121.506 30.2322 121.324 30.2512 121.141L31.014 121.264L31.014 121.264L31.0189 121.265C32.2012 121.443 33.3106 121.947 34.2241 122.718L34.2318 122.725L34.2398 122.731C34.644 123.045 34.9043 123.509 34.9617 124.018C35.0184 124.521 34.8725 125.025 34.5569 125.419C34.5377 125.439 34.505 125.474 34.4818 125.5C33.4681 126.621 31.9091 127.073 30.4527 126.67L30.4527 126.67L30.4449 126.668L28.4157 126.142L28.4152 126.142C26.4721 125.64 24.4232 125.732 22.5329 126.406L22.5317 126.406L18.6328 127.807C18.6323 127.807 18.6318 127.807 18.6313 127.807C16.918 128.41 15.0474 128.391 13.3465 127.754L6.85126 121.141Z" fill="#FFFCF2" stroke="#252422"/>
<path d="M2.36688 126.945C2.59912 127.184 2.85283 127.402 3.12508 127.595L3.12507 127.595L3.12893 127.598C3.94997 128.171 4.92778 128.476 5.92872 128.471H7.19143H7.19177C8.1173 128.471 9.03511 128.639 9.90034 128.967C9.9006 128.967 9.90086 128.967 9.90112 128.967L12.5027 129.965L12.5027 129.965L12.5055 129.967C13.6445 130.396 14.8518 130.614 16.0689 130.612M2.36688 126.945L27.8212 128.433C26.3384 128.05 24.7748 128.12 23.3322 128.634C23.332 128.634 23.3318 128.634 23.3316 128.634L19.4306 130.035L19.4292 130.036C18.3506 130.42 17.2138 130.615 16.0689 130.612M2.36688 126.945C2.33013 126.966 2.29212 126.986 2.25297 127.004L2.00601 127.215L1.99745 127.223L1.98856 127.23C1.48678 127.622 1.1673 128.203 1.10424 128.837C1.04119 129.471 1.24007 130.103 1.65478 130.587L1.66233 130.595L1.66223 130.596L1.71141 130.656C2.53049 131.527 3.77175 131.861 4.91796 131.518L4.92738 131.515L4.92741 131.515C4.95 131.509 4.97312 131.503 4.99691 131.498C6.57185 131.059 8.26024 131.332 9.61741 132.244C9.61759 132.244 9.61777 132.245 9.61795 132.245L10.2596 132.673C10.2599 132.674 10.2602 132.674 10.2606 132.674C11.0595 133.202 12.0497 133.354 12.9701 133.089L12.9718 133.088C12.9944 133.082 13.0195 133.076 13.0465 133.07C14.6904 132.608 16.4558 132.929 17.8323 133.94C18.9459 134.743 19.6142 136.025 19.6344 137.398L19.6345 137.405H19.6344V138.902C19.6416 139.116 19.7419 139.316 19.9092 139.449L19.914 139.453L19.914 139.453C20.1746 139.666 20.5018 139.781 20.8383 139.777L20.8655 139.777L20.8925 139.779C21.4597 139.835 21.9688 139.436 22.0534 138.875V135.491V135.467L22.0559 135.442C22.1965 134.022 23.3907 132.94 24.8174 132.94C26.2441 132.94 27.4383 134.022 27.5789 135.442L27.5814 135.467V135.491V136.849C27.5829 136.871 27.5938 136.892 27.6115 136.905L27.6206 136.912L27.6293 136.92C27.7241 137.001 27.8451 137.044 27.9697 137.042L27.9996 137.042L28.0293 137.045C28.1884 137.061 28.3338 136.959 28.3747 136.808V133.632V133.621L28.3751 133.611C28.4175 132.587 29.2765 131.788 30.2999 131.819C30.4809 131.818 30.6613 131.843 30.8359 131.891L30.8438 131.893L30.8438 131.893C32.6155 132.414 34.5298 131.906 35.8093 130.575C36.2314 130.1 36.4454 129.476 36.4034 128.843C36.3521 128.342 36.1522 127.872 35.8344 127.491C34.2342 128.968 31.9761 129.534 29.8505 128.959C29.8497 128.959 29.8488 128.959 29.848 128.959L27.8216 128.433L2.36688 126.945ZM16.0689 130.612C16.0685 130.612 16.0682 130.612 16.0679 130.612L16.069 130.112L16.0699 130.612C16.0696 130.612 16.0692 130.612 16.0689 130.612Z" fill="#FFFCF2" stroke="#252422"/>
<path d="M13.5559 135.383C13.5791 135.378 13.605 135.372 13.6323 135.364L13.6323 135.364L13.6361 135.363C14.5878 135.079 15.6176 135.256 16.4202 135.841L16.4202 135.841L16.4291 135.847C16.9422 136.204 17.2534 136.786 17.2665 137.411L17.2665 138.91L17.2666 138.914C17.2741 139.824 17.6848 140.685 18.3878 141.263C19.0726 141.837 19.9389 142.149 20.8323 142.145C22.7015 142.237 24.3004 140.811 24.4191 138.942L24.4201 138.926V138.91V135.572C24.4861 135.414 24.6416 135.308 24.8167 135.308C24.9918 135.308 25.1474 135.414 25.2134 135.572L25.2134 136.859L25.2134 136.862C25.2183 137.578 25.5369 138.255 26.0847 138.715C26.6077 139.167 27.2773 139.415 27.9688 139.41C29.4271 139.469 30.6635 138.345 30.7406 136.885L30.7413 136.872V136.859V134.306C32.9916 134.772 35.3309 134.156 37.0581 132.648L37.6067 135.455C37.6068 135.455 37.6068 135.456 37.6069 135.456C38.1358 138.261 37.3613 141.154 35.5018 143.32C32.844 146.351 28.9853 148.056 24.9549 147.981V147.981H24.9456H13.3234V147.981L13.3124 147.981C9.36687 148.069 5.57788 146.439 2.92836 143.514C1.06305 141.44 0.207254 138.65 0.589294 135.887L0.99467 133.121C2.31728 133.98 3.95851 134.243 5.50416 133.812C5.53061 133.806 5.5575 133.8 5.58473 133.792C6.50459 133.527 7.49416 133.679 8.2924 134.207C8.29267 134.207 8.29295 134.207 8.29322 134.207L8.93515 134.636C8.93534 134.636 8.93553 134.637 8.93572 134.637C10.2928 135.549 11.981 135.822 13.5559 135.383Z" fill="#FFFCF2" stroke="#252422"/>
<path d="M48.2665 121.923L48.2737 121.925L49.6348 122.341C49.6349 122.341 49.6351 122.341 49.6353 122.341C51.0197 122.759 52.4967 122.759 53.8811 122.341C55.5897 121.821 57.4093 121.784 59.1372 122.237C59.1373 122.237 59.1373 122.237 59.1374 122.237L59.6423 122.369C61.1568 122.764 62.7583 122.662 64.21 122.076C64.2102 122.076 64.2105 122.076 64.2108 122.076L65.5926 121.514L65.6089 121.507L65.6255 121.501C65.8626 121.424 66.0506 121.243 66.1373 121.01C66.2116 120.576 66.0933 120.131 65.8121 119.791L65.8005 119.777L65.7898 119.762C64.0766 117.351 60.4539 114.77 56.6092 114.77C54.5886 114.77 52.8422 115.122 51.618 115.616C51.004 115.864 50.5429 116.139 50.2445 116.405C49.9374 116.679 49.8627 116.887 49.8627 117.004C49.8627 117.122 49.9374 117.329 50.2445 117.603C50.5429 117.869 51.004 118.144 51.6179 118.392C52.8421 118.886 54.5886 119.239 56.6092 119.239H56.6208L56.6324 119.239C56.6913 119.242 56.7498 119.249 56.8074 119.261C56.8649 119.249 56.9234 119.242 56.9824 119.239L56.9939 119.239H57.0055C57.7629 119.239 58.4049 119.072 58.8409 118.851C59.0596 118.74 59.2097 118.624 59.2988 118.524C59.3425 118.475 59.3664 118.436 59.3787 118.409C59.3847 118.396 59.3876 118.386 59.389 118.38C59.3903 118.374 59.3903 118.372 59.3903 118.371C59.3903 118.371 59.3903 118.368 59.389 118.362C59.3876 118.357 59.3847 118.347 59.3787 118.334C59.3664 118.307 59.3425 118.267 59.2988 118.218C59.2097 118.119 59.0596 118.002 58.8409 117.892C58.4049 117.67 57.7629 117.504 57.0055 117.504H56.9978L56.9901 117.504C56.2542 117.481 55.5278 117.674 54.8999 118.058C54.3684 118.422 53.6408 118.294 53.2662 117.767L48.2665 121.923ZM48.2665 121.923L48.2592 121.921M48.2665 121.923L48.2592 121.921M48.2592 121.921C47.9039 121.824 47.6227 121.553 47.513 121.202C47.4385 120.916 47.5168 120.612 47.7205 120.399L47.7206 120.399L47.7285 120.39L48.6657 119.359C49.3852 120.008 50.393 120.528 51.5757 120.902C53.0022 121.353 54.7255 121.606 56.6092 121.606H56.6208L56.6324 121.605C56.6914 121.603 56.7499 121.595 56.8074 121.584C56.8649 121.595 56.9234 121.603 56.9823 121.605L56.9939 121.606H57.0055C58.276 121.606 59.4369 121.287 60.2962 120.734C61.1534 120.183 61.7577 119.361 61.7577 118.371C61.7577 117.382 61.1534 116.56 60.2962 116.008C59.4384 115.457 58.2799 115.138 57.0119 115.137C55.7915 115.107 54.5902 115.444 53.5636 116.105L53.5537 116.111M48.2592 121.921L53.5537 116.111M53.5537 116.111L53.5441 116.118M53.5537 116.111L53.5441 116.118M53.5441 116.118C53.0123 116.497 52.888 117.235 53.2662 117.767L53.5441 116.118Z" fill="#FFFCF2" stroke="#252422"/>
<path d="M42.7529 125.628L42.762 125.635C43.1823 125.925 43.682 126.079 44.193 126.075L44.197 126.075V126.075H45.4602H45.4605V126.575C46.6136 126.574 47.7572 126.784 48.8351 127.194L42.7529 125.628ZM42.7529 125.628L42.7435 125.622C41.5894 124.897 41.2087 123.394 41.8763 122.207C42.1736 121.746 42.663 121.442 43.2091 121.382L43.2165 121.381L43.2239 121.38L45.1208 121.112M42.7529 125.628L45.1208 121.112M45.1208 121.112C45.13 121.355 45.1672 121.598 45.2321 121.834L45.2321 121.834L45.2339 121.84C45.5622 122.976 46.4508 123.864 47.5868 124.191L48.9454 124.606L48.9471 124.606C50.7808 125.159 52.7369 125.159 54.5706 124.606L54.5722 124.606C55.8613 124.212 57.2344 124.185 58.5382 124.527L58.5385 124.527L59.0439 124.659L59.0443 124.659C61.0527 125.182 63.1763 125.046 65.1011 124.27L65.1026 124.269L66.4781 123.709C67.4041 123.366 68.1189 122.612 68.4129 121.669L68.413 121.669L68.4168 121.656C68.467 121.477 68.5017 121.295 68.5207 121.112L69.2835 121.235L69.2835 121.235L69.2885 121.236C70.4707 121.415 71.5802 121.918 72.4936 122.689L72.5014 122.696L72.5093 122.702C72.9135 123.016 73.1738 123.48 73.2312 123.989C73.2879 124.492 73.1421 124.996 72.8264 125.391C72.8072 125.411 72.7745 125.445 72.7513 125.471C71.7376 126.592 70.1786 127.045 68.7222 126.642L68.7222 126.642L68.7144 126.64L66.6852 126.113L66.6847 126.113C64.7416 125.611 62.6927 125.703 60.8024 126.377L60.8012 126.377L56.9023 127.778C56.9018 127.778 56.9013 127.778 56.9008 127.778C55.1875 128.381 53.3169 128.362 51.616 127.725L45.1208 121.112Z" fill="#FFFCF2" stroke="#252422"/>
<path d="M40.6364 126.916C40.8686 127.155 41.1224 127.373 41.3946 127.567L41.3946 127.567L41.3985 127.569C42.2195 128.142 43.1973 128.447 44.1983 128.442H45.461H45.4613C46.3868 128.442 47.3046 128.61 48.1699 128.938C48.1701 128.938 48.1704 128.938 48.1707 128.939L50.7722 129.937L50.7722 129.937L50.7751 129.938C51.914 130.367 53.1213 130.586 54.3384 130.583M40.6364 126.916L66.0907 128.404C64.6079 128.021 63.0443 128.091 61.6017 128.605C61.6015 128.605 61.6014 128.605 61.6012 128.605L57.7001 130.007L57.6987 130.007C56.6201 130.391 55.4833 130.586 54.3384 130.583M40.6364 126.916C40.5997 126.938 40.5616 126.957 40.5225 126.975L40.2755 127.187L40.267 127.194L40.2581 127.201C39.7563 127.593 39.4368 128.174 39.3738 128.808C39.3107 129.442 39.5096 130.074 39.9243 130.558L39.9319 130.567L39.9318 130.567L39.9809 130.627C40.8 131.498 42.0413 131.832 43.1875 131.489L43.1969 131.486L43.1969 131.486C43.2195 131.48 43.2427 131.474 43.2664 131.469C44.8414 131.03 46.5298 131.303 47.8869 132.215C47.8871 132.216 47.8873 132.216 47.8875 132.216L48.5292 132.645C48.5295 132.645 48.5298 132.645 48.5301 132.645C49.3291 133.173 50.3192 133.325 51.2397 133.06L51.2413 133.06C51.2639 133.053 51.289 133.047 51.316 133.041C52.96 132.579 54.7253 132.9 56.1019 133.912C57.2154 134.714 57.8837 135.996 57.9039 137.369L57.904 137.377H57.904V138.873C57.9112 139.087 58.0115 139.287 58.1787 139.42L58.1835 139.424L58.1835 139.424C58.4441 139.637 58.7713 139.752 59.1079 139.748L59.135 139.748L59.1621 139.75C59.7292 139.806 60.2383 139.407 60.323 138.847V135.462V135.438L60.3254 135.413C60.4661 133.993 61.6603 132.912 63.0869 132.912C64.5136 132.912 65.7078 133.994 65.8484 135.413L65.8509 135.438V135.462V136.82C65.8525 136.842 65.8634 136.863 65.881 136.877L65.8901 136.884L65.8988 136.891C65.9936 136.972 66.1147 137.016 66.2392 137.014L66.2691 137.013L66.2988 137.016C66.4579 137.032 66.6033 136.93 66.6442 136.779V133.603V133.592L66.6446 133.582C66.687 132.558 67.546 131.759 68.5694 131.79C68.7505 131.79 68.9308 131.814 69.1054 131.862L69.1134 131.864L69.1133 131.864C70.8851 132.385 72.7994 131.877 74.0788 130.546C74.5009 130.071 74.7149 129.447 74.6729 128.814C74.6216 128.313 74.4217 127.844 74.104 127.462C72.5037 128.94 70.2456 129.505 68.1201 128.931C68.1192 128.93 68.1184 128.93 68.1175 128.93L66.0912 128.404L40.6364 126.916ZM54.3384 130.583C54.3381 130.583 54.3377 130.583 54.3374 130.583L54.3385 130.083L54.3395 130.583C54.3391 130.583 54.3388 130.583 54.3384 130.583Z" fill="#FFFCF2" stroke="#252422"/>
<path d="M51.8254 135.355C51.8487 135.35 51.8745 135.343 51.9018 135.335L51.9018 135.335L51.9056 135.334C52.8573 135.05 53.8871 135.227 54.6898 135.812L54.6897 135.812L54.6986 135.818C55.2117 136.176 55.523 136.757 55.5361 137.382L55.536 138.881L55.5361 138.885C55.5437 139.796 55.9543 140.656 56.6573 141.234C57.3422 141.808 58.2085 142.121 59.1018 142.116C60.971 142.209 62.5699 140.782 62.6886 138.913L62.6896 138.897V138.881V135.543C62.7557 135.385 62.9112 135.279 63.0863 135.279C63.2614 135.279 63.4169 135.385 63.4829 135.543L63.4829 136.83L63.4829 136.834C63.4878 137.549 63.8065 138.226 64.3543 138.686C64.8772 139.139 65.5469 139.386 66.2384 139.381C67.6966 139.44 68.933 138.316 69.0102 136.857L69.0109 136.843V136.83V134.277C71.2611 134.744 73.6004 134.127 75.3277 132.62L75.8762 135.426C75.8763 135.427 75.8764 135.427 75.8765 135.427C76.4053 138.232 75.6309 141.126 73.7714 143.291C71.1135 146.322 67.2549 148.027 63.2244 147.952V147.952H63.2151H51.593V147.952L51.5819 147.952C47.6364 148.04 43.8474 146.41 41.1979 143.485C39.3326 141.411 38.4768 138.621 38.8588 135.858L39.2642 133.092C40.5868 133.951 42.228 134.214 43.7737 133.783C43.8001 133.777 43.827 133.771 43.8543 133.763C44.7741 133.498 45.7637 133.65 46.5619 134.178C46.5622 134.178 46.5625 134.178 46.5628 134.179L47.2047 134.608C47.2049 134.608 47.2051 134.608 47.2053 134.608C48.5623 135.52 50.2506 135.793 51.8254 135.355Z" fill="#FFFCF2" stroke="#252422"/>
<path d="M28.8694 87.9678L28.8622 87.9656L28.8549 87.9636C28.4996 87.8667 28.2184 87.5954 28.1087 87.244C28.0342 86.9588 28.1125 86.6549 28.3162 86.4411L28.3163 86.4412L28.3242 86.4326L29.2614 85.402C29.9809 86.0508 30.9887 86.5701 32.1714 86.944C33.5979 87.3951 35.3212 87.6484 37.2049 87.6484H37.2165L37.2281 87.6479C37.2871 87.6452 37.3456 87.6379 37.4031 87.6264C37.4606 87.6379 37.5191 87.6452 37.578 87.6479L37.5896 87.6484H37.6012C38.8717 87.6484 40.0326 87.3293 40.8919 86.7767C41.7491 86.2255 42.3534 85.4034 42.3534 84.4139C42.3534 83.4243 41.7491 82.6022 40.8919 82.051C40.0341 81.4993 38.8756 81.1803 37.6076 81.1793C36.3872 81.1492 35.1859 81.4863 34.1593 82.1471L34.1494 82.1535L34.1398 82.1603C33.608 82.5393 33.4837 83.2774 33.8619 83.8096C34.2365 84.3369 34.9641 84.4649 35.4956 84.1004C36.1235 83.7162 36.8499 83.5236 37.5858 83.5463L37.5935 83.5465H37.6012C38.3586 83.5465 39.0006 83.7129 39.4366 83.934C39.6553 84.0449 39.8054 84.1611 39.8945 84.2608C39.9382 84.3098 39.9621 84.3491 39.9744 84.3762C39.9804 84.3894 39.9833 84.399 39.9847 84.4049C39.986 84.4108 39.986 84.4136 39.986 84.4139C39.986 84.4142 39.986 84.4169 39.9847 84.4228C39.9833 84.4287 39.9804 84.4383 39.9744 84.4515C39.9621 84.4786 39.9382 84.5179 39.8945 84.5669C39.8054 84.6666 39.6553 84.7828 39.4366 84.8937C39.0006 85.1148 38.3586 85.2812 37.6012 85.2812H37.5896L37.5781 85.2817C37.5191 85.2845 37.4606 85.2917 37.4031 85.3032C37.3455 85.2917 37.287 85.2845 37.2281 85.2817L37.2165 85.2812H37.2049C35.1843 85.2812 33.4378 84.9287 32.2136 84.4343C31.5997 84.1864 31.1386 83.9114 30.8402 83.6453C30.5331 83.3714 30.4584 83.164 30.4584 83.0466C30.4584 82.9292 30.5331 82.7218 30.8402 82.4479C31.1386 82.1818 31.5997 81.9068 32.2137 81.6589C33.4379 81.1644 35.1843 80.812 37.2049 80.812C41.0496 80.812 44.6722 83.3932 46.3855 85.8044L46.3961 85.8194L46.4078 85.8335C46.689 86.1735 46.8073 86.6187 46.733 87.0523C46.6463 87.285 46.4582 87.4663 46.2212 87.5439L46.2046 87.5494L46.1883 87.556L44.8065 88.1185C44.8062 88.1187 44.8059 88.1188 44.8057 88.1189C43.354 88.7041 41.7525 88.8067 40.238 88.4115L39.733 88.2794C38.005 87.8269 36.1853 87.863 34.4765 88.3838C33.0923 88.8017 31.6155 88.8017 30.2313 88.3839C30.231 88.3838 30.2307 88.3837 30.2305 88.3836L28.8694 87.9678Z" fill="#FFFCF2" stroke="#252422"/>
<path d="M23.3486 91.6707L23.3577 91.677C23.778 91.9678 24.2777 92.1217 24.7887 92.1176L24.7927 92.1176V92.1176H26.0559H26.0562V92.6176C27.2093 92.6168 28.3529 92.8264 29.4308 93.2361L23.3486 91.6707ZM23.3486 91.6707L23.3392 91.6648C22.1851 90.9396 21.8044 89.4363 22.472 88.2495C22.7693 87.7881 23.2587 87.4849 23.8048 87.4243L23.8122 87.4234L23.8196 87.4224L25.7165 87.1544M23.3486 91.6707L25.7165 87.1544M25.7165 87.1544C25.7257 87.3978 25.7629 87.6402 25.8278 87.8765L25.8278 87.8765L25.8296 87.883C26.1579 89.0188 27.0465 89.9063 28.1825 90.2331L29.5411 90.6482L29.5428 90.6487C31.3765 91.2019 33.3326 91.2019 35.1663 90.6487L35.1679 90.6482C36.457 90.2545 37.8301 90.2272 39.1339 90.5691L39.1342 90.5692L39.6396 90.7014L39.64 90.7015C41.6484 91.2249 43.772 91.0885 45.6968 90.3123L45.6983 90.3116L47.0738 89.7516C47.9998 89.4081 48.7146 88.6547 49.0086 87.7114L49.0087 87.7114L49.0125 87.6982C49.0627 87.5198 49.0975 87.3378 49.1164 87.1542L49.8793 87.2774L49.8793 87.2775L49.8842 87.2782C51.0664 87.4571 52.1759 87.9602 53.0894 88.7317L53.0971 88.7382L53.105 88.7444C53.5092 89.0588 53.7695 89.523 53.8269 90.0319C53.8836 90.5345 53.7378 91.0386 53.4221 91.433C53.403 91.453 53.3702 91.4875 53.3471 91.5139C52.3333 92.6342 50.7743 93.087 49.3179 92.6842L49.3179 92.6841L49.3101 92.6821L47.2809 92.1557L47.2804 92.1555C45.3373 91.6537 43.2884 91.7456 41.3981 92.4194L41.3969 92.4198L37.498 93.8204C37.4975 93.8205 37.497 93.8207 37.4966 93.8209C35.7832 94.4234 33.9126 94.4046 32.2117 93.7677L25.7165 87.1544Z" fill="#FFFCF2" stroke="#252422"/>
<path d="M34.9341 96.6259C33.717 96.628 32.5097 96.4092 31.3708 95.9803L31.3679 95.9792L31.3679 95.9792L28.7664 94.981C28.7661 94.9809 28.7658 94.9808 28.7656 94.9807C27.9003 94.6522 26.9825 94.4842 26.057 94.4848H26.0567H24.794C23.793 94.4893 22.8152 94.1844 21.9942 93.6118L21.9903 93.6092L21.9903 93.6091C21.7181 93.4155 21.4644 93.1976 21.2321 92.9586C21.1954 92.9801 21.1573 92.9997 21.1182 93.0172L20.8712 93.229L20.8627 93.2364L20.8538 93.2433C20.352 93.6359 20.0325 94.2165 19.9695 94.8505C19.9064 95.4844 20.1053 96.1166 20.52 96.6003L20.5276 96.6091L20.5275 96.6092L20.5766 96.6693C21.3957 97.5402 22.637 97.8743 23.7832 97.5313L23.7926 97.5284L23.7926 97.5285C23.8152 97.5223 23.8384 97.5165 23.8621 97.5113C25.4371 97.0727 27.1255 97.3453 28.4826 98.258C28.4828 98.2581 28.483 98.2582 28.4832 98.2583L29.1249 98.6871C29.1252 98.6873 29.1255 98.6875 29.1258 98.6877C29.9248 99.2157 30.9149 99.3674 31.8354 99.1026L31.837 99.1022C31.8596 99.0957 31.8847 99.0893 31.9117 99.0834C33.5557 98.6218 35.321 98.9426 36.6976 99.954C37.8111 100.757 38.4794 102.039 38.4996 103.412L38.4997 103.419H38.4997V104.916C38.5069 105.129 38.6072 105.329 38.7744 105.463L38.7793 105.466L38.7792 105.466C39.0398 105.68 39.367 105.794 39.7036 105.791L39.7307 105.79L39.7578 105.793C40.3249 105.848 40.834 105.449 40.9187 104.889V101.505V101.48L40.9211 101.456C41.0618 100.036 42.256 98.9542 43.6826 98.9542C45.1093 98.9542 46.3035 100.036 46.4442 101.456L46.4466 101.48V101.505V102.863C46.4482 102.885 46.4591 102.905 46.4767 102.919L46.4858 102.926L46.4945 102.934C46.5893 103.015 46.7104 103.058 46.8349 103.056L46.8648 103.055L46.8945 103.059C47.0536 103.075 47.199 102.973 47.2399 102.821V99.6452V99.6349L47.2403 99.6245C47.2827 98.6002 48.1417 97.8017 49.1651 97.8326C49.3462 97.832 49.5265 97.8562 49.7011 97.9044L49.7091 97.9066L49.709 97.9067C51.4808 98.428 53.3951 97.9194 54.6745 96.5883C55.0966 96.1139 55.3106 95.4899 55.2686 94.8563C55.2173 94.356 55.0174 93.8861 54.6997 93.5048C53.0994 94.982 50.8413 95.5477 48.7158 94.9731C48.7149 94.9729 48.7141 94.9727 48.7132 94.9724L46.6869 94.4468C46.6868 94.4468 46.6867 94.4468 46.6866 94.4467C45.2037 94.0637 43.6401 94.1336 42.1974 94.6475C42.1972 94.6476 42.1971 94.6477 42.1969 94.6477L38.2958 96.049L38.2944 96.0495C37.2158 96.4333 36.079 96.6283 34.9341 96.6259ZM34.9341 96.6259C34.9338 96.6259 34.9334 96.6259 34.9331 96.6259L34.9342 96.1259L34.9352 96.6259C34.9348 96.6259 34.9345 96.6259 34.9341 96.6259Z" fill="#FFFCF2" stroke="#252422"/>
<path d="M32.4212 101.397C32.4444 101.392 32.4702 101.386 32.4975 101.378L32.4975 101.378L32.5013 101.377C33.453 101.093 34.4828 101.269 35.2855 101.855L35.2854 101.855L35.2943 101.861C35.8074 102.218 36.1187 102.799 36.1318 103.424L36.1318 104.924L36.1318 104.928C36.1394 105.838 36.55 106.698 37.253 107.277C37.9379 107.851 38.8042 108.163 39.6975 108.158C41.5667 108.251 43.1656 106.825 43.2843 104.955L43.2854 104.939V104.924V101.586C43.3514 101.428 43.5069 101.322 43.682 101.322C43.8571 101.322 44.0126 101.428 44.0786 101.586L44.0786 102.873L44.0786 102.876C44.0835 103.592 44.4022 104.269 44.95 104.728C45.4729 105.181 46.1426 105.428 46.8341 105.424C48.2923 105.483 49.5287 104.358 49.6059 102.899L49.6066 102.886V102.873V100.32C51.8568 100.786 54.1961 100.17 55.9234 98.6621L56.4719 101.469C56.472 101.469 56.4721 101.469 56.4722 101.47C57.001 104.275 56.2266 107.168 54.3671 109.334C51.7092 112.364 47.8506 114.07 43.8201 113.995V113.995H43.8108H32.1887V113.995L32.1776 113.995C28.2321 114.082 24.4431 112.452 21.7936 109.527C19.9283 107.454 19.0725 104.663 19.4545 101.901L19.8599 99.1347C21.1825 99.9936 22.8237 100.256 24.3694 99.8256C24.3958 99.8199 24.4227 99.8132 24.45 99.8052C25.3698 99.5406 26.3594 99.6924 27.1576 100.221C27.1579 100.221 27.1582 100.221 27.1585 100.221L27.8004 100.65C27.8006 100.65 27.8008 100.65 27.801 100.65C29.158 101.563 30.8463 101.835 32.4212 101.397Z" fill="#FFFCF2" stroke="#252422"/>
</g>
<g clip-path="url(#clip1)">
<path d="M85.0041 45.9541L84.9969 45.9519L84.9896 45.95C84.6344 45.8531 84.3532 45.5817 84.2435 45.2304C84.169 44.9451 84.2473 44.6413 84.451 44.4274L84.4511 44.4275L84.4589 44.4189L85.3962 43.3883C86.1157 44.0372 87.1235 44.5564 88.3062 44.9304C89.7327 45.3814 91.456 45.6348 93.3397 45.6348H93.3513L93.3628 45.6342C93.4218 45.6315 93.4803 45.6243 93.5379 45.6127C93.5954 45.6243 93.6539 45.6315 93.7128 45.6342L93.7244 45.6348H93.736C95.0065 45.6348 96.1674 45.3157 97.0267 44.7631C97.8839 44.2118 98.4881 43.3897 98.4881 42.4002C98.4881 41.4106 97.8839 40.5886 97.0267 40.0373C96.1688 39.4856 95.0104 39.1667 93.7424 39.1656C92.522 39.1355 91.3207 39.4726 90.2941 40.1334L90.2842 40.1398L90.2745 40.1467C89.7428 40.5257 89.6185 41.2637 89.9967 41.7959C90.3713 42.3233 91.0988 42.4512 91.6304 42.0867C92.2583 41.7025 92.9847 41.5099 93.7206 41.5326L93.7283 41.5329H93.736C94.4934 41.5329 95.1354 41.6992 95.5713 41.9203C95.7901 42.0313 95.9402 42.1474 96.0292 42.2472C96.0729 42.2961 96.0969 42.3354 96.1092 42.3625C96.1152 42.3758 96.1181 42.3853 96.1194 42.3913C96.1208 42.3971 96.1208 42.3999 96.1208 42.4002C96.1208 42.4005 96.1208 42.4033 96.1194 42.4091C96.1181 42.4151 96.1152 42.4246 96.1092 42.4378C96.0969 42.4649 96.0729 42.5043 96.0292 42.5532C95.9402 42.6529 95.7901 42.7691 95.5713 42.88C95.1354 43.1012 94.4934 43.2675 93.736 43.2675H93.7244L93.7128 43.268C93.6538 43.2708 93.5954 43.278 93.5378 43.2895C93.4803 43.278 93.4218 43.2708 93.3629 43.268L93.3513 43.2675H93.3397C91.319 43.2675 89.5726 42.9151 88.3484 42.4207C87.7344 42.1727 87.2734 41.8977 86.975 41.6316C86.6679 41.3577 86.5932 41.1503 86.5932 41.0329C86.5932 40.9155 86.6679 40.7081 86.975 40.4343C87.2734 40.1682 87.7345 39.8932 88.3484 39.6452C89.5726 39.1508 91.3191 38.7983 93.3397 38.7983C97.1844 38.7983 100.807 41.3795 102.52 43.7908L102.531 43.8057L102.543 43.8198C102.824 44.1598 102.942 44.605 102.868 45.0387C102.781 45.2713 102.593 45.4527 102.356 45.5303L102.339 45.5357L102.323 45.5423L100.941 46.1049C100.941 46.105 100.941 46.105 100.941 46.1051C99.4889 46.6905 97.8874 46.7931 96.3728 46.3979L95.8678 46.2658C94.1398 45.8132 92.3203 45.8494 90.6116 46.3701C89.2273 46.788 87.7504 46.7881 86.366 46.3702C86.3658 46.3701 86.3655 46.37 86.3652 46.37L85.0041 45.9541Z" fill="#252422"/>
<path d="M85.0041 45.9541L84.9969 45.9519L84.9896 45.95C84.6344 45.8531 84.3532 45.5817 84.2435 45.2304C84.169 44.9451 84.2473 44.6413 84.451 44.4274L84.4511 44.4275L84.4589 44.4189L85.3962 43.3883C86.1157 44.0372 87.1235 44.5564 88.3062 44.9304C89.7327 45.3814 91.456 45.6348 93.3397 45.6348H93.3513L93.3628 45.6342C93.4218 45.6315 93.4803 45.6243 93.5379 45.6127C93.5954 45.6243 93.6539 45.6315 93.7128 45.6342L93.7244 45.6348H93.736C95.0065 45.6348 96.1674 45.3157 97.0267 44.7631C97.8839 44.2118 98.4881 43.3897 98.4881 42.4002C98.4881 41.4106 97.8839 40.5886 97.0267 40.0373C96.1688 39.4856 95.0104 39.1667 93.7424 39.1656C92.522 39.1355 91.3207 39.4726 90.2941 40.1334L90.2842 40.1398L90.2745 40.1467C89.7428 40.5257 89.6185 41.2637 89.9967 41.7959C90.3713 42.3233 91.0988 42.4512 91.6304 42.0867C92.2583 41.7025 92.9847 41.5099 93.7206 41.5326L93.7283 41.5329H93.736C94.4934 41.5329 95.1354 41.6992 95.5713 41.9203C95.7901 42.0313 95.9402 42.1474 96.0292 42.2472C96.0729 42.2961 96.0969 42.3354 96.1092 42.3625C96.1152 42.3758 96.1181 42.3853 96.1194 42.3913C96.1208 42.3971 96.1208 42.3999 96.1208 42.4002C96.1208 42.4005 96.1208 42.4033 96.1194 42.4091C96.1181 42.4151 96.1152 42.4246 96.1092 42.4378C96.0969 42.4649 96.0729 42.5043 96.0292 42.5532C95.9402 42.6529 95.7901 42.7691 95.5713 42.88C95.1354 43.1012 94.4934 43.2675 93.736 43.2675H93.7244L93.7128 43.268C93.6538 43.2708 93.5954 43.278 93.5378 43.2895C93.4803 43.278 93.4218 43.2708 93.3629 43.268L93.3513 43.2675H93.3397C91.319 43.2675 89.5726 42.9151 88.3484 42.4207C87.7344 42.1727 87.2734 41.8977 86.975 41.6316C86.6679 41.3577 86.5932 41.1503 86.5932 41.0329C86.5932 40.9155 86.6679 40.7081 86.975 40.4343C87.2734 40.1682 87.7345 39.8932 88.3484 39.6452C89.5726 39.1508 91.3191 38.7983 93.3397 38.7983C97.1844 38.7983 100.807 41.3795 102.52 43.7908L102.531 43.8057L102.543 43.8198C102.824 44.1598 102.942 44.605 102.868 45.0387C102.781 45.2713 102.593 45.4527 102.356 45.5303L102.339 45.5357L102.323 45.5423L100.941 46.1049C100.941 46.105 100.941 46.105 100.941 46.1051C99.4889 46.6905 97.8874 46.7931 96.3728 46.3979L95.8678 46.2658C94.1398 45.8132 92.3203 45.8494 90.6116 46.3701C89.2273 46.788 87.7504 46.7881 86.366 46.3702C86.3658 46.3701 86.3655 46.37 86.3652 46.37L85.0041 45.9541Z" fill="#FFFCF2"/>
<path d="M85.0041 45.9541L84.9969 45.9519L84.9896 45.95C84.6344 45.8531 84.3532 45.5817 84.2435 45.2304C84.169 44.9451 84.2473 44.6413 84.451 44.4274L84.4511 44.4275L84.4589 44.4189L85.3962 43.3883C86.1157 44.0372 87.1235 44.5564 88.3062 44.9304C89.7327 45.3814 91.456 45.6348 93.3397 45.6348H93.3513L93.3628 45.6342C93.4218 45.6315 93.4803 45.6243 93.5379 45.6127C93.5954 45.6243 93.6539 45.6315 93.7128 45.6342L93.7244 45.6348H93.736C95.0065 45.6348 96.1674 45.3157 97.0267 44.7631C97.8839 44.2118 98.4881 43.3897 98.4881 42.4002C98.4881 41.4106 97.8839 40.5886 97.0267 40.0373C96.1688 39.4856 95.0104 39.1667 93.7424 39.1656C92.522 39.1355 91.3207 39.4726 90.2941 40.1334L90.2842 40.1398L90.2745 40.1467C89.7428 40.5257 89.6185 41.2637 89.9967 41.7959C90.3713 42.3233 91.0988 42.4512 91.6304 42.0867C92.2583 41.7025 92.9847 41.5099 93.7206 41.5326L93.7283 41.5329H93.736C94.4934 41.5329 95.1354 41.6992 95.5713 41.9203C95.7901 42.0313 95.9402 42.1474 96.0292 42.2472C96.0729 42.2961 96.0969 42.3354 96.1092 42.3625C96.1152 42.3758 96.1181 42.3853 96.1194 42.3913C96.1208 42.3971 96.1208 42.3999 96.1208 42.4002C96.1208 42.4005 96.1208 42.4033 96.1194 42.4091C96.1181 42.4151 96.1152 42.4246 96.1092 42.4378C96.0969 42.4649 96.0729 42.5043 96.0292 42.5532C95.9402 42.6529 95.7901 42.7691 95.5713 42.88C95.1354 43.1012 94.4934 43.2675 93.736 43.2675H93.7244L93.7128 43.268C93.6538 43.2708 93.5954 43.278 93.5378 43.2895C93.4803 43.278 93.4218 43.2708 93.3629 43.268L93.3513 43.2675H93.3397C91.319 43.2675 89.5726 42.9151 88.3484 42.4207C87.7344 42.1727 87.2734 41.8977 86.975 41.6316C86.6679 41.3577 86.5932 41.1503 86.5932 41.0329C86.5932 40.9155 86.6679 40.7081 86.975 40.4343C87.2734 40.1682 87.7345 39.8932 88.3484 39.6452C89.5726 39.1508 91.3191 38.7983 93.3397 38.7983C97.1844 38.7983 100.807 41.3795 102.52 43.7908L102.531 43.8057L102.543 43.8198C102.824 44.1598 102.942 44.605 102.868 45.0387C102.781 45.2713 102.593 45.4527 102.356 45.5303L102.339 45.5357L102.323 45.5423L100.941 46.1049C100.941 46.105 100.941 46.105 100.941 46.1051C99.4889 46.6905 97.8874 46.7931 96.3728 46.3979L95.8678 46.2658C94.1398 45.8132 92.3203 45.8494 90.6116 46.3701C89.2273 46.788 87.7504 46.7881 86.366 46.3702C86.3658 46.3701 86.3655 46.37 86.3652 46.37L85.0041 45.9541Z" stroke="#252422"/>
<path d="M79.4834 49.6571L79.4925 49.6634C79.9127 49.9542 80.4125 50.108 80.9235 50.1039L80.9275 50.1039V50.1039H82.1906H82.1909V50.6039C83.344 50.6032 84.4877 50.8128 85.5655 51.2225L79.4834 49.6571ZM79.4834 49.6571L79.474 49.6512C78.3198 48.9259 77.9391 47.4226 78.6067 46.2358C78.9041 45.7744 79.3935 45.4712 79.9395 45.4106L79.9469 45.4098L79.9543 45.4087L81.8513 45.1407M79.4834 49.6571L81.8513 45.1407M81.8513 45.1407C81.8605 45.3842 81.8977 45.6265 81.9626 45.8628L81.9625 45.8629L81.9644 45.8693C82.2927 47.0052 83.1812 47.8926 84.3173 48.2195L85.6758 48.6345L85.6775 48.635C87.5113 49.1882 89.4674 49.1882 91.3011 48.635L91.3027 48.6345C92.5918 48.2409 93.9649 48.2135 95.2686 48.5555L95.269 48.5556L95.7744 48.6878L95.7748 48.6879C97.7832 49.2113 99.9067 49.0748 101.832 48.2986L101.833 48.2979L103.209 47.7379C104.135 47.3944 104.849 46.641 105.143 45.6977L105.144 45.6978L105.147 45.6846C105.198 45.5062 105.232 45.3242 105.251 45.1406L106.014 45.2638L106.014 45.2638L106.019 45.2645C107.201 45.4434 108.311 45.9465 109.224 46.7181L109.232 46.7246L109.24 46.7308C109.644 47.0451 109.904 47.5093 109.962 48.0183C110.018 48.5208 109.873 49.0249 109.557 49.4194C109.538 49.4393 109.505 49.4739 109.482 49.5002C108.468 50.6205 106.909 51.0734 105.453 50.6705L105.453 50.6704L105.445 50.6684L103.416 50.142L103.415 50.1419C101.472 49.64 99.4232 49.732 97.5329 50.4057L97.5317 50.4061L93.6328 51.8067C93.6323 51.8069 93.6318 51.807 93.6313 51.8072C91.918 52.4098 90.0474 52.3909 88.3465 51.7541L81.8513 45.1407Z" fill="#252422"/>
<path d="M79.4834 49.6571L79.4925 49.6634C79.9127 49.9542 80.4125 50.108 80.9235 50.1039L80.9275 50.1039V50.1039H82.1906H82.1909V50.6039C83.344 50.6032 84.4877 50.8128 85.5655 51.2225L79.4834 49.6571ZM79.4834 49.6571L79.474 49.6512C78.3198 48.9259 77.9391 47.4226 78.6067 46.2358C78.9041 45.7744 79.3935 45.4712 79.9395 45.4106L79.9469 45.4098L79.9543 45.4087L81.8513 45.1407M79.4834 49.6571L81.8513 45.1407M81.8513 45.1407C81.8605 45.3842 81.8977 45.6265 81.9626 45.8628L81.9625 45.8629L81.9644 45.8693C82.2927 47.0052 83.1812 47.8926 84.3173 48.2195L85.6758 48.6345L85.6775 48.635C87.5113 49.1882 89.4674 49.1882 91.3011 48.635L91.3027 48.6345C92.5918 48.2409 93.9649 48.2135 95.2686 48.5555L95.269 48.5556L95.7744 48.6878L95.7748 48.6879C97.7832 49.2113 99.9067 49.0748 101.832 48.2986L101.833 48.2979L103.209 47.7379C104.135 47.3944 104.849 46.641 105.143 45.6977L105.144 45.6978L105.147 45.6846C105.198 45.5062 105.232 45.3242 105.251 45.1406L106.014 45.2638L106.014 45.2638L106.019 45.2645C107.201 45.4434 108.311 45.9465 109.224 46.7181L109.232 46.7246L109.24 46.7308C109.644 47.0451 109.904 47.5093 109.962 48.0183C110.018 48.5208 109.873 49.0249 109.557 49.4194C109.538 49.4393 109.505 49.4739 109.482 49.5002C108.468 50.6205 106.909 51.0734 105.453 50.6705L105.453 50.6704L105.445 50.6684L103.416 50.142L103.415 50.1419C101.472 49.64 99.4232 49.732 97.5329 50.4057L97.5317 50.4061L93.6328 51.8067C93.6323 51.8069 93.6318 51.807 93.6313 51.8072C91.918 52.4098 90.0474 52.3909 88.3465 51.7541L81.8513 45.1407Z" fill="#FFFCF2"/>
<path d="M79.4834 49.6571L79.4925 49.6634C79.9127 49.9542 80.4125 50.108 80.9235 50.1039L80.9275 50.1039V50.1039H82.1906H82.1909V50.6039C83.344 50.6032 84.4877 50.8128 85.5655 51.2225L79.4834 49.6571ZM79.4834 49.6571L79.474 49.6512C78.3198 48.9259 77.9391 47.4226 78.6067 46.2358C78.9041 45.7744 79.3935 45.4712 79.9395 45.4106L79.9469 45.4098L79.9543 45.4087L81.8513 45.1407M79.4834 49.6571L81.8513 45.1407M81.8513 45.1407C81.8605 45.3842 81.8977 45.6265 81.9626 45.8628L81.9625 45.8629L81.9644 45.8693C82.2927 47.0052 83.1812 47.8926 84.3173 48.2195L85.6758 48.6345L85.6775 48.635C87.5113 49.1882 89.4674 49.1882 91.3011 48.635L91.3027 48.6345C92.5918 48.2409 93.9649 48.2135 95.2686 48.5555L95.269 48.5556L95.7744 48.6878L95.7748 48.6879C97.7832 49.2113 99.9067 49.0748 101.832 48.2986L101.833 48.2979L103.209 47.7379C104.135 47.3944 104.849 46.641 105.143 45.6977L105.144 45.6978L105.147 45.6846C105.198 45.5062 105.232 45.3242 105.251 45.1406L106.014 45.2638L106.014 45.2638L106.019 45.2645C107.201 45.4434 108.311 45.9465 109.224 46.7181L109.232 46.7246L109.24 46.7308C109.644 47.0451 109.904 47.5093 109.962 48.0183C110.018 48.5208 109.873 49.0249 109.557 49.4194C109.538 49.4393 109.505 49.4739 109.482 49.5002C108.468 50.6205 106.909 51.0734 105.453 50.6705L105.453 50.6704L105.445 50.6684L103.416 50.142L103.415 50.1419C101.472 49.64 99.4232 49.732 97.5329 50.4057L97.5317 50.4061L93.6328 51.8067C93.6323 51.8069 93.6318 51.807 93.6313 51.8072C91.918 52.4098 90.0474 52.3909 88.3465 51.7541L81.8513 45.1407Z" stroke="#252422"/>
<path d="M77.3669 50.9449C77.5991 51.184 77.8528 51.4018 78.1251 51.5955L78.1251 51.5955L78.1289 51.5982C78.95 52.1708 79.9278 52.4757 80.9287 52.4712H82.1914H82.1918C83.1173 52.4705 84.0351 52.6386 84.9003 52.967C84.9006 52.9671 84.9009 52.9672 84.9011 52.9673L87.5027 53.9655L87.5027 53.9655L87.5055 53.9666C88.6445 54.3955 89.8518 54.6144 91.0689 54.6122M77.3669 50.9449L102.821 52.433C101.338 52.05 99.7748 52.12 98.3322 52.6339C98.332 52.6339 98.3318 52.634 98.3316 52.634L94.4306 54.0353L94.4292 54.0358C93.3506 54.4197 92.2138 54.6147 91.0689 54.6122M77.3669 50.9449C77.3301 50.9664 77.2921 50.986 77.253 51.0035L77.006 51.2154L76.9974 51.2227L76.9886 51.2297C76.4868 51.6223 76.1673 52.2028 76.1042 52.8368C76.0412 53.4708 76.2401 54.1029 76.6548 54.5866L76.6623 54.5954L76.6622 54.5955L76.7114 54.6557C77.5305 55.5265 78.7717 55.8606 79.918 55.5176L79.9274 55.5148L79.9274 55.5149C79.95 55.5086 79.9731 55.5028 79.9969 55.4976C81.5719 55.0591 83.2602 55.3316 84.6174 56.2443C84.6176 56.2444 84.6178 56.2445 84.6179 56.2447L85.2596 56.6734C85.2599 56.6736 85.2602 56.6738 85.2606 56.674C86.0595 57.2021 87.0497 57.3537 87.9701 57.089L87.9718 57.0885C87.9944 57.0821 88.0195 57.0756 88.0465 57.0697C89.6904 56.6081 91.4558 56.929 92.8323 57.9403C93.9459 58.7431 94.6142 60.0253 94.6344 61.398L94.6345 61.4053H94.6344V62.9022C94.6416 63.1158 94.7419 63.3156 94.9092 63.4489L94.914 63.4528L94.914 63.4528C95.1746 63.6659 95.5018 63.7806 95.8383 63.7769L95.8655 63.7766L95.8925 63.7792C96.4597 63.8346 96.9688 63.4357 97.0534 62.8755V59.4913V59.4666L97.0559 59.442C97.1965 58.0222 98.3907 56.9405 99.8174 56.9405C101.244 56.9405 102.438 58.0223 102.579 59.442L102.581 59.4665V59.4913V60.8489C102.583 60.871 102.594 60.8916 102.612 60.9053L102.621 60.9124L102.629 60.9198C102.724 61.0008 102.845 61.0444 102.97 61.0423L103 61.0418L103.029 61.0449C103.188 61.0613 103.334 60.9591 103.375 60.8076V57.6315V57.6212L103.375 57.6109C103.418 56.5865 104.276 55.788 105.3 55.8189C105.481 55.8183 105.661 55.8425 105.836 55.8908L105.844 55.893L105.844 55.893C107.616 56.4143 109.53 55.9057 110.809 54.5746C111.231 54.1002 111.445 53.4763 111.403 52.8427C111.352 52.3423 111.152 51.8724 110.834 51.4911C109.234 52.9684 106.976 53.534 104.851 52.9594C104.85 52.9592 104.849 52.959 104.848 52.9587L102.822 52.4331L77.3669 50.9449ZM91.0689 54.6122C91.0685 54.6122 91.0682 54.6122 91.0679 54.6122L91.069 54.1122L91.0699 54.6122C91.0696 54.6122 91.0692 54.6122 91.0689 54.6122Z" fill="#252422"/>
<path d="M77.3669 50.9449C77.5991 51.184 77.8528 51.4018 78.1251 51.5955L78.1251 51.5955L78.1289 51.5982C78.95 52.1708 79.9278 52.4757 80.9287 52.4712H82.1914H82.1918C83.1173 52.4705 84.0351 52.6386 84.9003 52.967C84.9006 52.9671 84.9009 52.9672 84.9011 52.9673L87.5027 53.9655L87.5027 53.9655L87.5055 53.9666C88.6445 54.3955 89.8518 54.6144 91.0689 54.6122M77.3669 50.9449L102.821 52.433C101.338 52.05 99.7748 52.12 98.3322 52.6339C98.332 52.6339 98.3318 52.634 98.3316 52.634L94.4306 54.0353L94.4292 54.0358C93.3506 54.4197 92.2138 54.6147 91.0689 54.6122M77.3669 50.9449C77.3301 50.9664 77.2921 50.986 77.253 51.0035L77.006 51.2154L76.9974 51.2227L76.9886 51.2297C76.4868 51.6223 76.1673 52.2028 76.1042 52.8368C76.0412 53.4708 76.2401 54.1029 76.6548 54.5866L76.6623 54.5954L76.6622 54.5955L76.7114 54.6557C77.5305 55.5265 78.7717 55.8606 79.918 55.5176L79.9274 55.5148L79.9274 55.5149C79.95 55.5086 79.9731 55.5028 79.9969 55.4976C81.5719 55.0591 83.2602 55.3316 84.6174 56.2443C84.6176 56.2444 84.6178 56.2445 84.6179 56.2447L85.2596 56.6734C85.2599 56.6736 85.2602 56.6738 85.2606 56.674C86.0595 57.2021 87.0497 57.3537 87.9701 57.089L87.9718 57.0885C87.9944 57.0821 88.0195 57.0756 88.0465 57.0697C89.6904 56.6081 91.4558 56.929 92.8323 57.9403C93.9459 58.7431 94.6142 60.0253 94.6344 61.398L94.6345 61.4053H94.6344V62.9022C94.6416 63.1158 94.7419 63.3156 94.9092 63.4489L94.914 63.4528L94.914 63.4528C95.1746 63.6659 95.5018 63.7806 95.8383 63.7769L95.8655 63.7766L95.8925 63.7792C96.4597 63.8346 96.9688 63.4357 97.0534 62.8755V59.4913V59.4666L97.0559 59.442C97.1965 58.0222 98.3907 56.9405 99.8174 56.9405C101.244 56.9405 102.438 58.0223 102.579 59.442L102.581 59.4665V59.4913V60.8489C102.583 60.871 102.594 60.8916 102.612 60.9053L102.621 60.9124L102.629 60.9198C102.724 61.0008 102.845 61.0444 102.97 61.0423L103 61.0418L103.029 61.0449C103.188 61.0613 103.334 60.9591 103.375 60.8076V57.6315V57.6212L103.375 57.6109C103.418 56.5865 104.276 55.788 105.3 55.8189C105.481 55.8183 105.661 55.8425 105.836 55.8908L105.844 55.893L105.844 55.893C107.616 56.4143 109.53 55.9057 110.809 54.5746C111.231 54.1002 111.445 53.4763 111.403 52.8427C111.352 52.3423 111.152 51.8724 110.834 51.4911C109.234 52.9684 106.976 53.534 104.851 52.9594C104.85 52.9592 104.849 52.959 104.848 52.9587L102.822 52.4331L77.3669 50.9449ZM91.0689 54.6122C91.0685 54.6122 91.0682 54.6122 91.0679 54.6122L91.069 54.1122L91.0699 54.6122C91.0696 54.6122 91.0692 54.6122 91.0689 54.6122Z" fill="#FFFCF2"/>
<path d="M77.3669 50.9449C77.5991 51.184 77.8528 51.4018 78.1251 51.5955L78.1251 51.5955L78.1289 51.5982C78.95 52.1708 79.9278 52.4757 80.9287 52.4712H82.1914H82.1918C83.1173 52.4705 84.0351 52.6386 84.9003 52.967C84.9006 52.9671 84.9009 52.9672 84.9011 52.9673L87.5027 53.9655L87.5027 53.9655L87.5055 53.9666C88.6445 54.3955 89.8518 54.6144 91.0689 54.6122M77.3669 50.9449L102.821 52.433C101.338 52.05 99.7748 52.12 98.3322 52.6339C98.332 52.6339 98.3318 52.634 98.3316 52.634L94.4306 54.0353L94.4292 54.0358C93.3506 54.4197 92.2138 54.6147 91.0689 54.6122M77.3669 50.9449C77.3301 50.9664 77.2921 50.986 77.253 51.0035L77.006 51.2154L76.9974 51.2227L76.9886 51.2297C76.4868 51.6223 76.1673 52.2028 76.1042 52.8368C76.0412 53.4708 76.2401 54.1029 76.6548 54.5866L76.6623 54.5954L76.6622 54.5955L76.7114 54.6557C77.5305 55.5265 78.7717 55.8606 79.918 55.5176L79.9274 55.5148L79.9274 55.5149C79.95 55.5086 79.9731 55.5028 79.9969 55.4976C81.5719 55.0591 83.2602 55.3316 84.6174 56.2443C84.6176 56.2444 84.6178 56.2445 84.6179 56.2447L85.2596 56.6734C85.2599 56.6736 85.2602 56.6738 85.2606 56.674C86.0595 57.2021 87.0497 57.3537 87.9701 57.089L87.9718 57.0885C87.9944 57.0821 88.0195 57.0756 88.0465 57.0697C89.6904 56.6081 91.4558 56.929 92.8323 57.9403C93.9459 58.7431 94.6142 60.0253 94.6344 61.398L94.6345 61.4053H94.6344V62.9022C94.6416 63.1158 94.7419 63.3156 94.9092 63.4489L94.914 63.4528L94.914 63.4528C95.1746 63.6659 95.5018 63.7806 95.8383 63.7769L95.8655 63.7766L95.8925 63.7792C96.4597 63.8346 96.9688 63.4357 97.0534 62.8755V59.4913V59.4666L97.0559 59.442C97.1965 58.0222 98.3907 56.9405 99.8174 56.9405C101.244 56.9405 102.438 58.0223 102.579 59.442L102.581 59.4665V59.4913V60.8489C102.583 60.871 102.594 60.8916 102.612 60.9053L102.621 60.9124L102.629 60.9198C102.724 61.0008 102.845 61.0444 102.97 61.0423L103 61.0418L103.029 61.0449C103.188 61.0613 103.334 60.9591 103.375 60.8076V57.6315V57.6212L103.375 57.6109C103.418 56.5865 104.276 55.788 105.3 55.8189C105.481 55.8183 105.661 55.8425 105.836 55.8908L105.844 55.893L105.844 55.893C107.616 56.4143 109.53 55.9057 110.809 54.5746C111.231 54.1002 111.445 53.4763 111.403 52.8427C111.352 52.3423 111.152 51.8724 110.834 51.4911C109.234 52.9684 106.976 53.534 104.851 52.9594C104.85 52.9592 104.849 52.959 104.848 52.9587L102.822 52.4331L77.3669 50.9449ZM91.0689 54.6122C91.0685 54.6122 91.0682 54.6122 91.0679 54.6122L91.069 54.1122L91.0699 54.6122C91.0696 54.6122 91.0692 54.6122 91.0689 54.6122Z" stroke="#252422"/>
<path d="M88.5559 59.3834C88.5791 59.3784 88.605 59.3722 88.6323 59.3643L88.6323 59.3643L88.6361 59.3632C89.5878 59.0791 90.6176 59.2558 91.4202 59.8409L91.4202 59.841L91.4291 59.8472C91.9422 60.2044 92.2534 60.7856 92.2665 61.4106L92.2665 62.9098L92.2666 62.914C92.2741 63.8244 92.6848 64.6846 93.3878 65.263C94.0726 65.8371 94.9389 66.1494 95.8323 66.1446C97.7015 66.2375 99.3004 64.8113 99.4191 62.9416L99.4201 62.9258V62.9099V59.5722C99.4861 59.4138 99.6416 59.308 99.8167 59.308C99.9918 59.308 100.147 59.4138 100.213 59.5722L100.213 60.859L100.213 60.8624C100.218 61.5779 100.537 62.2549 101.085 62.7147C101.608 63.1673 102.277 63.4145 102.969 63.4101C104.427 63.4692 105.664 62.3446 105.741 60.8854L105.741 60.8722V60.859V58.3058C107.992 58.7724 110.331 58.1562 112.058 56.6484L112.607 59.4549C112.607 59.4553 112.607 59.4558 112.607 59.4563C113.136 62.2612 112.361 65.1544 110.502 67.32C107.844 70.3507 103.985 72.0561 99.9549 71.9812V71.9811H99.9456H88.3234V71.981L88.3124 71.9813C84.3669 72.0687 80.5779 70.4385 77.9284 67.5137C76.0631 65.4403 75.2073 62.6497 75.5893 59.8871L75.9947 57.121C77.3173 57.98 78.9585 58.2427 80.5042 57.8119C80.5306 57.8063 80.5575 57.7995 80.5847 57.7915C81.5046 57.5269 82.4942 57.6787 83.2924 58.2069C83.2927 58.2071 83.2929 58.2072 83.2932 58.2074L83.9352 58.6364C83.9353 58.6365 83.9355 58.6366 83.9357 58.6367C85.2928 59.5491 86.981 59.8218 88.5559 59.3834Z" fill="#252422"/>
<path d="M88.5559 59.3834C88.5791 59.3784 88.605 59.3722 88.6323 59.3643L88.6323 59.3643L88.6361 59.3632C89.5878 59.0791 90.6176 59.2558 91.4202 59.8409L91.4202 59.841L91.4291 59.8472C91.9422 60.2044 92.2534 60.7856 92.2665 61.4106L92.2665 62.9098L92.2666 62.914C92.2741 63.8244 92.6848 64.6846 93.3878 65.263C94.0726 65.8371 94.9389 66.1494 95.8323 66.1446C97.7015 66.2375 99.3004 64.8113 99.4191 62.9416L99.4201 62.9258V62.9099V59.5722C99.4861 59.4138 99.6416 59.308 99.8167 59.308C99.9918 59.308 100.147 59.4138 100.213 59.5722L100.213 60.859L100.213 60.8624C100.218 61.5779 100.537 62.2549 101.085 62.7147C101.608 63.1673 102.277 63.4145 102.969 63.4101C104.427 63.4692 105.664 62.3446 105.741 60.8854L105.741 60.8722V60.859V58.3058C107.992 58.7724 110.331 58.1562 112.058 56.6484L112.607 59.4549C112.607 59.4553 112.607 59.4558 112.607 59.4563C113.136 62.2612 112.361 65.1544 110.502 67.32C107.844 70.3507 103.985 72.0561 99.9549 71.9812V71.9811H99.9456H88.3234V71.981L88.3124 71.9813C84.3669 72.0687 80.5779 70.4385 77.9284 67.5137C76.0631 65.4403 75.2073 62.6497 75.5893 59.8871L75.9947 57.121C77.3173 57.98 78.9585 58.2427 80.5042 57.8119C80.5306 57.8063 80.5575 57.7995 80.5847 57.7915C81.5046 57.5269 82.4942 57.6787 83.2924 58.2069C83.2927 58.2071 83.2929 58.2072 83.2932 58.2074L83.9352 58.6364C83.9353 58.6365 83.9355 58.6366 83.9357 58.6367C85.2928 59.5491 86.981 59.8218 88.5559 59.3834Z" fill="#FFFCF2"/>
<path d="M88.5559 59.3834C88.5791 59.3784 88.605 59.3722 88.6323 59.3643L88.6323 59.3643L88.6361 59.3632C89.5878 59.0791 90.6176 59.2558 91.4202 59.8409L91.4202 59.841L91.4291 59.8472C91.9422 60.2044 92.2534 60.7856 92.2665 61.4106L92.2665 62.9098L92.2666 62.914C92.2741 63.8244 92.6848 64.6846 93.3878 65.263C94.0726 65.8371 94.9389 66.1494 95.8323 66.1446C97.7015 66.2375 99.3004 64.8113 99.4191 62.9416L99.4201 62.9258V62.9099V59.5722C99.4861 59.4138 99.6416 59.308 99.8167 59.308C99.9918 59.308 100.147 59.4138 100.213 59.5722L100.213 60.859L100.213 60.8624C100.218 61.5779 100.537 62.2549 101.085 62.7147C101.608 63.1673 102.277 63.4145 102.969 63.4101C104.427 63.4692 105.664 62.3446 105.741 60.8854L105.741 60.8722V60.859V58.3058C107.992 58.7724 110.331 58.1562 112.058 56.6484L112.607 59.4549C112.607 59.4553 112.607 59.4558 112.607 59.4563C113.136 62.2612 112.361 65.1544 110.502 67.32C107.844 70.3507 103.985 72.0561 99.9549 71.9812V71.9811H99.9456H88.3234V71.981L88.3124 71.9813C84.3669 72.0687 80.5779 70.4385 77.9284 67.5137C76.0631 65.4403 75.2073 62.6497 75.5893 59.8871L75.9947 57.121C77.3173 57.98 78.9585 58.2427 80.5042 57.8119C80.5306 57.8063 80.5575 57.7995 80.5847 57.7915C81.5046 57.5269 82.4942 57.6787 83.2924 58.2069C83.2927 58.2071 83.2929 58.2072 83.2932 58.2074L83.9352 58.6364C83.9353 58.6365 83.9355 58.6366 83.9357 58.6367C85.2928 59.5491 86.981 59.8218 88.5559 59.3834Z" stroke="#252422"/>
<path d="M123.266 45.9231L123.274 45.9253L124.635 46.3411C124.635 46.3412 124.635 46.3413 124.635 46.3413C126.02 46.7593 127.497 46.7593 128.881 46.3413C130.59 45.8206 132.409 45.7844 134.137 46.2369C134.137 46.2369 134.137 46.2369 134.137 46.237L134.642 46.369C136.157 46.7643 137.758 46.6617 139.21 46.0764C139.21 46.0763 139.211 46.0762 139.211 46.0761L140.593 45.5135L140.609 45.5069L140.626 45.5015C140.863 45.4238 141.051 45.2425 141.137 45.0098C141.212 44.5762 141.093 44.131 140.812 43.791L140.8 43.7769L140.79 43.762C139.077 41.3507 135.454 38.7695 131.609 38.7695C129.589 38.7695 127.842 39.122 126.618 39.6164C126.004 39.8644 125.543 40.1394 125.245 40.4054C124.937 40.6793 124.863 40.8867 124.863 41.0041C124.863 41.1215 124.937 41.3289 125.245 41.6028C125.543 41.8689 126.004 42.1439 126.618 42.3919C127.842 42.8863 129.589 43.2387 131.609 43.2387H131.621L131.632 43.2392C131.691 43.242 131.75 43.2492 131.807 43.2607C131.865 43.2492 131.923 43.242 131.982 43.2392L131.994 43.2387H132.006C132.763 43.2387 133.405 43.0724 133.841 42.8512C134.06 42.7403 134.21 42.6241 134.299 42.5244C134.342 42.4754 134.366 42.4361 134.379 42.409C134.385 42.3958 134.388 42.3862 134.389 42.3803C134.39 42.3745 134.39 42.3717 134.39 42.3714C134.39 42.3711 134.39 42.3683 134.389 42.3625C134.388 42.3565 134.385 42.3469 134.379 42.3337C134.366 42.3066 134.342 42.2673 134.299 42.2184C134.21 42.1186 134.06 42.0025 133.841 41.8915C133.405 41.6704 132.763 41.504 132.006 41.504H131.998L131.99 41.5038C131.254 41.4811 130.528 41.6737 129.9 42.0579C129.368 42.4224 128.641 42.2945 128.266 41.7671L123.266 45.9231ZM123.266 45.9231L123.259 45.9211M123.266 45.9231L123.259 45.9211M123.259 45.9211C122.904 45.8242 122.623 45.5529 122.513 45.2016C122.438 44.9163 122.517 44.6125 122.721 44.3986L122.721 44.3987L122.728 44.3901L123.666 43.3595C124.385 44.0084 125.393 44.5276 126.576 44.9016C128.002 45.3526 129.726 45.606 131.609 45.606H131.621L131.632 45.6054C131.691 45.6027 131.75 45.5955 131.807 45.5839C131.865 45.5955 131.923 45.6027 131.982 45.6054L131.994 45.606H132.006C133.276 45.606 134.437 45.2869 135.296 44.7343C136.153 44.183 136.758 43.3609 136.758 42.3714C136.758 41.3818 136.153 40.5598 135.296 40.0085C134.438 39.4568 133.28 39.1379 132.012 39.1368C130.792 39.1067 129.59 39.4438 128.564 40.1046L128.554 40.111M123.259 45.9211L128.554 40.111M128.554 40.111L128.544 40.1179M128.554 40.111L128.544 40.1179M128.544 40.1179C128.012 40.4968 127.888 41.2348 128.266 41.7671L128.544 40.1179Z" fill="#252422"/>
<path d="M123.266 45.9231L123.274 45.9253L124.635 46.3411C124.635 46.3412 124.635 46.3413 124.635 46.3413C126.02 46.7593 127.497 46.7593 128.881 46.3413C130.59 45.8206 132.409 45.7844 134.137 46.2369C134.137 46.2369 134.137 46.2369 134.137 46.237L134.642 46.369C136.157 46.7643 137.758 46.6617 139.21 46.0764C139.21 46.0763 139.211 46.0762 139.211 46.0761L140.593 45.5135L140.609 45.5069L140.626 45.5015C140.863 45.4238 141.051 45.2425 141.137 45.0098C141.212 44.5762 141.093 44.131 140.812 43.791L140.8 43.7769L140.79 43.762C139.077 41.3507 135.454 38.7695 131.609 38.7695C129.589 38.7695 127.842 39.122 126.618 39.6164C126.004 39.8644 125.543 40.1394 125.245 40.4054C124.937 40.6793 124.863 40.8867 124.863 41.0041C124.863 41.1215 124.937 41.3289 125.245 41.6028C125.543 41.8689 126.004 42.1439 126.618 42.3919C127.842 42.8863 129.589 43.2387 131.609 43.2387H131.621L131.632 43.2392C131.691 43.242 131.75 43.2492 131.807 43.2607C131.865 43.2492 131.923 43.242 131.982 43.2392L131.994 43.2387H132.006C132.763 43.2387 133.405 43.0724 133.841 42.8512C134.06 42.7403 134.21 42.6241 134.299 42.5244C134.342 42.4754 134.366 42.4361 134.379 42.409C134.385 42.3958 134.388 42.3862 134.389 42.3803C134.39 42.3745 134.39 42.3717 134.39 42.3714C134.39 42.3711 134.39 42.3683 134.389 42.3625C134.388 42.3565 134.385 42.3469 134.379 42.3337C134.366 42.3066 134.342 42.2673 134.299 42.2184C134.21 42.1186 134.06 42.0025 133.841 41.8915C133.405 41.6704 132.763 41.504 132.006 41.504H131.998L131.99 41.5038C131.254 41.4811 130.528 41.6737 129.9 42.0579C129.368 42.4224 128.641 42.2945 128.266 41.7671L123.266 45.9231ZM123.266 45.9231L123.259 45.9211M123.266 45.9231L123.259 45.9211M123.259 45.9211C122.904 45.8242 122.623 45.5529 122.513 45.2016C122.438 44.9163 122.517 44.6125 122.721 44.3986L122.721 44.3987L122.728 44.3901L123.666 43.3595C124.385 44.0084 125.393 44.5276 126.576 44.9016C128.002 45.3526 129.726 45.606 131.609 45.606H131.621L131.632 45.6054C131.691 45.6027 131.75 45.5955 131.807 45.5839C131.865 45.5955 131.923 45.6027 131.982 45.6054L131.994 45.606H132.006C133.276 45.606 134.437 45.2869 135.296 44.7343C136.153 44.183 136.758 43.3609 136.758 42.3714C136.758 41.3818 136.153 40.5598 135.296 40.0085C134.438 39.4568 133.28 39.1379 132.012 39.1368C130.792 39.1067 129.59 39.4438 128.564 40.1046L128.554 40.111M123.259 45.9211L128.554 40.111M128.554 40.111L128.544 40.1179M128.554 40.111L128.544 40.1179M128.544 40.1179C128.012 40.4968 127.888 41.2348 128.266 41.7671L128.544 40.1179Z" fill="#FFFCF2"/>
<path d="M123.266 45.9231L123.274 45.9253L124.635 46.3411C124.635 46.3412 124.635 46.3413 124.635 46.3413C126.02 46.7593 127.497 46.7593 128.881 46.3413C130.59 45.8206 132.409 45.7844 134.137 46.2369C134.137 46.2369 134.137 46.2369 134.137 46.237L134.642 46.369C136.157 46.7643 137.758 46.6617 139.21 46.0764C139.21 46.0763 139.211 46.0762 139.211 46.0761L140.593 45.5135L140.609 45.5069L140.626 45.5015C140.863 45.4238 141.051 45.2425 141.137 45.0098C141.212 44.5762 141.093 44.131 140.812 43.791L140.8 43.7769L140.79 43.762C139.077 41.3507 135.454 38.7695 131.609 38.7695C129.589 38.7695 127.842 39.122 126.618 39.6164C126.004 39.8644 125.543 40.1394 125.245 40.4054C124.937 40.6793 124.863 40.8867 124.863 41.0041C124.863 41.1215 124.937 41.3289 125.245 41.6028C125.543 41.8689 126.004 42.1439 126.618 42.3919C127.842 42.8863 129.589 43.2387 131.609 43.2387H131.621L131.632 43.2392C131.691 43.242 131.75 43.2492 131.807 43.2607C131.865 43.2492 131.923 43.242 131.982 43.2392L131.994 43.2387H132.006C132.763 43.2387 133.405 43.0724 133.841 42.8512C134.06 42.7403 134.21 42.6241 134.299 42.5244C134.342 42.4754 134.366 42.4361 134.379 42.409C134.385 42.3958 134.388 42.3862 134.389 42.3803C134.39 42.3745 134.39 42.3717 134.39 42.3714C134.39 42.3711 134.39 42.3683 134.389 42.3625C134.388 42.3565 134.385 42.3469 134.379 42.3337C134.366 42.3066 134.342 42.2673 134.299 42.2184C134.21 42.1186 134.06 42.0025 133.841 41.8915C133.405 41.6704 132.763 41.504 132.006 41.504H131.998L131.99 41.5038C131.254 41.4811 130.528 41.6737 129.9 42.0579C129.368 42.4224 128.641 42.2945 128.266 41.7671L123.266 45.9231ZM123.266 45.9231L123.259 45.9211M123.266 45.9231L123.259 45.9211M123.259 45.9211C122.904 45.8242 122.623 45.5529 122.513 45.2016C122.438 44.9163 122.517 44.6125 122.721 44.3986L122.721 44.3987L122.728 44.3901L123.666 43.3595C124.385 44.0084 125.393 44.5276 126.576 44.9016C128.002 45.3526 129.726 45.606 131.609 45.606H131.621L131.632 45.6054C131.691 45.6027 131.75 45.5955 131.807 45.5839C131.865 45.5955 131.923 45.6027 131.982 45.6054L131.994 45.606H132.006C133.276 45.606 134.437 45.2869 135.296 44.7343C136.153 44.183 136.758 43.3609 136.758 42.3714C136.758 41.3818 136.153 40.5598 135.296 40.0085C134.438 39.4568 133.28 39.1379 132.012 39.1368C130.792 39.1067 129.59 39.4438 128.564 40.1046L128.554 40.111M123.259 45.9211L128.554 40.111M128.554 40.111L128.544 40.1179M128.554 40.111L128.544 40.1179M128.544 40.1179C128.012 40.4968 127.888 41.2348 128.266 41.7671L128.544 40.1179Z" stroke="#252422"/>
<path d="M117.753 49.6282L117.762 49.6345C118.182 49.9254 118.682 50.0792 119.193 50.0751L119.197 50.0751V50.0751H120.46H120.46V50.5751C121.614 50.5744 122.757 50.784 123.835 51.1936L117.753 49.6282ZM117.753 49.6282L117.744 49.6223C116.589 48.8971 116.209 47.3938 116.876 46.207C117.174 45.7456 117.663 45.4424 118.209 45.3818L118.216 45.381L118.224 45.3799L120.121 45.1119M117.753 49.6282L120.121 45.1119M120.121 45.1119C120.13 45.3554 120.167 45.5977 120.232 45.834L120.232 45.834L120.234 45.8405C120.562 46.9764 121.451 47.8638 122.587 48.1907L123.945 48.6057L123.947 48.6062C125.781 49.1594 127.737 49.1594 129.571 48.6062L129.572 48.6057C130.861 48.212 132.234 48.1847 133.538 48.5267L133.538 48.5267L134.044 48.6589L134.044 48.6591C136.053 49.1825 138.176 49.046 140.101 48.2698L140.103 48.2691L141.478 47.7091C142.404 47.3656 143.119 46.6122 143.413 45.6689L143.413 45.669L143.417 45.6557C143.467 45.4774 143.502 45.2954 143.521 45.1118L144.284 45.2349L144.284 45.235L144.288 45.2357C145.471 45.4146 146.58 45.9177 147.494 46.6893L147.501 46.6958L147.509 46.702C147.914 47.0163 148.174 47.4805 148.231 47.9895C148.288 48.492 148.142 48.9961 147.826 49.3905C147.807 49.4106 147.774 49.4451 147.751 49.4714C146.738 50.5917 145.179 51.0446 143.722 50.6417L143.722 50.6416L143.714 50.6396L141.685 50.1132L141.685 50.1131C139.742 49.6112 137.693 49.7031 135.802 50.3769L135.801 50.3773L131.902 51.7779C131.902 51.7781 131.901 51.7782 131.901 51.7784C130.187 52.381 128.317 52.3621 126.616 51.7252L120.121 45.1119Z" fill="#252422"/>
<path d="M117.753 49.6282L117.762 49.6345C118.182 49.9254 118.682 50.0792 119.193 50.0751L119.197 50.0751V50.0751H120.46H120.46V50.5751C121.614 50.5744 122.757 50.784 123.835 51.1936L117.753 49.6282ZM117.753 49.6282L117.744 49.6223C116.589 48.8971 116.209 47.3938 116.876 46.207C117.174 45.7456 117.663 45.4424 118.209 45.3818L118.216 45.381L118.224 45.3799L120.121 45.1119M117.753 49.6282L120.121 45.1119M120.121 45.1119C120.13 45.3554 120.167 45.5977 120.232 45.834L120.232 45.834L120.234 45.8405C120.562 46.9764 121.451 47.8638 122.587 48.1907L123.945 48.6057L123.947 48.6062C125.781 49.1594 127.737 49.1594 129.571 48.6062L129.572 48.6057C130.861 48.212 132.234 48.1847 133.538 48.5267L133.538 48.5267L134.044 48.6589L134.044 48.6591C136.053 49.1825 138.176 49.046 140.101 48.2698L140.103 48.2691L141.478 47.7091C142.404 47.3656 143.119 46.6122 143.413 45.6689L143.413 45.669L143.417 45.6557C143.467 45.4774 143.502 45.2954 143.521 45.1118L144.284 45.2349L144.284 45.235L144.288 45.2357C145.471 45.4146 146.58 45.9177 147.494 46.6893L147.501 46.6958L147.509 46.702C147.914 47.0163 148.174 47.4805 148.231 47.9895C148.288 48.492 148.142 48.9961 147.826 49.3905C147.807 49.4106 147.774 49.4451 147.751 49.4714C146.738 50.5917 145.179 51.0446 143.722 50.6417L143.722 50.6416L143.714 50.6396L141.685 50.1132L141.685 50.1131C139.742 49.6112 137.693 49.7031 135.802 50.3769L135.801 50.3773L131.902 51.7779C131.902 51.7781 131.901 51.7782 131.901 51.7784C130.187 52.381 128.317 52.3621 126.616 51.7252L120.121 45.1119Z" fill="#FFFCF2"/>
<path d="M117.753 49.6282L117.762 49.6345C118.182 49.9254 118.682 50.0792 119.193 50.0751L119.197 50.0751V50.0751H120.46H120.46V50.5751C121.614 50.5744 122.757 50.784 123.835 51.1936L117.753 49.6282ZM117.753 49.6282L117.744 49.6223C116.589 48.8971 116.209 47.3938 116.876 46.207C117.174 45.7456 117.663 45.4424 118.209 45.3818L118.216 45.381L118.224 45.3799L120.121 45.1119M117.753 49.6282L120.121 45.1119M120.121 45.1119C120.13 45.3554 120.167 45.5977 120.232 45.834L120.232 45.834L120.234 45.8405C120.562 46.9764 121.451 47.8638 122.587 48.1907L123.945 48.6057L123.947 48.6062C125.781 49.1594 127.737 49.1594 129.571 48.6062L129.572 48.6057C130.861 48.212 132.234 48.1847 133.538 48.5267L133.538 48.5267L134.044 48.6589L134.044 48.6591C136.053 49.1825 138.176 49.046 140.101 48.2698L140.103 48.2691L141.478 47.7091C142.404 47.3656 143.119 46.6122 143.413 45.6689L143.413 45.669L143.417 45.6557C143.467 45.4774 143.502 45.2954 143.521 45.1118L144.284 45.2349L144.284 45.235L144.288 45.2357C145.471 45.4146 146.58 45.9177 147.494 46.6893L147.501 46.6958L147.509 46.702C147.914 47.0163 148.174 47.4805 148.231 47.9895C148.288 48.492 148.142 48.9961 147.826 49.3905C147.807 49.4106 147.774 49.4451 147.751 49.4714C146.738 50.5917 145.179 51.0446 143.722 50.6417L143.722 50.6416L143.714 50.6396L141.685 50.1132L141.685 50.1131C139.742 49.6112 137.693 49.7031 135.802 50.3769L135.801 50.3773L131.902 51.7779C131.902 51.7781 131.901 51.7782 131.901 51.7784C130.187 52.381 128.317 52.3621 126.616 51.7252L120.121 45.1119Z" stroke="#252422"/>
<path d="M115.636 50.9161C115.869 51.1552 116.122 51.373 116.395 51.5667L116.395 51.5667L116.398 51.5694C117.219 52.1419 118.197 52.4469 119.198 52.4424H120.461H120.461C121.387 52.4417 122.305 52.6098 123.17 52.9382C123.17 52.9383 123.17 52.9384 123.171 52.9385L125.772 53.9367L125.772 53.9367L125.775 53.9378C126.914 54.3667 128.121 54.5855 129.338 54.5834M115.636 50.9161L141.091 52.4042C139.608 52.0212 138.044 52.0912 136.602 52.605C136.602 52.6051 136.601 52.6052 136.601 52.6052L132.7 54.0065L132.699 54.007C131.62 54.3909 130.483 54.5859 129.338 54.5834M115.636 50.9161C115.6 50.9376 115.562 50.9572 115.522 50.9747L115.276 51.1866L115.267 51.1939L115.258 51.2009C114.756 51.5934 114.437 52.174 114.374 52.808C114.311 53.442 114.51 54.0741 114.924 54.5578L114.932 54.5666L114.932 54.5667L114.981 54.6269C115.8 55.4977 117.041 55.8318 118.187 55.4888L118.197 55.486L118.197 55.486C118.22 55.4798 118.243 55.474 118.266 55.4688C119.841 55.0303 121.53 55.3028 122.887 56.2155C122.887 56.2156 122.887 56.2157 122.887 56.2159L123.529 56.6446C123.529 56.6448 123.53 56.645 123.53 56.6452C124.329 57.1733 125.319 57.3249 126.24 57.0601L126.241 57.0597C126.264 57.0533 126.289 57.0468 126.316 57.0409C127.96 56.5793 129.725 56.9002 131.102 57.9115C132.215 58.7143 132.884 59.9964 132.904 61.3692L132.904 61.3765H132.904V62.8734C132.911 63.0869 133.011 63.2868 133.179 63.4201L133.184 63.424L133.184 63.424C133.444 63.6371 133.771 63.7518 134.108 63.7481L134.135 63.7478L134.162 63.7504C134.729 63.8058 135.238 63.4069 135.323 62.8467V59.4624V59.4377L135.325 59.4132C135.466 57.9934 136.66 56.9117 138.087 56.9117C139.514 56.9117 140.708 57.9935 140.848 59.4132L140.851 59.4377V59.4624V60.8201C140.852 60.8422 140.863 60.8628 140.881 60.8765L140.89 60.8836L140.899 60.891C140.994 60.972 141.115 61.0156 141.239 61.0135L141.269 61.013L141.299 61.0161C141.458 61.0325 141.603 60.9303 141.644 60.7788V57.6027V57.5924L141.645 57.582C141.687 56.5577 142.546 55.7592 143.569 55.7901C143.75 55.7895 143.931 55.8137 144.105 55.862L144.113 55.8642L144.113 55.8642C145.885 56.3855 147.799 55.8769 149.079 54.5458C149.501 54.0714 149.715 53.4474 149.673 52.8139C149.622 52.3135 149.422 51.8436 149.104 51.4623C147.504 52.9396 145.246 53.5052 143.12 52.9306C143.119 52.9304 143.118 52.9302 143.118 52.9299L141.091 52.4043L115.636 50.9161ZM129.338 54.5834C129.338 54.5834 129.338 54.5834 129.337 54.5834L129.339 54.0834L129.339 54.5834C129.339 54.5834 129.339 54.5834 129.338 54.5834Z" fill="#252422"/>
<path d="M115.636 50.9161C115.869 51.1552 116.122 51.373 116.395 51.5667L116.395 51.5667L116.398 51.5694C117.219 52.1419 118.197 52.4469 119.198 52.4424H120.461H120.461C121.387 52.4417 122.305 52.6098 123.17 52.9382C123.17 52.9383 123.17 52.9384 123.171 52.9385L125.772 53.9367L125.772 53.9367L125.775 53.9378C126.914 54.3667 128.121 54.5855 129.338 54.5834M115.636 50.9161L141.091 52.4042C139.608 52.0212 138.044 52.0912 136.602 52.605C136.602 52.6051 136.601 52.6052 136.601 52.6052L132.7 54.0065L132.699 54.007C131.62 54.3909 130.483 54.5859 129.338 54.5834M115.636 50.9161C115.6 50.9376 115.562 50.9572 115.522 50.9747L115.276 51.1866L115.267 51.1939L115.258 51.2009C114.756 51.5934 114.437 52.174 114.374 52.808C114.311 53.442 114.51 54.0741 114.924 54.5578L114.932 54.5666L114.932 54.5667L114.981 54.6269C115.8 55.4977 117.041 55.8318 118.187 55.4888L118.197 55.486L118.197 55.486C118.22 55.4798 118.243 55.474 118.266 55.4688C119.841 55.0303 121.53 55.3028 122.887 56.2155C122.887 56.2156 122.887 56.2157 122.887 56.2159L123.529 56.6446C123.529 56.6448 123.53 56.645 123.53 56.6452C124.329 57.1733 125.319 57.3249 126.24 57.0601L126.241 57.0597C126.264 57.0533 126.289 57.0468 126.316 57.0409C127.96 56.5793 129.725 56.9002 131.102 57.9115C132.215 58.7143 132.884 59.9964 132.904 61.3692L132.904 61.3765H132.904V62.8734C132.911 63.0869 133.011 63.2868 133.179 63.4201L133.184 63.424L133.184 63.424C133.444 63.6371 133.771 63.7518 134.108 63.7481L134.135 63.7478L134.162 63.7504C134.729 63.8058 135.238 63.4069 135.323 62.8467V59.4624V59.4377L135.325 59.4132C135.466 57.9934 136.66 56.9117 138.087 56.9117C139.514 56.9117 140.708 57.9935 140.848 59.4132L140.851 59.4377V59.4624V60.8201C140.852 60.8422 140.863 60.8628 140.881 60.8765L140.89 60.8836L140.899 60.891C140.994 60.972 141.115 61.0156 141.239 61.0135L141.269 61.013L141.299 61.0161C141.458 61.0325 141.603 60.9303 141.644 60.7788V57.6027V57.5924L141.645 57.582C141.687 56.5577 142.546 55.7592 143.569 55.7901C143.75 55.7895 143.931 55.8137 144.105 55.862L144.113 55.8642L144.113 55.8642C145.885 56.3855 147.799 55.8769 149.079 54.5458C149.501 54.0714 149.715 53.4474 149.673 52.8139C149.622 52.3135 149.422 51.8436 149.104 51.4623C147.504 52.9396 145.246 53.5052 143.12 52.9306C143.119 52.9304 143.118 52.9302 143.118 52.9299L141.091 52.4043L115.636 50.9161ZM129.338 54.5834C129.338 54.5834 129.338 54.5834 129.337 54.5834L129.339 54.0834L129.339 54.5834C129.339 54.5834 129.339 54.5834 129.338 54.5834Z" fill="#FFFCF2"/>
<path d="M115.636 50.9161C115.869 51.1552 116.122 51.373 116.395 51.5667L116.395 51.5667L116.398 51.5694C117.219 52.1419 118.197 52.4469 119.198 52.4424H120.461H120.461C121.387 52.4417 122.305 52.6098 123.17 52.9382C123.17 52.9383 123.17 52.9384 123.171 52.9385L125.772 53.9367L125.772 53.9367L125.775 53.9378C126.914 54.3667 128.121 54.5855 129.338 54.5834M115.636 50.9161L141.091 52.4042C139.608 52.0212 138.044 52.0912 136.602 52.605C136.602 52.6051 136.601 52.6052 136.601 52.6052L132.7 54.0065L132.699 54.007C131.62 54.3909 130.483 54.5859 129.338 54.5834M115.636 50.9161C115.6 50.9376 115.562 50.9572 115.522 50.9747L115.276 51.1866L115.267 51.1939L115.258 51.2009C114.756 51.5934 114.437 52.174 114.374 52.808C114.311 53.442 114.51 54.0741 114.924 54.5578L114.932 54.5666L114.932 54.5667L114.981 54.6269C115.8 55.4977 117.041 55.8318 118.187 55.4888L118.197 55.486L118.197 55.486C118.22 55.4798 118.243 55.474 118.266 55.4688C119.841 55.0303 121.53 55.3028 122.887 56.2155C122.887 56.2156 122.887 56.2157 122.887 56.2159L123.529 56.6446C123.529 56.6448 123.53 56.645 123.53 56.6452C124.329 57.1733 125.319 57.3249 126.24 57.0601L126.241 57.0597C126.264 57.0533 126.289 57.0468 126.316 57.0409C127.96 56.5793 129.725 56.9002 131.102 57.9115C132.215 58.7143 132.884 59.9964 132.904 61.3692L132.904 61.3765H132.904V62.8734C132.911 63.0869 133.011 63.2868 133.179 63.4201L133.184 63.424L133.184 63.424C133.444 63.6371 133.771 63.7518 134.108 63.7481L134.135 63.7478L134.162 63.7504C134.729 63.8058 135.238 63.4069 135.323 62.8467V59.4624V59.4377L135.325 59.4132C135.466 57.9934 136.66 56.9117 138.087 56.9117C139.514 56.9117 140.708 57.9935 140.848 59.4132L140.851 59.4377V59.4624V60.8201C140.852 60.8422 140.863 60.8628 140.881 60.8765L140.89 60.8836L140.899 60.891C140.994 60.972 141.115 61.0156 141.239 61.0135L141.269 61.013L141.299 61.0161C141.458 61.0325 141.603 60.9303 141.644 60.7788V57.6027V57.5924L141.645 57.582C141.687 56.5577 142.546 55.7592 143.569 55.7901C143.75 55.7895 143.931 55.8137 144.105 55.862L144.113 55.8642L144.113 55.8642C145.885 56.3855 147.799 55.8769 149.079 54.5458C149.501 54.0714 149.715 53.4474 149.673 52.8139C149.622 52.3135 149.422 51.8436 149.104 51.4623C147.504 52.9396 145.246 53.5052 143.12 52.9306C143.119 52.9304 143.118 52.9302 143.118 52.9299L141.091 52.4043L115.636 50.9161ZM129.338 54.5834C129.338 54.5834 129.338 54.5834 129.337 54.5834L129.339 54.0834L129.339 54.5834C129.339 54.5834 129.339 54.5834 129.338 54.5834Z" stroke="#252422"/>
<path d="M126.825 59.3546C126.849 59.3496 126.875 59.3434 126.902 59.3355L126.902 59.3355L126.906 59.3343C127.857 59.0503 128.887 59.227 129.69 59.8121L129.69 59.8122L129.699 59.8184C130.212 60.1756 130.523 60.7568 130.536 61.3818L130.536 62.881L130.536 62.8852C130.544 63.7956 130.954 64.6558 131.657 65.2342C132.342 65.8082 133.208 66.1206 134.102 66.1158C135.971 66.2086 137.57 64.7825 137.689 62.9128L137.69 62.897V62.8811V59.5433C137.756 59.385 137.911 59.2792 138.086 59.2792C138.261 59.2792 138.417 59.385 138.483 59.5433L138.483 60.8302L138.483 60.8336C138.488 61.5491 138.806 62.2261 139.354 62.6859C139.877 63.1385 140.547 63.3857 141.238 63.3813C142.697 63.4404 143.933 62.3158 144.01 60.8566L144.011 60.8434V60.8302V58.277C146.261 58.7436 148.6 58.1274 150.328 56.6196L150.876 59.4261C150.876 59.4265 150.876 59.427 150.876 59.4275C151.405 62.2324 150.631 65.1256 148.771 67.2912C146.113 70.3219 142.255 72.0273 138.224 71.9524V71.9523H138.215H126.593V71.9522L126.582 71.9524C122.636 72.0399 118.847 70.4097 116.198 67.4849C114.333 65.4115 113.477 62.6209 113.859 59.8583L114.264 57.0922C115.587 57.9512 117.228 58.2139 118.774 57.7831C118.8 57.7775 118.827 57.7707 118.854 57.7627C119.774 57.4981 120.764 57.6499 121.562 58.1781C121.562 58.1783 121.562 58.1784 121.563 58.1786L122.205 58.6075C122.205 58.6077 122.205 58.6078 122.205 58.6079C123.562 59.5203 125.251 59.793 126.825 59.3546Z" fill="#252422"/>
<path d="M126.825 59.3546C126.849 59.3496 126.875 59.3434 126.902 59.3355L126.902 59.3355L126.906 59.3343C127.857 59.0503 128.887 59.227 129.69 59.8121L129.69 59.8122L129.699 59.8184C130.212 60.1756 130.523 60.7568 130.536 61.3818L130.536 62.881L130.536 62.8852C130.544 63.7956 130.954 64.6558 131.657 65.2342C132.342 65.8082 133.208 66.1206 134.102 66.1158C135.971 66.2086 137.57 64.7825 137.689 62.9128L137.69 62.897V62.8811V59.5433C137.756 59.385 137.911 59.2792 138.086 59.2792C138.261 59.2792 138.417 59.385 138.483 59.5433L138.483 60.8302L138.483 60.8336C138.488 61.5491 138.806 62.2261 139.354 62.6859C139.877 63.1385 140.547 63.3857 141.238 63.3813C142.697 63.4404 143.933 62.3158 144.01 60.8566L144.011 60.8434V60.8302V58.277C146.261 58.7436 148.6 58.1274 150.328 56.6196L150.876 59.4261C150.876 59.4265 150.876 59.427 150.876 59.4275C151.405 62.2324 150.631 65.1256 148.771 67.2912C146.113 70.3219 142.255 72.0273 138.224 71.9524V71.9523H138.215H126.593V71.9522L126.582 71.9524C122.636 72.0399 118.847 70.4097 116.198 67.4849C114.333 65.4115 113.477 62.6209 113.859 59.8583L114.264 57.0922C115.587 57.9512 117.228 58.2139 118.774 57.7831C118.8 57.7775 118.827 57.7707 118.854 57.7627C119.774 57.4981 120.764 57.6499 121.562 58.1781C121.562 58.1783 121.562 58.1784 121.563 58.1786L122.205 58.6075C122.205 58.6077 122.205 58.6078 122.205 58.6079C123.562 59.5203 125.251 59.793 126.825 59.3546Z" fill="#FFFCF2"/>
<path d="M126.825 59.3546C126.849 59.3496 126.875 59.3434 126.902 59.3355L126.902 59.3355L126.906 59.3343C127.857 59.0503 128.887 59.227 129.69 59.8121L129.69 59.8122L129.699 59.8184C130.212 60.1756 130.523 60.7568 130.536 61.3818L130.536 62.881L130.536 62.8852C130.544 63.7956 130.954 64.6558 131.657 65.2342C132.342 65.8082 133.208 66.1206 134.102 66.1158C135.971 66.2086 137.57 64.7825 137.689 62.9128L137.69 62.897V62.8811V59.5433C137.756 59.385 137.911 59.2792 138.086 59.2792C138.261 59.2792 138.417 59.385 138.483 59.5433L138.483 60.8302L138.483 60.8336C138.488 61.5491 138.806 62.2261 139.354 62.6859C139.877 63.1385 140.547 63.3857 141.238 63.3813C142.697 63.4404 143.933 62.3158 144.01 60.8566L144.011 60.8434V60.8302V58.277C146.261 58.7436 148.6 58.1274 150.328 56.6196L150.876 59.4261C150.876 59.4265 150.876 59.427 150.876 59.4275C151.405 62.2324 150.631 65.1256 148.771 67.2912C146.113 70.3219 142.255 72.0273 138.224 71.9524V71.9523H138.215H126.593V71.9522L126.582 71.9524C122.636 72.0399 118.847 70.4097 116.198 67.4849C114.333 65.4115 113.477 62.6209 113.859 59.8583L114.264 57.0922C115.587 57.9512 117.228 58.2139 118.774 57.7831C118.8 57.7775 118.827 57.7707 118.854 57.7627C119.774 57.4981 120.764 57.6499 121.562 58.1781C121.562 58.1783 121.562 58.1784 121.563 58.1786L122.205 58.6075C122.205 58.6077 122.205 58.6078 122.205 58.6079C123.562 59.5203 125.251 59.793 126.825 59.3546Z" stroke="#252422"/>
<path d="M103.869 11.9678L103.862 11.9656L103.855 11.9636C103.5 11.8667 103.218 11.5954 103.109 11.244C103.034 10.9588 103.113 10.6549 103.316 10.4411L103.316 10.4412L103.324 10.4326L104.261 9.40197C104.981 10.0508 105.989 10.5701 107.171 10.944C108.598 11.3951 110.321 11.6484 112.205 11.6484H112.217L112.228 11.6479C112.287 11.6452 112.346 11.6379 112.403 11.6264C112.461 11.6379 112.519 11.6452 112.578 11.6479L112.59 11.6484H112.601C113.872 11.6484 115.033 11.3293 115.892 10.7767C116.749 10.2255 117.353 9.40341 117.353 8.41385C117.353 7.42429 116.749 6.60223 115.892 6.05096C115.034 5.49929 113.876 5.18034 112.608 5.17927C111.387 5.14918 110.186 5.48631 109.159 6.14708L109.149 6.15348L109.14 6.16034C108.608 6.53933 108.484 7.27735 108.862 7.8096C109.237 8.33694 109.964 8.46489 110.496 8.10039C111.124 7.71618 111.85 7.52357 112.586 7.54628L112.594 7.54652H112.601C113.359 7.54652 114.001 7.71287 114.437 7.934C114.655 8.04495 114.805 8.16112 114.894 8.26084C114.938 8.30978 114.962 8.34911 114.974 8.37621C114.98 8.38942 114.983 8.39898 114.985 8.40494C114.986 8.41076 114.986 8.41355 114.986 8.41385C114.986 8.41415 114.986 8.41694 114.985 8.42277C114.983 8.42872 114.98 8.43828 114.974 8.4515C114.962 8.47859 114.938 8.51792 114.894 8.56687C114.805 8.66659 114.655 8.78276 114.437 8.8937C114.001 9.11483 113.359 9.28118 112.601 9.28118H112.59L112.578 9.28172C112.519 9.28445 112.461 9.29167 112.403 9.30322C112.346 9.29167 112.287 9.28446 112.228 9.28172L112.217 9.28118H112.205C110.184 9.28118 108.438 8.92875 107.214 8.43434C106.6 8.18636 106.139 7.91136 105.84 7.64527C105.533 7.37141 105.458 7.164 105.458 7.0466C105.458 6.9292 105.533 6.72179 105.84 6.44793C106.139 6.18184 106.6 5.90683 107.214 5.65886C108.438 5.16445 110.184 4.81201 112.205 4.81201C116.05 4.81201 119.672 7.39316 121.386 9.80444L121.396 9.81937L121.408 9.83349C121.689 10.1735 121.807 10.6187 121.733 11.0523C121.646 11.285 121.458 11.4663 121.221 11.5439L121.205 11.5494L121.188 11.556L119.807 12.1185C119.806 12.1187 119.806 12.1188 119.806 12.1189C118.354 12.7041 116.753 12.8067 115.238 12.4115L114.733 12.2794C113.005 11.8269 111.185 11.863 109.477 12.3838C108.092 12.8017 106.615 12.8017 105.231 12.3839C105.231 12.3838 105.231 12.3837 105.23 12.3836L103.869 11.9678Z" fill="#252422"/>
<path d="M103.869 11.9678L103.862 11.9656L103.855 11.9636C103.5 11.8667 103.218 11.5954 103.109 11.244C103.034 10.9588 103.113 10.6549 103.316 10.4411L103.316 10.4412L103.324 10.4326L104.261 9.40197C104.981 10.0508 105.989 10.5701 107.171 10.944C108.598 11.3951 110.321 11.6484 112.205 11.6484H112.217L112.228 11.6479C112.287 11.6452 112.346 11.6379 112.403 11.6264C112.461 11.6379 112.519 11.6452 112.578 11.6479L112.59 11.6484H112.601C113.872 11.6484 115.033 11.3293 115.892 10.7767C116.749 10.2255 117.353 9.40341 117.353 8.41385C117.353 7.42429 116.749 6.60223 115.892 6.05096C115.034 5.49929 113.876 5.18034 112.608 5.17927C111.387 5.14918 110.186 5.48631 109.159 6.14708L109.149 6.15348L109.14 6.16034C108.608 6.53933 108.484 7.27735 108.862 7.8096C109.237 8.33694 109.964 8.46489 110.496 8.10039C111.124 7.71618 111.85 7.52357 112.586 7.54628L112.594 7.54652H112.601C113.359 7.54652 114.001 7.71287 114.437 7.934C114.655 8.04495 114.805 8.16112 114.894 8.26084C114.938 8.30978 114.962 8.34911 114.974 8.37621C114.98 8.38942 114.983 8.39898 114.985 8.40494C114.986 8.41076 114.986 8.41355 114.986 8.41385C114.986 8.41415 114.986 8.41694 114.985 8.42277C114.983 8.42872 114.98 8.43828 114.974 8.4515C114.962 8.47859 114.938 8.51792 114.894 8.56687C114.805 8.66659 114.655 8.78276 114.437 8.8937C114.001 9.11483 113.359 9.28118 112.601 9.28118H112.59L112.578 9.28172C112.519 9.28445 112.461 9.29167 112.403 9.30322C112.346 9.29167 112.287 9.28446 112.228 9.28172L112.217 9.28118H112.205C110.184 9.28118 108.438 8.92875 107.214 8.43434C106.6 8.18636 106.139 7.91136 105.84 7.64527C105.533 7.37141 105.458 7.164 105.458 7.0466C105.458 6.9292 105.533 6.72179 105.84 6.44793C106.139 6.18184 106.6 5.90683 107.214 5.65886C108.438 5.16445 110.184 4.81201 112.205 4.81201C116.05 4.81201 119.672 7.39316 121.386 9.80444L121.396 9.81937L121.408 9.83349C121.689 10.1735 121.807 10.6187 121.733 11.0523C121.646 11.285 121.458 11.4663 121.221 11.5439L121.205 11.5494L121.188 11.556L119.807 12.1185C119.806 12.1187 119.806 12.1188 119.806 12.1189C118.354 12.7041 116.753 12.8067 115.238 12.4115L114.733 12.2794C113.005 11.8269 111.185 11.863 109.477 12.3838C108.092 12.8017 106.615 12.8017 105.231 12.3839C105.231 12.3838 105.231 12.3837 105.23 12.3836L103.869 11.9678Z" fill="#FFFCF2"/>
<path d="M103.869 11.9678L103.862 11.9656L103.855 11.9636C103.5 11.8667 103.218 11.5954 103.109 11.244C103.034 10.9588 103.113 10.6549 103.316 10.4411L103.316 10.4412L103.324 10.4326L104.261 9.40197C104.981 10.0508 105.989 10.5701 107.171 10.944C108.598 11.3951 110.321 11.6484 112.205 11.6484H112.217L112.228 11.6479C112.287 11.6452 112.346 11.6379 112.403 11.6264C112.461 11.6379 112.519 11.6452 112.578 11.6479L112.59 11.6484H112.601C113.872 11.6484 115.033 11.3293 115.892 10.7767C116.749 10.2255 117.353 9.40341 117.353 8.41385C117.353 7.42429 116.749 6.60223 115.892 6.05096C115.034 5.49929 113.876 5.18034 112.608 5.17927C111.387 5.14918 110.186 5.48631 109.159 6.14708L109.149 6.15348L109.14 6.16034C108.608 6.53933 108.484 7.27735 108.862 7.8096C109.237 8.33694 109.964 8.46489 110.496 8.10039C111.124 7.71618 111.85 7.52357 112.586 7.54628L112.594 7.54652H112.601C113.359 7.54652 114.001 7.71287 114.437 7.934C114.655 8.04495 114.805 8.16112 114.894 8.26084C114.938 8.30978 114.962 8.34911 114.974 8.37621C114.98 8.38942 114.983 8.39898 114.985 8.40494C114.986 8.41076 114.986 8.41355 114.986 8.41385C114.986 8.41415 114.986 8.41694 114.985 8.42277C114.983 8.42872 114.98 8.43828 114.974 8.4515C114.962 8.47859 114.938 8.51792 114.894 8.56687C114.805 8.66659 114.655 8.78276 114.437 8.8937C114.001 9.11483 113.359 9.28118 112.601 9.28118H112.59L112.578 9.28172C112.519 9.28445 112.461 9.29167 112.403 9.30322C112.346 9.29167 112.287 9.28446 112.228 9.28172L112.217 9.28118H112.205C110.184 9.28118 108.438 8.92875 107.214 8.43434C106.6 8.18636 106.139 7.91136 105.84 7.64527C105.533 7.37141 105.458 7.164 105.458 7.0466C105.458 6.9292 105.533 6.72179 105.84 6.44793C106.139 6.18184 106.6 5.90683 107.214 5.65886C108.438 5.16445 110.184 4.81201 112.205 4.81201C116.05 4.81201 119.672 7.39316 121.386 9.80444L121.396 9.81937L121.408 9.83349C121.689 10.1735 121.807 10.6187 121.733 11.0523C121.646 11.285 121.458 11.4663 121.221 11.5439L121.205 11.5494L121.188 11.556L119.807 12.1185C119.806 12.1187 119.806 12.1188 119.806 12.1189C118.354 12.7041 116.753 12.8067 115.238 12.4115L114.733 12.2794C113.005 11.8269 111.185 11.863 109.477 12.3838C108.092 12.8017 106.615 12.8017 105.231 12.3839C105.231 12.3838 105.231 12.3837 105.23 12.3836L103.869 11.9678Z" stroke="#252422"/>
<path d="M98.3486 15.6707L98.3577 15.677C98.778 15.9678 99.2777 16.1217 99.7887 16.1176L99.7927 16.1176V16.1176H101.056H101.056V16.6176C102.209 16.6168 103.353 16.8264 104.431 17.2361L98.3486 15.6707ZM98.3486 15.6707L98.3392 15.6648C97.1851 14.9396 96.8044 13.4363 97.472 12.2495C97.7693 11.7881 98.2587 11.4849 98.8048 11.4243L98.8122 11.4234L98.8196 11.4224L100.716 11.1544M98.3486 15.6707L100.716 11.1544M100.716 11.1544C100.726 11.3978 100.763 11.6402 100.828 11.8765L100.828 11.8765L100.83 11.883C101.158 13.0188 102.046 13.9063 103.183 14.2331L104.541 14.6482L104.543 14.6487C106.376 15.2019 108.333 15.2019 110.166 14.6487L110.168 14.6482C111.457 14.2545 112.83 14.2272 114.134 14.5691L114.134 14.5692L114.64 14.7014L114.64 14.7015C116.648 15.2249 118.772 15.0885 120.697 14.3123L120.698 14.3116L122.074 13.7516C123 13.4081 123.715 12.6547 124.009 11.7114L124.009 11.7114L124.012 11.6982C124.063 11.5198 124.097 11.3378 124.116 11.1542L124.879 11.2774L124.879 11.2775L124.884 11.2782C126.066 11.4571 127.176 11.9602 128.089 12.7317L128.097 12.7382L128.105 12.7444C128.509 13.0588 128.77 13.523 128.827 14.0319C128.884 14.5345 128.738 15.0386 128.422 15.433C128.403 15.453 128.37 15.4875 128.347 15.5139C127.333 16.6342 125.774 17.087 124.318 16.6842L124.318 16.6841L124.31 16.6821L122.281 16.1557L122.28 16.1555C120.337 15.6537 118.288 15.7456 116.398 16.4194L116.397 16.4198L112.498 17.8204C112.498 17.8205 112.497 17.8207 112.497 17.8209C110.783 18.4234 108.913 18.4046 107.212 17.7677L100.716 11.1544Z" fill="#252422"/>
<path d="M98.3486 15.6707L98.3577 15.677C98.778 15.9678 99.2777 16.1217 99.7887 16.1176L99.7927 16.1176V16.1176H101.056H101.056V16.6176C102.209 16.6168 103.353 16.8264 104.431 17.2361L98.3486 15.6707ZM98.3486 15.6707L98.3392 15.6648C97.1851 14.9396 96.8044 13.4363 97.472 12.2495C97.7693 11.7881 98.2587 11.4849 98.8048 11.4243L98.8122 11.4234L98.8196 11.4224L100.716 11.1544M98.3486 15.6707L100.716 11.1544M100.716 11.1544C100.726 11.3978 100.763 11.6402 100.828 11.8765L100.828 11.8765L100.83 11.883C101.158 13.0188 102.046 13.9063 103.183 14.2331L104.541 14.6482L104.543 14.6487C106.376 15.2019 108.333 15.2019 110.166 14.6487L110.168 14.6482C111.457 14.2545 112.83 14.2272 114.134 14.5691L114.134 14.5692L114.64 14.7014L114.64 14.7015C116.648 15.2249 118.772 15.0885 120.697 14.3123L120.698 14.3116L122.074 13.7516C123 13.4081 123.715 12.6547 124.009 11.7114L124.009 11.7114L124.012 11.6982C124.063 11.5198 124.097 11.3378 124.116 11.1542L124.879 11.2774L124.879 11.2775L124.884 11.2782C126.066 11.4571 127.176 11.9602 128.089 12.7317L128.097 12.7382L128.105 12.7444C128.509 13.0588 128.77 13.523 128.827 14.0319C128.884 14.5345 128.738 15.0386 128.422 15.433C128.403 15.453 128.37 15.4875 128.347 15.5139C127.333 16.6342 125.774 17.087 124.318 16.6842L124.318 16.6841L124.31 16.6821L122.281 16.1557L122.28 16.1555C120.337 15.6537 118.288 15.7456 116.398 16.4194L116.397 16.4198L112.498 17.8204C112.498 17.8205 112.497 17.8207 112.497 17.8209C110.783 18.4234 108.913 18.4046 107.212 17.7677L100.716 11.1544Z" fill="#FFFCF2"/>
<path d="M98.3486 15.6707L98.3577 15.677C98.778 15.9678 99.2777 16.1217 99.7887 16.1176L99.7927 16.1176V16.1176H101.056H101.056V16.6176C102.209 16.6168 103.353 16.8264 104.431 17.2361L98.3486 15.6707ZM98.3486 15.6707L98.3392 15.6648C97.1851 14.9396 96.8044 13.4363 97.472 12.2495C97.7693 11.7881 98.2587 11.4849 98.8048 11.4243L98.8122 11.4234L98.8196 11.4224L100.716 11.1544M98.3486 15.6707L100.716 11.1544M100.716 11.1544C100.726 11.3978 100.763 11.6402 100.828 11.8765L100.828 11.8765L100.83 11.883C101.158 13.0188 102.046 13.9063 103.183 14.2331L104.541 14.6482L104.543 14.6487C106.376 15.2019 108.333 15.2019 110.166 14.6487L110.168 14.6482C111.457 14.2545 112.83 14.2272 114.134 14.5691L114.134 14.5692L114.64 14.7014L114.64 14.7015C116.648 15.2249 118.772 15.0885 120.697 14.3123L120.698 14.3116L122.074 13.7516C123 13.4081 123.715 12.6547 124.009 11.7114L124.009 11.7114L124.012 11.6982C124.063 11.5198 124.097 11.3378 124.116 11.1542L124.879 11.2774L124.879 11.2775L124.884 11.2782C126.066 11.4571 127.176 11.9602 128.089 12.7317L128.097 12.7382L128.105 12.7444C128.509 13.0588 128.77 13.523 128.827 14.0319C128.884 14.5345 128.738 15.0386 128.422 15.433C128.403 15.453 128.37 15.4875 128.347 15.5139C127.333 16.6342 125.774 17.087 124.318 16.6842L124.318 16.6841L124.31 16.6821L122.281 16.1557L122.28 16.1555C120.337 15.6537 118.288 15.7456 116.398 16.4194L116.397 16.4198L112.498 17.8204C112.498 17.8205 112.497 17.8207 112.497 17.8209C110.783 18.4234 108.913 18.4046 107.212 17.7677L100.716 11.1544Z" stroke="#252422"/>
<path d="M109.934 20.6259C108.717 20.628 107.51 20.4092 106.371 19.9803L106.368 19.9792L106.368 19.9792L103.766 18.981C103.766 18.9809 103.766 18.9808 103.766 18.9807C102.9 18.6522 101.983 18.4842 101.057 18.4848H101.057H99.794C98.793 18.4893 97.8152 18.1844 96.9942 17.6118L96.9903 17.6092L96.9903 17.6091C96.7181 17.4155 96.4644 17.1976 96.2321 16.9586C96.1954 16.9801 96.1573 16.9997 96.1182 17.0172L95.8712 17.229L95.8627 17.2364L95.8538 17.2433C95.352 17.6359 95.0325 18.2165 94.9695 18.8505C94.9064 19.4844 95.1053 20.1166 95.52 20.6003L95.5276 20.6091L95.5275 20.6092L95.5766 20.6693C96.3957 21.5402 97.637 21.8743 98.7832 21.5313L98.7926 21.5284L98.7926 21.5285C98.8152 21.5223 98.8384 21.5165 98.8621 21.5113C100.437 21.0727 102.125 21.3453 103.483 22.258C103.483 22.2581 103.483 22.2582 103.483 22.2583L104.125 22.6871C104.125 22.6873 104.125 22.6875 104.126 22.6877C104.925 23.2157 105.915 23.3674 106.835 23.1026L106.837 23.1022C106.86 23.0957 106.885 23.0893 106.912 23.0834C108.556 22.6218 110.321 22.9426 111.698 23.954C112.811 24.7568 113.479 26.0389 113.5 27.4117L113.5 27.419H113.5V28.9159C113.507 29.1294 113.607 29.3293 113.774 29.4626L113.779 29.4665L113.779 29.4665C114.04 29.6796 114.367 29.7943 114.704 29.7905L114.731 29.7902L114.758 29.7929C115.325 29.8483 115.834 29.4494 115.919 28.8892V25.5049V25.4802L115.921 25.4556C116.062 24.0359 117.256 22.9542 118.683 22.9542C120.109 22.9542 121.304 24.036 121.444 25.4556L121.447 25.4802V25.5049V26.8626C121.448 26.8847 121.459 26.9053 121.477 26.919L121.486 26.9261L121.495 26.9335C121.589 27.0145 121.71 27.0581 121.835 27.056L121.865 27.0555L121.895 27.0586C122.054 27.075 122.199 26.9728 122.24 26.8213V23.6452V23.6349L122.24 23.6245C122.283 22.6002 123.142 21.8017 124.165 21.8326C124.346 21.832 124.527 21.8562 124.701 21.9044L124.709 21.9066L124.709 21.9067C126.481 22.428 128.395 21.9194 129.674 20.5883C130.097 20.1139 130.311 19.4899 130.269 18.8563C130.217 18.356 130.017 17.8861 129.7 17.5048C128.099 18.982 125.841 19.5477 123.716 18.9731C123.715 18.9729 123.714 18.9727 123.713 18.9724L121.687 18.4468C121.687 18.4468 121.687 18.4468 121.687 18.4467C120.204 18.0637 118.64 18.1336 117.197 18.6475C117.197 18.6476 117.197 18.6477 117.197 18.6477L113.296 20.049L113.294 20.0495C112.216 20.4333 111.079 20.6283 109.934 20.6259ZM109.934 20.6259C109.934 20.6259 109.933 20.6259 109.933 20.6259L109.934 20.1259L109.935 20.6259C109.935 20.6259 109.934 20.6259 109.934 20.6259Z" fill="#252422"/>
<path d="M109.934 20.6259C108.717 20.628 107.51 20.4092 106.371 19.9803L106.368 19.9792L106.368 19.9792L103.766 18.981C103.766 18.9809 103.766 18.9808 103.766 18.9807C102.9 18.6522 101.983 18.4842 101.057 18.4848H101.057H99.794C98.793 18.4893 97.8152 18.1844 96.9942 17.6118L96.9903 17.6092L96.9903 17.6091C96.7181 17.4155 96.4644 17.1976 96.2321 16.9586C96.1954 16.9801 96.1573 16.9997 96.1182 17.0172L95.8712 17.229L95.8627 17.2364L95.8538 17.2433C95.352 17.6359 95.0325 18.2165 94.9695 18.8505C94.9064 19.4844 95.1053 20.1166 95.52 20.6003L95.5276 20.6091L95.5275 20.6092L95.5766 20.6693C96.3957 21.5402 97.637 21.8743 98.7832 21.5313L98.7926 21.5284L98.7926 21.5285C98.8152 21.5223 98.8384 21.5165 98.8621 21.5113C100.437 21.0727 102.125 21.3453 103.483 22.258C103.483 22.2581 103.483 22.2582 103.483 22.2583L104.125 22.6871C104.125 22.6873 104.125 22.6875 104.126 22.6877C104.925 23.2157 105.915 23.3674 106.835 23.1026L106.837 23.1022C106.86 23.0957 106.885 23.0893 106.912 23.0834C108.556 22.6218 110.321 22.9426 111.698 23.954C112.811 24.7568 113.479 26.0389 113.5 27.4117L113.5 27.419H113.5V28.9159C113.507 29.1294 113.607 29.3293 113.774 29.4626L113.779 29.4665L113.779 29.4665C114.04 29.6796 114.367 29.7943 114.704 29.7905L114.731 29.7902L114.758 29.7929C115.325 29.8483 115.834 29.4494 115.919 28.8892V25.5049V25.4802L115.921 25.4556C116.062 24.0359 117.256 22.9542 118.683 22.9542C120.109 22.9542 121.304 24.036 121.444 25.4556L121.447 25.4802V25.5049V26.8626C121.448 26.8847 121.459 26.9053 121.477 26.919L121.486 26.9261L121.495 26.9335C121.589 27.0145 121.71 27.0581 121.835 27.056L121.865 27.0555L121.895 27.0586C122.054 27.075 122.199 26.9728 122.24 26.8213V23.6452V23.6349L122.24 23.6245C122.283 22.6002 123.142 21.8017 124.165 21.8326C124.346 21.832 124.527 21.8562 124.701 21.9044L124.709 21.9066L124.709 21.9067C126.481 22.428 128.395 21.9194 129.674 20.5883C130.097 20.1139 130.311 19.4899 130.269 18.8563C130.217 18.356 130.017 17.8861 129.7 17.5048C128.099 18.982 125.841 19.5477 123.716 18.9731C123.715 18.9729 123.714 18.9727 123.713 18.9724L121.687 18.4468C121.687 18.4468 121.687 18.4468 121.687 18.4467C120.204 18.0637 118.64 18.1336 117.197 18.6475C117.197 18.6476 117.197 18.6477 117.197 18.6477L113.296 20.049L113.294 20.0495C112.216 20.4333 111.079 20.6283 109.934 20.6259ZM109.934 20.6259C109.934 20.6259 109.933 20.6259 109.933 20.6259L109.934 20.1259L109.935 20.6259C109.935 20.6259 109.934 20.6259 109.934 20.6259Z" fill="#FFFCF2"/>
<path d="M109.934 20.6259C108.717 20.628 107.51 20.4092 106.371 19.9803L106.368 19.9792L106.368 19.9792L103.766 18.981C103.766 18.9809 103.766 18.9808 103.766 18.9807C102.9 18.6522 101.983 18.4842 101.057 18.4848H101.057H99.794C98.793 18.4893 97.8152 18.1844 96.9942 17.6118L96.9903 17.6092L96.9903 17.6091C96.7181 17.4155 96.4644 17.1976 96.2321 16.9586C96.1954 16.9801 96.1573 16.9997 96.1182 17.0172L95.8712 17.229L95.8627 17.2364L95.8538 17.2433C95.352 17.6359 95.0325 18.2165 94.9695 18.8505C94.9064 19.4844 95.1053 20.1166 95.52 20.6003L95.5276 20.6091L95.5275 20.6092L95.5766 20.6693C96.3957 21.5402 97.637 21.8743 98.7832 21.5313L98.7926 21.5284L98.7926 21.5285C98.8152 21.5223 98.8384 21.5165 98.8621 21.5113C100.437 21.0727 102.125 21.3453 103.483 22.258C103.483 22.2581 103.483 22.2582 103.483 22.2583L104.125 22.6871C104.125 22.6873 104.125 22.6875 104.126 22.6877C104.925 23.2157 105.915 23.3674 106.835 23.1026L106.837 23.1022C106.86 23.0957 106.885 23.0893 106.912 23.0834C108.556 22.6218 110.321 22.9426 111.698 23.954C112.811 24.7568 113.479 26.0389 113.5 27.4117L113.5 27.419H113.5V28.9159C113.507 29.1294 113.607 29.3293 113.774 29.4626L113.779 29.4665L113.779 29.4665C114.04 29.6796 114.367 29.7943 114.704 29.7905L114.731 29.7902L114.758 29.7929C115.325 29.8483 115.834 29.4494 115.919 28.8892V25.5049V25.4802L115.921 25.4556C116.062 24.0359 117.256 22.9542 118.683 22.9542C120.109 22.9542 121.304 24.036 121.444 25.4556L121.447 25.4802V25.5049V26.8626C121.448 26.8847 121.459 26.9053 121.477 26.919L121.486 26.9261L121.495 26.9335C121.589 27.0145 121.71 27.0581 121.835 27.056L121.865 27.0555L121.895 27.0586C122.054 27.075 122.199 26.9728 122.24 26.8213V23.6452V23.6349L122.24 23.6245C122.283 22.6002 123.142 21.8017 124.165 21.8326C124.346 21.832 124.527 21.8562 124.701 21.9044L124.709 21.9066L124.709 21.9067C126.481 22.428 128.395 21.9194 129.674 20.5883C130.097 20.1139 130.311 19.4899 130.269 18.8563C130.217 18.356 130.017 17.8861 129.7 17.5048C128.099 18.982 125.841 19.5477 123.716 18.9731C123.715 18.9729 123.714 18.9727 123.713 18.9724L121.687 18.4468C121.687 18.4468 121.687 18.4468 121.687 18.4467C120.204 18.0637 118.64 18.1336 117.197 18.6475C117.197 18.6476 117.197 18.6477 117.197 18.6477L113.296 20.049L113.294 20.0495C112.216 20.4333 111.079 20.6283 109.934 20.6259ZM109.934 20.6259C109.934 20.6259 109.933 20.6259 109.933 20.6259L109.934 20.1259L109.935 20.6259C109.935 20.6259 109.934 20.6259 109.934 20.6259Z" stroke="#252422"/>
<path d="M107.421 25.3971C107.444 25.3921 107.47 25.3858 107.497 25.3779L107.497 25.378L107.501 25.3768C108.453 25.0928 109.483 25.2695 110.285 25.8546L110.285 25.8547L110.294 25.8609C110.807 26.2181 111.119 26.7993 111.132 27.4243L111.132 28.9235L111.132 28.9277C111.139 29.8381 111.55 30.6983 112.253 31.2767C112.938 31.8507 113.804 32.1631 114.697 32.1583C116.567 32.2511 118.166 30.8249 118.284 28.9553L118.285 28.9394V28.9236V25.5858C118.351 25.4275 118.507 25.3217 118.682 25.3217C118.857 25.3217 119.013 25.4275 119.079 25.5858L119.079 26.8727L119.079 26.8761C119.083 27.5915 119.402 28.2686 119.95 28.7284C120.473 29.181 121.143 29.4282 121.834 29.4237C123.292 29.4829 124.529 28.3583 124.606 26.899L124.607 26.8859V26.8727V24.3195C126.857 24.7861 129.196 24.1699 130.923 22.6621L131.472 25.4685C131.472 25.469 131.472 25.4695 131.472 25.47C132.001 28.2749 131.227 31.1681 129.367 33.3337C126.709 36.3644 122.851 38.0698 118.82 37.9949V37.9948H118.811H107.189V37.9947L107.178 37.9949C103.232 38.0823 99.4431 36.4522 96.7936 33.5274C94.9283 31.4539 94.0725 28.6634 94.4545 25.9007L94.8599 23.1347C96.1825 23.9936 97.8237 24.2564 99.3694 23.8256C99.3958 23.8199 99.4227 23.8132 99.45 23.8052C100.37 23.5406 101.359 23.6924 102.158 24.2206C102.158 24.2207 102.158 24.2209 102.158 24.2211L102.8 24.65C102.801 24.6502 102.801 24.6503 102.801 24.6504C104.158 25.5628 105.846 25.8355 107.421 25.3971Z" fill="#252422"/>
<path d="M107.421 25.3971C107.444 25.3921 107.47 25.3858 107.497 25.3779L107.497 25.378L107.501 25.3768C108.453 25.0928 109.483 25.2695 110.285 25.8546L110.285 25.8547L110.294 25.8609C110.807 26.2181 111.119 26.7993 111.132 27.4243L111.132 28.9235L111.132 28.9277C111.139 29.8381 111.55 30.6983 112.253 31.2767C112.938 31.8507 113.804 32.1631 114.697 32.1583C116.567 32.2511 118.166 30.8249 118.284 28.9553L118.285 28.9394V28.9236V25.5858C118.351 25.4275 118.507 25.3217 118.682 25.3217C118.857 25.3217 119.013 25.4275 119.079 25.5858L119.079 26.8727L119.079 26.8761C119.083 27.5915 119.402 28.2686 119.95 28.7284C120.473 29.181 121.143 29.4282 121.834 29.4237C123.292 29.4829 124.529 28.3583 124.606 26.899L124.607 26.8859V26.8727V24.3195C126.857 24.7861 129.196 24.1699 130.923 22.6621L131.472 25.4685C131.472 25.469 131.472 25.4695 131.472 25.47C132.001 28.2749 131.227 31.1681 129.367 33.3337C126.709 36.3644 122.851 38.0698 118.82 37.9949V37.9948H118.811H107.189V37.9947L107.178 37.9949C103.232 38.0823 99.4431 36.4522 96.7936 33.5274C94.9283 31.4539 94.0725 28.6634 94.4545 25.9007L94.8599 23.1347C96.1825 23.9936 97.8237 24.2564 99.3694 23.8256C99.3958 23.8199 99.4227 23.8132 99.45 23.8052C100.37 23.5406 101.359 23.6924 102.158 24.2206C102.158 24.2207 102.158 24.2209 102.158 24.2211L102.8 24.65C102.801 24.6502 102.801 24.6503 102.801 24.6504C104.158 25.5628 105.846 25.8355 107.421 25.3971Z" fill="#FFFCF2"/>
<path d="M107.421 25.3971C107.444 25.3921 107.47 25.3858 107.497 25.3779L107.497 25.378L107.501 25.3768C108.453 25.0928 109.483 25.2695 110.285 25.8546L110.285 25.8547L110.294 25.8609C110.807 26.2181 111.119 26.7993 111.132 27.4243L111.132 28.9235L111.132 28.9277C111.139 29.8381 111.55 30.6983 112.253 31.2767C112.938 31.8507 113.804 32.1631 114.697 32.1583C116.567 32.2511 118.166 30.8249 118.284 28.9553L118.285 28.9394V28.9236V25.5858C118.351 25.4275 118.507 25.3217 118.682 25.3217C118.857 25.3217 119.013 25.4275 119.079 25.5858L119.079 26.8727L119.079 26.8761C119.083 27.5915 119.402 28.2686 119.95 28.7284C120.473 29.181 121.143 29.4282 121.834 29.4237C123.292 29.4829 124.529 28.3583 124.606 26.899L124.607 26.8859V26.8727V24.3195C126.857 24.7861 129.196 24.1699 130.923 22.6621L131.472 25.4685C131.472 25.469 131.472 25.4695 131.472 25.47C132.001 28.2749 131.227 31.1681 129.367 33.3337C126.709 36.3644 122.851 38.0698 118.82 37.9949V37.9948H118.811H107.189V37.9947L107.178 37.9949C103.232 38.0823 99.4431 36.4522 96.7936 33.5274C94.9283 31.4539 94.0725 28.6634 94.4545 25.9007L94.8599 23.1347C96.1825 23.9936 97.8237 24.2564 99.3694 23.8256C99.3958 23.8199 99.4227 23.8132 99.45 23.8052C100.37 23.5406 101.359 23.6924 102.158 24.2206C102.158 24.2207 102.158 24.2209 102.158 24.2211L102.8 24.65C102.801 24.6502 102.801 24.6503 102.801 24.6504C104.158 25.5628 105.846 25.8355 107.421 25.3971Z" stroke="#252422"/>
</g>
<defs>
<clipPath id="clip0">
<rect width="76" height="76" fill="white" transform="translate(0 76)"/>
</clipPath>
<clipPath id="clip1">
<rect width="76" height="76" fill="white" transform="translate(75)"/>
</clipPath>
</defs>
</svg>
