<svg width="24" height="24" viewBox="0 0 24 24" fill="none" xmlns="http://www.w3.org/2000/svg">
<path d="M12 0C5.3828 0 0 5.3828 0 12C0 18.6172 5.3828 24 12 24C18.6172 24 24 18.6163 24 12C24 5.38373 18.6172 0 12 0ZM12 22.141C6.40898 22.141 1.85902 17.592 1.85902 12C1.85902 6.40805 6.40898 1.85902 12 1.85902C17.592 1.85902 22.141 6.40805 22.141 12C22.141 17.592 17.591 22.141 12 22.141Z" fill="#252422"/>
<path d="M17.308 13.2828L12.6605 8.63524C12.2979 8.27458 11.7124 8.27458 11.3499 8.63524L6.70229 13.2828C6.40393 13.6304 6.40393 14.1445 6.70229 14.4921C7.03599 14.8816 7.62343 14.9271 8.01291 14.5934L12.0005 10.6058L15.9974 14.5934C16.36 14.9541 16.9455 14.9541 17.308 14.5934C17.6687 14.2309 17.6687 13.6453 17.308 13.2828Z" fill="#252422"/>
</svg>
