<svg width="240" height="214" viewBox="0 0 240 214" fill="none" xmlns="http://www.w3.org/2000/svg">
<path d="M30.9127 132.073L35.1854 133.379C39.8229 134.779 44.7708 134.779 49.4083 133.379C54.489 131.83 59.8998 131.722 65.0381 133.068L66.6228 133.482C71.6983 134.807 77.0655 134.463 81.9302 132.501L86.2678 130.735C87.5142 130.327 88.4929 129.351 88.9046 128.106C89.2645 126.253 88.7759 124.337 87.5731 122.882C81.99 115.025 70.1996 106.568 57.508 106.568C44.5035 106.568 34.7856 111.095 34.7856 115.143C34.7856 119.19 44.5033 123.718 57.508 123.718C57.7202 123.727 57.9298 123.77 58.1293 123.843C58.3288 123.77 58.5382 123.727 58.7506 123.718C63.9277 123.718 67.7963 121.454 67.7963 119.43C67.7963 117.406 63.9277 115.143 58.7506 115.143C56.1223 115.062 53.5279 115.754 51.2895 117.135C50.3246 117.818 48.9884 117.591 48.3035 116.627C47.6187 115.663 47.8438 114.327 48.8067 113.641C51.7668 111.735 55.2315 110.765 58.7506 110.855C66.2273 110.855 72.0838 114.622 72.0838 119.43C72.0838 124.239 66.2273 128.005 58.7506 128.005C58.5385 127.995 58.3288 127.952 58.1293 127.879C57.9298 127.952 57.7204 127.995 57.508 128.005C45.9615 128.005 36.5441 124.895 32.5552 120.247L28.5012 124.705C27.479 125.778 27.0912 127.307 27.4785 128.737C27.9739 130.366 29.2708 131.626 30.9127 132.073Z" fill="#252422"/>
<path d="M13.1938 143.494C14.7771 144.59 16.6601 145.17 18.5856 145.154H22.5473C26.163 145.152 29.749 145.809 33.1288 147.094L41.2931 150.227C46.974 152.355 53.2225 152.419 58.9451 150.405L71.1803 146.01C76.8126 144.002 82.9172 143.728 88.7066 145.223L95.0696 146.874C100.211 148.296 105.715 146.696 109.291 142.737C109.328 142.692 109.493 142.521 109.533 142.479C110.816 140.908 111.412 138.886 111.184 136.871C110.957 134.855 109.926 133.017 108.325 131.772C105.239 129.166 101.491 127.466 97.4977 126.862L93.3043 126.185C93.4025 127.233 93.3064 128.29 93.0208 129.304C92.2412 131.805 90.3425 133.801 87.8834 134.706L83.5467 136.472C77.8232 138.78 71.5088 139.185 65.5367 137.629L63.9519 137.215C59.5827 136.068 54.9808 136.16 50.6605 137.48C45.2061 139.125 39.3874 139.125 33.9328 137.48L29.6601 136.174C26.6102 135.301 24.224 132.921 23.3431 129.873C23.0148 128.677 22.9548 127.424 23.1675 126.202L15.3147 127.312C13.1178 127.555 11.1502 128.783 9.96493 130.649C7.43036 135.104 8.8531 140.767 13.1938 143.494Z" fill="#252422"/>
<path d="M4.18454 158.892C7.15898 162.086 11.6882 163.315 15.8692 162.064C15.9257 162.048 15.9822 162.035 16.0399 162.023C20.551 160.752 25.3929 161.527 29.282 164.143L31.3043 165.494C34.1929 167.405 37.7735 167.953 41.1017 166.996C41.1603 166.979 41.2199 166.965 41.2797 166.953C45.987 165.614 51.0489 166.527 54.9917 169.427C58.0848 171.654 59.9413 175.213 59.9973 179.024V183.74C60.0269 184.88 60.5582 185.947 61.4492 186.658C62.5509 187.559 63.9345 188.044 65.3577 188.028C68.0109 188.287 70.3879 186.386 70.7181 183.74V173.022C71.0796 169.372 74.1495 166.592 77.817 166.592C81.4845 166.592 84.5544 169.373 84.9159 173.022V177.31C84.9302 177.852 85.187 178.36 85.6153 178.693C86.2031 179.196 86.9544 179.466 87.7276 179.453C89.0838 179.593 90.3147 178.654 90.5391 177.31V167.191C90.6369 164.829 92.6242 162.99 94.9867 163.075C95.4205 163.071 95.8528 163.128 96.2711 163.243C102.397 165.046 109.017 163.282 113.434 158.67C115.057 156.859 115.877 154.468 115.709 152.043C115.464 149.579 114.26 147.309 112.358 145.724C107.706 150.776 100.63 152.82 94.0008 151.025L87.6294 149.372C82.6756 148.093 77.4517 148.326 72.632 150.044L60.3959 154.439C57.1826 155.582 53.7959 156.163 50.3852 156.155C46.7575 156.162 43.1589 155.51 39.7641 154.232L31.6016 151.1C28.7097 150.002 25.6419 149.44 22.5484 149.442H18.5855C15.7688 149.455 13.0171 148.598 10.7067 146.986C9.49356 146.123 8.40939 145.092 7.4863 143.924C7.24222 144.454 6.79157 144.861 6.23941 145.049L5.26801 145.882C3.35758 147.377 2.14117 149.587 1.90108 152.001C1.66099 154.415 2.41831 156.822 3.99721 158.663L4.18454 158.892Z" fill="#252422"/>
<path d="M119.461 172.616L117.163 160.856C117.002 161.064 116.849 161.276 116.675 161.477C111.155 167.332 102.822 169.606 95.0926 167.367C95.0028 167.365 94.9133 167.375 94.8258 167.394V177.309C94.6286 181.04 91.4584 183.911 87.7269 183.741C85.9219 183.761 84.1721 183.119 82.8092 181.935C81.4378 180.788 80.6399 179.097 80.6277 177.309V173.022C80.2802 171.756 79.1292 170.878 77.8162 170.878C76.5032 170.878 75.3522 171.756 75.0047 173.022V183.74C74.6859 188.761 70.3808 192.588 65.3572 192.315C62.9096 192.338 60.534 191.486 58.6592 189.913C56.8097 188.394 55.7293 186.133 55.7094 183.74V179.024C55.6632 176.556 54.4367 174.26 52.4114 172.85C49.4991 170.727 45.7626 170.086 42.3094 171.117C42.2519 171.133 42.1931 171.147 42.1345 171.159C37.6234 172.43 32.7814 171.655 28.8923 169.039L26.87 167.688C23.9821 165.776 20.4009 165.227 17.0726 166.186C17.0126 166.204 16.9519 166.218 16.8905 166.23C11.6396 167.713 5.99505 166.386 1.95497 162.718L0.295654 174.041C-0.967884 183.164 1.8579 192.38 8.0185 199.227C16.6318 208.736 28.9502 214.036 41.7774 213.752H78.2202C91.3224 213.996 103.866 208.451 112.505 198.597C118.651 191.443 121.21 181.883 119.461 172.616Z" fill="#252422"/>
<path d="M150.913 131.983L155.185 133.289C159.823 134.689 164.771 134.689 169.408 133.289C174.489 131.74 179.9 131.632 185.038 132.978L186.623 133.392C191.698 134.717 197.065 134.373 201.93 132.411L206.268 130.645C207.514 130.237 208.493 129.261 208.905 128.016C209.265 126.163 208.776 124.247 207.573 122.792C201.99 114.935 190.2 106.478 177.508 106.478C164.504 106.478 154.786 111.005 154.786 115.053C154.786 119.1 164.503 123.627 177.508 123.627C177.72 123.637 177.93 123.68 178.129 123.753C178.329 123.68 178.538 123.637 178.751 123.627C183.928 123.627 187.796 121.364 187.796 119.34C187.796 117.316 183.928 115.053 178.751 115.053C176.122 114.971 173.528 115.664 171.289 117.045C170.325 117.728 168.988 117.501 168.304 116.537C167.619 115.573 167.844 114.237 168.807 113.551C171.767 111.645 175.232 110.675 178.751 110.765C186.227 110.765 192.084 114.532 192.084 119.34C192.084 124.148 186.227 127.915 178.751 127.915C178.538 127.905 178.329 127.862 178.129 127.789C177.93 127.862 177.72 127.905 177.508 127.915C165.961 127.915 156.544 124.805 152.555 120.157L148.501 124.615C147.479 125.688 147.091 127.217 147.478 128.647C147.974 130.276 149.271 131.536 150.913 131.983Z" fill="#252422"/>
<path d="M133.194 143.404C134.777 144.5 136.66 145.08 138.586 145.064H142.547C146.163 145.062 149.749 145.719 153.129 147.004L161.293 150.137C166.974 152.265 173.223 152.328 178.945 150.315L191.18 145.92C196.813 143.912 202.917 143.638 208.707 145.133L215.07 146.784C220.211 148.206 225.715 146.606 229.291 142.647C229.328 142.602 229.493 142.431 229.533 142.389C230.816 140.818 231.412 138.796 231.184 136.781C230.957 134.765 229.926 132.927 228.325 131.682C225.239 129.075 221.491 127.376 217.498 126.772L213.304 126.094C213.403 127.143 213.306 128.2 213.021 129.214C212.241 131.715 210.343 133.711 207.883 134.616L203.547 136.381C197.823 138.69 191.509 139.095 185.537 137.539L183.952 137.124C179.583 135.978 174.981 136.07 170.661 137.389C165.206 139.035 159.387 139.035 153.933 137.389L149.66 136.084C146.61 135.211 144.224 132.831 143.343 129.783C143.015 128.587 142.955 127.334 143.167 126.112L135.315 127.222C133.118 127.465 131.15 128.693 129.965 130.558C127.43 135.014 128.853 140.677 133.194 143.404Z" fill="#252422"/>
<path d="M124.185 158.802C127.159 161.996 131.688 163.225 135.869 161.974C135.926 161.958 135.982 161.945 136.04 161.933C140.551 160.662 145.393 161.437 149.282 164.053L151.304 165.404C154.193 167.314 157.773 167.863 161.102 166.906C161.16 166.889 161.22 166.875 161.28 166.863C165.987 165.524 171.049 166.437 174.992 169.336C178.085 171.563 179.941 175.123 179.997 178.934V183.65C180.027 184.789 180.558 185.857 181.449 186.568C182.551 187.469 183.934 187.954 185.358 187.938C188.011 188.197 190.388 186.296 190.718 183.65V172.932C191.08 169.282 194.149 166.502 197.817 166.502C201.485 166.502 204.554 169.283 204.916 172.932V177.219C204.93 177.762 205.187 178.27 205.615 178.603C206.203 179.106 206.954 179.376 207.728 179.363C209.084 179.503 210.315 178.564 210.539 177.219V167.101C210.637 164.739 212.624 162.9 214.987 162.985C215.42 162.981 215.853 163.038 216.271 163.153C222.397 164.956 229.017 163.192 233.434 158.58C235.057 156.769 235.877 154.378 235.709 151.952C235.464 149.488 234.26 147.219 232.358 145.634C227.706 150.686 220.63 152.73 214.001 150.935L207.629 149.282C202.676 148.002 197.452 148.236 192.632 149.953L180.396 154.349C177.183 155.492 173.796 156.073 170.385 156.065C166.757 156.072 163.159 155.42 159.764 154.141L151.602 151.01C148.71 149.911 145.642 149.35 142.548 149.352H138.585C135.769 149.365 133.017 148.507 130.707 146.896C129.494 146.033 128.409 145.002 127.486 143.834C127.242 144.364 126.792 144.771 126.239 144.959L125.268 145.792C123.358 147.287 122.141 149.497 121.901 151.911C121.661 154.325 122.418 156.732 123.997 158.573L124.185 158.802Z" fill="#252422"/>
<path d="M239.461 172.526L237.163 160.766C237.002 160.974 236.849 161.186 236.675 161.387C231.155 167.242 222.822 169.516 215.093 167.277C215.003 167.275 214.913 167.285 214.826 167.304V177.219C214.629 180.949 211.458 183.821 207.727 183.65C205.922 183.671 204.172 183.028 202.809 181.845C201.438 180.698 200.64 179.007 200.628 177.219V172.932C200.28 171.666 199.129 170.788 197.816 170.788C196.503 170.788 195.352 171.666 195.005 172.932V183.65C194.686 188.671 190.381 192.498 185.357 192.225C182.91 192.248 180.534 191.396 178.659 189.823C176.81 188.304 175.729 186.043 175.709 183.65V178.933C175.663 176.466 174.437 174.17 172.411 172.76C169.499 170.637 165.763 169.996 162.309 171.027C162.252 171.043 162.193 171.057 162.134 171.069C157.623 172.34 152.781 171.564 148.892 168.949L146.87 167.598C143.982 165.686 140.401 165.137 137.073 166.096C137.013 166.114 136.952 166.128 136.89 166.14C131.64 167.623 125.995 166.296 121.955 162.628L120.296 173.951C119.032 183.074 121.858 192.29 128.018 199.137C136.632 208.646 148.95 213.946 161.777 213.662H198.22C211.322 213.906 223.866 208.361 232.505 198.507C238.651 191.353 241.21 181.793 239.461 172.526Z" fill="#252422"/>
<path d="M90.068 25.5053L94.3407 26.8106C98.9782 28.2111 103.926 28.2111 108.564 26.8106C113.644 25.2617 119.055 25.1541 124.193 26.4997L125.778 26.9143C130.854 28.2388 136.221 27.8946 141.085 25.9325L145.423 24.1668C146.67 23.7586 147.648 22.7827 148.06 21.5375C148.42 19.685 147.931 17.7687 146.728 16.3143C141.145 8.45661 129.355 0.00012207 116.663 0.00012207C103.659 0.00012207 93.9409 4.52719 93.9409 8.57478C93.9409 12.6224 103.659 17.1494 116.663 17.1494C116.875 17.1593 117.085 17.2017 117.285 17.2749C117.484 17.2017 117.693 17.1593 117.906 17.1494C123.083 17.1494 126.952 14.8864 126.952 12.862C126.952 10.8376 123.083 8.57455 117.906 8.57455C115.278 8.49342 112.683 9.18604 110.445 10.5666C109.48 11.2503 108.144 11.0233 107.459 10.0592C106.774 9.0953 106.999 7.75884 107.962 7.07256C110.922 5.16729 114.387 4.19683 117.906 4.28734C125.383 4.28734 131.239 8.05357 131.239 12.862C131.239 17.6704 125.383 21.4367 117.906 21.4367C117.694 21.4268 117.484 21.3844 117.285 21.3112C117.085 21.3844 116.876 21.4268 116.663 21.4367C105.117 21.4367 95.6994 18.3269 91.7104 13.6793L87.6565 18.1373C86.6342 19.2102 86.2464 20.7389 86.6338 22.1691C87.1292 23.7977 88.426 25.0575 90.068 25.5053Z" fill="#252422"/>
<path d="M72.349 36.9261C73.9324 38.0218 75.8154 38.6016 77.7408 38.5862H81.7026C85.3183 38.5838 88.9042 39.241 92.2841 40.5257L100.448 43.6586C106.129 45.7873 112.378 45.8504 118.1 43.8366L130.336 39.4415C135.968 37.434 142.072 37.1601 147.862 38.6553L154.225 40.306C159.366 41.7282 164.87 40.1275 168.447 36.1693C168.483 36.1243 168.648 35.9526 168.688 35.9107C169.972 34.34 170.567 32.3182 170.339 30.3027C170.112 28.2872 169.081 26.4488 167.48 25.2038C164.395 22.5975 160.647 20.8978 156.653 20.2936L152.46 19.6165C152.558 20.6648 152.462 21.7222 152.176 22.7356C151.396 25.2368 149.498 27.2333 147.039 28.1377L142.702 29.9034C136.978 32.2115 130.664 32.6174 124.692 31.061L123.107 30.6464C118.738 29.5004 114.136 29.592 109.816 30.9114C104.361 32.5569 98.5427 32.5569 93.088 30.9114L88.8154 29.6061C85.7654 28.733 83.3793 26.3527 82.4984 23.3048C82.1701 22.1091 82.1101 20.8556 82.3228 19.634L74.47 20.7435C72.2731 20.9874 70.3054 22.2146 69.1202 24.0805C66.5856 28.5362 68.0084 34.1986 72.349 36.9261Z" fill="#252422"/>
<path d="M63.3398 52.3244C66.3143 55.518 70.8434 56.7473 75.0244 55.496C75.0809 55.4803 75.1374 55.4667 75.1951 55.4552C79.7063 54.1839 84.5482 54.9588 88.4373 57.5748L90.4596 58.926C93.3482 60.8364 96.9287 61.3853 100.257 60.428C100.316 60.4113 100.375 60.3966 100.435 60.3851C105.142 59.046 110.204 59.9591 114.147 62.8585C117.24 65.0854 119.097 68.6448 119.153 72.4559V77.1724C119.182 78.3114 119.713 79.3792 120.604 80.0896C121.706 80.9907 123.09 81.4758 124.513 81.4598C127.166 81.7189 129.543 79.8179 129.873 77.1724V66.454C130.235 62.8043 133.305 60.0235 136.972 60.0235C140.64 60.0235 143.71 62.8045 144.071 66.454V70.7414C144.086 71.284 144.342 71.7919 144.771 72.1253C145.358 72.6277 146.11 72.8981 146.883 72.8852C148.239 73.0249 149.47 72.0861 149.694 70.7414V60.6226C149.792 58.2608 151.78 56.4217 154.142 56.5068C154.576 56.503 155.008 56.5598 155.426 56.6754C161.553 58.4777 168.172 56.7138 172.59 52.1023C174.212 50.2911 175.033 47.9002 174.864 45.4745C174.619 43.0104 173.416 40.7413 171.513 39.1558C166.862 44.2081 159.785 46.2519 153.156 44.4571L146.785 42.8044C141.831 41.5244 136.607 41.7582 131.787 43.4754L119.551 47.8707C116.338 49.0142 112.951 49.595 109.54 49.5872C105.913 49.594 102.314 48.942 98.9193 47.6634L90.7569 44.5317C87.865 43.4334 84.7972 42.8716 81.7037 42.8738H77.7407C74.9241 42.8871 72.1724 42.0294 69.862 40.4182C68.6488 39.5551 67.5647 38.5239 66.6416 37.3558C66.3975 37.8857 65.9468 38.2925 65.3947 38.4806L64.4233 39.3139C62.5129 40.8086 61.2964 43.0191 61.0564 45.433C60.8163 47.8468 61.5736 50.2536 63.1525 52.0953L63.3398 52.3244Z" fill="#252422"/>
<path d="M178.617 66.0477L176.318 54.2881C176.157 54.4958 176.004 54.7075 175.83 54.9085C170.31 60.764 161.977 63.0379 154.248 60.7985C154.158 60.7973 154.069 60.8065 153.981 60.8257V70.7413C153.784 74.4714 150.614 77.3434 146.882 77.1725C145.077 77.1931 143.327 76.5504 141.964 75.3668C140.593 74.2203 139.795 72.5289 139.783 70.7413V66.4538C139.436 65.1877 138.285 64.3101 136.971 64.3101C135.658 64.3101 134.507 65.1877 134.16 66.4538V77.1722C133.841 82.1931 129.536 86.0196 124.512 85.7469C122.065 85.7703 119.689 84.9183 117.814 83.3445C115.965 81.8259 114.885 79.5649 114.865 77.172V72.4555C114.818 69.9879 113.592 67.692 111.567 66.282C108.654 64.1591 104.918 63.5181 101.465 64.5486C101.407 64.5652 101.348 64.5788 101.29 64.5905C96.7786 65.8616 91.9367 65.0864 88.0476 62.471L86.0253 61.1197C83.1374 59.2077 79.5562 58.6585 76.2279 59.6177C76.1679 59.6356 76.1072 59.6501 76.0457 59.6618C70.7949 61.1448 65.1503 59.8177 61.1102 56.1502L59.4509 67.4726C58.1874 76.5959 61.0132 85.8118 67.1738 92.6587C75.7871 102.168 88.1055 107.468 100.933 107.184H137.375C150.478 107.427 163.021 101.883 171.66 92.0287C177.806 84.8749 180.366 75.3152 178.617 66.0477Z" fill="#252422"/>
</svg>
