<svg width="238" height="218" viewBox="0 0 238 218" fill="none" xmlns="http://www.w3.org/2000/svg">
<path d="M14.8936 178.448L16.9522 179.077C19.1865 179.752 21.5704 179.752 23.8047 179.077C26.2525 178.331 28.8594 178.279 31.335 178.928L32.0986 179.127C34.5439 179.765 37.1298 179.6 39.4736 178.654L41.5634 177.804C42.164 177.607 42.6355 177.137 42.8338 176.537C43.0072 175.644 42.7718 174.721 42.1923 174.02C39.5024 170.234 33.8218 166.16 27.7071 166.16C21.4416 166.16 16.7595 168.341 16.7595 170.291C16.7595 172.241 21.4415 174.423 27.7071 174.423C27.8093 174.427 27.9103 174.448 28.0064 174.483C28.1026 174.448 28.2034 174.427 28.3058 174.423C30.8 174.423 32.664 173.332 32.664 172.357C32.664 171.382 30.8 170.291 28.3058 170.291C27.0394 170.252 25.7895 170.586 24.711 171.251C24.2462 171.58 23.6024 171.471 23.2724 171.007C22.9424 170.542 23.0509 169.898 23.5148 169.568C24.941 168.65 26.6103 168.182 28.3058 168.226C31.908 168.226 34.7296 170.04 34.7296 172.357C34.7296 174.674 31.908 176.488 28.3058 176.488C28.2036 176.483 28.1026 176.463 28.0064 176.428C27.9103 176.463 27.8094 176.483 27.7071 176.488C22.144 176.488 17.6068 174.99 15.6849 172.751L13.7318 174.899C13.2392 175.415 13.0524 176.152 13.239 176.841C13.4777 177.626 14.1025 178.233 14.8936 178.448Z" fill="#252422"/>
<path d="M6.35707 183.951C7.11992 184.479 8.02714 184.758 8.95481 184.751H10.8636C12.6056 184.749 14.3333 185.066 15.9617 185.685L19.8952 187.194C22.6322 188.22 25.6427 188.25 28.3999 187.28L34.2947 185.163C37.0084 184.195 39.9495 184.064 42.7388 184.784L45.8045 185.579C48.2815 186.264 50.9334 185.493 52.6564 183.586C52.6741 183.564 52.7534 183.482 52.7729 183.462C53.3912 182.705 53.678 181.731 53.5684 180.76C53.4588 179.789 52.9622 178.903 52.1909 178.303C50.7042 177.047 48.8984 176.228 46.9743 175.937L44.9539 175.611C45.0013 176.116 44.955 176.626 44.8174 177.114C44.4418 178.319 43.527 179.281 42.3422 179.717L40.2528 180.567C37.4952 181.679 34.453 181.875 31.5756 181.125L30.8121 180.925C28.707 180.373 26.4899 180.417 24.4084 181.053C21.7805 181.846 18.977 181.846 16.349 181.053L14.2905 180.424C12.821 180.003 11.6714 178.857 11.247 177.388C11.0888 176.812 11.0599 176.208 11.1624 175.62L7.37895 176.154C6.32047 176.272 5.37247 176.863 4.80144 177.762C3.58029 179.909 4.26576 182.637 6.35707 183.951Z" fill="#252422"/>
<path d="M2.0167 191.37C3.44977 192.909 5.63191 193.501 7.6463 192.898C7.67352 192.89 7.70075 192.884 7.72854 192.878C9.90198 192.266 12.2348 192.639 14.1086 193.9L15.0829 194.551C16.4746 195.471 18.1997 195.735 19.8032 195.274C19.8315 195.266 19.8602 195.259 19.889 195.254C22.157 194.608 24.5957 195.048 26.4954 196.445C27.9856 197.518 28.88 199.233 28.907 201.069V203.342C28.9213 203.89 29.1773 204.405 29.6065 204.747C30.1373 205.181 30.8039 205.415 31.4896 205.407C32.768 205.532 33.9132 204.616 34.0722 203.342V198.178C34.2464 196.419 35.7255 195.079 37.4925 195.079C39.2595 195.079 40.7385 196.419 40.9127 198.178V200.243C40.9196 200.505 41.0433 200.749 41.2497 200.91C41.5329 201.152 41.8948 201.282 42.2674 201.276C42.9208 201.343 43.5138 200.891 43.6219 200.243V195.368C43.669 194.23 44.6265 193.344 45.7648 193.385C45.9738 193.383 46.1821 193.411 46.3836 193.466C49.3351 194.335 52.5246 193.485 54.6527 191.263C55.4345 190.39 55.8298 189.238 55.7486 188.07C55.6304 186.883 55.0507 185.789 54.1342 185.025C51.8931 187.46 48.4836 188.444 45.2898 187.58L42.2201 186.783C39.8333 186.167 37.3165 186.279 34.9944 187.107L29.0991 189.224C27.5509 189.775 25.9192 190.055 24.2759 190.051C22.5282 190.055 20.7944 189.74 19.1588 189.124L15.2261 187.615C13.8328 187.086 12.3548 186.816 10.8643 186.817H8.955C7.59795 186.823 6.2722 186.41 5.15904 185.634C4.57456 185.218 4.05222 184.721 3.60747 184.158C3.48988 184.414 3.27276 184.609 3.00673 184.7L2.53871 185.102C1.61828 185.822 1.03222 186.887 0.916542 188.05C0.800866 189.213 1.16574 190.372 1.92645 191.26L2.0167 191.37Z" fill="#252422"/>
<path d="M57.5559 197.982L56.4485 192.316C56.3711 192.416 56.2973 192.518 56.2135 192.615C53.5538 195.436 49.5392 196.532 45.8152 195.453C45.7719 195.452 45.7288 195.456 45.6866 195.466V200.243C45.5916 202.04 44.0642 203.424 42.2664 203.342C41.3968 203.351 40.5537 203.042 39.8971 202.472C39.2363 201.919 38.8519 201.104 38.8461 200.243V198.177C38.6786 197.567 38.1241 197.144 37.4915 197.144C36.8589 197.144 36.3044 197.567 36.1369 198.177V203.341C35.9833 205.76 33.9092 207.604 31.4888 207.473C30.3095 207.484 29.165 207.073 28.2617 206.315C27.3707 205.584 26.8501 204.494 26.8405 203.341V201.069C26.8183 199.88 26.2273 198.774 25.2516 198.095C23.8484 197.072 22.0482 196.763 20.3845 197.259C20.3568 197.267 20.3284 197.274 20.3002 197.28C18.1268 197.892 15.7939 197.519 13.9202 196.258L12.9459 195.607C11.5545 194.686 9.82905 194.422 8.22552 194.884C8.1966 194.892 8.16734 194.899 8.13774 194.905C5.6079 195.619 2.88839 194.98 0.941895 193.213L0.142445 198.668C-0.466322 203.064 0.895128 207.504 3.86327 210.803C8.01314 215.384 13.9481 217.938 20.1282 217.801H37.6861C43.9987 217.918 50.0421 215.247 54.2042 210.499C57.1653 207.053 58.3985 202.447 57.5559 197.982Z" fill="#252422"/>
<path d="M72.709 178.405L74.7676 179.034C77.0019 179.709 79.3858 179.709 81.6201 179.034C84.068 178.288 86.6749 178.236 89.1505 178.884L89.914 179.084C92.3594 179.722 94.9452 179.556 97.289 178.611L99.3789 177.76C99.9794 177.563 100.451 177.093 100.649 176.493C100.823 175.601 100.587 174.678 100.008 173.977C97.3178 170.191 91.6373 166.117 85.5225 166.117C79.257 166.117 74.575 168.298 74.575 170.248C74.575 172.198 79.2569 174.379 85.5225 174.379C85.6247 174.384 85.7257 174.404 85.8219 174.44C85.918 174.404 86.0189 174.384 86.1212 174.379C88.6155 174.379 90.4794 173.289 90.4794 172.313C90.4794 171.338 88.6155 170.248 86.1212 170.248C84.8549 170.209 83.6049 170.542 82.5265 171.208C82.0616 171.537 81.4178 171.428 81.0878 170.963C80.7579 170.499 80.8663 169.855 81.3303 169.524C82.7565 168.606 84.4257 168.139 86.1212 168.182C89.7234 168.182 92.5451 169.997 92.5451 172.313C92.5451 174.63 89.7234 176.445 86.1212 176.445C86.019 176.44 85.918 176.42 85.8219 176.384C85.7257 176.42 85.6249 176.44 85.5225 176.445C79.9594 176.445 75.4222 174.946 73.5003 172.707L71.5472 174.855C71.0547 175.372 70.8678 176.109 71.0544 176.798C71.2931 177.582 71.9179 178.189 72.709 178.405Z" fill="#252422"/>
<path d="M64.1725 183.907C64.9354 184.435 65.8426 184.715 66.7702 184.707H68.679C70.421 184.706 72.1487 185.023 73.7771 185.642L77.7106 187.151C80.4477 188.177 83.4582 188.207 86.2153 187.237L92.1101 185.119C94.8238 184.152 97.7649 184.02 100.554 184.74L103.62 185.536C106.097 186.221 108.749 185.45 110.472 183.543C110.489 183.521 110.569 183.438 110.588 183.418C111.207 182.661 111.493 181.687 111.384 180.716C111.274 179.745 110.778 178.859 110.006 178.26C108.52 177.004 106.714 176.185 104.79 175.894L102.769 175.568C102.817 176.073 102.77 176.582 102.633 177.07C102.257 178.276 101.342 179.237 100.158 179.673L98.0682 180.524C95.3106 181.636 92.2684 181.831 89.3911 181.082L88.6275 180.882C86.5224 180.33 84.3053 180.374 82.2238 181.009C79.5959 181.802 76.7925 181.802 74.1645 181.009L72.1059 180.381C70.6365 179.96 69.4868 178.813 69.0624 177.345C68.9043 176.769 68.8753 176.165 68.9778 175.576L65.1944 176.111C64.1359 176.228 63.1879 176.819 62.6169 177.718C61.3957 179.865 62.0812 182.593 64.1725 183.907Z" fill="#252422"/>
<path d="M59.8321 191.326C61.2652 192.865 63.4473 193.457 65.4617 192.854C65.489 192.847 65.5162 192.84 65.544 192.835C67.7174 192.222 70.0502 192.596 71.924 193.856L72.8983 194.507C74.29 195.427 76.0151 195.692 77.6187 195.231C77.6469 195.223 77.6756 195.215 77.7044 195.21C79.9724 194.565 82.4112 195.005 84.3108 196.402C85.801 197.474 86.6955 199.189 86.7225 201.026V203.298C86.7367 203.847 86.9927 204.361 87.422 204.703C87.9528 205.138 88.6194 205.371 89.3051 205.364C90.5834 205.488 91.7286 204.573 91.8877 203.298V198.134C92.0619 196.375 93.5409 195.036 95.3079 195.036C97.0749 195.036 98.5539 196.376 98.7281 198.134V200.2C98.735 200.461 98.8587 200.706 99.0651 200.866C99.3483 201.108 99.7103 201.239 100.083 201.232C100.736 201.3 101.329 200.847 101.437 200.2V195.324C101.484 194.186 102.442 193.3 103.58 193.341C103.789 193.34 103.997 193.367 104.199 193.423C107.151 194.291 110.34 193.441 112.468 191.219C113.25 190.347 113.645 189.195 113.564 188.026C113.446 186.839 112.866 185.746 111.95 184.982C109.709 187.416 106.299 188.401 103.105 187.536L100.035 186.74C97.6488 186.123 95.1319 186.236 92.8098 187.063L86.9145 189.181C85.3663 189.731 83.7347 190.011 82.0914 190.008C80.3436 190.011 78.6098 189.697 76.9742 189.081L73.0415 187.572C71.6482 187.043 70.1702 186.772 68.6798 186.773H66.7704C65.4134 186.779 64.0876 186.366 62.9745 185.59C62.39 185.174 61.8676 184.677 61.4229 184.115C61.3053 184.37 61.0882 184.566 60.8222 184.656L60.3541 185.058C59.4337 185.778 58.8476 186.843 58.732 188.006C58.6163 189.169 58.9812 190.329 59.7419 191.216L59.8321 191.326Z" fill="#252422"/>
<path d="M115.371 197.938L114.264 192.272C114.186 192.373 114.113 192.475 114.029 192.571C111.369 195.393 107.355 196.488 103.631 195.409C103.587 195.409 103.544 195.413 103.502 195.422V200.2C103.407 201.997 101.88 203.38 100.082 203.298C99.2122 203.308 98.3692 202.998 97.7125 202.428C97.0518 201.876 96.6674 201.061 96.6615 200.2V198.134C96.4941 197.524 95.9395 197.101 95.3069 197.101C94.6743 197.101 94.1198 197.524 93.9524 198.134V203.298C93.7987 205.717 91.7246 207.561 89.3042 207.429C88.125 207.44 86.9804 207.03 86.0772 206.272C85.1861 205.54 84.6655 204.451 84.6559 203.298V201.025C84.6337 199.837 84.0428 198.73 83.067 198.051C81.6638 197.028 79.8636 196.719 78.1999 197.216C78.1722 197.224 78.1439 197.23 78.1156 197.236C75.9422 197.849 73.6094 197.475 71.7356 196.215L70.7613 195.564C69.3699 194.643 67.6445 194.378 66.0409 194.84C66.012 194.849 65.9828 194.856 65.9532 194.861C63.4233 195.576 60.7038 194.937 58.7573 193.17L57.9579 198.625C57.3491 203.02 58.7106 207.46 61.6787 210.759C65.8286 215.341 71.7635 217.894 77.9436 217.758H95.5016C101.814 217.875 107.858 215.203 112.02 210.456C114.981 207.009 116.214 202.403 115.371 197.938Z" fill="#252422"/>
<path d="M43.3946 127.104L45.4531 127.733C47.6875 128.408 50.0714 128.408 52.3057 127.733C54.7535 126.987 57.3604 126.935 59.836 127.583L60.5995 127.783C63.0449 128.421 65.6308 128.255 67.9746 127.31L70.0644 126.459C70.6649 126.262 71.1364 125.792 71.3348 125.192C71.5082 124.3 71.2728 123.376 70.6933 122.676C68.0034 118.89 62.3228 114.816 56.208 114.816C49.9426 114.816 45.2605 116.997 45.2605 118.947C45.2605 120.897 49.9425 123.078 56.208 123.078C56.3103 123.083 56.4113 123.103 56.5074 123.139C56.6035 123.103 56.7044 123.083 56.8068 123.078C59.301 123.078 61.1649 121.988 61.1649 121.012C61.1649 120.037 59.301 118.947 56.8068 118.947C55.5404 118.908 54.2905 119.241 53.212 119.907C52.7471 120.236 52.1034 120.127 51.7734 119.662C51.4434 119.198 51.5519 118.554 52.0158 118.223C53.442 117.305 55.1113 116.838 56.8068 116.881C60.409 116.881 63.2306 118.696 63.2306 121.012C63.2306 123.329 60.409 125.144 56.8068 125.144C56.7045 125.139 56.6035 125.119 56.5074 125.083C56.4113 125.119 56.3104 125.139 56.208 125.144C50.645 125.144 46.1078 123.645 44.1859 121.406L42.2327 123.554C41.7402 124.071 41.5534 124.808 41.74 125.497C41.9787 126.281 42.6035 126.888 43.3946 127.104Z" fill="#252422"/>
<path d="M34.858 132.606C35.6209 133.134 36.5281 133.414 37.4558 133.406H39.3646C41.1066 133.405 42.8343 133.722 44.4626 134.341L48.3962 135.85C51.1332 136.876 54.1437 136.906 56.9009 135.936L62.7957 133.818C65.5093 132.851 68.4505 132.719 71.2398 133.439L74.3054 134.235C76.7825 134.92 79.4344 134.149 81.1574 132.242C81.175 132.22 81.2543 132.137 81.2739 132.117C81.8921 131.36 82.179 130.386 82.0694 129.415C81.9598 128.444 81.4632 127.558 80.6919 126.959C79.2052 125.703 77.3994 124.884 75.4753 124.593L73.4549 124.267C73.5023 124.772 73.4559 125.281 73.3183 125.769C72.9427 126.974 72.028 127.936 70.8432 128.372L68.7538 129.223C65.9962 130.335 62.954 130.53 60.0766 129.781L59.3131 129.581C57.208 129.029 54.9908 129.073 52.9094 129.708C50.2815 130.501 47.478 130.501 44.85 129.708L42.7914 129.08C41.322 128.659 40.1724 127.512 39.748 126.044C39.5898 125.468 39.5609 124.864 39.6633 124.275L35.8799 124.81C34.8214 124.927 33.8734 125.518 33.3024 126.417C32.0813 128.564 32.7667 131.292 34.858 132.606Z" fill="#252422"/>
<path d="M30.5177 140.025C31.9508 141.564 34.1329 142.156 36.1473 141.553C36.1745 141.546 36.2017 141.539 36.2295 141.534C38.403 140.921 40.7358 141.295 42.6095 142.555L43.5839 143.206C44.9756 144.126 46.7007 144.391 48.3042 143.93C48.3324 143.922 48.3611 143.914 48.3899 143.909C50.6579 143.264 53.0967 143.704 54.9963 145.101C56.4866 146.173 57.381 147.888 57.408 149.725V151.997C57.4223 152.546 57.6782 153.06 58.1075 153.402C58.6383 153.837 59.3049 154.07 59.9906 154.063C61.2689 154.187 62.4142 153.271 62.5732 151.997V146.833C62.7474 145.074 64.2265 143.735 65.9935 143.735C67.7604 143.735 69.2395 145.075 69.4137 146.833V148.899C69.4206 149.16 69.5443 149.405 69.7507 149.565C70.0339 149.807 70.3958 149.938 70.7684 149.931C71.4217 149.999 72.0148 149.546 72.1229 148.899V144.023C72.17 142.885 73.1275 141.999 74.2657 142.04C74.4747 142.039 74.683 142.066 74.8846 142.122C77.8361 142.99 81.0256 142.14 83.1537 139.918C83.9355 139.046 84.3308 137.894 84.2496 136.725C84.1314 135.538 83.5517 134.445 82.6352 133.681C80.3941 136.115 76.9846 137.1 73.7907 136.235L70.721 135.439C68.3343 134.822 65.8175 134.934 63.4953 135.762L57.6001 137.879C56.0519 138.43 54.4202 138.71 52.7769 138.707C51.0291 138.71 49.2954 138.396 47.6597 137.78L43.7271 136.271C42.3338 135.742 40.8558 135.471 39.3653 135.472H37.456C36.0989 135.478 34.7732 135.065 33.66 134.289C33.0755 133.873 32.5532 133.376 32.1085 132.813C31.9909 133.069 31.7737 133.265 31.5077 133.355L31.0397 133.757C30.1193 134.477 29.5332 135.542 29.4175 136.705C29.3018 137.868 29.6667 139.028 30.4274 139.915L30.5177 140.025Z" fill="#252422"/>
<path d="M86.0569 146.637L84.9495 140.971C84.872 141.072 84.7983 141.174 84.7144 141.27C82.0548 144.092 78.0402 145.187 74.3162 144.108C74.2729 144.108 74.2297 144.112 74.1876 144.121V148.899C74.0926 150.696 72.5652 152.079 70.7674 151.997C69.8978 152.007 69.0547 151.697 68.3981 151.127C67.7373 150.575 67.3529 149.76 67.347 148.899V146.833C67.1796 146.223 66.6251 145.8 65.9925 145.8C65.3599 145.8 64.8053 146.223 64.6379 146.833V151.997C64.4843 154.416 62.4101 156.26 59.9898 156.128C58.8105 156.139 57.666 155.729 56.7627 154.971C55.8716 154.239 55.3511 153.15 55.3415 151.997V149.724C55.3192 148.536 54.7283 147.429 53.7525 146.75C52.3494 145.727 50.5492 145.418 48.8854 145.915C48.8578 145.923 48.8294 145.929 48.8012 145.935C46.6277 146.547 44.2949 146.174 42.4212 144.914L41.4468 144.263C40.0555 143.342 38.33 143.077 36.7265 143.539C36.6976 143.548 36.6683 143.555 36.6387 143.56C34.1089 144.275 31.3894 143.636 29.4429 141.869L28.6434 147.324C28.0347 151.719 29.3961 156.159 32.3643 159.458C36.5141 164.04 42.4491 166.593 48.6291 166.456H66.1871C72.4997 166.574 78.5431 163.902 82.7051 159.155C85.6663 155.708 86.8995 151.102 86.0569 146.637Z" fill="#252422"/>
<path d="M137.264 63.6328L139.322 64.2617C141.557 64.9364 143.94 64.9364 146.175 64.2617C148.623 63.5154 151.23 63.4636 153.705 64.1119L154.469 64.3116C156.914 64.9497 159.5 64.7839 161.844 63.8386L163.934 62.9879C164.534 62.7912 165.006 62.321 165.204 61.7211C165.377 60.8285 165.142 59.9053 164.562 59.2046C161.873 55.4188 156.192 51.3445 150.077 51.3445C143.812 51.3445 139.13 53.5256 139.13 55.4757C139.13 57.4258 143.812 59.6069 150.077 59.6069C150.179 59.6117 150.28 59.6321 150.377 59.6674C150.473 59.6321 150.574 59.6117 150.676 59.6069C153.17 59.6069 155.034 58.5166 155.034 57.5413C155.034 56.5659 153.17 55.4756 150.676 55.4756C149.41 55.4365 148.16 55.7702 147.081 56.4353C146.616 56.7648 145.973 56.6554 145.643 56.1909C145.313 55.7265 145.421 55.0826 145.885 54.7519C147.311 53.834 148.98 53.3664 150.676 53.41C154.278 53.41 157.1 55.2246 157.1 57.5413C157.1 59.858 154.278 61.6725 150.676 61.6725C150.574 61.6678 150.473 61.6473 150.377 61.6121C150.28 61.6473 150.18 61.6678 150.077 61.6725C144.514 61.6725 139.977 60.1743 138.055 57.9351L136.102 60.0829C135.609 60.5998 135.423 61.3363 135.609 62.0254C135.848 62.8101 136.473 63.417 137.264 63.6328Z" fill="#252422"/>
<path d="M128.727 69.1351C129.49 69.663 130.397 69.9424 131.325 69.9349H133.234C134.976 69.9338 136.703 70.2504 138.332 70.8694L142.265 72.3788C145.002 73.4044 148.013 73.4348 150.77 72.4646L156.665 70.347C159.378 69.3798 162.32 69.2479 165.109 69.9683L168.175 70.7635C170.652 71.4488 173.304 70.6776 175.027 68.7705C175.044 68.7488 175.123 68.6661 175.143 68.6459C175.761 67.8891 176.048 66.915 175.939 65.944C175.829 64.973 175.332 64.0872 174.561 63.4874C173.074 62.2316 171.269 61.4128 169.344 61.1217L167.324 60.7954C167.371 61.3005 167.325 61.8099 167.187 62.2982C166.812 63.5033 165.897 64.4652 164.712 64.9009L162.623 65.7516C159.865 66.8636 156.823 67.0592 153.946 66.3093L153.182 66.1096C151.077 65.5574 148.86 65.6016 146.778 66.2373C144.151 67.03 141.347 67.03 138.719 66.2373L136.661 65.6084C135.191 65.1877 134.042 64.0409 133.617 62.5725C133.459 61.9963 133.43 61.3924 133.532 60.8039L129.749 61.3384C128.691 61.4559 127.743 62.0472 127.172 62.9461C125.95 65.0929 126.636 67.821 128.727 69.1351Z" fill="#252422"/>
<path d="M124.387 76.5541C125.82 78.0927 128.002 78.685 130.016 78.0821C130.044 78.0746 130.071 78.068 130.099 78.0625C132.272 77.45 134.605 77.8233 136.479 79.0837L137.453 79.7347C138.845 80.6551 140.57 80.9196 142.173 80.4583C142.202 80.4503 142.23 80.4432 142.259 80.4377C144.527 79.7925 146.966 80.2324 148.865 81.6293C150.356 82.7023 151.25 84.4172 151.277 86.2533V88.5257C151.291 89.0745 151.547 89.5889 151.977 89.9312C152.507 90.3653 153.174 90.5991 153.86 90.5914C155.138 90.7162 156.283 89.8003 156.442 88.5257V83.3616C156.617 81.6032 158.096 80.2635 159.863 80.2635C161.63 80.2635 163.109 81.6033 163.283 83.3616V85.4273C163.29 85.6887 163.413 85.9334 163.62 86.094C163.903 86.3361 164.265 86.4664 164.638 86.4602C165.291 86.5275 165.884 86.0752 165.992 85.4273V80.5521C166.039 79.4142 166.997 78.5281 168.135 78.5691C168.344 78.5673 168.552 78.5947 168.754 78.6503C171.705 79.5187 174.895 78.6689 177.023 76.4471C177.805 75.5744 178.2 74.4225 178.119 73.2538C178.001 72.0667 177.421 70.9734 176.504 70.2095C174.263 72.6437 170.854 73.6284 167.66 72.7636L164.59 71.9674C162.203 71.3507 159.687 71.4633 157.364 72.2907L151.469 74.4083C149.921 74.9592 148.289 75.239 146.646 75.2353C144.898 75.2386 143.164 74.9244 141.529 74.3084L137.596 72.7996C136.203 72.2704 134.725 71.9998 133.234 72.0008H131.325C129.968 72.0072 128.642 71.594 127.529 70.8177C126.945 70.4019 126.422 69.9051 125.978 69.3423C125.86 69.5976 125.643 69.7936 125.377 69.8842L124.909 70.2857C123.988 71.0058 123.402 72.0708 123.287 73.2338C123.171 74.3968 123.536 75.5564 124.297 76.4437L124.387 76.5541Z" fill="#252422"/>
<path d="M179.926 83.166L178.819 77.5002C178.741 77.6003 178.667 77.7023 178.584 77.7991C175.924 80.6203 171.909 81.7159 168.185 80.6369C168.142 80.6364 168.099 80.6408 168.057 80.65V85.4273C167.962 87.2245 166.434 88.6082 164.637 88.5258C163.767 88.5358 162.924 88.2261 162.267 87.6559C161.606 87.1035 161.222 86.2886 161.216 85.4273V83.3616C161.049 82.7516 160.494 82.3288 159.862 82.3288C159.229 82.3288 158.674 82.7516 158.507 83.3616V88.5257C158.353 90.9447 156.279 92.7883 153.859 92.6569C152.68 92.6682 151.535 92.2577 150.632 91.4995C149.741 90.7678 149.22 89.6785 149.211 88.5256V86.2532C149.188 85.0644 148.597 83.9582 147.622 83.2788C146.219 82.2561 144.418 81.9472 142.755 82.4437C142.727 82.4517 142.699 82.4583 142.67 82.4639C140.497 83.0763 138.164 82.7028 136.29 81.4427L135.316 80.7917C133.925 79.8705 132.199 79.6059 130.596 80.068C130.567 80.0766 130.537 80.0836 130.508 80.0893C127.978 80.8038 125.259 80.1644 123.312 78.3974L122.513 83.8525C121.904 88.248 123.265 92.6882 126.233 95.987C130.383 100.569 136.318 103.122 142.498 102.985H160.056C166.369 103.103 172.412 100.431 176.574 95.6835C179.535 92.2368 180.769 87.631 179.926 83.166Z" fill="#252422"/>
<path d="M195.078 63.5891L197.137 64.218C199.371 64.8927 201.755 64.8927 203.989 64.218C206.437 63.4717 209.044 63.4199 211.52 64.0682L212.283 64.2679C214.728 64.906 217.314 64.7402 219.658 63.7949L221.748 62.9442C222.349 62.7475 222.82 62.2773 223.018 61.6774C223.192 60.7848 222.956 59.8616 222.377 59.1609C219.687 55.3751 214.006 51.3008 207.892 51.3008C201.626 51.3008 196.944 53.4819 196.944 55.432C196.944 57.3821 201.626 59.5632 207.892 59.5632C207.994 59.568 208.095 59.5884 208.191 59.6237C208.287 59.5884 208.388 59.568 208.49 59.5632C210.985 59.5632 212.849 58.4729 212.849 57.4976C212.849 56.5222 210.985 55.4319 208.49 55.4319C207.224 55.3928 205.974 55.7265 204.896 56.3916C204.431 56.7211 203.787 56.6117 203.457 56.1472C203.127 55.6828 203.235 55.0389 203.699 54.7082C205.126 53.7903 206.795 53.3227 208.49 53.3663C212.093 53.3663 214.914 55.1809 214.914 57.4976C214.914 59.8143 212.093 61.6288 208.49 61.6288C208.388 61.6241 208.287 61.6036 208.191 61.5684C208.095 61.6036 207.994 61.6241 207.892 61.6288C202.329 61.6288 197.791 60.1306 195.869 57.8914L193.916 60.0392C193.424 60.5561 193.237 61.2926 193.424 61.9817C193.662 62.7664 194.287 63.3733 195.078 63.5891Z" fill="#252422"/>
<path d="M186.542 69.0914C187.304 69.6193 188.212 69.8987 189.139 69.8912H191.048C192.79 69.8901 194.518 70.2067 196.146 70.8257L200.08 72.3351C202.817 73.3607 205.827 73.3911 208.584 72.4208L214.479 70.3033C217.193 69.3361 220.134 69.2042 222.923 69.9246L225.989 70.7198C228.466 71.4051 231.118 70.6339 232.841 68.7268C232.859 68.7051 232.938 68.6224 232.957 68.6022C233.576 67.8454 233.863 66.8713 233.753 65.9003C233.643 64.9293 233.147 64.0435 232.375 63.4437C230.889 62.1879 229.083 61.3691 227.159 61.078L225.139 60.7517C225.186 61.2568 225.14 61.7662 225.002 62.2545C224.626 63.4596 223.712 64.4215 222.527 64.8572L220.437 65.7079C217.68 66.8199 214.638 67.0155 211.76 66.2656L210.997 66.0659C208.892 65.5137 206.674 65.5579 204.593 66.1936C201.965 66.9863 199.162 66.9863 196.534 66.1936L194.475 65.5647C193.006 65.144 191.856 63.9972 191.432 62.5288C191.273 61.9526 191.244 61.3487 191.347 60.7602L187.564 61.2947C186.505 61.4122 185.557 62.0035 184.986 62.9024C183.765 65.0492 184.45 67.7773 186.542 69.0914Z" fill="#252422"/>
<path d="M182.201 76.5104C183.634 78.049 185.816 78.6413 187.831 78.0384C187.858 78.0309 187.885 78.0243 187.913 78.0188C190.087 77.4063 192.419 77.7796 194.293 79.04L195.267 79.691C196.659 80.6114 198.384 80.8759 199.988 80.4146C200.016 80.4066 200.045 80.3995 200.074 80.394C202.342 79.7488 204.78 80.1887 206.68 81.5856C208.17 82.6586 209.065 84.3735 209.092 86.2096V88.482C209.106 89.0308 209.362 89.5452 209.791 89.8875C210.322 90.3216 210.989 90.5554 211.674 90.5477C212.953 90.6725 214.098 89.7566 214.257 88.482V83.3179C214.431 81.5595 215.91 80.2198 217.677 80.2198C219.444 80.2198 220.923 81.5596 221.097 83.3179V85.3836C221.104 85.645 221.228 85.8897 221.434 86.0503C221.717 86.2924 222.079 86.4227 222.452 86.4165C223.105 86.4838 223.698 86.0315 223.807 85.3836V80.5084C223.854 79.3705 224.811 78.4844 225.949 78.5254C226.158 78.5236 226.367 78.551 226.568 78.6066C229.52 79.475 232.709 78.6252 234.837 76.4034C235.619 75.5307 236.014 74.3788 235.933 73.2101C235.815 72.023 235.235 70.9297 234.319 70.1658C232.078 72.6 228.668 73.5847 225.474 72.7199L222.405 71.9237C220.018 71.307 217.501 71.4196 215.179 72.247L209.284 74.3646C207.735 74.9155 206.104 75.1953 204.461 75.1916C202.713 75.1949 200.979 74.8807 199.343 74.2647L195.411 72.7559C194.017 72.2267 192.539 71.9561 191.049 71.9571H189.14C187.783 71.9635 186.457 71.5503 185.344 70.774C184.759 70.3582 184.237 69.8614 183.792 69.2986C183.674 69.5539 183.457 69.7499 183.191 69.8405L182.723 70.242C181.803 70.9621 181.217 72.0271 181.101 73.1901C180.985 74.3531 181.35 75.5127 182.111 76.4L182.201 76.5104Z" fill="#252422"/>
<path d="M237.741 83.1223L236.633 77.4565C236.556 77.5566 236.482 77.6586 236.398 77.7554C233.738 80.5766 229.724 81.6722 226 80.5932C225.956 80.5927 225.913 80.5971 225.871 80.6063V85.3836C225.776 87.1808 224.249 88.5645 222.451 88.4821C221.581 88.4921 220.738 88.1824 220.082 87.6122C219.421 87.0598 219.037 86.2449 219.031 85.3836V83.3179C218.863 82.7079 218.309 82.2851 217.676 82.2851C217.043 82.2851 216.489 82.7079 216.322 83.3179V88.482C216.168 90.901 214.094 92.7446 211.673 92.6132C210.494 92.6245 209.35 92.214 208.446 91.4558C207.555 90.7241 207.035 89.6348 207.025 88.4819V86.2095C207.003 85.0207 206.412 83.9145 205.436 83.2351C204.033 82.2124 202.233 81.9035 200.569 82.4C200.541 82.408 200.513 82.4146 200.485 82.4202C198.311 83.0326 195.978 82.6591 194.105 81.399L193.13 80.748C191.739 79.8268 190.014 79.5622 188.41 80.0243C188.381 80.0329 188.352 80.0399 188.322 80.0456C185.792 80.7601 183.073 80.1207 181.126 78.3537L180.327 83.8088C179.718 88.2043 181.08 92.6445 184.048 95.9433C188.198 100.525 194.133 103.079 200.313 102.942H217.871C224.183 103.059 230.227 100.387 234.389 95.6398C237.35 92.1931 238.583 87.5873 237.741 83.1223Z" fill="#252422"/>
<path d="M165.764 12.2883L167.822 12.9172C170.057 13.5919 172.44 13.5919 174.675 12.9172C177.123 12.1709 179.73 12.1191 182.205 12.7674L182.969 12.9671C185.414 13.6052 188 13.4394 190.344 12.4941L192.434 11.6434C193.034 11.4467 193.506 10.9766 193.704 10.3766C193.877 9.48406 193.642 8.5608 193.062 7.86008C190.373 4.0743 184.692 0 178.577 0C172.312 0 167.63 2.18112 167.63 4.13123C167.63 6.08134 172.312 8.26246 178.577 8.26246C178.679 8.26721 178.78 8.28765 178.877 8.3229C178.973 8.28765 179.074 8.26721 179.176 8.26246C181.67 8.26246 183.534 7.17213 183.534 6.19679C183.534 5.22145 181.67 4.13112 179.176 4.13112C177.91 4.09203 176.66 4.42573 175.581 5.09087C175.116 5.42027 174.472 5.31092 174.143 4.84641C173.813 4.38201 173.921 3.73811 174.385 3.40747C175.811 2.48952 177.48 2.02196 179.176 2.06556C182.778 2.06556 185.6 3.88011 185.6 6.19679C185.6 8.51347 182.778 10.328 179.176 10.328C179.074 10.3233 178.973 10.3028 178.877 10.2676C178.78 10.3028 178.68 10.3233 178.577 10.328C173.014 10.328 168.477 8.82977 166.555 6.59059L164.602 8.73838C164.109 9.25531 163.923 9.99184 164.109 10.6809C164.348 11.4656 164.973 12.0725 165.764 12.2883Z" fill="#252422"/>
<path d="M157.227 17.7907C157.99 18.3185 158.897 18.5979 159.825 18.5904H161.734C163.476 18.5893 165.203 18.906 166.832 19.5249L170.765 21.0343C173.502 22.0599 176.513 22.0903 179.27 21.1201L185.165 19.0025C187.878 18.0353 190.82 17.9034 193.609 18.6238L196.675 19.419C199.152 20.1043 201.804 19.3331 203.527 17.426C203.544 17.4043 203.623 17.3216 203.643 17.3014C204.261 16.5447 204.548 15.5706 204.439 14.5995C204.329 13.6285 203.832 12.7427 203.061 12.1429C201.574 10.8872 199.769 10.0683 197.844 9.77717L195.824 9.45093C195.871 9.95599 195.825 10.4655 195.687 10.9537C195.312 12.1588 194.397 13.1207 193.212 13.5564L191.123 14.4071C188.365 15.5192 185.323 15.7147 182.446 14.9648L181.682 14.7651C179.577 14.213 177.36 14.2571 175.278 14.8928C172.651 15.6856 169.847 15.6856 167.219 14.8928L165.161 14.2639C163.691 13.8432 162.542 12.6964 162.117 11.228C161.959 10.6519 161.93 10.0479 162.032 9.4594L158.249 9.99395C157.191 10.1114 156.243 10.7027 155.672 11.6017C154.45 13.7484 155.136 16.4765 157.227 17.7907Z" fill="#252422"/>
<path d="M152.887 25.2096C154.32 26.7483 156.502 27.3405 158.516 26.7376C158.544 26.7301 158.571 26.7235 158.599 26.718C160.772 26.1055 163.105 26.4788 164.979 27.7392L165.953 28.3902C167.345 29.3106 169.07 29.5751 170.673 29.1139C170.702 29.1058 170.73 29.0987 170.759 29.0932C173.027 28.448 175.466 28.8879 177.365 30.2849C178.856 31.3578 179.75 33.0727 179.777 34.9088V37.1812C179.791 37.73 180.047 38.2445 180.477 38.5867C181.007 39.0209 181.674 39.2546 182.36 39.2469C183.638 39.3717 184.783 38.4558 184.942 37.1812V32.0172C185.117 30.2588 186.596 28.919 188.363 28.919C190.13 28.919 191.609 30.2589 191.783 32.0172V34.0828C191.79 34.3442 191.913 34.5889 192.12 34.7496C192.403 34.9916 192.765 35.1219 193.138 35.1157C193.791 35.183 194.384 34.7307 194.492 34.0828V29.2076C194.539 28.0697 195.497 27.1836 196.635 27.2246C196.844 27.2228 197.052 27.2502 197.254 27.3059C200.205 28.1742 203.395 27.3244 205.523 25.1026C206.305 24.2299 206.7 23.078 206.619 21.9093C206.501 20.7222 205.921 19.6289 205.004 18.865C202.763 21.2992 199.354 22.2839 196.16 21.4192L193.09 20.6229C190.703 20.0062 188.187 20.1188 185.864 20.9462L179.969 23.0638C178.421 23.6147 176.789 23.8946 175.146 23.8908C173.398 23.8941 171.664 23.5799 170.029 22.964L166.096 21.4551C164.703 20.926 163.225 20.6553 161.734 20.6563H159.825C158.468 20.6628 157.142 20.2495 156.029 19.4732C155.445 19.0574 154.922 18.5606 154.478 17.9978C154.36 18.2531 154.143 18.4491 153.877 18.5397L153.409 18.9412C152.488 19.6613 151.902 20.7263 151.787 21.8893C151.671 23.0523 152.036 24.2119 152.797 25.0992L152.887 25.2096Z" fill="#252422"/>
<path d="M208.426 31.8215L207.319 26.1558C207.241 26.2558 207.167 26.3579 207.084 26.4547C204.424 29.2758 200.409 30.3714 196.685 29.2925C196.642 29.2919 196.599 29.2963 196.557 29.3056V34.0828C196.462 35.88 194.934 37.2637 193.137 37.1813C192.267 37.1913 191.424 36.8816 190.767 36.3114C190.106 35.759 189.722 34.9441 189.716 34.0828V32.0172C189.549 31.4072 188.994 30.9843 188.362 30.9843C187.729 30.9843 187.174 31.4072 187.007 32.0172V37.1812C186.853 39.6003 184.779 41.4438 182.359 41.3125C181.18 41.3238 180.035 40.9132 179.132 40.155C178.241 39.4234 177.72 38.334 177.711 37.1811V34.9087C177.688 33.7199 177.097 32.6137 176.122 31.9344C174.719 30.9116 172.918 30.6027 171.255 31.0992C171.227 31.1072 171.199 31.1138 171.17 31.1194C168.997 31.7318 166.664 31.3584 164.79 30.0982L163.816 29.4472C162.425 28.526 160.699 28.2614 159.096 28.7236C159.067 28.7321 159.037 28.7392 159.008 28.7448C156.478 29.4593 153.759 28.8199 151.812 27.0529L151.013 32.508C150.404 36.9036 151.765 41.3438 154.733 44.6425C158.883 49.2242 164.818 51.7777 170.998 51.6408H188.556C194.869 51.7581 200.912 49.0866 205.074 44.339C208.035 40.8923 209.269 36.2865 208.426 31.8215Z" fill="#252422"/>
<path d="M137.264 178.448L139.322 179.077C141.557 179.752 143.94 179.752 146.175 179.077C148.623 178.331 151.23 178.279 153.705 178.928L154.469 179.127C156.914 179.765 159.5 179.6 161.844 178.654L163.934 177.804C164.534 177.607 165.006 177.137 165.204 176.537C165.377 175.644 165.142 174.721 164.562 174.02C161.873 170.234 156.192 166.16 150.077 166.16C143.812 166.16 139.13 168.341 139.13 170.291C139.13 172.241 143.812 174.423 150.077 174.423C150.179 174.427 150.28 174.448 150.377 174.483C150.473 174.448 150.574 174.427 150.676 174.423C153.17 174.423 155.034 173.332 155.034 172.357C155.034 171.382 153.17 170.291 150.676 170.291C149.41 170.252 148.16 170.586 147.081 171.251C146.616 171.58 145.973 171.471 145.643 171.007C145.313 170.542 145.421 169.898 145.885 169.568C147.311 168.65 148.98 168.182 150.676 168.226C154.278 168.226 157.1 170.04 157.1 172.357C157.1 174.674 154.278 176.488 150.676 176.488C150.574 176.483 150.473 176.463 150.377 176.428C150.28 176.463 150.18 176.483 150.077 176.488C144.514 176.488 139.977 174.99 138.055 172.751L136.102 174.899C135.609 175.415 135.423 176.152 135.609 176.841C135.848 177.626 136.473 178.233 137.264 178.448Z" fill="#252422"/>
<path d="M128.727 183.951C129.49 184.479 130.397 184.758 131.325 184.751H133.234C134.976 184.749 136.703 185.066 138.332 185.685L142.265 187.194C145.002 188.22 148.013 188.25 150.77 187.28L156.665 185.163C159.378 184.195 162.32 184.064 165.109 184.784L168.175 185.579C170.652 186.264 173.304 185.493 175.027 183.586C175.044 183.564 175.123 183.482 175.143 183.462C175.761 182.705 176.048 181.731 175.939 180.76C175.829 179.789 175.332 178.903 174.561 178.303C173.074 177.047 171.269 176.228 169.344 175.937L167.324 175.611C167.371 176.116 167.325 176.626 167.187 177.114C166.812 178.319 165.897 179.281 164.712 179.717L162.623 180.567C159.865 181.679 156.823 181.875 153.946 181.125L153.182 180.925C151.077 180.373 148.86 180.417 146.778 181.053C144.151 181.846 141.347 181.846 138.719 181.053L136.661 180.424C135.191 180.003 134.042 178.857 133.617 177.388C133.459 176.812 133.43 176.208 133.532 175.62L129.749 176.154C128.691 176.272 127.743 176.863 127.172 177.762C125.95 179.909 126.636 182.637 128.727 183.951Z" fill="#252422"/>
<path d="M124.387 191.37C125.82 192.908 128.002 193.501 130.016 192.898C130.044 192.89 130.071 192.884 130.099 192.878C132.272 192.266 134.605 192.639 136.479 193.899L137.453 194.55C138.845 195.471 140.57 195.735 142.173 195.274C142.202 195.266 142.23 195.259 142.259 195.253C144.527 194.608 146.966 195.048 148.865 196.445C150.356 197.518 151.25 199.233 151.277 201.069V203.341C151.291 203.89 151.547 204.405 151.977 204.747C152.507 205.181 153.174 205.415 153.86 205.407C155.138 205.532 156.283 204.616 156.442 203.341V198.177C156.617 196.419 158.096 195.079 159.863 195.079C161.63 195.079 163.109 196.419 163.283 198.177V200.243C163.29 200.504 163.413 200.749 163.62 200.91C163.903 201.152 164.265 201.282 164.638 201.276C165.291 201.343 165.884 200.891 165.992 200.243V195.368C166.039 194.23 166.997 193.344 168.135 193.385C168.344 193.383 168.552 193.41 168.754 193.466C171.705 194.334 174.895 193.485 177.023 191.263C177.805 190.39 178.2 189.238 178.119 188.069C178.001 186.882 177.421 185.789 176.504 185.025C174.263 187.459 170.854 188.444 167.66 187.579L164.59 186.783C162.203 186.166 159.687 186.279 157.364 187.106L151.469 189.224C149.921 189.775 148.289 190.055 146.646 190.051C144.898 190.054 143.164 189.74 141.529 189.124L137.596 187.615C136.203 187.086 134.725 186.815 133.234 186.816H131.325C129.968 186.823 128.642 186.41 127.529 185.633C126.945 185.218 126.422 184.721 125.978 184.158C125.86 184.413 125.643 184.609 125.377 184.7L124.909 185.101C123.988 185.821 123.402 186.887 123.287 188.049C123.171 189.212 123.536 190.372 124.297 191.259L124.387 191.37Z" fill="#252422"/>
<path d="M179.926 197.982L178.819 192.316C178.741 192.416 178.667 192.518 178.584 192.615C175.924 195.436 171.909 196.532 168.185 195.453C168.142 195.452 168.099 195.456 168.057 195.466V200.243C167.962 202.04 166.434 203.424 164.637 203.342C163.767 203.351 162.924 203.042 162.267 202.472C161.606 201.919 161.222 201.104 161.216 200.243V198.177C161.049 197.567 160.494 197.144 159.862 197.144C159.229 197.144 158.674 197.567 158.507 198.177V203.341C158.353 205.76 156.279 207.604 153.859 207.473C152.68 207.484 151.535 207.073 150.632 206.315C149.741 205.584 149.22 204.494 149.211 203.341V201.069C149.188 199.88 148.597 198.774 147.622 198.095C146.219 197.072 144.418 196.763 142.755 197.259C142.727 197.267 142.699 197.274 142.67 197.28C140.497 197.892 138.164 197.519 136.29 196.258L135.316 195.607C133.925 194.686 132.199 194.422 130.596 194.884C130.567 194.892 130.537 194.899 130.508 194.905C127.978 195.619 125.259 194.98 123.312 193.213L122.513 198.668C121.904 203.064 123.265 207.504 126.233 210.803C130.383 215.384 136.318 217.938 142.498 217.801H160.056C166.369 217.918 172.412 215.247 176.574 210.499C179.535 207.053 180.769 202.447 179.926 197.982Z" fill="#252422"/>
<path d="M195.078 178.405L197.137 179.034C199.371 179.709 201.755 179.709 203.989 179.034C206.437 178.288 209.044 178.236 211.52 178.884L212.283 179.084C214.728 179.722 217.314 179.556 219.658 178.611L221.748 177.76C222.349 177.563 222.82 177.093 223.018 176.493C223.192 175.601 222.956 174.678 222.377 173.977C219.687 170.191 214.006 166.117 207.892 166.117C201.626 166.117 196.944 168.298 196.944 170.248C196.944 172.198 201.626 174.379 207.892 174.379C207.994 174.384 208.095 174.404 208.191 174.44C208.287 174.404 208.388 174.384 208.49 174.379C210.985 174.379 212.849 173.289 212.849 172.313C212.849 171.338 210.985 170.248 208.49 170.248C207.224 170.209 205.974 170.542 204.896 171.208C204.431 171.537 203.787 171.428 203.457 170.963C203.127 170.499 203.235 169.855 203.699 169.524C205.126 168.606 206.795 168.139 208.49 168.182C212.093 168.182 214.914 169.997 214.914 172.313C214.914 174.63 212.093 176.445 208.49 176.445C208.388 176.44 208.287 176.42 208.191 176.384C208.095 176.42 207.994 176.44 207.892 176.445C202.329 176.445 197.791 174.946 195.869 172.707L193.916 174.855C193.424 175.372 193.237 176.109 193.424 176.798C193.662 177.582 194.287 178.189 195.078 178.405Z" fill="#252422"/>
<path d="M186.542 183.907C187.304 184.435 188.212 184.715 189.139 184.707H191.048C192.79 184.706 194.518 185.023 196.146 185.642L200.08 187.151C202.817 188.177 205.827 188.207 208.584 187.237L214.479 185.119C217.193 184.152 220.134 184.02 222.923 184.74L225.989 185.536C228.466 186.221 231.118 185.45 232.841 183.543C232.859 183.521 232.938 183.438 232.957 183.418C233.576 182.661 233.863 181.687 233.753 180.716C233.643 179.745 233.147 178.859 232.375 178.26C230.889 177.004 229.083 176.185 227.159 175.894L225.139 175.568C225.186 176.073 225.14 176.582 225.002 177.07C224.626 178.276 223.712 179.237 222.527 179.673L220.437 180.524C217.68 181.636 214.638 181.831 211.76 181.082L210.997 180.882C208.892 180.33 206.674 180.374 204.593 181.009C201.965 181.802 199.162 181.802 196.534 181.009L194.475 180.381C193.006 179.96 191.856 178.813 191.432 177.345C191.273 176.769 191.244 176.165 191.347 175.576L187.564 176.111C186.505 176.228 185.557 176.819 184.986 177.718C183.765 179.865 184.45 182.593 186.542 183.907Z" fill="#252422"/>
<path d="M182.201 191.326C183.634 192.865 185.816 193.457 187.831 192.854C187.858 192.847 187.885 192.84 187.913 192.835C190.087 192.222 192.419 192.596 194.293 193.856L195.267 194.507C196.659 195.427 198.384 195.692 199.988 195.231C200.016 195.223 200.045 195.215 200.074 195.21C202.342 194.565 204.78 195.005 206.68 196.402C208.17 197.474 209.065 199.189 209.092 201.026V203.298C209.106 203.847 209.362 204.361 209.791 204.703C210.322 205.138 210.989 205.371 211.674 205.364C212.953 205.488 214.098 204.573 214.257 203.298V198.134C214.431 196.375 215.91 195.036 217.677 195.036C219.444 195.036 220.923 196.376 221.097 198.134V200.2C221.104 200.461 221.228 200.706 221.434 200.866C221.717 201.108 222.079 201.239 222.452 201.232C223.105 201.3 223.698 200.847 223.807 200.2V195.324C223.854 194.186 224.811 193.3 225.949 193.341C226.158 193.34 226.367 193.367 226.568 193.423C229.52 194.291 232.709 193.441 234.837 191.219C235.619 190.347 236.014 189.195 235.933 188.026C235.815 186.839 235.235 185.746 234.319 184.982C232.078 187.416 228.668 188.401 225.474 187.536L222.405 186.74C220.018 186.123 217.501 186.236 215.179 187.063L209.284 189.181C207.735 189.731 206.104 190.011 204.461 190.008C202.713 190.011 200.979 189.697 199.343 189.081L195.411 187.572C194.017 187.043 192.539 186.772 191.049 186.773H189.14C187.783 186.779 186.457 186.366 185.344 185.59C184.759 185.174 184.237 184.677 183.792 184.115C183.674 184.37 183.457 184.566 183.191 184.656L182.723 185.058C181.803 185.778 181.217 186.843 181.101 188.006C180.985 189.169 181.35 190.329 182.111 191.216L182.201 191.326Z" fill="#252422"/>
<path d="M237.741 197.938L236.633 192.272C236.556 192.373 236.482 192.475 236.398 192.571C233.738 195.393 229.724 196.488 226 195.409C225.956 195.409 225.913 195.413 225.871 195.422V200.2C225.776 201.997 224.249 203.38 222.451 203.298C221.581 203.308 220.738 202.998 220.082 202.428C219.421 201.876 219.037 201.061 219.031 200.2V198.134C218.863 197.524 218.309 197.101 217.676 197.101C217.043 197.101 216.489 197.524 216.322 198.134V203.298C216.168 205.717 214.094 207.561 211.673 207.429C210.494 207.44 209.35 207.03 208.446 206.272C207.555 205.54 207.035 204.451 207.025 203.298V201.025C207.003 199.837 206.412 198.73 205.436 198.051C204.033 197.028 202.233 196.719 200.569 197.216C200.541 197.224 200.513 197.23 200.485 197.236C198.311 197.849 195.978 197.475 194.105 196.215L193.13 195.564C191.739 194.643 190.014 194.378 188.41 194.84C188.381 194.849 188.352 194.856 188.322 194.861C185.792 195.576 183.073 194.937 181.126 193.17L180.327 198.625C179.718 203.02 181.08 207.46 184.048 210.759C188.198 215.341 194.133 217.894 200.313 217.758H217.871C224.183 217.875 230.227 215.203 234.389 210.456C237.35 207.009 238.583 202.403 237.741 197.938Z" fill="#252422"/>
<path d="M165.764 127.104L167.822 127.733C170.057 128.408 172.44 128.408 174.675 127.733C177.123 126.987 179.73 126.935 182.205 127.583L182.969 127.783C185.414 128.421 188 128.255 190.344 127.31L192.434 126.459C193.034 126.262 193.506 125.792 193.704 125.192C193.877 124.3 193.642 123.376 193.062 122.676C190.373 118.89 184.692 114.816 178.577 114.816C172.312 114.816 167.63 116.997 167.63 118.947C167.63 120.897 172.312 123.078 178.577 123.078C178.679 123.083 178.78 123.103 178.877 123.139C178.973 123.103 179.074 123.083 179.176 123.078C181.67 123.078 183.534 121.988 183.534 121.012C183.534 120.037 181.67 118.947 179.176 118.947C177.91 118.908 176.66 119.241 175.581 119.907C175.116 120.236 174.472 120.127 174.143 119.662C173.813 119.198 173.921 118.554 174.385 118.223C175.811 117.305 177.48 116.838 179.176 116.881C182.778 116.881 185.6 118.696 185.6 121.012C185.6 123.329 182.778 125.144 179.176 125.144C179.074 125.139 178.973 125.119 178.877 125.083C178.78 125.119 178.68 125.139 178.577 125.144C173.014 125.144 168.477 123.645 166.555 121.406L164.602 123.554C164.109 124.071 163.923 124.808 164.109 125.497C164.348 126.281 164.973 126.888 165.764 127.104Z" fill="#252422"/>
<path d="M157.227 132.606C157.99 133.134 158.897 133.414 159.825 133.406H161.734C163.476 133.405 165.203 133.722 166.832 134.341L170.765 135.85C173.502 136.876 176.513 136.906 179.27 135.936L185.165 133.818C187.878 132.851 190.82 132.719 193.609 133.439L196.675 134.235C199.152 134.92 201.804 134.149 203.527 132.242C203.544 132.22 203.623 132.137 203.643 132.117C204.261 131.36 204.548 130.386 204.439 129.415C204.329 128.444 203.832 127.558 203.061 126.959C201.574 125.703 199.769 124.884 197.844 124.593L195.824 124.267C195.871 124.772 195.825 125.281 195.687 125.769C195.312 126.974 194.397 127.936 193.212 128.372L191.123 129.223C188.365 130.335 185.323 130.53 182.446 129.781L181.682 129.581C179.577 129.029 177.36 129.073 175.278 129.708C172.651 130.501 169.847 130.501 167.219 129.708L165.161 129.08C163.691 128.659 162.542 127.512 162.117 126.044C161.959 125.468 161.93 124.864 162.032 124.275L158.249 124.81C157.191 124.927 156.243 125.518 155.672 126.417C154.45 128.564 155.136 131.292 157.227 132.606Z" fill="#252422"/>
<path d="M152.887 140.025C154.32 141.564 156.502 142.156 158.516 141.553C158.544 141.546 158.571 141.539 158.599 141.534C160.772 140.921 163.105 141.295 164.979 142.555L165.953 143.206C167.345 144.126 169.07 144.391 170.673 143.93C170.702 143.922 170.73 143.914 170.759 143.909C173.027 143.264 175.466 143.704 177.365 145.101C178.856 146.173 179.75 147.888 179.777 149.725V151.997C179.791 152.546 180.047 153.06 180.477 153.402C181.007 153.837 181.674 154.07 182.36 154.063C183.638 154.187 184.783 153.271 184.942 151.997V146.833C185.117 145.074 186.596 143.735 188.363 143.735C190.13 143.735 191.609 145.075 191.783 146.833V148.899C191.79 149.16 191.913 149.405 192.12 149.565C192.403 149.807 192.765 149.938 193.138 149.931C193.791 149.999 194.384 149.546 194.492 148.899V144.023C194.539 142.885 195.497 141.999 196.635 142.04C196.844 142.039 197.052 142.066 197.254 142.122C200.205 142.99 203.395 142.14 205.523 139.918C206.305 139.046 206.7 137.894 206.619 136.725C206.501 135.538 205.921 134.445 205.004 133.681C202.763 136.115 199.354 137.1 196.16 136.235L193.09 135.439C190.703 134.822 188.187 134.934 185.864 135.762L179.969 137.879C178.421 138.43 176.789 138.71 175.146 138.707C173.398 138.71 171.664 138.396 170.029 137.78L166.096 136.271C164.703 135.742 163.225 135.471 161.734 135.472H159.825C158.468 135.478 157.142 135.065 156.029 134.289C155.445 133.873 154.922 133.376 154.478 132.813C154.36 133.069 154.143 133.265 153.877 133.355L153.409 133.757C152.488 134.477 151.902 135.542 151.787 136.705C151.671 137.868 152.036 139.028 152.797 139.915L152.887 140.025Z" fill="#252422"/>
<path d="M208.426 146.637L207.319 140.971C207.241 141.072 207.167 141.174 207.084 141.27C204.424 144.092 200.409 145.187 196.685 144.108C196.642 144.108 196.599 144.112 196.557 144.121V148.899C196.462 150.696 194.934 152.079 193.137 151.997C192.267 152.007 191.424 151.697 190.767 151.127C190.106 150.575 189.722 149.76 189.716 148.899V146.833C189.549 146.223 188.994 145.8 188.362 145.8C187.729 145.8 187.174 146.223 187.007 146.833V151.997C186.853 154.416 184.779 156.26 182.359 156.128C181.18 156.139 180.035 155.729 179.132 154.971C178.241 154.239 177.72 153.15 177.711 151.997V149.724C177.688 148.536 177.097 147.429 176.122 146.75C174.719 145.727 172.918 145.418 171.255 145.915C171.227 145.923 171.199 145.929 171.17 145.935C168.997 146.547 166.664 146.174 164.79 144.914L163.816 144.263C162.425 143.342 160.699 143.077 159.096 143.539C159.067 143.548 159.037 143.555 159.008 143.56C156.478 144.275 153.759 143.636 151.812 141.869L151.013 147.324C150.404 151.719 151.765 156.159 154.733 159.458C158.883 164.04 164.818 166.593 170.998 166.456H188.556C194.869 166.574 200.912 163.902 205.074 159.155C208.035 155.708 209.269 151.102 208.426 146.637Z" fill="#252422"/>
<path d="M14.8936 63.6328L16.9522 64.2617C19.1865 64.9364 21.5704 64.9364 23.8047 64.2617C26.2525 63.5154 28.8594 63.4636 31.335 64.1119L32.0986 64.3116C34.5439 64.9497 37.1298 64.7839 39.4736 63.8386L41.5634 62.9879C42.164 62.7912 42.6355 62.321 42.8338 61.7211C43.0072 60.8285 42.7718 59.9053 42.1923 59.2046C39.5024 55.4188 33.8218 51.3445 27.7071 51.3445C21.4416 51.3445 16.7595 53.5256 16.7595 55.4757C16.7595 57.4258 21.4415 59.6069 27.7071 59.6069C27.8093 59.6117 27.9103 59.6321 28.0064 59.6674C28.1026 59.6321 28.2034 59.6117 28.3058 59.6069C30.8 59.6069 32.664 58.5166 32.664 57.5413C32.664 56.5659 30.8 55.4756 28.3058 55.4756C27.0394 55.4365 25.7895 55.7702 24.711 56.4353C24.2462 56.7648 23.6024 56.6554 23.2724 56.1909C22.9424 55.7265 23.0509 55.0826 23.5148 54.7519C24.941 53.834 26.6103 53.3664 28.3058 53.41C31.908 53.41 34.7296 55.2246 34.7296 57.5413C34.7296 59.858 31.908 61.6725 28.3058 61.6725C28.2036 61.6678 28.1026 61.6473 28.0064 61.6121C27.9103 61.6473 27.8094 61.6678 27.7071 61.6725C22.144 61.6725 17.6068 60.1743 15.6849 57.9351L13.7318 60.0829C13.2392 60.5998 13.0524 61.3363 13.239 62.0254C13.4777 62.8101 14.1025 63.417 14.8936 63.6328Z" fill="#252422"/>
<path d="M6.35707 69.1351C7.11992 69.663 8.02714 69.9424 8.95481 69.9349H10.8636C12.6056 69.9338 14.3333 70.2504 15.9617 70.8694L19.8952 72.3788C22.6322 73.4044 25.6427 73.4348 28.3999 72.4646L34.2947 70.347C37.0084 69.3798 39.9495 69.2479 42.7388 69.9683L45.8045 70.7635C48.2815 71.4488 50.9334 70.6776 52.6564 68.7705C52.6741 68.7488 52.7534 68.6661 52.7729 68.6459C53.3912 67.8891 53.678 66.915 53.5684 65.944C53.4588 64.973 52.9622 64.0872 52.1909 63.4874C50.7042 62.2316 48.8984 61.4128 46.9743 61.1217L44.9539 60.7954C45.0013 61.3005 44.955 61.8099 44.8174 62.2982C44.4418 63.5033 43.527 64.4652 42.3422 64.9009L40.2528 65.7516C37.4952 66.8636 34.453 67.0592 31.5756 66.3093L30.8121 66.1096C28.707 65.5574 26.4899 65.6016 24.4084 66.2373C21.7805 67.03 18.977 67.03 16.349 66.2373L14.2905 65.6084C12.821 65.1877 11.6714 64.0409 11.247 62.5725C11.0888 61.9963 11.0599 61.3924 11.1624 60.8039L7.37895 61.3384C6.32047 61.4559 5.37247 62.0472 4.80144 62.9461C3.58029 65.0929 4.26576 67.821 6.35707 69.1351Z" fill="#252422"/>
<path d="M2.0167 76.5541C3.44977 78.0927 5.63191 78.685 7.6463 78.0821C7.67352 78.0746 7.70075 78.068 7.72854 78.0625C9.90198 77.45 12.2348 77.8233 14.1086 79.0837L15.0829 79.7347C16.4746 80.6551 18.1997 80.9196 19.8032 80.4583C19.8315 80.4503 19.8602 80.4432 19.889 80.4377C22.157 79.7925 24.5957 80.2324 26.4954 81.6293C27.9856 82.7023 28.88 84.4172 28.907 86.2533V88.5257C28.9213 89.0745 29.1773 89.5889 29.6065 89.9312C30.1373 90.3653 30.8039 90.5991 31.4896 90.5914C32.768 90.7162 33.9132 89.8003 34.0722 88.5257V83.3616C34.2464 81.6032 35.7255 80.2635 37.4925 80.2635C39.2595 80.2635 40.7385 81.6033 40.9127 83.3616V85.4273C40.9196 85.6887 41.0433 85.9334 41.2497 86.094C41.5329 86.3361 41.8948 86.4664 42.2674 86.4602C42.9208 86.5275 43.5138 86.0752 43.6219 85.4273V80.5521C43.669 79.4142 44.6265 78.5281 45.7648 78.5691C45.9738 78.5673 46.1821 78.5947 46.3836 78.6503C49.3351 79.5187 52.5246 78.6689 54.6527 76.4471C55.4345 75.5744 55.8298 74.4225 55.7486 73.2538C55.6304 72.0667 55.0507 70.9734 54.1342 70.2095C51.8931 72.6437 48.4836 73.6284 45.2898 72.7636L42.2201 71.9674C39.8333 71.3507 37.3165 71.4633 34.9944 72.2907L29.0991 74.4083C27.5509 74.9592 25.9192 75.239 24.2759 75.2353C22.5282 75.2386 20.7944 74.9244 19.1588 74.3084L15.2261 72.7996C13.8328 72.2704 12.3548 71.9998 10.8643 72.0008H8.955C7.59795 72.0072 6.2722 71.594 5.15904 70.8177C4.57456 70.4019 4.05222 69.9051 3.60747 69.3423C3.48988 69.5976 3.27276 69.7936 3.00673 69.8842L2.53871 70.2857C1.61828 71.0058 1.03222 72.0708 0.916542 73.2338C0.800866 74.3968 1.16574 75.5564 1.92645 76.4437L2.0167 76.5541Z" fill="#252422"/>
<path d="M57.5559 83.166L56.4485 77.5002C56.3711 77.6003 56.2973 77.7023 56.2135 77.7991C53.5538 80.6203 49.5392 81.7159 45.8152 80.6369C45.7719 80.6364 45.7288 80.6408 45.6866 80.65V85.4273C45.5916 87.2245 44.0642 88.6082 42.2664 88.5258C41.3968 88.5358 40.5537 88.2261 39.8971 87.6559C39.2363 87.1035 38.8519 86.2886 38.8461 85.4273V83.3616C38.6786 82.7516 38.1241 82.3288 37.4915 82.3288C36.8589 82.3288 36.3044 82.7516 36.1369 83.3616V88.5257C35.9833 90.9447 33.9092 92.7883 31.4888 92.6569C30.3095 92.6682 29.165 92.2577 28.2617 91.4995C27.3707 90.7678 26.8501 89.6785 26.8405 88.5256V86.2532C26.8183 85.0644 26.2273 83.9582 25.2516 83.2788C23.8484 82.2561 22.0482 81.9472 20.3845 82.4437C20.3568 82.4517 20.3284 82.4583 20.3002 82.4639C18.1268 83.0763 15.7939 82.7028 13.9202 81.4427L12.9459 80.7917C11.5545 79.8705 9.82905 79.6059 8.22552 80.068C8.1966 80.0766 8.16734 80.0836 8.13774 80.0893C5.6079 80.8038 2.88839 80.1644 0.941895 78.3974L0.142445 83.8525C-0.466322 88.248 0.895128 92.6882 3.86327 95.987C8.01314 100.569 13.9481 103.122 20.1282 102.985H37.6861C43.9987 103.103 50.0421 100.431 54.2042 95.6835C57.1653 92.2368 58.3985 87.631 57.5559 83.166Z" fill="#252422"/>
<path d="M72.709 63.5891L74.7676 64.218C77.0019 64.8927 79.3858 64.8927 81.6201 64.218C84.068 63.4717 86.6749 63.4199 89.1505 64.0682L89.914 64.2679C92.3594 64.906 94.9452 64.7402 97.289 63.7949L99.3789 62.9442C99.9794 62.7475 100.451 62.2773 100.649 61.6774C100.823 60.7848 100.587 59.8616 100.008 59.1609C97.3178 55.3751 91.6373 51.3008 85.5225 51.3008C79.257 51.3008 74.575 53.4819 74.575 55.432C74.575 57.3821 79.2569 59.5632 85.5225 59.5632C85.6247 59.568 85.7257 59.5884 85.8219 59.6237C85.918 59.5884 86.0189 59.568 86.1212 59.5632C88.6155 59.5632 90.4794 58.4729 90.4794 57.4976C90.4794 56.5222 88.6155 55.4319 86.1212 55.4319C84.8549 55.3928 83.6049 55.7265 82.5265 56.3916C82.0616 56.7211 81.4178 56.6117 81.0878 56.1472C80.7579 55.6828 80.8663 55.0389 81.3303 54.7082C82.7565 53.7903 84.4257 53.3227 86.1212 53.3663C89.7234 53.3663 92.5451 55.1809 92.5451 57.4976C92.5451 59.8143 89.7234 61.6288 86.1212 61.6288C86.019 61.6241 85.918 61.6036 85.8219 61.5684C85.7257 61.6036 85.6249 61.6241 85.5225 61.6288C79.9594 61.6288 75.4222 60.1306 73.5003 57.8914L71.5472 60.0392C71.0547 60.5561 70.8678 61.2926 71.0544 61.9817C71.2931 62.7664 71.9179 63.3733 72.709 63.5891Z" fill="#252422"/>
<path d="M64.1725 69.0914C64.9354 69.6193 65.8426 69.8987 66.7702 69.8912H68.679C70.421 69.8901 72.1487 70.2067 73.7771 70.8257L77.7106 72.3351C80.4477 73.3607 83.4582 73.3911 86.2153 72.4208L92.1101 70.3033C94.8238 69.3361 97.7649 69.2042 100.554 69.9246L103.62 70.7198C106.097 71.4051 108.749 70.6339 110.472 68.7268C110.489 68.7051 110.569 68.6224 110.588 68.6022C111.207 67.8454 111.493 66.8713 111.384 65.9003C111.274 64.9293 110.778 64.0435 110.006 63.4437C108.52 62.1879 106.714 61.3691 104.79 61.078L102.769 60.7517C102.817 61.2568 102.77 61.7662 102.633 62.2545C102.257 63.4596 101.342 64.4215 100.158 64.8572L98.0682 65.7079C95.3106 66.8199 92.2684 67.0155 89.3911 66.2656L88.6275 66.0659C86.5224 65.5137 84.3053 65.5579 82.2238 66.1936C79.5959 66.9863 76.7925 66.9863 74.1645 66.1936L72.1059 65.5647C70.6365 65.144 69.4868 63.9972 69.0624 62.5288C68.9043 61.9526 68.8753 61.3487 68.9778 60.7602L65.1944 61.2947C64.1359 61.4122 63.1879 62.0035 62.6169 62.9024C61.3957 65.0492 62.0812 67.7773 64.1725 69.0914Z" fill="#252422"/>
<path d="M59.8321 76.5104C61.2652 78.049 63.4473 78.6413 65.4617 78.0384C65.489 78.0309 65.5162 78.0243 65.544 78.0188C67.7174 77.4063 70.0502 77.7796 71.924 79.04L72.8983 79.691C74.29 80.6114 76.0151 80.8759 77.6187 80.4146C77.6469 80.4066 77.6756 80.3995 77.7044 80.394C79.9724 79.7488 82.4112 80.1887 84.3108 81.5856C85.801 82.6586 86.6955 84.3735 86.7225 86.2096V88.482C86.7367 89.0308 86.9927 89.5452 87.422 89.8875C87.9528 90.3216 88.6194 90.5554 89.3051 90.5477C90.5834 90.6725 91.7286 89.7566 91.8877 88.482V83.3179C92.0619 81.5595 93.5409 80.2198 95.3079 80.2198C97.0749 80.2198 98.5539 81.5596 98.7281 83.3179V85.3836C98.735 85.645 98.8587 85.8897 99.0651 86.0503C99.3483 86.2924 99.7103 86.4227 100.083 86.4165C100.736 86.4838 101.329 86.0315 101.437 85.3836V80.5084C101.484 79.3705 102.442 78.4844 103.58 78.5254C103.789 78.5236 103.997 78.551 104.199 78.6066C107.151 79.475 110.34 78.6252 112.468 76.4034C113.25 75.5307 113.645 74.3788 113.564 73.2101C113.446 72.023 112.866 70.9297 111.95 70.1658C109.709 72.6 106.299 73.5847 103.105 72.7199L100.035 71.9237C97.6488 71.307 95.1319 71.4196 92.8098 72.247L86.9145 74.3646C85.3663 74.9155 83.7347 75.1953 82.0914 75.1916C80.3436 75.1949 78.6098 74.8807 76.9742 74.2647L73.0415 72.7559C71.6482 72.2267 70.1702 71.9561 68.6798 71.9571H66.7704C65.4134 71.9635 64.0876 71.5503 62.9745 70.774C62.39 70.3582 61.8676 69.8614 61.4229 69.2986C61.3053 69.5539 61.0882 69.7499 60.8222 69.8405L60.3541 70.242C59.4337 70.9621 58.8476 72.0271 58.732 73.1901C58.6163 74.3531 58.9812 75.5127 59.7419 76.4L59.8321 76.5104Z" fill="#252422"/>
<path d="M115.371 83.1223L114.264 77.4565C114.186 77.5566 114.113 77.6586 114.029 77.7554C111.369 80.5766 107.355 81.6722 103.631 80.5932C103.587 80.5927 103.544 80.5971 103.502 80.6063V85.3836C103.407 87.1808 101.88 88.5645 100.082 88.4821C99.2122 88.4921 98.3692 88.1824 97.7125 87.6122C97.0518 87.0598 96.6674 86.2449 96.6615 85.3836V83.3179C96.4941 82.7079 95.9395 82.2851 95.3069 82.2851C94.6743 82.2851 94.1198 82.7079 93.9524 83.3179V88.482C93.7987 90.901 91.7246 92.7446 89.3042 92.6132C88.125 92.6245 86.9804 92.214 86.0772 91.4558C85.1861 90.7241 84.6655 89.6348 84.6559 88.4819V86.2095C84.6337 85.0207 84.0428 83.9145 83.067 83.2351C81.6638 82.2124 79.8636 81.9035 78.1999 82.4C78.1722 82.408 78.1439 82.4146 78.1156 82.4202C75.9422 83.0326 73.6094 82.6591 71.7356 81.399L70.7613 80.748C69.3699 79.8268 67.6445 79.5622 66.0409 80.0243C66.012 80.0329 65.9828 80.0399 65.9532 80.0456C63.4233 80.7601 60.7038 80.1207 58.7573 78.3537L57.9579 83.8088C57.3491 88.2043 58.7106 92.6445 61.6787 95.9433C65.8286 100.525 71.7635 103.079 77.9436 102.942H95.5016C101.814 103.059 107.858 100.387 112.02 95.6398C114.981 92.1931 116.214 87.5873 115.371 83.1223Z" fill="#252422"/>
<path d="M43.3946 12.2883L45.4531 12.9172C47.6875 13.5919 50.0714 13.5919 52.3057 12.9172C54.7535 12.1709 57.3604 12.1191 59.836 12.7674L60.5995 12.9671C63.0449 13.6052 65.6308 13.4394 67.9746 12.4941L70.0644 11.6434C70.6649 11.4467 71.1364 10.9766 71.3348 10.3766C71.5082 9.48406 71.2728 8.5608 70.6933 7.86008C68.0034 4.0743 62.3228 0 56.208 0C49.9426 0 45.2605 2.18112 45.2605 4.13123C45.2605 6.08134 49.9425 8.26246 56.208 8.26246C56.3103 8.26721 56.4113 8.28765 56.5074 8.3229C56.6035 8.28765 56.7044 8.26721 56.8068 8.26246C59.301 8.26246 61.1649 7.17213 61.1649 6.19679C61.1649 5.22145 59.301 4.13112 56.8068 4.13112C55.5404 4.09203 54.2905 4.42573 53.212 5.09087C52.7471 5.42027 52.1034 5.31092 51.7734 4.84641C51.4434 4.38201 51.5519 3.73811 52.0158 3.40747C53.442 2.48952 55.1113 2.02196 56.8068 2.06556C60.409 2.06556 63.2306 3.88011 63.2306 6.19679C63.2306 8.51347 60.409 10.328 56.8068 10.328C56.7045 10.3233 56.6035 10.3028 56.5074 10.2676C56.4113 10.3028 56.3104 10.3233 56.208 10.328C50.645 10.328 46.1078 8.82977 44.1859 6.59059L42.2327 8.73838C41.7402 9.25531 41.5534 9.99184 41.74 10.6809C41.9787 11.4656 42.6035 12.0725 43.3946 12.2883Z" fill="#252422"/>
<path d="M34.858 17.7907C35.6209 18.3185 36.5281 18.5979 37.4558 18.5904H39.3646C41.1066 18.5893 42.8343 18.906 44.4626 19.5249L48.3962 21.0343C51.1332 22.0599 54.1437 22.0903 56.9009 21.1201L62.7957 19.0025C65.5093 18.0353 68.4505 17.9034 71.2398 18.6238L74.3054 19.419C76.7825 20.1043 79.4344 19.3331 81.1574 17.426C81.175 17.4043 81.2543 17.3216 81.2739 17.3014C81.8921 16.5447 82.179 15.5706 82.0694 14.5995C81.9598 13.6285 81.4632 12.7427 80.6919 12.1429C79.2052 10.8872 77.3994 10.0683 75.4753 9.77717L73.4549 9.45093C73.5023 9.95599 73.4559 10.4655 73.3183 10.9537C72.9427 12.1588 72.028 13.1207 70.8432 13.5564L68.7538 14.4071C65.9962 15.5192 62.954 15.7147 60.0766 14.9648L59.3131 14.7651C57.208 14.213 54.9908 14.2571 52.9094 14.8928C50.2815 15.6856 47.478 15.6856 44.85 14.8928L42.7914 14.2639C41.322 13.8432 40.1724 12.6964 39.748 11.228C39.5898 10.6519 39.5609 10.0479 39.6633 9.4594L35.8799 9.99395C34.8214 10.1114 33.8734 10.7027 33.3024 11.6017C32.0813 13.7484 32.7667 16.4765 34.858 17.7907Z" fill="#252422"/>
<path d="M30.5177 25.2096C31.9508 26.7483 34.1329 27.3405 36.1473 26.7376C36.1745 26.7301 36.2017 26.7235 36.2295 26.718C38.403 26.1055 40.7358 26.4788 42.6095 27.7392L43.5839 28.3902C44.9756 29.3106 46.7007 29.5751 48.3042 29.1139C48.3324 29.1058 48.3611 29.0987 48.3899 29.0932C50.6579 28.448 53.0967 28.8879 54.9963 30.2849C56.4866 31.3578 57.381 33.0727 57.408 34.9088V37.1812C57.4223 37.73 57.6782 38.2445 58.1075 38.5867C58.6383 39.0209 59.3049 39.2546 59.9906 39.2469C61.2689 39.3717 62.4142 38.4558 62.5732 37.1812V32.0172C62.7474 30.2588 64.2265 28.919 65.9935 28.919C67.7604 28.919 69.2395 30.2589 69.4137 32.0172V34.0828C69.4206 34.3442 69.5443 34.5889 69.7507 34.7496C70.0339 34.9916 70.3958 35.1219 70.7684 35.1157C71.4217 35.183 72.0148 34.7307 72.1229 34.0828V29.2076C72.17 28.0697 73.1275 27.1836 74.2657 27.2246C74.4747 27.2228 74.683 27.2502 74.8846 27.3059C77.8361 28.1742 81.0256 27.3244 83.1537 25.1026C83.9355 24.2299 84.3308 23.078 84.2496 21.9093C84.1314 20.7222 83.5517 19.6289 82.6352 18.865C80.3941 21.2992 76.9846 22.2839 73.7907 21.4192L70.721 20.6229C68.3343 20.0062 65.8175 20.1188 63.4953 20.9462L57.6001 23.0638C56.0519 23.6147 54.4202 23.8946 52.7769 23.8908C51.0291 23.8941 49.2954 23.5799 47.6597 22.964L43.7271 21.4551C42.3338 20.926 40.8558 20.6553 39.3653 20.6563H37.456C36.0989 20.6628 34.7732 20.2495 33.66 19.4732C33.0755 19.0574 32.5532 18.5606 32.1085 17.9978C31.9909 18.2531 31.7737 18.4491 31.5077 18.5397L31.0397 18.9412C30.1193 19.6613 29.5332 20.7263 29.4175 21.8893C29.3018 23.0523 29.6667 24.2119 30.4274 25.0992L30.5177 25.2096Z" fill="#252422"/>
<path d="M86.0569 31.8215L84.9495 26.1558C84.872 26.2558 84.7983 26.3579 84.7144 26.4547C82.0548 29.2758 78.0402 30.3714 74.3162 29.2925C74.2729 29.2919 74.2297 29.2963 74.1876 29.3056V34.0828C74.0926 35.88 72.5652 37.2637 70.7674 37.1813C69.8978 37.1913 69.0547 36.8816 68.3981 36.3114C67.7373 35.759 67.3529 34.9441 67.347 34.0828V32.0172C67.1796 31.4072 66.6251 30.9843 65.9925 30.9843C65.3599 30.9843 64.8053 31.4072 64.6379 32.0172V37.1812C64.4843 39.6003 62.4101 41.4438 59.9898 41.3125C58.8105 41.3238 57.666 40.9132 56.7627 40.155C55.8716 39.4234 55.3511 38.334 55.3415 37.1811V34.9087C55.3192 33.7199 54.7283 32.6137 53.7525 31.9344C52.3494 30.9116 50.5492 30.6027 48.8854 31.0992C48.8578 31.1072 48.8294 31.1138 48.8012 31.1194C46.6277 31.7318 44.2949 31.3584 42.4212 30.0982L41.4468 29.4472C40.0555 28.526 38.33 28.2614 36.7265 28.7236C36.6976 28.7321 36.6683 28.7392 36.6387 28.7448C34.1089 29.4593 31.3894 28.8199 29.4429 27.0529L28.6434 32.508C28.0347 36.9036 29.3961 41.3438 32.3643 44.6425C36.5141 49.2242 42.4491 51.7777 48.6291 51.6408H66.1871C72.4997 51.7581 78.5431 49.0866 82.7051 44.339C85.6663 40.8923 86.8995 36.2865 86.0569 31.8215Z" fill="#252422"/>
</svg>
