<svg width="257" height="245" viewBox="0 0 257 245" fill="none" xmlns="http://www.w3.org/2000/svg">
<path d="M16.7194 200.615L19.0303 201.321C21.5385 202.079 24.2147 202.079 26.7229 201.321C29.4708 200.484 32.3972 200.426 35.1763 201.153L36.0335 201.377C38.7786 202.094 41.6814 201.908 44.3126 200.847L46.6586 199.892C47.3327 199.671 47.862 199.143 48.0847 198.469C48.2794 197.467 48.0151 196.431 47.3646 195.644C44.3449 191.395 37.968 186.821 31.1036 186.821C24.0701 186.821 18.8141 189.269 18.8141 191.458C18.8141 193.648 24.07 196.096 31.1036 196.096C31.2184 196.101 31.3318 196.124 31.4397 196.164C31.5476 196.124 31.6608 196.101 31.7757 196.096C34.5758 196.096 36.6682 194.872 36.6682 193.777C36.6682 192.682 34.5758 191.458 31.7757 191.458C30.3542 191.414 28.951 191.789 27.7403 192.536C27.2185 192.906 26.4958 192.783 26.1253 192.261C25.7549 191.74 25.8767 191.017 26.3975 190.646C27.9985 189.615 29.8724 189.091 31.7757 189.14C35.8195 189.14 38.9871 191.177 38.9871 193.777C38.9871 196.378 35.8195 198.415 31.7757 198.415C31.661 198.41 31.5476 198.387 31.4397 198.347C31.3318 198.387 31.2185 198.41 31.1036 198.415C24.8586 198.415 19.7652 196.733 17.6077 194.219L15.4151 196.63C14.8622 197.211 14.6525 198.038 14.862 198.811C15.1299 199.692 15.8313 200.373 16.7194 200.615Z" fill="#252422"/>
<path d="M7.13551 206.792C7.99187 207.385 9.01031 207.698 10.0517 207.69H12.1944C14.15 207.689 16.0895 208.044 17.9175 208.739L22.3332 210.434C25.4058 211.585 28.7853 211.619 31.8805 210.53L38.4979 208.153C41.5442 207.067 44.8459 206.919 47.9772 207.727L51.4186 208.62C54.1994 209.389 57.1763 208.524 59.1106 206.383C59.1303 206.359 59.2194 206.266 59.2413 206.243C59.9353 205.394 60.2573 204.3 60.1343 203.21C60.0113 202.12 59.4538 201.125 58.588 200.452C56.919 199.042 54.8919 198.123 52.7319 197.796L50.4638 197.43C50.517 197.997 50.465 198.569 50.3105 199.117C49.8889 200.47 48.8619 201.55 47.5319 202.039L45.1864 202.994C42.0908 204.242 38.6756 204.462 35.4455 203.62L34.5884 203.396C32.2253 202.776 29.7363 202.826 27.3997 203.539C24.4496 204.429 21.3025 204.429 18.3523 203.539L16.0414 202.833C14.3919 202.361 13.1013 201.074 12.6248 199.425C12.4473 198.778 12.4148 198.1 12.5299 197.44L8.28266 198.04C7.09442 198.172 6.03021 198.835 5.38917 199.845C4.01833 202.255 4.78783 205.317 7.13551 206.792Z" fill="#252422"/>
<path d="M2.26304 215.121C3.87178 216.848 6.32142 217.513 8.58274 216.836C8.61331 216.828 8.64387 216.82 8.67506 216.814C11.1149 216.126 13.7337 216.546 15.8372 217.96L16.9309 218.691C18.4933 219.725 20.4298 220.021 22.2299 219.504C22.2616 219.495 22.2939 219.487 22.3262 219.48C24.8722 218.756 27.61 219.25 29.7424 220.818C31.4154 222.023 32.4195 223.948 32.4498 226.009V228.56C32.4657 229.176 32.7531 229.754 33.235 230.138C33.8309 230.625 34.5792 230.887 35.349 230.879C36.784 231.019 38.0696 229.991 38.2482 228.56V222.763C38.4437 220.789 40.1041 219.285 42.0877 219.285C44.0713 219.285 45.7316 220.789 45.9272 222.763V225.082C45.9349 225.375 46.0738 225.65 46.3055 225.83C46.6234 226.102 47.0297 226.248 47.4479 226.241C48.1814 226.317 48.8472 225.809 48.9685 225.082V219.609C49.0214 218.332 50.0963 217.337 51.374 217.383C51.6086 217.381 51.8425 217.411 52.0687 217.474C55.3821 218.449 58.9625 217.495 61.3515 215.001C62.2292 214.021 62.6729 212.728 62.5817 211.416C62.4491 210.083 61.7983 208.856 60.7694 207.998C58.2536 210.731 54.4262 211.836 50.8408 210.866L47.3948 209.972C44.7155 209.28 41.8901 209.406 39.2833 210.335L32.6654 212.712C30.9274 213.33 29.0957 213.645 27.251 213.64C25.2889 213.644 23.3426 213.291 21.5065 212.6L17.0917 210.906C15.5276 210.312 13.8684 210.008 12.1953 210.009H10.0519C8.52847 210.017 7.04019 209.553 5.79058 208.681C5.13445 208.214 4.54807 207.657 4.04881 207.025C3.9168 207.311 3.67306 207.532 3.37442 207.633L2.84904 208.084C1.81577 208.892 1.15786 210.088 1.02801 211.393C0.898151 212.699 1.30776 214.001 2.16171 214.997L2.26304 215.121Z" fill="#252422"/>
<path d="M64.6115 222.543L63.3684 216.183C63.2814 216.295 63.1986 216.41 63.1045 216.518C60.1188 219.685 55.612 220.915 51.4315 219.704C51.3829 219.703 51.3345 219.708 51.2872 219.719V225.082C51.1805 227.099 49.4659 228.652 47.4477 228.56C46.4715 228.571 45.5251 228.224 44.7879 227.583C44.0462 226.963 43.6147 226.049 43.6081 225.082V222.763C43.4201 222.078 42.7976 221.603 42.0875 221.603C41.3773 221.603 40.7548 222.078 40.5668 222.763V228.56C40.3944 231.275 38.066 233.345 35.3489 233.198C34.0251 233.21 32.7402 232.749 31.7262 231.898C30.7259 231.077 30.1416 229.854 30.1308 228.56V226.009C30.1058 224.674 29.4425 223.432 28.3471 222.67C26.7719 221.522 24.751 221.175 22.8833 221.732C22.8523 221.741 22.8204 221.749 22.7887 221.755C20.3489 222.442 17.73 222.023 15.6266 220.609L14.5328 219.878C12.9709 218.844 11.034 218.547 9.23386 219.065C9.20139 219.075 9.16855 219.083 9.13532 219.089C6.29535 219.891 3.24247 219.174 1.05736 217.19L0.159906 223.314C-0.523487 228.248 1.00486 233.233 4.33686 236.936C8.99545 242.079 15.6579 244.946 22.5956 244.792H42.3059C49.3924 244.924 56.1766 241.925 60.8489 236.595C64.173 232.726 65.5574 227.556 64.6115 222.543Z" fill="#252422"/>
<path d="M81.6217 200.566L83.9326 201.272C86.4409 202.03 89.117 202.03 91.6252 201.272C94.3731 200.435 97.2996 200.376 100.079 201.104L100.936 201.328C103.681 202.045 106.584 201.859 109.215 200.797L111.561 199.842C112.235 199.622 112.764 199.094 112.987 198.42C113.182 197.418 112.917 196.382 112.267 195.595C109.247 191.345 102.87 186.772 96.006 186.772C88.9724 186.772 83.7164 189.22 83.7164 191.409C83.7164 193.599 88.9723 196.047 96.006 196.047C96.1207 196.052 96.2341 196.075 96.342 196.115C96.4499 196.075 96.5632 196.052 96.6781 196.047C99.4781 196.047 101.571 194.823 101.571 193.728C101.571 192.633 99.4781 191.409 96.6781 191.409C95.2565 191.365 93.8533 191.74 92.6426 192.487C92.1208 192.856 91.3981 192.734 91.0277 192.212C90.6573 191.691 90.779 190.968 91.2998 190.597C92.9008 189.566 94.7747 189.042 96.6781 189.09C100.722 189.09 103.889 191.127 103.889 193.728C103.889 196.329 100.722 198.366 96.6781 198.366C96.5633 198.361 96.4499 198.338 96.342 198.298C96.2341 198.338 96.1209 198.361 96.006 198.366C89.761 198.366 84.6675 196.684 82.5101 194.17L80.3175 196.581C79.7646 197.162 79.5548 197.988 79.7643 198.762C80.0323 199.643 80.7337 200.324 81.6217 200.566Z" fill="#252422"/>
<path d="M72.0379 206.743C72.8942 207.336 73.9126 207.65 74.954 207.641H77.0968C79.0524 207.64 80.9918 207.995 82.8198 208.69L87.2356 210.385C90.3081 211.536 93.6877 211.57 96.7828 210.481L103.4 208.104C106.447 207.018 109.748 206.87 112.879 207.679L116.321 208.571C119.102 209.341 122.079 208.475 124.013 206.334C124.033 206.31 124.122 206.217 124.144 206.194C124.838 205.345 125.16 204.251 125.037 203.161C124.914 202.071 124.356 201.077 123.49 200.403C121.821 198.994 119.794 198.074 117.634 197.748L115.366 197.381C115.419 197.948 115.367 198.52 115.213 199.068C114.791 200.421 113.764 201.501 112.434 201.99L110.089 202.945C106.993 204.193 103.578 204.413 100.348 203.571L99.4907 203.347C97.1276 202.727 94.6386 202.777 92.302 203.49C89.352 204.38 86.2048 204.38 83.2547 203.49L80.9438 202.784C79.2942 202.312 78.0036 201.025 77.5272 199.376C77.3496 198.729 77.3172 198.052 77.4322 197.391L73.185 197.991C71.9968 198.123 70.9326 198.787 70.2915 199.796C68.9207 202.206 69.6902 205.268 72.0379 206.743Z" fill="#252422"/>
<path d="M67.1654 215.072C68.7741 216.799 71.2238 217.464 73.4851 216.787C73.5156 216.779 73.5462 216.771 73.5774 216.765C76.0173 216.077 78.6361 216.497 80.7395 217.911L81.8333 218.642C83.3956 219.675 85.3322 219.972 87.1323 219.455C87.164 219.446 87.1962 219.438 87.2285 219.431C89.7746 218.707 92.5123 219.201 94.6448 220.769C96.3177 221.974 97.3218 223.899 97.3521 225.96V228.511C97.3681 229.127 97.6555 229.704 98.1373 230.089C98.7332 230.576 99.4816 230.838 100.251 230.83C101.686 230.97 102.972 229.942 103.15 228.511V222.714C103.346 220.74 105.006 219.236 106.99 219.236C108.974 219.236 110.634 220.74 110.83 222.714V225.033C110.837 225.326 110.976 225.601 111.208 225.781C111.526 226.053 111.932 226.199 112.35 226.192C113.084 226.268 113.75 225.76 113.871 225.033V219.56C113.924 218.282 114.999 217.288 116.276 217.334C116.511 217.332 116.745 217.362 116.971 217.425C120.284 218.4 123.865 217.446 126.254 214.952C127.132 213.972 127.575 212.679 127.484 211.367C127.351 210.034 126.701 208.807 125.672 207.949C123.156 210.682 119.328 211.787 115.743 210.817L112.297 209.923C109.618 209.23 106.792 209.357 104.186 210.286L97.5677 212.663C95.8297 213.281 93.998 213.595 92.1533 213.591C90.1913 213.595 88.2449 213.242 86.4088 212.551L81.9941 210.857C80.43 210.263 78.7708 209.959 77.0976 209.96H74.9542C73.4308 209.967 71.9425 209.504 70.6929 208.632C70.0368 208.165 69.4504 207.608 68.9512 206.976C68.8191 207.262 68.5754 207.482 68.2768 207.584L67.7514 208.035C66.7181 208.843 66.0602 210.039 65.9304 211.344C65.8005 212.65 66.2101 213.952 67.0641 214.948L67.1654 215.072Z" fill="#252422"/>
<path d="M129.514 222.494L128.271 216.134C128.184 216.246 128.101 216.361 128.007 216.469C125.021 219.636 120.514 220.866 116.334 219.655C116.285 219.654 116.237 219.659 116.19 219.67V225.033C116.083 227.05 114.368 228.603 112.35 228.511C111.374 228.522 110.427 228.175 109.69 227.534C108.949 226.914 108.517 225.999 108.51 225.033V222.714C108.322 222.029 107.7 221.554 106.99 221.554C106.28 221.554 105.657 222.029 105.469 222.714V228.511C105.297 231.226 102.968 233.296 100.251 233.148C98.9274 233.161 97.6426 232.7 96.6286 231.849C95.6283 231.028 95.0439 229.805 95.0331 228.511V225.96C95.0082 224.625 94.3448 223.383 93.2494 222.621C91.6743 221.473 89.6534 221.126 87.7857 221.683C87.7546 221.692 87.7228 221.7 87.6911 221.706C85.2512 222.393 82.6324 221.974 80.5289 220.56L79.4352 219.829C77.8732 218.795 75.9363 218.498 74.1362 219.016C74.1037 219.026 74.0709 219.034 74.0377 219.04C71.1977 219.842 68.1448 219.125 65.9597 217.141L65.0623 223.265C64.3789 228.199 65.9072 233.184 69.2392 236.887C73.8978 242.03 80.5603 244.897 87.4979 244.743H107.208C114.295 244.875 121.079 241.876 125.751 236.546C129.075 232.677 130.46 227.506 129.514 222.494Z" fill="#252422"/>
<path d="M48.7145 142.977L51.0254 143.683C53.5336 144.44 56.2098 144.44 58.718 143.683C61.4659 142.845 64.3924 142.787 67.1715 143.515L68.0286 143.739C70.7737 144.455 73.6766 144.269 76.3077 143.208L78.6537 142.253C79.3278 142.032 79.8572 141.505 80.0798 140.831C80.2745 139.829 80.0102 138.793 79.3597 138.006C76.34 133.756 69.9631 129.182 63.0987 129.182C56.0652 129.182 50.8092 131.631 50.8092 133.82C50.8092 136.009 56.0651 138.458 63.0987 138.458C63.2135 138.463 63.3269 138.486 63.4348 138.526C63.5427 138.486 63.656 138.463 63.7708 138.458C66.5709 138.458 68.6633 137.234 68.6633 136.139C68.6633 135.044 66.5709 133.82 63.7708 133.82C62.3493 133.776 60.9461 134.151 59.7354 134.897C59.2136 135.267 58.4909 135.144 58.1205 134.623C57.75 134.102 57.8718 133.379 58.3926 133.008C59.9936 131.977 61.8675 131.452 63.7708 131.501C67.8146 131.501 70.9822 133.538 70.9822 136.139C70.9822 138.739 67.8146 140.776 63.7708 140.776C63.6561 140.771 63.5427 140.748 63.4348 140.709C63.3269 140.748 63.2136 140.771 63.0987 140.776C56.8537 140.776 51.7603 139.095 49.6028 136.581L47.4102 138.992C46.8573 139.572 46.6476 140.399 46.8571 141.173C47.125 142.053 47.8264 142.735 48.7145 142.977Z" fill="#252422"/>
<path d="M39.1306 149.154C39.987 149.747 41.0054 150.06 42.0468 150.052H44.1896C46.1451 150.051 48.0846 150.406 49.9126 151.101L54.3284 152.795C57.4009 153.947 60.7805 153.981 63.8756 152.892L70.493 150.515C73.5393 149.429 76.841 149.281 79.9723 150.089L83.4137 150.982C86.1945 151.751 89.1714 150.886 91.1057 148.745C91.1255 148.72 91.2145 148.628 91.2364 148.605C91.9305 147.755 92.2524 146.662 92.1294 145.572C92.0064 144.482 91.449 143.487 90.5831 142.814C88.9141 141.404 86.887 140.485 84.727 140.158L82.459 139.792C82.5121 140.359 82.4601 140.931 82.3056 141.479C81.884 142.832 80.8571 143.912 79.527 144.401L77.1815 145.356C74.0859 146.604 70.6707 146.824 67.4407 145.982L66.5835 145.758C64.2204 145.138 61.7314 145.187 59.3948 145.901C56.4447 146.791 53.2976 146.791 50.3475 145.901L48.0365 145.195C46.387 144.723 45.0964 143.435 44.62 141.787C44.4424 141.14 44.41 140.462 44.525 139.802L40.2778 140.402C39.0895 140.533 38.0253 141.197 37.3843 142.206C36.0134 144.616 36.7829 147.679 39.1306 149.154Z" fill="#252422"/>
<path d="M34.2582 157.482C35.8669 159.21 38.3165 159.875 40.5779 159.198C40.6084 159.189 40.639 159.182 40.6702 159.176C43.1101 158.488 45.7289 158.907 47.8323 160.322L48.9261 161.053C50.4884 162.086 52.425 162.383 54.2251 161.865C54.2568 161.856 54.289 161.848 54.3213 161.842C56.8673 161.118 59.6051 161.612 61.7376 163.18C63.4105 164.384 64.4146 166.309 64.4449 168.371V170.922C64.4609 171.538 64.7482 172.115 65.2301 172.499C65.826 172.987 66.5743 173.249 67.3441 173.24C68.7791 173.381 70.0647 172.352 70.2433 170.922V165.124C70.4388 163.15 72.0992 161.646 74.0828 161.646C76.0664 161.646 77.7267 163.151 77.9223 165.124V167.443C77.93 167.737 78.0689 168.011 78.3006 168.192C78.6185 168.464 79.0248 168.61 79.443 168.603C80.1765 168.678 80.8423 168.171 80.9636 167.443V161.97C81.0165 160.693 82.0914 159.698 83.3691 159.744C83.6037 159.742 83.8376 159.773 84.0638 159.836C87.3772 160.81 90.9576 159.856 93.3466 157.362C94.2243 156.383 94.668 155.089 94.5768 153.777C94.4442 152.445 93.7934 151.218 92.7646 150.36C90.2487 153.093 86.4213 154.198 82.8359 153.227L79.3899 152.333C76.7106 151.641 73.8852 151.768 71.2784 152.696L64.6605 155.074C62.9225 155.692 61.0908 156.006 59.2461 156.002C57.284 156.006 55.3377 155.653 53.5016 154.961L49.0869 153.268C47.5228 152.674 45.8635 152.37 44.1904 152.371H42.047C40.5236 152.378 39.0353 151.914 37.7857 151.043C37.1296 150.576 36.5432 150.018 36.0439 149.386C35.9119 149.673 35.6682 149.893 35.3695 149.995L34.8442 150.445C33.8109 151.254 33.153 152.45 33.0231 153.755C32.8933 155.061 33.3029 156.362 34.1568 157.358L34.2582 157.482Z" fill="#252422"/>
<path d="M96.6066 164.905L95.3635 158.544C95.2765 158.657 95.1937 158.771 95.0996 158.88C92.1139 162.047 87.6071 163.277 83.4266 162.066C83.3781 162.065 83.3296 162.07 83.2823 162.08V167.443C83.1757 169.461 81.461 171.014 79.4428 170.922C78.4666 170.933 77.5202 170.585 76.783 169.945C76.0413 169.325 75.6098 168.41 75.6032 167.443V165.124C75.4152 164.44 74.7927 163.965 74.0826 163.965C73.3724 163.965 72.7499 164.44 72.562 165.124V170.921C72.3895 173.637 70.0611 175.707 67.344 175.559C66.0202 175.572 64.7353 175.111 63.7213 174.26C62.721 173.438 62.1367 172.216 62.1259 170.921V168.37C62.1009 167.036 61.4376 165.794 60.3422 165.031C58.767 163.883 56.7461 163.537 54.8784 164.094C54.8474 164.103 54.8155 164.11 54.7838 164.117C52.344 164.804 49.7252 164.385 47.6217 162.97L46.528 162.239C44.966 161.205 43.0291 160.908 41.229 161.427C41.1965 161.437 41.1637 161.445 41.1304 161.451C38.2905 162.253 35.2376 161.535 33.0525 159.552L32.155 165.675C31.4716 170.61 33 175.594 36.332 179.297C40.9906 184.441 47.653 187.307 54.5907 187.154H74.3011C81.3875 187.285 88.1717 184.286 92.844 178.957C96.1681 175.088 97.5525 169.917 96.6066 164.905Z" fill="#252422"/>
<path d="M143.914 71.7249L146.225 72.4308C148.733 73.1883 151.409 73.1883 153.917 72.4308C156.665 71.5931 159.592 71.5349 162.371 72.2627L163.228 72.4869C165.973 73.2032 168.876 73.0171 171.507 71.9559L173.853 71.0009C174.527 70.7801 175.056 70.2523 175.279 69.5788C175.474 68.5769 175.209 67.5404 174.559 66.7538C171.539 62.5039 165.162 57.9302 158.298 57.9302C151.264 57.9302 146.008 60.3787 146.008 62.5678C146.008 64.757 151.264 67.2055 158.298 67.2055C158.413 67.2108 158.526 67.2338 158.634 67.2734C158.742 67.2338 158.855 67.2108 158.97 67.2055C161.77 67.2055 163.862 65.9815 163.862 64.8866C163.862 63.7917 161.77 62.5677 158.97 62.5677C157.548 62.5238 156.145 62.8984 154.935 63.6451C154.413 64.0149 153.69 63.8921 153.32 63.3707C152.949 62.8494 153.071 62.1265 153.592 61.7554C155.193 60.7249 157.067 60.2 158.97 60.2489C163.014 60.2489 166.181 62.2859 166.181 64.8866C166.181 67.4873 163.014 69.5243 158.97 69.5243C158.855 69.5189 158.742 69.496 158.634 69.4564C158.526 69.496 158.413 69.5189 158.298 69.5243C152.053 69.5243 146.96 67.8424 144.802 65.3287L142.609 67.7398C142.057 68.3201 141.847 69.1469 142.056 69.9204C142.324 70.8013 143.026 71.4826 143.914 71.7249Z" fill="#252422"/>
<path d="M134.33 77.9019C135.187 78.4945 136.205 78.8081 137.247 78.7997H139.389C141.345 78.7984 143.284 79.1539 145.112 79.8487L149.528 81.5432C152.601 82.6945 155.98 82.7286 159.075 81.6394L165.693 79.2623C168.739 78.1765 172.041 78.0284 175.172 78.8371L178.613 79.7299C181.394 80.4991 184.371 79.6334 186.305 77.4925C186.325 77.4682 186.414 77.3753 186.436 77.3526C187.13 76.5031 187.452 75.4096 187.329 74.3195C187.206 73.2295 186.649 72.2351 185.783 71.5617C184.114 70.1521 182.087 69.2328 179.927 68.906L177.659 68.5398C177.712 69.1068 177.66 69.6787 177.505 70.2268C177.084 71.5796 176.057 72.6594 174.727 73.1485L172.381 74.1036C169.286 75.3519 165.87 75.5714 162.64 74.7296L161.783 74.5054C159.42 73.8856 156.931 73.9352 154.594 74.6487C151.644 75.5387 148.497 75.5387 145.547 74.6487L143.236 73.9428C141.587 73.4705 140.296 72.1831 139.82 70.5347C139.642 69.8879 139.61 69.21 139.725 68.5493L135.477 69.1494C134.289 69.2813 133.225 69.945 132.584 70.9542C131.213 73.3641 131.983 76.4267 134.33 77.9019Z" fill="#252422"/>
<path d="M129.458 86.2301C131.067 87.9574 133.516 88.6223 135.778 87.9455C135.808 87.937 135.839 87.9297 135.87 87.9234C138.31 87.2359 140.929 87.655 143.032 89.0698L144.126 89.8006C145.688 90.8339 147.625 91.1308 149.425 90.613C149.456 90.604 149.489 90.596 149.521 90.5898C152.067 89.8656 154.805 90.3594 156.937 91.9275C158.61 93.132 159.614 95.0572 159.645 97.1184V99.6693C159.661 100.285 159.948 100.863 160.43 101.247C161.026 101.734 161.774 101.997 162.544 101.988C163.979 102.128 165.264 101.1 165.443 99.6693V93.8722C165.639 91.8983 167.299 90.3943 169.282 90.3943C171.266 90.3943 172.926 91.8984 173.122 93.8722V96.1911C173.13 96.4846 173.269 96.7592 173.5 96.9396C173.818 97.2113 174.225 97.3575 174.643 97.3506C175.376 97.4261 176.042 96.9184 176.163 96.1911V90.7183C176.216 89.4409 177.291 88.4462 178.569 88.4922C178.803 88.4902 179.037 88.5209 179.264 88.5834C182.577 89.5582 186.157 88.6042 188.546 86.11C189.424 85.1304 189.868 83.8373 189.777 82.5253C189.644 81.1926 188.993 79.9653 187.964 79.1078C185.448 81.8404 181.621 82.9458 178.036 81.975L174.59 81.0811C171.91 80.3889 169.085 80.5153 166.478 81.4441L159.86 83.8213C158.122 84.4398 156.291 84.7539 154.446 84.7497C152.484 84.7534 150.537 84.4007 148.701 83.7092L144.287 82.0154C142.722 81.4214 141.063 81.1175 139.39 81.1187H137.247C135.723 81.1259 134.235 80.662 132.985 79.7906C132.329 79.3238 131.743 78.7661 131.244 78.1343C131.112 78.4209 130.868 78.6409 130.569 78.7426L130.044 79.1933C129.011 80.0017 128.353 81.1973 128.223 82.5028C128.093 83.8084 128.503 85.1101 129.357 86.1062L129.458 86.2301Z" fill="#252422"/>
<path d="M191.806 93.6525L190.563 87.2922C190.476 87.4046 190.393 87.5191 190.299 87.6278C187.314 90.7948 182.807 92.0246 178.626 90.8134C178.578 90.8128 178.529 90.8178 178.482 90.8282V96.1911C178.375 98.2085 176.661 99.7619 174.643 99.6694C173.666 99.6806 172.72 99.333 171.983 98.6928C171.241 98.0727 170.809 97.1579 170.803 96.1911V93.8722C170.615 93.1874 169.992 92.7127 169.282 92.7127C168.572 92.7127 167.95 93.1874 167.762 93.8722V99.6693C167.589 102.385 165.261 104.454 162.544 104.307C161.22 104.32 159.935 103.859 158.921 103.008C157.921 102.186 157.336 100.963 157.326 99.6692V97.1182C157.301 95.7836 156.637 94.5419 155.542 93.7792C153.967 92.631 151.946 92.2843 150.078 92.8417C150.047 92.8507 150.015 92.858 149.984 92.8644C147.544 93.5518 144.925 93.1326 142.821 91.718L141.728 90.9872C140.166 89.953 138.229 89.656 136.429 90.1748C136.396 90.1845 136.363 90.1923 136.33 90.1987C133.49 91.0007 130.437 90.283 128.252 88.2994L127.355 94.4232C126.671 99.3576 128.2 104.342 131.532 108.045C136.19 113.189 142.853 116.055 149.79 115.901H169.501C176.587 116.033 183.371 113.034 188.044 107.705C191.368 103.835 192.752 98.6649 191.806 93.6525Z" fill="#252422"/>
<path d="M208.816 71.676L211.127 72.382C213.635 73.1394 216.311 73.1394 218.82 72.382C221.567 71.5443 224.494 71.4861 227.273 72.2138L228.13 72.438C230.875 73.1544 233.778 72.9682 236.409 71.9071L238.755 70.9521C239.429 70.7313 239.959 70.2035 240.181 69.53C240.376 68.528 240.112 67.4916 239.461 66.705C236.442 62.4551 230.065 57.8813 223.2 57.8813C216.167 57.8813 210.911 60.3298 210.911 62.519C210.911 64.7082 216.167 67.1567 223.2 67.1567C223.315 67.162 223.428 67.185 223.536 67.2245C223.644 67.185 223.758 67.162 223.872 67.1567C226.672 67.1567 228.765 65.9327 228.765 64.8378C228.765 63.7429 226.672 62.5189 223.872 62.5189C222.451 62.475 221.048 62.8496 219.837 63.5963C219.315 63.9661 218.592 63.8433 218.222 63.3219C217.852 62.8005 217.973 62.0777 218.494 61.7065C220.095 60.676 221.969 60.1512 223.872 60.2001C227.916 60.2001 231.084 62.2371 231.084 64.8378C231.084 67.4385 227.916 69.4754 223.872 69.4754C223.758 69.4701 223.644 69.4472 223.536 69.4076C223.428 69.4472 223.315 69.4701 223.2 69.4754C216.955 69.4754 211.862 67.7935 209.704 65.2799L207.512 67.6909C206.959 68.2712 206.749 69.0981 206.959 69.8716C207.227 70.7524 207.928 71.4338 208.816 71.676Z" fill="#252422"/>
<path d="M199.232 77.8528C200.089 78.4454 201.107 78.759 202.148 78.7506H204.291C206.247 78.7494 208.186 79.1048 210.014 79.7996L214.43 81.4941C217.502 82.6454 220.882 82.6795 223.977 81.5903L230.595 79.2132C233.641 78.1275 236.943 77.9793 240.074 78.788L243.515 79.6808C246.296 80.45 249.273 79.5843 251.207 77.4434C251.227 77.4191 251.316 77.3263 251.338 77.3036C252.032 76.454 252.354 75.3605 252.231 74.2705C252.108 73.1804 251.55 72.186 250.685 71.5127C249.016 70.103 246.989 69.1838 244.829 68.857L242.561 68.4907C242.614 69.0577 242.562 69.6296 242.407 70.1777C241.986 71.5305 240.959 72.6104 239.629 73.0995L237.283 74.0545C234.187 75.3028 230.772 75.5224 227.542 74.6806L226.685 74.4564C224.322 73.8365 221.833 73.8861 219.496 74.5997C216.546 75.4896 213.399 75.4896 210.449 74.5997L208.138 73.8937C206.489 73.4214 205.198 72.134 204.722 70.4856C204.544 69.8389 204.512 69.1609 204.627 68.5002L200.379 69.1003C199.191 69.2322 198.127 69.8959 197.486 70.9051C196.115 73.3151 196.885 76.3776 199.232 77.8528Z" fill="#252422"/>
<path d="M194.359 86.1813C195.968 87.9086 198.418 88.5735 200.679 87.8967C200.709 87.8882 200.74 87.8808 200.771 87.8746C203.211 87.187 205.83 87.6062 207.933 89.021L209.027 89.7518C210.589 90.7851 212.526 91.082 214.326 90.5642C214.358 90.5552 214.39 90.5472 214.422 90.541C216.968 89.8167 219.706 90.3106 221.839 91.8787C223.512 93.0832 224.516 95.0083 224.546 97.0695V99.6205C224.562 100.237 224.849 100.814 225.331 101.198C225.927 101.686 226.675 101.948 227.445 101.939C228.88 102.08 230.166 101.051 230.344 99.6205V93.8234C230.54 91.8494 232.2 90.3454 234.184 90.3454C236.167 90.3454 237.828 91.8496 238.023 93.8234V96.1423C238.031 96.4357 238.17 96.7104 238.402 96.8907C238.72 97.1625 239.126 97.3087 239.544 97.3017C240.278 97.3773 240.943 96.8696 241.065 96.1423V90.6694C241.118 89.3921 242.192 88.3973 243.47 88.4434C243.705 88.4413 243.939 88.472 244.165 88.5345C247.478 89.5094 251.059 88.5553 253.448 86.0612C254.325 85.0816 254.769 83.7885 254.678 82.4765C254.545 81.1438 253.894 79.9165 252.866 79.059C250.35 81.7915 246.522 82.897 242.937 81.9262L239.491 81.0323C236.812 80.34 233.986 80.4665 231.38 81.3953L224.762 83.7725C223.024 84.3909 221.192 84.7051 219.347 84.7009C217.385 84.7046 215.439 84.3519 213.603 83.6604L209.188 81.9665C207.624 81.3726 205.965 81.0687 204.291 81.0699H202.148C200.625 81.0771 199.136 80.6132 197.887 79.7417C197.231 79.2749 196.644 78.7172 196.145 78.0854C196.013 78.372 195.769 78.5921 195.471 78.6938L194.945 79.1445C193.912 79.9529 193.254 81.1485 193.124 82.454C192.994 83.7595 193.404 85.0613 194.258 86.0574L194.359 86.1813Z" fill="#252422"/>
<path d="M256.708 93.6037L255.465 87.2434C255.378 87.3558 255.295 87.4703 255.201 87.579C252.215 90.746 247.709 91.9758 243.528 90.7646C243.48 90.764 243.431 90.7689 243.384 90.7793V96.1422C243.277 98.1597 241.563 99.713 239.544 99.6206C238.568 99.6317 237.622 99.2841 236.885 98.644C236.143 98.0239 235.711 97.1091 235.705 96.1422V93.8233C235.517 93.1385 234.894 92.6639 234.184 92.6639C233.474 92.6639 232.851 93.1385 232.664 93.8233V99.6204C232.491 102.336 230.163 104.406 227.446 104.258C226.122 104.271 224.837 103.81 223.823 102.959C222.823 102.137 222.238 100.915 222.227 99.6203V97.0694C222.202 95.7348 221.539 94.493 220.444 93.7304C218.869 92.5822 216.848 92.2355 214.98 92.7929C214.949 92.8019 214.917 92.8092 214.885 92.8156C212.446 93.503 209.827 93.0838 207.723 91.6692L206.63 90.9383C205.068 89.9042 203.131 89.6072 201.331 90.126C201.298 90.1356 201.265 90.1435 201.232 90.1498C198.392 90.9519 195.339 90.2342 193.154 88.2506L192.257 94.3743C191.573 99.3087 193.102 104.293 196.434 107.996C201.092 113.14 207.755 116.006 214.692 115.853H234.403C241.489 115.984 248.273 112.985 252.946 107.656C256.27 103.786 257.654 98.6161 256.708 93.6037Z" fill="#252422"/>
<path d="M175.909 14.0864L178.22 14.7924C180.728 15.5498 183.404 15.5498 185.912 14.7924C188.66 13.9547 191.587 13.8965 194.366 14.6242L195.223 14.8484C197.968 15.5648 200.871 15.3786 203.502 14.3175L205.848 13.3625C206.522 13.1417 207.051 12.6139 207.274 11.9404C207.469 10.9384 207.205 9.90199 206.554 9.11537C203.534 4.8655 197.157 0.291748 190.293 0.291748C183.26 0.291748 178.004 2.74025 178.004 4.92941C178.004 7.11858 183.259 9.56708 190.293 9.56708C190.408 9.5724 190.521 9.59536 190.629 9.63492C190.737 9.59536 190.85 9.5724 190.965 9.56708C193.765 9.56708 195.858 8.34308 195.858 7.24818C195.858 6.15328 193.765 4.92929 190.965 4.92929C189.544 4.88541 188.14 5.26001 186.93 6.00669C186.408 6.37647 185.685 6.25372 185.315 5.73226C184.944 5.21094 185.066 4.48811 185.587 4.11692C187.188 3.08645 189.062 2.56157 190.965 2.61052C195.009 2.61052 198.177 4.64751 198.177 7.24818C198.177 9.84886 195.009 11.8858 190.965 11.8858C190.85 11.8805 190.737 11.8576 190.629 11.818C190.521 11.8576 190.408 11.8805 190.293 11.8858C184.048 11.8858 178.955 10.2039 176.797 7.69025L174.605 10.1013C174.052 10.6816 173.842 11.5085 174.051 12.282C174.319 13.1629 175.021 13.8442 175.909 14.0864Z" fill="#252422"/>
<path d="M166.325 20.2634C167.181 20.856 168.2 21.1696 169.241 21.1613H171.384C173.339 21.16 175.279 21.5155 177.107 22.2103L181.523 23.9047C184.595 25.0561 187.975 25.0902 191.07 24.001L197.687 21.6239C200.734 20.5381 204.035 20.39 207.167 21.1987L210.608 22.0914C213.389 22.8607 216.366 21.9949 218.3 19.8541C218.32 19.8297 218.409 19.7369 218.431 19.7142C219.125 18.8647 219.447 17.7712 219.324 16.6811C219.201 15.591 218.643 14.5967 217.777 13.9233C216.108 12.5137 214.081 11.5944 211.921 11.2676L209.653 10.9014C209.706 11.4683 209.654 12.0403 209.5 12.5884C209.078 13.9412 208.051 15.021 206.721 15.5101L204.376 16.4651C201.28 17.7135 197.865 17.933 194.635 17.0912L193.778 16.867C191.415 16.2472 188.926 16.2967 186.589 17.0103C183.639 17.9003 180.492 17.9003 177.542 17.0103L175.231 16.3043C173.581 15.8321 172.291 14.5447 171.814 12.8963C171.637 12.2495 171.604 11.5716 171.719 10.9109L167.472 11.511C166.284 11.6428 165.22 12.3066 164.579 13.3158C163.208 15.7257 163.977 18.7882 166.325 20.2634Z" fill="#252422"/>
<path d="M161.453 28.5917C163.062 30.319 165.511 30.9839 167.773 30.3071C167.803 30.2986 167.834 30.2912 167.865 30.285C170.305 29.5974 172.924 30.0166 175.027 31.4314L176.121 32.1622C177.683 33.1955 179.62 33.4924 181.42 32.9746C181.452 32.9656 181.484 32.9576 181.516 32.9514C184.062 32.2272 186.8 32.721 188.932 34.2891C190.605 35.4936 191.609 37.4187 191.64 39.4799V42.0309C191.656 42.647 191.943 43.2245 192.425 43.6087C193.021 44.0961 193.769 44.3584 194.539 44.3498C195.974 44.4899 197.26 43.4617 197.438 42.0309V36.2338C197.634 34.2598 199.294 32.7558 201.278 32.7558C203.261 32.7558 204.922 34.26 205.117 36.2338V38.5527C205.125 38.8461 205.264 39.1208 205.495 39.3011C205.813 39.5729 206.22 39.7191 206.638 39.7121C207.371 39.7877 208.037 39.28 208.158 38.5527V33.0798C208.211 31.8025 209.286 30.8077 210.564 30.8538C210.799 30.8517 211.032 30.8824 211.259 30.945C214.572 31.9198 218.152 30.9657 220.541 28.4716C221.419 27.492 221.863 26.1989 221.772 24.8869C221.639 23.5542 220.988 22.3269 219.959 21.4694C217.444 24.2019 213.616 25.3074 210.031 24.3366L206.585 23.4427C203.905 22.7504 201.08 22.8769 198.473 23.8057L191.855 26.1829C190.117 26.8014 188.286 27.1155 186.441 27.1113C184.479 27.115 182.533 26.7623 180.696 26.0708L176.282 24.3769C174.718 23.783 173.058 23.4791 171.385 23.4803H169.242C167.718 23.4875 166.23 23.0236 164.981 22.1521C164.324 21.6854 163.738 21.1276 163.239 20.4958C163.107 20.7824 162.863 21.0025 162.564 21.1042L162.039 21.5549C161.006 22.3633 160.348 23.5589 160.218 24.8644C160.088 26.17 160.498 27.4717 161.352 28.4678L161.453 28.5917Z" fill="#252422"/>
<path d="M223.801 36.0141L222.558 29.6538C222.471 29.7662 222.388 29.8807 222.294 29.9894C219.308 33.1564 214.801 34.3862 210.621 33.175C210.572 33.1744 210.524 33.1793 210.477 33.1897V38.5526C210.37 40.5701 208.655 42.1234 206.637 42.031C205.661 42.0421 204.715 41.6945 203.977 41.0544C203.236 40.4343 202.804 39.5195 202.798 38.5526V36.2337C202.61 35.5489 201.987 35.0743 201.277 35.0743C200.567 35.0743 199.944 35.5489 199.756 36.2337V42.0308C199.584 44.7464 197.255 46.816 194.538 46.6685C193.215 46.6812 191.93 46.2204 190.916 45.3692C189.915 44.5478 189.331 43.325 189.32 42.0307V39.4798C189.295 38.1452 188.632 36.9034 187.537 36.1408C185.961 34.9926 183.94 34.6459 182.073 35.2033C182.042 35.2123 182.01 35.2196 181.978 35.226C179.538 35.9134 176.92 35.4942 174.816 34.0796L173.722 33.3487C172.16 32.3146 170.223 32.0176 168.423 32.5364C168.391 32.546 168.358 32.5539 168.325 32.5602C165.485 33.3623 162.432 32.6446 160.247 30.661L159.349 36.7847C158.666 41.7191 160.194 46.7036 163.526 50.4068C168.185 55.5501 174.847 58.4167 181.785 58.263H201.495C208.582 58.3946 215.366 55.3956 220.038 50.0661C223.362 46.1969 224.747 41.0265 223.801 36.0141Z" fill="#252422"/>
</svg>
