<svg width="234" height="237" viewBox="0 0 234 237" fill="none" xmlns="http://www.w3.org/2000/svg">
<g clip-path="url(#clip0)">
<path d="M222.832 105.733L229.114 140.695C236.631 182.847 201.697 221.206 155.687 221.206H93.9526C49.1771 221.206 14.5334 184.743 20.0897 143.499L24.193 113.041" fill="#FFA800"/>
<path d="M207.229 105.733L213.511 140.695C221.028 182.847 186.094 221.206 140.084 221.206H78.3501C33.5745 221.206 -1.06917 184.743 4.4872 143.499L8.59049 113.041" fill="#FFFCF2"/>
<path d="M211.395 105.733L217.445 140.695C224.683 182.847 191.044 221.206 146.738 221.206H87.2925C44.1766 221.206 10.8169 184.743 16.1671 143.499L20.1186 113.041" fill="#FFE66D"/>
<path d="M217.57 118.335C211.839 125.417 203.247 129.484 194.206 129.396C192.507 129.389 190.811 129.243 189.136 128.961C196.038 127.736 202.241 123.946 206.532 118.334C213.401 109.419 212.491 96.6842 204.426 88.8636L202.398 86.8882H201.735L201.5 86.6905L201.462 86.6512H201.5C208.17 86.7303 212.11 86.7303 212.188 86.6118L212.578 86.8882H213.28L215.348 88.8636C223.707 96.5268 224.684 109.475 217.57 118.335Z" fill="#FFA800"/>
<path d="M35.0665 126.039C26.7813 128.335 17.9408 125.433 12.5608 118.651L12.288 118.256C5.45995 109.395 6.56748 96.6927 14.8234 89.1808L17.2419 86.8897L22.2735 83.8477C22.2735 83.8477 26.2909 83.9268 33.0777 84.0847L28.5923 86.8897L26.2909 89.1808C18.3069 96.8329 17.2346 109.323 23.7947 118.256L24.1069 118.651C26.8188 122.31 30.6872 124.916 35.0665 126.039Z" fill="#FFFCF2"/>
<path d="M206.532 118.335C202.242 123.947 196.038 127.736 189.136 128.962C187.724 128.731 186.329 128.401 184.962 127.974C184.581 127.867 184.187 127.813 183.792 127.817C182.637 127.797 181.534 128.304 180.789 129.199H180.75C180.218 129.826 179.927 130.625 179.931 131.451V150.097C179.761 154.62 176.011 158.153 171.544 157.999C169.868 158.001 168.227 157.506 166.825 156.576C166.413 156.32 166.033 156.015 165.694 155.668C164.139 154.243 163.247 152.221 163.236 150.097V142.196C163.072 137.686 159.343 134.157 154.889 134.295C153.324 134.283 151.786 134.706 150.443 135.52C149.154 134.712 147.667 134.288 146.152 134.295C144.992 134.276 143.842 134.533 142.798 135.045C141.935 135.413 141.152 135.95 140.496 136.626C138.993 138.081 138.134 140.09 138.117 142.196V161.948C138.069 167.101 134.744 171.634 129.887 173.168C128.627 173.582 127.311 173.796 125.987 173.8C124.715 173.809 123.451 173.609 122.242 173.207C120.414 172.651 118.743 171.663 117.366 170.324C115.105 168.139 113.823 165.114 113.817 161.948V153.257C113.668 143.609 106.598 135.509 97.1622 134.177C94.6637 133.75 92.1077 133.817 89.6344 134.374C86.4416 133.684 83.1369 133.724 79.961 134.493C79.493 134.611 78.986 134.73 78.518 134.888H78.4791C77.9046 135.083 77.3181 135.241 76.7239 135.362C73.8401 134.727 71.1342 133.445 68.8058 131.609L65.4905 129.08C62.5898 126.822 59.1392 125.402 55.5054 124.972C52.9758 124.656 50.4102 124.817 47.9383 125.446C44.4918 124.603 40.8986 124.589 37.4458 125.406C36.9777 125.525 36.5097 125.643 36.0416 125.801H36.0027C35.6956 125.899 35.3829 125.978 35.0666 126.038C30.6873 124.916 26.8194 122.309 24.1061 118.651L23.7939 118.256C17.2342 109.323 18.3065 96.8327 26.2901 89.1806L28.5915 86.8895L33.0769 84.0845C34.4029 84.1238 35.8464 84.1238 37.3676 84.1636C73.0571 84.8747 161.637 86.5339 188.629 86.6525C188.861 86.6918 189.099 86.6918 189.331 86.6525C190.384 86.6918 191.32 86.6918 192.139 86.6918H197.6C197.678 86.6918 197.717 86.6918 197.756 86.6525C197.795 86.6918 197.834 86.6525 197.873 86.6525C198.055 86.6724 198.238 86.6724 198.419 86.6525H198.77C199.133 86.6923 199.499 86.6923 199.862 86.6525H200.058C200.421 86.6733 200.786 86.6733 201.15 86.6525H201.462L201.501 86.6918L201.735 86.8895H202.398L204.426 88.8649C212.491 96.6846 213.401 109.419 206.532 118.335Z" fill="#FFE66D"/>
<path d="M177.434 51.3344L188.1 53.2284C195.552 54.5209 202.472 57.981 208.017 63.1859C215.208 69.7881 216.187 80.8766 210.267 88.6667L210.059 88.9037C203.527 97.2516 192.665 100.778 182.559 97.8317L171.893 94.7897C162.907 92.2231 153.34 92.6944 144.643 96.1327L124.144 104.231C113.8 108.285 102.314 108.157 92.061 103.876L78.3945 98.1076C73.1754 95.9225 67.5839 94.7952 61.9365 94.7892H55.2987C51.2809 94.8031 47.3718 93.4698 44.1809 90.9972C35.2841 84.3076 32.5493 72.0375 37.746 62.1258C40.1356 57.7421 44.4199 54.7501 49.3149 54.0469L66.7698 51.334" fill="#FFA800"/>
<path d="M162.223 51.3344L172.889 53.2284C180.341 54.5209 187.261 57.981 192.806 63.1859C199.997 69.7881 200.976 80.8766 195.056 88.6667L194.847 88.9037C188.316 97.2516 177.454 100.778 167.348 97.8317L156.681 94.7897C147.696 92.2231 138.129 92.6944 129.432 96.1327L108.932 104.231C98.5887 108.285 87.1029 108.157 76.8495 103.876L63.183 98.1076C57.964 95.9225 52.3724 94.7952 46.725 94.7892H40.0863C36.0685 94.8031 32.1594 93.4698 28.9685 90.9972C20.0717 84.3076 17.3369 72.0375 22.5336 62.1258C24.9232 57.7421 29.2075 54.7501 34.1025 54.0469L51.5574 51.334" fill="#FFFCF2"/>
<path d="M167.333 51.3344L177.534 53.2284C184.721 54.5524 191.354 58.0199 196.583 63.186C203.474 69.9473 204.392 80.8179 198.735 88.6667L198.536 88.9037C192.492 97.1817 181.983 100.749 172.234 97.8317L162.033 94.7897C153.447 92.2226 144.254 92.6962 135.97 96.1327L116.364 104.231C106.502 108.285 95.4466 108.157 85.6791 103.876L72.6081 98.1076C67.6391 95.9276 62.2825 94.7985 56.8673 94.7892H50.5184C46.65 94.7938 42.8969 93.4555 39.8846 90.9972C31.3261 84.0733 28.7545 72.0093 33.7299 62.1258C35.9359 57.8005 40.046 54.7996 44.7952 54.0469L61.4894 51.334" fill="#FFE66D"/>
<path d="M55.504 124.972C54.1953 125.134 52.9036 125.412 51.6425 125.801H51.6036C46.9678 127.237 41.9956 127.098 37.4448 125.406C40.8972 124.59 44.4909 124.603 47.9373 125.446C50.4093 124.817 52.9744 124.656 55.504 124.972Z" fill="#FFA800"/>
<path d="M97.1616 134.176C96.1318 134.339 95.1148 134.576 94.1192 134.888H94.0804C89.4601 136.341 84.4943 136.202 79.9604 134.493C83.1358 133.724 86.4406 133.684 89.6338 134.374C92.1071 133.817 94.6632 133.75 97.1616 134.176Z" fill="#FFA800"/>
<path d="M76.7232 135.362C70.5625 136.768 64.1025 135.399 59.0151 131.609L55.5435 129.081C53.2626 127.385 50.68 126.151 47.9375 125.446C54.0291 123.873 60.4969 125.212 65.4897 129.081L68.805 131.609C71.1334 133.445 73.8394 134.728 76.7232 135.362Z" fill="#FFFCF2"/>
<path d="M196.702 86.6915H196.156C196.429 86.6521 196.546 86.6521 196.585 86.6123L196.702 86.6915Z" fill="#FFFCF2"/>
<path d="M47.9381 125.446C47.5482 125.565 47.119 125.683 46.7291 125.802H46.6902C42.9243 127.043 38.879 127.125 35.0669 126.039C35.3832 125.978 35.6958 125.899 36.003 125.802H36.0419C39.9029 124.6 44.013 124.478 47.9381 125.446Z" fill="#FFE66D"/>
<path d="M89.6341 134.374C88.9622 134.508 88.298 134.68 87.6449 134.887H87.606C84.0855 136.029 80.3278 136.192 76.7236 135.361C77.3178 135.241 77.9043 135.082 78.4789 134.887H78.5177C82.1159 133.739 85.9477 133.562 89.6341 134.374Z" fill="#FFE66D"/>
<path d="M197.872 86.6523C197.786 86.6875 197.692 86.7014 197.6 86.6917C197.68 86.6982 197.76 86.6843 197.834 86.6523C197.872 86.6917 197.872 86.6523 197.872 86.6523Z" fill="#FFE66D"/>
<path d="M201.503 86.6523V86.6947L201.461 86.6523H201.503Z" fill="#FFE66D"/>
<path d="M189.136 128.962C187.46 129.246 185.764 129.39 184.065 129.396C183.168 129.396 182.232 129.357 181.335 129.278C181.151 129.271 180.968 129.245 180.789 129.199C181.534 128.304 182.637 127.797 183.793 127.816C184.188 127.813 184.582 127.866 184.963 127.974C186.329 128.401 187.724 128.731 189.136 128.962Z" fill="#FFE66D"/>
<path d="M201.384 86.6522H201.15C201.217 86.6531 201.283 86.6397 201.345 86.6128L201.384 86.6522Z" fill="#FFE66D"/>
<path d="M120.926 55.2851C99.3799 55.2851 81.9131 46.4414 81.9131 35.5325C81.9131 24.6235 99.3794 15.7798 120.926 15.7798C142.472 15.7798 161.847 32.6427 170.839 47.508C175.543 55.2847 174.822 64.3358 167.317 67.926L160.514 71.18C152.348 75.1109 143.027 75.8142 134.377 73.1513L131.888 72.386C124.465 70.0981 116.513 70.2842 109.203 72.9166L109.201 72.917C101.349 75.7438 92.7749 75.7438 84.9226 72.917L78.2185 70.512C74.4777 69.0005 71.6606 65.789 70.6189 61.8484C69.5772 57.9077 70.4333 53.7004 72.9286 50.4978L81.457 39.4828" fill="#FFA800"/>
<path d="M107.051 55.2851C85.5054 55.2851 68.0386 46.4414 68.0386 35.5325C68.0386 24.6235 85.5049 15.7798 107.051 15.7798C128.597 15.7798 147.973 32.6427 156.964 47.508C161.668 55.2847 160.948 64.3358 153.442 67.926L146.639 71.18C138.473 75.1109 129.153 75.8142 120.502 73.1513L118.014 72.386C110.591 70.0981 102.639 70.2842 95.3282 72.9166L95.3269 72.917C87.4745 75.7438 78.9004 75.7438 71.0481 72.917L64.344 70.512C60.6032 69.0005 57.7861 65.789 56.7444 61.8484C55.7027 57.9077 56.5588 53.7004 59.0541 50.4978L67.5829 39.4828" fill="#FFFCF2"/>
<path d="M98.9082 35.9843C103.633 32.9455 109.15 31.4118 114.744 31.5821C125.988 31.5821 135.103 36.8885 135.103 43.4336C135.103 49.9788 125.988 55.2851 114.744 55.2851H114.743" fill="#FFA800"/>
<path d="M113.206 55.2851C93.2825 55.2851 77.1313 46.4414 77.1313 35.5325C77.1313 24.6235 93.2825 15.7798 113.206 15.7798C133.129 15.7798 151.045 32.6427 159.36 47.508C163.71 55.2847 163.044 64.3358 156.103 67.926L149.813 71.18C142.346 75.1045 133.634 75.8151 125.644 73.1513L123.343 72.386C116.5 70.0977 109.086 70.2851 102.365 72.9166L102.364 72.917C95.1406 75.7438 87.137 75.7438 79.9136 72.917L73.7145 70.512C70.1762 68.7732 67.5841 65.532 66.6388 61.6655C65.6935 57.7989 66.4939 53.7074 68.8228 50.4978L81.9111 31.5816" fill="#FFE66D"/>
<path d="M87.2061 35.9848C91.931 32.946 97.4476 31.4123 103.042 31.5826C114.286 31.5826 123.401 36.8889 123.401 43.4341C123.401 49.9793 114.286 55.2856 103.042 55.2856H103.041" fill="#FFE66D"/>
<path d="M5.86294 138.244C4.72936 138.244 3.65154 137.745 2.90968 136.877C2.16783 136.009 1.83553 134.857 1.99871 133.721L5.07446 112.469C5.27649 111.073 6.1989 109.892 7.49338 109.371C8.78785 108.85 10.2592 109.069 11.3521 109.944C12.445 110.819 12.9935 112.218 12.7915 113.615L9.71574 134.866C9.43555 136.804 7.79643 138.241 5.86294 138.244Z" fill="#252422"/>
<path d="M150.17 225.157H83.8615C44.2131 225.157 9.6567 200.621 1.69603 166.816C1.3683 165.441 1.79065 163.994 2.80401 163.021C3.81738 162.049 5.26681 161.699 6.60425 162.104C7.9417 162.509 8.96375 163.607 9.28371 164.983C16.418 195.272 47.7821 217.256 83.8615 217.256H150.17C174.01 217.705 196.833 207.487 212.551 189.327C223.734 176.144 228.391 158.527 225.209 141.448L218.463 106.492C218.05 104.351 219.429 102.275 221.543 101.857C223.658 101.438 225.706 102.835 226.12 104.976L232.868 139.939C236.514 159.335 231.253 179.359 218.57 194.355C201.364 214.326 176.337 225.596 150.17 225.157Z" fill="#252422"/>
<path d="M3.9008 154.048C3.39069 154.042 2.88652 153.935 2.41709 153.732C1.94537 153.531 1.51068 153.25 1.1313 152.903C0.975428 152.704 0.819104 152.507 0.662779 152.31C0.514683 152.09 0.396296 151.851 0.310364 151.598C0.19792 151.374 0.119757 151.134 0.0781623 150.886C0.0342817 150.626 0.00822761 150.362 0 150.098C0.0141698 149.052 0.418237 148.05 1.1313 147.293C1.50977 146.944 1.94491 146.662 2.41709 146.461C3.87063 145.845 5.54724 146.173 6.6703 147.293C7.38245 148.05 7.78606 149.052 7.8016 150.098C7.79246 150.362 7.7664 150.625 7.72344 150.886C7.68001 151.134 7.60094 151.374 7.48895 151.598C7.40348 151.851 7.28463 152.09 7.13653 152.31C6.99301 152.517 6.83714 152.715 6.66985 152.903C5.92205 153.623 4.93336 154.032 3.9008 154.048Z" fill="#252422"/>
<path d="M167.467 161.948C164.183 161.986 160.999 160.802 158.52 158.621C156.024 156.508 154.573 153.391 154.55 150.097V142.196C154.55 140.014 156.296 138.245 158.451 138.245C160.605 138.245 162.351 140.014 162.351 142.196V150.097C162.377 151.097 162.844 152.032 163.623 152.647C164.693 153.573 166.06 154.071 167.467 154.047C169.934 154.304 172.174 152.575 172.582 150.097V131.45C172.76 127.097 176.377 123.708 180.675 123.865C181.464 123.858 182.251 123.963 183.012 124.176C194.158 127.497 206.204 124.247 214.241 115.748C217.193 112.41 218.686 108.004 218.379 103.534C217.932 98.9746 215.728 94.7775 212.246 91.8526L211.003 90.761C209.039 90.3573 207.697 88.5129 207.898 86.4939C208.099 84.475 209.777 82.9385 211.78 82.939H212.545C213.483 82.9385 214.389 83.2811 215.097 83.9033L217.35 85.8787C222.383 90.1545 225.546 96.2691 226.153 102.894C226.638 109.479 224.468 115.983 220.138 120.92C210.094 131.711 194.933 135.902 180.869 131.775C180.705 131.772 180.542 131.789 180.383 131.825V150.098C180.025 156.971 174.257 162.263 167.467 161.948Z" fill="#252422"/>
<path d="M126.766 177.751C122.318 177.792 118.001 176.222 114.594 173.324C111.247 170.51 109.281 166.354 109.214 161.949V153.257C109.129 148.711 106.897 144.481 103.213 141.883C97.9096 137.97 91.1072 136.787 84.8185 138.685C84.7216 138.712 84.6224 138.737 84.5232 138.759C76.3144 141.102 67.504 139.676 60.425 134.858L56.734 132.368C51.4821 128.845 44.9686 127.832 38.9153 129.598C38.8088 129.629 38.7 129.656 38.5917 129.677C35.8282 130.437 32.9695 130.78 30.1072 130.697C23.2289 130.657 16.6053 128.057 11.4959 123.392C10.755 122.646 10.1096 121.951 9.50758 121.253L9.08477 120.723C1.04777 111.29 1.52863 97.182 10.1896 88.3332C10.4647 87.9712 10.781 87.6439 11.1325 87.3573C11.5096 86.9619 11.8867 86.6129 12.2638 86.2694L14.9625 83.9004C15.0928 83.787 15.2303 83.6819 15.3739 83.5861L20.4421 80.2029C22.0926 79.027 24.3561 79.3214 25.6602 80.8815C26.9638 82.4417 26.8765 84.7513 25.4586 86.2059C25.2612 86.4059 25.0459 86.5869 24.815 86.7462L19.8707 90.0484L17.4518 92.1683C17.1602 92.4238 16.8827 92.6951 16.6194 92.9803C16.4882 93.1261 16.347 93.2622 16.1966 93.3872C16.1317 93.4664 16.0632 93.5437 15.9928 93.6187C9.99895 99.6092 9.62276 109.282 15.1321 115.732L15.4881 116.184C15.8689 116.616 16.3927 117.183 16.9165 117.713C20.6098 121.002 25.3617 122.81 30.2786 122.798C32.4612 122.876 34.6425 122.605 36.7428 121.998C36.8324 121.973 36.9238 121.95 37.017 121.93C45.2254 119.586 54.0368 121.011 61.1152 125.831L64.8062 128.321C70.0591 131.842 76.5717 132.854 82.625 131.091C82.726 131.062 82.8288 131.037 82.9317 131.016C91.5048 128.542 100.726 130.225 107.907 135.574C113.535 139.677 116.913 146.235 117.015 153.257V161.949C117.073 164.05 118.045 166.018 119.67 167.325C121.663 168.995 124.179 169.891 126.766 169.85C131.593 170.327 135.917 166.823 136.517 161.949V146.147C136.517 143.965 138.263 142.196 140.417 142.196C142.572 142.196 144.318 143.965 144.318 146.147V161.949C143.739 171.201 135.906 178.253 126.766 177.751Z" fill="#252422"/>
<path d="M140.418 157.998C138.264 157.998 136.518 156.229 136.518 154.048V142.196C137.176 135.471 142.761 130.346 149.434 130.346C156.108 130.346 161.693 135.471 162.351 142.196C162.351 144.378 160.605 146.147 158.451 146.147C156.296 146.147 154.55 144.378 154.55 142.196C153.918 139.863 151.824 138.245 149.435 138.245C147.046 138.245 144.952 139.863 144.32 142.196V154.048C144.319 156.229 142.573 157.998 140.418 157.998Z" fill="#252422"/>
<path d="M99.5201 111.113C92.9197 111.125 86.3714 109.924 80.1948 107.568L65.3431 101.796C60.081 99.772 54.4991 98.7368 48.8709 98.7405H41.6622C36.5373 98.765 31.5303 97.1845 27.3269 94.2152C16.1813 86.7964 12.6375 71.8876 19.2287 60.144C22.592 54.6131 28.2544 50.9303 34.6193 50.1345L53.5716 47.4226C55.7049 47.117 57.6786 48.6202 57.9807 50.7808C58.2829 52.9414 56.7982 54.9404 54.665 55.2464L35.7127 57.9584C31.7154 58.4074 28.1351 60.6694 25.9785 64.1077C21.3651 72.3186 23.9541 82.7535 31.8521 87.7797C34.7332 89.7986 38.159 90.8671 41.6626 90.8389H48.8714C55.4503 90.8343 61.9748 92.0458 68.1244 94.4133L82.9798 100.187C93.316 104.11 104.686 104.226 115.098 100.515L137.36 92.4148C147.608 88.7153 158.716 88.2107 169.25 90.9662L180.828 94.0082C190.182 96.6295 200.197 93.6791 206.705 86.3849C206.771 86.302 207.07 85.9858 207.144 85.9085C209.479 83.0141 210.563 79.2878 210.149 75.5741C209.735 71.8598 207.86 68.472 204.947 66.1771C199.332 61.374 192.513 58.2417 185.246 57.1283L173.663 55.2339C172.287 55.0094 171.134 54.058 170.638 52.7391C170.142 51.4201 170.379 49.9331 171.259 48.8387C172.139 47.7443 173.528 47.2087 174.904 47.4332L186.488 49.3276C195.18 50.6729 203.332 54.4344 210.039 60.1935C214.523 63.886 217.355 69.2474 217.901 75.0741C218.446 80.9008 216.66 86.7057 212.942 91.1861C212.873 91.269 212.576 91.5833 212.502 91.6606C204.051 101.145 191.053 105.01 178.881 101.658L167.288 98.6127C158.274 96.254 148.77 96.685 140 99.8493L117.736 107.949C111.888 110.056 105.726 111.127 99.5201 111.113Z" fill="#252422"/>
<path d="M84.8059 78.9712C79.6504 78.9777 74.5228 78.211 69.5885 76.6972L61.8143 74.2917C56.2648 72.6825 51.9229 68.296 50.3203 62.6795C48.8805 57.4334 50.2504 51.8067 53.9332 47.8402L63.4521 37.2405C63.3757 36.6747 63.3373 36.1044 63.3378 35.5336C63.3378 22.021 84.4649 11.8306 112.483 11.8306C138.342 11.8306 162.263 29.1393 173.546 45.2208C177.136 49.8572 178.444 55.8978 177.1 61.6305C175.682 66.2401 172.227 69.9191 167.753 71.5858L159.862 74.8398C149.447 79.0929 137.959 79.8411 127.092 76.9731L124.209 76.2092C116.259 74.0973 107.886 74.2662 100.025 76.6972C95.0909 78.211 89.9623 78.9777 84.8059 78.9712ZM67.0804 44.9402L59.7044 53.1557C57.8445 55.133 57.1387 57.95 57.8436 60.5861C58.7449 63.5869 61.1049 65.9081 64.0924 66.7336L71.8666 69.1391C80.3049 71.72 89.3073 71.72 97.7456 69.1391C106.99 66.285 116.835 66.0864 126.184 68.5664L129.068 69.3303C138.303 71.7714 148.068 71.1367 156.919 67.5211L164.812 64.267C167.08 63.5147 168.86 61.7166 169.61 59.4213C170.265 56.0075 169.376 52.4757 167.187 49.7957C157.028 35.3146 135.575 19.7308 112.483 19.7308C88.821 19.7308 71.1394 28.0736 71.1394 35.5326C71.1394 42.9917 88.821 51.3345 112.483 51.3345C114.637 51.3345 116.383 53.1034 116.383 55.2848C116.383 57.4667 114.637 59.2352 112.483 59.2352C91.4739 59.2361 74.3385 53.5048 67.0804 44.9402Z" fill="#252422"/>
<path d="M114.743 59.2359C112.589 59.2359 110.843 57.467 110.843 55.2856C110.843 53.1037 112.589 51.3352 114.743 51.3352C124.163 51.3352 131.202 47.165 131.202 43.4341C131.202 39.7031 124.163 35.5329 114.743 35.5329C109.96 35.3834 105.24 36.6602 101.167 39.2036C99.4117 40.467 96.9773 40.0499 95.7299 38.2717C94.4825 36.4935 94.8943 34.0278 96.6495 32.7645C102.035 29.2535 108.34 27.4646 114.742 27.6313C128.346 27.6313 139.002 34.5718 139.002 43.4331C139.002 52.2944 128.347 59.2359 114.743 59.2359Z" fill="#252422"/>
</g>
<defs>
<clipPath id="clip0">
<rect width="234" height="237" fill="white"/>
</clipPath>
</defs>
</svg>
