<svg width="133" height="133" viewBox="0 0 133 133" fill="none" xmlns="http://www.w3.org/2000/svg">
<g clip-path="url(#clip0)">
<path d="M109.9 30.9328C109.435 30.3657 108.752 30.0218 108.02 29.9857C107.289 29.9488 106.574 30.2249 106.055 30.7434L30.7484 106.054C30.2299 106.572 29.9546 107.286 29.9907 108.018C30.0268 108.751 30.3707 109.434 30.9378 109.899C40.9286 118.095 53.5582 122.609 66.5 122.609C81.4874 122.609 95.5776 116.772 106.175 106.174C116.773 95.5758 122.609 81.4848 122.609 66.4968C122.609 53.5542 118.096 40.9239 109.9 30.9328ZM79.229 114.663C69.3886 113.49 60.4802 108.56 54.4352 101.018C62.191 95.1056 72.0792 92.4061 81.9326 93.5805C89.604 94.4949 96.7079 97.6944 102.331 102.633C96.7593 108.159 89.9204 112.407 82.2945 114.902C81.2741 114.863 80.2514 114.785 79.229 114.663ZM64.945 79.203C65.8906 79.2448 66.8379 79.3207 67.7848 79.4334C76.2939 80.4475 84.1048 84.2733 89.9727 90.1653C87.6085 89.331 85.1387 88.7299 82.5478 88.421C71.6077 87.1162 60.6269 90.0212 51.8975 96.4299C50.9938 95.9542 50.1142 95.4386 49.256 94.8923L64.945 79.203ZM100.166 49.4775C93.3226 58.0453 90.2038 68.9209 91.5749 79.7617C91.8313 81.79 92.2363 83.7424 92.7766 85.6218C87.1841 80.0363 83.5611 72.7956 82.5693 64.9468C82.4376 63.9077 82.3537 62.8681 82.3163 61.8309L98.016 46.1304C98.7943 47.2061 99.5126 48.3231 100.166 49.4775ZM105.903 98.7054C100.899 93.2815 97.6591 86.4629 96.7292 79.1097C95.521 69.5545 98.321 59.9595 104.443 52.4443C110.564 57.026 115.029 63.3206 117.264 70.4208C116.446 81.1037 112.316 90.8735 105.903 98.7054ZM78.8827 72.3919C77.9273 71.3783 75.4783 69.068 75.2938 68.8537L77.5548 66.5927C77.8551 68.5666 78.3009 70.5037 78.8827 72.3919ZM74.4179 75.4309C72.8715 75.0195 71.2947 74.6932 69.6951 74.4526L71.5158 72.6319C71.7558 72.8262 73.6617 74.7212 74.4179 75.4309ZM107.643 36.5027C112.205 42.761 115.271 49.9954 116.625 57.5915C113.658 53.3947 109.884 49.7219 105.445 46.8024C105.118 46.5873 104.758 46.4556 104.391 46.4024C103.584 45.023 102.694 43.6925 101.73 42.4157L107.643 36.5027ZM36.5074 107.642L45.5049 98.6441C46.4061 99.2525 47.3293 99.8307 48.2777 100.37C48.2304 100.953 48.3764 101.553 48.7338 102.066C53.6263 109.078 60.5646 114.378 68.5363 117.369C67.8604 117.396 67.1821 117.413 66.5 117.413C55.7184 117.413 45.1766 113.962 36.5074 107.642Z" fill="#252422"/>
<path d="M131.649 53.0955C130.774 48.8247 129.47 44.6243 127.774 40.6107C126.106 36.6698 124.043 32.8694 121.643 29.3155C119.264 25.7931 116.531 22.4834 113.523 19.4727C110.512 16.4644 107.203 13.7317 103.68 11.352C100.127 8.95172 96.3263 6.88892 92.3856 5.22123C88.3723 3.52236 84.1719 2.22093 79.9013 1.34526C71.1394 -0.447119 61.8606 -0.447119 53.0987 1.34526C48.8281 2.22067 44.6277 3.5221 40.6144 5.22123C36.6763 6.88918 32.8733 8.95172 29.3197 11.352C25.7973 13.7317 22.4879 16.4644 19.4772 19.4727C16.4691 22.4832 13.7364 25.7928 11.357 29.3153C8.95672 32.8691 6.89418 36.6695 5.22648 40.6104C3.52762 44.624 2.22619 48.8247 1.35078 53.0953C0.45459 57.4754 0 61.9852 0 66.4976C0 71.0097 0.45459 75.5198 1.35078 79.8994C2.22619 84.1702 3.52762 88.3707 5.22648 92.3843C6.89418 96.3252 8.95672 100.126 11.357 103.679C13.7364 107.202 16.4691 110.512 19.4772 113.522C22.4879 116.531 25.7973 119.264 29.3197 121.643C32.8733 124.043 36.6737 126.106 40.6144 127.774C44.6277 129.47 48.8281 130.774 53.0987 131.65C57.4783 132.546 61.9879 133 66.5 133H66.5052C83.2471 133 99.2409 126.758 111.541 115.424C112.05 114.954 112.349 114.315 112.375 113.621C112.403 112.928 112.162 112.265 111.691 111.753C111.2 111.221 110.504 110.917 109.78 110.917C109.125 110.917 108.502 111.161 108.021 111.603C96.6744 122.048 81.9301 127.803 66.5 127.805C50.127 127.803 34.7333 121.428 23.1503 109.849C11.5726 98.2659 5.19531 82.8688 5.19531 66.4976C5.19531 51.3535 10.6558 37.0456 20.6384 25.8162C20.7794 28.1624 21.1254 30.4827 21.6691 32.7538C18.0373 37.5672 15.2337 42.8758 13.3179 48.566L13.3213 48.5701C11.6669 49.3655 10.0563 50.2659 8.50447 51.2779C7.39527 52.0011 7.00744 53.4428 7.60438 54.625C8.53226 56.4629 9.596 58.221 10.7803 59.8902L10.7774 59.891C10.5205 62.0728 10.3906 64.2901 10.3906 66.4976C10.3906 79.5106 14.9472 92.1939 23.2204 102.211C23.6865 102.776 24.3689 103.117 25.0999 103.152C25.1412 103.154 25.1822 103.155 25.2235 103.155C25.9108 103.155 26.5719 102.882 27.0603 102.394L102.395 27.0558C102.912 26.5384 103.187 25.8264 103.153 25.0954C103.118 24.3644 102.777 23.682 102.212 23.216C92.1952 14.9422 79.5124 10.3854 66.5 10.3854C65.15 10.3854 63.7839 10.4345 62.4269 10.5314L62.4266 10.5345C60.5353 9.22266 58.5296 8.05371 56.4203 7.04998C55.2698 6.50213 53.8928 6.86996 53.168 7.91734C52.0872 9.47905 51.1276 11.1015 50.2857 12.77L50.2839 12.7669C45.3016 14.2665 40.5645 16.4535 36.1726 19.2821L36.1734 19.2974C33.7487 18.7119 31.2695 18.3329 28.7659 18.1698C39.5013 9.75466 52.6519 5.1898 66.5 5.1898C82.8704 5.1898 98.2667 11.5673 109.85 23.1456C121.427 34.729 127.802 50.1235 127.805 66.4973C127.805 76.0804 125.656 85.2558 121.42 93.7714C120.781 95.0547 121.305 96.6161 122.589 97.2552C122.952 97.4344 123.339 97.5279 123.745 97.5279C124.737 97.5279 125.628 96.9746 126.072 96.0862C128.311 91.5842 130.036 86.8224 131.2 81.9334C132.395 76.9041 133 71.7111 133 66.4973C133 61.9852 132.545 57.4754 131.649 53.0955ZM46.0011 28.9474C45.7941 33.1606 46.2484 37.4223 47.3968 41.5843C48.0657 44.0097 49.0788 46.2348 50.3332 48.3226C47.9917 47.2357 45.545 46.3515 43.0219 45.6951C39.6127 44.8077 36.1376 44.35 32.6738 44.3037C28.1446 38.1751 25.7316 30.8201 25.7597 23.2679C32.9385 23.2383 39.9948 25.2131 46.0011 28.9474ZM67.3692 52.6716C65.4786 43.2249 67.5804 33.4681 73.1419 25.5596C77.8219 28.5781 81.7181 32.5686 84.5566 37.2425C84.3316 37.5608 84.1129 37.8826 83.8975 38.206L67.7542 54.3502C67.6136 53.7943 67.4819 53.2353 67.3692 52.6716ZM38.8604 81.4986C34.0667 78.764 29.9715 75.0195 26.8663 70.5279C35.0323 65.1492 45.0956 63.1238 54.8467 64.9642C55.4805 65.0837 56.1091 65.2206 56.7336 65.3713L43.2224 78.8832C41.722 79.6675 40.2632 80.5364 38.8604 81.4986ZM55.8093 59.8585C44.8605 57.7921 33.5602 60.0224 24.3317 65.9815C19.8534 62.9505 16.1192 58.994 13.3927 54.3847C21.9297 49.5666 32.1179 48.2257 41.7139 50.7231C47.8764 52.3263 53.5257 55.4451 58.0527 59.7429C58.0683 59.758 58.8143 60.4843 58.8943 60.5612C57.8768 60.2915 56.8489 60.0544 55.8093 59.8585ZM23.687 38.9331C24.5117 40.9026 25.4942 42.8127 26.6304 44.6446C24.3374 44.9347 22.071 45.4104 19.8531 46.0611C20.9368 43.5881 22.217 41.2079 23.687 38.9331ZM25.4646 96.6419C19.0754 87.9428 15.5859 77.347 15.5859 66.4976C15.5859 66.1742 15.5898 65.8508 15.5958 65.5271C17.1874 67.0847 18.905 68.5212 20.7399 69.8164C20.7353 70.2801 20.854 70.7495 21.1073 71.1734C24.4471 76.7641 29.0597 81.4767 34.5696 84.9755C34.0309 85.7691 33.969 86.8105 34.4358 87.6706L25.4646 96.6419ZM89.8857 32.2176C89.1973 32.2114 88.5136 32.4764 88.0047 32.9954C84.396 27.6156 79.528 23.1149 73.749 19.8611C73.1692 19.5348 72.511 19.4551 71.9005 19.5935C70.8415 18.1965 69.6917 16.8709 68.4636 15.6196C78.6227 16.014 88.4702 19.4566 96.6429 25.4601L89.8857 32.2176ZM56.2091 12.7786C61.0197 15.4321 65.1425 19.0776 68.2908 23.4547C62.3648 32.3631 60.1731 43.1904 62.2749 53.6914C62.5352 54.9913 62.8612 56.274 63.2462 57.5365C62.8996 57.1998 61.8601 56.2015 61.6795 56.0233C57.2557 51.6343 54.0489 46.1639 52.4051 40.2026C49.8405 30.9089 51.2336 21.0381 56.2091 12.7786ZM47.715 19.1597C47.2945 20.5334 46.9469 21.9255 46.676 23.3316C45.4016 22.6367 44.0903 22.0107 42.7514 21.4496C44.3651 20.5965 46.0211 19.8323 47.715 19.1597Z" fill="#252422"/>
<path d="M117.611 107.456C119.046 107.456 120.209 106.293 120.209 104.858C120.209 103.424 119.046 102.261 117.611 102.261C116.177 102.261 115.014 103.424 115.014 104.858C115.014 106.293 116.177 107.456 117.611 107.456Z" fill="#252422"/>
</g>
<defs>
<clipPath id="clip0">
<rect width="133" height="133" fill="white"/>
</clipPath>
</defs>
</svg>
