<svg width="204" height="184" viewBox="0 0 204 184" fill="none" xmlns="http://www.w3.org/2000/svg">
<path d="M202.232 110.018L196.454 80.4165C196.477 79.679 196.459 78.9411 196.401 78.2056C195.874 72.5162 193.126 67.265 188.755 63.5929L187.95 62.8948C190.91 55.3233 188.672 46.7045 182.404 41.5356C176.579 36.5897 169.497 33.3594 161.948 32.204L151.909 30.5811C151.541 29.9259 151.14 29.2897 150.707 28.6755C140.907 14.8643 120.129 0 97.6674 0C73.3312 0 54.9803 8.75193 54.9803 20.3561C54.9799 20.8463 55.0132 21.3361 55.0795 21.8224L47.1068 30.6002C46.9051 30.5695 46.7007 30.5584 46.497 30.5675L30.0351 32.8966C24.5065 33.58 19.5881 36.7428 16.6668 41.4926C13.1638 47.4687 12.7882 54.779 15.6611 61.083C15.6353 61.0822 15.6143 61.0683 15.5885 61.0683H15.193C14.3843 61.0683 13.6021 61.3581 12.9879 61.8849L10.6951 63.8529C3.79319 69.4934 1.20735 78.8874 4.24897 87.2724L0.544316 112.586C-1.75248 128.977 3.29055 145.547 14.3259 157.868C29.2239 174.411 50.5649 183.657 72.8064 183.205H130.402C153.13 183.582 174.868 173.903 189.814 156.751C200.83 143.872 205.399 126.676 202.232 110.018ZM51.8235 35.4904L58.2307 28.4353C64.5351 35.7906 79.4188 40.7122 97.667 40.7122C98.0025 40.6963 98.3336 40.6295 98.6488 40.5138C98.9641 40.6295 99.2952 40.6967 99.6307 40.7122C111.447 40.7122 120.703 34.7517 120.703 27.1416C120.703 19.5311 111.447 13.571 99.6307 13.571C94.0691 13.4279 88.5933 14.9637 83.9152 17.9794C82.3934 19.0656 82.0372 21.1807 83.1199 22.7062C84.2026 24.2317 86.3144 24.5911 87.839 23.5089C91.3765 21.3242 95.4766 20.2281 99.6307 20.3565C107.813 20.3565 113.927 23.9379 113.927 27.142C113.927 30.3457 107.813 33.9275 99.6307 33.9275C99.2952 33.9434 98.9641 34.0102 98.6488 34.1259C98.3336 34.0102 98.0025 33.943 97.667 33.9275C77.1141 33.9275 61.7559 26.7627 61.7559 20.3569C61.7559 13.9511 77.1141 6.78629 97.667 6.78629C117.725 6.78629 136.359 20.1696 145.183 32.6059C147.084 34.9075 147.856 37.9403 147.287 40.8724C146.636 42.8432 145.09 44.3878 143.12 45.0339L136.264 47.8285C128.576 50.934 120.094 51.4787 112.072 49.3822L109.568 48.7262C101.447 46.5968 92.8959 46.7669 84.8664 49.218C77.5369 51.4345 69.7175 51.4345 62.388 49.218L55.6354 47.1522C53.0404 46.4433 50.9905 44.4499 50.2076 41.8727C49.5954 39.6077 50.208 37.188 51.8235 35.4904ZM22.5297 44.8963C24.4028 41.9435 27.5128 40.0009 30.9848 39.6153L43.3954 37.8592C43.0591 39.7926 43.154 41.7765 43.6729 43.6686C45.0649 48.4921 48.8363 52.2591 53.6566 53.6411L60.4092 55.7069C69.0298 58.3111 78.2258 58.3111 86.846 55.7069C93.6737 53.6192 100.947 53.4741 107.852 55.2879L110.356 55.9439C119.795 58.4069 129.774 57.7644 138.82 54.1118L145.673 51.3172C149.56 49.886 152.561 46.7264 153.793 42.7677C154.244 41.1639 154.396 39.4904 154.241 37.8313L160.868 38.9028C167.18 39.859 173.103 42.549 177.98 46.6739C180.51 48.6447 182.139 51.5542 182.498 54.744C182.858 57.9338 181.917 61.1335 179.889 63.6192C179.825 63.6856 179.564 63.9571 179.507 64.0283C173.854 70.2926 165.156 72.8263 157.03 70.5752L146.974 67.9627C137.824 65.5963 128.176 66.0297 119.274 69.2068L99.9376 76.1624C90.8933 79.3494 81.0181 79.25 72.0397 75.8809L59.1363 70.9227C53.7947 68.8895 48.1276 67.849 42.4132 67.853H36.1528C33.11 67.8773 30.1339 66.9596 27.6315 65.2258C20.7712 60.9093 18.5225 51.9482 22.5297 44.8963ZM9.78392 78.689C10.1631 74.8691 12.0855 71.37 15.1053 69.0048L16.6406 67.686C17.5132 67.3882 18.2255 66.7446 18.6114 65.9057C20.0705 67.7544 21.7841 69.3861 23.7013 70.7522C27.3524 73.3022 31.7018 74.6596 36.1528 74.6385H42.4144C47.3033 74.6353 52.1518 75.5243 56.722 77.2625L69.6222 82.2192C74.9876 84.2428 80.675 85.2746 86.4081 85.2638C91.7985 85.2758 97.1508 84.3569 102.23 82.5472L121.568 75.5911C129.185 72.8736 137.441 72.5035 145.27 74.5292L155.34 77.1449C165.816 79.9852 177.001 76.7508 184.352 68.7547C187.359 71.2638 189.26 74.8552 189.648 78.7551C189.915 82.5945 188.618 86.3783 186.053 89.2444C179.073 96.5428 168.61 99.3346 158.928 96.4819C158.267 96.2991 157.584 96.2092 156.898 96.2152C153.165 96.08 150.024 98.9911 149.869 102.729V118.743C149.515 120.871 147.569 122.356 145.426 122.135C144.204 122.156 143.016 121.728 142.088 120.933C141.411 120.405 141.005 119.602 140.982 118.743V111.957C140.411 106.181 135.559 101.78 129.763 101.78C123.967 101.78 119.115 106.181 118.544 111.957V128.921C118.022 133.107 114.265 136.116 110.072 135.706C107.823 135.731 105.636 134.964 103.895 133.538C102.487 132.414 101.647 130.724 101.601 128.921V121.457C101.513 115.425 98.5786 109.792 93.69 106.268C87.4586 101.679 79.4585 100.234 72.0191 102.353C71.925 102.371 71.8305 102.394 71.738 102.421C66.4778 103.936 60.8189 103.067 56.2539 100.044L53.0579 97.9053C46.9115 93.7653 39.2592 92.5387 32.1294 94.5505C32.0385 94.5688 31.9491 94.5903 31.8598 94.6149C25.2521 96.5957 18.0941 94.6499 13.3933 89.5955L13.0971 89.2329C10.6018 86.3186 9.40476 82.5094 9.78392 78.689ZM184.586 152.433C170.933 168.029 151.109 176.804 130.402 176.419H72.8064C52.5338 176.869 33.0656 168.481 19.4527 153.431C9.71643 142.594 5.25027 128.009 7.24732 113.57L9.86968 95.651C16.2547 101.455 25.1755 103.556 33.4741 101.209C33.5714 101.19 33.6675 101.167 33.762 101.139C39.0218 99.6212 44.6818 100.49 49.246 103.516L52.4421 105.655C58.5884 109.795 66.2407 111.021 73.3705 109.01C73.463 108.991 73.5559 108.97 73.6469 108.943C79.1044 107.312 85.0098 108.327 89.6121 111.687C92.8133 113.919 94.7516 117.552 94.8247 121.457V128.922C94.856 132.709 96.5636 136.287 99.4866 138.691C102.45 141.181 106.204 142.53 110.072 142.493C118.012 142.924 124.816 136.869 125.319 128.922V111.959C125.869 109.955 127.688 108.566 129.763 108.566C131.837 108.566 133.657 109.955 134.206 111.959V118.744C134.225 121.573 135.486 124.25 137.653 126.064C139.807 127.938 142.572 128.954 145.425 128.922C151.322 129.193 156.332 124.647 156.644 118.744V103.051C156.783 103.021 156.924 103.006 157.066 103.008C169.282 106.553 182.451 102.954 191.176 93.6866C191.45 93.3685 191.692 93.0333 191.947 92.7045L195.579 111.316C198.344 125.982 194.299 141.112 184.586 152.433Z" fill="#252422"/>
</svg>
