<svg width="113" height="113" viewBox="0 0 113 113" fill="none" xmlns="http://www.w3.org/2000/svg">
<g clip-path="url(#clip0)">
<path d="M10.6369 91.3247C12.4886 93.0633 14.9492 94.0048 17.4885 93.9463C18.0503 93.9458 18.6112 93.903 19.1665 93.8182C18.6218 96.902 19.5498 100.063 21.6751 102.363L21.9915 102.683C28.6133 109.489 36.1467 112.96 44.3825 113H44.5294C55.2832 113 66.5945 107.098 78.1507 95.4586C109.766 63.6115 116.665 31.9903 111.256 26.5757C108.365 23.6829 105.337 24.6924 103.122 25.4325C100.862 26.1859 99.9823 26.3384 98.8391 25.1971C95.8013 22.1574 99.0915 16.5131 99.1235 16.4603C99.5681 15.7193 99.4514 14.7707 98.8403 14.1596C98.2292 13.5485 97.2806 13.4317 96.5395 13.8764C96.4811 13.9122 90.8217 17.176 87.8027 14.1608C86.6596 13.0157 86.8196 12.1268 87.5673 9.87807C88.3056 7.66515 89.317 4.63487 86.4241 1.74395C81.0152 -3.66499 49.3884 3.23366 17.5412 34.8417C5.84761 46.4581 -0.0528713 57.8183 -0.000137935 68.6173C0.0394121 76.8532 3.5104 84.3865 10.3168 91.0083L10.6369 91.3247ZM99.9182 29.7397L43.7478 85.9007C42.9483 86.66 41.6941 86.66 40.8946 85.9007C40.1074 85.1125 40.1074 83.8357 40.8946 83.0475L96.1327 27.8093C96.1482 27.8254 96.1626 27.8423 96.1761 27.8601C97.1603 28.9111 98.4873 29.5763 99.9182 29.7359V29.7397ZM83.2639 13.0854C83.4271 14.5158 84.0948 15.8413 85.1472 16.8238C85.165 16.8372 85.182 16.8517 85.1981 16.8671L29.9449 72.1053C29.4396 72.6378 28.6851 72.8542 27.9744 72.6702C27.2637 72.4863 26.7088 71.9311 26.5254 71.2203C26.3419 70.5095 26.5587 69.7551 27.0916 69.2502L83.2639 13.0854ZM20.1948 37.5235C52.4262 5.52757 81.2243 1.86825 83.7611 4.40698C84.3539 4.91389 84.6543 5.68347 84.5615 6.45793L24.4342 66.5852C22.1745 68.8444 22.1741 72.5077 24.4333 74.7674C26.6925 77.0271 30.3557 77.0275 32.6154 74.7683L88.5297 18.854C90.3775 19.345 92.3224 19.3379 94.1665 18.8333C93.661 20.6779 93.6532 22.6235 94.1439 24.472L38.2315 80.3844C36.0289 82.6535 36.0561 86.2707 38.2928 88.5063C40.5294 90.7418 44.1466 90.7674 46.4146 88.5637L106.544 28.4383C107.318 28.3453 108.088 28.6466 108.593 29.2406C111.135 31.7831 107.474 60.5774 75.4763 92.8069C64.6528 103.706 54.2399 109.233 44.5294 109.233H44.4013C37.2145 109.198 30.5814 106.111 24.6885 100.058L24.3382 99.6999C22.304 97.278 22.304 93.7447 24.3382 91.3228C24.8278 90.85 25.0241 90.1497 24.8518 89.4913C24.6794 88.8328 24.1652 88.3186 23.5067 88.1462C22.8482 87.9739 22.148 88.1702 21.6751 88.6598C19.2541 90.6944 15.721 90.6944 13.3 88.6598L12.9421 88.3095C6.8891 82.4184 3.80231 75.7853 3.76653 68.5985C3.71945 58.8485 9.24514 48.4017 20.1948 37.5235Z" fill="#252422"/>
<path d="M40.5332 29.6268C40.9407 29.6268 41.3372 29.4947 41.6632 29.2502C42.7631 28.4328 43.8523 27.6474 44.9308 26.8941C45.5113 26.5208 45.841 25.8598 45.7903 25.1716C45.7395 24.4833 45.3163 23.8779 44.6873 23.5938C44.0584 23.3096 43.3244 23.3923 42.7744 23.8092C41.6657 24.5814 40.5451 25.3887 39.4126 26.2312C38.7641 26.7176 38.4996 27.5644 38.7559 28.3334C39.0123 29.1024 39.732 29.6212 40.5426 29.6212L40.5332 29.6268Z" fill="#252422"/>
<path d="M35.6964 33.9508C36.47 33.2789 36.5645 32.1118 35.9091 31.3242C35.2537 30.5366 34.0889 30.4175 33.2876 31.0561C29.8091 33.9489 26.3608 37.0827 23.0404 40.388C12.9477 50.4092 7.82122 59.8428 7.80615 68.4327C7.80615 69.4729 8.64935 70.316 9.68949 70.316C10.7296 70.316 11.5728 69.4729 11.5728 68.4327C11.5841 60.8805 16.3377 52.3434 25.6978 43.0529C28.9372 39.8381 32.3027 36.7739 35.6964 33.9508Z" fill="#252422"/>
</g>
<defs>
<clipPath id="clip0">
<rect width="113" height="113" fill="white"/>
</clipPath>
</defs>
</svg>
