<svg width="157" height="152" viewBox="0 0 157 152" fill="none" xmlns="http://www.w3.org/2000/svg">
<g clip-path="url(#clip0)">
<path d="M10.0041 121.954L9.99692 121.952L9.98963 121.95C9.63435 121.853 9.35319 121.582 9.24351 121.23C9.16896 120.945 9.24727 120.641 9.451 120.427L9.4511 120.428L9.45892 120.419L10.3962 119.388C11.1157 120.037 12.1235 120.556 13.3062 120.93C14.7327 121.381 16.456 121.635 18.3397 121.635H18.3513L18.3628 121.634C18.4218 121.631 18.4803 121.624 18.5379 121.613C18.5954 121.624 18.6539 121.631 18.7128 121.634L18.7244 121.635H18.736C20.0065 121.635 21.1674 121.316 22.0267 120.763C22.8839 120.212 23.4881 119.39 23.4881 118.4C23.4881 117.411 22.8839 116.589 22.0267 116.037C21.1688 115.486 20.0104 115.167 18.7424 115.166C17.522 115.136 16.3207 115.473 15.2941 116.133L15.2842 116.14L15.2745 116.147C14.7428 116.526 14.6185 117.264 14.9967 117.796C15.3713 118.323 16.0988 118.451 16.6304 118.087C17.2583 117.703 17.9847 117.51 18.7206 117.533L18.7283 117.533H18.736C19.4934 117.533 20.1354 117.699 20.5713 117.92C20.7901 118.031 20.9402 118.147 21.0292 118.247C21.0729 118.296 21.0969 118.335 21.1092 118.363C21.1152 118.376 21.1181 118.385 21.1194 118.391C21.1208 118.397 21.1208 118.4 21.1208 118.4C21.1208 118.4 21.1208 118.403 21.1194 118.409C21.1181 118.415 21.1152 118.425 21.1092 118.438C21.0969 118.465 21.0729 118.504 21.0292 118.553C20.9402 118.653 20.7901 118.769 20.5713 118.88C20.1354 119.101 19.4934 119.268 18.736 119.268H18.7244L18.7128 119.268C18.6538 119.271 18.5954 119.278 18.5378 119.29C18.4803 119.278 18.4218 119.271 18.3629 119.268L18.3513 119.268H18.3397C16.319 119.268 14.5726 118.915 13.3484 118.421C12.7344 118.173 12.2734 117.898 11.975 117.632C11.6679 117.358 11.5932 117.15 11.5932 117.033C11.5932 116.916 11.6679 116.708 11.975 116.434C12.2734 116.168 12.7345 115.893 13.3484 115.645C14.5726 115.151 16.3191 114.798 18.3397 114.798C22.1844 114.798 25.807 117.379 27.5203 119.791L27.5309 119.806L27.5426 119.82C27.8238 120.16 27.9421 120.605 27.8677 121.039C27.7811 121.271 27.593 121.453 27.356 121.53L27.3393 121.536L27.3231 121.542L25.9413 122.105C25.9411 122.105 25.9408 122.105 25.9406 122.105C24.4889 122.69 22.8874 122.793 21.3728 122.398L20.8678 122.266C19.1398 121.813 17.3203 121.849 15.6116 122.37C14.2273 122.788 12.7504 122.788 11.366 122.37C11.3658 122.37 11.3655 122.37 11.3652 122.37L10.0041 121.954Z" fill="#252422" stroke="#FFFCF2"/>
<path d="M4.48337 125.657L4.49248 125.663C4.91272 125.954 5.41247 126.108 5.92346 126.104L5.92748 126.104V126.104H7.19062H7.19095V126.604C8.34405 126.603 9.48765 126.813 10.5655 127.222L4.48337 125.657ZM4.48337 125.657L4.47399 125.651C3.31983 124.926 2.93912 123.423 3.60675 122.236C3.9041 121.774 4.39351 121.471 4.93953 121.411L4.94694 121.41L4.95432 121.409L6.85126 121.141M4.48337 125.657L6.85126 121.141M6.85126 121.141C6.86051 121.384 6.89769 121.626 6.96257 121.863L6.96253 121.863L6.96439 121.869C7.29268 123.005 8.18125 123.893 9.31729 124.219L10.6758 124.635L10.6775 124.635C12.5113 125.188 14.4674 125.188 16.3011 124.635L16.3027 124.635C17.5918 124.241 18.9649 124.213 20.2686 124.555L20.269 124.556L20.7744 124.688L20.7748 124.688C22.7832 125.211 24.9067 125.075 26.8316 124.299L26.8331 124.298L28.2085 123.738C29.1346 123.394 29.8493 122.641 30.1433 121.698L30.1435 121.698L30.1472 121.685C30.1975 121.506 30.2322 121.324 30.2512 121.141L31.014 121.264L31.014 121.264L31.0189 121.265C32.2012 121.443 33.3106 121.947 34.2241 122.718L34.2318 122.725L34.2398 122.731C34.644 123.045 34.9043 123.509 34.9617 124.018C35.0184 124.521 34.8725 125.025 34.5569 125.419C34.5377 125.439 34.505 125.474 34.4818 125.5C33.4681 126.621 31.9091 127.073 30.4527 126.67L30.4527 126.67L30.4449 126.668L28.4157 126.142L28.4152 126.142C26.4721 125.64 24.4232 125.732 22.5329 126.406L22.5317 126.406L18.6328 127.807C18.6323 127.807 18.6318 127.807 18.6313 127.807C16.918 128.41 15.0474 128.391 13.3465 127.754L6.85126 121.141Z" fill="#252422" stroke="#FFFCF2"/>
<path d="M2.36688 126.945C2.59912 127.184 2.85283 127.402 3.12508 127.595L3.12507 127.595L3.12893 127.598C3.94997 128.171 4.92778 128.476 5.92872 128.471H7.19143H7.19177C8.1173 128.471 9.03511 128.639 9.90034 128.967C9.9006 128.967 9.90086 128.967 9.90112 128.967L12.5027 129.965L12.5027 129.965L12.5055 129.967C13.6445 130.396 14.8518 130.614 16.0689 130.612M2.36688 126.945L27.8212 128.433C26.3384 128.05 24.7748 128.12 23.3322 128.634C23.332 128.634 23.3318 128.634 23.3316 128.634L19.4306 130.035L19.4292 130.036C18.3506 130.42 17.2138 130.615 16.0689 130.612M2.36688 126.945C2.33013 126.966 2.29212 126.986 2.25297 127.004L2.00601 127.215L1.99745 127.223L1.98856 127.23C1.48678 127.622 1.1673 128.203 1.10424 128.837C1.04119 129.471 1.24007 130.103 1.65478 130.587L1.66233 130.595L1.66223 130.596L1.71141 130.656C2.53049 131.527 3.77175 131.861 4.91796 131.518L4.92738 131.515L4.92741 131.515C4.95 131.509 4.97312 131.503 4.99691 131.498C6.57185 131.059 8.26024 131.332 9.61741 132.244C9.61759 132.244 9.61777 132.245 9.61795 132.245L10.2596 132.673C10.2599 132.674 10.2602 132.674 10.2606 132.674C11.0595 133.202 12.0497 133.354 12.9701 133.089L12.9718 133.088C12.9944 133.082 13.0195 133.076 13.0465 133.07C14.6904 132.608 16.4558 132.929 17.8323 133.94C18.9459 134.743 19.6142 136.025 19.6344 137.398L19.6345 137.405H19.6344V138.902C19.6416 139.116 19.7419 139.316 19.9092 139.449L19.914 139.453L19.914 139.453C20.1746 139.666 20.5018 139.781 20.8383 139.777L20.8655 139.777L20.8925 139.779C21.4597 139.835 21.9688 139.436 22.0534 138.875V135.491V135.467L22.0559 135.442C22.1965 134.022 23.3907 132.94 24.8174 132.94C26.2441 132.94 27.4383 134.022 27.5789 135.442L27.5814 135.467V135.491V136.849C27.5829 136.871 27.5938 136.892 27.6115 136.905L27.6206 136.912L27.6293 136.92C27.7241 137.001 27.8451 137.044 27.9697 137.042L27.9996 137.042L28.0293 137.045C28.1884 137.061 28.3338 136.959 28.3747 136.808V133.632V133.621L28.3751 133.611C28.4175 132.587 29.2765 131.788 30.2999 131.819C30.4809 131.818 30.6613 131.843 30.8359 131.891L30.8438 131.893L30.8438 131.893C32.6155 132.414 34.5298 131.906 35.8093 130.575C36.2314 130.1 36.4454 129.476 36.4034 128.843C36.3521 128.342 36.1522 127.872 35.8344 127.491C34.2342 128.968 31.9761 129.534 29.8505 128.959C29.8497 128.959 29.8488 128.959 29.848 128.959L27.8216 128.433L2.36688 126.945ZM16.0689 130.612C16.0685 130.612 16.0682 130.612 16.0679 130.612L16.069 130.112L16.0699 130.612C16.0696 130.612 16.0692 130.612 16.0689 130.612Z" fill="#252422" stroke="#FFFCF2"/>
<path d="M13.5559 135.383C13.5791 135.378 13.605 135.372 13.6323 135.364L13.6323 135.364L13.6361 135.363C14.5878 135.079 15.6176 135.256 16.4202 135.841L16.4202 135.841L16.4291 135.847C16.9422 136.204 17.2534 136.786 17.2665 137.411L17.2665 138.91L17.2666 138.914C17.2741 139.824 17.6848 140.685 18.3878 141.263C19.0726 141.837 19.9389 142.149 20.8323 142.145C22.7015 142.237 24.3004 140.811 24.4191 138.942L24.4201 138.926V138.91V135.572C24.4861 135.414 24.6416 135.308 24.8167 135.308C24.9918 135.308 25.1474 135.414 25.2134 135.572L25.2134 136.859L25.2134 136.862C25.2183 137.578 25.5369 138.255 26.0847 138.715C26.6077 139.167 27.2773 139.415 27.9688 139.41C29.4271 139.469 30.6635 138.345 30.7406 136.885L30.7413 136.872V136.859V134.306C32.9916 134.772 35.3309 134.156 37.0581 132.648L37.6067 135.455C37.6068 135.455 37.6068 135.456 37.6069 135.456C38.1358 138.261 37.3613 141.154 35.5018 143.32C32.844 146.351 28.9853 148.056 24.9549 147.981V147.981H24.9456H13.3234V147.981L13.3124 147.981C9.36687 148.069 5.57788 146.439 2.92836 143.514C1.06305 141.44 0.207254 138.65 0.589294 135.887L0.99467 133.121C2.31728 133.98 3.95851 134.243 5.50416 133.812C5.53061 133.806 5.5575 133.8 5.58473 133.792C6.50459 133.527 7.49416 133.679 8.2924 134.207C8.29267 134.207 8.29295 134.207 8.29322 134.207L8.93515 134.636C8.93534 134.636 8.93553 134.637 8.93572 134.637C10.2928 135.549 11.981 135.822 13.5559 135.383Z" fill="#252422" stroke="#FFFCF2"/>
<path d="M48.2665 121.923L48.2737 121.925L49.6348 122.341C49.6349 122.341 49.6351 122.341 49.6353 122.341C51.0197 122.759 52.4967 122.759 53.8811 122.341C55.5897 121.821 57.4093 121.784 59.1372 122.237C59.1373 122.237 59.1373 122.237 59.1374 122.237L59.6423 122.369C61.1568 122.764 62.7583 122.662 64.21 122.076C64.2102 122.076 64.2105 122.076 64.2108 122.076L65.5926 121.514L65.6089 121.507L65.6255 121.501C65.8626 121.424 66.0506 121.243 66.1373 121.01C66.2116 120.576 66.0933 120.131 65.8121 119.791L65.8005 119.777L65.7898 119.762C64.0766 117.351 60.4539 114.77 56.6092 114.77C54.5886 114.77 52.8422 115.122 51.618 115.616C51.004 115.864 50.5429 116.139 50.2445 116.405C49.9374 116.679 49.8627 116.887 49.8627 117.004C49.8627 117.122 49.9374 117.329 50.2445 117.603C50.5429 117.869 51.004 118.144 51.6179 118.392C52.8421 118.886 54.5886 119.239 56.6092 119.239H56.6208L56.6324 119.239C56.6913 119.242 56.7498 119.249 56.8074 119.261C56.8649 119.249 56.9234 119.242 56.9824 119.239L56.9939 119.239H57.0055C57.7629 119.239 58.4049 119.072 58.8409 118.851C59.0596 118.74 59.2097 118.624 59.2988 118.524C59.3425 118.475 59.3664 118.436 59.3787 118.409C59.3847 118.396 59.3876 118.386 59.389 118.38C59.3903 118.374 59.3903 118.372 59.3903 118.371C59.3903 118.371 59.3903 118.368 59.389 118.362C59.3876 118.357 59.3847 118.347 59.3787 118.334C59.3664 118.307 59.3425 118.267 59.2988 118.218C59.2097 118.119 59.0596 118.002 58.8409 117.892C58.4049 117.67 57.7629 117.504 57.0055 117.504H56.9978L56.9901 117.504C56.2542 117.481 55.5278 117.674 54.8999 118.058C54.3684 118.422 53.6408 118.294 53.2662 117.767L48.2665 121.923ZM48.2665 121.923L48.2592 121.921M48.2665 121.923L48.2592 121.921M48.2592 121.921C47.9039 121.824 47.6227 121.553 47.513 121.202C47.4385 120.916 47.5168 120.612 47.7205 120.399L47.7206 120.399L47.7285 120.39L48.6657 119.359C49.3852 120.008 50.393 120.528 51.5757 120.902C53.0022 121.353 54.7255 121.606 56.6092 121.606H56.6208L56.6324 121.605C56.6914 121.603 56.7499 121.595 56.8074 121.584C56.8649 121.595 56.9234 121.603 56.9823 121.605L56.9939 121.606H57.0055C58.276 121.606 59.4369 121.287 60.2962 120.734C61.1534 120.183 61.7577 119.361 61.7577 118.371C61.7577 117.382 61.1534 116.56 60.2962 116.008C59.4384 115.457 58.2799 115.138 57.0119 115.137C55.7915 115.107 54.5902 115.444 53.5636 116.105L53.5537 116.111M48.2592 121.921L53.5537 116.111M53.5537 116.111L53.5441 116.118M53.5537 116.111L53.5441 116.118M53.5441 116.118C53.0123 116.497 52.888 117.235 53.2662 117.767L53.5441 116.118Z" fill="#252422" stroke="#FFFCF2"/>
<path d="M42.7529 125.628L42.762 125.635C43.1823 125.925 43.682 126.079 44.193 126.075L44.197 126.075V126.075H45.4602H45.4605V126.575C46.6136 126.574 47.7572 126.784 48.8351 127.194L42.7529 125.628ZM42.7529 125.628L42.7435 125.622C41.5894 124.897 41.2087 123.394 41.8763 122.207C42.1736 121.746 42.663 121.442 43.2091 121.382L43.2165 121.381L43.2239 121.38L45.1208 121.112M42.7529 125.628L45.1208 121.112M45.1208 121.112C45.13 121.355 45.1672 121.598 45.2321 121.834L45.2321 121.834L45.2339 121.84C45.5622 122.976 46.4508 123.864 47.5868 124.191L48.9454 124.606L48.9471 124.606C50.7808 125.159 52.7369 125.159 54.5706 124.606L54.5722 124.606C55.8613 124.212 57.2344 124.185 58.5382 124.527L58.5385 124.527L59.0439 124.659L59.0443 124.659C61.0527 125.182 63.1763 125.046 65.1011 124.27L65.1026 124.269L66.4781 123.709C67.4041 123.366 68.1189 122.612 68.4129 121.669L68.413 121.669L68.4168 121.656C68.467 121.477 68.5017 121.295 68.5207 121.112L69.2835 121.235L69.2835 121.235L69.2885 121.236C70.4707 121.415 71.5802 121.918 72.4936 122.689L72.5014 122.696L72.5093 122.702C72.9135 123.016 73.1738 123.48 73.2312 123.989C73.2879 124.492 73.1421 124.996 72.8264 125.391C72.8072 125.411 72.7745 125.445 72.7513 125.471C71.7376 126.592 70.1786 127.045 68.7222 126.642L68.7222 126.642L68.7144 126.64L66.6852 126.113L66.6847 126.113C64.7416 125.611 62.6927 125.703 60.8024 126.377L60.8012 126.377L56.9023 127.778C56.9018 127.778 56.9013 127.778 56.9008 127.778C55.1875 128.381 53.3169 128.362 51.616 127.725L45.1208 121.112Z" fill="#252422" stroke="#FFFCF2"/>
<path d="M40.6364 126.916C40.8686 127.155 41.1224 127.373 41.3946 127.567L41.3946 127.567L41.3985 127.569C42.2195 128.142 43.1973 128.447 44.1983 128.442H45.461H45.4613C46.3868 128.442 47.3046 128.61 48.1699 128.938C48.1701 128.938 48.1704 128.938 48.1707 128.939L50.7722 129.937L50.7722 129.937L50.7751 129.938C51.914 130.367 53.1213 130.586 54.3384 130.583M40.6364 126.916L66.0907 128.404C64.6079 128.021 63.0443 128.091 61.6017 128.605C61.6015 128.605 61.6014 128.605 61.6012 128.605L57.7001 130.007L57.6987 130.007C56.6201 130.391 55.4833 130.586 54.3384 130.583M40.6364 126.916C40.5997 126.938 40.5616 126.957 40.5225 126.975L40.2755 127.187L40.267 127.194L40.2581 127.201C39.7563 127.593 39.4368 128.174 39.3738 128.808C39.3107 129.442 39.5096 130.074 39.9243 130.558L39.9319 130.567L39.9318 130.567L39.9809 130.627C40.8 131.498 42.0413 131.832 43.1875 131.489L43.1969 131.486L43.1969 131.486C43.2195 131.48 43.2427 131.474 43.2664 131.469C44.8414 131.03 46.5298 131.303 47.8869 132.215C47.8871 132.216 47.8873 132.216 47.8875 132.216L48.5292 132.645C48.5295 132.645 48.5298 132.645 48.5301 132.645C49.3291 133.173 50.3192 133.325 51.2397 133.06L51.2413 133.06C51.2639 133.053 51.289 133.047 51.316 133.041C52.96 132.579 54.7253 132.9 56.1019 133.912C57.2154 134.714 57.8837 135.996 57.9039 137.369L57.904 137.377H57.904V138.873C57.9112 139.087 58.0115 139.287 58.1787 139.42L58.1835 139.424L58.1835 139.424C58.4441 139.637 58.7713 139.752 59.1079 139.748L59.135 139.748L59.1621 139.75C59.7292 139.806 60.2383 139.407 60.323 138.847V135.462V135.438L60.3254 135.413C60.4661 133.993 61.6603 132.912 63.0869 132.912C64.5136 132.912 65.7078 133.994 65.8484 135.413L65.8509 135.438V135.462V136.82C65.8525 136.842 65.8634 136.863 65.881 136.877L65.8901 136.884L65.8988 136.891C65.9936 136.972 66.1147 137.016 66.2392 137.014L66.2691 137.013L66.2988 137.016C66.4579 137.032 66.6033 136.93 66.6442 136.779V133.603V133.592L66.6446 133.582C66.687 132.558 67.546 131.759 68.5694 131.79C68.7505 131.79 68.9308 131.814 69.1054 131.862L69.1134 131.864L69.1133 131.864C70.8851 132.385 72.7994 131.877 74.0788 130.546C74.5009 130.071 74.7149 129.447 74.6729 128.814C74.6216 128.313 74.4217 127.844 74.104 127.462C72.5037 128.94 70.2456 129.505 68.1201 128.931C68.1192 128.93 68.1184 128.93 68.1175 128.93L66.0912 128.404L40.6364 126.916ZM54.3384 130.583C54.3381 130.583 54.3377 130.583 54.3374 130.583L54.3385 130.083L54.3395 130.583C54.3391 130.583 54.3388 130.583 54.3384 130.583Z" fill="#252422" stroke="#FFFCF2"/>
<path d="M51.8254 135.355C51.8487 135.35 51.8745 135.343 51.9018 135.335L51.9018 135.335L51.9056 135.334C52.8573 135.05 53.8871 135.227 54.6898 135.812L54.6897 135.812L54.6986 135.818C55.2117 136.176 55.523 136.757 55.5361 137.382L55.536 138.881L55.5361 138.885C55.5437 139.796 55.9543 140.656 56.6573 141.234C57.3422 141.808 58.2085 142.121 59.1018 142.116C60.971 142.209 62.5699 140.782 62.6886 138.913L62.6896 138.897V138.881V135.543C62.7557 135.385 62.9112 135.279 63.0863 135.279C63.2614 135.279 63.4169 135.385 63.4829 135.543L63.4829 136.83L63.4829 136.834C63.4878 137.549 63.8065 138.226 64.3543 138.686C64.8772 139.139 65.5469 139.386 66.2384 139.381C67.6966 139.44 68.933 138.316 69.0102 136.857L69.0109 136.843V136.83V134.277C71.2611 134.744 73.6004 134.127 75.3277 132.62L75.8762 135.426C75.8763 135.427 75.8764 135.427 75.8765 135.427C76.4053 138.232 75.6309 141.126 73.7714 143.291C71.1135 146.322 67.2549 148.027 63.2244 147.952V147.952H63.2151H51.593V147.952L51.5819 147.952C47.6364 148.04 43.8474 146.41 41.1979 143.485C39.3326 141.411 38.4768 138.621 38.8588 135.858L39.2642 133.092C40.5868 133.951 42.228 134.214 43.7737 133.783C43.8001 133.777 43.827 133.771 43.8543 133.763C44.7741 133.498 45.7637 133.65 46.5619 134.178C46.5622 134.178 46.5625 134.178 46.5628 134.179L47.2047 134.608C47.2049 134.608 47.2051 134.608 47.2053 134.608C48.5623 135.52 50.2506 135.793 51.8254 135.355Z" fill="#252422" stroke="#FFFCF2"/>
<path d="M28.8694 87.9678L28.8622 87.9656L28.8549 87.9636C28.4996 87.8667 28.2184 87.5954 28.1087 87.244C28.0342 86.9588 28.1125 86.6549 28.3162 86.4411L28.3163 86.4412L28.3242 86.4326L29.2614 85.402C29.9809 86.0508 30.9887 86.5701 32.1714 86.944C33.5979 87.3951 35.3212 87.6484 37.2049 87.6484H37.2165L37.2281 87.6479C37.2871 87.6452 37.3456 87.6379 37.4031 87.6264C37.4606 87.6379 37.5191 87.6452 37.578 87.6479L37.5896 87.6484H37.6012C38.8717 87.6484 40.0326 87.3293 40.8919 86.7767C41.7491 86.2255 42.3534 85.4034 42.3534 84.4139C42.3534 83.4243 41.7491 82.6022 40.8919 82.051C40.0341 81.4993 38.8756 81.1803 37.6076 81.1793C36.3872 81.1492 35.1859 81.4863 34.1593 82.1471L34.1494 82.1535L34.1398 82.1603C33.608 82.5393 33.4837 83.2774 33.8619 83.8096C34.2365 84.3369 34.9641 84.4649 35.4956 84.1004C36.1235 83.7162 36.8499 83.5236 37.5858 83.5463L37.5935 83.5465H37.6012C38.3586 83.5465 39.0006 83.7129 39.4366 83.934C39.6553 84.0449 39.8054 84.1611 39.8945 84.2608C39.9382 84.3098 39.9621 84.3491 39.9744 84.3762C39.9804 84.3894 39.9833 84.399 39.9847 84.4049C39.986 84.4108 39.986 84.4136 39.986 84.4139C39.986 84.4142 39.986 84.4169 39.9847 84.4228C39.9833 84.4287 39.9804 84.4383 39.9744 84.4515C39.9621 84.4786 39.9382 84.5179 39.8945 84.5669C39.8054 84.6666 39.6553 84.7828 39.4366 84.8937C39.0006 85.1148 38.3586 85.2812 37.6012 85.2812H37.5896L37.5781 85.2817C37.5191 85.2845 37.4606 85.2917 37.4031 85.3032C37.3455 85.2917 37.287 85.2845 37.2281 85.2817L37.2165 85.2812H37.2049C35.1843 85.2812 33.4378 84.9287 32.2136 84.4343C31.5997 84.1864 31.1386 83.9114 30.8402 83.6453C30.5331 83.3714 30.4584 83.164 30.4584 83.0466C30.4584 82.9292 30.5331 82.7218 30.8402 82.4479C31.1386 82.1818 31.5997 81.9068 32.2137 81.6589C33.4379 81.1644 35.1843 80.812 37.2049 80.812C41.0496 80.812 44.6722 83.3932 46.3855 85.8044L46.3961 85.8194L46.4078 85.8335C46.689 86.1735 46.8073 86.6187 46.733 87.0523C46.6463 87.285 46.4582 87.4663 46.2212 87.5439L46.2046 87.5494L46.1883 87.556L44.8065 88.1185C44.8062 88.1187 44.8059 88.1188 44.8057 88.1189C43.354 88.7041 41.7525 88.8067 40.238 88.4115L39.733 88.2794C38.005 87.8269 36.1853 87.863 34.4765 88.3838C33.0923 88.8017 31.6155 88.8017 30.2313 88.3839C30.231 88.3838 30.2307 88.3837 30.2305 88.3836L28.8694 87.9678Z" fill="#252422" stroke="#FFFCF2"/>
<path d="M23.3486 91.6707L23.3577 91.677C23.778 91.9678 24.2777 92.1217 24.7887 92.1176L24.7927 92.1176V92.1176H26.0559H26.0562V92.6176C27.2093 92.6168 28.3529 92.8264 29.4308 93.2361L23.3486 91.6707ZM23.3486 91.6707L23.3392 91.6648C22.1851 90.9396 21.8044 89.4363 22.472 88.2495C22.7693 87.7881 23.2587 87.4849 23.8048 87.4243L23.8122 87.4234L23.8196 87.4224L25.7165 87.1544M23.3486 91.6707L25.7165 87.1544M25.7165 87.1544C25.7257 87.3978 25.7629 87.6402 25.8278 87.8765L25.8278 87.8765L25.8296 87.883C26.1579 89.0188 27.0465 89.9063 28.1825 90.2331L29.5411 90.6482L29.5428 90.6487C31.3765 91.2019 33.3326 91.2019 35.1663 90.6487L35.1679 90.6482C36.457 90.2545 37.8301 90.2272 39.1339 90.5691L39.1342 90.5692L39.6396 90.7014L39.64 90.7015C41.6484 91.2249 43.772 91.0885 45.6968 90.3123L45.6983 90.3116L47.0738 89.7516C47.9998 89.4081 48.7146 88.6547 49.0086 87.7114L49.0087 87.7114L49.0125 87.6982C49.0627 87.5198 49.0975 87.3378 49.1164 87.1542L49.8793 87.2774L49.8793 87.2775L49.8842 87.2782C51.0664 87.4571 52.1759 87.9602 53.0894 88.7317L53.0971 88.7382L53.105 88.7444C53.5092 89.0588 53.7695 89.523 53.8269 90.0319C53.8836 90.5345 53.7378 91.0386 53.4221 91.433C53.403 91.453 53.3702 91.4875 53.3471 91.5139C52.3333 92.6342 50.7743 93.087 49.3179 92.6842L49.3179 92.6841L49.3101 92.6821L47.2809 92.1557L47.2804 92.1555C45.3373 91.6537 43.2884 91.7456 41.3981 92.4194L41.3969 92.4198L37.498 93.8204C37.4975 93.8205 37.497 93.8207 37.4966 93.8209C35.7832 94.4234 33.9126 94.4046 32.2117 93.7677L25.7165 87.1544Z" fill="#252422" stroke="#FFFCF2"/>
<path d="M34.9341 96.6259C33.717 96.628 32.5097 96.4092 31.3708 95.9803L31.3679 95.9792L31.3679 95.9792L28.7664 94.981C28.7661 94.9809 28.7658 94.9808 28.7656 94.9807C27.9003 94.6522 26.9825 94.4842 26.057 94.4848H26.0567H24.794C23.793 94.4893 22.8152 94.1844 21.9942 93.6118L21.9903 93.6092L21.9903 93.6091C21.7181 93.4155 21.4644 93.1976 21.2321 92.9586C21.1954 92.9801 21.1573 92.9997 21.1182 93.0172L20.8712 93.229L20.8627 93.2364L20.8538 93.2433C20.352 93.6359 20.0325 94.2165 19.9695 94.8505C19.9064 95.4844 20.1053 96.1166 20.52 96.6003L20.5276 96.6091L20.5275 96.6092L20.5766 96.6693C21.3957 97.5402 22.637 97.8743 23.7832 97.5313L23.7926 97.5284L23.7926 97.5285C23.8152 97.5223 23.8384 97.5165 23.8621 97.5113C25.4371 97.0727 27.1255 97.3453 28.4826 98.258C28.4828 98.2581 28.483 98.2582 28.4832 98.2583L29.1249 98.6871C29.1252 98.6873 29.1255 98.6875 29.1258 98.6877C29.9248 99.2157 30.9149 99.3674 31.8354 99.1026L31.837 99.1022C31.8596 99.0957 31.8847 99.0893 31.9117 99.0834C33.5557 98.6218 35.321 98.9426 36.6976 99.954C37.8111 100.757 38.4794 102.039 38.4996 103.412L38.4997 103.419H38.4997V104.916C38.5069 105.129 38.6072 105.329 38.7744 105.463L38.7793 105.466L38.7792 105.466C39.0398 105.68 39.367 105.794 39.7036 105.791L39.7307 105.79L39.7578 105.793C40.3249 105.848 40.834 105.449 40.9187 104.889V101.505V101.48L40.9211 101.456C41.0618 100.036 42.256 98.9542 43.6826 98.9542C45.1093 98.9542 46.3035 100.036 46.4442 101.456L46.4466 101.48V101.505V102.863C46.4482 102.885 46.4591 102.905 46.4767 102.919L46.4858 102.926L46.4945 102.934C46.5893 103.015 46.7104 103.058 46.8349 103.056L46.8648 103.055L46.8945 103.059C47.0536 103.075 47.199 102.973 47.2399 102.821V99.6452V99.6349L47.2403 99.6245C47.2827 98.6002 48.1417 97.8017 49.1651 97.8326C49.3462 97.832 49.5265 97.8562 49.7011 97.9044L49.7091 97.9066L49.709 97.9067C51.4808 98.428 53.3951 97.9194 54.6745 96.5883C55.0966 96.1139 55.3106 95.4899 55.2686 94.8563C55.2173 94.356 55.0174 93.8861 54.6997 93.5048C53.0994 94.982 50.8413 95.5477 48.7158 94.9731C48.7149 94.9729 48.7141 94.9727 48.7132 94.9724L46.6869 94.4468C46.6868 94.4468 46.6867 94.4468 46.6866 94.4467C45.2037 94.0637 43.6401 94.1336 42.1974 94.6475C42.1972 94.6476 42.1971 94.6477 42.1969 94.6477L38.2958 96.049L38.2944 96.0495C37.2158 96.4333 36.079 96.6283 34.9341 96.6259ZM34.9341 96.6259C34.9338 96.6259 34.9334 96.6259 34.9331 96.6259L34.9342 96.1259L34.9352 96.6259C34.9348 96.6259 34.9345 96.6259 34.9341 96.6259Z" fill="#252422" stroke="#FFFCF2"/>
<path d="M32.4212 101.397C32.4444 101.392 32.4702 101.386 32.4975 101.378L32.4975 101.378L32.5013 101.377C33.453 101.093 34.4828 101.269 35.2855 101.855L35.2854 101.855L35.2943 101.861C35.8074 102.218 36.1187 102.799 36.1318 103.424L36.1318 104.924L36.1318 104.928C36.1394 105.838 36.55 106.698 37.253 107.277C37.9379 107.851 38.8042 108.163 39.6975 108.158C41.5667 108.251 43.1656 106.825 43.2843 104.955L43.2854 104.939V104.924V101.586C43.3514 101.428 43.5069 101.322 43.682 101.322C43.8571 101.322 44.0126 101.428 44.0786 101.586L44.0786 102.873L44.0786 102.876C44.0835 103.592 44.4022 104.269 44.95 104.728C45.4729 105.181 46.1426 105.428 46.8341 105.424C48.2923 105.483 49.5287 104.358 49.6059 102.899L49.6066 102.886V102.873V100.32C51.8568 100.786 54.1961 100.17 55.9234 98.6621L56.4719 101.469C56.472 101.469 56.4721 101.469 56.4722 101.47C57.001 104.275 56.2266 107.168 54.3671 109.334C51.7092 112.364 47.8506 114.07 43.8201 113.995V113.995H43.8108H32.1887V113.995L32.1776 113.995C28.2321 114.082 24.4431 112.452 21.7936 109.527C19.9283 107.454 19.0725 104.663 19.4545 101.901L19.8599 99.1347C21.1825 99.9936 22.8237 100.256 24.3694 99.8256C24.3958 99.8199 24.4227 99.8132 24.45 99.8052C25.3698 99.5406 26.3594 99.6924 27.1576 100.221C27.1579 100.221 27.1582 100.221 27.1585 100.221L27.8004 100.65C27.8006 100.65 27.8008 100.65 27.801 100.65C29.158 101.563 30.8463 101.835 32.4212 101.397Z" fill="#252422" stroke="#FFFCF2"/>
</g>
<g clip-path="url(#clip1)">
<path d="M91.0041 45.9541L90.9969 45.9519L90.9896 45.95C90.6344 45.8531 90.3532 45.5817 90.2435 45.2304C90.169 44.9451 90.2473 44.6413 90.451 44.4274L90.4511 44.4275L90.4589 44.4189L91.3962 43.3883C92.1157 44.0372 93.1235 44.5564 94.3062 44.9304C95.7327 45.3814 97.456 45.6348 99.3397 45.6348H99.3513L99.3628 45.6342C99.4218 45.6315 99.4803 45.6243 99.5379 45.6127C99.5954 45.6243 99.6539 45.6315 99.7128 45.6342L99.7244 45.6348H99.736C101.007 45.6348 102.167 45.3157 103.027 44.7631C103.884 44.2118 104.488 43.3897 104.488 42.4002C104.488 41.4106 103.884 40.5886 103.027 40.0373C102.169 39.4856 101.01 39.1667 99.7424 39.1656C98.522 39.1355 97.3207 39.4726 96.2941 40.1334L96.2842 40.1398L96.2745 40.1467C95.7428 40.5257 95.6185 41.2637 95.9967 41.7959C96.3713 42.3233 97.0988 42.4512 97.6304 42.0867C98.2583 41.7025 98.9847 41.5099 99.7206 41.5326L99.7283 41.5329H99.736C100.493 41.5329 101.135 41.6992 101.571 41.9203C101.79 42.0313 101.94 42.1474 102.029 42.2472C102.073 42.2961 102.097 42.3354 102.109 42.3625C102.115 42.3758 102.118 42.3853 102.119 42.3913C102.121 42.3971 102.121 42.3999 102.121 42.4002C102.121 42.4005 102.121 42.4033 102.119 42.4091C102.118 42.4151 102.115 42.4246 102.109 42.4378C102.097 42.4649 102.073 42.5043 102.029 42.5532C101.94 42.6529 101.79 42.7691 101.571 42.88C101.135 43.1012 100.493 43.2675 99.736 43.2675H99.7244L99.7128 43.268C99.6538 43.2708 99.5954 43.278 99.5378 43.2895C99.4803 43.278 99.4218 43.2708 99.3629 43.268L99.3513 43.2675H99.3397C97.319 43.2675 95.5726 42.9151 94.3484 42.4207C93.7344 42.1727 93.2734 41.8977 92.975 41.6316C92.6679 41.3577 92.5932 41.1503 92.5932 41.0329C92.5932 40.9155 92.6679 40.7081 92.975 40.4343C93.2734 40.1682 93.7345 39.8932 94.3484 39.6452C95.5726 39.1508 97.3191 38.7983 99.3397 38.7983C103.184 38.7983 106.807 41.3795 108.52 43.7908L108.531 43.8057L108.543 43.8198C108.824 44.1598 108.942 44.605 108.868 45.0387C108.781 45.2713 108.593 45.4527 108.356 45.5303L108.339 45.5357L108.323 45.5423L106.941 46.1049C106.941 46.105 106.941 46.105 106.941 46.1051C105.489 46.6905 103.887 46.7931 102.373 46.3979L101.868 46.2658C100.14 45.8132 98.3203 45.8494 96.6116 46.3701C95.2273 46.788 93.7504 46.7881 92.366 46.3702C92.3658 46.3701 92.3655 46.37 92.3652 46.37L91.0041 45.9541Z" fill="#252422" stroke="#FFFCF2"/>
<path d="M85.4834 49.6571L85.4925 49.6634C85.9127 49.9542 86.4125 50.108 86.9235 50.1039L86.9275 50.1039V50.1039H88.1906H88.1909V50.6039C89.344 50.6032 90.4877 50.8128 91.5655 51.2225L85.4834 49.6571ZM85.4834 49.6571L85.474 49.6512C84.3198 48.9259 83.9391 47.4226 84.6067 46.2358C84.9041 45.7744 85.3935 45.4712 85.9395 45.4106L85.9469 45.4098L85.9543 45.4087L87.8513 45.1407M85.4834 49.6571L87.8513 45.1407M87.8513 45.1407C87.8605 45.3842 87.8977 45.6265 87.9626 45.8628L87.9625 45.8629L87.9644 45.8693C88.2927 47.0052 89.1812 47.8926 90.3173 48.2195L91.6758 48.6345L91.6775 48.635C93.5113 49.1882 95.4674 49.1882 97.3011 48.635L97.3027 48.6345C98.5918 48.2409 99.9649 48.2135 101.269 48.5555L101.269 48.5556L101.774 48.6878L101.775 48.6879C103.783 49.2113 105.907 49.0748 107.832 48.2986L107.833 48.2979L109.209 47.7379C110.135 47.3944 110.849 46.641 111.143 45.6977L111.144 45.6978L111.147 45.6846C111.198 45.5062 111.232 45.3242 111.251 45.1406L112.014 45.2638L112.014 45.2638L112.019 45.2645C113.201 45.4434 114.311 45.9465 115.224 46.7181L115.232 46.7246L115.24 46.7308C115.644 47.0451 115.904 47.5093 115.962 48.0183C116.018 48.5208 115.873 49.0249 115.557 49.4194C115.538 49.4393 115.505 49.4739 115.482 49.5002C114.468 50.6205 112.909 51.0734 111.453 50.6705L111.453 50.6704L111.445 50.6684L109.416 50.142L109.415 50.1419C107.472 49.64 105.423 49.732 103.533 50.4057L103.532 50.4061L99.6328 51.8067C99.6323 51.8069 99.6318 51.807 99.6313 51.8072C97.918 52.4098 96.0474 52.3909 94.3465 51.7541L87.8513 45.1407Z" fill="#252422" stroke="#FFFCF2"/>
<path d="M83.3669 50.9449C83.5991 51.184 83.8528 51.4018 84.1251 51.5955L84.1251 51.5955L84.1289 51.5982C84.95 52.1708 85.9278 52.4757 86.9287 52.4712H88.1914H88.1918C89.1173 52.4705 90.0351 52.6386 90.9003 52.967C90.9006 52.9671 90.9009 52.9672 90.9011 52.9673L93.5027 53.9655L93.5027 53.9655L93.5055 53.9666C94.6445 54.3955 95.8518 54.6144 97.0689 54.6122M83.3669 50.9449L108.821 52.433C107.338 52.05 105.775 52.12 104.332 52.6339C104.332 52.6339 104.332 52.634 104.332 52.634L100.431 54.0353L100.429 54.0358C99.3506 54.4197 98.2138 54.6147 97.0689 54.6122M83.3669 50.9449C83.3301 50.9664 83.2921 50.986 83.253 51.0035L83.006 51.2154L82.9974 51.2227L82.9886 51.2297C82.4868 51.6223 82.1673 52.2028 82.1042 52.8368C82.0412 53.4708 82.2401 54.1029 82.6548 54.5866L82.6623 54.5954L82.6622 54.5955L82.7114 54.6557C83.5305 55.5265 84.7717 55.8606 85.918 55.5176L85.9274 55.5148L85.9274 55.5149C85.95 55.5086 85.9731 55.5028 85.9969 55.4976C87.5719 55.0591 89.2602 55.3316 90.6174 56.2443C90.6176 56.2444 90.6178 56.2445 90.6179 56.2447L91.2596 56.6734C91.2599 56.6736 91.2602 56.6738 91.2606 56.674C92.0595 57.2021 93.0497 57.3537 93.9701 57.089L93.9718 57.0885C93.9944 57.0821 94.0195 57.0756 94.0465 57.0697C95.6904 56.6081 97.4558 56.929 98.8323 57.9403C99.9459 58.7431 100.614 60.0253 100.634 61.398L100.635 61.4053H100.634V62.9022C100.642 63.1158 100.742 63.3156 100.909 63.4489L100.914 63.4528L100.914 63.4528C101.175 63.6659 101.502 63.7806 101.838 63.7769L101.866 63.7766L101.893 63.7792C102.46 63.8346 102.969 63.4357 103.053 62.8755V59.4913V59.4666L103.056 59.442C103.197 58.0222 104.391 56.9405 105.817 56.9405C107.244 56.9405 108.438 58.0223 108.579 59.442L108.581 59.4665V59.4913V60.8489C108.583 60.871 108.594 60.8916 108.612 60.9053L108.621 60.9124L108.629 60.9198C108.724 61.0008 108.845 61.0444 108.97 61.0423L109 61.0418L109.029 61.0449C109.188 61.0613 109.334 60.9591 109.375 60.8076V57.6315V57.6212L109.375 57.6109C109.418 56.5865 110.276 55.788 111.3 55.8189C111.481 55.8183 111.661 55.8425 111.836 55.8908L111.844 55.893L111.844 55.893C113.616 56.4143 115.53 55.9057 116.809 54.5746C117.231 54.1002 117.445 53.4763 117.403 52.8427C117.352 52.3423 117.152 51.8724 116.834 51.4911C115.234 52.9684 112.976 53.534 110.851 52.9594C110.85 52.9592 110.849 52.959 110.848 52.9587L108.822 52.4331L83.3669 50.9449ZM97.0689 54.6122C97.0685 54.6122 97.0682 54.6122 97.0679 54.6122L97.069 54.1122L97.0699 54.6122C97.0696 54.6122 97.0692 54.6122 97.0689 54.6122Z" fill="#252422" stroke="#FFFCF2"/>
<path d="M94.5559 59.3834C94.5791 59.3784 94.605 59.3722 94.6323 59.3643L94.6323 59.3643L94.6361 59.3632C95.5878 59.0791 96.6176 59.2558 97.4202 59.8409L97.4202 59.841L97.4291 59.8472C97.9422 60.2044 98.2534 60.7856 98.2665 61.4106L98.2665 62.9098L98.2666 62.914C98.2741 63.8244 98.6848 64.6846 99.3878 65.263C100.073 65.8371 100.939 66.1494 101.832 66.1446C103.701 66.2375 105.3 64.8113 105.419 62.9416L105.42 62.9258V62.9099V59.5722C105.486 59.4138 105.642 59.308 105.817 59.308C105.992 59.308 106.147 59.4138 106.213 59.5722L106.213 60.859L106.213 60.8624C106.218 61.5779 106.537 62.2549 107.085 62.7147C107.608 63.1673 108.277 63.4145 108.969 63.4101C110.427 63.4692 111.664 62.3446 111.741 60.8854L111.741 60.8722V60.859V58.3058C113.992 58.7724 116.331 58.1562 118.058 56.6484L118.607 59.4549C118.607 59.4553 118.607 59.4558 118.607 59.4563C119.136 62.2612 118.361 65.1544 116.502 67.32C113.844 70.3507 109.985 72.0561 105.955 71.9812V71.9811H105.946H94.3234V71.981L94.3124 71.9813C90.3669 72.0687 86.5779 70.4385 83.9284 67.5137C82.0631 65.4403 81.2073 62.6497 81.5893 59.8871L81.9947 57.121C83.3173 57.98 84.9585 58.2427 86.5042 57.8119C86.5306 57.8063 86.5575 57.7995 86.5847 57.7915C87.5046 57.5269 88.4942 57.6787 89.2924 58.2069C89.2927 58.2071 89.2929 58.2072 89.2932 58.2074L89.9352 58.6364C89.9353 58.6365 89.9355 58.6366 89.9357 58.6367C91.2928 59.5491 92.981 59.8218 94.5559 59.3834Z" fill="#252422" stroke="#FFFCF2"/>
<path d="M129.266 45.9231L129.274 45.9253L130.635 46.3411C130.635 46.3412 130.635 46.3413 130.635 46.3413C132.02 46.7593 133.497 46.7593 134.881 46.3413C136.59 45.8206 138.409 45.7844 140.137 46.2369C140.137 46.2369 140.137 46.2369 140.137 46.237L140.642 46.369C142.157 46.7643 143.758 46.6617 145.21 46.0764C145.21 46.0763 145.211 46.0762 145.211 46.0761L146.593 45.5135L146.609 45.5069L146.626 45.5015C146.863 45.4238 147.051 45.2425 147.137 45.0098C147.212 44.5762 147.093 44.131 146.812 43.791L146.8 43.7769L146.79 43.762C145.077 41.3507 141.454 38.7695 137.609 38.7695C135.589 38.7695 133.842 39.122 132.618 39.6164C132.004 39.8644 131.543 40.1394 131.245 40.4054C130.937 40.6793 130.863 40.8867 130.863 41.0041C130.863 41.1215 130.937 41.3289 131.245 41.6028C131.543 41.8689 132.004 42.1439 132.618 42.3919C133.842 42.8863 135.589 43.2387 137.609 43.2387H137.621L137.632 43.2392C137.691 43.242 137.75 43.2492 137.807 43.2607C137.865 43.2492 137.923 43.242 137.982 43.2392L137.994 43.2387H138.006C138.763 43.2387 139.405 43.0724 139.841 42.8512C140.06 42.7403 140.21 42.6241 140.299 42.5244C140.342 42.4754 140.366 42.4361 140.379 42.409C140.385 42.3958 140.388 42.3862 140.389 42.3803C140.39 42.3745 140.39 42.3717 140.39 42.3714C140.39 42.3711 140.39 42.3683 140.389 42.3625C140.388 42.3565 140.385 42.3469 140.379 42.3337C140.366 42.3066 140.342 42.2673 140.299 42.2184C140.21 42.1186 140.06 42.0025 139.841 41.8915C139.405 41.6704 138.763 41.504 138.006 41.504H137.998L137.99 41.5038C137.254 41.4811 136.528 41.6737 135.9 42.0579C135.368 42.4224 134.641 42.2945 134.266 41.7671L129.266 45.9231ZM129.266 45.9231L129.259 45.9211M129.266 45.9231L129.259 45.9211M129.259 45.9211C128.904 45.8242 128.623 45.5529 128.513 45.2016C128.438 44.9163 128.517 44.6125 128.721 44.3986L128.721 44.3987L128.728 44.3901L129.666 43.3595C130.385 44.0084 131.393 44.5276 132.576 44.9016C134.002 45.3526 135.726 45.606 137.609 45.606H137.621L137.632 45.6054C137.691 45.6027 137.75 45.5955 137.807 45.5839C137.865 45.5955 137.923 45.6027 137.982 45.6054L137.994 45.606H138.006C139.276 45.606 140.437 45.2869 141.296 44.7343C142.153 44.183 142.758 43.3609 142.758 42.3714C142.758 41.3818 142.153 40.5598 141.296 40.0085C140.438 39.4568 139.28 39.1379 138.012 39.1368C136.792 39.1067 135.59 39.4438 134.564 40.1046L134.554 40.111M129.259 45.9211L134.554 40.111M134.554 40.111L134.544 40.1179M134.554 40.111L134.544 40.1179M134.544 40.1179C134.012 40.4968 133.888 41.2348 134.266 41.7671L134.544 40.1179Z" fill="#252422" stroke="#FFFCF2"/>
<path d="M123.753 49.6282L123.762 49.6345C124.182 49.9254 124.682 50.0792 125.193 50.0751L125.197 50.0751V50.0751H126.46H126.46V50.5751C127.614 50.5744 128.757 50.784 129.835 51.1936L123.753 49.6282ZM123.753 49.6282L123.744 49.6223C122.589 48.8971 122.209 47.3938 122.876 46.207C123.174 45.7456 123.663 45.4424 124.209 45.3818L124.216 45.381L124.224 45.3799L126.121 45.1119M123.753 49.6282L126.121 45.1119M126.121 45.1119C126.13 45.3554 126.167 45.5977 126.232 45.834L126.232 45.834L126.234 45.8405C126.562 46.9764 127.451 47.8638 128.587 48.1907L129.945 48.6057L129.947 48.6062C131.781 49.1594 133.737 49.1594 135.571 48.6062L135.572 48.6057C136.861 48.212 138.234 48.1847 139.538 48.5267L139.538 48.5267L140.044 48.6589L140.044 48.6591C142.053 49.1825 144.176 49.046 146.101 48.2698L146.103 48.2691L147.478 47.7091C148.404 47.3656 149.119 46.6122 149.413 45.6689L149.413 45.669L149.417 45.6557C149.467 45.4774 149.502 45.2954 149.521 45.1118L150.284 45.2349L150.284 45.235L150.288 45.2357C151.471 45.4146 152.58 45.9177 153.494 46.6893L153.501 46.6958L153.509 46.702C153.914 47.0163 154.174 47.4805 154.231 47.9895C154.288 48.492 154.142 48.9961 153.826 49.3905C153.807 49.4106 153.774 49.4451 153.751 49.4714C152.738 50.5917 151.179 51.0446 149.722 50.6417L149.722 50.6416L149.714 50.6396L147.685 50.1132L147.685 50.1131C145.742 49.6112 143.693 49.7031 141.802 50.3769L141.801 50.3773L137.902 51.7779C137.902 51.7781 137.901 51.7782 137.901 51.7784C136.187 52.381 134.317 52.3621 132.616 51.7252L126.121 45.1119Z" fill="#252422" stroke="#FFFCF2"/>
<path d="M121.636 50.9161C121.869 51.1552 122.122 51.373 122.395 51.5667L122.395 51.5667L122.398 51.5694C123.219 52.1419 124.197 52.4469 125.198 52.4424H126.461H126.461C127.387 52.4417 128.305 52.6098 129.17 52.9382C129.17 52.9383 129.17 52.9384 129.171 52.9385L131.772 53.9367L131.772 53.9367L131.775 53.9378C132.914 54.3667 134.121 54.5855 135.338 54.5834M121.636 50.9161L147.091 52.4042C145.608 52.0212 144.044 52.0912 142.602 52.605C142.602 52.6051 142.601 52.6052 142.601 52.6052L138.7 54.0065L138.699 54.007C137.62 54.3909 136.483 54.5859 135.338 54.5834M121.636 50.9161C121.6 50.9376 121.562 50.9572 121.522 50.9747L121.276 51.1866L121.267 51.1939L121.258 51.2009C120.756 51.5934 120.437 52.174 120.374 52.808C120.311 53.442 120.51 54.0741 120.924 54.5578L120.932 54.5666L120.932 54.5667L120.981 54.6269C121.8 55.4977 123.041 55.8318 124.187 55.4888L124.197 55.486L124.197 55.486C124.22 55.4798 124.243 55.474 124.266 55.4688C125.841 55.0303 127.53 55.3028 128.887 56.2155C128.887 56.2156 128.887 56.2157 128.887 56.2159L129.529 56.6446C129.529 56.6448 129.53 56.645 129.53 56.6452C130.329 57.1733 131.319 57.3249 132.24 57.0601L132.241 57.0597C132.264 57.0533 132.289 57.0468 132.316 57.0409C133.96 56.5793 135.725 56.9002 137.102 57.9115C138.215 58.7143 138.884 59.9964 138.904 61.3692L138.904 61.3765H138.904V62.8734C138.911 63.0869 139.011 63.2868 139.179 63.4201L139.184 63.424L139.184 63.424C139.444 63.6371 139.771 63.7518 140.108 63.7481L140.135 63.7478L140.162 63.7504C140.729 63.8058 141.238 63.4069 141.323 62.8467V59.4624V59.4377L141.325 59.4132C141.466 57.9934 142.66 56.9117 144.087 56.9117C145.514 56.9117 146.708 57.9935 146.848 59.4132L146.851 59.4377V59.4624V60.8201C146.852 60.8422 146.863 60.8628 146.881 60.8765L146.89 60.8836L146.899 60.891C146.994 60.972 147.115 61.0156 147.239 61.0135L147.269 61.013L147.299 61.0161C147.458 61.0325 147.603 60.9303 147.644 60.7788V57.6027V57.5924L147.645 57.582C147.687 56.5577 148.546 55.7592 149.569 55.7901C149.75 55.7895 149.931 55.8137 150.105 55.862L150.113 55.8642L150.113 55.8642C151.885 56.3855 153.799 55.8769 155.079 54.5458C155.501 54.0714 155.715 53.4474 155.673 52.8139C155.622 52.3135 155.422 51.8436 155.104 51.4623C153.504 52.9396 151.246 53.5052 149.12 52.9306C149.119 52.9304 149.118 52.9302 149.118 52.9299L147.091 52.4043L121.636 50.9161ZM135.338 54.5834C135.338 54.5834 135.338 54.5834 135.337 54.5834L135.339 54.0834L135.339 54.5834C135.339 54.5834 135.339 54.5834 135.338 54.5834Z" fill="#252422" stroke="#FFFCF2"/>
<path d="M132.825 59.3546C132.849 59.3496 132.875 59.3434 132.902 59.3355L132.902 59.3355L132.906 59.3343C133.857 59.0503 134.887 59.227 135.69 59.8121L135.69 59.8122L135.699 59.8184C136.212 60.1756 136.523 60.7568 136.536 61.3818L136.536 62.881L136.536 62.8852C136.544 63.7956 136.954 64.6558 137.657 65.2342C138.342 65.8082 139.208 66.1206 140.102 66.1158C141.971 66.2086 143.57 64.7825 143.689 62.9128L143.69 62.897V62.8811V59.5433C143.756 59.385 143.911 59.2792 144.086 59.2792C144.261 59.2792 144.417 59.385 144.483 59.5433L144.483 60.8302L144.483 60.8336C144.488 61.5491 144.806 62.2261 145.354 62.6859C145.877 63.1385 146.547 63.3857 147.238 63.3813C148.697 63.4404 149.933 62.3158 150.01 60.8566L150.011 60.8434V60.8302V58.277C152.261 58.7436 154.6 58.1274 156.328 56.6196L156.876 59.4261C156.876 59.4265 156.876 59.427 156.876 59.4275C157.405 62.2324 156.631 65.1256 154.771 67.2912C152.113 70.3219 148.255 72.0273 144.224 71.9524V71.9523H144.215H132.593V71.9522L132.582 71.9524C128.636 72.0399 124.847 70.4097 122.198 67.4849C120.333 65.4115 119.477 62.6209 119.859 59.8583L120.264 57.0922C121.587 57.9512 123.228 58.2139 124.774 57.7831C124.8 57.7775 124.827 57.7707 124.854 57.7627C125.774 57.4981 126.764 57.6499 127.562 58.1781C127.562 58.1783 127.562 58.1784 127.563 58.1786L128.205 58.6075C128.205 58.6077 128.205 58.6078 128.205 58.6079C129.562 59.5203 131.251 59.793 132.825 59.3546Z" fill="#252422" stroke="#FFFCF2"/>
<path d="M109.869 11.9678L109.862 11.9656L109.855 11.9636C109.5 11.8667 109.218 11.5954 109.109 11.244C109.034 10.9588 109.113 10.6549 109.316 10.4411L109.316 10.4412L109.324 10.4326L110.261 9.40197C110.981 10.0508 111.989 10.5701 113.171 10.944C114.598 11.3951 116.321 11.6484 118.205 11.6484H118.217L118.228 11.6479C118.287 11.6452 118.346 11.6379 118.403 11.6264C118.461 11.6379 118.519 11.6452 118.578 11.6479L118.59 11.6484H118.601C119.872 11.6484 121.033 11.3293 121.892 10.7767C122.749 10.2255 123.353 9.40341 123.353 8.41385C123.353 7.42429 122.749 6.60223 121.892 6.05096C121.034 5.49929 119.876 5.18034 118.608 5.17927C117.387 5.14918 116.186 5.48631 115.159 6.14708L115.149 6.15348L115.14 6.16034C114.608 6.53933 114.484 7.27735 114.862 7.8096C115.237 8.33694 115.964 8.46489 116.496 8.10039C117.124 7.71618 117.85 7.52357 118.586 7.54628L118.594 7.54652H118.601C119.359 7.54652 120.001 7.71287 120.437 7.934C120.655 8.04495 120.805 8.16112 120.894 8.26084C120.938 8.30978 120.962 8.34911 120.974 8.37621C120.98 8.38942 120.983 8.39898 120.985 8.40494C120.986 8.41076 120.986 8.41355 120.986 8.41385C120.986 8.41415 120.986 8.41694 120.985 8.42277C120.983 8.42872 120.98 8.43828 120.974 8.4515C120.962 8.47859 120.938 8.51792 120.894 8.56687C120.805 8.66659 120.655 8.78276 120.437 8.8937C120.001 9.11483 119.359 9.28118 118.601 9.28118H118.59L118.578 9.28172C118.519 9.28445 118.461 9.29167 118.403 9.30322C118.346 9.29167 118.287 9.28446 118.228 9.28172L118.217 9.28118H118.205C116.184 9.28118 114.438 8.92875 113.214 8.43434C112.6 8.18636 112.139 7.91136 111.84 7.64527C111.533 7.37141 111.458 7.164 111.458 7.0466C111.458 6.9292 111.533 6.72179 111.84 6.44793C112.139 6.18184 112.6 5.90683 113.214 5.65886C114.438 5.16445 116.184 4.81201 118.205 4.81201C122.05 4.81201 125.672 7.39316 127.386 9.80444L127.396 9.81937L127.408 9.83349C127.689 10.1735 127.807 10.6187 127.733 11.0523C127.646 11.285 127.458 11.4663 127.221 11.5439L127.205 11.5494L127.188 11.556L125.807 12.1185C125.806 12.1187 125.806 12.1188 125.806 12.1189C124.354 12.7041 122.753 12.8067 121.238 12.4115L120.733 12.2794C119.005 11.8269 117.185 11.863 115.477 12.3838C114.092 12.8017 112.615 12.8017 111.231 12.3839C111.231 12.3838 111.231 12.3837 111.23 12.3836L109.869 11.9678Z" fill="#252422" stroke="#FFFCF2"/>
<path d="M104.349 15.6707L104.358 15.677C104.778 15.9678 105.278 16.1217 105.789 16.1176L105.793 16.1176V16.1176H107.056H107.056V16.6176C108.209 16.6168 109.353 16.8264 110.431 17.2361L104.349 15.6707ZM104.349 15.6707L104.339 15.6648C103.185 14.9396 102.804 13.4363 103.472 12.2495C103.769 11.7881 104.259 11.4849 104.805 11.4243L104.812 11.4234L104.82 11.4224L106.716 11.1544M104.349 15.6707L106.716 11.1544M106.716 11.1544C106.726 11.3978 106.763 11.6402 106.828 11.8765L106.828 11.8765L106.83 11.883C107.158 13.0188 108.046 13.9063 109.183 14.2331L110.541 14.6482L110.543 14.6487C112.376 15.2019 114.333 15.2019 116.166 14.6487L116.168 14.6482C117.457 14.2545 118.83 14.2272 120.134 14.5691L120.134 14.5692L120.64 14.7014L120.64 14.7015C122.648 15.2249 124.772 15.0885 126.697 14.3123L126.698 14.3116L128.074 13.7516C129 13.4081 129.715 12.6547 130.009 11.7114L130.009 11.7114L130.012 11.6982C130.063 11.5198 130.097 11.3378 130.116 11.1542L130.879 11.2774L130.879 11.2775L130.884 11.2782C132.066 11.4571 133.176 11.9602 134.089 12.7317L134.097 12.7382L134.105 12.7444C134.509 13.0588 134.77 13.523 134.827 14.0319C134.884 14.5345 134.738 15.0386 134.422 15.433C134.403 15.453 134.37 15.4875 134.347 15.5139C133.333 16.6342 131.774 17.087 130.318 16.6842L130.318 16.6841L130.31 16.6821L128.281 16.1557L128.28 16.1555C126.337 15.6537 124.288 15.7456 122.398 16.4194L122.397 16.4198L118.498 17.8204C118.498 17.8205 118.497 17.8207 118.497 17.8209C116.783 18.4234 114.913 18.4046 113.212 17.7677L106.716 11.1544Z" fill="#252422" stroke="#FFFCF2"/>
<path d="M115.934 20.6259C114.717 20.628 113.51 20.4092 112.371 19.9803L112.368 19.9792L112.368 19.9792L109.766 18.981C109.766 18.9809 109.766 18.9808 109.766 18.9807C108.9 18.6522 107.983 18.4842 107.057 18.4848H107.057H105.794C104.793 18.4893 103.815 18.1844 102.994 17.6118L102.99 17.6092L102.99 17.6091C102.718 17.4155 102.464 17.1976 102.232 16.9586C102.195 16.9801 102.157 16.9997 102.118 17.0172L101.871 17.229L101.863 17.2364L101.854 17.2433C101.352 17.6359 101.033 18.2165 100.969 18.8505C100.906 19.4844 101.105 20.1166 101.52 20.6003L101.528 20.6091L101.527 20.6092L101.577 20.6693C102.396 21.5402 103.637 21.8743 104.783 21.5313L104.793 21.5284L104.793 21.5285C104.815 21.5223 104.838 21.5165 104.862 21.5113C106.437 21.0727 108.125 21.3453 109.483 22.258C109.483 22.2581 109.483 22.2582 109.483 22.2583L110.125 22.6871C110.125 22.6873 110.125 22.6875 110.126 22.6877C110.925 23.2157 111.915 23.3674 112.835 23.1026L112.837 23.1022C112.86 23.0957 112.885 23.0893 112.912 23.0834C114.556 22.6218 116.321 22.9426 117.698 23.954C118.811 24.7568 119.479 26.0389 119.5 27.4117L119.5 27.419H119.5V28.9159C119.507 29.1294 119.607 29.3293 119.774 29.4626L119.779 29.4665L119.779 29.4665C120.04 29.6796 120.367 29.7943 120.704 29.7905L120.731 29.7902L120.758 29.7929C121.325 29.8483 121.834 29.4494 121.919 28.8892V25.5049V25.4802L121.921 25.4556C122.062 24.0359 123.256 22.9542 124.683 22.9542C126.109 22.9542 127.304 24.036 127.444 25.4556L127.447 25.4802V25.5049V26.8626C127.448 26.8847 127.459 26.9053 127.477 26.919L127.486 26.9261L127.495 26.9335C127.589 27.0145 127.71 27.0581 127.835 27.056L127.865 27.0555L127.895 27.0586C128.054 27.075 128.199 26.9728 128.24 26.8213V23.6452V23.6349L128.24 23.6245C128.283 22.6002 129.142 21.8017 130.165 21.8326C130.346 21.832 130.527 21.8562 130.701 21.9044L130.709 21.9066L130.709 21.9067C132.481 22.428 134.395 21.9194 135.674 20.5883C136.097 20.1139 136.311 19.4899 136.269 18.8563C136.217 18.356 136.017 17.8861 135.7 17.5048C134.099 18.982 131.841 19.5477 129.716 18.9731C129.715 18.9729 129.714 18.9727 129.713 18.9724L127.687 18.4468C127.687 18.4468 127.687 18.4468 127.687 18.4467C126.204 18.0637 124.64 18.1336 123.197 18.6475C123.197 18.6476 123.197 18.6477 123.197 18.6477L119.296 20.049L119.294 20.0495C118.216 20.4333 117.079 20.6283 115.934 20.6259ZM115.934 20.6259C115.934 20.6259 115.933 20.6259 115.933 20.6259L115.934 20.1259L115.935 20.6259C115.935 20.6259 115.934 20.6259 115.934 20.6259Z" fill="#252422" stroke="#FFFCF2"/>
<path d="M113.421 25.3971C113.444 25.3921 113.47 25.3858 113.497 25.3779L113.497 25.378L113.501 25.3768C114.453 25.0928 115.483 25.2695 116.285 25.8546L116.285 25.8547L116.294 25.8609C116.807 26.2181 117.119 26.7993 117.132 27.4243L117.132 28.9235L117.132 28.9277C117.139 29.8381 117.55 30.6983 118.253 31.2767C118.938 31.8507 119.804 32.1631 120.697 32.1583C122.567 32.2511 124.166 30.8249 124.284 28.9553L124.285 28.9394V28.9236V25.5858C124.351 25.4275 124.507 25.3217 124.682 25.3217C124.857 25.3217 125.013 25.4275 125.079 25.5858L125.079 26.8727L125.079 26.8761C125.083 27.5915 125.402 28.2686 125.95 28.7284C126.473 29.181 127.143 29.4282 127.834 29.4237C129.292 29.4829 130.529 28.3583 130.606 26.899L130.607 26.8859V26.8727V24.3195C132.857 24.7861 135.196 24.1699 136.923 22.6621L137.472 25.4685C137.472 25.469 137.472 25.4695 137.472 25.47C138.001 28.2749 137.227 31.1681 135.367 33.3337C132.709 36.3644 128.851 38.0698 124.82 37.9949V37.9948H124.811H113.189V37.9947L113.178 37.9949C109.232 38.0823 105.443 36.4522 102.794 33.5274C100.928 31.4539 100.072 28.6634 100.455 25.9007L100.86 23.1347C102.183 23.9936 103.824 24.2564 105.369 23.8256C105.396 23.8199 105.423 23.8132 105.45 23.8052C106.37 23.5406 107.359 23.6924 108.158 24.2206C108.158 24.2207 108.158 24.2209 108.158 24.2211L108.8 24.65C108.801 24.6502 108.801 24.6503 108.801 24.6504C110.158 25.5628 111.846 25.8355 113.421 25.3971Z" fill="#252422" stroke="#FFFCF2"/>
</g>
<g clip-path="url(#clip2)">
<path d="M91.0041 121.954L90.9969 121.952L90.9896 121.95C90.6344 121.853 90.3532 121.582 90.2435 121.23C90.169 120.945 90.2473 120.641 90.451 120.427L90.4511 120.428L90.4589 120.419L91.3962 119.388C92.1157 120.037 93.1235 120.556 94.3062 120.93C95.7327 121.381 97.456 121.635 99.3397 121.635H99.3513L99.3628 121.634C99.4218 121.631 99.4803 121.624 99.5379 121.613C99.5954 121.624 99.6539 121.631 99.7128 121.634L99.7244 121.635H99.736C101.007 121.635 102.167 121.316 103.027 120.763C103.884 120.212 104.488 119.39 104.488 118.4C104.488 117.411 103.884 116.589 103.027 116.037C102.169 115.486 101.01 115.167 99.7424 115.166C98.522 115.136 97.3207 115.473 96.2941 116.133L96.2842 116.14L96.2745 116.147C95.7428 116.526 95.6185 117.264 95.9967 117.796C96.3713 118.323 97.0988 118.451 97.6304 118.087C98.2583 117.703 98.9847 117.51 99.7206 117.533L99.7283 117.533H99.736C100.493 117.533 101.135 117.699 101.571 117.92C101.79 118.031 101.94 118.147 102.029 118.247C102.073 118.296 102.097 118.335 102.109 118.363C102.115 118.376 102.118 118.385 102.119 118.391C102.121 118.397 102.121 118.4 102.121 118.4C102.121 118.4 102.121 118.403 102.119 118.409C102.118 118.415 102.115 118.425 102.109 118.438C102.097 118.465 102.073 118.504 102.029 118.553C101.94 118.653 101.79 118.769 101.571 118.88C101.135 119.101 100.493 119.268 99.736 119.268H99.7244L99.7128 119.268C99.6538 119.271 99.5954 119.278 99.5378 119.29C99.4803 119.278 99.4218 119.271 99.3629 119.268L99.3513 119.268H99.3397C97.319 119.268 95.5726 118.915 94.3484 118.421C93.7344 118.173 93.2734 117.898 92.975 117.632C92.6679 117.358 92.5932 117.15 92.5932 117.033C92.5932 116.916 92.6679 116.708 92.975 116.434C93.2734 116.168 93.7345 115.893 94.3484 115.645C95.5726 115.151 97.3191 114.798 99.3397 114.798C103.184 114.798 106.807 117.379 108.52 119.791L108.531 119.806L108.543 119.82C108.824 120.16 108.942 120.605 108.868 121.039C108.781 121.271 108.593 121.453 108.356 121.53L108.339 121.536L108.323 121.542L106.941 122.105C106.941 122.105 106.941 122.105 106.941 122.105C105.489 122.69 103.887 122.793 102.373 122.398L101.868 122.266C100.14 121.813 98.3203 121.849 96.6116 122.37C95.2273 122.788 93.7504 122.788 92.366 122.37C92.3658 122.37 92.3655 122.37 92.3652 122.37L91.0041 121.954Z" fill="#252422" stroke="#FFFCF2"/>
<path d="M85.4834 125.657L85.4925 125.663C85.9127 125.954 86.4125 126.108 86.9235 126.104L86.9275 126.104V126.104H88.1906H88.1909V126.604C89.344 126.603 90.4877 126.813 91.5655 127.222L85.4834 125.657ZM85.4834 125.657L85.474 125.651C84.3198 124.926 83.9391 123.423 84.6067 122.236C84.9041 121.774 85.3935 121.471 85.9395 121.411L85.9469 121.41L85.9543 121.409L87.8513 121.141M85.4834 125.657L87.8513 121.141M87.8513 121.141C87.8605 121.384 87.8977 121.626 87.9626 121.863L87.9625 121.863L87.9644 121.869C88.2927 123.005 89.1812 123.893 90.3173 124.219L91.6758 124.635L91.6775 124.635C93.5113 125.188 95.4674 125.188 97.3011 124.635L97.3027 124.635C98.5918 124.241 99.9649 124.213 101.269 124.555L101.269 124.556L101.774 124.688L101.775 124.688C103.783 125.211 105.907 125.075 107.832 124.299L107.833 124.298L109.209 123.738C110.135 123.394 110.849 122.641 111.143 121.698L111.144 121.698L111.147 121.685C111.198 121.506 111.232 121.324 111.251 121.141L112.014 121.264L112.014 121.264L112.019 121.265C113.201 121.443 114.311 121.947 115.224 122.718L115.232 122.725L115.24 122.731C115.644 123.045 115.904 123.509 115.962 124.018C116.018 124.521 115.873 125.025 115.557 125.419C115.538 125.439 115.505 125.474 115.482 125.5C114.468 126.621 112.909 127.073 111.453 126.67L111.453 126.67L111.445 126.668L109.416 126.142L109.415 126.142C107.472 125.64 105.423 125.732 103.533 126.406L103.532 126.406L99.6328 127.807C99.6323 127.807 99.6318 127.807 99.6313 127.807C97.918 128.41 96.0474 128.391 94.3465 127.754L87.8513 121.141Z" fill="#252422" stroke="#FFFCF2"/>
<path d="M83.3669 126.945C83.5991 127.184 83.8528 127.402 84.1251 127.595L84.1251 127.595L84.1289 127.598C84.95 128.171 85.9278 128.476 86.9287 128.471H88.1914H88.1918C89.1173 128.471 90.0351 128.639 90.9003 128.967C90.9006 128.967 90.9009 128.967 90.9011 128.967L93.5027 129.965L93.5027 129.965L93.5055 129.967C94.6445 130.396 95.8518 130.614 97.0689 130.612M83.3669 126.945L108.821 128.433C107.338 128.05 105.775 128.12 104.332 128.634C104.332 128.634 104.332 128.634 104.332 128.634L100.431 130.035L100.429 130.036C99.3506 130.42 98.2138 130.615 97.0689 130.612M83.3669 126.945C83.3301 126.966 83.2921 126.986 83.253 127.004L83.006 127.215L82.9974 127.223L82.9886 127.23C82.4868 127.622 82.1673 128.203 82.1042 128.837C82.0412 129.471 82.2401 130.103 82.6548 130.587L82.6623 130.595L82.6622 130.596L82.7114 130.656C83.5305 131.527 84.7717 131.861 85.918 131.518L85.9274 131.515L85.9274 131.515C85.95 131.509 85.9731 131.503 85.9969 131.498C87.5719 131.059 89.2602 131.332 90.6174 132.244C90.6176 132.244 90.6178 132.245 90.6179 132.245L91.2596 132.673C91.2599 132.674 91.2602 132.674 91.2606 132.674C92.0595 133.202 93.0497 133.354 93.9701 133.089L93.9718 133.088C93.9944 133.082 94.0195 133.076 94.0465 133.07C95.6904 132.608 97.4558 132.929 98.8323 133.94C99.9459 134.743 100.614 136.025 100.634 137.398L100.635 137.405H100.634V138.902C100.642 139.116 100.742 139.316 100.909 139.449L100.914 139.453L100.914 139.453C101.175 139.666 101.502 139.781 101.838 139.777L101.866 139.777L101.893 139.779C102.46 139.835 102.969 139.436 103.053 138.875V135.491V135.467L103.056 135.442C103.197 134.022 104.391 132.94 105.817 132.94C107.244 132.94 108.438 134.022 108.579 135.442L108.581 135.467V135.491V136.849C108.583 136.871 108.594 136.892 108.612 136.905L108.621 136.912L108.629 136.92C108.724 137.001 108.845 137.044 108.97 137.042L109 137.042L109.029 137.045C109.188 137.061 109.334 136.959 109.375 136.808V133.632V133.621L109.375 133.611C109.418 132.587 110.276 131.788 111.3 131.819C111.481 131.818 111.661 131.843 111.836 131.891L111.844 131.893L111.844 131.893C113.616 132.414 115.53 131.906 116.809 130.575C117.231 130.1 117.445 129.476 117.403 128.843C117.352 128.342 117.152 127.872 116.834 127.491C115.234 128.968 112.976 129.534 110.851 128.959C110.85 128.959 110.849 128.959 110.848 128.959L108.822 128.433L83.3669 126.945ZM97.0689 130.612C97.0685 130.612 97.0682 130.612 97.0679 130.612L97.069 130.112L97.0699 130.612C97.0696 130.612 97.0692 130.612 97.0689 130.612Z" fill="#252422" stroke="#FFFCF2"/>
<path d="M94.5559 135.383C94.5791 135.378 94.605 135.372 94.6323 135.364L94.6323 135.364L94.6361 135.363C95.5878 135.079 96.6176 135.256 97.4202 135.841L97.4202 135.841L97.4291 135.847C97.9422 136.204 98.2534 136.786 98.2665 137.411L98.2665 138.91L98.2666 138.914C98.2741 139.824 98.6848 140.685 99.3878 141.263C100.073 141.837 100.939 142.149 101.832 142.145C103.701 142.237 105.3 140.811 105.419 138.942L105.42 138.926V138.91V135.572C105.486 135.414 105.642 135.308 105.817 135.308C105.992 135.308 106.147 135.414 106.213 135.572L106.213 136.859L106.213 136.862C106.218 137.578 106.537 138.255 107.085 138.715C107.608 139.167 108.277 139.415 108.969 139.41C110.427 139.469 111.664 138.345 111.741 136.885L111.741 136.872V136.859V134.306C113.992 134.772 116.331 134.156 118.058 132.648L118.607 135.455C118.607 135.455 118.607 135.456 118.607 135.456C119.136 138.261 118.361 141.154 116.502 143.32C113.844 146.351 109.985 148.056 105.955 147.981V147.981H105.946H94.3234V147.981L94.3124 147.981C90.3669 148.069 86.5779 146.439 83.9284 143.514C82.0631 141.44 81.2073 138.65 81.5893 135.887L81.9947 133.121C83.3173 133.98 84.9585 134.243 86.5042 133.812C86.5306 133.806 86.5575 133.8 86.5847 133.792C87.5046 133.527 88.4942 133.679 89.2924 134.207C89.2927 134.207 89.2929 134.207 89.2932 134.207L89.9352 134.636C89.9353 134.636 89.9355 134.637 89.9357 134.637C91.2928 135.549 92.981 135.822 94.5559 135.383Z" fill="#252422" stroke="#FFFCF2"/>
<path d="M129.266 121.923L129.274 121.925L130.635 122.341C130.635 122.341 130.635 122.341 130.635 122.341C132.02 122.759 133.497 122.759 134.881 122.341C136.59 121.821 138.409 121.784 140.137 122.237C140.137 122.237 140.137 122.237 140.137 122.237L140.642 122.369C142.157 122.764 143.758 122.662 145.21 122.076C145.21 122.076 145.211 122.076 145.211 122.076L146.593 121.514L146.609 121.507L146.626 121.501C146.863 121.424 147.051 121.243 147.137 121.01C147.212 120.576 147.093 120.131 146.812 119.791L146.8 119.777L146.79 119.762C145.077 117.351 141.454 114.77 137.609 114.77C135.589 114.77 133.842 115.122 132.618 115.616C132.004 115.864 131.543 116.139 131.245 116.405C130.937 116.679 130.863 116.887 130.863 117.004C130.863 117.122 130.937 117.329 131.245 117.603C131.543 117.869 132.004 118.144 132.618 118.392C133.842 118.886 135.589 119.239 137.609 119.239H137.621L137.632 119.239C137.691 119.242 137.75 119.249 137.807 119.261C137.865 119.249 137.923 119.242 137.982 119.239L137.994 119.239H138.006C138.763 119.239 139.405 119.072 139.841 118.851C140.06 118.74 140.21 118.624 140.299 118.524C140.342 118.475 140.366 118.436 140.379 118.409C140.385 118.396 140.388 118.386 140.389 118.38C140.39 118.374 140.39 118.372 140.39 118.371C140.39 118.371 140.39 118.368 140.389 118.362C140.388 118.357 140.385 118.347 140.379 118.334C140.366 118.307 140.342 118.267 140.299 118.218C140.21 118.119 140.06 118.002 139.841 117.892C139.405 117.67 138.763 117.504 138.006 117.504H137.998L137.99 117.504C137.254 117.481 136.528 117.674 135.9 118.058C135.368 118.422 134.641 118.294 134.266 117.767L129.266 121.923ZM129.266 121.923L129.259 121.921M129.266 121.923L129.259 121.921M129.259 121.921C128.904 121.824 128.623 121.553 128.513 121.202C128.438 120.916 128.517 120.612 128.721 120.399L128.721 120.399L128.728 120.39L129.666 119.359C130.385 120.008 131.393 120.528 132.576 120.902C134.002 121.353 135.726 121.606 137.609 121.606H137.621L137.632 121.605C137.691 121.603 137.75 121.595 137.807 121.584C137.865 121.595 137.923 121.603 137.982 121.605L137.994 121.606H138.006C139.276 121.606 140.437 121.287 141.296 120.734C142.153 120.183 142.758 119.361 142.758 118.371C142.758 117.382 142.153 116.56 141.296 116.008C140.438 115.457 139.28 115.138 138.012 115.137C136.792 115.107 135.59 115.444 134.564 116.105L134.554 116.111M129.259 121.921L134.554 116.111M134.554 116.111L134.544 116.118M134.554 116.111L134.544 116.118M134.544 116.118C134.012 116.497 133.888 117.235 134.266 117.767L134.544 116.118Z" fill="#252422" stroke="#FFFCF2"/>
<path d="M123.753 125.628L123.762 125.635C124.182 125.925 124.682 126.079 125.193 126.075L125.197 126.075V126.075H126.46H126.46V126.575C127.614 126.574 128.757 126.784 129.835 127.194L123.753 125.628ZM123.753 125.628L123.744 125.622C122.589 124.897 122.209 123.394 122.876 122.207C123.174 121.746 123.663 121.442 124.209 121.382L124.216 121.381L124.224 121.38L126.121 121.112M123.753 125.628L126.121 121.112M126.121 121.112C126.13 121.355 126.167 121.598 126.232 121.834L126.232 121.834L126.234 121.84C126.562 122.976 127.451 123.864 128.587 124.191L129.945 124.606L129.947 124.606C131.781 125.159 133.737 125.159 135.571 124.606L135.572 124.606C136.861 124.212 138.234 124.185 139.538 124.527L139.538 124.527L140.044 124.659L140.044 124.659C142.053 125.182 144.176 125.046 146.101 124.27L146.103 124.269L147.478 123.709C148.404 123.366 149.119 122.612 149.413 121.669L149.413 121.669L149.417 121.656C149.467 121.477 149.502 121.295 149.521 121.112L150.284 121.235L150.284 121.235L150.288 121.236C151.471 121.415 152.58 121.918 153.494 122.689L153.501 122.696L153.509 122.702C153.914 123.016 154.174 123.48 154.231 123.989C154.288 124.492 154.142 124.996 153.826 125.391C153.807 125.411 153.774 125.445 153.751 125.471C152.738 126.592 151.179 127.045 149.722 126.642L149.722 126.642L149.714 126.64L147.685 126.113L147.685 126.113C145.742 125.611 143.693 125.703 141.802 126.377L141.801 126.377L137.902 127.778C137.902 127.778 137.901 127.778 137.901 127.778C136.187 128.381 134.317 128.362 132.616 127.725L126.121 121.112Z" fill="#252422" stroke="#FFFCF2"/>
<path d="M121.636 126.916C121.869 127.155 122.122 127.373 122.395 127.567L122.395 127.567L122.398 127.569C123.219 128.142 124.197 128.447 125.198 128.442H126.461H126.461C127.387 128.442 128.305 128.61 129.17 128.938C129.17 128.938 129.17 128.938 129.171 128.939L131.772 129.937L131.772 129.937L131.775 129.938C132.914 130.367 134.121 130.586 135.338 130.583M121.636 126.916L147.091 128.404C145.608 128.021 144.044 128.091 142.602 128.605C142.602 128.605 142.601 128.605 142.601 128.605L138.7 130.007L138.699 130.007C137.62 130.391 136.483 130.586 135.338 130.583M121.636 126.916C121.6 126.938 121.562 126.957 121.522 126.975L121.276 127.187L121.267 127.194L121.258 127.201C120.756 127.593 120.437 128.174 120.374 128.808C120.311 129.442 120.51 130.074 120.924 130.558L120.932 130.567L120.932 130.567L120.981 130.627C121.8 131.498 123.041 131.832 124.187 131.489L124.197 131.486L124.197 131.486C124.22 131.48 124.243 131.474 124.266 131.469C125.841 131.03 127.53 131.303 128.887 132.215C128.887 132.216 128.887 132.216 128.887 132.216L129.529 132.645C129.529 132.645 129.53 132.645 129.53 132.645C130.329 133.173 131.319 133.325 132.24 133.06L132.241 133.06C132.264 133.053 132.289 133.047 132.316 133.041C133.96 132.579 135.725 132.9 137.102 133.912C138.215 134.714 138.884 135.996 138.904 137.369L138.904 137.377H138.904V138.873C138.911 139.087 139.011 139.287 139.179 139.42L139.184 139.424L139.184 139.424C139.444 139.637 139.771 139.752 140.108 139.748L140.135 139.748L140.162 139.75C140.729 139.806 141.238 139.407 141.323 138.847V135.462V135.438L141.325 135.413C141.466 133.993 142.66 132.912 144.087 132.912C145.514 132.912 146.708 133.994 146.848 135.413L146.851 135.438V135.462V136.82C146.852 136.842 146.863 136.863 146.881 136.877L146.89 136.884L146.899 136.891C146.994 136.972 147.115 137.016 147.239 137.014L147.269 137.013L147.299 137.016C147.458 137.032 147.603 136.93 147.644 136.779V133.603V133.592L147.645 133.582C147.687 132.558 148.546 131.759 149.569 131.79C149.75 131.79 149.931 131.814 150.105 131.862L150.113 131.864L150.113 131.864C151.885 132.385 153.799 131.877 155.079 130.546C155.501 130.071 155.715 129.447 155.673 128.814C155.622 128.313 155.422 127.844 155.104 127.462C153.504 128.94 151.246 129.505 149.12 128.931C149.119 128.93 149.118 128.93 149.118 128.93L147.091 128.404L121.636 126.916ZM135.338 130.583C135.338 130.583 135.338 130.583 135.337 130.583L135.339 130.083L135.339 130.583C135.339 130.583 135.339 130.583 135.338 130.583Z" fill="#252422" stroke="#FFFCF2"/>
<path d="M132.825 135.355C132.849 135.35 132.875 135.343 132.902 135.335L132.902 135.335L132.906 135.334C133.857 135.05 134.887 135.227 135.69 135.812L135.69 135.812L135.699 135.818C136.212 136.176 136.523 136.757 136.536 137.382L136.536 138.881L136.536 138.885C136.544 139.796 136.954 140.656 137.657 141.234C138.342 141.808 139.208 142.121 140.102 142.116C141.971 142.209 143.57 140.782 143.689 138.913L143.69 138.897V138.881V135.543C143.756 135.385 143.911 135.279 144.086 135.279C144.261 135.279 144.417 135.385 144.483 135.543L144.483 136.83L144.483 136.834C144.488 137.549 144.806 138.226 145.354 138.686C145.877 139.139 146.547 139.386 147.238 139.381C148.697 139.44 149.933 138.316 150.01 136.857L150.011 136.843V136.83V134.277C152.261 134.744 154.6 134.127 156.328 132.62L156.876 135.426C156.876 135.427 156.876 135.427 156.876 135.427C157.405 138.232 156.631 141.126 154.771 143.291C152.113 146.322 148.255 148.027 144.224 147.952V147.952H144.215H132.593V147.952L132.582 147.952C128.636 148.04 124.847 146.41 122.198 143.485C120.333 141.411 119.477 138.621 119.859 135.858L120.264 133.092C121.587 133.951 123.228 134.214 124.774 133.783C124.8 133.777 124.827 133.771 124.854 133.763C125.774 133.498 126.764 133.65 127.562 134.178C127.562 134.178 127.562 134.178 127.563 134.179L128.205 134.608C128.205 134.608 128.205 134.608 128.205 134.608C129.562 135.52 131.251 135.793 132.825 135.355Z" fill="#252422" stroke="#FFFCF2"/>
<path d="M109.869 87.9678L109.862 87.9656L109.855 87.9636C109.5 87.8667 109.218 87.5954 109.109 87.244C109.034 86.9588 109.113 86.6549 109.316 86.4411L109.316 86.4412L109.324 86.4326L110.261 85.402C110.981 86.0508 111.989 86.5701 113.171 86.944C114.598 87.3951 116.321 87.6484 118.205 87.6484H118.217L118.228 87.6479C118.287 87.6452 118.346 87.6379 118.403 87.6264C118.461 87.6379 118.519 87.6452 118.578 87.6479L118.59 87.6484H118.601C119.872 87.6484 121.033 87.3293 121.892 86.7767C122.749 86.2255 123.353 85.4034 123.353 84.4139C123.353 83.4243 122.749 82.6022 121.892 82.051C121.034 81.4993 119.876 81.1803 118.608 81.1793C117.387 81.1492 116.186 81.4863 115.159 82.1471L115.149 82.1535L115.14 82.1603C114.608 82.5393 114.484 83.2774 114.862 83.8096C115.237 84.3369 115.964 84.4649 116.496 84.1004C117.124 83.7162 117.85 83.5236 118.586 83.5463L118.594 83.5465H118.601C119.359 83.5465 120.001 83.7129 120.437 83.934C120.655 84.0449 120.805 84.1611 120.894 84.2608C120.938 84.3098 120.962 84.3491 120.974 84.3762C120.98 84.3894 120.983 84.399 120.985 84.4049C120.986 84.4108 120.986 84.4136 120.986 84.4139C120.986 84.4142 120.986 84.4169 120.985 84.4228C120.983 84.4287 120.98 84.4383 120.974 84.4515C120.962 84.4786 120.938 84.5179 120.894 84.5669C120.805 84.6666 120.655 84.7828 120.437 84.8937C120.001 85.1148 119.359 85.2812 118.601 85.2812H118.59L118.578 85.2817C118.519 85.2845 118.461 85.2917 118.403 85.3032C118.346 85.2917 118.287 85.2845 118.228 85.2817L118.217 85.2812H118.205C116.184 85.2812 114.438 84.9287 113.214 84.4343C112.6 84.1864 112.139 83.9114 111.84 83.6453C111.533 83.3714 111.458 83.164 111.458 83.0466C111.458 82.9292 111.533 82.7218 111.84 82.4479C112.139 82.1818 112.6 81.9068 113.214 81.6589C114.438 81.1644 116.184 80.812 118.205 80.812C122.05 80.812 125.672 83.3932 127.386 85.8044L127.396 85.8194L127.408 85.8335C127.689 86.1735 127.807 86.6187 127.733 87.0523C127.646 87.285 127.458 87.4663 127.221 87.5439L127.205 87.5494L127.188 87.556L125.807 88.1185C125.806 88.1187 125.806 88.1188 125.806 88.1189C124.354 88.7041 122.753 88.8067 121.238 88.4115L120.733 88.2794C119.005 87.8269 117.185 87.863 115.477 88.3838C114.092 88.8017 112.615 88.8017 111.231 88.3839C111.231 88.3838 111.231 88.3837 111.23 88.3836L109.869 87.9678Z" fill="#252422" stroke="#FFFCF2"/>
<path d="M104.349 91.6707L104.358 91.677C104.778 91.9678 105.278 92.1217 105.789 92.1176L105.793 92.1176V92.1176H107.056H107.056V92.6176C108.209 92.6168 109.353 92.8264 110.431 93.2361L104.349 91.6707ZM104.349 91.6707L104.339 91.6648C103.185 90.9396 102.804 89.4363 103.472 88.2495C103.769 87.7881 104.259 87.4849 104.805 87.4243L104.812 87.4234L104.82 87.4224L106.716 87.1544M104.349 91.6707L106.716 87.1544M106.716 87.1544C106.726 87.3978 106.763 87.6402 106.828 87.8765L106.828 87.8765L106.83 87.883C107.158 89.0188 108.046 89.9063 109.183 90.2331L110.541 90.6482L110.543 90.6487C112.376 91.2019 114.333 91.2019 116.166 90.6487L116.168 90.6482C117.457 90.2545 118.83 90.2272 120.134 90.5691L120.134 90.5692L120.64 90.7014L120.64 90.7015C122.648 91.2249 124.772 91.0885 126.697 90.3123L126.698 90.3116L128.074 89.7516C129 89.4081 129.715 88.6547 130.009 87.7114L130.009 87.7114L130.012 87.6982C130.063 87.5198 130.097 87.3378 130.116 87.1542L130.879 87.2774L130.879 87.2775L130.884 87.2782C132.066 87.4571 133.176 87.9602 134.089 88.7317L134.097 88.7382L134.105 88.7444C134.509 89.0588 134.77 89.523 134.827 90.0319C134.884 90.5345 134.738 91.0386 134.422 91.433C134.403 91.453 134.37 91.4875 134.347 91.5139C133.333 92.6342 131.774 93.087 130.318 92.6842L130.318 92.6841L130.31 92.6821L128.281 92.1557L128.28 92.1555C126.337 91.6537 124.288 91.7456 122.398 92.4194L122.397 92.4198L118.498 93.8204C118.498 93.8205 118.497 93.8207 118.497 93.8209C116.783 94.4234 114.913 94.4046 113.212 93.7677L106.716 87.1544Z" fill="#252422" stroke="#FFFCF2"/>
<path d="M115.934 96.6259C114.717 96.628 113.51 96.4092 112.371 95.9803L112.368 95.9792L112.368 95.9792L109.766 94.981C109.766 94.9809 109.766 94.9808 109.766 94.9807C108.9 94.6522 107.983 94.4842 107.057 94.4848H107.057H105.794C104.793 94.4893 103.815 94.1844 102.994 93.6118L102.99 93.6092L102.99 93.6091C102.718 93.4155 102.464 93.1976 102.232 92.9586C102.195 92.9801 102.157 92.9997 102.118 93.0172L101.871 93.229L101.863 93.2364L101.854 93.2433C101.352 93.6359 101.033 94.2165 100.969 94.8505C100.906 95.4844 101.105 96.1166 101.52 96.6003L101.528 96.6091L101.527 96.6092L101.577 96.6693C102.396 97.5402 103.637 97.8743 104.783 97.5313L104.793 97.5284L104.793 97.5285C104.815 97.5223 104.838 97.5165 104.862 97.5113C106.437 97.0727 108.125 97.3453 109.483 98.258C109.483 98.2581 109.483 98.2582 109.483 98.2583L110.125 98.6871C110.125 98.6873 110.125 98.6875 110.126 98.6877C110.925 99.2157 111.915 99.3674 112.835 99.1026L112.837 99.1022C112.86 99.0957 112.885 99.0893 112.912 99.0834C114.556 98.6218 116.321 98.9426 117.698 99.954C118.811 100.757 119.479 102.039 119.5 103.412L119.5 103.419H119.5V104.916C119.507 105.129 119.607 105.329 119.774 105.463L119.779 105.466L119.779 105.466C120.04 105.68 120.367 105.794 120.704 105.791L120.731 105.79L120.758 105.793C121.325 105.848 121.834 105.449 121.919 104.889V101.505V101.48L121.921 101.456C122.062 100.036 123.256 98.9542 124.683 98.9542C126.109 98.9542 127.304 100.036 127.444 101.456L127.447 101.48V101.505V102.863C127.448 102.885 127.459 102.905 127.477 102.919L127.486 102.926L127.495 102.934C127.589 103.015 127.71 103.058 127.835 103.056L127.865 103.055L127.895 103.059C128.054 103.075 128.199 102.973 128.24 102.821V99.6452V99.6349L128.24 99.6245C128.283 98.6002 129.142 97.8017 130.165 97.8326C130.346 97.832 130.527 97.8562 130.701 97.9044L130.709 97.9066L130.709 97.9067C132.481 98.428 134.395 97.9194 135.674 96.5883C136.097 96.1139 136.311 95.4899 136.269 94.8563C136.217 94.356 136.017 93.8861 135.7 93.5048C134.099 94.982 131.841 95.5477 129.716 94.9731C129.715 94.9729 129.714 94.9727 129.713 94.9724L127.687 94.4468C127.687 94.4468 127.687 94.4468 127.687 94.4467C126.204 94.0637 124.64 94.1336 123.197 94.6475C123.197 94.6476 123.197 94.6477 123.197 94.6477L119.296 96.049L119.294 96.0495C118.216 96.4333 117.079 96.6283 115.934 96.6259ZM115.934 96.6259C115.934 96.6259 115.933 96.6259 115.933 96.6259L115.934 96.1259L115.935 96.6259C115.935 96.6259 115.934 96.6259 115.934 96.6259Z" fill="#252422" stroke="#FFFCF2"/>
<path d="M113.421 101.397C113.444 101.392 113.47 101.386 113.497 101.378L113.497 101.378L113.501 101.377C114.453 101.093 115.483 101.269 116.285 101.855L116.285 101.855L116.294 101.861C116.807 102.218 117.119 102.799 117.132 103.424L117.132 104.924L117.132 104.928C117.139 105.838 117.55 106.698 118.253 107.277C118.938 107.851 119.804 108.163 120.697 108.158C122.567 108.251 124.166 106.825 124.284 104.955L124.285 104.939V104.924V101.586C124.351 101.428 124.507 101.322 124.682 101.322C124.857 101.322 125.013 101.428 125.079 101.586L125.079 102.873L125.079 102.876C125.083 103.592 125.402 104.269 125.95 104.728C126.473 105.181 127.143 105.428 127.834 105.424C129.292 105.483 130.529 104.358 130.606 102.899L130.607 102.886V102.873V100.32C132.857 100.786 135.196 100.17 136.923 98.6621L137.472 101.469C137.472 101.469 137.472 101.469 137.472 101.47C138.001 104.275 137.227 107.168 135.367 109.334C132.709 112.364 128.851 114.07 124.82 113.995V113.995H124.811H113.189V113.995L113.178 113.995C109.232 114.082 105.443 112.452 102.794 109.527C100.928 107.454 100.072 104.663 100.455 101.901L100.86 99.1347C102.183 99.9936 103.824 100.256 105.369 99.8256C105.396 99.8199 105.423 99.8132 105.45 99.8052C106.37 99.5406 107.359 99.6924 108.158 100.221C108.158 100.221 108.158 100.221 108.158 100.221L108.8 100.65C108.801 100.65 108.801 100.65 108.801 100.65C110.158 101.563 111.846 101.835 113.421 101.397Z" fill="#252422" stroke="#FFFCF2"/>
</g>
<g clip-path="url(#clip3)">
<path d="M10.0041 45.9541L9.99692 45.9519L9.98963 45.95C9.63435 45.8531 9.35319 45.5817 9.24351 45.2304C9.16896 44.9451 9.24727 44.6413 9.451 44.4274L9.4511 44.4275L9.45892 44.4189L10.3962 43.3883C11.1157 44.0372 12.1235 44.5564 13.3062 44.9304C14.7327 45.3814 16.456 45.6348 18.3397 45.6348H18.3513L18.3628 45.6342C18.4218 45.6315 18.4803 45.6243 18.5379 45.6127C18.5954 45.6243 18.6539 45.6315 18.7128 45.6342L18.7244 45.6348H18.736C20.0065 45.6348 21.1674 45.3157 22.0267 44.7631C22.8839 44.2118 23.4881 43.3897 23.4881 42.4002C23.4881 41.4106 22.8839 40.5886 22.0267 40.0373C21.1688 39.4856 20.0104 39.1667 18.7424 39.1656C17.522 39.1355 16.3207 39.4726 15.2941 40.1334L15.2842 40.1398L15.2745 40.1467C14.7428 40.5257 14.6185 41.2637 14.9967 41.7959C15.3713 42.3233 16.0988 42.4512 16.6304 42.0867C17.2583 41.7025 17.9847 41.5099 18.7206 41.5326L18.7283 41.5329H18.736C19.4934 41.5329 20.1354 41.6992 20.5713 41.9203C20.7901 42.0313 20.9402 42.1474 21.0292 42.2472C21.0729 42.2961 21.0969 42.3354 21.1092 42.3625C21.1152 42.3758 21.1181 42.3853 21.1194 42.3913C21.1208 42.3971 21.1208 42.3999 21.1208 42.4002C21.1208 42.4005 21.1208 42.4033 21.1194 42.4091C21.1181 42.4151 21.1152 42.4246 21.1092 42.4378C21.0969 42.4649 21.0729 42.5043 21.0292 42.5532C20.9402 42.6529 20.7901 42.7691 20.5713 42.88C20.1354 43.1012 19.4934 43.2675 18.736 43.2675H18.7244L18.7128 43.268C18.6538 43.2708 18.5954 43.278 18.5378 43.2895C18.4803 43.278 18.4218 43.2708 18.3629 43.268L18.3513 43.2675H18.3397C16.319 43.2675 14.5726 42.9151 13.3484 42.4207C12.7344 42.1727 12.2734 41.8977 11.975 41.6316C11.6679 41.3577 11.5932 41.1503 11.5932 41.0329C11.5932 40.9155 11.6679 40.7081 11.975 40.4343C12.2734 40.1682 12.7345 39.8932 13.3484 39.6452C14.5726 39.1508 16.3191 38.7983 18.3397 38.7983C22.1844 38.7983 25.807 41.3795 27.5203 43.7908L27.5309 43.8057L27.5426 43.8198C27.8238 44.1598 27.9421 44.605 27.8677 45.0387C27.7811 45.2713 27.593 45.4527 27.356 45.5303L27.3393 45.5357L27.3231 45.5423L25.9413 46.1049C25.9411 46.105 25.9408 46.105 25.9406 46.1051C24.4889 46.6905 22.8874 46.7931 21.3728 46.3979L20.8678 46.2658C19.1398 45.8132 17.3203 45.8494 15.6116 46.3701C14.2273 46.788 12.7504 46.7881 11.366 46.3702C11.3658 46.3701 11.3655 46.37 11.3652 46.37L10.0041 45.9541Z" fill="#252422" stroke="#FFFCF2"/>
<path d="M4.48337 49.6571L4.49248 49.6634C4.91272 49.9542 5.41247 50.108 5.92346 50.1039L5.92748 50.1039V50.1039H7.19062H7.19095V50.6039C8.34405 50.6032 9.48765 50.8128 10.5655 51.2225L4.48337 49.6571ZM4.48337 49.6571L4.47399 49.6512C3.31983 48.9259 2.93912 47.4226 3.60675 46.2358C3.9041 45.7744 4.39351 45.4712 4.93953 45.4106L4.94694 45.4098L4.95432 45.4087L6.85126 45.1407M4.48337 49.6571L6.85126 45.1407M6.85126 45.1407C6.86051 45.3842 6.89769 45.6265 6.96257 45.8628L6.96253 45.8629L6.96439 45.8693C7.29268 47.0052 8.18125 47.8926 9.31729 48.2195L10.6758 48.6345L10.6775 48.635C12.5113 49.1882 14.4674 49.1882 16.3011 48.635L16.3027 48.6345C17.5918 48.2409 18.9649 48.2135 20.2686 48.5555L20.269 48.5556L20.7744 48.6878L20.7748 48.6879C22.7832 49.2113 24.9067 49.0748 26.8316 48.2986L26.8331 48.2979L28.2085 47.7379C29.1346 47.3944 29.8493 46.641 30.1433 45.6977L30.1435 45.6978L30.1472 45.6846C30.1975 45.5062 30.2322 45.3242 30.2512 45.1406L31.014 45.2638L31.014 45.2638L31.0189 45.2645C32.2012 45.4434 33.3106 45.9465 34.2241 46.7181L34.2318 46.7246L34.2398 46.7308C34.644 47.0451 34.9043 47.5093 34.9617 48.0183C35.0184 48.5208 34.8725 49.0249 34.5569 49.4194C34.5377 49.4393 34.505 49.4739 34.4818 49.5002C33.4681 50.6205 31.9091 51.0734 30.4527 50.6705L30.4527 50.6704L30.4449 50.6684L28.4157 50.142L28.4152 50.1419C26.4721 49.64 24.4232 49.732 22.5329 50.4057L22.5317 50.4061L18.6328 51.8067C18.6323 51.8069 18.6318 51.807 18.6313 51.8072C16.918 52.4098 15.0474 52.3909 13.3465 51.7541L6.85126 45.1407Z" fill="#252422" stroke="#FFFCF2"/>
<path d="M2.36688 50.9449C2.59912 51.184 2.85283 51.4018 3.12508 51.5955L3.12507 51.5955L3.12893 51.5982C3.94997 52.1708 4.92778 52.4757 5.92872 52.4712H7.19143H7.19177C8.1173 52.4705 9.03511 52.6386 9.90034 52.967C9.9006 52.9671 9.90086 52.9672 9.90112 52.9673L12.5027 53.9655L12.5027 53.9655L12.5055 53.9666C13.6445 54.3955 14.8518 54.6144 16.0689 54.6122M2.36688 50.9449L27.8212 52.433C26.3384 52.05 24.7748 52.12 23.3322 52.6339C23.332 52.6339 23.3318 52.634 23.3316 52.634L19.4306 54.0353L19.4292 54.0358C18.3506 54.4197 17.2138 54.6147 16.0689 54.6122M2.36688 50.9449C2.33013 50.9664 2.29212 50.986 2.25297 51.0035L2.00601 51.2154L1.99745 51.2227L1.98856 51.2297C1.48678 51.6223 1.1673 52.2028 1.10424 52.8368C1.04119 53.4708 1.24007 54.1029 1.65478 54.5866L1.66233 54.5954L1.66223 54.5955L1.71141 54.6557C2.53049 55.5265 3.77175 55.8606 4.91796 55.5176L4.92738 55.5148L4.92741 55.5149C4.95 55.5086 4.97312 55.5028 4.99691 55.4976C6.57185 55.0591 8.26024 55.3316 9.61741 56.2443C9.61759 56.2444 9.61777 56.2445 9.61795 56.2447L10.2596 56.6734C10.2599 56.6736 10.2602 56.6738 10.2606 56.674C11.0595 57.2021 12.0497 57.3537 12.9701 57.089L12.9718 57.0885C12.9944 57.0821 13.0195 57.0756 13.0465 57.0697C14.6904 56.6081 16.4558 56.929 17.8323 57.9403C18.9459 58.7431 19.6142 60.0253 19.6344 61.398L19.6345 61.4053H19.6344V62.9022C19.6416 63.1158 19.7419 63.3156 19.9092 63.4489L19.914 63.4528L19.914 63.4528C20.1746 63.6659 20.5018 63.7806 20.8383 63.7769L20.8655 63.7766L20.8925 63.7792C21.4597 63.8346 21.9688 63.4357 22.0534 62.8755V59.4913V59.4666L22.0559 59.442C22.1965 58.0222 23.3907 56.9405 24.8174 56.9405C26.2441 56.9405 27.4383 58.0223 27.5789 59.442L27.5814 59.4665V59.4913V60.8489C27.5829 60.871 27.5938 60.8916 27.6115 60.9053L27.6206 60.9124L27.6293 60.9198C27.7241 61.0008 27.8451 61.0444 27.9697 61.0423L27.9996 61.0418L28.0293 61.0449C28.1884 61.0613 28.3338 60.9591 28.3747 60.8076V57.6315V57.6212L28.3751 57.6109C28.4175 56.5865 29.2765 55.788 30.2999 55.8189C30.4809 55.8183 30.6613 55.8425 30.8359 55.8908L30.8438 55.893L30.8438 55.893C32.6155 56.4143 34.5298 55.9057 35.8093 54.5746C36.2314 54.1002 36.4454 53.4763 36.4034 52.8427C36.3521 52.3423 36.1522 51.8724 35.8344 51.4911C34.2342 52.9684 31.9761 53.534 29.8505 52.9594C29.8497 52.9592 29.8488 52.959 29.848 52.9587L27.8216 52.4331L2.36688 50.9449ZM16.0689 54.6122C16.0685 54.6122 16.0682 54.6122 16.0679 54.6122L16.069 54.1122L16.0699 54.6122C16.0696 54.6122 16.0692 54.6122 16.0689 54.6122Z" fill="#252422" stroke="#FFFCF2"/>
<path d="M13.5559 59.3834C13.5791 59.3784 13.605 59.3722 13.6323 59.3643L13.6323 59.3643L13.6361 59.3632C14.5878 59.0791 15.6176 59.2558 16.4202 59.8409L16.4202 59.841L16.4291 59.8472C16.9422 60.2044 17.2534 60.7856 17.2665 61.4106L17.2665 62.9098L17.2666 62.914C17.2741 63.8244 17.6848 64.6846 18.3878 65.263C19.0726 65.8371 19.9389 66.1494 20.8323 66.1446C22.7015 66.2375 24.3004 64.8113 24.4191 62.9416L24.4201 62.9258V62.9099V59.5722C24.4861 59.4138 24.6416 59.308 24.8167 59.308C24.9918 59.308 25.1474 59.4138 25.2134 59.5722L25.2134 60.859L25.2134 60.8624C25.2183 61.5779 25.5369 62.2549 26.0847 62.7147C26.6077 63.1673 27.2773 63.4145 27.9688 63.4101C29.4271 63.4692 30.6635 62.3446 30.7406 60.8854L30.7413 60.8722V60.859V58.3058C32.9916 58.7724 35.3309 58.1562 37.0581 56.6484L37.6067 59.4549C37.6068 59.4553 37.6068 59.4558 37.6069 59.4563C38.1358 62.2612 37.3613 65.1544 35.5018 67.32C32.844 70.3507 28.9853 72.0561 24.9549 71.9812V71.9811H24.9456H13.3234V71.981L13.3124 71.9813C9.36687 72.0687 5.57788 70.4385 2.92836 67.5137C1.06305 65.4403 0.207254 62.6497 0.589294 59.8871L0.99467 57.121C2.31728 57.98 3.95851 58.2427 5.50416 57.8119C5.53061 57.8063 5.5575 57.7995 5.58473 57.7915C6.50459 57.5269 7.49416 57.6787 8.2924 58.2069C8.29267 58.2071 8.29295 58.2072 8.29322 58.2074L8.93515 58.6364C8.93534 58.6365 8.93553 58.6366 8.93572 58.6367C10.2928 59.5491 11.981 59.8218 13.5559 59.3834Z" fill="#252422" stroke="#FFFCF2"/>
<path d="M48.2665 45.9231L48.2737 45.9253L49.6348 46.3411C49.6349 46.3412 49.6351 46.3413 49.6353 46.3413C51.0197 46.7593 52.4967 46.7593 53.8811 46.3413C55.5897 45.8206 57.4093 45.7844 59.1372 46.2369C59.1373 46.2369 59.1373 46.2369 59.1374 46.237L59.6423 46.369C61.1568 46.7643 62.7583 46.6617 64.21 46.0764C64.2102 46.0763 64.2105 46.0762 64.2108 46.0761L65.5926 45.5135L65.6089 45.5069L65.6255 45.5015C65.8626 45.4238 66.0506 45.2425 66.1373 45.0098C66.2116 44.5762 66.0933 44.131 65.8121 43.791L65.8005 43.7769L65.7898 43.762C64.0766 41.3507 60.4539 38.7695 56.6092 38.7695C54.5886 38.7695 52.8422 39.122 51.618 39.6164C51.004 39.8644 50.5429 40.1394 50.2445 40.4054C49.9374 40.6793 49.8627 40.8867 49.8627 41.0041C49.8627 41.1215 49.9374 41.3289 50.2445 41.6028C50.5429 41.8689 51.004 42.1439 51.6179 42.3919C52.8421 42.8863 54.5886 43.2387 56.6092 43.2387H56.6208L56.6324 43.2392C56.6913 43.242 56.7498 43.2492 56.8074 43.2607C56.8649 43.2492 56.9234 43.242 56.9824 43.2392L56.9939 43.2387H57.0055C57.7629 43.2387 58.4049 43.0724 58.8409 42.8512C59.0596 42.7403 59.2097 42.6241 59.2988 42.5244C59.3425 42.4754 59.3664 42.4361 59.3787 42.409C59.3847 42.3958 59.3876 42.3862 59.389 42.3803C59.3903 42.3745 59.3903 42.3717 59.3903 42.3714C59.3903 42.3711 59.3903 42.3683 59.389 42.3625C59.3876 42.3565 59.3847 42.3469 59.3787 42.3337C59.3664 42.3066 59.3425 42.2673 59.2988 42.2184C59.2097 42.1186 59.0596 42.0025 58.8409 41.8915C58.4049 41.6704 57.7629 41.504 57.0055 41.504H56.9978L56.9901 41.5038C56.2542 41.4811 55.5278 41.6737 54.8999 42.0579C54.3684 42.4224 53.6408 42.2945 53.2662 41.7671L48.2665 45.9231ZM48.2665 45.9231L48.2592 45.9211M48.2665 45.9231L48.2592 45.9211M48.2592 45.9211C47.9039 45.8242 47.6227 45.5529 47.513 45.2016C47.4385 44.9163 47.5168 44.6125 47.7205 44.3986L47.7206 44.3987L47.7285 44.3901L48.6657 43.3595C49.3852 44.0084 50.393 44.5276 51.5757 44.9016C53.0022 45.3526 54.7255 45.606 56.6092 45.606H56.6208L56.6324 45.6054C56.6914 45.6027 56.7499 45.5955 56.8074 45.5839C56.8649 45.5955 56.9234 45.6027 56.9823 45.6054L56.9939 45.606H57.0055C58.276 45.606 59.4369 45.2869 60.2962 44.7343C61.1534 44.183 61.7577 43.3609 61.7577 42.3714C61.7577 41.3818 61.1534 40.5598 60.2962 40.0085C59.4384 39.4568 58.2799 39.1379 57.0119 39.1368C55.7915 39.1067 54.5902 39.4438 53.5636 40.1046L53.5537 40.111M48.2592 45.9211L53.5537 40.111M53.5537 40.111L53.5441 40.1179M53.5537 40.111L53.5441 40.1179M53.5441 40.1179C53.0123 40.4968 52.888 41.2348 53.2662 41.7671L53.5441 40.1179Z" fill="#252422" stroke="#FFFCF2"/>
<path d="M42.7529 49.6282L42.762 49.6345C43.1823 49.9254 43.682 50.0792 44.193 50.0751L44.197 50.0751V50.0751H45.4602H45.4605V50.5751C46.6136 50.5744 47.7572 50.784 48.8351 51.1936L42.7529 49.6282ZM42.7529 49.6282L42.7435 49.6223C41.5894 48.8971 41.2087 47.3938 41.8763 46.207C42.1736 45.7456 42.663 45.4424 43.2091 45.3818L43.2165 45.381L43.2239 45.3799L45.1208 45.1119M42.7529 49.6282L45.1208 45.1119M45.1208 45.1119C45.13 45.3554 45.1672 45.5977 45.2321 45.834L45.2321 45.834L45.2339 45.8405C45.5622 46.9764 46.4508 47.8638 47.5868 48.1907L48.9454 48.6057L48.9471 48.6062C50.7808 49.1594 52.7369 49.1594 54.5706 48.6062L54.5722 48.6057C55.8613 48.212 57.2344 48.1847 58.5382 48.5267L58.5385 48.5267L59.0439 48.6589L59.0443 48.6591C61.0527 49.1825 63.1763 49.046 65.1011 48.2698L65.1026 48.2691L66.4781 47.7091C67.4041 47.3656 68.1189 46.6122 68.4129 45.6689L68.413 45.669L68.4168 45.6557C68.467 45.4774 68.5017 45.2954 68.5207 45.1118L69.2835 45.2349L69.2835 45.235L69.2885 45.2357C70.4707 45.4146 71.5802 45.9177 72.4936 46.6893L72.5014 46.6958L72.5093 46.702C72.9135 47.0163 73.1738 47.4805 73.2312 47.9895C73.2879 48.492 73.1421 48.9961 72.8264 49.3905C72.8072 49.4106 72.7745 49.4451 72.7513 49.4714C71.7376 50.5917 70.1786 51.0446 68.7222 50.6417L68.7222 50.6416L68.7144 50.6396L66.6852 50.1132L66.6847 50.1131C64.7416 49.6112 62.6927 49.7031 60.8024 50.3769L60.8012 50.3773L56.9023 51.7779C56.9018 51.7781 56.9013 51.7782 56.9008 51.7784C55.1875 52.381 53.3169 52.3621 51.616 51.7252L45.1208 45.1119Z" fill="#252422" stroke="#FFFCF2"/>
<path d="M40.6364 50.9161C40.8686 51.1552 41.1224 51.373 41.3946 51.5667L41.3946 51.5667L41.3985 51.5694C42.2195 52.1419 43.1973 52.4469 44.1983 52.4424H45.461H45.4613C46.3868 52.4417 47.3046 52.6098 48.1699 52.9382C48.1701 52.9383 48.1704 52.9384 48.1707 52.9385L50.7722 53.9367L50.7722 53.9367L50.7751 53.9378C51.914 54.3667 53.1213 54.5855 54.3384 54.5834M40.6364 50.9161L66.0907 52.4042C64.6079 52.0212 63.0443 52.0912 61.6017 52.605C61.6015 52.6051 61.6014 52.6052 61.6012 52.6052L57.7001 54.0065L57.6987 54.007C56.6201 54.3909 55.4833 54.5859 54.3384 54.5834M40.6364 50.9161C40.5997 50.9376 40.5616 50.9572 40.5225 50.9747L40.2755 51.1866L40.267 51.1939L40.2581 51.2009C39.7563 51.5934 39.4368 52.174 39.3738 52.808C39.3107 53.442 39.5096 54.0741 39.9243 54.5578L39.9319 54.5666L39.9318 54.5667L39.9809 54.6269C40.8 55.4977 42.0413 55.8318 43.1875 55.4888L43.1969 55.486L43.1969 55.486C43.2195 55.4798 43.2427 55.474 43.2664 55.4688C44.8414 55.0303 46.5298 55.3028 47.8869 56.2155C47.8871 56.2156 47.8873 56.2157 47.8875 56.2159L48.5292 56.6446C48.5295 56.6448 48.5298 56.645 48.5301 56.6452C49.3291 57.1733 50.3192 57.3249 51.2397 57.0601L51.2413 57.0597C51.2639 57.0533 51.289 57.0468 51.316 57.0409C52.96 56.5793 54.7253 56.9002 56.1019 57.9115C57.2154 58.7143 57.8837 59.9964 57.9039 61.3692L57.904 61.3765H57.904V62.8734C57.9112 63.0869 58.0115 63.2868 58.1787 63.4201L58.1835 63.424L58.1835 63.424C58.4441 63.6371 58.7713 63.7518 59.1079 63.7481L59.135 63.7478L59.1621 63.7504C59.7292 63.8058 60.2383 63.4069 60.323 62.8467V59.4624V59.4377L60.3254 59.4132C60.4661 57.9934 61.6603 56.9117 63.0869 56.9117C64.5136 56.9117 65.7078 57.9935 65.8484 59.4132L65.8509 59.4377V59.4624V60.8201C65.8525 60.8422 65.8634 60.8628 65.881 60.8765L65.8901 60.8836L65.8988 60.891C65.9936 60.972 66.1147 61.0156 66.2392 61.0135L66.2691 61.013L66.2988 61.0161C66.4579 61.0325 66.6033 60.9303 66.6442 60.7788V57.6027V57.5924L66.6446 57.582C66.687 56.5577 67.546 55.7592 68.5694 55.7901C68.7505 55.7895 68.9308 55.8137 69.1054 55.862L69.1134 55.8642L69.1133 55.8642C70.8851 56.3855 72.7994 55.8769 74.0788 54.5458C74.5009 54.0714 74.7149 53.4474 74.6729 52.8139C74.6216 52.3135 74.4217 51.8436 74.104 51.4623C72.5037 52.9396 70.2456 53.5052 68.1201 52.9306C68.1192 52.9304 68.1184 52.9302 68.1175 52.9299L66.0912 52.4043L40.6364 50.9161ZM54.3384 54.5834C54.3381 54.5834 54.3377 54.5834 54.3374 54.5834L54.3385 54.0834L54.3395 54.5834C54.3391 54.5834 54.3388 54.5834 54.3384 54.5834Z" fill="#252422" stroke="#FFFCF2"/>
<path d="M51.8254 59.3546C51.8487 59.3496 51.8745 59.3434 51.9018 59.3355L51.9018 59.3355L51.9056 59.3343C52.8573 59.0503 53.8871 59.227 54.6898 59.8121L54.6897 59.8122L54.6986 59.8184C55.2117 60.1756 55.523 60.7568 55.5361 61.3818L55.536 62.881L55.5361 62.8852C55.5437 63.7956 55.9543 64.6558 56.6573 65.2342C57.3422 65.8082 58.2085 66.1206 59.1018 66.1158C60.971 66.2086 62.5699 64.7825 62.6886 62.9128L62.6896 62.897V62.8811V59.5433C62.7557 59.385 62.9112 59.2792 63.0863 59.2792C63.2614 59.2792 63.4169 59.385 63.4829 59.5433L63.4829 60.8302L63.4829 60.8336C63.4878 61.5491 63.8065 62.2261 64.3543 62.6859C64.8772 63.1385 65.5469 63.3857 66.2384 63.3813C67.6966 63.4404 68.933 62.3158 69.0102 60.8566L69.0109 60.8434V60.8302V58.277C71.2611 58.7436 73.6004 58.1274 75.3277 56.6196L75.8762 59.4261C75.8763 59.4265 75.8764 59.427 75.8765 59.4275C76.4053 62.2324 75.6309 65.1256 73.7714 67.2912C71.1135 70.3219 67.2549 72.0273 63.2244 71.9524V71.9523H63.2151H51.593V71.9522L51.5819 71.9524C47.6364 72.0399 43.8474 70.4097 41.1979 67.4849C39.3326 65.4115 38.4768 62.6209 38.8588 59.8583L39.2642 57.0922C40.5868 57.9512 42.228 58.2139 43.7737 57.7831C43.8001 57.7775 43.827 57.7707 43.8543 57.7627C44.7741 57.4981 45.7637 57.6499 46.5619 58.1781C46.5622 58.1783 46.5625 58.1784 46.5628 58.1786L47.2047 58.6075C47.2049 58.6077 47.2051 58.6078 47.2053 58.6079C48.5623 59.5203 50.2506 59.793 51.8254 59.3546Z" fill="#252422" stroke="#FFFCF2"/>
<path d="M28.8694 11.9678L28.8622 11.9656L28.8549 11.9636C28.4996 11.8667 28.2184 11.5954 28.1087 11.244C28.0342 10.9588 28.1125 10.6549 28.3162 10.4411L28.3163 10.4412L28.3242 10.4326L29.2614 9.40197C29.9809 10.0508 30.9887 10.5701 32.1714 10.944C33.5979 11.3951 35.3212 11.6484 37.2049 11.6484H37.2165L37.2281 11.6479C37.2871 11.6452 37.3456 11.6379 37.4031 11.6264C37.4606 11.6379 37.5191 11.6452 37.578 11.6479L37.5896 11.6484H37.6012C38.8717 11.6484 40.0326 11.3293 40.8919 10.7767C41.7491 10.2255 42.3534 9.40341 42.3534 8.41385C42.3534 7.42429 41.7491 6.60223 40.8919 6.05096C40.0341 5.49929 38.8756 5.18034 37.6076 5.17927C36.3872 5.14918 35.1859 5.48631 34.1593 6.14708L34.1494 6.15348L34.1398 6.16034C33.608 6.53933 33.4837 7.27735 33.8619 7.8096C34.2365 8.33694 34.9641 8.46489 35.4956 8.10039C36.1235 7.71618 36.8499 7.52357 37.5858 7.54628L37.5935 7.54652H37.6012C38.3586 7.54652 39.0006 7.71287 39.4366 7.934C39.6553 8.04495 39.8054 8.16112 39.8945 8.26084C39.9382 8.30978 39.9621 8.34911 39.9744 8.37621C39.9804 8.38942 39.9833 8.39898 39.9847 8.40494C39.986 8.41076 39.986 8.41355 39.986 8.41385C39.986 8.41415 39.986 8.41694 39.9847 8.42277C39.9833 8.42872 39.9804 8.43828 39.9744 8.4515C39.9621 8.47859 39.9382 8.51792 39.8945 8.56687C39.8054 8.66659 39.6553 8.78276 39.4366 8.8937C39.0006 9.11483 38.3586 9.28118 37.6012 9.28118H37.5896L37.5781 9.28172C37.5191 9.28445 37.4606 9.29167 37.4031 9.30322C37.3455 9.29167 37.287 9.28446 37.2281 9.28172L37.2165 9.28118H37.2049C35.1843 9.28118 33.4378 8.92875 32.2136 8.43434C31.5997 8.18636 31.1386 7.91136 30.8402 7.64527C30.5331 7.37141 30.4584 7.164 30.4584 7.0466C30.4584 6.9292 30.5331 6.72179 30.8402 6.44793C31.1386 6.18184 31.5997 5.90683 32.2137 5.65886C33.4379 5.16445 35.1843 4.81201 37.2049 4.81201C41.0496 4.81201 44.6722 7.39316 46.3855 9.80444L46.3961 9.81937L46.4078 9.83349C46.689 10.1735 46.8073 10.6187 46.733 11.0523C46.6463 11.285 46.4582 11.4663 46.2212 11.5439L46.2046 11.5494L46.1883 11.556L44.8065 12.1185C44.8062 12.1187 44.8059 12.1188 44.8057 12.1189C43.354 12.7041 41.7525 12.8067 40.238 12.4115L39.733 12.2794C38.005 11.8269 36.1853 11.863 34.4765 12.3838C33.0923 12.8017 31.6155 12.8017 30.2313 12.3839C30.231 12.3838 30.2307 12.3837 30.2305 12.3836L28.8694 11.9678Z" fill="#252422" stroke="#FFFCF2"/>
<path d="M23.3486 15.6707L23.3577 15.677C23.778 15.9678 24.2777 16.1217 24.7887 16.1176L24.7927 16.1176V16.1176H26.0559H26.0562V16.6176C27.2093 16.6168 28.3529 16.8264 29.4308 17.2361L23.3486 15.6707ZM23.3486 15.6707L23.3392 15.6648C22.1851 14.9396 21.8044 13.4363 22.472 12.2495C22.7693 11.7881 23.2587 11.4849 23.8048 11.4243L23.8122 11.4234L23.8196 11.4224L25.7165 11.1544M23.3486 15.6707L25.7165 11.1544M25.7165 11.1544C25.7257 11.3978 25.7629 11.6402 25.8278 11.8765L25.8278 11.8765L25.8296 11.883C26.1579 13.0188 27.0465 13.9063 28.1825 14.2331L29.5411 14.6482L29.5428 14.6487C31.3765 15.2019 33.3326 15.2019 35.1663 14.6487L35.1679 14.6482C36.457 14.2545 37.8301 14.2272 39.1339 14.5691L39.1342 14.5692L39.6396 14.7014L39.64 14.7015C41.6484 15.2249 43.772 15.0885 45.6968 14.3123L45.6983 14.3116L47.0738 13.7516C47.9998 13.4081 48.7146 12.6547 49.0086 11.7114L49.0087 11.7114L49.0125 11.6982C49.0627 11.5198 49.0975 11.3378 49.1164 11.1542L49.8793 11.2774L49.8793 11.2775L49.8842 11.2782C51.0664 11.4571 52.1759 11.9602 53.0894 12.7317L53.0971 12.7382L53.105 12.7444C53.5092 13.0588 53.7695 13.523 53.8269 14.0319C53.8836 14.5345 53.7378 15.0386 53.4221 15.433C53.403 15.453 53.3702 15.4875 53.3471 15.5139C52.3333 16.6342 50.7743 17.087 49.3179 16.6842L49.3179 16.6841L49.3101 16.6821L47.2809 16.1557L47.2804 16.1555C45.3373 15.6537 43.2884 15.7456 41.3981 16.4194L41.3969 16.4198L37.498 17.8204C37.4975 17.8205 37.497 17.8207 37.4966 17.8209C35.7832 18.4234 33.9126 18.4046 32.2117 17.7677L25.7165 11.1544Z" fill="#252422" stroke="#FFFCF2"/>
<path d="M34.9341 20.6259C33.717 20.628 32.5097 20.4092 31.3708 19.9803L31.3679 19.9792L31.3679 19.9792L28.7664 18.981C28.7661 18.9809 28.7658 18.9808 28.7656 18.9807C27.9003 18.6522 26.9825 18.4842 26.057 18.4848H26.0567H24.794C23.793 18.4893 22.8152 18.1844 21.9942 17.6118L21.9903 17.6092L21.9903 17.6091C21.7181 17.4155 21.4644 17.1976 21.2321 16.9586C21.1954 16.9801 21.1573 16.9997 21.1182 17.0172L20.8712 17.229L20.8627 17.2364L20.8538 17.2433C20.352 17.6359 20.0325 18.2165 19.9695 18.8505C19.9064 19.4844 20.1053 20.1166 20.52 20.6003L20.5276 20.6091L20.5275 20.6092L20.5766 20.6693C21.3957 21.5402 22.637 21.8743 23.7832 21.5313L23.7926 21.5284L23.7926 21.5285C23.8152 21.5223 23.8384 21.5165 23.8621 21.5113C25.4371 21.0727 27.1255 21.3453 28.4826 22.258C28.4828 22.2581 28.483 22.2582 28.4832 22.2583L29.1249 22.6871C29.1252 22.6873 29.1255 22.6875 29.1258 22.6877C29.9248 23.2157 30.9149 23.3674 31.8354 23.1026L31.837 23.1022C31.8596 23.0957 31.8847 23.0893 31.9117 23.0834C33.5557 22.6218 35.321 22.9426 36.6976 23.954C37.8111 24.7568 38.4794 26.0389 38.4996 27.4117L38.4997 27.419H38.4997V28.9159C38.5069 29.1294 38.6072 29.3293 38.7744 29.4626L38.7793 29.4665L38.7792 29.4665C39.0398 29.6796 39.367 29.7943 39.7036 29.7905L39.7307 29.7902L39.7578 29.7929C40.3249 29.8483 40.834 29.4494 40.9187 28.8892V25.5049V25.4802L40.9211 25.4556C41.0618 24.0359 42.256 22.9542 43.6826 22.9542C45.1093 22.9542 46.3035 24.036 46.4442 25.4556L46.4466 25.4802V25.5049V26.8626C46.4482 26.8847 46.4591 26.9053 46.4767 26.919L46.4858 26.9261L46.4945 26.9335C46.5893 27.0145 46.7104 27.0581 46.8349 27.056L46.8648 27.0555L46.8945 27.0586C47.0536 27.075 47.199 26.9728 47.2399 26.8213V23.6452V23.6349L47.2403 23.6245C47.2827 22.6002 48.1417 21.8017 49.1651 21.8326C49.3462 21.832 49.5265 21.8562 49.7011 21.9044L49.7091 21.9066L49.709 21.9067C51.4808 22.428 53.3951 21.9194 54.6745 20.5883C55.0966 20.1139 55.3106 19.4899 55.2686 18.8563C55.2173 18.356 55.0174 17.8861 54.6997 17.5048C53.0994 18.982 50.8413 19.5477 48.7158 18.9731C48.7149 18.9729 48.7141 18.9727 48.7132 18.9724L46.6869 18.4468C46.6868 18.4468 46.6867 18.4468 46.6866 18.4467C45.2037 18.0637 43.6401 18.1336 42.1974 18.6475C42.1972 18.6476 42.1971 18.6477 42.1969 18.6477L38.2958 20.049L38.2944 20.0495C37.2158 20.4333 36.079 20.6283 34.9341 20.6259ZM34.9341 20.6259C34.9338 20.6259 34.9334 20.6259 34.9331 20.6259L34.9342 20.1259L34.9352 20.6259C34.9348 20.6259 34.9345 20.6259 34.9341 20.6259Z" fill="#252422" stroke="#FFFCF2"/>
<path d="M32.4212 25.3971C32.4444 25.3921 32.4702 25.3858 32.4975 25.3779L32.4975 25.378L32.5013 25.3768C33.453 25.0928 34.4828 25.2695 35.2855 25.8546L35.2854 25.8547L35.2943 25.8609C35.8074 26.2181 36.1187 26.7993 36.1318 27.4243L36.1318 28.9235L36.1318 28.9277C36.1394 29.8381 36.55 30.6983 37.253 31.2767C37.9379 31.8507 38.8042 32.1631 39.6975 32.1583C41.5667 32.2511 43.1656 30.8249 43.2843 28.9553L43.2854 28.9394V28.9236V25.5858C43.3514 25.4275 43.5069 25.3217 43.682 25.3217C43.8571 25.3217 44.0126 25.4275 44.0786 25.5858L44.0786 26.8727L44.0786 26.8761C44.0835 27.5915 44.4022 28.2686 44.95 28.7284C45.4729 29.181 46.1426 29.4282 46.8341 29.4237C48.2923 29.4829 49.5287 28.3583 49.6059 26.899L49.6066 26.8859V26.8727V24.3195C51.8568 24.7861 54.1961 24.1699 55.9234 22.6621L56.4719 25.4685C56.472 25.469 56.4721 25.4695 56.4722 25.47C57.001 28.2749 56.2266 31.1681 54.3671 33.3337C51.7092 36.3644 47.8506 38.0698 43.8201 37.9949V37.9948H43.8108H32.1887V37.9947L32.1776 37.9949C28.2321 38.0823 24.4431 36.4522 21.7936 33.5274C19.9283 31.4539 19.0725 28.6634 19.4545 25.9007L19.8599 23.1347C21.1825 23.9936 22.8237 24.2564 24.3694 23.8256C24.3958 23.8199 24.4227 23.8132 24.45 23.8052C25.3698 23.5406 26.3594 23.6924 27.1576 24.2206C27.1579 24.2207 27.1582 24.2209 27.1585 24.2211L27.8004 24.65C27.8006 24.6502 27.8008 24.6503 27.801 24.6504C29.158 25.5628 30.8463 25.8355 32.4212 25.3971Z" fill="#252422" stroke="#FFFCF2"/>
</g>
<defs>
<clipPath id="clip0">
<rect width="76" height="76" fill="white" transform="translate(0 76)"/>
</clipPath>
<clipPath id="clip1">
<rect width="76" height="76" fill="white" transform="translate(81)"/>
</clipPath>
<clipPath id="clip2">
<rect width="76" height="76" fill="white" transform="translate(81 76)"/>
</clipPath>
<clipPath id="clip3">
<rect width="76" height="76" fill="white"/>
</clipPath>
</defs>
</svg>
