<svg width="141" height="126" viewBox="0 0 141 126" fill="none" xmlns="http://www.w3.org/2000/svg">
<path d="M36.3227 29.9688L41.3431 31.5025C46.7922 33.148 52.6061 33.148 58.0552 31.5025C64.025 29.6825 70.3826 29.5561 76.4202 31.1371L78.2823 31.6242C84.246 33.1805 90.5525 32.7761 96.2685 30.4707L101.365 28.3959C102.83 27.9163 103.98 26.7697 104.463 25.3065C104.886 23.1298 104.312 20.8781 102.899 19.1692C96.3388 9.93641 82.485 0 67.5723 0C52.292 0 40.8734 5.31933 40.8734 10.0753C40.8734 14.8312 52.2917 20.1505 67.5723 20.1505C67.8216 20.1621 68.0679 20.212 68.3023 20.2979C68.5368 20.212 68.7828 20.1621 69.0324 20.1505C75.1154 20.1505 79.6612 17.4914 79.6612 15.1128C79.6612 12.7341 75.1154 10.075 69.0324 10.075C65.9441 9.97967 62.8957 10.7935 60.2655 12.4156C59.1318 13.219 57.5618 12.9523 56.757 11.8194C55.9523 10.6869 56.2168 9.11653 57.3482 8.31015C60.8264 6.07144 64.8975 4.93115 69.0324 5.0375C77.8175 5.0375 84.6989 9.46283 84.6989 15.1128C84.6989 20.7627 77.8175 25.188 69.0324 25.188C68.7831 25.1765 68.5368 25.1266 68.3023 25.0406C68.0679 25.1266 67.8219 25.1765 67.5723 25.188C54.0051 25.188 42.9397 21.5341 38.2526 16.0732L33.4892 21.3112C32.288 22.5719 31.8324 24.3681 32.2875 26.0487C32.8696 27.9623 34.3934 29.4426 36.3227 29.9688Z" fill="#252422"/>
<path d="M15.5027 43.3883C17.3631 44.6757 19.5757 45.357 21.8381 45.3388H26.4932C30.7416 45.3361 34.9551 46.1083 38.9264 47.6177L48.5196 51.2989C55.1946 53.8002 62.5367 53.8743 69.2608 51.508L83.6371 46.3438C90.2551 43.985 97.428 43.6632 104.231 45.4201L111.707 47.3596C117.748 49.0308 124.216 47.1499 128.418 42.499C128.461 42.4461 128.654 42.2444 128.702 42.1951C130.21 40.3495 130.909 37.9739 130.642 35.6057C130.375 33.2375 129.164 31.0773 127.282 29.6144C123.657 26.552 119.253 24.5549 114.56 23.845L109.633 23.0493C109.748 24.2811 109.635 25.5236 109.3 26.7143C108.384 29.6533 106.153 31.9992 103.263 33.0618L98.1678 35.1365C91.4426 37.8485 84.0231 38.3254 77.0059 36.4967L75.1438 36.0096C70.0098 34.663 64.6026 34.7707 59.5263 36.3209C53.1174 38.2544 46.2803 38.2544 39.8711 36.3209L34.8507 34.7872C31.267 33.7613 28.4633 30.9644 27.4282 27.3832C27.0425 25.9781 26.972 24.5053 27.2219 23.07L17.9949 24.3736C15.4134 24.6602 13.1015 26.1021 11.7088 28.2945C8.73066 33.5301 10.4024 40.1834 15.5027 43.3883Z" fill="#252422"/>
<path d="M4.917 61.4812C8.41197 65.2337 13.7338 66.6782 18.6465 65.2078C18.7129 65.1894 18.7793 65.1734 18.847 65.1599C24.1476 63.6661 29.837 64.5767 34.4067 67.6504L36.7828 69.2381C40.177 71.4829 44.3841 72.1278 48.2948 71.003C48.3637 70.9834 48.4337 70.966 48.5039 70.9525C54.0351 69.3792 59.9829 70.452 64.6157 73.8588C68.25 76.4755 70.4314 80.6578 70.4973 85.1358V90.6777C70.532 92.0161 71.1563 93.2707 72.2032 94.1054C73.4977 95.1642 75.1235 95.7342 76.7957 95.7155C79.9133 96.0199 82.7063 93.7861 83.0942 90.6777V78.0835C83.519 73.7951 87.1261 70.5277 91.4355 70.5277C95.7448 70.5277 99.3519 73.7954 99.7767 78.0835V83.1213C99.7935 83.7588 100.095 84.3555 100.599 84.7473C101.289 85.3377 102.172 85.6553 103.081 85.6402C104.674 85.8044 106.12 84.7013 106.384 83.1213V71.2316C106.499 68.4565 108.834 66.2955 111.61 66.3955C112.12 66.3911 112.628 66.4578 113.119 66.5936C120.317 68.7114 128.096 66.6388 133.286 61.2203C135.193 59.092 136.157 56.2828 135.959 53.4325C135.67 50.5373 134.257 47.871 132.021 46.0081C126.556 51.9445 118.241 54.346 110.451 52.2371L102.965 50.2951C97.1443 48.7912 91.0062 49.0658 85.3431 51.0836L70.9656 56.2481C67.1899 57.5917 63.2106 58.2741 59.2029 58.265C54.9404 58.273 50.7121 57.5068 46.7231 56.0045L37.1322 52.3247C33.7342 51.0343 30.1295 50.3742 26.4946 50.3766H21.8381C18.5286 50.3924 15.2953 49.3846 12.5805 47.4914C11.1551 46.4772 9.88121 45.2656 8.79657 43.8931C8.50978 44.5157 7.98027 44.9937 7.33147 45.2146L6.19008 46.1938C3.94531 47.9501 2.51603 50.5475 2.23391 53.3837C1.9518 56.22 2.84166 59.048 4.69687 61.212L4.917 61.4812Z" fill="#252422"/>
<path d="M140.368 77.6067L137.667 63.7891C137.478 64.0332 137.298 64.2819 137.094 64.518C130.607 71.3983 120.816 74.0701 111.734 71.4388C111.629 71.4375 111.524 71.4482 111.421 71.4708V83.1216C111.189 87.5046 107.464 90.8791 103.079 90.6783C100.959 90.7025 98.9026 89.9474 97.3012 88.5567C95.6898 87.2095 94.7523 85.222 94.7379 83.1216V78.0839C94.3296 76.5962 92.9772 75.565 91.4344 75.565C89.8916 75.565 88.5392 76.5962 88.1309 78.0839V90.678C87.7562 96.5776 82.6978 101.074 76.795 100.753C73.919 100.781 71.1277 99.7797 68.9248 97.9305C66.7517 96.1461 65.4822 93.4895 65.4588 90.6778V85.1358C65.4045 82.2365 63.9633 79.5388 61.5836 77.8819C58.1616 75.3876 53.7713 74.6343 49.7137 75.8452C49.6462 75.8647 49.5771 75.8807 49.5082 75.8945C44.2076 77.388 38.5183 76.4772 33.9486 73.404L31.5724 71.8163C28.1791 69.5696 23.9711 68.9244 20.0604 70.0514C19.9899 70.0724 19.9185 70.0894 19.8464 70.1032C13.6766 71.8458 7.04422 70.2864 2.2971 65.9771L0.347394 79.2809C-1.13727 90.0008 2.18304 100.83 9.42177 108.875C19.5425 120.048 34.0166 126.276 49.0886 125.942H91.9091C107.304 126.228 122.043 119.713 132.193 108.134C139.415 99.7287 142.423 88.4961 140.368 77.6067Z" fill="#252422"/>
</svg>
