<svg width="157" height="152" viewBox="0 0 157 152" fill="none" xmlns="http://www.w3.org/2000/svg">
<g clip-path="url(#clip0)">
<path d="M9.85807 122.432L11.2207 122.849C12.6997 123.295 14.2776 123.295 15.7566 122.849C17.3769 122.355 19.1025 122.32 20.7411 122.749L21.2466 122.882C22.8652 123.304 24.5769 123.194 26.1283 122.569L27.5116 122.005C27.9091 121.875 28.2212 121.564 28.3525 121.167C28.4673 120.576 28.3115 119.965 27.9279 119.501C26.1474 116.995 22.3872 114.298 18.3397 114.298C14.1924 114.298 11.0932 115.742 11.0932 117.033C11.0932 118.324 14.1923 119.768 18.3397 119.768C18.4074 119.771 18.4742 119.784 18.5378 119.808C18.6015 119.784 18.6682 119.771 18.736 119.768C20.387 119.768 21.6208 119.046 21.6208 118.4C21.6208 117.755 20.387 117.033 18.736 117.033C17.8978 117.007 17.0704 117.228 16.3565 117.668C16.0488 117.886 15.6227 117.814 15.4043 117.506C15.1858 117.199 15.2576 116.773 15.5647 116.554C16.5088 115.946 17.6137 115.637 18.736 115.666C21.1204 115.666 22.9881 116.867 22.9881 118.4C22.9881 119.934 21.1204 121.135 18.736 121.135C18.6683 121.132 18.6015 121.118 18.5378 121.095C18.4742 121.118 18.4074 121.132 18.3397 121.135C14.6573 121.135 11.654 120.143 10.3819 118.661L9.08901 120.083C8.76299 120.425 8.63931 120.912 8.76284 121.368C8.92084 121.888 9.33442 122.29 9.85807 122.432Z" fill="#252422"/>
<path d="M9.85807 122.432L11.2207 122.849C12.6997 123.295 14.2776 123.295 15.7566 122.849C17.3769 122.355 19.1025 122.32 20.7411 122.749L21.2466 122.882C22.8652 123.304 24.5769 123.194 26.1283 122.569L27.5116 122.005C27.9091 121.875 28.2212 121.564 28.3525 121.167C28.4673 120.576 28.3115 119.965 27.9279 119.501C26.1474 116.995 22.3872 114.298 18.3397 114.298C14.1924 114.298 11.0932 115.742 11.0932 117.033C11.0932 118.324 14.1923 119.768 18.3397 119.768C18.4074 119.771 18.4742 119.784 18.5378 119.808C18.6015 119.784 18.6682 119.771 18.736 119.768C20.387 119.768 21.6208 119.046 21.6208 118.4C21.6208 117.755 20.387 117.033 18.736 117.033C17.8978 117.007 17.0704 117.228 16.3565 117.668C16.0488 117.886 15.6227 117.814 15.4043 117.506C15.1858 117.199 15.2576 116.773 15.5647 116.554C16.5088 115.946 17.6137 115.637 18.736 115.666C21.1204 115.666 22.9881 116.867 22.9881 118.4C22.9881 119.934 21.1204 121.135 18.736 121.135C18.6683 121.132 18.6015 121.118 18.5378 121.095C18.4742 121.118 18.4074 121.132 18.3397 121.135C14.6573 121.135 11.654 120.143 10.3819 118.661L9.08901 120.083C8.76299 120.425 8.63931 120.912 8.76284 121.368C8.92084 121.888 9.33442 122.29 9.85807 122.432Z" fill="#FFFCF2"/>
<path d="M4.20796 126.075C4.71291 126.424 5.31343 126.609 5.92748 126.604H7.19095C8.34405 126.603 9.48765 126.813 10.5655 127.222L13.1693 128.222C14.981 128.9 16.9737 128.921 18.7987 128.278L22.7007 126.877C24.497 126.236 26.4438 126.149 28.2901 126.626L30.3194 127.152C31.959 127.606 33.7144 127.095 34.8549 125.833C34.8666 125.819 34.9191 125.764 34.932 125.751C35.3412 125.25 35.5311 124.605 35.4586 123.962C35.386 123.319 35.0573 122.733 34.5468 122.336C33.5626 121.505 32.3674 120.963 31.0937 120.77L29.7564 120.554C29.7877 120.889 29.7571 121.226 29.666 121.549C29.4174 122.347 28.8118 122.983 28.0276 123.272L26.6446 123.835C24.8192 124.571 22.8055 124.7 20.9009 124.204L20.3955 124.072C19.0021 123.706 17.5345 123.736 16.1567 124.156C14.4172 124.681 12.5615 124.681 10.8219 124.156L9.45931 123.74C8.48664 123.462 7.72566 122.702 7.44473 121.73C7.34005 121.349 7.32091 120.949 7.38873 120.56L4.88437 120.914C4.18373 120.991 3.55622 121.383 3.17824 121.978C2.36992 123.399 2.82366 125.205 4.20796 126.075Z" fill="#252422"/>
<path d="M4.20796 126.075C4.71291 126.424 5.31343 126.609 5.92748 126.604H7.19095C8.34405 126.603 9.48765 126.813 10.5655 127.222L13.1693 128.222C14.981 128.9 16.9737 128.921 18.7987 128.278L22.7007 126.877C24.497 126.236 26.4438 126.149 28.2901 126.626L30.3194 127.152C31.959 127.606 33.7144 127.095 34.8549 125.833C34.8666 125.819 34.9191 125.764 34.932 125.751C35.3412 125.25 35.5311 124.605 35.4586 123.962C35.386 123.319 35.0573 122.733 34.5468 122.336C33.5626 121.505 32.3674 120.963 31.0937 120.77L29.7564 120.554C29.7877 120.889 29.7571 121.226 29.666 121.549C29.4174 122.347 28.8118 122.983 28.0276 123.272L26.6446 123.835C24.8192 124.571 22.8055 124.7 20.9009 124.204L20.3955 124.072C19.0021 123.706 17.5345 123.736 16.1567 124.156C14.4172 124.681 12.5615 124.681 10.8219 124.156L9.45931 123.74C8.48664 123.462 7.72566 122.702 7.44473 121.73C7.34005 121.349 7.32091 120.949 7.38873 120.56L4.88437 120.914C4.18373 120.991 3.55622 121.383 3.17824 121.978C2.36992 123.399 2.82366 125.205 4.20796 126.075Z" fill="#FFFCF2"/>
<path d="M1.33493 130.985C2.28352 132.004 3.72794 132.396 5.06132 131.997C5.07935 131.992 5.09737 131.987 5.11576 131.984C6.55443 131.578 8.0986 131.825 9.33889 132.66L9.98382 133.09C10.905 133.7 12.0469 133.875 13.1084 133.569C13.127 133.564 13.146 133.559 13.1651 133.556C14.6664 133.129 16.2807 133.42 17.5381 134.345C18.5245 135.055 19.1166 136.19 19.1344 137.405V138.91C19.1439 139.273 19.3133 139.613 19.5975 139.84C19.9488 140.127 20.3901 140.282 20.8439 140.277C21.6901 140.359 22.4482 139.753 22.5534 138.91V135.491C22.6687 134.327 23.6478 133.44 24.8174 133.44C25.987 133.44 26.9661 134.327 27.0814 135.491V136.859C27.0859 137.032 27.1678 137.194 27.3044 137.3C27.4919 137.46 27.7314 137.546 27.9781 137.542C28.4105 137.587 28.8031 137.287 28.8747 136.859V133.632C28.9059 132.878 29.5396 132.292 30.2931 132.319C30.4314 132.318 30.5693 132.336 30.7027 132.373C32.6564 132.947 34.7676 132.385 36.1763 130.914C36.6938 130.337 36.9554 129.574 36.9017 128.801C36.8235 128.015 36.4397 127.291 35.8331 126.785C34.3496 128.397 32.0928 129.049 29.9786 128.476L27.9467 127.949C26.3669 127.541 24.7009 127.615 23.1638 128.163L19.2616 129.565C18.2368 129.929 17.1567 130.115 16.069 130.112C14.9121 130.114 13.7644 129.906 12.6818 129.499L10.0786 128.5C9.15636 128.15 8.17801 127.97 7.19143 127.971H5.92759C5.02932 127.975 4.15176 127.702 3.41493 127.188C3.02805 126.913 2.68229 126.584 2.3879 126.211C2.31006 126.38 2.16635 126.51 1.99025 126.57L1.68046 126.836C1.0712 127.313 0.683266 128.018 0.606696 128.787C0.530127 129.557 0.771649 130.325 1.27518 130.912L1.33493 130.985Z" fill="#252422"/>
<path d="M1.33493 130.985C2.28352 132.004 3.72794 132.396 5.06132 131.997C5.07935 131.992 5.09737 131.987 5.11576 131.984C6.55443 131.578 8.0986 131.825 9.33889 132.66L9.98382 133.09C10.905 133.7 12.0469 133.875 13.1084 133.569C13.127 133.564 13.146 133.559 13.1651 133.556C14.6664 133.129 16.2807 133.42 17.5381 134.345C18.5245 135.055 19.1166 136.19 19.1344 137.405V138.91C19.1439 139.273 19.3133 139.613 19.5975 139.84C19.9488 140.127 20.3901 140.282 20.8439 140.277C21.6901 140.359 22.4482 139.753 22.5534 138.91V135.491C22.6687 134.327 23.6478 133.44 24.8174 133.44C25.987 133.44 26.9661 134.327 27.0814 135.491V136.859C27.0859 137.032 27.1678 137.194 27.3044 137.3C27.4919 137.46 27.7314 137.546 27.9781 137.542C28.4105 137.587 28.8031 137.287 28.8747 136.859V133.632C28.9059 132.878 29.5396 132.292 30.2931 132.319C30.4314 132.318 30.5693 132.336 30.7027 132.373C32.6564 132.947 34.7676 132.385 36.1763 130.914C36.6938 130.337 36.9554 129.574 36.9017 128.801C36.8235 128.015 36.4397 127.291 35.8331 126.785C34.3496 128.397 32.0928 129.049 29.9786 128.476L27.9467 127.949C26.3669 127.541 24.7009 127.615 23.1638 128.163L19.2616 129.565C18.2368 129.929 17.1567 130.115 16.069 130.112C14.9121 130.114 13.7644 129.906 12.6818 129.499L10.0786 128.5C9.15636 128.15 8.17801 127.97 7.19143 127.971H5.92759C5.02932 127.975 4.15176 127.702 3.41493 127.188C3.02805 126.913 2.68229 126.584 2.3879 126.211C2.31006 126.38 2.16635 126.51 1.99025 126.57L1.68046 126.836C1.0712 127.313 0.683266 128.018 0.606696 128.787C0.530127 129.557 0.771649 130.325 1.27518 130.912L1.33493 130.985Z" fill="#FFFCF2"/>
<path d="M38.098 135.362L37.365 131.612C37.3137 131.678 37.2649 131.746 37.2094 131.81C35.4489 133.677 32.7915 134.402 30.3264 133.688C30.2978 133.688 30.2692 133.691 30.2413 133.697V136.859C30.1785 138.049 29.1674 138.964 27.9774 138.91C27.4018 138.917 26.8437 138.712 26.4091 138.334C25.9717 137.968 25.7173 137.429 25.7134 136.859V135.492C25.6025 135.088 25.2355 134.808 24.8167 134.808C24.398 134.808 24.0309 135.088 23.9201 135.492V138.91C23.8184 140.511 22.4455 141.731 20.8434 141.644C20.0628 141.652 19.3052 141.38 18.7073 140.878C18.1175 140.394 17.7729 139.673 17.7665 138.91V137.406C17.7518 136.619 17.3607 135.887 16.7148 135.437C15.786 134.76 14.5944 134.555 13.4931 134.884C13.4748 134.889 13.456 134.894 13.4373 134.897C11.9986 135.303 10.4545 135.056 9.21418 134.221L8.56925 133.791C7.64825 133.181 6.50614 133.006 5.44472 133.312C5.42557 133.317 5.40621 133.322 5.38662 133.326C3.71204 133.799 1.91191 133.375 0.623469 132.206L0.0942883 135.817C-0.308672 138.726 0.592512 141.665 2.55722 143.849C5.30414 146.881 9.23265 148.572 13.3234 148.481H24.9456C29.1241 148.559 33.1244 146.79 35.8794 143.648C37.8394 141.366 38.6557 138.318 38.098 135.362Z" fill="#252422"/>
<path d="M38.098 135.362L37.365 131.612C37.3137 131.678 37.2649 131.746 37.2094 131.81C35.4489 133.677 32.7915 134.402 30.3264 133.688C30.2978 133.688 30.2692 133.691 30.2413 133.697V136.859C30.1785 138.049 29.1674 138.964 27.9774 138.91C27.4018 138.917 26.8437 138.712 26.4091 138.334C25.9717 137.968 25.7173 137.429 25.7134 136.859V135.492C25.6025 135.088 25.2355 134.808 24.8167 134.808C24.398 134.808 24.0309 135.088 23.9201 135.492V138.91C23.8184 140.511 22.4455 141.731 20.8434 141.644C20.0628 141.652 19.3052 141.38 18.7073 140.878C18.1175 140.394 17.7729 139.673 17.7665 138.91V137.406C17.7518 136.619 17.3607 135.887 16.7148 135.437C15.786 134.76 14.5944 134.555 13.4931 134.884C13.4748 134.889 13.456 134.894 13.4373 134.897C11.9986 135.303 10.4545 135.056 9.21418 134.221L8.56925 133.791C7.64825 133.181 6.50614 133.006 5.44472 133.312C5.42557 133.317 5.40621 133.322 5.38662 133.326C3.71204 133.799 1.91191 133.375 0.623469 132.206L0.0942883 135.817C-0.308672 138.726 0.592512 141.665 2.55722 143.849C5.30414 146.881 9.23265 148.572 13.3234 148.481H24.9456C29.1241 148.559 33.1244 146.79 35.8794 143.648C37.8394 141.366 38.6557 138.318 38.098 135.362Z" fill="#FFFCF2"/>
<path d="M48.1276 122.404L49.4902 122.82C50.9692 123.266 52.5472 123.266 54.0261 122.82C55.6464 122.326 57.372 122.292 59.0107 122.721L59.5161 122.853C61.1347 123.275 62.8464 123.165 64.3978 122.54L65.7812 121.977C66.1787 121.846 66.4908 121.535 66.6221 121.138C66.7369 120.547 66.581 119.936 66.1974 119.472C64.4169 116.966 60.6568 114.27 56.6092 114.27C52.4619 114.27 49.3627 115.713 49.3627 117.004C49.3627 118.295 52.4618 119.739 56.6092 119.739C56.6769 119.742 56.7437 119.755 56.8074 119.779C56.871 119.755 56.9378 119.742 57.0055 119.739C58.6566 119.739 59.8903 119.017 59.8903 118.371C59.8903 117.726 58.6566 117.004 57.0055 117.004C56.1673 116.978 55.3399 117.199 54.626 117.639C54.3183 117.857 53.8922 117.785 53.6738 117.478C53.4554 117.17 53.5272 116.744 53.8343 116.525C54.7783 115.917 55.8832 115.608 57.0055 115.637C59.3899 115.637 61.2577 116.838 61.2577 118.371C61.2577 119.905 59.3899 121.106 57.0055 121.106C56.9379 121.103 56.871 121.089 56.8074 121.066C56.7437 121.089 56.677 121.103 56.6092 121.106C52.9269 121.106 49.9235 120.114 48.6514 118.632L47.3585 120.054C47.0325 120.396 46.9088 120.883 47.0324 121.34C47.1904 121.859 47.6039 122.261 48.1276 122.404Z" fill="#252422"/>
<path d="M48.1276 122.404L49.4902 122.82C50.9692 123.266 52.5472 123.266 54.0261 122.82C55.6464 122.326 57.372 122.292 59.0107 122.721L59.5161 122.853C61.1347 123.275 62.8464 123.165 64.3978 122.54L65.7812 121.977C66.1787 121.846 66.4908 121.535 66.6221 121.138C66.7369 120.547 66.581 119.936 66.1974 119.472C64.4169 116.966 60.6568 114.27 56.6092 114.27C52.4619 114.27 49.3627 115.713 49.3627 117.004C49.3627 118.295 52.4618 119.739 56.6092 119.739C56.6769 119.742 56.7437 119.755 56.8074 119.779C56.871 119.755 56.9378 119.742 57.0055 119.739C58.6566 119.739 59.8903 119.017 59.8903 118.371C59.8903 117.726 58.6566 117.004 57.0055 117.004C56.1673 116.978 55.3399 117.199 54.626 117.639C54.3183 117.857 53.8922 117.785 53.6738 117.478C53.4554 117.17 53.5272 116.744 53.8343 116.525C54.7783 115.917 55.8832 115.608 57.0055 115.637C59.3899 115.637 61.2577 116.838 61.2577 118.371C61.2577 119.905 59.3899 121.106 57.0055 121.106C56.9379 121.103 56.871 121.089 56.8074 121.066C56.7437 121.089 56.677 121.103 56.6092 121.106C52.9269 121.106 49.9235 120.114 48.6514 118.632L47.3585 120.054C47.0325 120.396 46.9088 120.883 47.0324 121.34C47.1904 121.859 47.6039 122.261 48.1276 122.404Z" fill="#FFFCF2"/>
<path d="M42.4775 126.046C42.9824 126.395 43.583 126.58 44.197 126.575H45.4605C46.6136 126.574 47.7572 126.784 48.8351 127.194L51.4388 128.193C53.2505 128.872 55.2432 128.892 57.0683 128.25L60.9702 126.848C62.7665 126.208 64.7133 126.12 66.5596 126.597L68.5889 127.124C70.2285 127.577 71.9839 127.067 73.1244 125.804C73.1361 125.79 73.1886 125.735 73.2015 125.722C73.6108 125.221 73.8006 124.576 73.7281 123.933C73.6555 123.291 73.3268 122.704 72.8163 122.307C71.8322 121.476 70.6369 120.934 69.3632 120.741L68.0259 120.525C68.0572 120.86 68.0266 121.197 67.9355 121.52C67.6869 122.318 67.0814 122.955 66.2971 123.243L64.9141 123.806C63.0888 124.542 61.075 124.672 59.1704 124.175L58.665 124.043C57.2716 123.678 55.804 123.707 54.4262 124.128C52.6867 124.652 50.831 124.652 49.0915 124.128L47.7288 123.711C46.7562 123.433 45.9952 122.674 45.7143 121.702C45.6096 121.32 45.5904 120.921 45.6583 120.531L43.1539 120.885C42.4533 120.963 41.8258 121.354 41.4478 121.949C40.6395 123.37 41.0932 125.176 42.4775 126.046Z" fill="#252422"/>
<path d="M42.4775 126.046C42.9824 126.395 43.583 126.58 44.197 126.575H45.4605C46.6136 126.574 47.7572 126.784 48.8351 127.194L51.4388 128.193C53.2505 128.872 55.2432 128.892 57.0683 128.25L60.9702 126.848C62.7665 126.208 64.7133 126.12 66.5596 126.597L68.5889 127.124C70.2285 127.577 71.9839 127.067 73.1244 125.804C73.1361 125.79 73.1886 125.735 73.2015 125.722C73.6108 125.221 73.8006 124.576 73.7281 123.933C73.6555 123.291 73.3268 122.704 72.8163 122.307C71.8322 121.476 70.6369 120.934 69.3632 120.741L68.0259 120.525C68.0572 120.86 68.0266 121.197 67.9355 121.52C67.6869 122.318 67.0814 122.955 66.2971 123.243L64.9141 123.806C63.0888 124.542 61.075 124.672 59.1704 124.175L58.665 124.043C57.2716 123.678 55.804 123.707 54.4262 124.128C52.6867 124.652 50.831 124.652 49.0915 124.128L47.7288 123.711C46.7562 123.433 45.9952 122.674 45.7143 121.702C45.6096 121.32 45.5904 120.921 45.6583 120.531L43.1539 120.885C42.4533 120.963 41.8258 121.354 41.4478 121.949C40.6395 123.37 41.0932 125.176 42.4775 126.046Z" fill="#FFFCF2"/>
<path d="M39.6045 130.956C40.5531 131.975 41.9975 132.367 43.3309 131.968C43.3489 131.963 43.3669 131.958 43.3853 131.955C44.824 131.549 46.3681 131.796 47.6084 132.631L48.2533 133.062C49.1746 133.671 50.3165 133.846 51.3779 133.541C51.3966 133.535 51.4156 133.531 51.4346 133.527C52.9359 133.1 54.5502 133.391 55.8076 134.316C56.794 135.026 57.3861 136.161 57.404 137.377V138.881C57.4134 139.244 57.5828 139.584 57.867 139.811C58.2184 140.098 58.6596 140.253 59.1135 140.248C59.9596 140.331 60.7177 139.724 60.823 138.881V135.462C60.9383 134.299 61.9173 133.412 63.0869 133.412C64.2566 133.412 65.2356 134.299 65.3509 135.462V136.83C65.3554 137.003 65.4373 137.165 65.5739 137.271C65.7614 137.431 66.001 137.518 66.2476 137.513C66.6801 137.558 67.0726 137.259 67.1442 136.83V133.603C67.1754 132.85 67.8092 132.263 68.5626 132.29C68.7009 132.289 68.8388 132.307 68.9722 132.344C70.9259 132.919 73.0371 132.356 74.4458 130.885C74.9633 130.308 75.225 129.545 75.1712 128.772C75.093 127.986 74.7092 127.262 74.1026 126.757C72.6191 128.368 70.3623 129.02 68.2482 128.447L66.2163 127.92C64.6364 127.512 62.9704 127.587 61.4334 128.134L57.5311 129.536C56.5063 129.901 55.4263 130.086 54.3385 130.083C53.1816 130.086 52.034 129.878 50.9513 129.47L48.3482 128.471C47.4259 128.121 46.4475 127.942 45.461 127.942H44.1971C43.2989 127.947 42.4213 127.673 41.6845 127.159C41.2976 126.884 40.9518 126.555 40.6574 126.183C40.5796 126.352 40.4359 126.481 40.2598 126.541L39.95 126.807C39.3407 127.284 38.9528 127.989 38.8762 128.759C38.7997 129.528 39.0412 130.296 39.5447 130.883L39.6045 130.956Z" fill="#252422"/>
<path d="M39.6045 130.956C40.5531 131.975 41.9975 132.367 43.3309 131.968C43.3489 131.963 43.3669 131.958 43.3853 131.955C44.824 131.549 46.3681 131.796 47.6084 132.631L48.2533 133.062C49.1746 133.671 50.3165 133.846 51.3779 133.541C51.3966 133.535 51.4156 133.531 51.4346 133.527C52.9359 133.1 54.5502 133.391 55.8076 134.316C56.794 135.026 57.3861 136.161 57.404 137.377V138.881C57.4134 139.244 57.5828 139.584 57.867 139.811C58.2184 140.098 58.6596 140.253 59.1135 140.248C59.9596 140.331 60.7177 139.724 60.823 138.881V135.462C60.9383 134.299 61.9173 133.412 63.0869 133.412C64.2566 133.412 65.2356 134.299 65.3509 135.462V136.83C65.3554 137.003 65.4373 137.165 65.5739 137.271C65.7614 137.431 66.001 137.518 66.2476 137.513C66.6801 137.558 67.0726 137.259 67.1442 136.83V133.603C67.1754 132.85 67.8092 132.263 68.5626 132.29C68.7009 132.289 68.8388 132.307 68.9722 132.344C70.9259 132.919 73.0371 132.356 74.4458 130.885C74.9633 130.308 75.225 129.545 75.1712 128.772C75.093 127.986 74.7092 127.262 74.1026 126.757C72.6191 128.368 70.3623 129.02 68.2482 128.447L66.2163 127.92C64.6364 127.512 62.9704 127.587 61.4334 128.134L57.5311 129.536C56.5063 129.901 55.4263 130.086 54.3385 130.083C53.1816 130.086 52.034 129.878 50.9513 129.47L48.3482 128.471C47.4259 128.121 46.4475 127.942 45.461 127.942H44.1971C43.2989 127.947 42.4213 127.673 41.6845 127.159C41.2976 126.884 40.9518 126.555 40.6574 126.183C40.5796 126.352 40.4359 126.481 40.2598 126.541L39.95 126.807C39.3407 127.284 38.9528 127.989 38.8762 128.759C38.7997 129.528 39.0412 130.296 39.5447 130.883L39.6045 130.956Z" fill="#FFFCF2"/>
<path d="M76.3675 135.333L75.6345 131.583C75.5832 131.649 75.5344 131.717 75.4789 131.781C73.7184 133.648 71.061 134.373 68.596 133.659C68.5673 133.659 68.5388 133.662 68.5109 133.668V136.83C68.448 138.02 67.437 138.936 66.2469 138.881C65.6713 138.888 65.1133 138.683 64.6786 138.305C64.2412 137.94 63.9868 137.4 63.9829 136.83V135.463C63.8721 135.059 63.505 134.779 63.0863 134.779C62.6675 134.779 62.3005 135.059 62.1896 135.463V138.881C62.088 140.482 60.715 141.703 59.1129 141.616C58.3323 141.623 57.5747 141.351 56.9768 140.85C56.387 140.365 56.0424 139.644 56.0361 138.881V137.377C56.0213 136.59 55.6302 135.858 54.9843 135.408C54.0555 134.731 52.8639 134.527 51.7626 134.855C51.7443 134.861 51.7255 134.865 51.7068 134.869C50.2682 135.274 48.724 135.027 47.4837 134.193L46.8388 133.762C45.9178 133.152 44.7757 132.977 43.7142 133.283C43.6951 133.288 43.6757 133.293 43.6561 133.297C41.9816 133.77 40.1814 133.346 38.893 132.177L38.3638 135.788C37.9609 138.697 38.862 141.636 40.8267 143.82C43.5737 146.853 47.5022 148.543 51.593 148.452H63.2151C67.3936 148.53 71.3939 146.762 74.1489 143.619C76.109 141.338 76.9253 138.289 76.3675 135.333Z" fill="#252422"/>
<path d="M76.3675 135.333L75.6345 131.583C75.5832 131.649 75.5344 131.717 75.4789 131.781C73.7184 133.648 71.061 134.373 68.596 133.659C68.5673 133.659 68.5388 133.662 68.5109 133.668V136.83C68.448 138.02 67.437 138.936 66.2469 138.881C65.6713 138.888 65.1133 138.683 64.6786 138.305C64.2412 137.94 63.9868 137.4 63.9829 136.83V135.463C63.8721 135.059 63.505 134.779 63.0863 134.779C62.6675 134.779 62.3005 135.059 62.1896 135.463V138.881C62.088 140.482 60.715 141.703 59.1129 141.616C58.3323 141.623 57.5747 141.351 56.9768 140.85C56.387 140.365 56.0424 139.644 56.0361 138.881V137.377C56.0213 136.59 55.6302 135.858 54.9843 135.408C54.0555 134.731 52.8639 134.527 51.7626 134.855C51.7443 134.861 51.7255 134.865 51.7068 134.869C50.2682 135.274 48.724 135.027 47.4837 134.193L46.8388 133.762C45.9178 133.152 44.7757 132.977 43.7142 133.283C43.6951 133.288 43.6757 133.293 43.6561 133.297C41.9816 133.77 40.1814 133.346 38.893 132.177L38.3638 135.788C37.9609 138.697 38.862 141.636 40.8267 143.82C43.5737 146.853 47.5022 148.543 51.593 148.452H63.2151C67.3936 148.53 71.3939 146.762 74.1489 143.619C76.109 141.338 76.9253 138.289 76.3675 135.333Z" fill="#FFFCF2"/>
<path d="M28.7233 88.446L30.0859 88.8623C31.5649 89.3089 33.1429 89.3089 34.6218 88.8623C36.2421 88.3683 37.9677 88.334 39.6064 88.7631L40.1118 88.8953C41.7304 89.3177 43.4421 89.208 44.9935 88.5822L46.3769 88.0191C46.7744 87.8889 47.0865 87.5777 47.2178 87.1806C47.3326 86.5898 47.1767 85.9787 46.7931 85.5148C45.0126 83.0089 41.2525 80.312 37.2049 80.312C33.0576 80.312 29.9584 81.7558 29.9584 83.0466C29.9584 84.3374 33.0575 85.7812 37.2049 85.7812C37.2726 85.7843 37.3394 85.7979 37.4031 85.8212C37.4667 85.7979 37.5335 85.7843 37.6012 85.7812C39.2522 85.7812 40.486 85.0595 40.486 84.4139C40.486 83.7682 39.2522 83.0465 37.6012 83.0465C36.763 83.0207 35.9356 83.2415 35.2217 83.6818C34.914 83.8999 34.4879 83.8275 34.2695 83.52C34.0511 83.2126 34.1229 82.7864 34.43 82.5675C35.374 81.9599 36.4789 81.6504 37.6012 81.6793C39.9856 81.6793 41.8534 82.8804 41.8534 84.4139C41.8534 85.9473 39.9856 87.1484 37.6012 87.1484C37.5336 87.1453 37.4667 87.1318 37.4031 87.1084C37.3394 87.1318 37.2727 87.1453 37.2049 87.1484C33.5226 87.1484 30.5192 86.1567 29.2471 84.6745L27.9542 86.0962C27.6282 86.4384 27.5045 86.9259 27.6281 87.382C27.7861 87.9014 28.1997 88.3032 28.7233 88.446Z" fill="#252422"/>
<path d="M28.7233 88.446L30.0859 88.8623C31.5649 89.3089 33.1429 89.3089 34.6218 88.8623C36.2421 88.3683 37.9677 88.334 39.6064 88.7631L40.1118 88.8953C41.7304 89.3177 43.4421 89.208 44.9935 88.5822L46.3769 88.0191C46.7744 87.8889 47.0865 87.5777 47.2178 87.1806C47.3326 86.5898 47.1767 85.9787 46.7931 85.5148C45.0126 83.0089 41.2525 80.312 37.2049 80.312C33.0576 80.312 29.9584 81.7558 29.9584 83.0466C29.9584 84.3374 33.0575 85.7812 37.2049 85.7812C37.2726 85.7843 37.3394 85.7979 37.4031 85.8212C37.4667 85.7979 37.5335 85.7843 37.6012 85.7812C39.2522 85.7812 40.486 85.0595 40.486 84.4139C40.486 83.7682 39.2522 83.0465 37.6012 83.0465C36.763 83.0207 35.9356 83.2415 35.2217 83.6818C34.914 83.8999 34.4879 83.8275 34.2695 83.52C34.0511 83.2126 34.1229 82.7864 34.43 82.5675C35.374 81.9599 36.4789 81.6504 37.6012 81.6793C39.9856 81.6793 41.8534 82.8804 41.8534 84.4139C41.8534 85.9473 39.9856 87.1484 37.6012 87.1484C37.5336 87.1453 37.4667 87.1318 37.4031 87.1084C37.3394 87.1318 37.2727 87.1453 37.2049 87.1484C33.5226 87.1484 30.5192 86.1567 29.2471 84.6745L27.9542 86.0962C27.6282 86.4384 27.5045 86.9259 27.6281 87.382C27.7861 87.9014 28.1997 88.3032 28.7233 88.446Z" fill="#FFFCF2"/>
<path d="M23.0732 92.0882C23.5781 92.4376 24.1787 92.6225 24.7927 92.6176H26.0562C27.2093 92.6168 28.3529 92.8264 29.4308 93.2361L32.0345 94.2353C33.8462 94.9141 35.839 94.9343 37.664 94.292L41.566 92.8904C43.3622 92.2501 45.309 92.1628 47.1554 92.6396L49.1846 93.1661C50.8243 93.6196 52.5796 93.1092 53.7201 91.8468C53.7318 91.8325 53.7843 91.7777 53.7972 91.7643C54.2065 91.2634 54.3963 90.6186 54.3238 89.9759C54.2513 89.3331 53.9225 88.7468 53.412 88.3498C52.4279 87.5186 51.2326 86.9765 49.959 86.7838L48.6216 86.5679C48.653 86.9022 48.6223 87.2394 48.5312 87.5626C48.2826 88.3603 47.6771 88.997 46.8928 89.2854L45.5098 89.8485C43.6845 90.5846 41.6707 90.7141 39.7661 90.2177L39.2607 90.0855C37.8673 89.72 36.3997 89.7492 35.0219 90.17C33.2824 90.6948 31.4267 90.6948 29.6872 90.17L28.3245 89.7537C27.3519 89.4753 26.5909 88.7161 26.31 87.7442C26.2053 87.3628 26.1861 86.9631 26.254 86.5735L23.7496 86.9273C23.049 87.0051 22.4215 87.3964 22.0435 87.9915C21.2352 89.4125 21.6889 91.2183 23.0732 92.0882Z" fill="#252422"/>
<path d="M23.0732 92.0882C23.5781 92.4376 24.1787 92.6225 24.7927 92.6176H26.0562C27.2093 92.6168 28.3529 92.8264 29.4308 93.2361L32.0345 94.2353C33.8462 94.9141 35.839 94.9343 37.664 94.292L41.566 92.8904C43.3622 92.2501 45.309 92.1628 47.1554 92.6396L49.1846 93.1661C50.8243 93.6196 52.5796 93.1092 53.7201 91.8468C53.7318 91.8325 53.7843 91.7777 53.7972 91.7643C54.2065 91.2634 54.3963 90.6186 54.3238 89.9759C54.2513 89.3331 53.9225 88.7468 53.412 88.3498C52.4279 87.5186 51.2326 86.9765 49.959 86.7838L48.6216 86.5679C48.653 86.9022 48.6223 87.2394 48.5312 87.5626C48.2826 88.3603 47.6771 88.997 46.8928 89.2854L45.5098 89.8485C43.6845 90.5846 41.6707 90.7141 39.7661 90.2177L39.2607 90.0855C37.8673 89.72 36.3997 89.7492 35.0219 90.17C33.2824 90.6948 31.4267 90.6948 29.6872 90.17L28.3245 89.7537C27.3519 89.4753 26.5909 88.7161 26.31 87.7442C26.2053 87.3628 26.1861 86.9631 26.254 86.5735L23.7496 86.9273C23.049 87.0051 22.4215 87.3964 22.0435 87.9915C21.2352 89.4125 21.6889 91.2183 23.0732 92.0882Z" fill="#FFFCF2"/>
<path d="M20.2002 96.9988C21.1488 98.0173 22.5932 98.4093 23.9266 98.0103C23.9446 98.0053 23.9626 98.0009 23.981 97.9973C25.4197 97.5918 26.9638 97.839 28.2041 98.6732L28.8491 99.1041C29.7703 99.7134 30.9122 99.8885 31.9736 99.5831C31.9923 99.5778 32.0113 99.5731 32.0303 99.5695C33.5316 99.1424 35.1459 99.4336 36.4033 100.358C37.3897 101.068 37.9818 102.204 37.9997 103.419V104.923C38.0091 105.286 38.1785 105.627 38.4627 105.854C38.8141 106.141 39.2553 106.296 39.7092 106.291C40.5553 106.373 41.3134 105.767 41.4187 104.923V101.505C41.534 100.341 42.513 99.4542 43.6826 99.4542C44.8523 99.4542 45.8313 100.341 45.9466 101.505V102.872C45.9512 103.045 46.033 103.207 46.1696 103.314C46.3571 103.474 46.5967 103.56 46.8433 103.556C47.2758 103.6 47.6684 103.301 47.7399 102.872V99.6452C47.7711 98.892 48.4049 98.3055 49.1583 98.3326C49.2966 98.3314 49.4345 98.3495 49.5679 98.3864C51.5216 98.9612 53.6328 98.3986 55.0415 96.928C55.559 96.3503 55.8207 95.5879 55.7669 94.8142C55.6887 94.0284 55.3049 93.3048 54.6983 92.7991C53.2148 94.4104 50.958 95.0622 48.8439 94.4898L46.812 93.9627C45.2321 93.5545 43.5661 93.6291 42.0291 94.1767L38.1268 95.5784C37.102 95.9431 36.022 96.1283 34.9342 96.1259C33.7773 96.128 32.6297 95.9201 31.547 95.5123L28.9439 94.5136C28.0216 94.1633 27.0432 93.9842 26.0567 93.9848H24.7928C23.8946 93.9891 23.017 93.7156 22.2802 93.2017C21.8933 92.9265 21.5475 92.5976 21.2531 92.2251C21.1753 92.3941 21.0316 92.5238 20.8555 92.5838L20.5457 92.8495C19.9364 93.3262 19.5485 94.0312 19.4719 94.801C19.3954 95.5708 19.6369 96.3384 20.1404 96.9257L20.2002 96.9988Z" fill="#252422"/>
<path d="M20.2002 96.9988C21.1488 98.0173 22.5932 98.4093 23.9266 98.0103C23.9446 98.0053 23.9626 98.0009 23.981 97.9973C25.4197 97.5918 26.9638 97.839 28.2041 98.6732L28.8491 99.1041C29.7703 99.7134 30.9122 99.8885 31.9736 99.5831C31.9923 99.5778 32.0113 99.5731 32.0303 99.5695C33.5316 99.1424 35.1459 99.4336 36.4033 100.358C37.3897 101.068 37.9818 102.204 37.9997 103.419V104.923C38.0091 105.286 38.1785 105.627 38.4627 105.854C38.8141 106.141 39.2553 106.296 39.7092 106.291C40.5553 106.373 41.3134 105.767 41.4187 104.923V101.505C41.534 100.341 42.513 99.4542 43.6826 99.4542C44.8523 99.4542 45.8313 100.341 45.9466 101.505V102.872C45.9512 103.045 46.033 103.207 46.1696 103.314C46.3571 103.474 46.5967 103.56 46.8433 103.556C47.2758 103.6 47.6684 103.301 47.7399 102.872V99.6452C47.7711 98.892 48.4049 98.3055 49.1583 98.3326C49.2966 98.3314 49.4345 98.3495 49.5679 98.3864C51.5216 98.9612 53.6328 98.3986 55.0415 96.928C55.559 96.3503 55.8207 95.5879 55.7669 94.8142C55.6887 94.0284 55.3049 93.3048 54.6983 92.7991C53.2148 94.4104 50.958 95.0622 48.8439 94.4898L46.812 93.9627C45.2321 93.5545 43.5661 93.6291 42.0291 94.1767L38.1268 95.5784C37.102 95.9431 36.022 96.1283 34.9342 96.1259C33.7773 96.128 32.6297 95.9201 31.547 95.5123L28.9439 94.5136C28.0216 94.1633 27.0432 93.9842 26.0567 93.9848H24.7928C23.8946 93.9891 23.017 93.7156 22.2802 93.2017C21.8933 92.9265 21.5475 92.5976 21.2531 92.2251C21.1753 92.3941 21.0316 92.5238 20.8555 92.5838L20.5457 92.8495C19.9364 93.3262 19.5485 94.0312 19.4719 94.801C19.3954 95.5708 19.6369 96.3384 20.1404 96.9257L20.2002 96.9988Z" fill="#FFFCF2"/>
<path d="M56.9632 101.376L56.2302 97.6255C56.1789 97.6917 56.1301 97.7593 56.0746 97.8233C54.3141 99.6908 51.6567 100.416 49.1917 99.7018C49.163 99.7014 49.1345 99.7043 49.1066 99.7104V102.873C49.0437 104.062 48.0327 104.978 46.8426 104.924C46.267 104.93 45.709 104.725 45.2743 104.348C44.8369 103.982 44.5825 103.443 44.5786 102.873V101.505C44.4678 101.102 44.1007 100.822 43.682 100.822C43.2632 100.822 42.8962 101.102 42.7854 101.505V104.924C42.6837 106.525 41.3107 107.745 39.7086 107.658C38.928 107.666 38.1704 107.394 37.5725 106.892C36.9827 106.408 36.6381 105.687 36.6318 104.924V103.419C36.617 102.632 36.2259 101.9 35.58 101.451C34.6512 100.774 33.4596 100.569 32.3583 100.898C32.34 100.903 32.3212 100.907 32.3025 100.911C30.8639 101.316 29.3197 101.069 28.0794 100.235L27.4345 99.8042C26.5135 99.1944 25.3714 99.0193 24.31 99.3252C24.2908 99.3309 24.2714 99.3355 24.2519 99.3393C22.5773 99.8122 20.7771 99.389 19.4887 98.2193L18.9595 101.83C18.5566 104.74 19.4577 107.679 21.4225 109.862C24.1694 112.895 28.0979 114.585 32.1887 114.495H43.8108C47.9893 114.572 51.9896 112.804 54.7446 109.662C56.7047 107.38 57.521 104.331 56.9632 101.376Z" fill="#252422"/>
<path d="M56.9632 101.376L56.2302 97.6255C56.1789 97.6917 56.1301 97.7593 56.0746 97.8233C54.3141 99.6908 51.6567 100.416 49.1917 99.7018C49.163 99.7014 49.1345 99.7043 49.1066 99.7104V102.873C49.0437 104.062 48.0327 104.978 46.8426 104.924C46.267 104.93 45.709 104.725 45.2743 104.348C44.8369 103.982 44.5825 103.443 44.5786 102.873V101.505C44.4678 101.102 44.1007 100.822 43.682 100.822C43.2632 100.822 42.8962 101.102 42.7854 101.505V104.924C42.6837 106.525 41.3107 107.745 39.7086 107.658C38.928 107.666 38.1704 107.394 37.5725 106.892C36.9827 106.408 36.6381 105.687 36.6318 104.924V103.419C36.617 102.632 36.2259 101.9 35.58 101.451C34.6512 100.774 33.4596 100.569 32.3583 100.898C32.34 100.903 32.3212 100.907 32.3025 100.911C30.8639 101.316 29.3197 101.069 28.0794 100.235L27.4345 99.8042C26.5135 99.1944 25.3714 99.0193 24.31 99.3252C24.2908 99.3309 24.2714 99.3355 24.2519 99.3393C22.5773 99.8122 20.7771 99.389 19.4887 98.2193L18.9595 101.83C18.5566 104.74 19.4577 107.679 21.4225 109.862C24.1694 112.895 28.0979 114.585 32.1887 114.495H43.8108C47.9893 114.572 51.9896 112.804 54.7446 109.662C56.7047 107.38 57.521 104.331 56.9632 101.376Z" fill="#FFFCF2"/>
</g>
<g clip-path="url(#clip1)">
<path d="M90.8581 46.4323L92.2207 46.8486C93.6997 47.2952 95.2776 47.2952 96.7566 46.8486C98.3769 46.3546 100.102 46.3203 101.741 46.7495L102.247 46.8817C103.865 47.3041 105.577 47.1943 107.128 46.5686L108.512 46.0054C108.909 45.8753 109.221 45.564 109.353 45.1669C109.467 44.5761 109.311 43.965 108.928 43.5012C107.147 40.9952 103.387 38.2983 99.3397 38.2983C95.1924 38.2983 92.0932 39.7421 92.0932 41.0329C92.0932 42.3238 95.1923 43.7675 99.3397 43.7675C99.4074 43.7707 99.4742 43.7842 99.5378 43.8075C99.6015 43.7842 99.6682 43.7707 99.736 43.7675C101.387 43.7675 102.621 43.0458 102.621 42.4002C102.621 41.7546 101.387 41.0329 99.736 41.0329C98.8978 41.007 98.0704 41.2279 97.3565 41.6681C97.0488 41.8862 96.6227 41.8138 96.4043 41.5063C96.1858 41.1989 96.2576 40.7727 96.5647 40.5538C97.5088 39.9462 98.6137 39.6367 99.736 39.6656C102.12 39.6656 103.988 40.8667 103.988 42.4002C103.988 43.9337 102.12 45.1348 99.736 45.1348C99.6683 45.1316 99.6015 45.1181 99.5378 45.0948C99.4742 45.1181 99.4074 45.1316 99.3397 45.1348C95.6573 45.1348 92.654 44.143 91.3819 42.6608L90.089 44.0825C89.763 44.4247 89.6393 44.9122 89.7628 45.3684C89.9208 45.8877 90.3344 46.2895 90.8581 46.4323Z" fill="#252422"/>
<path d="M85.208 50.0745C85.7129 50.4239 86.3134 50.6089 86.9275 50.6039H88.1909C89.344 50.6032 90.4877 50.8128 91.5655 51.2225L94.1693 52.2216C95.981 52.9005 97.9737 52.9206 99.7987 52.2784L103.701 50.8767C105.497 50.2365 107.444 50.1491 109.29 50.626L111.319 51.1524C112.959 51.606 114.714 51.0955 115.855 49.8331C115.867 49.8188 115.919 49.7641 115.932 49.7507C116.341 49.2498 116.531 48.605 116.459 47.9622C116.386 47.3194 116.057 46.7331 115.547 46.3361C114.563 45.5049 113.367 44.9628 112.094 44.7701L110.756 44.5542C110.788 44.8885 110.757 45.2258 110.666 45.5489C110.417 46.3466 109.812 46.9833 109.028 47.2717L107.645 47.8349C105.819 48.5709 103.805 48.7004 101.901 48.204L101.395 48.0718C100.002 47.7063 98.5345 47.7356 97.1567 48.1563C95.4172 48.6811 93.5615 48.6811 91.8219 48.1563L90.4593 47.7401C89.4866 47.4616 88.7257 46.7025 88.4447 45.7305C88.34 45.3491 88.3209 44.9494 88.3887 44.5598L85.8844 44.9136C85.1837 44.9914 84.5562 45.3828 84.1782 45.9778C83.3699 47.3989 83.8237 49.2047 85.208 50.0745Z" fill="#252422"/>
<path d="M82.3349 54.9851C83.2835 56.0036 84.7279 56.3957 86.0613 55.9966C86.0793 55.9916 86.0974 55.9872 86.1158 55.9836C87.5544 55.5781 89.0986 55.8253 90.3389 56.6595L90.9838 57.0905C91.905 57.6997 93.0469 57.8748 94.1084 57.5695C94.127 57.5642 94.146 57.5595 94.1651 57.5558C95.6664 57.1288 97.2807 57.4199 98.5381 58.3446C99.5245 59.0548 100.117 60.1899 100.134 61.4053V62.9095C100.144 63.2728 100.313 63.6133 100.597 63.8399C100.949 64.1272 101.39 64.2819 101.844 64.2768C102.69 64.3595 103.448 63.7532 103.553 62.9095V59.4913C103.669 58.3273 104.648 57.4405 105.817 57.4405C106.987 57.4405 107.966 58.3274 108.081 59.4913V60.8586C108.086 61.0316 108.168 61.1936 108.304 61.2999C108.492 61.4601 108.731 61.5464 108.978 61.5423C109.411 61.5868 109.803 61.2874 109.875 60.8586V57.6315C109.906 56.8783 110.54 56.2918 111.293 56.3189C111.431 56.3177 111.569 56.3358 111.703 56.3727C113.656 56.9475 115.768 56.385 117.176 54.9143C117.694 54.3367 117.955 53.5742 117.902 52.8006C117.823 52.0148 117.44 51.2911 116.833 50.7855C115.35 52.3967 113.093 53.0485 110.979 52.4761L108.947 51.949C107.367 51.5408 105.701 51.6154 104.164 52.163L100.262 53.5648C99.2368 53.9294 98.1567 54.1147 97.069 54.1122C95.9121 54.1144 94.7644 53.9064 93.6818 53.4987L91.0786 52.4999C90.1564 52.1497 89.178 51.9705 88.1914 51.9712H86.9276C86.0293 51.9754 85.1518 51.7019 84.4149 51.1881C84.0281 50.9128 83.6823 50.584 83.3879 50.2114C83.3101 50.3804 83.1663 50.5102 82.9903 50.5701L82.6805 50.8359C82.0712 51.3126 81.6833 52.0175 81.6067 52.7873C81.5301 53.5571 81.7716 54.3247 82.2752 54.9121L82.3349 54.9851Z" fill="#252422"/>
<path d="M119.098 59.3621L118.365 55.6118C118.314 55.6781 118.265 55.7456 118.209 55.8097C116.449 57.6771 113.791 58.4023 111.326 57.6881C111.298 57.6877 111.269 57.6906 111.241 57.6968V60.859C111.178 62.0486 110.167 62.9645 108.977 62.91C108.402 62.9166 107.844 62.7116 107.409 62.3341C106.972 61.9685 106.717 61.4291 106.713 60.859V59.4917C106.603 59.0879 106.235 58.808 105.817 58.808C105.398 58.808 105.031 59.0879 104.92 59.4917V62.9099C104.818 64.5111 103.445 65.7315 101.843 65.6445C101.063 65.652 100.305 65.3802 99.7073 64.8784C99.1175 64.394 98.7729 63.673 98.7665 62.9098V61.4057C98.7518 60.6187 98.3607 59.8865 97.7148 59.4368C96.786 58.7598 95.5944 58.5554 94.4931 58.884C94.4748 58.8893 94.456 58.8937 94.4373 58.8974C92.9986 59.3028 91.4545 59.0556 90.2142 58.2215L89.5693 57.7905C88.6483 57.1807 87.5061 57.0056 86.4447 57.3115C86.4256 57.3172 86.4062 57.3218 86.3866 57.3256C84.712 57.7985 82.9119 57.3753 81.6235 56.2057L81.0943 59.8165C80.6913 62.7261 81.5925 65.6652 83.5572 67.8488C86.3041 70.8815 90.2327 72.5718 94.3234 72.4811H105.946C110.124 72.5588 114.124 70.7904 116.879 67.6479C118.839 65.3664 119.656 62.3177 119.098 59.3621Z" fill="#252422"/>
<path d="M129.128 46.4035L130.49 46.8198C131.969 47.2664 133.547 47.2664 135.026 46.8198C136.646 46.3258 138.372 46.2915 140.011 46.7206L140.516 46.8528C142.135 47.2752 143.846 47.1655 145.398 46.5398L146.781 45.9766C147.179 45.8465 147.491 45.5352 147.622 45.1381C147.737 44.5473 147.581 43.9362 147.197 43.4724C145.417 40.9664 141.657 38.2695 137.609 38.2695C133.462 38.2695 130.363 39.7133 130.363 41.0041C130.363 42.295 133.462 43.7387 137.609 43.7387C137.677 43.7418 137.744 43.7554 137.807 43.7787C137.871 43.7554 137.938 43.7418 138.006 43.7387C139.657 43.7387 140.89 43.017 140.89 42.3714C140.89 41.7258 139.657 41.004 138.006 41.004C137.167 40.9782 136.34 41.1991 135.626 41.6393C135.318 41.8574 134.892 41.785 134.674 41.4775C134.455 41.1701 134.527 40.7439 134.834 40.525C135.778 39.9174 136.883 39.6079 138.006 39.6368C140.39 39.6368 142.258 40.8379 142.258 42.3714C142.258 43.9049 140.39 45.106 138.006 45.106C137.938 45.1028 137.871 45.0893 137.807 45.066C137.744 45.0893 137.677 45.1028 137.609 45.106C133.927 45.106 130.924 44.1142 129.651 42.632L128.359 44.0537C128.033 44.3959 127.909 44.8834 128.032 45.3396C128.19 45.8589 128.604 46.2607 129.128 46.4035Z" fill="#252422"/>
<path d="M123.477 50.0457C123.982 50.3951 124.583 50.58 125.197 50.5751H126.46C127.614 50.5744 128.757 50.784 129.835 51.1936L132.439 52.1928C134.251 52.8717 136.243 52.8918 138.068 52.2495L141.97 50.8479C143.766 50.2077 145.713 50.1203 147.56 50.5972L149.589 51.1236C151.229 51.5772 152.984 51.0667 154.124 49.8043C154.136 49.79 154.189 49.7352 154.202 49.7219C154.611 49.2209 154.801 48.5762 154.728 47.9334C154.656 47.2906 154.327 46.7043 153.816 46.3073C152.832 45.4761 151.637 44.934 150.363 44.7413L149.026 44.5254C149.057 44.8597 149.027 45.1969 148.936 45.5201C148.687 46.3178 148.081 46.9545 147.297 47.2429L145.914 47.8061C144.089 48.5421 142.075 48.6716 140.17 48.1752L139.665 48.043C138.272 47.6775 136.804 47.7068 135.426 48.1275C133.687 48.6523 131.831 48.6523 130.091 48.1275L128.729 47.7112C127.756 47.4328 126.995 46.6737 126.714 45.7017C126.61 45.3203 126.59 44.9206 126.658 44.531L124.154 44.8848C123.453 44.9626 122.826 45.354 122.448 45.949C121.639 47.37 122.093 49.1759 123.477 50.0457Z" fill="#252422"/>
<path d="M120.604 54.9563C121.553 55.9748 122.997 56.3669 124.331 55.9678C124.349 55.9628 124.367 55.9584 124.385 55.9548C125.824 55.5493 127.368 55.7965 128.608 56.6307L129.253 57.0617C130.175 57.6709 131.316 57.846 132.378 57.5407C132.397 57.5354 132.416 57.5306 132.435 57.527C133.936 57.0999 135.55 57.3911 136.808 58.3158C137.794 59.026 138.386 60.1611 138.404 61.3765V62.8807C138.413 63.244 138.583 63.5845 138.867 63.811C139.218 64.0984 139.66 64.2531 140.113 64.248C140.96 64.3307 141.718 63.7244 141.823 62.8807V59.4624C141.938 58.2985 142.917 57.4117 144.087 57.4117C145.257 57.4117 146.236 58.2986 146.351 59.4624V60.8298C146.355 61.0028 146.437 61.1648 146.574 61.2711C146.761 61.4313 147.001 61.5176 147.248 61.5134C147.68 61.558 148.073 61.2586 148.144 60.8298V57.6027C148.175 56.8495 148.809 56.263 149.563 56.2901C149.701 56.2889 149.839 56.307 149.972 56.3439C151.926 56.9187 154.037 56.3562 155.446 54.8855C155.963 54.3079 156.225 53.5454 156.171 52.7718C156.093 51.986 155.709 51.2623 155.103 50.7567C153.619 52.3679 151.362 53.0197 149.248 52.4473L147.216 51.9202C145.636 51.512 143.97 51.5866 142.433 52.1342L138.531 53.536C137.506 53.9006 136.426 54.0859 135.339 54.0834C134.182 54.0856 133.034 53.8776 131.951 53.4699L129.348 52.4711C128.426 52.1209 127.448 51.9417 126.461 51.9424H125.197C124.299 51.9466 123.421 51.6731 122.684 51.1592C122.298 50.884 121.952 50.5551 121.657 50.1826C121.58 50.3516 121.436 50.4813 121.26 50.5413L120.95 50.8071C120.341 51.2837 119.953 51.9887 119.876 52.7585C119.8 53.5283 120.041 54.2959 120.545 54.8832L120.604 54.9563Z" fill="#252422"/>
<path d="M157.368 59.3333L156.635 55.583C156.583 55.6493 156.534 55.7168 156.479 55.7809C154.718 57.6483 152.061 58.3734 149.596 57.6593C149.567 57.6589 149.539 57.6618 149.511 57.6679V60.8302C149.448 62.0198 148.437 62.9357 147.247 62.8812C146.671 62.8877 146.113 62.6828 145.679 62.3053C145.241 61.9397 144.987 61.4003 144.983 60.8302V59.4628C144.872 59.0591 144.505 58.7792 144.086 58.7792C143.668 58.7792 143.3 59.0591 143.19 59.4628V62.8811C143.088 64.4823 141.715 65.7026 140.113 65.6157C139.332 65.6232 138.575 65.3514 137.977 64.8495C137.387 64.3652 137.042 63.6442 137.036 62.881V61.3768C137.021 60.5899 136.63 59.8577 135.984 59.408C135.056 58.731 133.864 58.5266 132.763 58.8552C132.744 58.8605 132.726 58.8649 132.707 58.8686C131.268 59.274 129.724 59.0268 128.484 58.1926L127.839 57.7617C126.918 57.1519 125.776 56.9768 124.714 57.2827C124.695 57.2884 124.676 57.293 124.656 57.2968C122.982 57.7697 121.181 57.3465 119.893 56.1769L119.364 59.7877C118.961 62.6973 119.862 65.6364 121.827 67.82C124.574 70.8527 128.502 72.543 132.593 72.4523H144.215C148.394 72.5299 152.394 70.7616 155.149 67.619C157.109 65.3376 157.925 62.2889 157.368 59.3333Z" fill="#252422"/>
<path d="M109.723 12.446L111.086 12.8623C112.565 13.3089 114.143 13.3089 115.622 12.8623C117.242 12.3683 118.968 12.334 120.606 12.7631L121.112 12.8953C122.73 13.3177 124.442 13.208 125.994 12.5822L127.377 12.0191C127.774 11.8889 128.086 11.5777 128.218 11.1806C128.333 10.5898 128.177 9.97866 127.793 9.51484C126.013 7.00891 122.252 4.31201 118.205 4.31201C114.058 4.31201 110.958 5.75576 110.958 7.0466C110.958 8.33743 114.058 9.78118 118.205 9.78118C118.273 9.78432 118.339 9.79786 118.403 9.82119C118.467 9.79786 118.533 9.78432 118.601 9.78118C120.252 9.78118 121.486 9.05946 121.486 8.41385C121.486 7.76825 120.252 7.04652 118.601 7.04652C117.763 7.02065 116.936 7.24153 116.222 7.68181C115.914 7.89985 115.488 7.82747 115.269 7.52C115.051 7.2126 115.123 6.78638 115.43 6.56752C116.374 5.9599 117.479 5.6504 118.601 5.67927C120.986 5.67927 122.853 6.88037 122.853 8.41385C122.853 9.94733 120.986 11.1484 118.601 11.1484C118.534 11.1453 118.467 11.1318 118.403 11.1084C118.339 11.1318 118.273 11.1453 118.205 11.1484C114.523 11.1484 111.519 10.1567 110.247 8.67452L108.954 10.0962C108.628 10.4384 108.505 10.9259 108.628 11.382C108.786 11.9014 109.2 12.3032 109.723 12.446Z" fill="#252422"/>
<path d="M104.073 16.0882C104.578 16.4376 105.179 16.6225 105.793 16.6176H107.056C108.209 16.6168 109.353 16.8264 110.431 17.2361L113.034 18.2353C114.846 18.9141 116.839 18.9343 118.664 18.292L122.566 16.8904C124.362 16.2501 126.309 16.1628 128.155 16.6396L130.185 17.1661C131.824 17.6196 133.58 17.1092 134.72 15.8468C134.732 15.8325 134.784 15.7777 134.797 15.7643C135.206 15.2634 135.396 14.6186 135.324 13.9759C135.251 13.3331 134.923 12.7468 134.412 12.3498C133.428 11.5186 132.233 10.9765 130.959 10.7838L129.622 10.5679C129.653 10.9022 129.622 11.2394 129.531 11.5626C129.283 12.3603 128.677 12.997 127.893 13.2854L126.51 13.8485C124.684 14.5846 122.671 14.7141 120.766 14.2177L120.261 14.0855C118.867 13.72 117.4 13.7492 116.022 14.17C114.282 14.6948 112.427 14.6948 110.687 14.17L109.325 13.7537C108.352 13.4753 107.591 12.7161 107.31 11.7442C107.205 11.3628 107.186 10.9631 107.254 10.5735L104.75 10.9273C104.049 11.0051 103.421 11.3964 103.043 11.9915C102.235 13.4125 102.689 15.2183 104.073 16.0882Z" fill="#252422"/>
<path d="M101.2 20.9988C102.149 22.0173 103.593 22.4093 104.927 22.0103C104.945 22.0053 104.963 22.0009 104.981 21.9973C106.42 21.5918 107.964 21.839 109.204 22.6732L109.849 23.1041C110.77 23.7134 111.912 23.8885 112.974 23.5831C112.992 23.5778 113.011 23.5731 113.03 23.5695C114.532 23.1424 116.146 23.4336 117.403 24.3583C118.39 25.0685 118.982 26.2036 119 27.419V28.9232C119.009 29.2864 119.179 29.627 119.463 29.8535C119.814 30.1409 120.255 30.2956 120.709 30.2905C121.555 30.3731 122.313 29.7669 122.419 28.9232V25.5049C122.534 24.341 123.513 23.4542 124.683 23.4542C125.852 23.4542 126.831 24.3411 126.947 25.5049V26.8723C126.951 27.0453 127.033 27.2073 127.17 27.3136C127.357 27.4738 127.597 27.56 127.843 27.5559C128.276 27.6005 128.668 27.3011 128.74 26.8723V23.6452C128.771 22.892 129.405 22.3055 130.158 22.3326C130.297 22.3314 130.435 22.3495 130.568 22.3864C132.522 22.9612 134.633 22.3986 136.042 20.928C136.559 20.3503 136.821 19.5879 136.767 18.8142C136.689 18.0284 136.305 17.3048 135.698 16.7991C134.215 18.4104 131.958 19.0622 129.844 18.4898L127.812 17.9627C126.232 17.5545 124.566 17.6291 123.029 18.1767L119.127 19.5784C118.102 19.9431 117.022 20.1283 115.934 20.1259C114.777 20.128 113.63 19.9201 112.547 19.5123L109.944 18.5136C109.022 18.1633 108.043 17.9842 107.057 17.9848H105.793C104.895 17.9891 104.017 17.7156 103.28 17.2017C102.893 16.9265 102.548 16.5976 102.253 16.2251C102.175 16.3941 102.032 16.5238 101.855 16.5838L101.546 16.8495C100.936 17.3262 100.548 18.0312 100.472 18.801C100.395 19.5708 100.637 20.3384 101.14 20.9257L101.2 20.9988Z" fill="#252422"/>
<path d="M137.963 25.3758L137.23 21.6255C137.179 21.6917 137.13 21.7593 137.075 21.8233C135.314 23.6908 132.657 24.4159 130.192 23.7018C130.163 23.7014 130.134 23.7043 130.107 23.7104V26.8727C130.044 28.0622 129.033 28.9782 127.843 28.9236C127.267 28.9302 126.709 28.7253 126.274 28.3478C125.837 27.9822 125.582 27.4427 125.579 26.8727V25.5053C125.468 25.1015 125.101 24.8217 124.682 24.8217C124.263 24.8217 123.896 25.1015 123.785 25.5053V28.9236C123.684 30.5248 122.311 31.7451 120.709 31.6582C119.928 31.6656 119.17 31.3939 118.573 30.892C117.983 30.4077 117.638 29.6867 117.632 28.9235V27.4193C117.617 26.6324 117.226 25.9002 116.58 25.4505C115.651 24.7735 114.46 24.5691 113.358 24.8977C113.34 24.903 113.321 24.9074 113.303 24.9111C111.864 25.3164 110.32 25.0692 109.079 24.2351L108.434 23.8042C107.513 23.1944 106.371 23.0193 105.31 23.3252C105.291 23.3309 105.271 23.3355 105.252 23.3393C103.577 23.8122 101.777 23.389 100.489 22.2193L99.9595 25.8302C99.5566 28.7398 100.458 31.6789 102.422 33.8624C105.169 36.8952 109.098 38.5854 113.189 38.4948H124.811C128.989 38.5724 132.99 36.8041 135.745 33.6615C137.705 31.3801 138.521 28.3314 137.963 25.3758Z" fill="#252422"/>
</g>
<g clip-path="url(#clip2)">
<path d="M90.8581 122.432L92.2207 122.849C93.6997 123.295 95.2776 123.295 96.7566 122.849C98.3769 122.355 100.102 122.32 101.741 122.749L102.247 122.882C103.865 123.304 105.577 123.194 107.128 122.569L108.512 122.005C108.909 121.875 109.221 121.564 109.353 121.167C109.467 120.576 109.311 119.965 108.928 119.501C107.147 116.995 103.387 114.298 99.3397 114.298C95.1924 114.298 92.0932 115.742 92.0932 117.033C92.0932 118.324 95.1923 119.768 99.3397 119.768C99.4074 119.771 99.4742 119.784 99.5378 119.808C99.6015 119.784 99.6682 119.771 99.736 119.768C101.387 119.768 102.621 119.046 102.621 118.4C102.621 117.755 101.387 117.033 99.736 117.033C98.8978 117.007 98.0704 117.228 97.3565 117.668C97.0488 117.886 96.6227 117.814 96.4043 117.506C96.1858 117.199 96.2576 116.773 96.5647 116.554C97.5088 115.946 98.6137 115.637 99.736 115.666C102.12 115.666 103.988 116.867 103.988 118.4C103.988 119.934 102.12 121.135 99.736 121.135C99.6683 121.132 99.6015 121.118 99.5378 121.095C99.4742 121.118 99.4074 121.132 99.3397 121.135C95.6573 121.135 92.654 120.143 91.3819 118.661L90.089 120.083C89.763 120.425 89.6393 120.912 89.7628 121.368C89.9208 121.888 90.3344 122.29 90.8581 122.432Z" fill="#252422"/>
<path d="M90.8581 122.432L92.2207 122.849C93.6997 123.295 95.2776 123.295 96.7566 122.849C98.3769 122.355 100.102 122.32 101.741 122.749L102.247 122.882C103.865 123.304 105.577 123.194 107.128 122.569L108.512 122.005C108.909 121.875 109.221 121.564 109.353 121.167C109.467 120.576 109.311 119.965 108.928 119.501C107.147 116.995 103.387 114.298 99.3397 114.298C95.1924 114.298 92.0932 115.742 92.0932 117.033C92.0932 118.324 95.1923 119.768 99.3397 119.768C99.4074 119.771 99.4742 119.784 99.5378 119.808C99.6015 119.784 99.6682 119.771 99.736 119.768C101.387 119.768 102.621 119.046 102.621 118.4C102.621 117.755 101.387 117.033 99.736 117.033C98.8978 117.007 98.0704 117.228 97.3565 117.668C97.0488 117.886 96.6227 117.814 96.4043 117.506C96.1858 117.199 96.2576 116.773 96.5647 116.554C97.5088 115.946 98.6137 115.637 99.736 115.666C102.12 115.666 103.988 116.867 103.988 118.4C103.988 119.934 102.12 121.135 99.736 121.135C99.6683 121.132 99.6015 121.118 99.5378 121.095C99.4742 121.118 99.4074 121.132 99.3397 121.135C95.6573 121.135 92.654 120.143 91.3819 118.661L90.089 120.083C89.763 120.425 89.6393 120.912 89.7628 121.368C89.9208 121.888 90.3344 122.29 90.8581 122.432Z" fill="#FFFCF2"/>
<path d="M85.208 126.075C85.7129 126.424 86.3134 126.609 86.9275 126.604H88.1909C89.344 126.603 90.4877 126.813 91.5655 127.222L94.1693 128.222C95.981 128.9 97.9737 128.921 99.7987 128.278L103.701 126.877C105.497 126.236 107.444 126.149 109.29 126.626L111.319 127.152C112.959 127.606 114.714 127.095 115.855 125.833C115.867 125.819 115.919 125.764 115.932 125.751C116.341 125.25 116.531 124.605 116.459 123.962C116.386 123.319 116.057 122.733 115.547 122.336C114.563 121.505 113.367 120.963 112.094 120.77L110.756 120.554C110.788 120.889 110.757 121.226 110.666 121.549C110.417 122.347 109.812 122.983 109.028 123.272L107.645 123.835C105.819 124.571 103.805 124.7 101.901 124.204L101.395 124.072C100.002 123.706 98.5345 123.736 97.1567 124.156C95.4172 124.681 93.5615 124.681 91.8219 124.156L90.4593 123.74C89.4866 123.462 88.7257 122.702 88.4447 121.73C88.34 121.349 88.3209 120.949 88.3887 120.56L85.8844 120.914C85.1837 120.991 84.5562 121.383 84.1782 121.978C83.3699 123.399 83.8237 125.205 85.208 126.075Z" fill="#252422"/>
<path d="M85.208 126.075C85.7129 126.424 86.3134 126.609 86.9275 126.604H88.1909C89.344 126.603 90.4877 126.813 91.5655 127.222L94.1693 128.222C95.981 128.9 97.9737 128.921 99.7987 128.278L103.701 126.877C105.497 126.236 107.444 126.149 109.29 126.626L111.319 127.152C112.959 127.606 114.714 127.095 115.855 125.833C115.867 125.819 115.919 125.764 115.932 125.751C116.341 125.25 116.531 124.605 116.459 123.962C116.386 123.319 116.057 122.733 115.547 122.336C114.563 121.505 113.367 120.963 112.094 120.77L110.756 120.554C110.788 120.889 110.757 121.226 110.666 121.549C110.417 122.347 109.812 122.983 109.028 123.272L107.645 123.835C105.819 124.571 103.805 124.7 101.901 124.204L101.395 124.072C100.002 123.706 98.5345 123.736 97.1567 124.156C95.4172 124.681 93.5615 124.681 91.8219 124.156L90.4593 123.74C89.4866 123.462 88.7257 122.702 88.4447 121.73C88.34 121.349 88.3209 120.949 88.3887 120.56L85.8844 120.914C85.1837 120.991 84.5562 121.383 84.1782 121.978C83.3699 123.399 83.8237 125.205 85.208 126.075Z" fill="#FFFCF2"/>
<path d="M82.3349 130.985C83.2835 132.004 84.7279 132.396 86.0613 131.997C86.0793 131.992 86.0974 131.987 86.1158 131.984C87.5544 131.578 89.0986 131.825 90.3389 132.66L90.9838 133.09C91.905 133.7 93.0469 133.875 94.1084 133.569C94.127 133.564 94.146 133.559 94.1651 133.556C95.6664 133.129 97.2807 133.42 98.5381 134.345C99.5245 135.055 100.117 136.19 100.134 137.405V138.91C100.144 139.273 100.313 139.613 100.597 139.84C100.949 140.127 101.39 140.282 101.844 140.277C102.69 140.359 103.448 139.753 103.553 138.91V135.491C103.669 134.327 104.648 133.44 105.817 133.44C106.987 133.44 107.966 134.327 108.081 135.491V136.859C108.086 137.032 108.168 137.194 108.304 137.3C108.492 137.46 108.731 137.546 108.978 137.542C109.411 137.587 109.803 137.287 109.875 136.859V133.632C109.906 132.878 110.54 132.292 111.293 132.319C111.431 132.318 111.569 132.336 111.703 132.373C113.656 132.947 115.768 132.385 117.176 130.914C117.694 130.337 117.955 129.574 117.902 128.801C117.823 128.015 117.44 127.291 116.833 126.785C115.35 128.397 113.093 129.049 110.979 128.476L108.947 127.949C107.367 127.541 105.701 127.615 104.164 128.163L100.262 129.565C99.2368 129.929 98.1567 130.115 97.069 130.112C95.9121 130.114 94.7644 129.906 93.6818 129.499L91.0786 128.5C90.1564 128.15 89.178 127.97 88.1914 127.971H86.9276C86.0293 127.975 85.1518 127.702 84.4149 127.188C84.0281 126.913 83.6823 126.584 83.3879 126.211C83.3101 126.38 83.1663 126.51 82.9903 126.57L82.6805 126.836C82.0712 127.313 81.6833 128.018 81.6067 128.787C81.5301 129.557 81.7716 130.325 82.2752 130.912L82.3349 130.985Z" fill="#252422"/>
<path d="M82.3349 130.985C83.2835 132.004 84.7279 132.396 86.0613 131.997C86.0793 131.992 86.0974 131.987 86.1158 131.984C87.5544 131.578 89.0986 131.825 90.3389 132.66L90.9838 133.09C91.905 133.7 93.0469 133.875 94.1084 133.569C94.127 133.564 94.146 133.559 94.1651 133.556C95.6664 133.129 97.2807 133.42 98.5381 134.345C99.5245 135.055 100.117 136.19 100.134 137.405V138.91C100.144 139.273 100.313 139.613 100.597 139.84C100.949 140.127 101.39 140.282 101.844 140.277C102.69 140.359 103.448 139.753 103.553 138.91V135.491C103.669 134.327 104.648 133.44 105.817 133.44C106.987 133.44 107.966 134.327 108.081 135.491V136.859C108.086 137.032 108.168 137.194 108.304 137.3C108.492 137.46 108.731 137.546 108.978 137.542C109.411 137.587 109.803 137.287 109.875 136.859V133.632C109.906 132.878 110.54 132.292 111.293 132.319C111.431 132.318 111.569 132.336 111.703 132.373C113.656 132.947 115.768 132.385 117.176 130.914C117.694 130.337 117.955 129.574 117.902 128.801C117.823 128.015 117.44 127.291 116.833 126.785C115.35 128.397 113.093 129.049 110.979 128.476L108.947 127.949C107.367 127.541 105.701 127.615 104.164 128.163L100.262 129.565C99.2368 129.929 98.1567 130.115 97.069 130.112C95.9121 130.114 94.7644 129.906 93.6818 129.499L91.0786 128.5C90.1564 128.15 89.178 127.97 88.1914 127.971H86.9276C86.0293 127.975 85.1518 127.702 84.4149 127.188C84.0281 126.913 83.6823 126.584 83.3879 126.211C83.3101 126.38 83.1663 126.51 82.9903 126.57L82.6805 126.836C82.0712 127.313 81.6833 128.018 81.6067 128.787C81.5301 129.557 81.7716 130.325 82.2752 130.912L82.3349 130.985Z" fill="#FFFCF2"/>
<path d="M119.098 135.362L118.365 131.612C118.314 131.678 118.265 131.746 118.209 131.81C116.449 133.677 113.791 134.402 111.326 133.688C111.298 133.688 111.269 133.691 111.241 133.697V136.859C111.178 138.049 110.167 138.964 108.977 138.91C108.402 138.917 107.844 138.712 107.409 138.334C106.972 137.968 106.717 137.429 106.713 136.859V135.492C106.603 135.088 106.235 134.808 105.817 134.808C105.398 134.808 105.031 135.088 104.92 135.492V138.91C104.818 140.511 103.445 141.731 101.843 141.644C101.063 141.652 100.305 141.38 99.7073 140.878C99.1175 140.394 98.7729 139.673 98.7665 138.91V137.406C98.7518 136.619 98.3607 135.887 97.7148 135.437C96.786 134.76 95.5944 134.555 94.4931 134.884C94.4748 134.889 94.456 134.894 94.4373 134.897C92.9986 135.303 91.4545 135.056 90.2142 134.221L89.5693 133.791C88.6483 133.181 87.5061 133.006 86.4447 133.312C86.4256 133.317 86.4062 133.322 86.3866 133.326C84.712 133.799 82.9119 133.375 81.6235 132.206L81.0943 135.817C80.6913 138.726 81.5925 141.665 83.5572 143.849C86.3041 146.881 90.2327 148.572 94.3234 148.481H105.946C110.124 148.559 114.124 146.79 116.879 143.648C118.839 141.366 119.656 138.318 119.098 135.362Z" fill="#252422"/>
<path d="M119.098 135.362L118.365 131.612C118.314 131.678 118.265 131.746 118.209 131.81C116.449 133.677 113.791 134.402 111.326 133.688C111.298 133.688 111.269 133.691 111.241 133.697V136.859C111.178 138.049 110.167 138.964 108.977 138.91C108.402 138.917 107.844 138.712 107.409 138.334C106.972 137.968 106.717 137.429 106.713 136.859V135.492C106.603 135.088 106.235 134.808 105.817 134.808C105.398 134.808 105.031 135.088 104.92 135.492V138.91C104.818 140.511 103.445 141.731 101.843 141.644C101.063 141.652 100.305 141.38 99.7073 140.878C99.1175 140.394 98.7729 139.673 98.7665 138.91V137.406C98.7518 136.619 98.3607 135.887 97.7148 135.437C96.786 134.76 95.5944 134.555 94.4931 134.884C94.4748 134.889 94.456 134.894 94.4373 134.897C92.9986 135.303 91.4545 135.056 90.2142 134.221L89.5693 133.791C88.6483 133.181 87.5061 133.006 86.4447 133.312C86.4256 133.317 86.4062 133.322 86.3866 133.326C84.712 133.799 82.9119 133.375 81.6235 132.206L81.0943 135.817C80.6913 138.726 81.5925 141.665 83.5572 143.849C86.3041 146.881 90.2327 148.572 94.3234 148.481H105.946C110.124 148.559 114.124 146.79 116.879 143.648C118.839 141.366 119.656 138.318 119.098 135.362Z" fill="#FFFCF2"/>
<path d="M129.128 122.404L130.49 122.82C131.969 123.266 133.547 123.266 135.026 122.82C136.646 122.326 138.372 122.292 140.011 122.721L140.516 122.853C142.135 123.275 143.846 123.165 145.398 122.54L146.781 121.977C147.179 121.846 147.491 121.535 147.622 121.138C147.737 120.547 147.581 119.936 147.197 119.472C145.417 116.966 141.657 114.27 137.609 114.27C133.462 114.27 130.363 115.713 130.363 117.004C130.363 118.295 133.462 119.739 137.609 119.739C137.677 119.742 137.744 119.755 137.807 119.779C137.871 119.755 137.938 119.742 138.006 119.739C139.657 119.739 140.89 119.017 140.89 118.371C140.89 117.726 139.657 117.004 138.006 117.004C137.167 116.978 136.34 117.199 135.626 117.639C135.318 117.857 134.892 117.785 134.674 117.478C134.455 117.17 134.527 116.744 134.834 116.525C135.778 115.917 136.883 115.608 138.006 115.637C140.39 115.637 142.258 116.838 142.258 118.371C142.258 119.905 140.39 121.106 138.006 121.106C137.938 121.103 137.871 121.089 137.807 121.066C137.744 121.089 137.677 121.103 137.609 121.106C133.927 121.106 130.924 120.114 129.651 118.632L128.359 120.054C128.033 120.396 127.909 120.883 128.032 121.34C128.19 121.859 128.604 122.261 129.128 122.404Z" fill="#252422"/>
<path d="M129.128 122.404L130.49 122.82C131.969 123.266 133.547 123.266 135.026 122.82C136.646 122.326 138.372 122.292 140.011 122.721L140.516 122.853C142.135 123.275 143.846 123.165 145.398 122.54L146.781 121.977C147.179 121.846 147.491 121.535 147.622 121.138C147.737 120.547 147.581 119.936 147.197 119.472C145.417 116.966 141.657 114.27 137.609 114.27C133.462 114.27 130.363 115.713 130.363 117.004C130.363 118.295 133.462 119.739 137.609 119.739C137.677 119.742 137.744 119.755 137.807 119.779C137.871 119.755 137.938 119.742 138.006 119.739C139.657 119.739 140.89 119.017 140.89 118.371C140.89 117.726 139.657 117.004 138.006 117.004C137.167 116.978 136.34 117.199 135.626 117.639C135.318 117.857 134.892 117.785 134.674 117.478C134.455 117.17 134.527 116.744 134.834 116.525C135.778 115.917 136.883 115.608 138.006 115.637C140.39 115.637 142.258 116.838 142.258 118.371C142.258 119.905 140.39 121.106 138.006 121.106C137.938 121.103 137.871 121.089 137.807 121.066C137.744 121.089 137.677 121.103 137.609 121.106C133.927 121.106 130.924 120.114 129.651 118.632L128.359 120.054C128.033 120.396 127.909 120.883 128.032 121.34C128.19 121.859 128.604 122.261 129.128 122.404Z" fill="#FFFCF2"/>
<path d="M123.477 126.046C123.982 126.395 124.583 126.58 125.197 126.575H126.46C127.614 126.574 128.757 126.784 129.835 127.194L132.439 128.193C134.251 128.872 136.243 128.892 138.068 128.25L141.97 126.848C143.766 126.208 145.713 126.12 147.56 126.597L149.589 127.124C151.229 127.577 152.984 127.067 154.124 125.804C154.136 125.79 154.189 125.735 154.202 125.722C154.611 125.221 154.801 124.576 154.728 123.933C154.656 123.291 154.327 122.704 153.816 122.307C152.832 121.476 151.637 120.934 150.363 120.741L149.026 120.525C149.057 120.86 149.027 121.197 148.936 121.52C148.687 122.318 148.081 122.955 147.297 123.243L145.914 123.806C144.089 124.542 142.075 124.672 140.17 124.175L139.665 124.043C138.272 123.678 136.804 123.707 135.426 124.128C133.687 124.652 131.831 124.652 130.091 124.128L128.729 123.711C127.756 123.433 126.995 122.674 126.714 121.702C126.61 121.32 126.59 120.921 126.658 120.531L124.154 120.885C123.453 120.963 122.826 121.354 122.448 121.949C121.639 123.37 122.093 125.176 123.477 126.046Z" fill="#252422"/>
<path d="M123.477 126.046C123.982 126.395 124.583 126.58 125.197 126.575H126.46C127.614 126.574 128.757 126.784 129.835 127.194L132.439 128.193C134.251 128.872 136.243 128.892 138.068 128.25L141.97 126.848C143.766 126.208 145.713 126.12 147.56 126.597L149.589 127.124C151.229 127.577 152.984 127.067 154.124 125.804C154.136 125.79 154.189 125.735 154.202 125.722C154.611 125.221 154.801 124.576 154.728 123.933C154.656 123.291 154.327 122.704 153.816 122.307C152.832 121.476 151.637 120.934 150.363 120.741L149.026 120.525C149.057 120.86 149.027 121.197 148.936 121.52C148.687 122.318 148.081 122.955 147.297 123.243L145.914 123.806C144.089 124.542 142.075 124.672 140.17 124.175L139.665 124.043C138.272 123.678 136.804 123.707 135.426 124.128C133.687 124.652 131.831 124.652 130.091 124.128L128.729 123.711C127.756 123.433 126.995 122.674 126.714 121.702C126.61 121.32 126.59 120.921 126.658 120.531L124.154 120.885C123.453 120.963 122.826 121.354 122.448 121.949C121.639 123.37 122.093 125.176 123.477 126.046Z" fill="#FFFCF2"/>
<path d="M120.604 130.956C121.553 131.975 122.997 132.367 124.331 131.968C124.349 131.963 124.367 131.958 124.385 131.955C125.824 131.549 127.368 131.796 128.608 132.631L129.253 133.062C130.175 133.671 131.316 133.846 132.378 133.541C132.397 133.535 132.416 133.531 132.435 133.527C133.936 133.1 135.55 133.391 136.808 134.316C137.794 135.026 138.386 136.161 138.404 137.377V138.881C138.413 139.244 138.583 139.584 138.867 139.811C139.218 140.098 139.66 140.253 140.113 140.248C140.96 140.331 141.718 139.724 141.823 138.881V135.462C141.938 134.299 142.917 133.412 144.087 133.412C145.257 133.412 146.236 134.299 146.351 135.462V136.83C146.355 137.003 146.437 137.165 146.574 137.271C146.761 137.431 147.001 137.518 147.248 137.513C147.68 137.558 148.073 137.259 148.144 136.83V133.603C148.175 132.85 148.809 132.263 149.563 132.29C149.701 132.289 149.839 132.307 149.972 132.344C151.926 132.919 154.037 132.356 155.446 130.885C155.963 130.308 156.225 129.545 156.171 128.772C156.093 127.986 155.709 127.262 155.103 126.757C153.619 128.368 151.362 129.02 149.248 128.447L147.216 127.92C145.636 127.512 143.97 127.587 142.433 128.134L138.531 129.536C137.506 129.901 136.426 130.086 135.339 130.083C134.182 130.086 133.034 129.878 131.951 129.47L129.348 128.471C128.426 128.121 127.448 127.942 126.461 127.942H125.197C124.299 127.947 123.421 127.673 122.684 127.159C122.298 126.884 121.952 126.555 121.657 126.183C121.58 126.352 121.436 126.481 121.26 126.541L120.95 126.807C120.341 127.284 119.953 127.989 119.876 128.759C119.8 129.528 120.041 130.296 120.545 130.883L120.604 130.956Z" fill="#252422"/>
<path d="M120.604 130.956C121.553 131.975 122.997 132.367 124.331 131.968C124.349 131.963 124.367 131.958 124.385 131.955C125.824 131.549 127.368 131.796 128.608 132.631L129.253 133.062C130.175 133.671 131.316 133.846 132.378 133.541C132.397 133.535 132.416 133.531 132.435 133.527C133.936 133.1 135.55 133.391 136.808 134.316C137.794 135.026 138.386 136.161 138.404 137.377V138.881C138.413 139.244 138.583 139.584 138.867 139.811C139.218 140.098 139.66 140.253 140.113 140.248C140.96 140.331 141.718 139.724 141.823 138.881V135.462C141.938 134.299 142.917 133.412 144.087 133.412C145.257 133.412 146.236 134.299 146.351 135.462V136.83C146.355 137.003 146.437 137.165 146.574 137.271C146.761 137.431 147.001 137.518 147.248 137.513C147.68 137.558 148.073 137.259 148.144 136.83V133.603C148.175 132.85 148.809 132.263 149.563 132.29C149.701 132.289 149.839 132.307 149.972 132.344C151.926 132.919 154.037 132.356 155.446 130.885C155.963 130.308 156.225 129.545 156.171 128.772C156.093 127.986 155.709 127.262 155.103 126.757C153.619 128.368 151.362 129.02 149.248 128.447L147.216 127.92C145.636 127.512 143.97 127.587 142.433 128.134L138.531 129.536C137.506 129.901 136.426 130.086 135.339 130.083C134.182 130.086 133.034 129.878 131.951 129.47L129.348 128.471C128.426 128.121 127.448 127.942 126.461 127.942H125.197C124.299 127.947 123.421 127.673 122.684 127.159C122.298 126.884 121.952 126.555 121.657 126.183C121.58 126.352 121.436 126.481 121.26 126.541L120.95 126.807C120.341 127.284 119.953 127.989 119.876 128.759C119.8 129.528 120.041 130.296 120.545 130.883L120.604 130.956Z" fill="#FFFCF2"/>
<path d="M157.368 135.333L156.635 131.583C156.583 131.649 156.534 131.717 156.479 131.781C154.718 133.648 152.061 134.373 149.596 133.659C149.567 133.659 149.539 133.662 149.511 133.668V136.83C149.448 138.02 148.437 138.936 147.247 138.881C146.671 138.888 146.113 138.683 145.679 138.305C145.241 137.94 144.987 137.4 144.983 136.83V135.463C144.872 135.059 144.505 134.779 144.086 134.779C143.668 134.779 143.3 135.059 143.19 135.463V138.881C143.088 140.482 141.715 141.703 140.113 141.616C139.332 141.623 138.575 141.351 137.977 140.85C137.387 140.365 137.042 139.644 137.036 138.881V137.377C137.021 136.59 136.63 135.858 135.984 135.408C135.056 134.731 133.864 134.527 132.763 134.855C132.744 134.861 132.726 134.865 132.707 134.869C131.268 135.274 129.724 135.027 128.484 134.193L127.839 133.762C126.918 133.152 125.776 132.977 124.714 133.283C124.695 133.288 124.676 133.293 124.656 133.297C122.982 133.77 121.181 133.346 119.893 132.177L119.364 135.788C118.961 138.697 119.862 141.636 121.827 143.82C124.574 146.853 128.502 148.543 132.593 148.452H144.215C148.394 148.53 152.394 146.762 155.149 143.619C157.109 141.338 157.925 138.289 157.368 135.333Z" fill="#252422"/>
<path d="M157.368 135.333L156.635 131.583C156.583 131.649 156.534 131.717 156.479 131.781C154.718 133.648 152.061 134.373 149.596 133.659C149.567 133.659 149.539 133.662 149.511 133.668V136.83C149.448 138.02 148.437 138.936 147.247 138.881C146.671 138.888 146.113 138.683 145.679 138.305C145.241 137.94 144.987 137.4 144.983 136.83V135.463C144.872 135.059 144.505 134.779 144.086 134.779C143.668 134.779 143.3 135.059 143.19 135.463V138.881C143.088 140.482 141.715 141.703 140.113 141.616C139.332 141.623 138.575 141.351 137.977 140.85C137.387 140.365 137.042 139.644 137.036 138.881V137.377C137.021 136.59 136.63 135.858 135.984 135.408C135.056 134.731 133.864 134.527 132.763 134.855C132.744 134.861 132.726 134.865 132.707 134.869C131.268 135.274 129.724 135.027 128.484 134.193L127.839 133.762C126.918 133.152 125.776 132.977 124.714 133.283C124.695 133.288 124.676 133.293 124.656 133.297C122.982 133.77 121.181 133.346 119.893 132.177L119.364 135.788C118.961 138.697 119.862 141.636 121.827 143.82C124.574 146.853 128.502 148.543 132.593 148.452H144.215C148.394 148.53 152.394 146.762 155.149 143.619C157.109 141.338 157.925 138.289 157.368 135.333Z" fill="#FFFCF2"/>
<path d="M109.723 88.446L111.086 88.8623C112.565 89.3089 114.143 89.3089 115.622 88.8623C117.242 88.3683 118.968 88.334 120.606 88.7631L121.112 88.8953C122.73 89.3177 124.442 89.208 125.994 88.5822L127.377 88.0191C127.774 87.8889 128.086 87.5777 128.218 87.1806C128.333 86.5898 128.177 85.9787 127.793 85.5148C126.013 83.0089 122.252 80.312 118.205 80.312C114.058 80.312 110.958 81.7558 110.958 83.0466C110.958 84.3374 114.058 85.7812 118.205 85.7812C118.273 85.7843 118.339 85.7979 118.403 85.8212C118.467 85.7979 118.533 85.7843 118.601 85.7812C120.252 85.7812 121.486 85.0595 121.486 84.4139C121.486 83.7682 120.252 83.0465 118.601 83.0465C117.763 83.0207 116.936 83.2415 116.222 83.6818C115.914 83.8999 115.488 83.8275 115.269 83.52C115.051 83.2126 115.123 82.7864 115.43 82.5675C116.374 81.9599 117.479 81.6504 118.601 81.6793C120.986 81.6793 122.853 82.8804 122.853 84.4139C122.853 85.9473 120.986 87.1484 118.601 87.1484C118.534 87.1453 118.467 87.1318 118.403 87.1084C118.339 87.1318 118.273 87.1453 118.205 87.1484C114.523 87.1484 111.519 86.1567 110.247 84.6745L108.954 86.0962C108.628 86.4384 108.505 86.9259 108.628 87.382C108.786 87.9014 109.2 88.3032 109.723 88.446Z" fill="#252422"/>
<path d="M109.723 88.446L111.086 88.8623C112.565 89.3089 114.143 89.3089 115.622 88.8623C117.242 88.3683 118.968 88.334 120.606 88.7631L121.112 88.8953C122.73 89.3177 124.442 89.208 125.994 88.5822L127.377 88.0191C127.774 87.8889 128.086 87.5777 128.218 87.1806C128.333 86.5898 128.177 85.9787 127.793 85.5148C126.013 83.0089 122.252 80.312 118.205 80.312C114.058 80.312 110.958 81.7558 110.958 83.0466C110.958 84.3374 114.058 85.7812 118.205 85.7812C118.273 85.7843 118.339 85.7979 118.403 85.8212C118.467 85.7979 118.533 85.7843 118.601 85.7812C120.252 85.7812 121.486 85.0595 121.486 84.4139C121.486 83.7682 120.252 83.0465 118.601 83.0465C117.763 83.0207 116.936 83.2415 116.222 83.6818C115.914 83.8999 115.488 83.8275 115.269 83.52C115.051 83.2126 115.123 82.7864 115.43 82.5675C116.374 81.9599 117.479 81.6504 118.601 81.6793C120.986 81.6793 122.853 82.8804 122.853 84.4139C122.853 85.9473 120.986 87.1484 118.601 87.1484C118.534 87.1453 118.467 87.1318 118.403 87.1084C118.339 87.1318 118.273 87.1453 118.205 87.1484C114.523 87.1484 111.519 86.1567 110.247 84.6745L108.954 86.0962C108.628 86.4384 108.505 86.9259 108.628 87.382C108.786 87.9014 109.2 88.3032 109.723 88.446Z" fill="#FFFCF2"/>
<path d="M104.073 92.0882C104.578 92.4376 105.179 92.6225 105.793 92.6176H107.056C108.209 92.6168 109.353 92.8264 110.431 93.2361L113.034 94.2353C114.846 94.9141 116.839 94.9343 118.664 94.292L122.566 92.8904C124.362 92.2501 126.309 92.1628 128.155 92.6396L130.185 93.1661C131.824 93.6196 133.58 93.1092 134.72 91.8468C134.732 91.8325 134.784 91.7777 134.797 91.7643C135.206 91.2634 135.396 90.6186 135.324 89.9759C135.251 89.3331 134.923 88.7468 134.412 88.3498C133.428 87.5186 132.233 86.9765 130.959 86.7838L129.622 86.5679C129.653 86.9022 129.622 87.2394 129.531 87.5626C129.283 88.3603 128.677 88.997 127.893 89.2854L126.51 89.8485C124.684 90.5846 122.671 90.7141 120.766 90.2177L120.261 90.0855C118.867 89.72 117.4 89.7492 116.022 90.17C114.282 90.6948 112.427 90.6948 110.687 90.17L109.325 89.7537C108.352 89.4753 107.591 88.7161 107.31 87.7442C107.205 87.3628 107.186 86.9631 107.254 86.5735L104.75 86.9273C104.049 87.0051 103.421 87.3964 103.043 87.9915C102.235 89.4125 102.689 91.2183 104.073 92.0882Z" fill="#252422"/>
<path d="M104.073 92.0882C104.578 92.4376 105.179 92.6225 105.793 92.6176H107.056C108.209 92.6168 109.353 92.8264 110.431 93.2361L113.034 94.2353C114.846 94.9141 116.839 94.9343 118.664 94.292L122.566 92.8904C124.362 92.2501 126.309 92.1628 128.155 92.6396L130.185 93.1661C131.824 93.6196 133.58 93.1092 134.72 91.8468C134.732 91.8325 134.784 91.7777 134.797 91.7643C135.206 91.2634 135.396 90.6186 135.324 89.9759C135.251 89.3331 134.923 88.7468 134.412 88.3498C133.428 87.5186 132.233 86.9765 130.959 86.7838L129.622 86.5679C129.653 86.9022 129.622 87.2394 129.531 87.5626C129.283 88.3603 128.677 88.997 127.893 89.2854L126.51 89.8485C124.684 90.5846 122.671 90.7141 120.766 90.2177L120.261 90.0855C118.867 89.72 117.4 89.7492 116.022 90.17C114.282 90.6948 112.427 90.6948 110.687 90.17L109.325 89.7537C108.352 89.4753 107.591 88.7161 107.31 87.7442C107.205 87.3628 107.186 86.9631 107.254 86.5735L104.75 86.9273C104.049 87.0051 103.421 87.3964 103.043 87.9915C102.235 89.4125 102.689 91.2183 104.073 92.0882Z" fill="#FFFCF2"/>
<path d="M101.2 96.9988C102.149 98.0173 103.593 98.4093 104.927 98.0103C104.945 98.0053 104.963 98.0009 104.981 97.9973C106.42 97.5918 107.964 97.839 109.204 98.6732L109.849 99.1041C110.77 99.7134 111.912 99.8885 112.974 99.5831C112.992 99.5778 113.011 99.5731 113.03 99.5695C114.532 99.1424 116.146 99.4336 117.403 100.358C118.39 101.068 118.982 102.204 119 103.419V104.923C119.009 105.286 119.179 105.627 119.463 105.854C119.814 106.141 120.255 106.296 120.709 106.291C121.555 106.373 122.313 105.767 122.419 104.923V101.505C122.534 100.341 123.513 99.4542 124.683 99.4542C125.852 99.4542 126.831 100.341 126.947 101.505V102.872C126.951 103.045 127.033 103.207 127.17 103.314C127.357 103.474 127.597 103.56 127.843 103.556C128.276 103.6 128.668 103.301 128.74 102.872V99.6452C128.771 98.892 129.405 98.3055 130.158 98.3326C130.297 98.3314 130.435 98.3495 130.568 98.3864C132.522 98.9612 134.633 98.3986 136.042 96.928C136.559 96.3503 136.821 95.5879 136.767 94.8142C136.689 94.0284 136.305 93.3048 135.698 92.7991C134.215 94.4104 131.958 95.0622 129.844 94.4898L127.812 93.9627C126.232 93.5545 124.566 93.6291 123.029 94.1767L119.127 95.5784C118.102 95.9431 117.022 96.1283 115.934 96.1259C114.777 96.128 113.63 95.9201 112.547 95.5123L109.944 94.5136C109.022 94.1633 108.043 93.9842 107.057 93.9848H105.793C104.895 93.9891 104.017 93.7156 103.28 93.2017C102.893 92.9265 102.548 92.5976 102.253 92.2251C102.175 92.3941 102.032 92.5238 101.855 92.5838L101.546 92.8495C100.936 93.3262 100.548 94.0312 100.472 94.801C100.395 95.5708 100.637 96.3384 101.14 96.9257L101.2 96.9988Z" fill="#252422"/>
<path d="M101.2 96.9988C102.149 98.0173 103.593 98.4093 104.927 98.0103C104.945 98.0053 104.963 98.0009 104.981 97.9973C106.42 97.5918 107.964 97.839 109.204 98.6732L109.849 99.1041C110.77 99.7134 111.912 99.8885 112.974 99.5831C112.992 99.5778 113.011 99.5731 113.03 99.5695C114.532 99.1424 116.146 99.4336 117.403 100.358C118.39 101.068 118.982 102.204 119 103.419V104.923C119.009 105.286 119.179 105.627 119.463 105.854C119.814 106.141 120.255 106.296 120.709 106.291C121.555 106.373 122.313 105.767 122.419 104.923V101.505C122.534 100.341 123.513 99.4542 124.683 99.4542C125.852 99.4542 126.831 100.341 126.947 101.505V102.872C126.951 103.045 127.033 103.207 127.17 103.314C127.357 103.474 127.597 103.56 127.843 103.556C128.276 103.6 128.668 103.301 128.74 102.872V99.6452C128.771 98.892 129.405 98.3055 130.158 98.3326C130.297 98.3314 130.435 98.3495 130.568 98.3864C132.522 98.9612 134.633 98.3986 136.042 96.928C136.559 96.3503 136.821 95.5879 136.767 94.8142C136.689 94.0284 136.305 93.3048 135.698 92.7991C134.215 94.4104 131.958 95.0622 129.844 94.4898L127.812 93.9627C126.232 93.5545 124.566 93.6291 123.029 94.1767L119.127 95.5784C118.102 95.9431 117.022 96.1283 115.934 96.1259C114.777 96.128 113.63 95.9201 112.547 95.5123L109.944 94.5136C109.022 94.1633 108.043 93.9842 107.057 93.9848H105.793C104.895 93.9891 104.017 93.7156 103.28 93.2017C102.893 92.9265 102.548 92.5976 102.253 92.2251C102.175 92.3941 102.032 92.5238 101.855 92.5838L101.546 92.8495C100.936 93.3262 100.548 94.0312 100.472 94.801C100.395 95.5708 100.637 96.3384 101.14 96.9257L101.2 96.9988Z" fill="#FFFCF2"/>
<path d="M137.963 101.376L137.23 97.6255C137.179 97.6917 137.13 97.7593 137.075 97.8233C135.314 99.6908 132.657 100.416 130.192 99.7018C130.163 99.7014 130.134 99.7043 130.107 99.7104V102.873C130.044 104.062 129.033 104.978 127.843 104.924C127.267 104.93 126.709 104.725 126.274 104.348C125.837 103.982 125.582 103.443 125.579 102.873V101.505C125.468 101.102 125.101 100.822 124.682 100.822C124.263 100.822 123.896 101.102 123.785 101.505V104.924C123.684 106.525 122.311 107.745 120.709 107.658C119.928 107.666 119.17 107.394 118.573 106.892C117.983 106.408 117.638 105.687 117.632 104.924V103.419C117.617 102.632 117.226 101.9 116.58 101.451C115.651 100.774 114.46 100.569 113.358 100.898C113.34 100.903 113.321 100.907 113.303 100.911C111.864 101.316 110.32 101.069 109.079 100.235L108.434 99.8042C107.513 99.1944 106.371 99.0193 105.31 99.3252C105.291 99.3309 105.271 99.3355 105.252 99.3393C103.577 99.8122 101.777 99.389 100.489 98.2193L99.9595 101.83C99.5566 104.74 100.458 107.679 102.422 109.862C105.169 112.895 109.098 114.585 113.189 114.495H124.811C128.989 114.572 132.99 112.804 135.745 109.662C137.705 107.38 138.521 104.331 137.963 101.376Z" fill="#252422"/>
<path d="M137.963 101.376L137.23 97.6255C137.179 97.6917 137.13 97.7593 137.075 97.8233C135.314 99.6908 132.657 100.416 130.192 99.7018C130.163 99.7014 130.134 99.7043 130.107 99.7104V102.873C130.044 104.062 129.033 104.978 127.843 104.924C127.267 104.93 126.709 104.725 126.274 104.348C125.837 103.982 125.582 103.443 125.579 102.873V101.505C125.468 101.102 125.101 100.822 124.682 100.822C124.263 100.822 123.896 101.102 123.785 101.505V104.924C123.684 106.525 122.311 107.745 120.709 107.658C119.928 107.666 119.17 107.394 118.573 106.892C117.983 106.408 117.638 105.687 117.632 104.924V103.419C117.617 102.632 117.226 101.9 116.58 101.451C115.651 100.774 114.46 100.569 113.358 100.898C113.34 100.903 113.321 100.907 113.303 100.911C111.864 101.316 110.32 101.069 109.079 100.235L108.434 99.8042C107.513 99.1944 106.371 99.0193 105.31 99.3252C105.291 99.3309 105.271 99.3355 105.252 99.3393C103.577 99.8122 101.777 99.389 100.489 98.2193L99.9595 101.83C99.5566 104.74 100.458 107.679 102.422 109.862C105.169 112.895 109.098 114.585 113.189 114.495H124.811C128.989 114.572 132.99 112.804 135.745 109.662C137.705 107.38 138.521 104.331 137.963 101.376Z" fill="#FFFCF2"/>
</g>
<g clip-path="url(#clip3)">
<path d="M10.0041 45.9541L9.99692 45.9519L9.98963 45.95C9.63435 45.8531 9.35319 45.5817 9.24351 45.2304C9.16896 44.9451 9.24727 44.6413 9.451 44.4274L9.4511 44.4275L9.45892 44.4189L10.3962 43.3883C11.1157 44.0372 12.1235 44.5564 13.3062 44.9304C14.7327 45.3814 16.456 45.6348 18.3397 45.6348H18.3513L18.3628 45.6342C18.4218 45.6315 18.4803 45.6243 18.5379 45.6127C18.5954 45.6243 18.6539 45.6315 18.7128 45.6342L18.7244 45.6348H18.736C20.0065 45.6348 21.1674 45.3157 22.0267 44.7631C22.8839 44.2118 23.4881 43.3897 23.4881 42.4002C23.4881 41.4106 22.8839 40.5886 22.0267 40.0373C21.1688 39.4856 20.0104 39.1667 18.7424 39.1656C17.522 39.1355 16.3207 39.4726 15.2941 40.1334L15.2842 40.1398L15.2745 40.1467C14.7428 40.5257 14.6185 41.2637 14.9967 41.7959C15.3713 42.3233 16.0988 42.4512 16.6304 42.0867C17.2583 41.7025 17.9847 41.5099 18.7206 41.5326L18.7283 41.5329H18.736C19.4934 41.5329 20.1354 41.6992 20.5713 41.9203C20.7901 42.0313 20.9402 42.1474 21.0292 42.2472C21.0729 42.2961 21.0969 42.3354 21.1092 42.3625C21.1152 42.3758 21.1181 42.3853 21.1194 42.3913C21.1208 42.3971 21.1208 42.3999 21.1208 42.4002C21.1208 42.4005 21.1208 42.4033 21.1194 42.4091C21.1181 42.4151 21.1152 42.4246 21.1092 42.4378C21.0969 42.4649 21.0729 42.5043 21.0292 42.5532C20.9402 42.6529 20.7901 42.7691 20.5713 42.88C20.1354 43.1012 19.4934 43.2675 18.736 43.2675H18.7244L18.7128 43.268C18.6538 43.2708 18.5954 43.278 18.5378 43.2895C18.4803 43.278 18.4218 43.2708 18.3629 43.268L18.3513 43.2675H18.3397C16.319 43.2675 14.5726 42.9151 13.3484 42.4207C12.7344 42.1727 12.2734 41.8977 11.975 41.6316C11.6679 41.3577 11.5932 41.1503 11.5932 41.0329C11.5932 40.9155 11.6679 40.7081 11.975 40.4343C12.2734 40.1682 12.7345 39.8932 13.3484 39.6452C14.5726 39.1508 16.3191 38.7983 18.3397 38.7983C22.1844 38.7983 25.807 41.3795 27.5203 43.7908L27.5309 43.8057L27.5426 43.8198C27.8238 44.1598 27.9421 44.605 27.8677 45.0387C27.7811 45.2713 27.593 45.4527 27.356 45.5303L27.3393 45.5357L27.3231 45.5423L25.9413 46.1049C25.9411 46.105 25.9408 46.105 25.9406 46.1051C24.4889 46.6905 22.8874 46.7931 21.3728 46.3979L20.8678 46.2658C19.1398 45.8132 17.3203 45.8494 15.6116 46.3701C14.2273 46.788 12.7504 46.7881 11.366 46.3702C11.3658 46.3701 11.3655 46.37 11.3652 46.37L10.0041 45.9541Z" fill="#FFFCF2" stroke="#252422"/>
<path d="M4.48337 49.6571L4.49248 49.6634C4.91272 49.9542 5.41247 50.108 5.92346 50.1039L5.92748 50.1039V50.1039H7.19062H7.19095V50.6039C8.34405 50.6032 9.48765 50.8128 10.5655 51.2225L4.48337 49.6571ZM4.48337 49.6571L4.47399 49.6512C3.31983 48.9259 2.93912 47.4226 3.60675 46.2358C3.9041 45.7744 4.39351 45.4712 4.93953 45.4106L4.94694 45.4098L4.95432 45.4087L6.85126 45.1407M4.48337 49.6571L6.85126 45.1407M6.85126 45.1407C6.86051 45.3842 6.89769 45.6265 6.96257 45.8628L6.96253 45.8629L6.96439 45.8693C7.29268 47.0052 8.18125 47.8926 9.31729 48.2195L10.6758 48.6345L10.6775 48.635C12.5113 49.1882 14.4674 49.1882 16.3011 48.635L16.3027 48.6345C17.5918 48.2409 18.9649 48.2135 20.2686 48.5555L20.269 48.5556L20.7744 48.6878L20.7748 48.6879C22.7832 49.2113 24.9067 49.0748 26.8316 48.2986L26.8331 48.2979L28.2085 47.7379C29.1346 47.3944 29.8493 46.641 30.1433 45.6977L30.1435 45.6978L30.1472 45.6846C30.1975 45.5062 30.2322 45.3242 30.2512 45.1406L31.014 45.2638L31.014 45.2638L31.0189 45.2645C32.2012 45.4434 33.3106 45.9465 34.2241 46.7181L34.2318 46.7246L34.2398 46.7308C34.644 47.0451 34.9043 47.5093 34.9617 48.0183C35.0184 48.5208 34.8725 49.0249 34.5569 49.4194C34.5377 49.4393 34.505 49.4739 34.4818 49.5002C33.4681 50.6205 31.9091 51.0734 30.4527 50.6705L30.4527 50.6704L30.4449 50.6684L28.4157 50.142L28.4152 50.1419C26.4721 49.64 24.4232 49.732 22.5329 50.4057L22.5317 50.4061L18.6328 51.8067C18.6323 51.8069 18.6318 51.807 18.6313 51.8072C16.918 52.4098 15.0474 52.3909 13.3465 51.7541L6.85126 45.1407Z" fill="#FFFCF2" stroke="#252422"/>
<path d="M2.36688 50.9449C2.59912 51.184 2.85283 51.4018 3.12508 51.5955L3.12507 51.5955L3.12893 51.5982C3.94997 52.1708 4.92778 52.4757 5.92872 52.4712H7.19143H7.19177C8.1173 52.4705 9.03511 52.6386 9.90034 52.967C9.9006 52.9671 9.90086 52.9672 9.90112 52.9673L12.5027 53.9655L12.5027 53.9655L12.5055 53.9666C13.6445 54.3955 14.8518 54.6144 16.0689 54.6122M2.36688 50.9449L27.8212 52.433C26.3384 52.05 24.7748 52.12 23.3322 52.6339C23.332 52.6339 23.3318 52.634 23.3316 52.634L19.4306 54.0353L19.4292 54.0358C18.3506 54.4197 17.2138 54.6147 16.0689 54.6122M2.36688 50.9449C2.33013 50.9664 2.29212 50.986 2.25297 51.0035L2.00601 51.2154L1.99745 51.2227L1.98856 51.2297C1.48678 51.6223 1.1673 52.2028 1.10424 52.8368C1.04119 53.4708 1.24007 54.1029 1.65478 54.5866L1.66233 54.5954L1.66223 54.5955L1.71141 54.6557C2.53049 55.5265 3.77175 55.8606 4.91796 55.5176L4.92738 55.5148L4.92741 55.5149C4.95 55.5086 4.97312 55.5028 4.99691 55.4976C6.57185 55.0591 8.26024 55.3316 9.61741 56.2443C9.61759 56.2444 9.61777 56.2445 9.61795 56.2447L10.2596 56.6734C10.2599 56.6736 10.2602 56.6738 10.2606 56.674C11.0595 57.2021 12.0497 57.3537 12.9701 57.089L12.9718 57.0885C12.9944 57.0821 13.0195 57.0756 13.0465 57.0697C14.6904 56.6081 16.4558 56.929 17.8323 57.9403C18.9459 58.7431 19.6142 60.0253 19.6344 61.398L19.6345 61.4053H19.6344V62.9022C19.6416 63.1158 19.7419 63.3156 19.9092 63.4489L19.914 63.4528L19.914 63.4528C20.1746 63.6659 20.5018 63.7806 20.8383 63.7769L20.8655 63.7766L20.8925 63.7792C21.4597 63.8346 21.9688 63.4357 22.0534 62.8755V59.4913V59.4666L22.0559 59.442C22.1965 58.0222 23.3907 56.9405 24.8174 56.9405C26.2441 56.9405 27.4383 58.0223 27.5789 59.442L27.5814 59.4665V59.4913V60.8489C27.5829 60.871 27.5938 60.8916 27.6115 60.9053L27.6206 60.9124L27.6293 60.9198C27.7241 61.0008 27.8451 61.0444 27.9697 61.0423L27.9996 61.0418L28.0293 61.0449C28.1884 61.0613 28.3338 60.9591 28.3747 60.8076V57.6315V57.6212L28.3751 57.6109C28.4175 56.5865 29.2765 55.788 30.2999 55.8189C30.4809 55.8183 30.6613 55.8425 30.8359 55.8908L30.8438 55.893L30.8438 55.893C32.6155 56.4143 34.5298 55.9057 35.8093 54.5746C36.2314 54.1002 36.4454 53.4763 36.4034 52.8427C36.3521 52.3423 36.1522 51.8724 35.8344 51.4911C34.2342 52.9684 31.9761 53.534 29.8505 52.9594C29.8497 52.9592 29.8488 52.959 29.848 52.9587L27.8216 52.4331L2.36688 50.9449ZM16.0689 54.6122C16.0685 54.6122 16.0682 54.6122 16.0679 54.6122L16.069 54.1122L16.0699 54.6122C16.0696 54.6122 16.0692 54.6122 16.0689 54.6122Z" fill="#FFFCF2" stroke="#252422"/>
<path d="M13.5559 59.3834C13.5791 59.3784 13.605 59.3722 13.6323 59.3643L13.6323 59.3643L13.6361 59.3632C14.5878 59.0791 15.6176 59.2558 16.4202 59.8409L16.4202 59.841L16.4291 59.8472C16.9422 60.2044 17.2534 60.7856 17.2665 61.4106L17.2665 62.9098L17.2666 62.914C17.2741 63.8244 17.6848 64.6846 18.3878 65.263C19.0726 65.8371 19.9389 66.1494 20.8323 66.1446C22.7015 66.2375 24.3004 64.8113 24.4191 62.9416L24.4201 62.9258V62.9099V59.5722C24.4861 59.4138 24.6416 59.308 24.8167 59.308C24.9918 59.308 25.1474 59.4138 25.2134 59.5722L25.2134 60.859L25.2134 60.8624C25.2183 61.5779 25.5369 62.2549 26.0847 62.7147C26.6077 63.1673 27.2773 63.4145 27.9688 63.4101C29.4271 63.4692 30.6635 62.3446 30.7406 60.8854L30.7413 60.8722V60.859V58.3058C32.9916 58.7724 35.3309 58.1562 37.0581 56.6484L37.6067 59.4549C37.6068 59.4553 37.6068 59.4558 37.6069 59.4563C38.1358 62.2612 37.3613 65.1544 35.5018 67.32C32.844 70.3507 28.9853 72.0561 24.9549 71.9812V71.9811H24.9456H13.3234V71.981L13.3124 71.9813C9.36687 72.0687 5.57788 70.4385 2.92836 67.5137C1.06305 65.4403 0.207254 62.6497 0.589294 59.8871L0.99467 57.121C2.31728 57.98 3.95851 58.2427 5.50416 57.8119C5.53061 57.8063 5.5575 57.7995 5.58473 57.7915C6.50459 57.5269 7.49416 57.6787 8.2924 58.2069C8.29267 58.2071 8.29295 58.2072 8.29322 58.2074L8.93515 58.6364C8.93534 58.6365 8.93553 58.6366 8.93572 58.6367C10.2928 59.5491 11.981 59.8218 13.5559 59.3834Z" fill="#FFFCF2" stroke="#252422"/>
<path d="M48.2665 45.9231L48.2737 45.9253L49.6348 46.3411C49.6349 46.3412 49.6351 46.3413 49.6353 46.3413C51.0197 46.7593 52.4967 46.7593 53.8811 46.3413C55.5897 45.8206 57.4093 45.7844 59.1372 46.2369C59.1373 46.2369 59.1373 46.2369 59.1374 46.237L59.6423 46.369C61.1568 46.7643 62.7583 46.6617 64.21 46.0764C64.2102 46.0763 64.2105 46.0762 64.2108 46.0761L65.5926 45.5135L65.6089 45.5069L65.6255 45.5015C65.8626 45.4238 66.0506 45.2425 66.1373 45.0098C66.2116 44.5762 66.0933 44.131 65.8121 43.791L65.8005 43.7769L65.7898 43.762C64.0766 41.3507 60.4539 38.7695 56.6092 38.7695C54.5886 38.7695 52.8422 39.122 51.618 39.6164C51.004 39.8644 50.5429 40.1394 50.2445 40.4054C49.9374 40.6793 49.8627 40.8867 49.8627 41.0041C49.8627 41.1215 49.9374 41.3289 50.2445 41.6028C50.5429 41.8689 51.004 42.1439 51.6179 42.3919C52.8421 42.8863 54.5886 43.2387 56.6092 43.2387H56.6208L56.6324 43.2392C56.6913 43.242 56.7498 43.2492 56.8074 43.2607C56.8649 43.2492 56.9234 43.242 56.9824 43.2392L56.9939 43.2387H57.0055C57.7629 43.2387 58.4049 43.0724 58.8409 42.8512C59.0596 42.7403 59.2097 42.6241 59.2988 42.5244C59.3425 42.4754 59.3664 42.4361 59.3787 42.409C59.3847 42.3958 59.3876 42.3862 59.389 42.3803C59.3903 42.3745 59.3903 42.3717 59.3903 42.3714C59.3903 42.3711 59.3903 42.3683 59.389 42.3625C59.3876 42.3565 59.3847 42.3469 59.3787 42.3337C59.3664 42.3066 59.3425 42.2673 59.2988 42.2184C59.2097 42.1186 59.0596 42.0025 58.8409 41.8915C58.4049 41.6704 57.7629 41.504 57.0055 41.504H56.9978L56.9901 41.5038C56.2542 41.4811 55.5278 41.6737 54.8999 42.0579C54.3684 42.4224 53.6408 42.2945 53.2662 41.7671L48.2665 45.9231ZM48.2665 45.9231L48.2592 45.9211M48.2665 45.9231L48.2592 45.9211M48.2592 45.9211C47.9039 45.8242 47.6227 45.5529 47.513 45.2016C47.4385 44.9163 47.5168 44.6125 47.7205 44.3986L47.7206 44.3987L47.7285 44.3901L48.6657 43.3595C49.3852 44.0084 50.393 44.5276 51.5757 44.9016C53.0022 45.3526 54.7255 45.606 56.6092 45.606H56.6208L56.6324 45.6054C56.6914 45.6027 56.7499 45.5955 56.8074 45.5839C56.8649 45.5955 56.9234 45.6027 56.9823 45.6054L56.9939 45.606H57.0055C58.276 45.606 59.4369 45.2869 60.2962 44.7343C61.1534 44.183 61.7577 43.3609 61.7577 42.3714C61.7577 41.3818 61.1534 40.5598 60.2962 40.0085C59.4384 39.4568 58.2799 39.1379 57.0119 39.1368C55.7915 39.1067 54.5902 39.4438 53.5636 40.1046L53.5537 40.111M48.2592 45.9211L53.5537 40.111M53.5537 40.111L53.5441 40.1179M53.5537 40.111L53.5441 40.1179M53.5441 40.1179C53.0123 40.4968 52.888 41.2348 53.2662 41.7671L53.5441 40.1179Z" fill="#FFFCF2" stroke="#252422"/>
<path d="M42.7529 49.6282L42.762 49.6345C43.1823 49.9254 43.682 50.0792 44.193 50.0751L44.197 50.0751V50.0751H45.4602H45.4605V50.5751C46.6136 50.5744 47.7572 50.784 48.8351 51.1936L42.7529 49.6282ZM42.7529 49.6282L42.7435 49.6223C41.5894 48.8971 41.2087 47.3938 41.8763 46.207C42.1736 45.7456 42.663 45.4424 43.2091 45.3818L43.2165 45.381L43.2239 45.3799L45.1208 45.1119M42.7529 49.6282L45.1208 45.1119M45.1208 45.1119C45.13 45.3554 45.1672 45.5977 45.2321 45.834L45.2321 45.834L45.2339 45.8405C45.5622 46.9764 46.4508 47.8638 47.5868 48.1907L48.9454 48.6057L48.9471 48.6062C50.7808 49.1594 52.7369 49.1594 54.5706 48.6062L54.5722 48.6057C55.8613 48.212 57.2344 48.1847 58.5382 48.5267L58.5385 48.5267L59.0439 48.6589L59.0443 48.6591C61.0527 49.1825 63.1763 49.046 65.1011 48.2698L65.1026 48.2691L66.4781 47.7091C67.4041 47.3656 68.1189 46.6122 68.4129 45.6689L68.413 45.669L68.4168 45.6557C68.467 45.4774 68.5017 45.2954 68.5207 45.1118L69.2835 45.2349L69.2835 45.235L69.2885 45.2357C70.4707 45.4146 71.5802 45.9177 72.4936 46.6893L72.5014 46.6958L72.5093 46.702C72.9135 47.0163 73.1738 47.4805 73.2312 47.9895C73.2879 48.492 73.1421 48.9961 72.8264 49.3905C72.8072 49.4106 72.7745 49.4451 72.7513 49.4714C71.7376 50.5917 70.1786 51.0446 68.7222 50.6417L68.7222 50.6416L68.7144 50.6396L66.6852 50.1132L66.6847 50.1131C64.7416 49.6112 62.6927 49.7031 60.8024 50.3769L60.8012 50.3773L56.9023 51.7779C56.9018 51.7781 56.9013 51.7782 56.9008 51.7784C55.1875 52.381 53.3169 52.3621 51.616 51.7252L45.1208 45.1119Z" fill="#FFFCF2" stroke="#252422"/>
<path d="M40.6364 50.9161C40.8686 51.1552 41.1224 51.373 41.3946 51.5667L41.3946 51.5667L41.3985 51.5694C42.2195 52.1419 43.1973 52.4469 44.1983 52.4424H45.461H45.4613C46.3868 52.4417 47.3046 52.6098 48.1699 52.9382C48.1701 52.9383 48.1704 52.9384 48.1707 52.9385L50.7722 53.9367L50.7722 53.9367L50.7751 53.9378C51.914 54.3667 53.1213 54.5855 54.3384 54.5834M40.6364 50.9161L66.0907 52.4042C64.6079 52.0212 63.0443 52.0912 61.6017 52.605C61.6015 52.6051 61.6014 52.6052 61.6012 52.6052L57.7001 54.0065L57.6987 54.007C56.6201 54.3909 55.4833 54.5859 54.3384 54.5834M40.6364 50.9161C40.5997 50.9376 40.5616 50.9572 40.5225 50.9747L40.2755 51.1866L40.267 51.1939L40.2581 51.2009C39.7563 51.5934 39.4368 52.174 39.3738 52.808C39.3107 53.442 39.5096 54.0741 39.9243 54.5578L39.9319 54.5666L39.9318 54.5667L39.9809 54.6269C40.8 55.4977 42.0413 55.8318 43.1875 55.4888L43.1969 55.486L43.1969 55.486C43.2195 55.4798 43.2427 55.474 43.2664 55.4688C44.8414 55.0303 46.5298 55.3028 47.8869 56.2155C47.8871 56.2156 47.8873 56.2157 47.8875 56.2159L48.5292 56.6446C48.5295 56.6448 48.5298 56.645 48.5301 56.6452C49.3291 57.1733 50.3192 57.3249 51.2397 57.0601L51.2413 57.0597C51.2639 57.0533 51.289 57.0468 51.316 57.0409C52.96 56.5793 54.7253 56.9002 56.1019 57.9115C57.2154 58.7143 57.8837 59.9964 57.9039 61.3692L57.904 61.3765H57.904V62.8734C57.9112 63.0869 58.0115 63.2868 58.1787 63.4201L58.1835 63.424L58.1835 63.424C58.4441 63.6371 58.7713 63.7518 59.1079 63.7481L59.135 63.7478L59.1621 63.7504C59.7292 63.8058 60.2383 63.4069 60.323 62.8467V59.4624V59.4377L60.3254 59.4132C60.4661 57.9934 61.6603 56.9117 63.0869 56.9117C64.5136 56.9117 65.7078 57.9935 65.8484 59.4132L65.8509 59.4377V59.4624V60.8201C65.8525 60.8422 65.8634 60.8628 65.881 60.8765L65.8901 60.8836L65.8988 60.891C65.9936 60.972 66.1147 61.0156 66.2392 61.0135L66.2691 61.013L66.2988 61.0161C66.4579 61.0325 66.6033 60.9303 66.6442 60.7788V57.6027V57.5924L66.6446 57.582C66.687 56.5577 67.546 55.7592 68.5694 55.7901C68.7505 55.7895 68.9308 55.8137 69.1054 55.862L69.1134 55.8642L69.1133 55.8642C70.8851 56.3855 72.7994 55.8769 74.0788 54.5458C74.5009 54.0714 74.7149 53.4474 74.6729 52.8139C74.6216 52.3135 74.4217 51.8436 74.104 51.4623C72.5037 52.9396 70.2456 53.5052 68.1201 52.9306C68.1192 52.9304 68.1184 52.9302 68.1175 52.9299L66.0912 52.4043L40.6364 50.9161ZM54.3384 54.5834C54.3381 54.5834 54.3377 54.5834 54.3374 54.5834L54.3385 54.0834L54.3395 54.5834C54.3391 54.5834 54.3388 54.5834 54.3384 54.5834Z" fill="#FFFCF2" stroke="#252422"/>
<path d="M51.8254 59.3546C51.8487 59.3496 51.8745 59.3434 51.9018 59.3355L51.9018 59.3355L51.9056 59.3343C52.8573 59.0503 53.8871 59.227 54.6898 59.8121L54.6897 59.8122L54.6986 59.8184C55.2117 60.1756 55.523 60.7568 55.5361 61.3818L55.536 62.881L55.5361 62.8852C55.5437 63.7956 55.9543 64.6558 56.6573 65.2342C57.3422 65.8082 58.2085 66.1206 59.1018 66.1158C60.971 66.2086 62.5699 64.7825 62.6886 62.9128L62.6896 62.897V62.8811V59.5433C62.7557 59.385 62.9112 59.2792 63.0863 59.2792C63.2614 59.2792 63.4169 59.385 63.4829 59.5433L63.4829 60.8302L63.4829 60.8336C63.4878 61.5491 63.8065 62.2261 64.3543 62.6859C64.8772 63.1385 65.5469 63.3857 66.2384 63.3813C67.6966 63.4404 68.933 62.3158 69.0102 60.8566L69.0109 60.8434V60.8302V58.277C71.2611 58.7436 73.6004 58.1274 75.3277 56.6196L75.8762 59.4261C75.8763 59.4265 75.8764 59.427 75.8765 59.4275C76.4053 62.2324 75.6309 65.1256 73.7714 67.2912C71.1135 70.3219 67.2549 72.0273 63.2244 71.9524V71.9523H63.2151H51.593V71.9522L51.5819 71.9524C47.6364 72.0399 43.8474 70.4097 41.1979 67.4849C39.3326 65.4115 38.4768 62.6209 38.8588 59.8583L39.2642 57.0922C40.5868 57.9512 42.228 58.2139 43.7737 57.7831C43.8001 57.7775 43.827 57.7707 43.8543 57.7627C44.7741 57.4981 45.7637 57.6499 46.5619 58.1781C46.5622 58.1783 46.5625 58.1784 46.5628 58.1786L47.2047 58.6075C47.2049 58.6077 47.2051 58.6078 47.2053 58.6079C48.5623 59.5203 50.2506 59.793 51.8254 59.3546Z" fill="#FFFCF2" stroke="#252422"/>
<path d="M28.8694 11.9678L28.8622 11.9656L28.8549 11.9636C28.4996 11.8667 28.2184 11.5954 28.1087 11.244C28.0342 10.9588 28.1125 10.6549 28.3162 10.4411L28.3163 10.4412L28.3242 10.4326L29.2614 9.40197C29.9809 10.0508 30.9887 10.5701 32.1714 10.944C33.5979 11.3951 35.3212 11.6484 37.2049 11.6484H37.2165L37.2281 11.6479C37.2871 11.6452 37.3456 11.6379 37.4031 11.6264C37.4606 11.6379 37.5191 11.6452 37.578 11.6479L37.5896 11.6484H37.6012C38.8717 11.6484 40.0326 11.3293 40.8919 10.7767C41.7491 10.2255 42.3534 9.40341 42.3534 8.41385C42.3534 7.42429 41.7491 6.60223 40.8919 6.05096C40.0341 5.49929 38.8756 5.18034 37.6076 5.17927C36.3872 5.14918 35.1859 5.48631 34.1593 6.14708L34.1494 6.15348L34.1398 6.16034C33.608 6.53933 33.4837 7.27735 33.8619 7.8096C34.2365 8.33694 34.9641 8.46489 35.4956 8.10039C36.1235 7.71618 36.8499 7.52357 37.5858 7.54628L37.5935 7.54652H37.6012C38.3586 7.54652 39.0006 7.71287 39.4366 7.934C39.6553 8.04495 39.8054 8.16112 39.8945 8.26084C39.9382 8.30978 39.9621 8.34911 39.9744 8.37621C39.9804 8.38942 39.9833 8.39898 39.9847 8.40494C39.986 8.41076 39.986 8.41355 39.986 8.41385C39.986 8.41415 39.986 8.41694 39.9847 8.42277C39.9833 8.42872 39.9804 8.43828 39.9744 8.4515C39.9621 8.47859 39.9382 8.51792 39.8945 8.56687C39.8054 8.66659 39.6553 8.78276 39.4366 8.8937C39.0006 9.11483 38.3586 9.28118 37.6012 9.28118H37.5896L37.5781 9.28172C37.5191 9.28445 37.4606 9.29167 37.4031 9.30322C37.3455 9.29167 37.287 9.28446 37.2281 9.28172L37.2165 9.28118H37.2049C35.1843 9.28118 33.4378 8.92875 32.2136 8.43434C31.5997 8.18636 31.1386 7.91136 30.8402 7.64527C30.5331 7.37141 30.4584 7.164 30.4584 7.0466C30.4584 6.9292 30.5331 6.72179 30.8402 6.44793C31.1386 6.18184 31.5997 5.90683 32.2137 5.65886C33.4379 5.16445 35.1843 4.81201 37.2049 4.81201C41.0496 4.81201 44.6722 7.39316 46.3855 9.80444L46.3961 9.81937L46.4078 9.83349C46.689 10.1735 46.8073 10.6187 46.733 11.0523C46.6463 11.285 46.4582 11.4663 46.2212 11.5439L46.2046 11.5494L46.1883 11.556L44.8065 12.1185C44.8062 12.1187 44.8059 12.1188 44.8057 12.1189C43.354 12.7041 41.7525 12.8067 40.238 12.4115L39.733 12.2794C38.005 11.8269 36.1853 11.863 34.4765 12.3838C33.0923 12.8017 31.6155 12.8017 30.2313 12.3839C30.231 12.3838 30.2307 12.3837 30.2305 12.3836L28.8694 11.9678Z" fill="#FFFCF2" stroke="#252422"/>
<path d="M23.3486 15.6707L23.3577 15.677C23.778 15.9678 24.2777 16.1217 24.7887 16.1176L24.7927 16.1176V16.1176H26.0559H26.0562V16.6176C27.2093 16.6168 28.3529 16.8264 29.4308 17.2361L23.3486 15.6707ZM23.3486 15.6707L23.3392 15.6648C22.1851 14.9396 21.8044 13.4363 22.472 12.2495C22.7693 11.7881 23.2587 11.4849 23.8048 11.4243L23.8122 11.4234L23.8196 11.4224L25.7165 11.1544M23.3486 15.6707L25.7165 11.1544M25.7165 11.1544C25.7257 11.3978 25.7629 11.6402 25.8278 11.8765L25.8278 11.8765L25.8296 11.883C26.1579 13.0188 27.0465 13.9063 28.1825 14.2331L29.5411 14.6482L29.5428 14.6487C31.3765 15.2019 33.3326 15.2019 35.1663 14.6487L35.1679 14.6482C36.457 14.2545 37.8301 14.2272 39.1339 14.5691L39.1342 14.5692L39.6396 14.7014L39.64 14.7015C41.6484 15.2249 43.772 15.0885 45.6968 14.3123L45.6983 14.3116L47.0738 13.7516C47.9998 13.4081 48.7146 12.6547 49.0086 11.7114L49.0087 11.7114L49.0125 11.6982C49.0627 11.5198 49.0975 11.3378 49.1164 11.1542L49.8793 11.2774L49.8793 11.2775L49.8842 11.2782C51.0664 11.4571 52.1759 11.9602 53.0894 12.7317L53.0971 12.7382L53.105 12.7444C53.5092 13.0588 53.7695 13.523 53.8269 14.0319C53.8836 14.5345 53.7378 15.0386 53.4221 15.433C53.403 15.453 53.3702 15.4875 53.3471 15.5139C52.3333 16.6342 50.7743 17.087 49.3179 16.6842L49.3179 16.6841L49.3101 16.6821L47.2809 16.1557L47.2804 16.1555C45.3373 15.6537 43.2884 15.7456 41.3981 16.4194L41.3969 16.4198L37.498 17.8204C37.4975 17.8205 37.497 17.8207 37.4966 17.8209C35.7832 18.4234 33.9126 18.4046 32.2117 17.7677L25.7165 11.1544Z" fill="#FFFCF2" stroke="#252422"/>
<path d="M34.9341 20.6259C33.717 20.628 32.5097 20.4092 31.3708 19.9803L31.3679 19.9792L31.3679 19.9792L28.7664 18.981C28.7661 18.9809 28.7658 18.9808 28.7656 18.9807C27.9003 18.6522 26.9825 18.4842 26.057 18.4848H26.0567H24.794C23.793 18.4893 22.8152 18.1844 21.9942 17.6118L21.9903 17.6092L21.9903 17.6091C21.7181 17.4155 21.4644 17.1976 21.2321 16.9586C21.1954 16.9801 21.1573 16.9997 21.1182 17.0172L20.8712 17.229L20.8627 17.2364L20.8538 17.2433C20.352 17.6359 20.0325 18.2165 19.9695 18.8505C19.9064 19.4844 20.1053 20.1166 20.52 20.6003L20.5276 20.6091L20.5275 20.6092L20.5766 20.6693C21.3957 21.5402 22.637 21.8743 23.7832 21.5313L23.7926 21.5284L23.7926 21.5285C23.8152 21.5223 23.8384 21.5165 23.8621 21.5113C25.4371 21.0727 27.1255 21.3453 28.4826 22.258C28.4828 22.2581 28.483 22.2582 28.4832 22.2583L29.1249 22.6871C29.1252 22.6873 29.1255 22.6875 29.1258 22.6877C29.9248 23.2157 30.9149 23.3674 31.8354 23.1026L31.837 23.1022C31.8596 23.0957 31.8847 23.0893 31.9117 23.0834C33.5557 22.6218 35.321 22.9426 36.6976 23.954C37.8111 24.7568 38.4794 26.0389 38.4996 27.4117L38.4997 27.419H38.4997V28.9159C38.5069 29.1294 38.6072 29.3293 38.7744 29.4626L38.7793 29.4665L38.7792 29.4665C39.0398 29.6796 39.367 29.7943 39.7036 29.7905L39.7307 29.7902L39.7578 29.7929C40.3249 29.8483 40.834 29.4494 40.9187 28.8892V25.5049V25.4802L40.9211 25.4556C41.0618 24.0359 42.256 22.9542 43.6826 22.9542C45.1093 22.9542 46.3035 24.036 46.4442 25.4556L46.4466 25.4802V25.5049V26.8626C46.4482 26.8847 46.4591 26.9053 46.4767 26.919L46.4858 26.9261L46.4945 26.9335C46.5893 27.0145 46.7104 27.0581 46.8349 27.056L46.8648 27.0555L46.8945 27.0586C47.0536 27.075 47.199 26.9728 47.2399 26.8213V23.6452V23.6349L47.2403 23.6245C47.2827 22.6002 48.1417 21.8017 49.1651 21.8326C49.3462 21.832 49.5265 21.8562 49.7011 21.9044L49.7091 21.9066L49.709 21.9067C51.4808 22.428 53.3951 21.9194 54.6745 20.5883C55.0966 20.1139 55.3106 19.4899 55.2686 18.8563C55.2173 18.356 55.0174 17.8861 54.6997 17.5048C53.0994 18.982 50.8413 19.5477 48.7158 18.9731C48.7149 18.9729 48.7141 18.9727 48.7132 18.9724L46.6869 18.4468C46.6868 18.4468 46.6867 18.4468 46.6866 18.4467C45.2037 18.0637 43.6401 18.1336 42.1974 18.6475C42.1972 18.6476 42.1971 18.6477 42.1969 18.6477L38.2958 20.049L38.2944 20.0495C37.2158 20.4333 36.079 20.6283 34.9341 20.6259ZM34.9341 20.6259C34.9338 20.6259 34.9334 20.6259 34.9331 20.6259L34.9342 20.1259L34.9352 20.6259C34.9348 20.6259 34.9345 20.6259 34.9341 20.6259Z" fill="#FFFCF2" stroke="#252422"/>
<path d="M32.4212 25.3971C32.4444 25.3921 32.4702 25.3858 32.4975 25.3779L32.4975 25.378L32.5013 25.3768C33.453 25.0928 34.4828 25.2695 35.2855 25.8546L35.2854 25.8547L35.2943 25.8609C35.8074 26.2181 36.1187 26.7993 36.1318 27.4243L36.1318 28.9235L36.1318 28.9277C36.1394 29.8381 36.55 30.6983 37.253 31.2767C37.9379 31.8507 38.8042 32.1631 39.6975 32.1583C41.5667 32.2511 43.1656 30.8249 43.2843 28.9553L43.2854 28.9394V28.9236V25.5858C43.3514 25.4275 43.5069 25.3217 43.682 25.3217C43.8571 25.3217 44.0126 25.4275 44.0786 25.5858L44.0786 26.8727L44.0786 26.8761C44.0835 27.5915 44.4022 28.2686 44.95 28.7284C45.4729 29.181 46.1426 29.4282 46.8341 29.4237C48.2923 29.4829 49.5287 28.3583 49.6059 26.899L49.6066 26.8859V26.8727V24.3195C51.8568 24.7861 54.1961 24.1699 55.9234 22.6621L56.4719 25.4685C56.472 25.469 56.4721 25.4695 56.4722 25.47C57.001 28.2749 56.2266 31.1681 54.3671 33.3337C51.7092 36.3644 47.8506 38.0698 43.8201 37.9949V37.9948H43.8108H32.1887V37.9947L32.1776 37.9949C28.2321 38.0823 24.4431 36.4522 21.7936 33.5274C19.9283 31.4539 19.0725 28.6634 19.4545 25.9007L19.8599 23.1347C21.1825 23.9936 22.8237 24.2564 24.3694 23.8256C24.3958 23.8199 24.4227 23.8132 24.45 23.8052C25.3698 23.5406 26.3594 23.6924 27.1576 24.2206C27.1579 24.2207 27.1582 24.2209 27.1585 24.2211L27.8004 24.65C27.8006 24.6502 27.8008 24.6503 27.801 24.6504C29.158 25.5628 30.8463 25.8355 32.4212 25.3971Z" fill="#FFFCF2" stroke="#252422"/>
</g>
<defs>
<clipPath id="clip0">
<rect width="76" height="76" fill="white" transform="translate(0 76)"/>
</clipPath>
<clipPath id="clip1">
<rect width="76" height="76" fill="white" transform="translate(81)"/>
</clipPath>
<clipPath id="clip2">
<rect width="76" height="76" fill="white" transform="translate(81 76)"/>
</clipPath>
<clipPath id="clip3">
<rect width="76" height="76" fill="white"/>
</clipPath>
</defs>
</svg>
