<svg width="150" height="128" viewBox="0 0 150 128" fill="none" xmlns="http://www.w3.org/2000/svg">
<path d="M59.4352 14.6124L59.4279 14.6102L59.4206 14.6082C58.6175 14.3892 57.9826 13.7742 57.7378 12.9786C57.5576 12.3032 57.7417 11.5825 58.2243 11.076L58.2244 11.0761L58.2322 11.0675L60.2648 8.83236C61.5465 10.1144 63.4725 11.1556 65.8152 11.8963C68.4135 12.7179 71.5662 13.1833 75.0246 13.1833H75.0362L75.0478 13.1827C75.1644 13.1773 75.2797 13.1601 75.3922 13.1317C75.5048 13.1602 75.6202 13.1773 75.7367 13.1827L75.7482 13.1833H75.7598C78.05 13.1833 80.12 12.6074 81.6336 11.634C83.145 10.662 84.1486 9.25526 84.1486 7.60994C84.1486 5.96463 83.145 4.55788 81.6336 3.58586C80.1215 2.61342 78.0539 2.03768 75.7663 2.0366C73.586 1.98182 71.4397 2.58365 69.6057 3.76409L69.5958 3.77049L69.5862 3.77735C68.7917 4.34351 68.6061 5.44602 69.171 6.24117C69.7327 7.03181 70.8252 7.22154 71.6201 6.66983C72.8583 5.90946 74.292 5.52813 75.7444 5.57296L75.7521 5.5732H75.7598C77.2232 5.5732 78.4821 5.89387 79.3583 6.33833C79.7972 6.56094 80.1234 6.80603 80.3334 7.04127C80.5455 7.27881 80.6119 7.47351 80.6119 7.60994C80.6119 7.74638 80.5455 7.94108 80.3334 8.17862C80.1234 8.41385 79.7972 8.65894 79.3583 8.88155C78.4821 9.32602 77.2232 9.64668 75.7598 9.64668H75.7483L75.7367 9.64722C75.6201 9.65262 75.5047 9.66982 75.3922 9.69829C75.2797 9.66981 75.1643 9.65263 75.0478 9.64722L75.0362 9.64668H75.0246C71.2304 9.64668 67.9346 8.98555 65.6044 8.04445C64.4374 7.57313 63.5342 7.04028 62.9319 6.50319C62.3209 5.95832 62.0805 5.46674 62.0805 5.07334C62.0805 4.67994 62.3209 4.18836 62.9319 3.64349C63.5342 3.1064 64.4375 2.57355 65.6045 2.10223C67.9347 1.16113 71.2305 0.5 75.0246 0.5C82.331 0.5 89.1694 5.38767 92.4055 9.94214L92.4161 9.95708L92.4278 9.9712C93.0373 10.7081 93.2889 11.6763 93.1162 12.6156C92.9169 13.1875 92.4619 13.6346 91.8852 13.8234L91.8686 13.8289L91.8523 13.8355L89.2874 14.8796C89.2871 14.8797 89.2869 14.8798 89.2867 14.8799C86.5081 16.0004 83.4427 16.1969 80.5438 15.4404L79.6066 15.1952C76.477 14.3757 73.1816 14.4412 70.0871 15.3844C67.4379 16.1843 64.6114 16.1843 61.9622 15.3844C61.962 15.3843 61.9618 15.3843 61.9616 15.3842L59.4352 14.6124Z" fill="#FFFCF2" stroke="#252422"/>
<path d="M49.082 21.4305L49.0912 21.4369C49.9433 22.0265 50.9566 22.3385 51.9928 22.3302L51.9968 22.3302V22.3302H54.3405H54.3408V22.8302C56.4801 22.8288 58.6018 23.2176 60.6015 23.9777L49.082 21.4305ZM49.082 21.4305L49.0727 21.4247C46.7346 19.9555 45.9658 16.9077 47.3248 14.5055C47.9454 13.5353 48.9715 12.8974 50.1167 12.7702L50.1241 12.7694L50.1315 12.7684L54.1406 12.2019M49.082 21.4305L54.1406 12.2019M54.1406 12.2019C54.1122 12.78 54.1755 13.3603 54.3295 13.9211L54.3295 13.9211L54.3313 13.9276C54.8999 15.8947 56.4393 17.4314 58.4073 17.9964L60.9311 18.7675L60.9328 18.768C64.2543 19.77 67.7975 19.77 71.1189 18.768L71.1205 18.7675C73.588 18.014 76.2162 17.9616 78.7117 18.6162L78.712 18.6162L79.6497 18.8615L79.6501 18.8616C83.2874 19.8095 87.1332 19.5624 90.6191 18.1566L90.6207 18.156L93.1788 17.1144C94.7756 16.5243 96.0083 15.2262 96.515 13.6007L96.5152 13.6008L96.5189 13.5875C96.6467 13.1339 96.7162 12.6666 96.7262 12.197L98.6068 12.5007L98.6068 12.5007L98.6117 12.5015C100.883 12.8451 103.015 13.8118 104.77 15.2943L104.778 15.3008L104.786 15.307C105.627 15.9609 106.168 16.9265 106.287 17.9852C106.406 19.0372 106.098 20.0926 105.433 20.9154C105.4 20.9491 105.328 21.0249 105.289 21.0696C103.3 23.2678 100.241 24.1564 97.3831 23.3658L97.3831 23.3658L97.3754 23.3638L93.6106 22.3871L93.6101 22.387C90.0879 21.4774 86.3741 21.644 82.9475 22.8653L82.9463 22.8657L75.7102 25.465C75.7097 25.4652 75.7092 25.4654 75.7087 25.4656C72.4345 26.6174 68.8596 26.5813 65.6093 25.3638C65.6087 25.3636 65.6081 25.3634 65.6075 25.3632L54.1406 12.2019Z" fill="#FFFCF2" stroke="#252422"/>
<mask id="path-3-inside-1" fill="white">
<path d="M43.4765 30.9589C45.2364 32.8485 47.9161 33.5758 50.3899 32.8355C50.4233 32.8262 50.4568 32.8181 50.4909 32.8113C53.16 32.0592 56.0248 32.5176 58.3258 34.0654L59.5224 34.8649C61.2315 35.9952 63.3499 36.32 65.3191 35.7536C65.3538 35.7437 65.3891 35.735 65.4244 35.7282C68.2096 34.9359 71.2046 35.4761 73.5374 37.1916C75.3675 38.5092 76.4659 40.6152 76.4991 42.8701V45.6607C76.5165 46.3346 76.8309 46.9663 77.3581 47.3867C78.0099 47.9198 78.8285 48.2068 79.6706 48.1974C81.2404 48.3507 82.6468 47.2259 82.8422 45.6607V39.319C83.0561 37.1595 84.8724 35.5143 87.0424 35.5143C89.2123 35.5143 91.0286 37.1597 91.2426 39.319V41.8557C91.251 42.1767 91.4029 42.4772 91.6564 42.6745C92.0042 42.9717 92.4486 43.1317 92.9062 43.1241C93.7085 43.2067 94.4369 42.6513 94.5696 41.8557V35.8687C94.6275 34.4713 95.8033 33.3832 97.2011 33.4335C97.4578 33.4313 97.7136 33.4649 97.961 33.5333C101.586 34.5996 105.502 33.556 108.116 30.8276C109.076 29.7559 109.561 28.3413 109.462 26.9061C109.317 25.4482 108.605 24.1056 107.479 23.1675C104.727 26.1568 100.54 27.3661 96.6178 26.3041L92.848 25.3262C89.917 24.5689 86.8262 24.7073 83.9746 25.7233L76.7349 28.3238C74.8337 29.0004 72.8299 29.344 70.8119 29.3394C68.6655 29.3435 66.5363 28.9577 64.5277 28.2012L59.6983 26.3482C57.9872 25.6984 56.1721 25.3661 54.3418 25.3673H51.997C50.3305 25.3752 48.7024 24.8678 47.3354 23.9144C46.6177 23.4038 45.9762 22.7937 45.43 22.1025C45.2856 22.4161 45.019 22.6567 44.6923 22.768L44.1175 23.261C42.9872 24.1454 42.2675 25.4533 42.1254 26.8815C41.9834 28.3097 42.4315 29.7337 43.3656 30.8234L43.4765 30.9589Z"/>
</mask>
<path d="M43.4765 30.9589C45.2364 32.8485 47.9161 33.5758 50.3899 32.8355C50.4233 32.8262 50.4568 32.8181 50.4909 32.8113C53.16 32.0592 56.0248 32.5176 58.3258 34.0654L59.5224 34.8649C61.2315 35.9952 63.3499 36.32 65.3191 35.7536C65.3538 35.7437 65.3891 35.735 65.4244 35.7282C68.2096 34.9359 71.2046 35.4761 73.5374 37.1916C75.3675 38.5092 76.4659 40.6152 76.4991 42.8701V45.6607C76.5165 46.3346 76.8309 46.9663 77.3581 47.3867C78.0099 47.9198 78.8285 48.2068 79.6706 48.1974C81.2404 48.3507 82.6468 47.2259 82.8422 45.6607V39.319C83.0561 37.1595 84.8724 35.5143 87.0424 35.5143C89.2123 35.5143 91.0286 37.1597 91.2426 39.319V41.8557C91.251 42.1767 91.4029 42.4772 91.6564 42.6745C92.0042 42.9717 92.4486 43.1317 92.9062 43.1241C93.7085 43.2067 94.4369 42.6513 94.5696 41.8557V35.8687C94.6275 34.4713 95.8033 33.3832 97.2011 33.4335C97.4578 33.4313 97.7136 33.4649 97.961 33.5333C101.586 34.5996 105.502 33.556 108.116 30.8276C109.076 29.7559 109.561 28.3413 109.462 26.9061C109.317 25.4482 108.605 24.1056 107.479 23.1675C104.727 26.1568 100.54 27.3661 96.6178 26.3041L92.848 25.3262C89.917 24.5689 86.8262 24.7073 83.9746 25.7233L76.7349 28.3238C74.8337 29.0004 72.8299 29.344 70.8119 29.3394C68.6655 29.3435 66.5363 28.9577 64.5277 28.2012L59.6983 26.3482C57.9872 25.6984 56.1721 25.3661 54.3418 25.3673H51.997C50.3305 25.3752 48.7024 24.8678 47.3354 23.9144C46.6177 23.4038 45.9762 22.7937 45.43 22.1025C45.2856 22.4161 45.019 22.6567 44.6923 22.768L44.1175 23.261C42.9872 24.1454 42.2675 25.4533 42.1254 26.8815C41.9834 28.3097 42.4315 29.7337 43.3656 30.8234L43.4765 30.9589Z" fill="#FFFCF2"/>
<path d="M43.4765 30.9589L42.7024 31.592L42.7228 31.6169L42.7447 31.6405L43.4765 30.9589ZM50.3899 32.8355L50.122 31.872L50.1126 31.8746L50.1032 31.8775L50.3899 32.8355ZM50.4909 32.8113L50.6862 33.7921L50.7245 33.7844L50.7621 33.7738L50.4909 32.8113ZM58.3258 34.0654L57.7677 34.8952L57.7703 34.8969L58.3258 34.0654ZM59.5224 34.8649L58.9668 35.6964L58.9707 35.699L59.5224 34.8649ZM65.3191 35.7536L65.0459 34.7916L65.0427 34.7925L65.3191 35.7536ZM65.4244 35.7282L65.6131 36.7102L65.656 36.702L65.698 36.69L65.4244 35.7282ZM73.5374 37.1916L72.9449 37.9973L72.9531 38.0031L73.5374 37.1916ZM76.4991 42.8701H77.4991V42.8627L77.499 42.8554L76.4991 42.8701ZM76.4991 45.6607H75.4991V45.6736L75.4994 45.6866L76.4991 45.6607ZM77.3581 47.3867L77.9912 46.6125L77.9815 46.6048L77.3581 47.3867ZM79.6706 48.1974L79.7678 47.2021L79.7137 47.1969L79.6594 47.1975L79.6706 48.1974ZM82.8422 45.6607L83.8345 45.7845L83.8422 45.7228V45.6607H82.8422ZM82.8422 39.319L81.847 39.2204L81.8422 39.2695V39.319H82.8422ZM91.2426 39.319H92.2426V39.2695L92.2377 39.2204L91.2426 39.319ZM91.2426 41.8557H90.2426V41.8689L90.2429 41.882L91.2426 41.8557ZM91.6564 42.6745L92.3061 41.9143L92.2887 41.8994L92.2706 41.8853L91.6564 42.6745ZM92.9062 43.1241L93.0087 42.1293L92.9492 42.1232L92.8895 42.1242L92.9062 43.1241ZM94.5696 41.8557L95.556 42.0203L95.5696 41.9386V41.8557H94.5696ZM94.5696 35.8687L93.5705 35.8273L93.5696 35.848V35.8687H94.5696ZM97.2011 33.4335L97.1651 34.4329L97.1874 34.4337L97.2098 34.4335L97.2011 33.4335ZM97.961 33.5333L98.2433 32.5739L98.2354 32.5716L98.2274 32.5694L97.961 33.5333ZM108.116 30.8276L108.838 31.5193L108.85 31.5072L108.861 31.4948L108.116 30.8276ZM109.462 26.9061L110.459 26.8367L110.458 26.8218L110.457 26.807L109.462 26.9061ZM107.479 23.1675L108.119 22.3994L107.388 21.7899L106.743 22.4902L107.479 23.1675ZM96.6178 26.3041L96.8791 25.3388L96.8689 25.3362L96.6178 26.3041ZM92.848 25.3262L93.0991 24.3583L93.0982 24.358L92.848 25.3262ZM83.9746 25.7233L83.6389 24.7813L83.6365 24.7822L83.9746 25.7233ZM76.7349 28.3238L77.0702 29.266L77.073 29.265L76.7349 28.3238ZM70.8119 29.3394L70.8141 28.3394L70.81 28.3394L70.8119 29.3394ZM64.5277 28.2012L64.1695 29.1349L64.1753 29.137L64.5277 28.2012ZM59.6983 26.3482L60.0565 25.4146L60.0533 25.4134L59.6983 26.3482ZM54.3418 25.3673V26.3673L54.3425 26.3673L54.3418 25.3673ZM51.997 25.3673V24.3673L51.9923 24.3673L51.997 25.3673ZM47.3354 23.9144L46.7557 24.7293L46.7634 24.7347L47.3354 23.9144ZM45.43 22.1025L46.2146 21.4825L45.2038 20.2034L44.5218 21.6842L45.43 22.1025ZM44.6923 22.768L44.3699 21.8214L44.1875 21.8835L44.0412 22.009L44.6923 22.768ZM44.1175 23.261L44.7337 24.0486L44.7515 24.0347L44.7686 24.02L44.1175 23.261ZM43.3656 30.8234L44.1397 30.1903L44.1324 30.1813L44.1249 30.1725L43.3656 30.8234ZM42.7447 31.6405C44.7639 33.8085 47.8384 34.6429 50.6766 33.7935L50.1032 31.8775C47.9938 32.5088 45.7089 31.8886 44.2083 30.2774L42.7447 31.6405ZM50.6577 33.7989C50.6687 33.7959 50.6779 33.7937 50.6862 33.7921L50.2955 31.8306C50.2356 31.8425 50.1779 31.8565 50.122 31.872L50.6577 33.7989ZM50.7621 33.7738C53.1487 33.1013 55.7103 33.5112 57.7677 34.8952L58.884 33.2357C56.3393 31.524 53.1713 31.017 50.2196 31.8488L50.7621 33.7738ZM57.7703 34.8969L58.9668 35.6964L60.0779 34.0334L58.8814 33.2339L57.7703 34.8969ZM58.9707 35.699C60.924 36.9908 63.3451 37.3619 65.5956 36.7146L65.0427 34.7925C63.3548 35.278 61.5389 34.9997 60.074 34.0308L58.9707 35.699ZM65.5923 36.7155C65.6059 36.7117 65.6124 36.7104 65.6131 36.7102L65.2357 34.7461C65.1658 34.7596 65.1017 34.7758 65.0459 34.7916L65.5923 36.7155ZM65.698 36.69C68.1859 35.9823 70.8612 36.4649 72.945 37.9972L74.1298 36.386C71.548 34.4874 68.2333 33.8895 65.1508 34.7663L65.698 36.69ZM72.9531 38.0031C74.5264 39.1359 75.4707 40.9463 75.4992 42.8848L77.499 42.8554C77.4611 40.2841 76.2086 37.8826 74.1217 36.3801L72.9531 38.0031ZM75.4991 42.8701V45.6607H77.4991V42.8701H75.4991ZM75.4994 45.6866C75.5245 46.6556 75.9766 47.5641 76.7346 48.1686L77.9815 46.6048C77.6852 46.3686 77.5085 46.0135 77.4987 45.6347L75.4994 45.6866ZM76.725 48.1608C77.5584 48.8424 78.6051 49.2094 79.6818 49.1973L79.6594 47.1975C79.052 47.2043 78.4614 46.9972 77.9911 46.6126L76.725 48.1608ZM79.5734 49.1927C81.6825 49.3986 83.572 47.8875 83.8345 45.7845L81.8499 45.5368C81.7216 46.5644 80.7984 47.3028 79.7678 47.2021L79.5734 49.1927ZM83.8422 45.6607V39.319H81.8422V45.6607H83.8422ZM83.8373 39.4175C84.0005 37.7697 85.3865 36.5143 87.0424 36.5143V34.5143C84.3583 34.5143 82.1116 36.5494 81.847 39.2204L83.8373 39.4175ZM87.0424 36.5143C88.6982 36.5143 90.0842 37.7698 90.2474 39.4175L92.2377 39.2204C91.9731 36.5495 89.7264 34.5143 87.0424 34.5143V36.5143ZM90.2426 39.319V41.8557H92.2426V39.319H90.2426ZM90.2429 41.882C90.2593 42.5024 90.5527 43.0826 91.0422 43.4636L92.2706 41.8853C92.2531 41.8717 92.2428 41.8511 92.2422 41.8293L90.2429 41.882ZM91.0066 43.4346C91.5398 43.8904 92.2213 44.1356 92.9228 44.1239L92.8895 42.1242C92.676 42.1278 92.4685 42.0531 92.3061 41.9143L91.0066 43.4346ZM92.8037 44.1188C94.1314 44.2556 95.3363 43.3365 95.556 42.0203L93.5833 41.6911C93.5374 41.9661 93.2857 42.1579 93.0087 42.1293L92.8037 44.1188ZM95.5696 41.8557V35.8687H93.5696V41.8557H95.5696ZM95.5688 35.9101C95.6039 35.0625 96.3171 34.4023 97.1651 34.4329L97.2371 32.4342C95.2895 32.364 93.6511 33.8802 93.5705 35.8273L95.5688 35.9101ZM97.2098 34.4335C97.3735 34.4321 97.5367 34.4535 97.6947 34.4971L98.2274 32.5694C97.8904 32.4763 97.542 32.4305 97.1925 32.4336L97.2098 34.4335ZM97.6788 34.4926C101.662 35.6645 105.966 34.5176 108.838 31.5193L107.394 30.1358C105.039 32.5944 101.509 33.5348 98.2433 32.5739L97.6788 34.4926ZM108.861 31.4948C110.001 30.2219 110.578 28.5416 110.459 26.8367L108.464 26.9754C108.545 28.141 108.151 29.2899 107.371 30.1603L108.861 31.4948ZM110.457 26.807C110.286 25.0882 109.446 23.5053 108.119 22.3994L106.839 23.9357C107.763 24.7059 108.347 25.8082 108.467 27.0051L110.457 26.807ZM106.743 22.4902C104.244 25.2051 100.441 26.3033 96.8791 25.3389L96.3564 27.2694C100.639 28.4288 105.21 27.1085 108.215 23.8449L106.743 22.4902ZM96.8689 25.3362L93.0991 24.3583L92.5969 26.2942L96.3667 27.2721L96.8689 25.3362ZM93.0982 24.358C89.9737 23.5507 86.6788 23.6982 83.6389 24.7813L84.3102 26.6653C86.9736 25.7163 89.8604 25.5871 92.5979 26.2944L93.0982 24.358ZM83.6365 24.7822L76.3968 27.3827L77.073 29.265L84.3126 26.6644L83.6365 24.7822ZM76.3996 27.3817C74.6067 28.0197 72.7171 28.3438 70.8141 28.3394L70.8096 30.3394C72.9427 30.3443 75.0606 29.9811 77.0702 29.266L76.3996 27.3817ZM70.81 28.3394C68.7847 28.3432 66.7756 27.9792 64.8802 27.2654L64.1753 29.137C66.2971 29.9361 68.5463 30.3437 70.8137 30.3394L70.81 28.3394ZM64.8859 27.2676L60.0565 25.4146L59.34 27.2819L64.1695 29.1348L64.8859 27.2676ZM60.0533 25.4134C58.2286 24.7204 56.293 24.366 54.3411 24.3673L54.3425 26.3673C56.0513 26.3661 57.7458 26.6765 59.3432 27.2831L60.0533 25.4134ZM54.3418 24.3673H51.997V26.3673H54.3418V24.3673ZM51.9923 24.3673C50.532 24.3742 49.1053 23.9296 47.9074 23.0942L46.7634 24.7347C48.2995 25.8059 50.129 26.3762 52.0018 26.3673L51.9923 24.3673ZM47.9151 23.0996C47.2746 22.6439 46.7021 22.0994 46.2146 21.4825L44.6454 22.7226C45.2503 23.4879 45.9607 24.1636 46.7557 24.7293L47.9151 23.0996ZM44.5218 21.6842C44.4918 21.7492 44.4367 21.7986 44.3699 21.8214L45.0147 23.7146C45.6013 23.5148 46.0794 23.0829 46.3383 22.5209L44.5218 21.6842ZM44.0412 22.009L43.4664 22.502L44.7686 24.02L45.3434 23.527L44.0412 22.009ZM43.5013 22.4735C42.156 23.526 41.2994 25.0827 41.1304 26.7825L43.1205 26.9805C43.2356 25.824 43.8184 24.7648 44.7337 24.0486L43.5013 22.4735ZM41.1304 26.7825C40.9613 28.4824 41.4946 30.1773 42.6064 31.4742L44.1249 30.1725C43.3683 29.2901 43.0055 28.1369 43.1205 26.9805L41.1304 26.7825ZM42.5916 31.4565L42.7024 31.592L44.2506 30.3259L44.1397 30.1903L42.5916 31.4565Z" fill="#252422" mask="url(#path-3-inside-1)"/>
<path d="M41.6699 39.992L42.5227 34.1732C44.9636 36.0089 48.137 36.6199 51.1101 35.7867C51.1535 35.7778 51.1974 35.767 51.2415 35.7539C53.069 35.2278 55.0353 35.5293 56.6211 36.5789C56.6215 36.5791 56.6218 36.5794 56.6221 36.5796L57.8156 37.377C57.8158 37.3772 57.8161 37.3774 57.8163 37.3775C60.2339 39.0031 63.2425 39.4872 66.0475 38.7024C66.0863 38.6943 66.1285 38.6843 66.1722 38.6716L66.1722 38.6716L66.176 38.6705C68.0696 38.1054 70.1186 38.4569 71.7155 39.621L71.7155 39.6211L71.7244 39.6273C72.7899 40.3692 73.4356 41.5765 73.4614 42.8744L73.4614 45.6602L73.4614 45.6644C73.4744 47.2276 74.1798 48.7045 75.3874 49.6971C76.5835 50.7003 78.0977 51.245 79.6585 51.2338C82.898 51.4011 85.6711 48.9312 85.8768 45.6921L85.8778 45.6762V45.6604V39.3919C86.0423 38.8919 86.5102 38.5503 87.0413 38.5503C87.5723 38.5503 88.0402 38.8919 88.2047 39.3919L88.2047 41.8554L88.2047 41.8588C88.2129 43.0618 88.7492 44.2002 89.6711 44.9728C90.5658 45.7482 91.7127 46.1707 92.8965 46.1606C95.3726 46.2664 97.4736 44.3584 97.6046 41.8818L97.6053 41.8686V41.8554V36.5825C102.049 37.6907 106.753 36.4125 110.025 33.2095L111.19 39.1711C111.19 39.1718 111.19 39.1725 111.19 39.1731C112.196 44.5057 110.723 50.0061 107.187 54.1228C102.173 59.8411 94.8936 63.0588 87.2896 62.9175L87.2896 62.9174H87.2803H65.7183V62.9173L65.7072 62.9175C58.2631 63.0825 51.1142 60.0067 46.1154 54.4882C42.5698 50.5472 40.9433 45.243 41.6699 39.992Z" fill="#FFFCF2" stroke="#252422"/>
<path d="M18.5643 77.7187L18.5571 77.7165L18.5498 77.7145C17.7398 77.4936 17.0995 76.8734 16.8527 76.071C16.6709 75.3897 16.8566 74.6626 17.3434 74.1516L17.3435 74.1517L17.3513 74.1431L19.4007 71.8895C20.6909 73.1812 22.631 74.2305 24.9914 74.9768C27.6076 75.804 30.7822 76.2726 34.2647 76.2726H34.2762L34.2878 76.2721C34.4053 76.2667 34.5215 76.2493 34.6349 76.2206C34.7483 76.2493 34.8645 76.2667 34.9819 76.2721L34.9935 76.2726H35.0051C37.3108 76.2726 39.3948 75.6928 40.9183 74.713C42.4397 73.7346 43.4494 72.3189 43.4494 70.6636C43.4494 69.0082 42.4397 67.5925 40.9183 66.6141C39.3962 65.6352 37.3147 65.0555 35.0115 65.0545C32.8166 64.9993 30.6558 65.6052 28.8095 66.7936L28.7996 66.8L28.7899 66.8068C27.9915 67.3759 27.8049 68.484 28.3727 69.2832C28.9372 70.0778 30.0354 70.2684 30.8342 69.7139C32.0818 68.9477 33.5263 68.5635 34.9897 68.6087L34.9974 68.6089H35.0051C36.4793 68.6089 37.7475 68.932 38.6305 69.3798C39.0728 69.6042 39.4016 69.8512 39.6135 70.0885C39.8274 70.3281 39.8948 70.525 39.8948 70.6636C39.8948 70.8021 39.8274 70.999 39.6135 71.2386C39.4016 71.4759 39.0728 71.723 38.6305 71.9473C37.7475 72.3951 36.4793 72.7182 35.0051 72.7182H34.9935L34.9819 72.7187C34.8644 72.7242 34.7482 72.7415 34.6348 72.7702C34.5215 72.7415 34.4052 72.7242 34.2878 72.7187L34.2762 72.7182H34.2647C30.4434 72.7182 27.1238 72.0523 24.7768 71.1044C23.6013 70.6297 22.6914 70.0929 22.0844 69.5516C21.4688 69.0026 21.2259 68.5067 21.2259 68.1091C21.2259 67.7115 21.4688 67.2155 22.0845 66.6665C22.6914 66.1253 23.6014 65.5885 24.7768 65.1138C27.1239 64.1658 30.4434 63.5 34.2647 63.5C41.6239 63.5 48.5116 68.4229 51.7709 73.0102L51.7815 73.0251L51.7932 73.0392C52.4077 73.7822 52.6613 74.7584 52.4871 75.7053C52.2861 76.2824 51.8271 76.7336 51.2452 76.9242L51.2285 76.9296L51.2123 76.9362L48.6293 77.9877C48.629 77.9878 48.6288 77.9879 48.6285 77.988C45.8297 79.1167 42.7419 79.3146 39.8219 78.5526L38.878 78.3057C35.7271 77.4805 32.409 77.5465 29.2934 78.4962C26.6249 79.3019 23.7779 79.3019 21.1094 78.4962C21.1091 78.4961 21.1089 78.4961 21.1086 78.496L18.5643 77.7187Z" fill="#252422" stroke="#FFFCF2"/>
<path d="M8.13686 84.5843L8.14597 84.5906C9.00468 85.1848 10.0259 85.4992 11.0701 85.4908L11.0741 85.4908V85.4908H13.4343H13.4346V85.9908C15.589 85.9894 17.7256 86.381 19.7394 87.1464L8.13686 84.5843ZM8.13686 84.5843L8.12748 84.5784C5.77128 83.0978 4.99659 80.0264 6.36615 77.6057C6.99174 76.6276 8.026 75.9846 9.18037 75.8565L9.18778 75.8557L9.19516 75.8546L13.2367 75.2836M8.13686 84.5843L13.2367 75.2836M13.2367 75.2836C13.2076 75.8667 13.2713 76.4522 13.4266 77.018L13.4266 77.018L13.4284 77.0245C14.0007 79.0044 15.5501 80.551 17.5307 81.1196L20.0724 81.8961L20.0741 81.8966C23.4183 82.9054 26.9858 82.9055 30.3299 81.8966L30.3315 81.8961C32.817 81.1371 35.4644 81.0843 37.9781 81.7437L37.9784 81.7438L38.9227 81.9908L38.9231 81.9909C42.5853 82.9453 46.4574 82.6964 49.9672 81.281L49.9688 81.2804L52.545 80.2315C54.1521 79.6376 55.3927 78.3312 55.9026 76.6952L55.9027 76.6953L55.9065 76.6821C56.0355 76.2242 56.1054 75.7525 56.1152 75.2786L58.013 75.5851L58.013 75.5851L58.0179 75.5858C60.3061 75.932 62.4534 76.9058 64.2214 78.3991L64.2291 78.4056L64.2371 78.4118C65.0846 79.0709 65.6303 80.0442 65.7508 81.1113C65.8704 82.1717 65.5599 83.2355 64.8892 84.0649C64.8565 84.0988 64.7835 84.1753 64.7446 84.2201C62.7405 86.4349 59.6584 87.3301 56.7793 86.5336L56.7793 86.5336L56.7715 86.5316L52.9802 85.548L52.9797 85.5479C49.4334 84.632 45.6941 84.7998 42.244 86.0295L42.2428 86.0299L34.9558 88.6475C34.9553 88.6477 34.9548 88.6479 34.9543 88.6481C31.6562 89.8083 28.0553 89.772 24.7812 88.5456C24.7807 88.5454 24.7801 88.5452 24.7795 88.5449L13.2367 75.2836Z" fill="#252422" stroke="#FFFCF2"/>
<mask id="path-8-inside-2" fill="white">
<path d="M2.494 94.1766C4.26628 96.0795 6.96492 96.812 9.45611 96.0664C9.48978 96.057 9.52345 96.0489 9.55781 96.042C12.2457 95.2846 15.1307 95.7463 17.448 97.305L18.6529 98.1101C20.3741 99.2484 22.5075 99.5754 24.4905 99.005C24.5255 98.9951 24.561 98.9863 24.5966 98.9794C27.4014 98.1816 30.4175 98.7256 32.7667 100.453C34.6097 101.78 35.7158 103.901 35.7492 106.172V108.982C35.7668 109.661 36.0834 110.297 36.6143 110.72C37.2707 111.257 38.0951 111.546 38.9431 111.537C40.524 111.691 41.9403 110.558 42.137 108.982V102.596C42.3524 100.421 44.1816 98.764 46.3668 98.764C48.552 98.764 50.3812 100.421 50.5966 102.596V105.15C50.6051 105.473 50.7581 105.776 51.0133 105.975C51.3636 106.274 51.8112 106.435 52.2719 106.427C53.08 106.511 53.8134 105.951 53.9471 105.15V99.121C54.0054 97.7137 55.1895 96.6179 56.5971 96.6686C56.8556 96.6664 57.1132 96.7002 57.3624 96.7691C61.0126 97.843 64.957 96.792 67.5888 94.0443C68.5557 92.9651 69.0445 91.5405 68.9441 90.0952C68.798 88.627 68.081 87.275 66.9476 86.3303C64.176 89.3406 59.9595 90.5584 56.0097 89.489L52.2134 88.5042C49.2617 87.7416 46.1491 87.8809 43.2774 88.9041L35.9867 91.5229C34.0721 92.2043 32.0542 92.5503 30.022 92.5457C27.8605 92.5498 25.7163 92.1612 23.6935 91.3994L18.8301 89.5334C17.107 88.8791 15.2791 88.5443 13.4358 88.5456H11.0746C9.39632 88.5535 7.75676 88.0425 6.38013 87.0825C5.6573 86.5682 5.01131 85.9538 4.4613 85.2578C4.31587 85.5735 4.04736 85.8159 3.71836 85.928L3.13957 86.4245C2.00127 87.3151 1.27649 88.6322 1.13343 90.0704C0.990378 91.5087 1.44162 92.9427 2.38238 94.0401L2.494 94.1766Z"/>
</mask>
<path d="M2.494 94.1766C4.26628 96.0795 6.96492 96.812 9.45611 96.0664C9.48978 96.057 9.52345 96.0489 9.55781 96.042C12.2457 95.2846 15.1307 95.7463 17.448 97.305L18.6529 98.1101C20.3741 99.2484 22.5075 99.5754 24.4905 99.005C24.5255 98.9951 24.561 98.9863 24.5966 98.9794C27.4014 98.1816 30.4175 98.7256 32.7667 100.453C34.6097 101.78 35.7158 103.901 35.7492 106.172V108.982C35.7668 109.661 36.0834 110.297 36.6143 110.72C37.2707 111.257 38.0951 111.546 38.9431 111.537C40.524 111.691 41.9403 110.558 42.137 108.982V102.596C42.3524 100.421 44.1816 98.764 46.3668 98.764C48.552 98.764 50.3812 100.421 50.5966 102.596V105.15C50.6051 105.473 50.7581 105.776 51.0133 105.975C51.3636 106.274 51.8112 106.435 52.2719 106.427C53.08 106.511 53.8134 105.951 53.9471 105.15V99.121C54.0054 97.7137 55.1895 96.6179 56.5971 96.6686C56.8556 96.6664 57.1132 96.7002 57.3624 96.7691C61.0126 97.843 64.957 96.792 67.5888 94.0443C68.5557 92.9651 69.0445 91.5405 68.9441 90.0952C68.798 88.627 68.081 87.275 66.9476 86.3303C64.176 89.3406 59.9595 90.5584 56.0097 89.489L52.2134 88.5042C49.2617 87.7416 46.1491 87.8809 43.2774 88.9041L35.9867 91.5229C34.0721 92.2043 32.0542 92.5503 30.022 92.5457C27.8605 92.5498 25.7163 92.1612 23.6935 91.3994L18.8301 89.5334C17.107 88.8791 15.2791 88.5443 13.4358 88.5456H11.0746C9.39632 88.5535 7.75676 88.0425 6.38013 87.0825C5.6573 86.5682 5.01131 85.9538 4.4613 85.2578C4.31587 85.5735 4.04736 85.8159 3.71836 85.928L3.13957 86.4245C2.00127 87.3151 1.27649 88.6322 1.13343 90.0704C0.990378 91.5087 1.44162 92.9427 2.38238 94.0401L2.494 94.1766Z" fill="#252422"/>
<path d="M2.494 94.1766L1.71991 94.8097L1.74029 94.8346L1.76223 94.8581L2.494 94.1766ZM9.45611 96.0664L9.18826 95.1029L9.1788 95.1055L9.16938 95.1083L9.45611 96.0664ZM9.55781 96.042L9.75316 97.0228L9.79147 97.0152L9.82906 97.0046L9.55781 96.042ZM17.448 97.305L16.8898 98.1347L16.8924 98.1364L17.448 97.305ZM18.6529 98.1101L18.0973 98.9416L18.1013 98.9442L18.6529 98.1101ZM24.4905 99.005L24.2174 98.043L24.2141 98.044L24.4905 99.005ZM24.5966 98.9794L24.7853 99.9615L24.8282 99.9532L24.8702 99.9413L24.5966 98.9794ZM32.7667 100.453L32.1742 101.259L32.1824 101.265L32.7667 100.453ZM35.7492 106.172H36.7492V106.164L36.7491 106.157L35.7492 106.172ZM35.7492 108.982H34.7492V108.995L34.7496 109.008L35.7492 108.982ZM36.6143 110.72L37.2474 109.946L37.2377 109.938L36.6143 110.72ZM38.9431 111.537L39.0403 110.541L38.9862 110.536L38.9319 110.537L38.9431 111.537ZM42.137 108.982L43.1293 109.106L43.137 109.044V108.982H42.137ZM42.137 102.596L41.1419 102.497L41.137 102.546V102.596H42.137ZM50.5966 102.596H51.5966V102.546L51.5917 102.497L50.5966 102.596ZM50.5966 105.15H49.5966V105.163L49.5969 105.176L50.5966 105.15ZM51.0133 105.975L51.6631 105.215L51.6457 105.2L51.6275 105.186L51.0133 105.975ZM52.2719 106.427L52.3744 105.433L52.315 105.427L52.2552 105.428L52.2719 106.427ZM53.9471 105.15L54.9335 105.315L54.9471 105.233V105.15H53.9471ZM53.9471 99.121L52.948 99.0796L52.9471 99.1003V99.121H53.9471ZM56.5971 96.6686L56.5611 97.668L56.5834 97.6688L56.6058 97.6686L56.5971 96.6686ZM57.3624 96.7691L57.6447 95.8097L57.6367 95.8074L57.6288 95.8052L57.3624 96.7691ZM67.5888 94.0443L68.311 94.736L68.3225 94.724L68.3336 94.7116L67.5888 94.0443ZM68.9441 90.0952L69.9417 90.0258L69.9407 90.011L69.9392 89.9961L68.9441 90.0952ZM66.9476 86.3303L67.5878 85.5621L66.8567 84.9527L66.2119 85.653L66.9476 86.3303ZM56.0097 89.489L56.271 88.5237L56.2608 88.521L56.0097 89.489ZM52.2134 88.5042L52.4645 87.5363L52.4635 87.536L52.2134 88.5042ZM43.2774 88.9041L42.9418 87.9621L42.9394 87.9629L43.2774 88.9041ZM35.9867 91.5229L36.322 92.4651L36.3248 92.4641L35.9867 91.5229ZM30.022 92.5457L30.0242 91.5457L30.0201 91.5457L30.022 92.5457ZM23.6935 91.3994L23.3353 92.3331L23.3411 92.3353L23.6935 91.3994ZM18.8301 89.5334L19.1883 88.5998L19.1851 88.5986L18.8301 89.5334ZM13.4358 88.5456V89.5456L13.4365 89.5456L13.4358 88.5456ZM11.0746 88.5456V87.5456L11.0698 87.5456L11.0746 88.5456ZM6.38013 87.0825L5.8004 87.8973L5.80811 87.9027L6.38013 87.0825ZM4.4613 85.2578L5.24589 84.6378L4.23509 83.3587L3.55303 84.8394L4.4613 85.2578ZM3.71836 85.928L3.39599 84.9814L3.21355 85.0435L3.06727 85.169L3.71836 85.928ZM3.13957 86.4245L3.75578 87.2121L3.77354 87.1982L3.79066 87.1835L3.13957 86.4245ZM2.38238 94.0401L3.15648 93.407L3.14913 93.3981L3.14158 93.3892L2.38238 94.0401ZM1.76223 94.8581C3.79379 97.0394 6.88722 97.879 9.74284 97.0244L9.16938 95.1083C7.04263 95.7449 4.73876 95.1195 3.22578 93.495L1.76223 94.8581ZM9.72396 97.0298C9.73517 97.0267 9.74463 97.0245 9.75316 97.0228L9.36246 95.0613C9.30226 95.0733 9.24439 95.0873 9.18826 95.1029L9.72396 97.0298ZM9.82906 97.0046C12.2344 96.3267 14.8162 96.7399 16.8898 98.1347L18.0061 96.4752C15.4453 94.7527 12.257 94.2424 9.28657 95.0795L9.82906 97.0046ZM16.8924 98.1364L18.0973 98.9415L19.2085 97.2786L18.0035 96.4735L16.8924 98.1364ZM18.1013 98.9442C20.0666 100.244 22.5026 100.617 24.767 99.966L24.2141 98.044C22.5123 98.5335 20.6815 98.2528 19.2045 97.276L18.1013 98.9442ZM24.7637 99.967C24.7776 99.963 24.7843 99.9617 24.7853 99.9615L24.4079 97.9974C24.3377 98.0109 24.2734 98.0271 24.2174 98.0431L24.7637 99.967ZM24.8702 99.9413C27.3777 99.228 30.0741 99.7144 32.1743 101.259L33.3591 99.6476C30.7609 97.7369 27.4251 97.1352 24.323 98.0176L24.8702 99.9413ZM32.1824 101.265C33.7686 102.407 34.7206 104.232 34.7493 106.186L36.7491 106.157C36.7111 103.57 35.4508 101.153 33.351 99.6416L32.1824 101.265ZM34.7492 106.172V108.982H36.7492V106.172H34.7492ZM34.7496 109.008C34.7748 109.982 35.2291 110.895 35.9908 111.502L37.2377 109.938C36.9377 109.699 36.7588 109.34 36.7489 108.956L34.7496 109.008ZM35.9812 111.494C36.8192 112.18 37.8717 112.549 38.9543 112.536L38.9319 110.537C38.3186 110.543 37.7222 110.334 37.2473 109.946L35.9812 111.494ZM38.8459 112.532C40.966 112.739 42.8655 111.22 43.1293 109.106L41.1447 108.858C41.0151 109.897 40.082 110.643 39.0403 110.541L38.8459 112.532ZM43.137 108.982V102.596H41.137V108.982H43.137ZM43.1321 102.694C43.2969 101.031 44.6957 99.764 46.3668 99.764V97.764C43.6675 97.764 41.408 99.8107 41.1419 102.497L43.1321 102.694ZM46.3668 99.764C48.0379 99.764 49.4367 101.031 49.6015 102.694L51.5917 102.497C51.3256 99.8109 49.0662 97.764 46.3668 97.764V99.764ZM49.5966 102.596V105.15H51.5966V102.596H49.5966ZM49.5969 105.176C49.6134 105.799 49.9079 106.381 50.3991 106.764L51.6275 105.186C51.6083 105.171 51.5969 105.148 51.5963 105.124L49.5969 105.176ZM50.3636 106.735C50.8992 107.193 51.5838 107.439 52.2886 107.427L52.2552 105.428C52.0385 105.431 51.8279 105.355 51.6631 105.215L50.3636 106.735ZM52.1694 107.422C53.5028 107.56 54.7129 106.637 54.9335 105.315L52.9607 104.986C52.9139 105.266 52.6571 105.462 52.3744 105.433L52.1694 107.422ZM54.9471 105.15V99.121H52.9471V105.15H54.9471ZM54.9462 99.1623C54.9817 98.3049 55.7033 97.6371 56.5611 97.668L56.6331 95.6693C54.6757 95.5987 53.029 97.1226 52.948 99.0796L54.9462 99.1623ZM56.6058 97.6686C56.7713 97.6671 56.9364 97.6888 57.0961 97.7329L57.6288 95.8052C57.29 95.7116 56.9399 95.6656 56.5885 95.6687L56.6058 97.6686ZM57.0802 97.7284C61.0889 98.9078 65.4206 97.7536 68.311 94.736L66.8667 93.3526C64.4933 95.8304 60.9363 96.7781 57.6447 95.8097L57.0802 97.7284ZM68.3336 94.7116C69.4809 93.4311 70.0609 91.7408 69.9417 90.0258L67.9465 90.1645C68.0282 91.3403 67.6306 92.4991 66.844 93.377L68.3336 94.7116ZM69.9392 89.9961C69.7671 88.2671 68.9227 86.6747 67.5878 85.5621L66.3074 87.0985C67.2393 87.8753 67.8289 88.987 67.949 90.1942L69.9392 89.9961ZM66.2119 85.653C63.693 88.3889 59.8608 89.4957 56.271 88.5238L55.7483 90.4542C60.0582 91.6212 64.6591 90.2923 67.6833 87.0076L66.2119 85.653ZM56.2608 88.521L52.4645 87.5363L51.9623 89.4722L55.7586 90.457L56.2608 88.521ZM52.4635 87.536C49.3184 86.7234 46.0018 86.8718 42.9418 87.9621L43.613 89.8461C46.2965 88.8899 49.2051 88.7598 51.9632 89.4724L52.4635 87.536ZM42.9394 87.9629L35.6487 90.5818L36.3248 92.4641L43.6155 89.8452L42.9394 87.9629ZM35.6515 90.5808C33.8452 91.2236 31.9415 91.5501 30.0242 91.5457L30.0197 93.5457C32.167 93.5506 34.299 93.1849 36.322 92.4651L35.6515 90.5808ZM30.0201 91.5457C27.9797 91.5495 25.9556 91.1828 24.046 90.4636L23.3411 92.3353C25.477 93.1397 27.7413 93.55 30.0238 93.5457L30.0201 91.5457ZM24.0518 90.4658L19.1883 88.5998L18.4718 90.4671L23.3353 92.3331L24.0518 90.4658ZM19.1851 88.5986C17.3483 87.901 15.3999 87.5442 13.4352 87.5456L13.4365 89.5456C15.1582 89.5444 16.8656 89.8571 18.475 90.4683L19.1851 88.5986ZM13.4358 87.5456H11.0746V89.5456H13.4358V87.5456ZM11.0698 87.5456C9.59779 87.5526 8.15968 87.1043 6.95215 86.2622L5.80811 87.9027C7.35384 88.9807 9.19484 89.5545 11.0793 89.5456L11.0698 87.5456ZM6.95983 86.2676C6.31427 85.8084 5.73724 85.2596 5.24589 84.6378L3.67672 85.8778C4.28539 86.6481 5.00034 87.3281 5.80042 87.8973L6.95983 86.2676ZM3.55303 84.8394C3.52205 84.9067 3.46508 84.9578 3.39599 84.9814L4.04073 86.8746C4.62964 86.674 5.1097 86.2404 5.36958 85.6762L3.55303 84.8394ZM3.06727 85.169L2.48848 85.6655L3.79066 87.1835L4.36945 86.687L3.06727 85.169ZM2.52337 85.6369C1.1701 86.6957 0.308421 88.2616 0.138345 89.9715L2.12852 90.1694C2.24456 89.0028 2.83244 87.9345 3.75578 87.2121L2.52337 85.6369ZM0.138345 89.9715C-0.0317388 91.6814 0.50477 93.3864 1.62318 94.691L3.14158 93.3892C2.37847 92.4991 2.0125 91.3359 2.12852 90.1694L0.138345 89.9715ZM1.60829 94.6732L1.71991 94.8097L3.2681 93.5435L3.15648 93.407L1.60829 94.6732Z" fill="#FFFCF2" mask="url(#path-8-inside-2)"/>
<path d="M0.671165 103.273L1.53079 97.4073C3.98867 99.2582 7.18552 99.8745 10.1804 99.0352C10.2241 99.0262 10.2682 99.0153 10.3127 99.0022C12.1541 98.4721 14.1353 98.7759 15.7332 99.8336C15.7335 99.8337 15.7338 99.8339 15.7341 99.8341L16.936 100.637C16.9363 100.637 16.9365 100.638 16.9367 100.638C19.3706 102.274 22.3993 102.762 25.2232 101.971C25.2622 101.963 25.3046 101.953 25.3486 101.94L25.3486 101.94L25.3524 101.939C27.2604 101.37 29.3249 101.724 30.934 102.897L30.9339 102.897L30.9428 102.903C32.0168 103.651 32.6677 104.868 32.6936 106.176L32.6936 108.982L32.6936 108.986C32.7067 110.559 33.4166 112.045 34.6319 113.044C35.8359 114.054 37.3599 114.602 38.931 114.591C42.1914 114.759 44.9824 112.274 45.1895 109.014L45.1905 108.998V108.982V102.669C45.3565 102.163 45.8292 101.818 46.3656 101.818C46.9021 101.818 47.3748 102.163 47.5408 102.669L47.5408 105.15L47.5408 105.153C47.5491 106.364 48.0887 107.509 49.0163 108.287C49.9167 109.067 51.0709 109.492 52.2622 109.482C54.7538 109.589 56.8681 107.669 56.9998 105.176L57.0005 105.163V105.15V99.8355C61.478 100.954 66.2181 99.6653 69.5133 96.4362L70.688 102.446C70.6881 102.447 70.6882 102.448 70.6884 102.448C71.7013 107.819 70.2179 113.36 66.6565 117.506C61.6064 123.266 54.2743 126.506 46.6156 126.364L46.6156 126.364H46.6064H24.8924V126.364L24.8814 126.364C17.3838 126.53 10.1836 123.432 5.14885 117.874C1.57755 113.905 -0.06077 108.562 0.671165 103.273Z" fill="#252422" stroke="#FFFCF2"/>
<path d="M95.9509 77.0375L95.9437 77.0353L95.9364 77.0333C95.1059 76.8068 94.4493 76.1708 94.1963 75.3481C94.0097 74.6489 94.2003 73.9026 94.6998 73.3783L94.6999 73.3784L94.7078 73.3698L96.8076 71.0607C98.1231 72.3815 100.105 73.4548 102.519 74.218C105.189 75.0622 108.429 75.5406 111.984 75.5406H111.995L112.007 75.54C112.127 75.5345 112.246 75.5166 112.362 75.4871C112.478 75.5166 112.596 75.5345 112.716 75.54L112.728 75.5406H112.74C115.092 75.5406 117.218 74.949 118.771 73.9499C120.323 72.9522 121.351 71.5097 121.351 69.8243C121.351 68.1389 120.323 66.6964 118.771 65.6987C117.219 64.7006 115.096 64.1091 112.746 64.1081C110.507 64.0518 108.303 64.6698 106.42 65.882L106.41 65.8884L106.4 65.8952C105.59 66.4728 105.4 67.5976 105.977 68.4088C106.55 69.2155 107.665 69.409 108.475 68.8459C109.751 68.0625 111.228 67.6697 112.724 67.7159L112.732 67.7161H112.74C114.246 67.7161 115.543 68.0462 116.446 68.5043C116.898 68.7337 117.235 68.9867 117.452 69.2302C117.672 69.4761 117.742 69.6794 117.742 69.8243C117.742 69.9692 117.672 70.1726 117.452 70.4184C117.235 70.6619 116.898 70.9149 116.446 71.1443C115.543 71.6024 114.246 71.9325 112.74 71.9325H112.728L112.716 71.933C112.596 71.9386 112.477 71.9564 112.362 71.986C112.246 71.9564 112.127 71.9386 112.007 71.933L111.995 71.9325H111.984C108.081 71.9325 104.691 71.2525 102.293 70.2841C101.092 69.7992 100.162 69.2505 99.5409 68.6969C98.9113 68.1355 98.6608 67.6265 98.6608 67.2163C98.6608 66.806 98.9113 66.297 99.5409 65.7356C100.162 65.182 101.092 64.6334 102.293 64.1484C104.691 63.18 108.081 62.5 111.984 62.5C119.502 62.5 126.536 67.5286 129.866 72.214L129.876 72.229L129.888 72.2431C130.517 73.0043 130.777 74.0044 130.598 74.9745C130.392 75.5672 129.921 76.0305 129.324 76.2262L129.307 76.2317L129.291 76.2383L126.653 77.3119C126.653 77.312 126.653 77.312 126.653 77.3121C123.793 78.4653 120.638 78.6675 117.655 77.889L116.691 77.6369C113.476 76.7949 110.09 76.8622 106.911 77.8313C104.185 78.6545 101.276 78.6545 98.5491 77.8312C98.5489 77.8312 98.5488 77.8311 98.5486 77.8311L95.9509 77.0375Z" fill="#252422"/>
<path d="M95.9509 77.0375L95.9437 77.0353L95.9364 77.0333C95.1059 76.8068 94.4493 76.1708 94.1963 75.3481C94.0097 74.6489 94.2003 73.9026 94.6998 73.3783L94.6999 73.3784L94.7078 73.3698L96.8076 71.0607C98.1231 72.3815 100.105 73.4548 102.519 74.218C105.189 75.0622 108.429 75.5406 111.984 75.5406H111.995L112.007 75.54C112.127 75.5345 112.246 75.5166 112.362 75.4871C112.478 75.5166 112.596 75.5345 112.716 75.54L112.728 75.5406H112.74C115.092 75.5406 117.218 74.949 118.771 73.9499C120.323 72.9522 121.351 71.5097 121.351 69.8243C121.351 68.1389 120.323 66.6964 118.771 65.6987C117.219 64.7006 115.096 64.1091 112.746 64.1081C110.507 64.0518 108.303 64.6698 106.42 65.882L106.41 65.8884L106.4 65.8952C105.59 66.4728 105.4 67.5976 105.977 68.4088C106.55 69.2155 107.665 69.409 108.475 68.8459C109.751 68.0625 111.228 67.6697 112.724 67.7159L112.732 67.7161H112.74C114.246 67.7161 115.543 68.0462 116.446 68.5043C116.898 68.7337 117.235 68.9867 117.452 69.2302C117.672 69.4761 117.742 69.6794 117.742 69.8243C117.742 69.9692 117.672 70.1726 117.452 70.4184C117.235 70.6619 116.898 70.9149 116.446 71.1443C115.543 71.6024 114.246 71.9325 112.74 71.9325H112.728L112.716 71.933C112.596 71.9386 112.477 71.9564 112.362 71.986C112.246 71.9564 112.127 71.9386 112.007 71.933L111.995 71.9325H111.984C108.081 71.9325 104.691 71.2525 102.293 70.2841C101.092 69.7992 100.162 69.2505 99.5409 68.6969C98.9113 68.1355 98.6608 67.6265 98.6608 67.2163C98.6608 66.806 98.9113 66.297 99.5409 65.7356C100.162 65.182 101.092 64.6334 102.293 64.1484C104.691 63.18 108.081 62.5 111.984 62.5C119.502 62.5 126.536 67.5286 129.866 72.214L129.876 72.229L129.888 72.2431C130.517 73.0043 130.777 74.0044 130.598 74.9745C130.392 75.5672 129.921 76.0305 129.324 76.2262L129.307 76.2317L129.291 76.2383L126.653 77.3119C126.653 77.312 126.653 77.312 126.653 77.3121C123.793 78.4653 120.638 78.6675 117.655 77.889L116.691 77.6369C113.476 76.7949 110.09 76.8622 106.911 77.8313C104.185 78.6545 101.276 78.6545 98.5491 77.8312C98.5489 77.8312 98.5488 77.8311 98.5486 77.8311L95.9509 77.0375Z" fill="#FFFCF2"/>
<path d="M95.9509 77.0375L95.9437 77.0353L95.9364 77.0333C95.1059 76.8068 94.4493 76.1708 94.1963 75.3481C94.0097 74.6489 94.2003 73.9026 94.6998 73.3783L94.6999 73.3784L94.7078 73.3698L96.8076 71.0607C98.1231 72.3815 100.105 73.4548 102.519 74.218C105.189 75.0622 108.429 75.5406 111.984 75.5406H111.995L112.007 75.54C112.127 75.5345 112.246 75.5166 112.362 75.4871C112.478 75.5166 112.596 75.5345 112.716 75.54L112.728 75.5406H112.74C115.092 75.5406 117.218 74.949 118.771 73.9499C120.323 72.9522 121.351 71.5097 121.351 69.8243C121.351 68.1389 120.323 66.6964 118.771 65.6987C117.219 64.7006 115.096 64.1091 112.746 64.1081C110.507 64.0518 108.303 64.6698 106.42 65.882L106.41 65.8884L106.4 65.8952C105.59 66.4728 105.4 67.5976 105.977 68.4088C106.55 69.2155 107.665 69.409 108.475 68.8459C109.751 68.0625 111.228 67.6697 112.724 67.7159L112.732 67.7161H112.74C114.246 67.7161 115.543 68.0462 116.446 68.5043C116.898 68.7337 117.235 68.9867 117.452 69.2302C117.672 69.4761 117.742 69.6794 117.742 69.8243C117.742 69.9692 117.672 70.1726 117.452 70.4184C117.235 70.6619 116.898 70.9149 116.446 71.1443C115.543 71.6024 114.246 71.9325 112.74 71.9325H112.728L112.716 71.933C112.596 71.9386 112.477 71.9564 112.362 71.986C112.246 71.9564 112.127 71.9386 112.007 71.933L111.995 71.9325H111.984C108.081 71.9325 104.691 71.2525 102.293 70.2841C101.092 69.7992 100.162 69.2505 99.5409 68.6969C98.9113 68.1355 98.6608 67.6265 98.6608 67.2163C98.6608 66.806 98.9113 66.297 99.5409 65.7356C100.162 65.182 101.092 64.6334 102.293 64.1484C104.691 63.18 108.081 62.5 111.984 62.5C119.502 62.5 126.536 67.5286 129.866 72.214L129.876 72.229L129.888 72.2431C130.517 73.0043 130.777 74.0044 130.598 74.9745C130.392 75.5672 129.921 76.0305 129.324 76.2262L129.307 76.2317L129.291 76.2383L126.653 77.3119C126.653 77.312 126.653 77.312 126.653 77.3121C123.793 78.4653 120.638 78.6675 117.655 77.889L116.691 77.6369C113.476 76.7949 110.09 76.8622 106.911 77.8313C104.185 78.6545 101.276 78.6545 98.5491 77.8312C98.5489 77.8312 98.5488 77.8311 98.5486 77.8311L95.9509 77.0375Z" stroke="#252422"/>
<path d="M85.3023 84.0457L85.3114 84.052C86.1899 84.6599 87.2346 84.9816 88.3028 84.973L88.3069 84.973V84.973H90.7166H90.7169V85.473C92.9165 85.4716 95.0979 85.8714 97.154 86.6529L85.3023 84.0457ZM85.3023 84.0457L85.2929 84.0398C82.8824 82.5252 82.09 79.383 83.4912 76.9066C84.1316 75.9052 85.1905 75.2469 86.3723 75.1157L86.3797 75.1149L86.3871 75.1138L90.526 74.529M85.3023 84.0457L90.526 74.529M90.526 74.529C90.4948 75.1275 90.5595 75.7286 90.7189 76.3092L90.7188 76.3092L90.7207 76.3157C91.3039 78.3337 92.8831 79.91 94.9019 80.4896L97.497 81.2824L97.4987 81.2829C100.911 82.3123 104.551 82.3123 107.964 81.2829L107.965 81.2824C110.505 80.5069 113.21 80.453 115.778 81.1267L115.778 81.1267L116.742 81.3789L116.743 81.379C120.48 82.3529 124.431 82.0989 128.012 80.6547L128.013 80.6541L130.644 79.5831C132.282 78.9779 133.546 77.6466 134.066 75.9793L134.066 75.9794L134.07 75.9662C134.202 75.4957 134.273 75.0109 134.282 74.5238L136.232 74.8386L136.232 74.8387L136.237 74.8394C138.575 75.1931 140.769 76.1882 142.576 77.714L142.583 77.7206L142.591 77.7268C143.459 78.4014 144.018 79.3977 144.141 80.49C144.263 81.5756 143.945 82.6646 143.259 83.5136C143.225 83.5481 143.151 83.6265 143.111 83.6721C141.062 85.9363 137.911 86.8516 134.968 86.0373L134.968 86.0373L134.96 86.0352L131.089 85.0311L131.089 85.031C127.47 84.0964 123.655 84.2676 120.134 85.5224L120.133 85.5228L112.693 88.1954C112.692 88.1955 112.692 88.1957 112.691 88.1959C109.322 89.3813 105.643 89.3442 102.298 88.0912C102.297 88.091 102.297 88.0908 102.296 88.0905L90.526 74.529Z" fill="#252422"/>
<path d="M85.3023 84.0457L85.3114 84.052C86.1899 84.6599 87.2346 84.9816 88.3028 84.973L88.3069 84.973V84.973H90.7166H90.7169V85.473C92.9165 85.4716 95.0979 85.8714 97.154 86.6529L85.3023 84.0457ZM85.3023 84.0457L85.2929 84.0398C82.8824 82.5252 82.09 79.383 83.4912 76.9066C84.1316 75.9052 85.1905 75.2469 86.3723 75.1157L86.3797 75.1149L86.3871 75.1138L90.526 74.529M85.3023 84.0457L90.526 74.529M90.526 74.529C90.4948 75.1275 90.5595 75.7286 90.7189 76.3092L90.7188 76.3092L90.7207 76.3157C91.3039 78.3337 92.8831 79.91 94.9019 80.4896L97.497 81.2824L97.4987 81.2829C100.911 82.3123 104.551 82.3123 107.964 81.2829L107.965 81.2824C110.505 80.5069 113.21 80.453 115.778 81.1267L115.778 81.1267L116.742 81.3789L116.743 81.379C120.48 82.3529 124.431 82.0989 128.012 80.6547L128.013 80.6541L130.644 79.5831C132.282 78.9779 133.546 77.6466 134.066 75.9793L134.066 75.9794L134.07 75.9662C134.202 75.4957 134.273 75.0109 134.282 74.5238L136.232 74.8386L136.232 74.8387L136.237 74.8394C138.575 75.1931 140.769 76.1882 142.576 77.714L142.583 77.7206L142.591 77.7268C143.459 78.4014 144.018 79.3977 144.141 80.49C144.263 81.5756 143.945 82.6646 143.259 83.5136C143.225 83.5481 143.151 83.6265 143.111 83.6721C141.062 85.9363 137.911 86.8516 134.968 86.0373L134.968 86.0373L134.96 86.0352L131.089 85.0311L131.089 85.031C127.47 84.0964 123.655 84.2676 120.134 85.5224L120.133 85.5228L112.693 88.1954C112.692 88.1955 112.692 88.1957 112.691 88.1959C109.322 89.3813 105.643 89.3442 102.298 88.0912C102.297 88.091 102.297 88.0908 102.296 88.0905L90.526 74.529Z" fill="#FFFCF2"/>
<path d="M85.3023 84.0457L85.3114 84.052C86.1899 84.6599 87.2346 84.9816 88.3028 84.973L88.3069 84.973V84.973H90.7166H90.7169V85.473C92.9165 85.4716 95.0979 85.8714 97.154 86.6529L85.3023 84.0457ZM85.3023 84.0457L85.2929 84.0398C82.8824 82.5252 82.09 79.383 83.4912 76.9066C84.1316 75.9052 85.1905 75.2469 86.3723 75.1157L86.3797 75.1149L86.3871 75.1138L90.526 74.529M85.3023 84.0457L90.526 74.529M90.526 74.529C90.4948 75.1275 90.5595 75.7286 90.7189 76.3092L90.7188 76.3092L90.7207 76.3157C91.3039 78.3337 92.8831 79.91 94.9019 80.4896L97.497 81.2824L97.4987 81.2829C100.911 82.3123 104.551 82.3123 107.964 81.2829L107.965 81.2824C110.505 80.5069 113.21 80.453 115.778 81.1267L115.778 81.1267L116.742 81.3789L116.743 81.379C120.48 82.3529 124.431 82.0989 128.012 80.6547L128.013 80.6541L130.644 79.5831C132.282 78.9779 133.546 77.6466 134.066 75.9793L134.066 75.9794L134.07 75.9662C134.202 75.4957 134.273 75.0109 134.282 74.5238L136.232 74.8386L136.232 74.8387L136.237 74.8394C138.575 75.1931 140.769 76.1882 142.576 77.714L142.583 77.7206L142.591 77.7268C143.459 78.4014 144.018 79.3977 144.141 80.49C144.263 81.5756 143.945 82.6646 143.259 83.5136C143.225 83.5481 143.151 83.6265 143.111 83.6721C141.062 85.9363 137.911 86.8516 134.968 86.0373L134.968 86.0373L134.96 86.0352L131.089 85.0311L131.089 85.031C127.47 84.0964 123.655 84.2676 120.134 85.5224L120.133 85.5228L112.693 88.1954C112.692 88.1955 112.692 88.1957 112.691 88.1959C109.322 89.3813 105.643 89.3442 102.298 88.0912C102.297 88.091 102.297 88.0908 102.296 88.0905L90.526 74.529Z" stroke="#252422"/>
<path d="M102.004 98.7602C99.9798 99.3425 97.8016 99.0086 96.0444 97.8465L96.3222 97.4307L102.004 98.7602ZM102.004 98.7602C102.04 98.75 102.076 98.7411 102.113 98.7341L102.004 98.7602Z" fill="#252422"/>
<path d="M102.004 98.7602C99.9798 99.3425 97.8016 99.0086 96.0444 97.8465L96.3222 97.4307L102.004 98.7602ZM102.004 98.7602C102.04 98.75 102.076 98.7411 102.113 98.7341L102.004 98.7602Z" fill="#FFFCF2"/>
<path d="M102.004 98.7602C99.9798 99.3425 97.8016 99.0086 96.0444 97.8465L96.3222 97.4307L102.004 98.7602ZM102.004 98.7602C102.04 98.75 102.076 98.7411 102.113 98.7341L102.004 98.7602Z" stroke="#252422"/>
<path d="M77.6749 103.116L78.5551 97.1102C81.0639 99.0063 84.3312 99.6389 87.3916 98.781C87.436 98.7719 87.4809 98.7609 87.526 98.7475C89.4091 98.2054 91.4351 98.5161 93.0691 99.5977C93.0693 99.5978 93.0696 99.598 93.0699 99.5982L94.2971 100.418C94.2974 100.418 94.2976 100.419 94.2978 100.419C96.7803 102.088 99.8695 102.585 102.75 101.779C102.789 101.771 102.833 101.76 102.877 101.747L102.877 101.747L102.881 101.746C104.832 101.164 106.944 101.526 108.589 102.726L108.589 102.726L108.598 102.732C109.697 103.497 110.363 104.743 110.39 106.082L110.39 108.946L110.39 108.951C110.403 110.554 111.127 112.068 112.365 113.086C113.592 114.116 115.146 114.674 116.748 114.663C120.071 114.835 122.916 112.301 123.127 108.978L123.128 108.962V108.947V102.499C123.298 101.978 123.785 101.622 124.338 101.622C124.891 101.622 125.378 101.978 125.549 102.499L125.549 105.034L125.549 105.038C125.557 106.271 126.107 107.437 127.051 108.229C127.969 109.024 129.145 109.457 130.359 109.447C132.897 109.555 135.051 107.6 135.185 105.061L135.186 105.048V105.034V99.595C139.764 100.743 144.613 99.424 147.978 96.1166L149.181 102.272C149.181 102.273 149.181 102.273 149.181 102.274C150.216 107.761 148.701 113.421 145.063 117.657C139.904 123.539 132.416 126.849 124.593 126.704L124.593 126.704H124.584H102.415V126.704L102.404 126.704C94.7456 126.874 87.3914 123.71 82.2491 118.032C78.6008 113.977 76.9271 108.52 77.6749 103.116Z" fill="#252422"/>
<path d="M77.6749 103.116L78.5551 97.1102C81.0639 99.0063 84.3312 99.6389 87.3916 98.781C87.436 98.7719 87.4809 98.7609 87.526 98.7475C89.4091 98.2054 91.4351 98.5161 93.0691 99.5977C93.0693 99.5978 93.0696 99.598 93.0699 99.5982L94.2971 100.418C94.2974 100.418 94.2976 100.419 94.2978 100.419C96.7803 102.088 99.8695 102.585 102.75 101.779C102.789 101.771 102.833 101.76 102.877 101.747L102.877 101.747L102.881 101.746C104.832 101.164 106.944 101.526 108.589 102.726L108.589 102.726L108.598 102.732C109.697 103.497 110.363 104.743 110.39 106.082L110.39 108.946L110.39 108.951C110.403 110.554 111.127 112.068 112.365 113.086C113.592 114.116 115.146 114.674 116.748 114.663C120.071 114.835 122.916 112.301 123.127 108.978L123.128 108.962V108.947V102.499C123.298 101.978 123.785 101.622 124.338 101.622C124.891 101.622 125.378 101.978 125.549 102.499L125.549 105.034L125.549 105.038C125.557 106.271 126.107 107.437 127.051 108.229C127.969 109.024 129.145 109.457 130.359 109.447C132.897 109.555 135.051 107.6 135.185 105.061L135.186 105.048V105.034V99.595C139.764 100.743 144.613 99.424 147.978 96.1166L149.181 102.272C149.181 102.273 149.181 102.273 149.181 102.274C150.216 107.761 148.701 113.421 145.063 117.657C139.904 123.539 132.416 126.849 124.593 126.704L124.593 126.704H124.584H102.415V126.704L102.404 126.704C94.7456 126.874 87.3914 123.71 82.2491 118.032C78.6008 113.977 76.9271 108.52 77.6749 103.116Z" fill="#FFFCF2"/>
<path d="M77.6749 103.116L78.5551 97.1102C81.0639 99.0063 84.3312 99.6389 87.3916 98.781C87.436 98.7719 87.4809 98.7609 87.526 98.7475C89.4091 98.2054 91.4351 98.5161 93.0691 99.5977C93.0693 99.5978 93.0696 99.598 93.0699 99.5982L94.2971 100.418C94.2974 100.418 94.2976 100.419 94.2978 100.419C96.7803 102.088 99.8695 102.585 102.75 101.779C102.789 101.771 102.833 101.76 102.877 101.747L102.877 101.747L102.881 101.746C104.832 101.164 106.944 101.526 108.589 102.726L108.589 102.726L108.598 102.732C109.697 103.497 110.363 104.743 110.39 106.082L110.39 108.946L110.39 108.951C110.403 110.554 111.127 112.068 112.365 113.086C113.592 114.116 115.146 114.674 116.748 114.663C120.071 114.835 122.916 112.301 123.127 108.978L123.128 108.962V108.947V102.499C123.298 101.978 123.785 101.622 124.338 101.622C124.891 101.622 125.378 101.978 125.549 102.499L125.549 105.034L125.549 105.038C125.557 106.271 126.107 107.437 127.051 108.229C127.969 109.024 129.145 109.457 130.359 109.447C132.897 109.555 135.051 107.6 135.185 105.061L135.186 105.048V105.034V99.595C139.764 100.743 144.613 99.424 147.978 96.1166L149.181 102.272C149.181 102.273 149.181 102.273 149.181 102.274C150.216 107.761 148.701 113.421 145.063 117.657C139.904 123.539 132.416 126.849 124.593 126.704L124.593 126.704H124.584H102.415V126.704L102.404 126.704C94.7456 126.874 87.3914 123.71 82.2491 118.032C78.6008 113.977 76.9271 108.52 77.6749 103.116Z" stroke="#252422"/>
</svg>
