<svg width="108" height="108" viewBox="0 0 108 108" fill="none" xmlns="http://www.w3.org/2000/svg">
<g clip-path="url(#clip0)">
<path d="M87.8965 8.85137C84.4634 7.40388 81.3292 5.33369 78.651 2.7453L77.4125 1.50681C76.7216 0.816742 75.6023 0.816742 74.9113 1.50681L73.6737 2.7453C70.9972 5.33196 67.8656 7.40129 64.4369 8.84706C61.9996 9.91454 59.7135 11.2973 57.6355 12.9598C53.9753 15.9014 50.9517 19.5556 48.7459 23.702C48.7157 23.7461 48.688 23.7953 48.6612 23.8428C48.2311 24.6546 47.8511 25.52 47.4763 26.388L46.2965 23.7348L49.9343 14.2778L46.6394 13.0168L44.2713 19.1643L40.6525 11.0287L37.419 12.4606L41.0463 20.6222L34.8643 18.2445L33.5947 21.5472L43.0863 25.1927L45.5123 30.6528L34.9886 26.6108L33.7113 29.9152L45.0313 34.2611C44.761 35.6896 44.5675 37.1311 44.4518 38.5803L36.5415 35.5419L35.2754 38.8403L44.3421 42.3199C44.3421 42.7457 44.3542 43.1724 44.3758 43.5964C43.1951 43.4919 41.999 43.4392 40.7864 43.4392C38.3336 43.4427 35.886 43.6759 33.4764 44.1345C33.3192 43.8391 33.1594 43.5437 33.0109 43.2501L32.9841 43.1974C32.9081 43.0204 32.8252 42.8433 32.7423 42.6663L32.6714 42.5177C31.23 39.2945 30.2627 35.8796 29.8006 32.3792C29.7989 32.3326 29.7954 32.2859 29.7885 32.2393C29.4655 29.5602 29.4198 26.8552 29.6538 24.1667C30.3223 17.3196 32.4624 10.6979 35.9274 4.75417C42.3954 6.11616 48.5118 8.79955 53.8933 12.6359L55.9799 9.77981C49.8324 5.40105 42.8048 2.41365 35.3868 1.02402C34.6492 0.876334 33.8996 1.21057 33.517 1.85745C29.7125 8.10258 27.2571 15.0749 26.3088 22.3253C17.1618 22.8997 8.34212 25.9467 0.791141 31.1407C0.164123 31.557 -0.131249 32.3239 0.055302 33.0529C1.84826 40.4881 5.25626 47.4363 10.0366 53.4067L12.7692 51.1604C8.57617 45.9292 5.524 39.8792 3.80877 33.3983C10.452 29.0507 18.0911 26.4631 26.0083 25.8776C25.9124 28.0911 25.9979 30.309 26.2648 32.5088C26.2648 32.5856 26.27 32.6634 26.2812 32.7402C26.6474 35.5117 27.2995 38.2383 28.2262 40.8768L24.5755 39.4863L20.4601 30.2227L17.2266 31.6615L19.9152 37.6994L11.5808 34.5004L10.3121 37.8021L18.6361 41.0003L12.5974 43.6837L14.0354 46.9172L23.3197 42.7906L29.4448 45.1234C19.9394 47.8301 12.0913 54.558 7.9647 63.5401C6.51721 66.9783 4.44529 70.1186 1.85258 72.8011L0.622727 74.0396C-0.0673379 74.7297 -0.0673379 75.8498 0.622727 76.5399L1.85258 77.7784C4.44442 80.46 6.51721 83.5986 7.9647 87.036C13.3384 99.2248 26.2225 107.115 40.7864 107.115C60.293 107.115 76.1619 92.8328 76.1619 75.2772C76.1619 59.9334 64.037 47.0899 47.9556 44.0991C47.9004 43.2959 47.8615 42.4875 47.8615 41.6705V41.1402C47.909 38.595 48.2173 36.061 48.7813 33.5788C48.9583 32.9009 49.119 32.2592 49.3263 31.5846C49.9343 29.5239 50.7401 27.5272 51.7316 25.6211C51.7583 25.5805 51.7825 25.5399 51.8041 25.4967L51.8309 25.4475C53.8095 21.6957 56.5352 18.3888 59.8396 15.7296C61.6766 14.2588 63.6984 13.0349 65.8533 12.0892C69.6819 10.4673 73.1762 8.15181 76.1619 5.25855C79.1476 8.15095 82.6428 10.4673 86.4706 12.0892C97.4019 16.8869 104.462 28.4988 104.462 41.6705C104.462 57.8339 93.7193 71.427 79.4697 73.2943L79.9292 76.7999C95.9337 74.7063 108 59.6026 108 41.6705C108 27.0945 100.108 14.2121 87.8965 8.85137ZM72.6244 75.2772C72.6244 90.8818 58.342 103.578 40.7864 103.578C27.6251 103.578 16.0114 96.5172 11.2017 85.591C9.58407 81.7607 7.26859 78.2629 4.37447 75.2772C7.26859 72.2915 9.58407 68.7946 11.2017 64.9634C16.0114 54.0381 27.6251 46.9768 40.7864 46.9768C58.342 46.9768 72.6244 59.6735 72.6244 75.2772Z" fill="#252422"/>
<path d="M74.3931 11.6011H77.9306V36.3639H74.3931V11.6011Z" fill="#252422"/>
<path d="M74.3931 39.9014H77.9306V46.9765H74.3931V39.9014Z" fill="#252422"/>
<path d="M74.3931 50.5142H77.9306V61.1268H74.3931V50.5142Z" fill="#252422"/>
<path d="M67.3801 14.6699C64.499 25.2152 63.3313 36.1552 63.9203 47.071L67.4579 46.8836C66.887 36.3461 68.0149 25.7861 70.7976 15.6079L67.3801 14.6699Z" fill="#252422"/>
<path d="M53.0972 41.6332L56.6347 41.7075C56.8118 33.3731 59.2879 26.4449 61.6586 23.2752L58.8284 21.1523C55.5137 25.5743 53.2656 33.6115 53.0972 41.6332Z" fill="#252422"/>
<path d="M84.9435 68.6711C89.7126 50.9868 89.7126 32.3551 84.9435 14.6699L81.5303 15.6079C86.1362 32.6781 86.1362 50.6638 81.5303 67.7332L84.9435 68.6711Z" fill="#252422"/>
<path d="M93.6231 61.9907C98.8439 53.0639 100.423 42.4685 98.0312 32.4077L94.5938 33.2463C96.7685 42.4383 95.3158 52.1147 90.5381 60.2642L93.6231 61.9907Z" fill="#252422"/>
<path d="M93.6231 21.3511L90.5381 23.0775C91.7576 25.2445 92.7819 27.5167 93.598 29.8659L96.943 28.712C96.0595 26.1642 94.9479 23.7002 93.6231 21.3511Z" fill="#252422"/>
<path d="M49.8074 51.8426C44.634 50.2819 39.1437 50.0928 33.8763 51.2942C33.4738 51.3658 33.0774 51.4617 32.687 51.5826C24.6869 53.5207 17.9841 58.9583 14.4387 66.3875L14.3627 66.5645C13.3661 68.8524 13.5949 71.4891 14.9716 73.5705C15.457 74.3064 16.0659 74.955 16.7698 75.4861C16.2783 75.9301 15.8448 76.4353 15.4803 76.9898C14.1045 79.0712 13.8756 81.708 14.874 83.9958L14.95 84.1728C18.4971 91.6064 25.2069 97.0457 33.2147 98.9786C33.5775 99.0891 33.9462 99.1781 34.3202 99.2463C39.63 100.472 45.1686 100.282 50.3826 98.6962C50.8792 98.5813 51.3723 98.4552 51.856 98.3118L51.8326 98.2341C58.8214 95.9204 64.5578 90.8446 67.7059 84.1901C69.1369 80.9739 68.1619 77.1962 65.3532 75.0742C67.7767 72.8718 68.5194 69.3662 67.1963 66.3711C64.0474 59.7174 58.311 54.6426 51.3231 52.3271L51.3464 52.2494C50.8403 52.0956 50.3273 51.9592 49.8074 51.8426ZM40.9989 63.103C41.4834 63.7283 42.0638 64.2741 42.7184 64.7198C41.4627 65.0894 40.1266 65.0894 38.8708 64.7198C39.6853 64.3337 40.4099 63.7827 41.0006 63.103H40.9989ZM41.5102 87.4522C40.9212 86.7707 40.1991 86.2189 39.3873 85.8302C40.6448 85.4571 41.9843 85.4571 43.2418 85.8302C42.582 86.275 41.9981 86.8226 41.5119 87.4522H41.5102ZM60.7543 77.0459C62.1283 77.0485 63.4083 77.7446 64.1579 78.8959C64.9067 80.048 65.0233 81.5007 64.4689 82.7573C61.5359 88.8625 56.1181 93.4106 49.5966 95.2415C46.4132 95.961 45.1151 95.2821 44.0925 93.8743C43.3342 92.8241 43.2435 91.4336 43.8567 90.2945C44.5399 88.9437 45.9278 88.0947 47.4409 88.1025L49.4662 87.9876V87.9557C51.5701 88.1034 53.6688 87.6024 55.4799 86.5211L59.9018 83.868L58.0795 80.8365L53.6576 83.4897C51.4975 84.7878 48.7969 84.7878 46.636 83.4897C43.355 81.5162 39.2517 81.5162 35.9698 83.4897C33.8098 84.7878 31.1091 84.7878 28.9482 83.4897L24.5263 80.8365L22.704 83.868L27.1259 86.5211C28.5976 87.3978 30.2636 87.8961 31.9745 87.9704C32.5316 88.055 33.1292 88.1172 33.7433 88.1785C35.9137 88.3996 38.1652 88.6259 39.0919 90.0621C39.4607 90.7643 39.5816 91.5701 39.4348 92.3491C39.4408 93.547 38.8993 94.681 37.9657 95.4307C37.0554 95.891 36.0121 96.0162 35.0189 95.7848C34.7762 95.7295 34.5318 95.6734 34.2917 95.6077L34.1993 95.5809C27.1976 93.94 21.3126 89.2192 18.1922 82.74L16.5737 83.4474L18.1197 82.563C17.5946 81.3703 17.7181 79.9919 18.447 78.9123C19.207 77.7472 20.5034 77.0451 21.8939 77.0459H60.7543ZM63.9576 67.797C64.5129 69.0545 64.3954 70.5063 63.6467 71.6584C62.897 72.8105 61.6171 73.5058 60.243 73.5084H21.3852C19.9912 73.5075 18.6923 72.8019 17.934 71.6316C17.2042 70.5512 17.0798 69.1728 17.6049 67.9792L15.9847 67.2719L17.6792 67.8134C20.7979 61.3368 26.6777 56.6178 33.6759 54.9751L33.7804 54.9431C34.0171 54.8835 34.258 54.8283 34.4964 54.7669C35.4931 54.5337 36.5389 54.659 37.4527 55.1202C38.3863 55.8698 38.927 57.0038 38.9226 58.2017C39.0686 58.9807 38.9477 59.7865 38.5789 60.4887C37.6436 61.925 35.3955 62.1512 33.2303 62.3723C32.611 62.4345 32.0116 62.4958 31.4615 62.5813C29.7514 62.6539 28.0854 63.1505 26.6155 64.028L22.1936 66.6811L24.015 69.7126L28.4369 67.0594C30.5978 65.7613 33.2985 65.7613 35.4594 67.0594C38.7404 69.0337 42.8437 69.0337 46.1247 67.0594C48.2856 65.7613 50.9863 65.7613 53.1471 67.0594L57.5691 69.7126L59.3905 66.6811L54.9686 64.028C53.1575 62.9467 51.0588 62.4466 48.9549 62.5934V62.5615L46.8321 62.4431C45.3509 62.4259 44.0044 61.5812 43.3446 60.2546C42.7305 59.1146 42.8221 57.7232 43.5795 56.673C44.6004 55.2704 45.8898 54.5864 49.0629 55.3024C55.5939 57.1308 61.0211 61.6831 63.9576 67.797Z" fill="#252422"/>
</g>
<defs>
<clipPath id="clip0">
<rect width="108" height="108" fill="white"/>
</clipPath>
</defs>
</svg>
